<svg id="a2c52fdb-cdc7-4853-a690-2c9a5b235c2d" data-name="Capa 1" xmlns="http://www.w3.org/2000/svg" viewBox="0 0 837.21 162.85"><defs><style>.a018d9b1-07de-4dfb-965f-6628205c18c4{fill:#fd893b;}.ac0bf57c-2258-4510-bfc6-d786dc8af029{fill:#fff;}.f1793000-9b2b-403c-9a12-7837acf22997{fill:none;stroke:#fd893b;stroke-miterlimit:10;stroke-width:2px;}</style></defs><circle class="a018d9b1-07de-4dfb-965f-6628205c18c4" cx="802.05" cy="127.62" r="32.69"/><path class="ac0bf57c-2258-4510-bfc6-d786dc8af029" d="M796,119.2h-2.9v-4.65h8.11V135.9H796Z"/><path class="ac0bf57c-2258-4510-bfc6-d786dc8af029" d="M807.7,136.13a2.73,2.73,0,1,1,2.95-2.69A2.76,2.76,0,0,1,807.7,136.13Z"/><line class="f1793000-9b2b-403c-9a12-7837acf22997" x1="804.7" x2="804.7" y2="94.69"/><line class="f1793000-9b2b-403c-9a12-7837acf22997" x1="35.3" y1="127.62" x2="772.75" y2="127.62"/><circle class="a018d9b1-07de-4dfb-965f-6628205c18c4" cx="35.3" cy="127.62" r="32.69"/><path class="ac0bf57c-2258-4510-bfc6-d786dc8af029" d="M23.56,131.6c4.53-3.75,9.36-7.46,9.36-11.06,0-1.55-.7-2.54-2.22-2.54s-2.37,1.17-2.37,3.19H23.5c.15-5.18,3.51-7.41,7.4-7.41,4.86,0,7,2.84,7,6.44,0,4.68-4.18,8.42-7.58,11h7.9v4.06H23.56Z"/><path class="ac0bf57c-2258-4510-bfc6-d786dc8af029" d="M44.09,135.84A2.73,2.73,0,1,1,47,133.15,2.76,2.76,0,0,1,44.09,135.84Z"/></svg>