<svg id="b8bfa1a8-9253-48ce-be4f-da06245f1dc7" data-name="Capa 1" xmlns="http://www.w3.org/2000/svg" viewBox="0 0 516.4 184.36"><defs><style>.ec9471cb-9892-4cf9-bf16-d67988e23c85,.ee6b58f9-3bdf-4bcf-920d-4fbd742bc6d7{fill:none;stroke:#5f9eb5;}.a3edb1b4-0791-4897-81c2-351ad321eb46,.ec9471cb-9892-4cf9-bf16-d67988e23c85,.ee6b58f9-3bdf-4bcf-920d-4fbd742bc6d7{stroke-miterlimit:10;}.ee6b58f9-3bdf-4bcf-920d-4fbd742bc6d7{stroke-width:2px;}.ec9471cb-9892-4cf9-bf16-d67988e23c85{stroke-width:1.78px;}.a3edb1b4-0791-4897-81c2-351ad321eb46{fill:#5f9eb5;stroke:#e6e6e6;stroke-width:0.29px;}</style></defs><circle class="ee6b58f9-3bdf-4bcf-920d-4fbd742bc6d7" cx="45.21" cy="138.28" r="43.59"/><line class="ec9471cb-9892-4cf9-bf16-d67988e23c85" x1="88.8" y1="138.28" x2="516.4" y2="138.28"/><path class="a3edb1b4-0791-4897-81c2-351ad321eb46" d="M67.55,117.82A7.15,7.15,0,1,0,60.4,125,7.16,7.16,0,0,0,67.55,117.82ZM60.4,121.4A3.58,3.58,0,1,1,64,117.82,3.58,3.58,0,0,1,60.4,121.4Z"/><path class="a3edb1b4-0791-4897-81c2-351ad321eb46" d="M65.24,129.07l-3.58-3.58a1.79,1.79,0,0,0-2.52,0l-3.58,3.58a1.79,1.79,0,0,0,0,2.53,1.8,1.8,0,0,0,2.53,0l.52-.53v4.62H30a1.79,1.79,0,0,0-1.79,1.79v5.6a7.16,7.16,0,1,0,3.57,0v-3.81H60.4a1.79,1.79,0,0,0,1.79-1.79v-6.41l.52.53a1.79,1.79,0,0,0,2.53-2.53ZM33.59,150A3.58,3.58,0,1,1,30,146.42,3.58,3.58,0,0,1,33.59,150Z"/><path class="a3edb1b4-0791-4897-81c2-351ad321eb46" d="M51.46,148.21H45.05l.53-.53a1.79,1.79,0,0,0,0-2.53,1.8,1.8,0,0,0-2.53,0l-3.57,3.58a1.79,1.79,0,0,0,0,2.53l3.57,3.57a1.79,1.79,0,0,0,2.53-2.53l-.53-.52h6.41a1.79,1.79,0,1,0,0-3.57Z"/></svg>