<svg id="ba4e1b02-490e-4990-86a2-333da832627d" data-name="Capa 1" xmlns="http://www.w3.org/2000/svg" viewBox="0 0 500.41 415.33"><defs><style>.ae4b168c-c671-4ca1-9cee-35e487141993{fill:#272b31;}.eadc1c1a-093c-4557-aa08-21a31140c984{fill:#e7514f;}.b1129a64-3211-4a1d-8cd7-c9d13d117f7a{fill:#fff;}</style></defs><path class="ae4b168c-c671-4ca1-9cee-35e487141993" d="M119.22,38.58c0,4.91-3.45,8.28-8.83,8.28h-6.31V30.29h6.31C115.77,30.29,119.22,33.64,119.22,38.58Zm-9.09,4.79c3.09,0,4.92-1.75,4.92-4.79s-1.83-4.84-4.92-4.84h-1.95v9.63Z"/><path class="ae4b168c-c671-4ca1-9cee-35e487141993" d="M127.63,47.05c-3.94,0-6.91-2.6-6.91-6.77s3-6.78,7-6.78,7,2.6,7,6.78S131.57,47.05,127.63,47.05Zm0-3.49c1.46,0,2.83-1.06,2.83-3.28S129.12,37,127.68,37s-2.79,1-2.79,3.28S126.14,43.56,127.63,43.56Z"/><path class="ae4b168c-c671-4ca1-9cee-35e487141993" d="M145,33.5c3.31,0,5.9,2.6,5.9,6.75s-2.61,6.8-5.9,6.8a4.73,4.73,0,0,1-4.13-2v1.84h-4.1V29.39h4.1v6.17A4.77,4.77,0,0,1,145,33.5ZM143.77,37a3,3,0,0,0-2.93,3.26,3,3,0,0,0,2.93,3.25,3,3,0,0,0,2.95-3.28A3,3,0,0,0,143.77,37Z"/><path class="ae4b168c-c671-4ca1-9cee-35e487141993" d="M153.07,29.39h4.1V46.86h-4.1Z"/><path class="ae4b168c-c671-4ca1-9cee-35e487141993" d="M166,47.05a6.41,6.41,0,0,1-6.77-6.77A6.38,6.38,0,0,1,166,33.5c3.91,0,6.68,2.55,6.68,6.56a9.61,9.61,0,0,1-.08,1.18h-9.29a2.47,2.47,0,0,0,2.55,2.53A2.18,2.18,0,0,0,168,42.5h4.37A6.23,6.23,0,0,1,166,47.05Zm-2.66-8h5.13A2.29,2.29,0,0,0,166,36.74,2.52,2.52,0,0,0,163.38,39Z"/><path class="ae4b168c-c671-4ca1-9cee-35e487141993" d="M185.87,33.5a6.12,6.12,0,0,1,6.43,5h-4.37A2.12,2.12,0,0,0,185.79,37c-1.46,0-2.47,1.13-2.47,3.33s1,3.33,2.47,3.33a2.09,2.09,0,0,0,2.14-1.52h4.37a6.2,6.2,0,0,1-6.43,5,6.36,6.36,0,0,1-6.72-6.77A6.38,6.38,0,0,1,185.87,33.5Z"/><path class="ae4b168c-c671-4ca1-9cee-35e487141993" d="M199.44,33.5a4.69,4.69,0,0,1,4.13,2.06V33.69h4.1V46.86h-4.1V45a4.78,4.78,0,0,1-4.15,2c-3.27,0-5.88-2.64-5.88-6.8S196.15,33.5,199.44,33.5Zm1.2,3.52a3,3,0,0,0-2.93,3.23,3,3,0,0,0,2.93,3.28,3,3,0,0,0,2.93-3.25A3,3,0,0,0,200.64,37Z"/><path class="ae4b168c-c671-4ca1-9cee-35e487141993" d="M223.82,46.86h-4.11V45.07A4.93,4.93,0,0,1,215.65,47c-3.09,0-5.18-2.1-5.18-5.61v-7.7h4.08v7.15a2.59,2.59,0,1,0,5.16,0V33.69h4.11Z"/><path class="ae4b168c-c671-4ca1-9cee-35e487141993" d="M232.08,47.05c-3.58,0-6-2-6.17-4.51H230A1.87,1.87,0,0,0,232,44.08c1.06,0,1.61-.47,1.61-1.06,0-2.13-7.3-.6-7.3-5.43,0-2.25,1.95-4.09,5.45-4.09s5.38,1.89,5.64,4.49h-3.79a1.76,1.76,0,0,0-2-1.49c-1,0-1.49.38-1.49,1,0,2.1,7.25.61,7.32,5.52C237.5,45.33,235.44,47.05,232.08,47.05Z"/><path class="ae4b168c-c671-4ca1-9cee-35e487141993" d="M245,33.5a4.69,4.69,0,0,1,4.13,2.06V33.69h4.1V46.86h-4.1V45a4.78,4.78,0,0,1-4.15,2c-3.27,0-5.88-2.64-5.88-6.8S241.68,33.5,245,33.5Zm1.2,3.52a3,3,0,0,0-2.93,3.23,3,3,0,0,0,2.93,3.28,3,3,0,0,0,2.93-3.25A3,3,0,0,0,246.17,37Z"/><path class="ae4b168c-c671-4ca1-9cee-35e487141993" d="M256.1,29.39h4.11V46.86H256.1Z"/><path class="ae4b168c-c671-4ca1-9cee-35e487141993" d="M262.7,30.15a2.45,2.45,0,1,1,2.44,2.17A2.25,2.25,0,0,1,262.7,30.15Zm.38,3.54h4.1V46.86h-4.1Z"/><path class="ae4b168c-c671-4ca1-9cee-35e487141993" d="M275.16,33.5a5,5,0,0,1,4.13,2V29.39h4.1V46.86h-4.1V45a4.65,4.65,0,0,1-4.13,2.08c-3.29,0-5.91-2.64-5.91-6.8S271.87,33.5,275.16,33.5Zm1.2,3.52a3,3,0,0,0-2.93,3.23,3,3,0,0,0,2.93,3.28,3,3,0,0,0,2.93-3.25A3,3,0,0,0,276.36,37Z"/><path class="ae4b168c-c671-4ca1-9cee-35e487141993" d="M291.44,33.5a4.69,4.69,0,0,1,4.13,2.06V33.69h4.1V46.86h-4.1V45a4.77,4.77,0,0,1-4.15,2c-3.27,0-5.88-2.64-5.88-6.8S288.15,33.5,291.44,33.5Zm1.2,3.52a3,3,0,0,0-2.93,3.23,3,3,0,0,0,2.93,3.28,3,3,0,0,0,2.93-3.25A3,3,0,0,0,292.64,37Z"/><path class="ae4b168c-c671-4ca1-9cee-35e487141993" d="M307.72,33.5a4.92,4.92,0,0,1,4.13,2V29.39H316V46.86h-4.11V45a4.64,4.64,0,0,1-4.13,2.08c-3.28,0-5.9-2.64-5.9-6.8S304.44,33.5,307.72,33.5ZM308.93,37A3,3,0,0,0,306,40.25a3,3,0,0,0,2.93,3.28,3,3,0,0,0,2.92-3.25A3,3,0,0,0,308.93,37Z"/><path class="ae4b168c-c671-4ca1-9cee-35e487141993" d="M320.74,37.44a2.21,2.21,0,1,1,2.43-2.17A2.25,2.25,0,0,1,320.74,37.44Zm0,9.61a2.21,2.21,0,1,1,2.43-2.17A2.26,2.26,0,0,1,320.74,47.05Z"/><path class="ae4b168c-c671-4ca1-9cee-35e487141993" d="M105.29,64V75.37h4.52v1H104V64Z"/><path class="ae4b168c-c671-4ca1-9cee-35e487141993" d="M115.25,66.57a4.11,4.11,0,0,1,3.89,2.26V66.71h1.26v9.66h-1.26V74.23a4.15,4.15,0,0,1-3.9,2.29c-2.69,0-4.69-2-4.69-5A4.6,4.6,0,0,1,115.25,66.57Zm.24,1.08a3.55,3.55,0,0,0-3.66,3.87,3.66,3.66,0,1,0,3.66-3.87Z"/><path class="ae4b168c-c671-4ca1-9cee-35e487141993" d="M132.46,76.52a5,5,0,0,1,0-10,4.39,4.39,0,0,1,4.65,4.48,7.47,7.47,0,0,1,0,1h-8.16a3.41,3.41,0,0,0,3.55,3.45,3,3,0,0,0,3.17-2.16H137A4.31,4.31,0,0,1,132.46,76.52ZM128.91,71h6.92a3.19,3.19,0,0,0-3.42-3.38A3.37,3.37,0,0,0,128.91,71Z"/><path class="ae4b168c-c671-4ca1-9cee-35e487141993" d="M146.78,70.85c0-2.14-1.19-3.24-3-3.24s-3.11,1.14-3.11,3.49v5.27h-1.27V66.71h1.27v1.65A3.59,3.59,0,0,1,144,66.53c2.24,0,4,1.35,4,4.18v5.66h-1.24Z"/><path class="ae4b168c-c671-4ca1-9cee-35e487141993" d="M154.9,66.57a4.28,4.28,0,0,1,3.87,2.23V63.28H160V76.37h-1.26V74.21a4.1,4.1,0,0,1-3.89,2.31,5,5,0,0,1,0-10Zm.22,1.08a3.55,3.55,0,0,0-3.66,3.87,3.66,3.66,0,1,0,3.66-3.87Z"/><path class="ae4b168c-c671-4ca1-9cee-35e487141993" d="M167.19,76.52a5,5,0,1,1,4.95-5A4.76,4.76,0,0,1,167.19,76.52Zm0-1.08a3.9,3.9,0,0,0,0-7.79,3.54,3.54,0,0,0-3.62,3.89A3.53,3.53,0,0,0,167.19,75.44Z"/><path class="ae4b168c-c671-4ca1-9cee-35e487141993" d="M178.57,66.57a4.13,4.13,0,0,1,3.89,2.25V66.71h1.26v9.91a4.32,4.32,0,0,1-4.59,4.5c-2.54,0-4.3-1.28-4.7-3.29h1.25A3.35,3.35,0,0,0,179.13,80a3.17,3.17,0,0,0,3.33-3.42V74.23a4.14,4.14,0,0,1-3.89,2.29c-2.7,0-4.69-2-4.69-5A4.59,4.59,0,0,1,178.57,66.57Zm.24,1.08a3.55,3.55,0,0,0-3.66,3.87,3.66,3.66,0,1,0,3.66-3.87Z"/><path class="ae4b168c-c671-4ca1-9cee-35e487141993" d="M190.83,76.52a5,5,0,0,1,0-10,4.38,4.38,0,0,1,4.64,4.48c0,.39,0,.63,0,1h-8.16a3.41,3.41,0,0,0,3.55,3.45A3,3,0,0,0,194,73.31h1.33A4.31,4.31,0,0,1,190.83,76.52ZM187.28,71h6.92a3.19,3.19,0,0,0-3.42-3.38A3.37,3.37,0,0,0,187.28,71Z"/><path class="ae4b168c-c671-4ca1-9cee-35e487141993" d="M205.15,70.85c0-2.14-1.19-3.24-3-3.24S199,68.75,199,71.1v5.27h-1.26V66.71H199v1.65a3.6,3.6,0,0,1,3.35-1.83c2.24,0,4,1.35,4,4.18v5.66h-1.24Z"/><path class="ae4b168c-c671-4ca1-9cee-35e487141993" d="M213.38,76.52a5,5,0,0,1,0-10A4.38,4.38,0,0,1,218,71.05c0,.39,0,.63,0,1h-8.16a3.41,3.41,0,0,0,3.55,3.45,3.06,3.06,0,0,0,3.17-2.16h1.33A4.31,4.31,0,0,1,213.38,76.52ZM209.83,71h6.91a3.18,3.18,0,0,0-3.42-3.38A3.36,3.36,0,0,0,209.83,71Z"/><path class="ae4b168c-c671-4ca1-9cee-35e487141993" d="M220,64a.92.92,0,1,1,.92.92A.9.9,0,0,1,220,64Zm.29,2.74h1.26v9.66h-1.26Z"/><path class="ae4b168c-c671-4ca1-9cee-35e487141993" d="M228.46,66.57a4.27,4.27,0,0,1,3.87,2.23V63.28h1.26V76.37h-1.26V74.21a4.09,4.09,0,0,1-3.88,2.31c-2.71,0-4.7-2-4.7-5A4.6,4.6,0,0,1,228.46,66.57Zm.22,1.08A3.55,3.55,0,0,0,225,71.52a3.66,3.66,0,1,0,3.66-3.87Z"/><path class="ae4b168c-c671-4ca1-9cee-35e487141993" d="M240.57,66.57a4.11,4.11,0,0,1,3.89,2.26V66.71h1.26v9.66h-1.26V74.23a4.15,4.15,0,0,1-3.9,2.29c-2.69,0-4.69-2-4.69-5A4.6,4.6,0,0,1,240.57,66.57Zm.24,1.08a3.55,3.55,0,0,0-3.66,3.87,3.66,3.66,0,1,0,3.66-3.87Z"/><path class="ae4b168c-c671-4ca1-9cee-35e487141993" d="M252.72,66.57a4.28,4.28,0,0,1,3.87,2.23V63.28h1.26V76.37h-1.26V74.21a4.1,4.1,0,0,1-3.89,2.31,5,5,0,0,1,0-10Zm.22,1.08a3.55,3.55,0,0,0-3.66,3.87,3.66,3.66,0,1,0,3.66-3.87Z"/><path class="ae4b168c-c671-4ca1-9cee-35e487141993" d="M270.81,66.57a4.6,4.6,0,0,1,4.68,5c0,3-2,5-4.68,5a4.23,4.23,0,0,1-3.91-2.27v6.69h-1.24V66.71h1.24v2.12A4.19,4.19,0,0,1,270.81,66.57Zm-.25,1.08a3.9,3.9,0,0,0,0,7.79,3.59,3.59,0,0,0,3.65-3.92A3.55,3.55,0,0,0,270.56,67.65Z"/><path class="ae4b168c-c671-4ca1-9cee-35e487141993" d="M282.11,76.52a5,5,0,1,1,4.95-5A4.75,4.75,0,0,1,282.11,76.52Zm0-1.08a3.9,3.9,0,0,0,0-7.79,3.54,3.54,0,0,0-3.62,3.89A3.53,3.53,0,0,0,282.11,75.44Z"/><path class="ae4b168c-c671-4ca1-9cee-35e487141993" d="M290.6,76.37h-1.26V66.71h1.26v1.72a3.4,3.4,0,0,1,3.37-1.9v1.3h-.34c-1.64,0-3,.72-3,3.15Z"/><path class="ae4b168c-c671-4ca1-9cee-35e487141993" d="M304.93,66.57a4.27,4.27,0,0,1,3.87,2.23V63.28h1.27V76.37H308.8V74.21a4.09,4.09,0,0,1-3.88,2.31c-2.71,0-4.7-2-4.7-5A4.6,4.6,0,0,1,304.93,66.57Zm.22,1.08a3.55,3.55,0,0,0-3.66,3.87,3.66,3.66,0,1,0,3.66-3.87Z"/><path class="ae4b168c-c671-4ca1-9cee-35e487141993" d="M317.22,76.52a5,5,0,1,1,5-5A4.76,4.76,0,0,1,317.22,76.52Zm0-1.08a3.9,3.9,0,0,0,0-7.79,3.54,3.54,0,0,0-3.62,3.89A3.53,3.53,0,0,0,317.22,75.44Z"/><path class="ae4b168c-c671-4ca1-9cee-35e487141993" d="M329.6,66.57a4.59,4.59,0,0,1,4.69,5c0,3-2,5-4.69,5a4.12,4.12,0,0,1-3.9-2.27v2.12h-1.24V63.28h1.24v5.57A4.18,4.18,0,0,1,329.6,66.57Zm-.25,1.08A3.9,3.9,0,1,0,333,71.52,3.55,3.55,0,0,0,329.35,67.65Z"/><path class="ae4b168c-c671-4ca1-9cee-35e487141993" d="M336.59,63.28h1.26V76.37h-1.26Z"/><path class="ae4b168c-c671-4ca1-9cee-35e487141993" d="M345,76.52a5,5,0,0,1,0-10,4.38,4.38,0,0,1,4.64,4.48,7.47,7.47,0,0,1,0,1H341.4A3.41,3.41,0,0,0,345,75.47a3,3,0,0,0,3.16-2.16h1.34A4.31,4.31,0,0,1,345,76.52ZM341.4,71h6.91a3.18,3.18,0,0,0-3.42-3.38A3.36,3.36,0,0,0,341.4,71Z"/><path class="ae4b168c-c671-4ca1-9cee-35e487141993" d="M361,66.57c2.47,0,4.07,1.29,4.52,3.29h-1.35A3,3,0,0,0,361,67.63c-1.93,0-3.49,1.29-3.49,3.91s1.56,3.93,3.49,3.93a3,3,0,0,0,3.17-2.25h1.35a4.3,4.3,0,0,1-4.52,3.3,4.62,4.62,0,0,1-4.77-5A4.61,4.61,0,0,1,361,66.57Z"/><path class="ae4b168c-c671-4ca1-9cee-35e487141993" d="M371.83,66.57a4.09,4.09,0,0,1,3.89,2.26V66.71H377v9.66h-1.26V74.23a4.15,4.15,0,0,1-3.9,2.29c-2.69,0-4.69-2-4.69-5A4.6,4.6,0,0,1,371.83,66.57Zm.24,1.08a3.55,3.55,0,0,0-3.66,3.87,3.66,3.66,0,1,0,3.66-3.87Z"/><path class="ae4b168c-c671-4ca1-9cee-35e487141993" d="M388.34,76.37h-1.26V74.68a3.56,3.56,0,0,1-3.35,1.85c-2.23,0-4-1.34-4-4.17V66.71H381v5.5c0,2.15,1.18,3.24,3,3.24s3.12-1.13,3.12-3.48V66.71h1.26Z"/><path class="ae4b168c-c671-4ca1-9cee-35e487141993" d="M394.54,76.52c-2.23,0-3.8-1.1-4-2.87h1.29c.11,1.06,1.05,1.82,2.65,1.82,1.41,0,2.2-.74,2.2-1.66,0-2.39-5.91-1-5.91-4.62,0-1.44,1.39-2.62,3.46-2.62s3.49,1.1,3.6,3h-1.26c-.07-1.08-.88-1.89-2.38-1.89-1.31,0-2.14.69-2.14,1.54,0,2.62,5.82,1.22,5.87,4.64C398,75.37,396.57,76.52,394.54,76.52Z"/><path class="ae4b168c-c671-4ca1-9cee-35e487141993" d="M404.38,66.57a4.11,4.11,0,0,1,3.89,2.26V66.71h1.26v9.66h-1.26V74.23a4.18,4.18,0,0,1-3.91,2.29c-2.68,0-4.68-2-4.68-5A4.6,4.6,0,0,1,404.38,66.57Zm.23,1.08A3.55,3.55,0,0,0,401,71.52a3.59,3.59,0,0,0,3.65,3.92,3.9,3.9,0,0,0,0-7.79Z"/><path class="ae4b168c-c671-4ca1-9cee-35e487141993" d="M412.35,63.28h1.26V76.37h-1.26Z"/><path class="ae4b168c-c671-4ca1-9cee-35e487141993" d="M416.12,64a.92.92,0,1,1,.92.92A.9.9,0,0,1,416.12,64Zm.29,2.74h1.26v9.66h-1.26Z"/><path class="ae4b168c-c671-4ca1-9cee-35e487141993" d="M424.6,66.57a4.27,4.27,0,0,1,3.87,2.23V63.28h1.26V76.37h-1.26V74.21a4.09,4.09,0,0,1-3.89,2.31,5,5,0,0,1,0-10Zm.22,1.08a3.55,3.55,0,0,0-3.66,3.87,3.66,3.66,0,1,0,3.66-3.87Z"/><path class="ae4b168c-c671-4ca1-9cee-35e487141993" d="M436.71,66.57a4.11,4.11,0,0,1,3.89,2.26V66.71h1.26v9.66H440.6V74.23a4.15,4.15,0,0,1-3.91,2.29c-2.68,0-4.68-2-4.68-5A4.6,4.6,0,0,1,436.71,66.57Zm.24,1.08a3.55,3.55,0,0,0-3.66,3.87A3.66,3.66,0,1,0,437,67.65Z"/><path class="ae4b168c-c671-4ca1-9cee-35e487141993" d="M448.86,66.57a4.28,4.28,0,0,1,3.87,2.23V63.28H454V76.37h-1.26V74.21a4.1,4.1,0,0,1-3.89,2.31,5,5,0,0,1,0-10Zm.21,1.08a3.55,3.55,0,0,0-3.65,3.87,3.59,3.59,0,0,0,3.65,3.92,3.9,3.9,0,0,0,0-7.79Z"/><path class="ae4b168c-c671-4ca1-9cee-35e487141993" d="M107.42,106c-2.24,0-3.8-1.1-4-2.87h1.29c.11,1.06,1,1.82,2.65,1.82,1.4,0,2.19-.74,2.19-1.66,0-2.39-5.9-1-5.9-4.62,0-1.43,1.39-2.62,3.46-2.62s3.49,1.1,3.6,3h-1.26a2.1,2.1,0,0,0-2.38-1.9c-1.31,0-2.14.69-2.14,1.54,0,2.62,5.81,1.22,5.87,4.64C110.84,104.88,109.45,106,107.42,106Z"/><path class="ae4b168c-c671-4ca1-9cee-35e487141993" d="M112.86,93.48a.92.92,0,0,1,1.84,0,.92.92,0,0,1-1.84,0Zm.29,2.74h1.26v9.67h-1.26Z"/><path class="ae4b168c-c671-4ca1-9cee-35e487141993" d="M121.32,96.08a4.13,4.13,0,0,1,3.89,2.25V96.22h1.26v9.91a4.32,4.32,0,0,1-4.59,4.5c-2.54,0-4.3-1.27-4.7-3.29h1.25a3.35,3.35,0,0,0,3.45,2.21,3.17,3.17,0,0,0,3.33-3.42v-2.39a4.14,4.14,0,0,1-3.89,2.29c-2.7,0-4.69-2-4.69-5A4.6,4.6,0,0,1,121.32,96.08Zm.24,1.08a3.9,3.9,0,0,0,0,7.79,3.9,3.9,0,0,0,0-7.79Z"/><path class="ae4b168c-c671-4ca1-9cee-35e487141993" d="M136.67,100.36c0-2.14-1.19-3.24-3-3.24s-3.12,1.14-3.12,3.49v5.28H129.3V96.22h1.26v1.65A3.6,3.6,0,0,1,133.91,96c2.23,0,4,1.35,4,4.18v5.67h-1.24Z"/><path class="ae4b168c-c671-4ca1-9cee-35e487141993" d="M140.34,93.48a.92.92,0,0,1,1.83,0,.92.92,0,1,1-1.83,0Zm.28,2.74h1.26v9.67h-1.26Z"/><path class="ae4b168c-c671-4ca1-9cee-35e487141993" d="M145,97.27h-1.37v-1H145v-.67c0-2.07,1-3.06,3.48-3.06v1.06c-1.68,0-2.22.6-2.22,2v.67h2.29v1h-2.29v8.62H145Z"/><path class="ae4b168c-c671-4ca1-9cee-35e487141993" d="M150.13,93.48a.92.92,0,0,1,1.83,0,.92.92,0,1,1-1.83,0Zm.28,2.74h1.27v9.67h-1.27Z"/><path class="ae4b168c-c671-4ca1-9cee-35e487141993" d="M158.66,96.08c2.47,0,4.07,1.29,4.52,3.29h-1.35a3,3,0,0,0-3.17-2.23c-1.93,0-3.49,1.29-3.49,3.91s1.56,3.93,3.49,3.93a3,3,0,0,0,3.17-2.24h1.35a4.3,4.3,0,0,1-4.52,3.29,5,5,0,0,1,0-10Z"/><path class="ae4b168c-c671-4ca1-9cee-35e487141993" d="M169.48,96.08a4.08,4.08,0,0,1,3.88,2.27V96.22h1.27v9.67h-1.27v-2.15a4.15,4.15,0,0,1-3.9,2.29c-2.69,0-4.68-2-4.68-5A4.6,4.6,0,0,1,169.48,96.08Zm.23,1.08a3.9,3.9,0,0,0,0,7.79,3.9,3.9,0,0,0,0-7.79Z"/><path class="ae4b168c-c671-4ca1-9cee-35e487141993" d="M186.57,96.08a4.1,4.1,0,0,1,3.88,2.27V96.22h1.26v14.23h-1.26v-6.69a4.17,4.17,0,0,1-3.91,2.27,5,5,0,0,1,0-10Zm.22,1.08a3.56,3.56,0,0,0-3.65,3.88,3.59,3.59,0,0,0,3.65,3.91,3.9,3.9,0,0,0,0-7.79Z"/><path class="ae4b168c-c671-4ca1-9cee-35e487141993" d="M203.06,105.89H201.8v-1.7a3.56,3.56,0,0,1-3.35,1.86c-2.23,0-4-1.35-4-4.18V96.22h1.24v5.51c0,2.14,1.19,3.24,3,3.24s3.11-1.14,3.11-3.49V96.22h1.26Z"/><path class="ae4b168c-c671-4ca1-9cee-35e487141993" d="M210.16,106a5,5,0,0,1,0-10,4.38,4.38,0,0,1,4.64,4.48c0,.39,0,.64,0,1h-8.16a3.41,3.41,0,0,0,3.55,3.45,3,3,0,0,0,3.17-2.16h1.33A4.31,4.31,0,0,1,210.16,106Zm-3.55-5.51h6.92a3.2,3.2,0,0,0-3.43-3.38A3.37,3.37,0,0,0,206.61,100.52Z"/><path class="ae4b168c-c671-4ca1-9cee-35e487141993" d="M224.48,100.36c0-2.14-1.19-3.24-3-3.24s-3.12,1.14-3.12,3.49v5.28h-1.26V96.22h1.26v1.65A3.6,3.6,0,0,1,221.72,96c2.23,0,4,1.35,4,4.18v5.67h-1.24Z"/><path class="ae4b168c-c671-4ca1-9cee-35e487141993" d="M232.76,106a5,5,0,1,1,5-5A4.75,4.75,0,0,1,232.76,106Zm0-1.08a3.9,3.9,0,0,0,0-7.79,3.91,3.91,0,0,0,0,7.79Z"/><path class="ae4b168c-c671-4ca1-9cee-35e487141993" d="M248.33,106c-2.23,0-3.8-1.1-4-2.87h1.29c.11,1.06,1.05,1.82,2.65,1.82,1.41,0,2.2-.74,2.2-1.66,0-2.39-5.91-1-5.91-4.62,0-1.43,1.39-2.62,3.46-2.62s3.49,1.1,3.6,3H250.4a2.09,2.09,0,0,0-2.38-1.9c-1.31,0-2.14.69-2.14,1.54,0,2.62,5.82,1.22,5.87,4.64C251.75,104.88,250.36,106,248.33,106Z"/><path class="ae4b168c-c671-4ca1-9cee-35e487141993" d="M258.17,96.08a4.08,4.08,0,0,1,3.88,2.27V96.22h1.27v9.67h-1.27v-2.15a4.15,4.15,0,0,1-3.9,2.29c-2.69,0-4.68-2-4.68-5A4.6,4.6,0,0,1,258.17,96.08Zm.23,1.08a3.9,3.9,0,0,0,0,7.79,3.9,3.9,0,0,0,0-7.79Z"/><path class="ae4b168c-c671-4ca1-9cee-35e487141993" d="M271.29,96.08c2.7,0,4.68,1.93,4.68,5s-2,5-4.68,5a4.12,4.12,0,0,1-3.9-2.27v2.13h-1.25V92.79h1.25v5.57A4.18,4.18,0,0,1,271.29,96.08ZM271,97.16A3.9,3.9,0,1,0,274.7,101,3.56,3.56,0,0,0,271,97.16Z"/><path class="ae4b168c-c671-4ca1-9cee-35e487141993" d="M282.54,106a5,5,0,0,1,0-10,4.39,4.39,0,0,1,4.65,4.48,7.4,7.4,0,0,1,0,1H279a3.4,3.4,0,0,0,3.54,3.45,3,3,0,0,0,3.17-2.16H287A4.31,4.31,0,0,1,282.54,106ZM279,100.52h6.91a3.19,3.19,0,0,0-3.42-3.38A3.36,3.36,0,0,0,279,100.52Z"/><path class="ae4b168c-c671-4ca1-9cee-35e487141993" d="M303.86,100.36c0-2.14-1.13-3.24-2.88-3.24s-3,1.17-3,3.53v5.24H296.7v-5.53c0-2.14-1.15-3.24-2.9-3.24s-3,1.17-3,3.53v5.24H289.5V96.22h1.26v1.67A3.51,3.51,0,0,1,294,96a3.64,3.64,0,0,1,3.63,2.38A3.58,3.58,0,0,1,301.2,96c2.18,0,3.91,1.35,3.91,4.18v5.67h-1.25Z"/><path class="ae4b168c-c671-4ca1-9cee-35e487141993" d="M312.17,106a5,5,0,1,1,4.95-5A4.75,4.75,0,0,1,312.17,106Zm0-1.08a3.9,3.9,0,0,0,0-7.79,3.91,3.91,0,0,0,0,7.79Z"/><path class="ae4b168c-c671-4ca1-9cee-35e487141993" d="M322.68,106c-2.23,0-3.8-1.1-4-2.87H320c.11,1.06,1.05,1.82,2.65,1.82,1.41,0,2.2-.74,2.2-1.66,0-2.39-5.91-1-5.91-4.62,0-1.43,1.39-2.62,3.46-2.62s3.49,1.1,3.6,3h-1.26a2.09,2.09,0,0,0-2.38-1.9c-1.31,0-2.14.69-2.14,1.54,0,2.62,5.82,1.22,5.87,4.64C326.1,104.88,324.71,106,322.68,106Z"/><path class="ae4b168c-c671-4ca1-9cee-35e487141993" d="M333.41,92.79h1.26v13.1h-1.26Z"/><path class="ae4b168c-c671-4ca1-9cee-35e487141993" d="M341.63,96.08a4.1,4.1,0,0,1,3.89,2.27V96.22h1.26v9.67h-1.26v-2.15a4.18,4.18,0,0,1-3.91,2.29,5,5,0,0,1,0-10Zm.23,1.08a3.56,3.56,0,0,0-3.65,3.88,3.59,3.59,0,0,0,3.65,3.91,3.9,3.9,0,0,0,0-7.79Z"/><path class="ae4b168c-c671-4ca1-9cee-35e487141993" d="M358.73,96.08a4.3,4.3,0,0,1,3.87,2.23V92.79h1.26v13.1H362.6v-2.16a4.11,4.11,0,0,1-3.89,2.3,5,5,0,0,1,0-10Zm.22,1.08a3.9,3.9,0,0,0,0,7.79,3.9,3.9,0,0,0,0-7.79Z"/><path class="ae4b168c-c671-4ca1-9cee-35e487141993" d="M366.42,93.48a.92.92,0,0,1,1.83,0,.92.92,0,1,1-1.83,0Zm.28,2.74H368v9.67H366.7Z"/><path class="ae4b168c-c671-4ca1-9cee-35e487141993" d="M372,105.89h-1.26V96.22H372v1.72A3.4,3.4,0,0,1,375.4,96v1.3h-.34c-1.64,0-3,.72-3,3.15Z"/><path class="ae4b168c-c671-4ca1-9cee-35e487141993" d="M381.11,106a5,5,0,0,1,0-10,4.39,4.39,0,0,1,4.65,4.48,7.4,7.4,0,0,1,0,1h-8.16a3.41,3.41,0,0,0,3.55,3.45,3,3,0,0,0,3.17-2.16h1.33A4.31,4.31,0,0,1,381.11,106Zm-3.55-5.51h6.92a3.19,3.19,0,0,0-3.42-3.38A3.37,3.37,0,0,0,377.56,100.52Z"/><path class="ae4b168c-c671-4ca1-9cee-35e487141993" d="M392.26,96.08c2.47,0,4.07,1.29,4.52,3.29h-1.35a3,3,0,0,0-3.17-2.23c-1.93,0-3.49,1.29-3.49,3.91s1.56,3.93,3.49,3.93a3,3,0,0,0,3.17-2.24h1.35a4.3,4.3,0,0,1-4.52,3.29,5,5,0,0,1,0-10Z"/><path class="ae4b168c-c671-4ca1-9cee-35e487141993" d="M403.15,96.08c2.47,0,4.07,1.29,4.52,3.29h-1.35a3,3,0,0,0-3.17-2.23c-1.93,0-3.49,1.29-3.49,3.91s1.56,3.93,3.49,3.93a3,3,0,0,0,3.17-2.24h1.35a4.3,4.3,0,0,1-4.52,3.29,5,5,0,0,1,0-10Z"/><path class="ae4b168c-c671-4ca1-9cee-35e487141993" d="M409.59,93.48a.92.92,0,0,1,1.83,0,.92.92,0,1,1-1.83,0Zm.28,2.74h1.26v9.67h-1.26Z"/><path class="ae4b168c-c671-4ca1-9cee-35e487141993" d="M418.23,106a5,5,0,1,1,4.95-5A4.75,4.75,0,0,1,418.23,106Zm0-1.08a3.9,3.9,0,0,0,0-7.79,3.54,3.54,0,0,0-3.62,3.89C414.63,103.71,416.35,105,418.23,105ZM420,92.17v1.11l-3.7,2.11v-1Z"/><path class="ae4b168c-c671-4ca1-9cee-35e487141993" d="M432.82,100.36c0-2.14-1.19-3.24-3-3.24s-3.11,1.14-3.11,3.49v5.28h-1.26V96.22h1.26v1.65A3.6,3.6,0,0,1,430.07,96c2.23,0,4,1.35,4,4.18v5.67h-1.24Z"/><path class="ae4b168c-c671-4ca1-9cee-35e487141993" d="M445.93,96.08a4.3,4.3,0,0,1,3.87,2.23V92.79h1.26v13.1H449.8v-2.16a4.12,4.12,0,0,1-3.89,2.3,5,5,0,0,1,0-10Zm.21,1.08a3.56,3.56,0,0,0-3.65,3.88,3.59,3.59,0,0,0,3.65,3.91,3.9,3.9,0,0,0,0-7.79Z"/><path class="ae4b168c-c671-4ca1-9cee-35e487141993" d="M458.16,106a5,5,0,0,1,0-10,4.39,4.39,0,0,1,4.65,4.48,7.4,7.4,0,0,1,0,1h-8.16a3.41,3.41,0,0,0,3.55,3.45,3,3,0,0,0,3.17-2.16h1.33A4.31,4.31,0,0,1,458.16,106Zm-3.55-5.51h6.92a3.19,3.19,0,0,0-3.42-3.38A3.37,3.37,0,0,0,454.61,100.52Z"/><path class="ae4b168c-c671-4ca1-9cee-35e487141993" d="M470,92.79h1.26v13.1H470Z"/><path class="ae4b168c-c671-4ca1-9cee-35e487141993" d="M478.26,96.08a4.08,4.08,0,0,1,3.89,2.27V96.22h1.26v9.67h-1.26v-2.15a4.15,4.15,0,0,1-3.9,2.29c-2.69,0-4.68-2-4.68-5A4.6,4.6,0,0,1,478.26,96.08Zm.24,1.08a3.9,3.9,0,0,0,0,7.79,3.9,3.9,0,0,0,0-7.79Z"/><path class="ae4b168c-c671-4ca1-9cee-35e487141993" d="M108.23,125.59c2.46,0,4.07,1.29,4.52,3.29H111.4a3,3,0,0,0-3.17-2.23c-1.93,0-3.5,1.3-3.5,3.92s1.57,3.93,3.5,3.93a3,3,0,0,0,3.17-2.25h1.35a4.3,4.3,0,0,1-4.52,3.29,5,5,0,0,1,0-9.95Z"/><path class="ae4b168c-c671-4ca1-9cee-35e487141993" d="M119,125.59a4.12,4.12,0,0,1,3.89,2.27v-2.13h1.26v9.67h-1.26v-2.14a4.15,4.15,0,0,1-3.91,2.28,5,5,0,0,1,0-9.95Zm.24,1.08a3.9,3.9,0,0,0,0,7.79,3.9,3.9,0,0,0,0-7.79Z"/><path class="ae4b168c-c671-4ca1-9cee-35e487141993" d="M135.55,135.4h-1.26v-1.7a3.57,3.57,0,0,1-3.35,1.86c-2.23,0-4-1.35-4-4.18v-5.65h1.24v5.51c0,2.14,1.19,3.24,3,3.24s3.12-1.14,3.12-3.49v-5.26h1.26Z"/><path class="ae4b168c-c671-4ca1-9cee-35e487141993" d="M141.75,135.54c-2.24,0-3.8-1.1-4-2.87h1.29c.11,1.06,1,1.83,2.65,1.83,1.4,0,2.2-.75,2.2-1.67,0-2.39-5.91-1-5.91-4.62,0-1.43,1.39-2.62,3.46-2.62s3.49,1.1,3.6,3h-1.26a2.09,2.09,0,0,0-2.38-1.9c-1.31,0-2.14.69-2.14,1.54,0,2.62,5.81,1.22,5.87,4.64C145.17,134.39,143.78,135.54,141.75,135.54Z"/><path class="ae4b168c-c671-4ca1-9cee-35e487141993" d="M151.58,125.59a4.1,4.1,0,0,1,3.89,2.27v-2.13h1.26v9.67h-1.26v-2.14a4.14,4.14,0,0,1-3.9,2.28,5,5,0,0,1,0-9.95Zm.24,1.08a3.9,3.9,0,0,0,0,7.79,3.9,3.9,0,0,0,0-7.79Z"/><path class="ae4b168c-c671-4ca1-9cee-35e487141993" d="M159.56,122.3h1.26v13.1h-1.26Z"/><path class="ae4b168c-c671-4ca1-9cee-35e487141993" d="M163.33,123a.92.92,0,0,1,1.84,0,.92.92,0,0,1-1.84,0Zm.29,2.74h1.26v9.67h-1.26Z"/><path class="ae4b168c-c671-4ca1-9cee-35e487141993" d="M171.81,125.59a4.3,4.3,0,0,1,3.87,2.23V122.3h1.26v13.1h-1.26v-2.16a4.11,4.11,0,0,1-3.89,2.3,5,5,0,0,1,0-9.95Zm.22,1.08a3.9,3.9,0,0,0,0,7.79,3.9,3.9,0,0,0,0-7.79Z"/><path class="ae4b168c-c671-4ca1-9cee-35e487141993" d="M183.92,125.59a4.12,4.12,0,0,1,3.89,2.27v-2.13h1.26v9.67h-1.26v-2.14a4.17,4.17,0,0,1-3.91,2.28,5,5,0,0,1,0-9.95Zm.23,1.08a3.56,3.56,0,0,0-3.65,3.88,3.59,3.59,0,0,0,3.65,3.91,3.9,3.9,0,0,0,0-7.79Z"/><path class="ae4b168c-c671-4ca1-9cee-35e487141993" d="M196.07,125.59a4.3,4.3,0,0,1,3.87,2.23V122.3h1.26v13.1h-1.26v-2.16a4.12,4.12,0,0,1-3.89,2.3,5,5,0,0,1,0-9.95Zm.21,1.08a3.56,3.56,0,0,0-3.65,3.88,3.59,3.59,0,0,0,3.65,3.91,3.9,3.9,0,0,0,0-7.79Z"/><path class="ae4b168c-c671-4ca1-9cee-35e487141993" d="M204.48,135.49a.91.91,0,0,1-.92-.92.9.9,0,0,1,.92-.91.89.89,0,0,1,.9.91A.9.9,0,0,1,204.48,135.49Z"/><path class="ae4b168c-c671-4ca1-9cee-35e487141993" d="M219.05,124h-5.32v4.62h4.78v1h-4.78v4.69h5.32v1h-6.58V123h6.58Z"/><path class="ae4b168c-c671-4ca1-9cee-35e487141993" d="M224.48,135.54c-2.23,0-3.8-1.1-4-2.87h1.29c.11,1.06,1.05,1.83,2.65,1.83,1.4,0,2.2-.75,2.2-1.67,0-2.39-5.91-1-5.91-4.62,0-1.43,1.39-2.62,3.46-2.62s3.49,1.1,3.6,3h-1.26a2.09,2.09,0,0,0-2.38-1.9c-1.31,0-2.14.69-2.14,1.54,0,2.62,5.82,1.22,5.87,4.64C227.9,134.39,226.51,135.54,224.48,135.54Z"/><path class="ae4b168c-c671-4ca1-9cee-35e487141993" d="M230.46,126.78h-1.37v-1h1.37v-2.42h1.28v2.42h2.7v1h-2.7v6c0,1.18.41,1.56,1.55,1.56h1.15v1.06h-1.35c-1.71,0-2.63-.69-2.63-2.62Z"/><path class="ae4b168c-c671-4ca1-9cee-35e487141993" d="M240.23,135.54a5,5,0,0,1,0-9.95,4.39,4.39,0,0,1,4.65,4.48,7.4,7.4,0,0,1,0,1h-8.16a3.42,3.42,0,0,0,3.55,3.46,3,3,0,0,0,3.17-2.16h1.33A4.31,4.31,0,0,1,240.23,135.54ZM236.68,130h6.92a3.19,3.19,0,0,0-3.42-3.38A3.38,3.38,0,0,0,236.68,130Z"/><path class="ae4b168c-c671-4ca1-9cee-35e487141993" d="M257.26,125.59a5,5,0,0,1,0,9.95,4.21,4.21,0,0,1-3.91-2.27V140h-1.24V125.73h1.24v2.13A4.2,4.2,0,0,1,257.26,125.59Zm-.25,1.08a3.9,3.9,0,0,0,0,7.79,3.59,3.59,0,0,0,3.65-3.91A3.56,3.56,0,0,0,257,126.67Z"/><path class="ae4b168c-c671-4ca1-9cee-35e487141993" d="M265.49,135.4h-1.26v-9.67h1.26v1.72a3.38,3.38,0,0,1,3.37-1.89v1.29h-.35c-1.63,0-3,.72-3,3.15Z"/><path class="ae4b168c-c671-4ca1-9cee-35e487141993" d="M274.59,135.54a5,5,0,1,1,5-5A4.75,4.75,0,0,1,274.59,135.54Zm0-1.08a3.9,3.9,0,0,0,0-7.79,3.91,3.91,0,0,0,0,7.79Z"/><path class="ae4b168c-c671-4ca1-9cee-35e487141993" d="M287,125.59c2.7,0,4.68,1.93,4.68,5a4.63,4.63,0,0,1-4.68,5,4.13,4.13,0,0,1-3.91-2.27v2.13h-1.24V122.3h1.24v5.57A4.18,4.18,0,0,1,287,125.59Zm-.25,1.08a3.9,3.9,0,0,0,0,7.79,3.59,3.59,0,0,0,3.65-3.91A3.56,3.56,0,0,0,286.72,126.67Z"/><path class="ae4b168c-c671-4ca1-9cee-35e487141993" d="M294,122.3h1.26v13.1H294Z"/><path class="ae4b168c-c671-4ca1-9cee-35e487141993" d="M302.31,135.54a5,5,0,0,1,0-9.95,4.38,4.38,0,0,1,4.64,4.48c0,.39,0,.64,0,1h-8.16a3.42,3.42,0,0,0,3.55,3.46,3,3,0,0,0,3.17-2.16h1.33A4.32,4.32,0,0,1,302.31,135.54ZM298.76,130h6.91a3.19,3.19,0,0,0-3.42-3.38A3.37,3.37,0,0,0,298.76,130Z"/><path class="ae4b168c-c671-4ca1-9cee-35e487141993" d="M323.63,129.88c0-2.15-1.13-3.24-2.88-3.24s-3,1.16-3,3.52v5.24h-1.25v-5.52c0-2.15-1.15-3.24-2.9-3.24s-3,1.16-3,3.52v5.24h-1.26v-9.67h1.26v1.67a3.52,3.52,0,0,1,3.26-1.84,3.64,3.64,0,0,1,3.64,2.37,3.57,3.57,0,0,1,3.55-2.37c2.17,0,3.9,1.34,3.9,4.17v5.67h-1.24Z"/><path class="ae4b168c-c671-4ca1-9cee-35e487141993" d="M331.76,125.59a4.12,4.12,0,0,1,3.89,2.27v-2.13h1.26v9.67h-1.26v-2.14a4.17,4.17,0,0,1-3.91,2.28,5,5,0,0,1,0-9.95Zm.23,1.08a3.56,3.56,0,0,0-3.65,3.88,3.59,3.59,0,0,0,3.65,3.91,3.9,3.9,0,0,0,0-7.79Z"/><path class="ae4b168c-c671-4ca1-9cee-35e487141993" d="M349,135.54a5,5,0,0,1,0-9.95,4.38,4.38,0,0,1,4.64,4.48,7.4,7.4,0,0,1,0,1h-8.15A3.42,3.42,0,0,0,349,134.5a3,3,0,0,0,3.16-2.16h1.34A4.32,4.32,0,0,1,349,135.54ZM345.42,130h6.91a3.19,3.19,0,0,0-3.42-3.38A3.37,3.37,0,0,0,345.42,130Z"/><path class="ae4b168c-c671-4ca1-9cee-35e487141993" d="M359.21,135.54c-2.23,0-3.8-1.1-4-2.87h1.3c.11,1.06,1,1.83,2.65,1.83,1.4,0,2.19-.75,2.19-1.67,0-2.39-5.9-1-5.9-4.62,0-1.43,1.38-2.62,3.45-2.62s3.5,1.1,3.6,3h-1.26a2.09,2.09,0,0,0-2.37-1.9c-1.32,0-2.15.69-2.15,1.54,0,2.62,5.82,1.22,5.87,4.64C362.63,134.39,361.25,135.54,359.21,135.54Z"/><path class="ae4b168c-c671-4ca1-9cee-35e487141993" d="M374.06,125.59a4.12,4.12,0,0,1,3.89,2.27v-2.13h1.26v9.67H378v-2.14a4.14,4.14,0,0,1-3.9,2.28,5,5,0,0,1,0-9.95Zm.24,1.08a3.9,3.9,0,0,0,0,7.79,3.9,3.9,0,0,0,0-7.79Z"/><path class="ae4b168c-c671-4ca1-9cee-35e487141993" d="M389.41,129.88c0-2.15-1.19-3.24-3-3.24s-3.12,1.13-3.12,3.48v5.28H382v-9.67h1.26v1.65a3.61,3.61,0,0,1,3.35-1.82c2.23,0,4,1.34,4,4.17v5.67h-1.24Z"/><path class="ae4b168c-c671-4ca1-9cee-35e487141993" d="M397.51,125.59a4.12,4.12,0,0,1,3.89,2.27v-2.13h1.26v9.67H401.4v-2.14a4.17,4.17,0,0,1-3.91,2.28,5,5,0,0,1,0-9.95Zm.23,1.08a3.56,3.56,0,0,0-3.65,3.88,3.59,3.59,0,0,0,3.65,3.91,3.9,3.9,0,0,0,0-7.79Zm2-4.9v1.11L396,125v-1Z"/><path class="ae4b168c-c671-4ca1-9cee-35e487141993" d="M405.49,122.3h1.26v13.1h-1.26Z"/><path class="ae4b168c-c671-4ca1-9cee-35e487141993" d="M413.89,135.54a5,5,0,1,1,4.95-5A4.74,4.74,0,0,1,413.89,135.54Zm0-1.08a3.91,3.91,0,1,0-3.6-3.89A3.53,3.53,0,0,0,413.89,134.46Z"/><path class="ae4b168c-c671-4ca1-9cee-35e487141993" d="M425.28,125.59a4.15,4.15,0,0,1,3.89,2.25v-2.11h1.26v9.92a4.32,4.32,0,0,1-4.59,4.49c-2.54,0-4.31-1.27-4.7-3.29h1.24a3.36,3.36,0,0,0,3.46,2.21,3.18,3.18,0,0,0,3.33-3.41v-2.39a4.16,4.16,0,0,1-3.89,2.28,5,5,0,0,1,0-9.95Zm.23,1.08a3.56,3.56,0,0,0-3.65,3.88,3.59,3.59,0,0,0,3.65,3.91,3.9,3.9,0,0,0,0-7.79Z"/><path class="ae4b168c-c671-4ca1-9cee-35e487141993" d="M437.59,135.54a5,5,0,1,1,5-5A4.75,4.75,0,0,1,437.59,135.54Zm0-1.08a3.9,3.9,0,0,0,0-7.79,3.91,3.91,0,0,0,0,7.79Z"/><path class="ae4b168c-c671-4ca1-9cee-35e487141993" d="M453.89,125.59a4.12,4.12,0,0,1,3.89,2.27v-2.13H459v9.67h-1.26v-2.14a4.14,4.14,0,0,1-3.9,2.28,5,5,0,0,1,0-9.95Zm.24,1.08a3.9,3.9,0,0,0,0,7.79,3.9,3.9,0,0,0,0-7.79Z"/><path class="ae4b168c-c671-4ca1-9cee-35e487141993" d="M466.85,122.3h1.26v13.1h-1.26Z"/><path class="ae4b168c-c671-4ca1-9cee-35e487141993" d="M475.08,125.59a4.12,4.12,0,0,1,3.89,2.27v-2.13h1.26v9.67H479v-2.14a4.17,4.17,0,0,1-3.91,2.28,5,5,0,0,1,0-9.95Zm.23,1.08a3.56,3.56,0,0,0-3.65,3.88,3.59,3.59,0,0,0,3.65,3.91,3.9,3.9,0,0,0,0-7.79Z"/><path class="ae4b168c-c671-4ca1-9cee-35e487141993" d="M108.28,165.05a5,5,0,0,1,0-10,4.39,4.39,0,0,1,4.65,4.48,7.63,7.63,0,0,1,0,1h-8.16a3.41,3.41,0,0,0,3.55,3.45,3,3,0,0,0,3.17-2.16h1.33A4.31,4.31,0,0,1,108.28,165.05Zm-3.55-5.5h6.92a3.19,3.19,0,0,0-3.42-3.38A3.37,3.37,0,0,0,104.73,159.55Z"/><path class="ae4b168c-c671-4ca1-9cee-35e487141993" d="M115.35,156.29H114v-1h1.37v-2.43h1.27v2.43h2.71v1h-2.71v6c0,1.19.42,1.56,1.55,1.56h1.16v1.06H118c-1.71,0-2.62-.69-2.62-2.62Z"/><path class="ae4b168c-c671-4ca1-9cee-35e487141993" d="M125.12,165.05a5,5,0,0,1,0-10,4.38,4.38,0,0,1,4.64,4.48c0,.39,0,.64,0,1h-8.16a3.41,3.41,0,0,0,3.55,3.45,3,3,0,0,0,3.17-2.16h1.33A4.32,4.32,0,0,1,125.12,165.05Zm-3.55-5.5h6.91a3.18,3.18,0,0,0-3.42-3.38A3.36,3.36,0,0,0,121.57,159.55Z"/><path class="ae4b168c-c671-4ca1-9cee-35e487141993" d="M133.33,164.91h-1.26v-9.66h1.26V157a3.41,3.41,0,0,1,3.37-1.89v1.29h-.34c-1.64,0-3,.73-3,3.15Z"/><path class="ae4b168c-c671-4ca1-9cee-35e487141993" d="M145.81,159.39c0-2.14-1.18-3.24-3-3.24s-3.12,1.13-3.12,3.48v5.28h-1.26v-9.66h1.26v1.64a3.61,3.61,0,0,1,3.35-1.82c2.23,0,4,1.34,4,4.18v5.66h-1.25Z"/><path class="ae4b168c-c671-4ca1-9cee-35e487141993" d="M153.92,155.1a4.12,4.12,0,0,1,3.89,2.27v-2.12h1.26v9.66h-1.26v-2.14a4.17,4.17,0,0,1-3.91,2.28c-2.68,0-4.68-2-4.68-5A4.6,4.6,0,0,1,153.92,155.1Zm.23,1.08a3.56,3.56,0,0,0-3.65,3.88,3.59,3.59,0,0,0,3.65,3.91,3.9,3.9,0,0,0,0-7.79Z"/><path class="ae4b168c-c671-4ca1-9cee-35e487141993" d="M172,155.1a4.6,4.6,0,0,1,4.68,5c0,3-2,5-4.68,5a4.2,4.2,0,0,1-3.91-2.26v6.69h-1.24V155.25h1.24v2.12A4.17,4.17,0,0,1,172,155.1Zm-.26,1.08a3.9,3.9,0,0,0,0,7.79,3.9,3.9,0,0,0,0-7.79Z"/><path class="ae4b168c-c671-4ca1-9cee-35e487141993" d="M180.26,164.91H179v-9.66h1.27V157a3.39,3.39,0,0,1,3.36-1.89v1.29h-.34c-1.64,0-3,.73-3,3.15Z"/><path class="ae4b168c-c671-4ca1-9cee-35e487141993" d="M189.33,165.05a5,5,0,0,1,0-10,4.38,4.38,0,0,1,4.65,4.48,7.63,7.63,0,0,1,0,1h-8.15a3.41,3.41,0,0,0,3.54,3.45,3,3,0,0,0,3.17-2.16h1.34A4.33,4.33,0,0,1,189.33,165.05Zm-3.54-5.5h6.91a3.18,3.18,0,0,0-3.42-3.38A3.36,3.36,0,0,0,185.79,159.55Z"/><path class="ae4b168c-c671-4ca1-9cee-35e487141993" d="M200.41,155.1a4.14,4.14,0,0,1,3.89,2.25v-2.1h1.26v9.91a4.31,4.31,0,0,1-4.59,4.49c-2.54,0-4.3-1.27-4.7-3.29h1.24a3.37,3.37,0,0,0,3.46,2.21,3.18,3.18,0,0,0,3.33-3.41v-2.39a4.14,4.14,0,0,1-3.89,2.28,5,5,0,0,1,0-10Zm.24,1.08a3.9,3.9,0,0,0,0,7.79,3.9,3.9,0,0,0,0-7.79Z"/><path class="ae4b168c-c671-4ca1-9cee-35e487141993" d="M216.92,164.91h-1.26v-1.7a3.57,3.57,0,0,1-3.35,1.86c-2.23,0-4-1.35-4-4.18v-5.64h1.24v5.5c0,2.14,1.19,3.24,3,3.24s3.12-1.13,3.12-3.49v-5.25h1.26Z"/><path class="ae4b168c-c671-4ca1-9cee-35e487141993" d="M227.1,159.39c0-2.14-1.19-3.24-3-3.24s-3.11,1.13-3.11,3.48v5.28h-1.26v-9.66H221v1.64a3.61,3.61,0,0,1,3.35-1.82c2.23,0,4,1.34,4,4.18v5.66H227.1Z"/><path class="ae4b168c-c671-4ca1-9cee-35e487141993" d="M231.22,156.29h-1.37v-1h1.37v-2.43h1.28v2.43h2.7v1h-2.7v6c0,1.19.41,1.56,1.55,1.56h1.15v1.06h-1.35c-1.71,0-2.63-.69-2.63-2.62Z"/><path class="ae4b168c-c671-4ca1-9cee-35e487141993" d="M240.87,155.1a4.12,4.12,0,0,1,3.89,2.27v-2.12H246v9.66h-1.26v-2.14a4.17,4.17,0,0,1-3.91,2.28c-2.68,0-4.68-2-4.68-5A4.6,4.6,0,0,1,240.87,155.1Zm.23,1.08a3.56,3.56,0,0,0-3.65,3.88A3.59,3.59,0,0,0,241.1,164a3.9,3.9,0,0,0,0-7.79Z"/><path class="ae4b168c-c671-4ca1-9cee-35e487141993" d="M257,167.78c-2.3,0-3.92-1.42-3.92-3.61,0-2.68,1.87-3.7,4.46-3.7l.05-1.95h1.08l.08,2.83h-.47c-2.07,0-4,.39-4,2.82a2.47,2.47,0,0,0,2.72,2.54,2.38,2.38,0,0,0,2.67-2.44h1.2C260.9,166.41,259.3,167.78,257,167.78Zm1.13-12.62a.9.9,0,0,1,.92.92.91.91,0,0,1-1.82,0A.9.9,0,0,1,258.16,155.16Z"/><path class="ae4b168c-c671-4ca1-9cee-35e487141993" d="M266.31,155.1a4.11,4.11,0,0,1,3.87,2.27v-2.12h1.26v14.23h-1.26v-6.69a4.17,4.17,0,0,1-3.91,2.26c-2.68,0-4.68-2-4.68-5A4.61,4.61,0,0,1,266.31,155.1Zm.22,1.08a3.9,3.9,0,0,0,0,7.79,3.9,3.9,0,0,0,0-7.79Z"/><path class="ae4b168c-c671-4ca1-9cee-35e487141993" d="M282.8,164.91h-1.26v-1.7a3.57,3.57,0,0,1-3.35,1.86c-2.23,0-4-1.35-4-4.18v-5.64h1.24v5.5c0,2.14,1.19,3.24,3,3.24s3.12-1.13,3.12-3.49v-5.25h1.26Z"/><path class="ae4b168c-c671-4ca1-9cee-35e487141993" d="M289.89,165.05a5,5,0,0,1,0-10,4.39,4.39,0,0,1,4.65,4.48,7.63,7.63,0,0,1,0,1h-8.15a3.41,3.41,0,0,0,3.54,3.45,3,3,0,0,0,3.17-2.16h1.33A4.31,4.31,0,0,1,289.89,165.05Zm-3.54-5.5h6.91a3.19,3.19,0,0,0-3.42-3.38A3.36,3.36,0,0,0,286.35,159.55Zm5.11-8.27v1.12l-3.69,2.1v-.95Z"/><path class="ae4b168c-c671-4ca1-9cee-35e487141993" d="M302.1,156.29h-1.37v-1h1.37v-.68c0-2.07,1-3.06,3.47-3.06v1.06c-1.67,0-2.21.6-2.21,2v.68h2.28v1h-2.28v8.62H302.1Z"/><path class="ae4b168c-c671-4ca1-9cee-35e487141993" d="M316,164.91h-1.26v-1.7a3.56,3.56,0,0,1-3.35,1.86c-2.23,0-4-1.35-4-4.18v-5.64h1.24v5.5c0,2.14,1.19,3.24,3,3.24s3.11-1.13,3.11-3.49v-5.25H316Z"/><path class="ae4b168c-c671-4ca1-9cee-35e487141993" d="M323.1,165.05a5,5,0,0,1,0-10,4.38,4.38,0,0,1,4.64,4.48c0,.39,0,.64,0,1h-8.16A3.41,3.41,0,0,0,323.1,164a3,3,0,0,0,3.17-2.16h1.33A4.32,4.32,0,0,1,323.1,165.05Zm-3.55-5.5h6.91a3.18,3.18,0,0,0-3.42-3.38A3.36,3.36,0,0,0,319.55,159.55Z"/><path class="ae4b168c-c671-4ca1-9cee-35e487141993" d="M340.13,155.1a4.6,4.6,0,0,1,4.68,5c0,3-2,5-4.68,5a4.2,4.2,0,0,1-3.91-2.26v6.69H335V155.25h1.24v2.12A4.17,4.17,0,0,1,340.13,155.1Zm-.26,1.08a3.9,3.9,0,0,0,0,7.79,3.9,3.9,0,0,0,0-7.79Z"/><path class="ae4b168c-c671-4ca1-9cee-35e487141993" d="M348.36,164.91h-1.27v-9.66h1.27V157a3.39,3.39,0,0,1,3.36-1.89v1.29h-.34c-1.64,0-3,.73-3,3.15Z"/><path class="ae4b168c-c671-4ca1-9cee-35e487141993" d="M353.19,152.5a.92.92,0,0,1,1.83,0,.92.92,0,1,1-1.83,0Zm.28,2.75h1.26v9.66h-1.26Z"/><path class="ae4b168c-c671-4ca1-9cee-35e487141993" d="M371.91,159.39c0-2.14-1.13-3.24-2.88-3.24s-3,1.17-3,3.52v5.24h-1.25v-5.52c0-2.14-1.15-3.24-2.89-3.24s-3.05,1.17-3.05,3.52v5.24h-1.26v-9.66h1.26v1.66a3.53,3.53,0,0,1,3.26-1.84,3.64,3.64,0,0,1,3.64,2.37,3.57,3.57,0,0,1,3.55-2.37c2.17,0,3.9,1.34,3.9,4.18v5.66h-1.24Z"/><path class="ae4b168c-c671-4ca1-9cee-35e487141993" d="M380.16,165.05a5,5,0,0,1,0-10,4.38,4.38,0,0,1,4.65,4.48,7.63,7.63,0,0,1,0,1h-8.15a3.41,3.41,0,0,0,3.54,3.45,3,3,0,0,0,3.17-2.16h1.34A4.32,4.32,0,0,1,380.16,165.05Zm-3.54-5.5h6.91a3.18,3.18,0,0,0-3.42-3.38A3.36,3.36,0,0,0,376.62,159.55Z"/><path class="ae4b168c-c671-4ca1-9cee-35e487141993" d="M388.38,164.91h-1.26v-9.66h1.26V157a3.39,3.39,0,0,1,3.36-1.89v1.29h-.34c-1.64,0-3,.73-3,3.15Z"/><path class="ae4b168c-c671-4ca1-9cee-35e487141993" d="M397.47,165.05a5,5,0,1,1,5-5A4.75,4.75,0,0,1,397.47,165.05Zm0-1.08a3.91,3.91,0,1,0-3.6-3.89A3.53,3.53,0,0,0,397.47,164Z"/><path class="ae4b168c-c671-4ca1-9cee-35e487141993" d="M404.34,162.86h1.41l-1.86,4.63H403Z"/><path class="ae4b168c-c671-4ca1-9cee-35e487141993" d="M416.89,165.05a5,5,0,0,1,0-10,4.38,4.38,0,0,1,4.64,4.48c0,.39,0,.64,0,1h-8.16a3.41,3.41,0,0,0,3.55,3.45,3,3,0,0,0,3.17-2.16h1.33A4.31,4.31,0,0,1,416.89,165.05Zm-3.55-5.5h6.92a3.2,3.2,0,0,0-3.43-3.38A3.37,3.37,0,0,0,413.34,159.55Z"/><path class="ae4b168c-c671-4ca1-9cee-35e487141993" d="M423.84,151.81h1.26v13.1h-1.26Z"/><path class="ae4b168c-c671-4ca1-9cee-35e487141993" d="M432.89,151.81h1.26v5.08a3.73,3.73,0,0,1,3.42-1.82c2.18,0,3.92,1.34,3.92,4.18v5.66h-1.24v-5.52c0-2.14-1.19-3.24-3-3.24s-3.11,1.13-3.11,3.48v5.28h-1.26Z"/><path class="ae4b168c-c671-4ca1-9cee-35e487141993" d="M452.7,164.91h-1.26v-1.7a3.56,3.56,0,0,1-3.35,1.86c-2.23,0-4-1.35-4-4.18v-5.64h1.25v5.5c0,2.14,1.18,3.24,3,3.24s3.12-1.13,3.12-3.49v-5.25h1.26Z"/><path class="ae4b168c-c671-4ca1-9cee-35e487141993" d="M459.8,165.05a5,5,0,0,1,0-10,4.38,4.38,0,0,1,4.64,4.48c0,.39,0,.64,0,1h-8.16A3.41,3.41,0,0,0,459.8,164a3,3,0,0,0,3.17-2.16h1.33A4.32,4.32,0,0,1,459.8,165.05Zm-3.55-5.5h6.91a3.18,3.18,0,0,0-3.42-3.38A3.36,3.36,0,0,0,456.25,159.55Z"/><path class="ae4b168c-c671-4ca1-9cee-35e487141993" d="M466.55,155.25l3.31,8.46,3.32-8.46h1.33l-3.94,9.66h-1.43l-3.94-9.66Z"/><path class="ae4b168c-c671-4ca1-9cee-35e487141993" d="M480.08,165.05a5,5,0,1,1,5-5A4.75,4.75,0,0,1,480.08,165.05Zm0-1.08a3.91,3.91,0,1,0-3.6-3.89A3.53,3.53,0,0,0,480.08,164Z"/><path class="ae4b168c-c671-4ca1-9cee-35e487141993" d="M108.33,194.56a5,5,0,1,1,5-5A4.75,4.75,0,0,1,108.33,194.56Zm0-1.08a3.91,3.91,0,1,0-3.6-3.89A3.53,3.53,0,0,0,108.33,193.48Z"/><path class="ae4b168c-c671-4ca1-9cee-35e487141993" d="M120.52,181.32h1.26v13.1h-1.26Z"/><path class="ae4b168c-c671-4ca1-9cee-35e487141993" d="M128.74,184.61a4.12,4.12,0,0,1,3.89,2.27v-2.12h1.26v9.66h-1.26v-2.14a4.14,4.14,0,0,1-3.9,2.28,5,5,0,0,1,0-9.95Zm.24,1.08a3.9,3.9,0,0,0,0,7.79,3.9,3.9,0,0,0,0-7.79Z"/><path class="ae4b168c-c671-4ca1-9cee-35e487141993" d="M145.83,184.61a4.12,4.12,0,0,1,3.88,2.25v-2.1H151v9.91a4.32,4.32,0,0,1-4.6,4.49c-2.54,0-4.3-1.27-4.7-3.29h1.25a3.35,3.35,0,0,0,3.45,2.21,3.17,3.17,0,0,0,3.33-3.41v-2.39a4.13,4.13,0,0,1-3.88,2.28c-2.71,0-4.7-2-4.7-5A4.6,4.6,0,0,1,145.83,184.61Zm.23,1.08a3.9,3.9,0,0,0,0,7.79,3.9,3.9,0,0,0,0-7.79Z"/><path class="ae4b168c-c671-4ca1-9cee-35e487141993" d="M158,184.61a4.12,4.12,0,0,1,3.89,2.27v-2.12h1.26v9.66h-1.26v-2.14a4.14,4.14,0,0,1-3.9,2.28,5,5,0,0,1,0-9.95Zm.24,1.08a3.9,3.9,0,0,0,0,7.79,3.9,3.9,0,0,0,0-7.79Z"/><path class="ae4b168c-c671-4ca1-9cee-35e487141993" d="M165.93,181.32h1.26v13.1h-1.26Z"/><path class="ae4b168c-c671-4ca1-9cee-35e487141993" d="M170,181.32h1.26v13.1H170Z"/><path class="ae4b168c-c671-4ca1-9cee-35e487141993" d="M173.75,182a.92.92,0,0,1,1.84,0,.92.92,0,1,1-1.84,0Zm.29,2.75h1.26v9.66H174Z"/><path class="ae4b168c-c671-4ca1-9cee-35e487141993" d="M185.47,188.9c0-2.14-1.19-3.24-3-3.24s-3.11,1.13-3.11,3.49v5.27h-1.26v-9.66h1.26v1.64a3.61,3.61,0,0,1,3.35-1.82c2.23,0,4,1.34,4,4.18v5.66h-1.24Z"/><path class="ae4b168c-c671-4ca1-9cee-35e487141993" d="M193.57,184.61a4.12,4.12,0,0,1,3.89,2.27v-2.12h1.26v9.66h-1.26v-2.14a4.16,4.16,0,0,1-3.91,2.28c-2.68,0-4.68-2-4.68-5A4.6,4.6,0,0,1,193.57,184.61Zm.24,1.08a3.9,3.9,0,0,0,0,7.79,3.9,3.9,0,0,0,0-7.79Z"/><path class="ae4b168c-c671-4ca1-9cee-35e487141993" d="M204.44,181.89c2.3,0,3.92,1.42,3.92,3.61,0,2.67-1.87,3.7-4.46,3.7l-.06,2h-1.08l-.07-2.84h.47c2.07,0,4-.39,4-2.81a2.46,2.46,0,0,0-2.71-2.55,2.38,2.38,0,0,0-2.67,2.44h-1.21C200.56,183.25,202.17,181.89,204.44,181.89Zm-1.14,12.62a.91.91,0,0,1-.92-.92.89.89,0,0,1,.92-.9.88.88,0,0,1,.9.9A.9.9,0,0,1,203.3,194.51Z"/><path class="ae4b168c-c671-4ca1-9cee-35e487141993" d="M219.34,189.15H216.8v5.27h-1.26V182.05h3.8c2.92,0,4.25,1.52,4.25,3.56S222.29,189.15,219.34,189.15Zm0-1.07c2.12,0,2.95-1,2.95-2.47s-.83-2.52-2.95-2.52H216.8v5Z"/><path class="ae4b168c-c671-4ca1-9cee-35e487141993" d="M229.69,194.56a5,5,0,1,1,4.95-5A4.75,4.75,0,0,1,229.69,194.56Zm0-1.08a3.91,3.91,0,1,0-3.6-3.89A3.53,3.53,0,0,0,229.69,193.48Z"/><path class="ae4b168c-c671-4ca1-9cee-35e487141993" d="M238.18,194.42h-1.26v-9.66h1.26v1.71a3.41,3.41,0,0,1,3.37-1.89v1.29h-.34c-1.64,0-3,.73-3,3.15Z"/><path class="ae4b168c-c671-4ca1-9cee-35e487141993" d="M252.62,194.56a5,5,0,0,1,0-9.95,4.38,4.38,0,0,1,4.64,4.48c0,.39,0,.64,0,1h-8.16a3.41,3.41,0,0,0,3.55,3.45,3,3,0,0,0,3.17-2.16h1.33A4.31,4.31,0,0,1,252.62,194.56Zm-3.55-5.5H256a3.19,3.19,0,0,0-3.42-3.38A3.37,3.37,0,0,0,249.07,189.06Z"/><path class="ae4b168c-c671-4ca1-9cee-35e487141993" d="M260.81,184.76V196.7c0,1.56-.79,2.29-2.38,2.29h-.88v-1.06h.68c.94,0,1.32-.34,1.32-1.28V184.76ZM259.28,182a.89.89,0,0,1,.92-.9.88.88,0,0,1,.9.9.89.89,0,0,1-.9.92A.91.91,0,0,1,259.28,182Z"/><path class="ae4b168c-c671-4ca1-9cee-35e487141993" d="M267.86,194.56a5,5,0,0,1,0-9.95,4.38,4.38,0,0,1,4.64,4.48c0,.39,0,.64,0,1h-8.16a3.41,3.41,0,0,0,3.55,3.45,3,3,0,0,0,3.16-2.16h1.34A4.32,4.32,0,0,1,267.86,194.56Zm-3.55-5.5h6.91a3.18,3.18,0,0,0-3.42-3.38A3.36,3.36,0,0,0,264.31,189.06Z"/><path class="ae4b168c-c671-4ca1-9cee-35e487141993" d="M289.18,188.9c0-2.14-1.14-3.24-2.88-3.24s-3.05,1.17-3.05,3.52v5.24H282V188.9c0-2.14-1.15-3.24-2.9-3.24s-3,1.17-3,3.52v5.24h-1.26v-9.66h1.26v1.66a3.52,3.52,0,0,1,3.26-1.84A3.64,3.64,0,0,1,283,187a3.58,3.58,0,0,1,3.54-2.37c2.18,0,3.91,1.34,3.91,4.18v5.66h-1.24Z"/><path class="ae4b168c-c671-4ca1-9cee-35e487141993" d="M298.35,184.61a4.6,4.6,0,0,1,4.68,5c0,3-2,5-4.68,5a4.21,4.21,0,0,1-3.91-2.26V199H293.2V184.76h1.24v2.12A4.18,4.18,0,0,1,298.35,184.61Zm-.26,1.08a3.9,3.9,0,0,0,0,7.79,3.9,3.9,0,0,0,0-7.79Z"/><path class="ae4b168c-c671-4ca1-9cee-35e487141993" d="M305.34,181.32h1.26v13.1h-1.26Z"/><path class="ae4b168c-c671-4ca1-9cee-35e487141993" d="M313.74,194.56a5,5,0,1,1,4.95-5A4.74,4.74,0,0,1,313.74,194.56Zm0-1.08a3.91,3.91,0,1,0-3.6-3.89A3.53,3.53,0,0,0,313.74,193.48Z"/><path class="ae4b168c-c671-4ca1-9cee-35e487141993" d="M320.61,192.37H322L320.16,197h-.88Z"/><path class="ae4b168c-c671-4ca1-9cee-35e487141993" d="M332.29,194.56c-2.23,0-3.8-1.1-4-2.87h1.3c.11,1.07,1,1.83,2.65,1.83,1.4,0,2.19-.75,2.19-1.67,0-2.39-5.9-1-5.9-4.62,0-1.43,1.38-2.62,3.45-2.62s3.5,1.1,3.6,3h-1.26c-.07-1.08-.88-1.89-2.37-1.89-1.32,0-2.15.69-2.15,1.54,0,2.62,5.82,1.22,5.87,4.63C335.71,193.41,334.33,194.56,332.29,194.56Z"/><path class="ae4b168c-c671-4ca1-9cee-35e487141993" d="M337.74,182a.92.92,0,0,1,1.84,0,.92.92,0,1,1-1.84,0Zm.29,2.75h1.26v9.66H338Z"/><path class="ae4b168c-c671-4ca1-9cee-35e487141993" d="M351.22,184.61a4.1,4.1,0,0,1,3.87,2.27v-2.12h1.26V199h-1.26V192.3a4.16,4.16,0,0,1-3.9,2.26c-2.69,0-4.68-2-4.68-5A4.6,4.6,0,0,1,351.22,184.61Zm.22,1.08a3.9,3.9,0,0,0,0,7.79,3.9,3.9,0,0,0,0-7.79Z"/><path class="ae4b168c-c671-4ca1-9cee-35e487141993" d="M367.71,194.42h-1.26v-1.7a3.56,3.56,0,0,1-3.35,1.86c-2.23,0-4-1.35-4-4.18v-5.64h1.25v5.5c0,2.14,1.18,3.24,3,3.24s3.12-1.13,3.12-3.49v-5.25h1.26Z"/><path class="ae4b168c-c671-4ca1-9cee-35e487141993" d="M374.81,194.56a5,5,0,0,1,0-9.95,4.38,4.38,0,0,1,4.64,4.48c0,.39,0,.64,0,1h-8.16a3.41,3.41,0,0,0,3.55,3.45,3,3,0,0,0,3.16-2.16h1.34A4.32,4.32,0,0,1,374.81,194.56Zm-3.55-5.5h6.91a3.18,3.18,0,0,0-3.42-3.38A3.36,3.36,0,0,0,371.26,189.06Z"/><path class="ae4b168c-c671-4ca1-9cee-35e487141993" d="M383,194.42h-1.26v-9.66H383v1.71a3.41,3.41,0,0,1,3.37-1.89v1.29h-.34c-1.64,0-3,.73-3,3.15Z"/><path class="ae4b168c-c671-4ca1-9cee-35e487141993" d="M392.1,194.56a5,5,0,0,1,0-9.95,4.38,4.38,0,0,1,4.64,4.48c0,.39,0,.64,0,1h-8.16a3.41,3.41,0,0,0,3.55,3.45,3,3,0,0,0,3.17-2.16h1.33A4.31,4.31,0,0,1,392.1,194.56Zm-3.55-5.5h6.92a3.2,3.2,0,0,0-3.43-3.38A3.37,3.37,0,0,0,388.55,189.06Z"/><path class="ae4b168c-c671-4ca1-9cee-35e487141993" d="M413.42,188.9c0-2.14-1.13-3.24-2.88-3.24s-3,1.17-3,3.52v5.24h-1.25V188.9c0-2.14-1.15-3.24-2.89-3.24s-3.05,1.17-3.05,3.52v5.24h-1.26v-9.66h1.26v1.66a3.53,3.53,0,0,1,3.26-1.84,3.64,3.64,0,0,1,3.64,2.37,3.59,3.59,0,0,1,3.55-2.37c2.17,0,3.9,1.34,3.9,4.18v5.66h-1.24Z"/><path class="ae4b168c-c671-4ca1-9cee-35e487141993" d="M421.73,194.56a5,5,0,1,1,4.95-5A4.75,4.75,0,0,1,421.73,194.56Zm0-1.08a3.91,3.91,0,1,0-3.6-3.89A3.53,3.53,0,0,0,421.73,193.48Z"/><path class="ae4b168c-c671-4ca1-9cee-35e487141993" d="M432.23,194.56c-2.23,0-3.79-1.1-4-2.87h1.3c.11,1.07,1,1.83,2.65,1.83,1.4,0,2.19-.75,2.19-1.67,0-2.39-5.9-1-5.9-4.62,0-1.43,1.38-2.62,3.45-2.62s3.5,1.1,3.61,3h-1.26a2.1,2.1,0,0,0-2.38-1.89c-1.32,0-2.14.69-2.14,1.54,0,2.62,5.81,1.22,5.87,4.63C435.66,193.41,434.27,194.56,432.23,194.56Z"/><path class="ae4b168c-c671-4ca1-9cee-35e487141993" d="M108.28,224.07a5,5,0,0,1,0-9.94,4.38,4.38,0,0,1,4.65,4.47,7.63,7.63,0,0,1,0,1h-8.16a3.41,3.41,0,0,0,3.55,3.45,3,3,0,0,0,3.17-2.16h1.33A4.31,4.31,0,0,1,108.28,224.07Zm-3.55-5.5h6.92a3.19,3.19,0,0,0-3.42-3.38A3.37,3.37,0,0,0,104.73,218.57Z"/><path class="ae4b168c-c671-4ca1-9cee-35e487141993" d="M118.53,224.07c-2.23,0-3.8-1.09-4-2.86h1.29c.11,1.06,1,1.82,2.65,1.82,1.41,0,2.2-.74,2.2-1.66,0-2.39-5.91-1-5.91-4.62,0-1.44,1.39-2.62,3.46-2.62s3.49,1.09,3.6,3H120.6c-.07-1.08-.88-1.89-2.38-1.89-1.31,0-2.14.69-2.14,1.54,0,2.62,5.82,1.22,5.87,4.64C122,222.92,120.56,224.07,118.53,224.07Z"/><path class="ae4b168c-c671-4ca1-9cee-35e487141993" d="M124.51,215.31h-1.37v-1h1.37v-2.43h1.28v2.43h2.7v1h-2.7v6c0,1.19.41,1.56,1.55,1.56h1.15v1.06h-1.35c-1.71,0-2.63-.69-2.63-2.62Z"/><path class="ae4b168c-c671-4ca1-9cee-35e487141993" d="M138.89,223.93h-1.26v-1.7a3.56,3.56,0,0,1-3.35,1.86c-2.23,0-4-1.34-4-4.18v-5.64h1.24v5.5c0,2.14,1.19,3.24,3,3.24s3.11-1.13,3.11-3.48v-5.26h1.26Z"/><path class="ae4b168c-c671-4ca1-9cee-35e487141993" d="M145.88,214.13a4.27,4.27,0,0,1,3.87,2.23v-5.53H151v13.1h-1.26v-2.16a4.09,4.09,0,0,1-3.89,2.3,5,5,0,0,1,0-9.94Zm.22,1.08a3.55,3.55,0,0,0-3.66,3.87,3.66,3.66,0,1,0,3.66-3.87Z"/><path class="ae4b168c-c671-4ca1-9cee-35e487141993" d="M153.57,211.52a.92.92,0,0,1,1.84,0,.92.92,0,1,1-1.84,0Zm.29,2.75h1.26v9.66h-1.26Z"/><path class="ae4b168c-c671-4ca1-9cee-35e487141993" d="M162,214.13a4.11,4.11,0,0,1,3.89,2.26v-2.12h1.26v9.66h-1.26v-2.14a4.15,4.15,0,0,1-3.91,2.28c-2.68,0-4.68-2-4.68-5A4.6,4.6,0,0,1,162,214.13Zm.24,1.08a3.55,3.55,0,0,0-3.66,3.87,3.66,3.66,0,1,0,3.66-3.87Z"/><path class="ae4b168c-c671-4ca1-9cee-35e487141993" d="M171.27,223.93H170v-9.66h1.26V216a3.4,3.4,0,0,1,3.37-1.9v1.29h-.34c-1.64,0-3,.73-3,3.15Z"/><path class="ae4b168c-c671-4ca1-9cee-35e487141993" d="M181.46,210.83h1.26v13.1h-1.26Z"/><path class="ae4b168c-c671-4ca1-9cee-35e487141993" d="M189.68,214.13a4.11,4.11,0,0,1,3.89,2.26v-2.12h1.26v9.66h-1.26v-2.14a4.14,4.14,0,0,1-3.9,2.28,5,5,0,0,1,0-9.94Zm.24,1.08a3.55,3.55,0,0,0-3.66,3.87,3.66,3.66,0,1,0,3.66-3.87Z"/><path class="ae4b168c-c671-4ca1-9cee-35e487141993" d="M203.9,223.93h-1.26v-9.66h1.26V216a3.4,3.4,0,0,1,3.37-1.9v1.29h-.34c-1.64,0-3,.73-3,3.15Z"/><path class="ae4b168c-c671-4ca1-9cee-35e487141993" d="M213,224.07a5,5,0,0,1,0-9.94,4.38,4.38,0,0,1,4.65,4.47,7.63,7.63,0,0,1,0,1h-8.16A3.41,3.41,0,0,0,213,223a3,3,0,0,0,3.17-2.16h1.33A4.31,4.31,0,0,1,213,224.07Zm-3.55-5.5h6.92a3.19,3.19,0,0,0-3.42-3.38A3.37,3.37,0,0,0,209.43,218.57Z"/><path class="ae4b168c-c671-4ca1-9cee-35e487141993" d="M219.93,210.83h1.26v13.1h-1.26Z"/><path class="ae4b168c-c671-4ca1-9cee-35e487141993" d="M228.15,214.13a4.11,4.11,0,0,1,3.89,2.26v-2.12h1.26v9.66H232v-2.14a4.15,4.15,0,0,1-3.91,2.28c-2.68,0-4.68-2-4.68-5A4.6,4.6,0,0,1,228.15,214.13Zm.24,1.08a3.55,3.55,0,0,0-3.66,3.87,3.66,3.66,0,1,0,3.66-3.87Z"/><path class="ae4b168c-c671-4ca1-9cee-35e487141993" d="M240.35,214.13c2.47,0,4.07,1.29,4.52,3.29h-1.35a3,3,0,0,0-3.17-2.23c-1.92,0-3.49,1.29-3.49,3.91s1.57,3.93,3.49,3.93a3,3,0,0,0,3.17-2.25h1.35a4.29,4.29,0,0,1-4.52,3.29,5,5,0,0,1,0-9.94Z"/><path class="ae4b168c-c671-4ca1-9cee-35e487141993" d="M246.79,211.52a.92.92,0,0,1,1.84,0,.92.92,0,1,1-1.84,0Zm.29,2.75h1.26v9.66h-1.26Z"/><path class="ae4b168c-c671-4ca1-9cee-35e487141993" d="M255.43,224.07a5,5,0,1,1,4.95-5A4.74,4.74,0,0,1,255.43,224.07Zm0-1.08a3.9,3.9,0,1,0-3.6-3.89A3.52,3.52,0,0,0,255.43,223Zm1.73-12.78v1.12l-3.69,2.11v-1Z"/><path class="ae4b168c-c671-4ca1-9cee-35e487141993" d="M270,218.41c0-2.14-1.19-3.24-3-3.24s-3.12,1.13-3.12,3.49v5.27h-1.26v-9.66h1.26v1.64a3.61,3.61,0,0,1,3.35-1.82c2.24,0,4,1.35,4,4.18v5.66H270Z"/><path class="ae4b168c-c671-4ca1-9cee-35e487141993" d="M283.24,224.07a5,5,0,0,1,0-9.94,4.37,4.37,0,0,1,4.64,4.47c0,.39,0,.64,0,1h-8.16a3.41,3.41,0,0,0,3.55,3.45,3,3,0,0,0,3.17-2.16h1.33A4.31,4.31,0,0,1,283.24,224.07Zm-3.55-5.5h6.92a3.2,3.2,0,0,0-3.43-3.38A3.37,3.37,0,0,0,279.69,218.57Z"/><path class="ae4b168c-c671-4ca1-9cee-35e487141993" d="M297.56,218.41c0-2.14-1.19-3.24-3-3.24s-3.12,1.13-3.12,3.49v5.27h-1.26v-9.66h1.26v1.64a3.61,3.61,0,0,1,3.35-1.82c2.23,0,4,1.35,4,4.18v5.66h-1.24Z"/><path class="ae4b168c-c671-4ca1-9cee-35e487141993" d="M301.68,215.31h-1.37v-1h1.37v-2.43H303v2.43h2.71v1H303v6c0,1.19.42,1.56,1.55,1.56h1.16v1.06H304.3c-1.71,0-2.62-.69-2.62-2.62Z"/><path class="ae4b168c-c671-4ca1-9cee-35e487141993" d="M308.76,223.93H307.5v-9.66h1.26V216a3.38,3.38,0,0,1,3.36-1.9v1.29h-.34c-1.64,0-3,.73-3,3.15Z"/><path class="ae4b168c-c671-4ca1-9cee-35e487141993" d="M317.84,224.07a5,5,0,0,1,0-9.94,4.37,4.37,0,0,1,4.64,4.47c0,.39,0,.64,0,1h-8.16a3.41,3.41,0,0,0,3.55,3.45,3.06,3.06,0,0,0,3.17-2.16h1.33A4.32,4.32,0,0,1,317.84,224.07Zm-3.55-5.5h6.91a3.18,3.18,0,0,0-3.42-3.38A3.36,3.36,0,0,0,314.29,218.57Z"/><path class="ae4b168c-c671-4ca1-9cee-35e487141993" d="M329.71,210.83H331v13.1h-1.26Z"/><path class="ae4b168c-c671-4ca1-9cee-35e487141993" d="M337.94,214.13a4.11,4.11,0,0,1,3.89,2.26v-2.12h1.26v9.66h-1.26v-2.14a4.17,4.17,0,0,1-3.91,2.28c-2.68,0-4.68-2-4.68-5A4.6,4.6,0,0,1,337.94,214.13Zm.23,1.08a3.55,3.55,0,0,0-3.65,3.87,3.59,3.59,0,0,0,3.65,3.91,3.9,3.9,0,0,0,0-7.78Z"/><path class="ae4b168c-c671-4ca1-9cee-35e487141993" d="M355.09,214.13c2.47,0,4.07,1.29,4.52,3.29h-1.35a3,3,0,0,0-3.17-2.23c-1.92,0-3.49,1.29-3.49,3.91s1.57,3.93,3.49,3.93a3,3,0,0,0,3.17-2.25h1.35a4.29,4.29,0,0,1-4.52,3.29,5,5,0,0,1,0-9.94Z"/><path class="ae4b168c-c671-4ca1-9cee-35e487141993" d="M366.09,224.07a5,5,0,1,1,5-5A4.75,4.75,0,0,1,366.09,224.07Zm0-1.08a3.9,3.9,0,1,0-3.6-3.89A3.52,3.52,0,0,0,366.09,223Z"/><path class="ae4b168c-c671-4ca1-9cee-35e487141993" d="M380.68,218.41c0-2.14-1.18-3.24-3-3.24s-3.12,1.13-3.12,3.49v5.27h-1.26v-9.66h1.26v1.64a3.61,3.61,0,0,1,3.35-1.82c2.23,0,4,1.35,4,4.18v5.66h-1.25Z"/><path class="ae4b168c-c671-4ca1-9cee-35e487141993" d="M388.8,214.13a4.28,4.28,0,0,1,3.88,2.23v-5.53h1.26v13.1h-1.26v-2.16a4.11,4.11,0,0,1-3.89,2.3,5,5,0,0,1,0-9.94Zm.22,1.08a3.55,3.55,0,0,0-3.65,3.87A3.59,3.59,0,0,0,389,223a3.9,3.9,0,0,0,0-7.78Z"/><path class="ae4b168c-c671-4ca1-9cee-35e487141993" d="M405.29,223.93H404v-1.7a3.56,3.56,0,0,1-3.35,1.86c-2.23,0-4-1.34-4-4.18v-5.64h1.24v5.5c0,2.14,1.19,3.24,3,3.24s3.11-1.13,3.11-3.48v-5.26h1.26Z"/><path class="ae4b168c-c671-4ca1-9cee-35e487141993" d="M412.33,214.13c2.47,0,4.07,1.29,4.52,3.29H415.5a3,3,0,0,0-3.17-2.23c-1.92,0-3.49,1.29-3.49,3.91s1.57,3.93,3.49,3.93a3,3,0,0,0,3.17-2.25h1.35a4.29,4.29,0,0,1-4.52,3.29,5,5,0,0,1,0-9.94Z"/><path class="ae4b168c-c671-4ca1-9cee-35e487141993" d="M419.21,215.31h-1.37v-1h1.37v-2.43h1.28v2.43h2.7v1h-2.7v6c0,1.19.42,1.56,1.55,1.56h1.15v1.06h-1.35c-1.71,0-2.63-.69-2.63-2.62Z"/><path class="ae4b168c-c671-4ca1-9cee-35e487141993" d="M428.86,214.13a4.11,4.11,0,0,1,3.89,2.26v-2.12H434v9.66h-1.26v-2.14a4.17,4.17,0,0,1-3.91,2.28c-2.68,0-4.68-2-4.68-5A4.6,4.6,0,0,1,428.86,214.13Zm.23,1.08a3.55,3.55,0,0,0-3.65,3.87,3.59,3.59,0,0,0,3.65,3.91,3.9,3.9,0,0,0,0-7.78Z"/><path class="ae4b168c-c671-4ca1-9cee-35e487141993" d="M446,214.13a4.28,4.28,0,0,1,3.87,2.23v-5.53h1.26v13.1h-1.26v-2.16a4.11,4.11,0,0,1-3.89,2.3,5,5,0,0,1,0-9.94Zm.21,1.08a3.55,3.55,0,0,0-3.65,3.87,3.59,3.59,0,0,0,3.65,3.91,3.9,3.9,0,0,0,0-7.78Z"/><path class="ae4b168c-c671-4ca1-9cee-35e487141993" d="M458.19,224.07a5,5,0,0,1,0-9.94,4.38,4.38,0,0,1,4.65,4.47,7.63,7.63,0,0,1,0,1h-8.15a3.41,3.41,0,0,0,3.54,3.45,3,3,0,0,0,3.17-2.16h1.34A4.33,4.33,0,0,1,458.19,224.07Zm-3.54-5.5h6.91a3.19,3.19,0,0,0-3.42-3.38A3.36,3.36,0,0,0,454.65,218.57Z"/><path class="ae4b168c-c671-4ca1-9cee-35e487141993" d="M470.07,210.83h1.26v13.1h-1.26Z"/><path class="ae4b168c-c671-4ca1-9cee-35e487141993" d="M478.48,224.07a5,5,0,1,1,4.95-5A4.75,4.75,0,0,1,478.48,224.07Zm0-1.08a3.9,3.9,0,1,0-3.6-3.89C474.88,221.76,476.6,223,478.48,223Z"/><path class="ae4b168c-c671-4ca1-9cee-35e487141993" d="M489,224.07c-2.23,0-3.8-1.09-4-2.86h1.3c.11,1.06,1,1.82,2.65,1.82,1.4,0,2.19-.74,2.19-1.66,0-2.39-5.9-1-5.9-4.62,0-1.44,1.38-2.62,3.45-2.62s3.5,1.09,3.6,3h-1.26c-.07-1.08-.88-1.89-2.37-1.89-1.32,0-2.15.69-2.15,1.54,0,2.62,5.82,1.22,5.87,4.64C492.4,222.92,491,224.07,489,224.07Z"/><path class="ae4b168c-c671-4ca1-9cee-35e487141993" d="M108.28,253.59a5,5,0,0,1,0-10,4.39,4.39,0,0,1,4.65,4.48,7.47,7.47,0,0,1,0,1h-8.16a3.41,3.41,0,0,0,3.55,3.45,3,3,0,0,0,3.17-2.16h1.33A4.31,4.31,0,0,1,108.28,253.59Zm-3.55-5.51h6.92a3.19,3.19,0,0,0-3.42-3.38A3.37,3.37,0,0,0,104.73,248.08Z"/><path class="ae4b168c-c671-4ca1-9cee-35e487141993" d="M118.53,253.59c-2.23,0-3.8-1.1-4-2.87h1.29c.11,1.06,1,1.82,2.65,1.82,1.41,0,2.2-.74,2.2-1.66,0-2.39-5.91-1-5.91-4.62,0-1.44,1.39-2.62,3.46-2.62s3.49,1.1,3.6,3H120.6c-.07-1.08-.88-1.89-2.38-1.89-1.31,0-2.14.69-2.14,1.54,0,2.62,5.82,1.22,5.87,4.64C122,252.44,120.56,253.59,118.53,253.59Z"/><path class="ae4b168c-c671-4ca1-9cee-35e487141993" d="M124.51,244.82h-1.37v-1h1.37v-2.43h1.28v2.43h2.7v1h-2.7v6c0,1.19.41,1.56,1.55,1.56h1.15v1.06h-1.35c-1.71,0-2.63-.69-2.63-2.62Z"/><path class="ae4b168c-c671-4ca1-9cee-35e487141993" d="M138.89,253.44h-1.26v-1.69a3.56,3.56,0,0,1-3.35,1.85c-2.23,0-4-1.34-4-4.17v-5.65h1.24v5.5c0,2.15,1.19,3.24,3,3.24s3.11-1.13,3.11-3.48v-5.26h1.26Z"/><path class="ae4b168c-c671-4ca1-9cee-35e487141993" d="M145.88,243.64a4.27,4.27,0,0,1,3.87,2.23v-5.52H151v13.09h-1.26v-2.16a4.09,4.09,0,0,1-3.89,2.31,5,5,0,0,1,0-10Zm.22,1.08a3.55,3.55,0,0,0-3.66,3.87,3.66,3.66,0,1,0,3.66-3.87Z"/><path class="ae4b168c-c671-4ca1-9cee-35e487141993" d="M153.57,241a.92.92,0,1,1,.92.92A.9.9,0,0,1,153.57,241Zm.29,2.74h1.26v9.66h-1.26Z"/><path class="ae4b168c-c671-4ca1-9cee-35e487141993" d="M162,243.64a4.11,4.11,0,0,1,3.89,2.26v-2.12h1.26v9.66h-1.26V251.3a4.15,4.15,0,0,1-3.91,2.29c-2.68,0-4.68-2-4.68-5A4.6,4.6,0,0,1,162,243.64Zm.24,1.08a3.55,3.55,0,0,0-3.66,3.87,3.66,3.66,0,1,0,3.66-3.87Z"/><path class="ae4b168c-c671-4ca1-9cee-35e487141993" d="M177.38,247.92c0-2.14-1.19-3.24-3-3.24s-3.12,1.14-3.12,3.49v5.27H170v-9.66h1.26v1.65a3.6,3.6,0,0,1,3.35-1.83c2.23,0,4,1.35,4,4.18v5.66h-1.24Z"/><path class="ae4b168c-c671-4ca1-9cee-35e487141993" d="M181.5,244.82h-1.37v-1h1.37v-2.43h1.27v2.43h2.7v1h-2.7v6c0,1.19.42,1.56,1.55,1.56h1.15v1.06h-1.35c-1.71,0-2.62-.69-2.62-2.62Z"/><path class="ae4b168c-c671-4ca1-9cee-35e487141993" d="M191.27,253.59a5,5,0,0,1,0-10,4.38,4.38,0,0,1,4.64,4.48c0,.39,0,.63,0,1h-8.16a3.41,3.41,0,0,0,3.55,3.45,3,3,0,0,0,3.16-2.16h1.34A4.31,4.31,0,0,1,191.27,253.59Zm-3.55-5.51h6.91a3.18,3.18,0,0,0-3.42-3.38A3.36,3.36,0,0,0,187.72,248.08Z"/><path class="ae4b168c-c671-4ca1-9cee-35e487141993" d="M201.51,253.59c-2.23,0-3.79-1.1-4-2.87h1.3c.11,1.06,1,1.82,2.65,1.82,1.4,0,2.19-.74,2.19-1.66,0-2.39-5.9-1-5.9-4.62,0-1.44,1.38-2.62,3.45-2.62s3.5,1.1,3.61,3h-1.26a2.1,2.1,0,0,0-2.38-1.89c-1.32,0-2.14.69-2.14,1.54,0,2.62,5.81,1.22,5.87,4.64C204.94,252.44,203.55,253.59,201.51,253.59Z"/><path class="ae4b168c-c671-4ca1-9cee-35e487141993" d="M219.05,243.78h1.29L214.51,258H213.2l1.9-4.6-4-9.61h1.39l3.35,8.25Z"/><path class="ae4b168c-c671-4ca1-9cee-35e487141993" d="M231.23,253.59a5,5,0,0,1,0-10,4.39,4.39,0,0,1,4.65,4.48,7.47,7.47,0,0,1,0,1h-8.15a3.4,3.4,0,0,0,3.54,3.45,3,3,0,0,0,3.17-2.16h1.33A4.31,4.31,0,0,1,231.23,253.59Zm-3.54-5.51h6.91a3.19,3.19,0,0,0-3.42-3.38A3.36,3.36,0,0,0,227.69,248.08Z"/><path class="ae4b168c-c671-4ca1-9cee-35e487141993" d="M238.18,240.35h1.26v13.09h-1.26Z"/><path class="ae4b168c-c671-4ca1-9cee-35e487141993" d="M251.43,243.64c2.46,0,4.07,1.29,4.52,3.29H254.6a3,3,0,0,0-3.17-2.23c-1.93,0-3.5,1.29-3.5,3.91s1.57,3.93,3.5,3.93a3,3,0,0,0,3.17-2.25H256a4.31,4.31,0,0,1-4.52,3.3,5,5,0,0,1,0-10Z"/><path class="ae4b168c-c671-4ca1-9cee-35e487141993" d="M258.15,240.35h1.26v13.09h-1.26Z"/><path class="ae4b168c-c671-4ca1-9cee-35e487141993" d="M261.92,241a.92.92,0,1,1,.92.92A.9.9,0,0,1,261.92,241Zm.29,2.74h1.26v9.66h-1.26Z"/><path class="ae4b168c-c671-4ca1-9cee-35e487141993" d="M280.64,247.92c0-2.14-1.13-3.24-2.88-3.24s-3,1.17-3,3.52v5.24h-1.24v-5.52c0-2.14-1.15-3.24-2.9-3.24s-3,1.17-3,3.52v5.24h-1.26v-9.66h1.26v1.66a3.52,3.52,0,0,1,3.26-1.84,3.63,3.63,0,0,1,3.63,2.37A3.59,3.59,0,0,1,278,243.6c2.18,0,3.91,1.35,3.91,4.18v5.66h-1.25Z"/><path class="ae4b168c-c671-4ca1-9cee-35e487141993" d="M288.77,243.64a4.11,4.11,0,0,1,3.89,2.26v-2.12h1.26v9.66h-1.26V251.3a4.15,4.15,0,0,1-3.91,2.29c-2.68,0-4.68-2-4.68-5A4.6,4.6,0,0,1,288.77,243.64Zm.24,1.08a3.55,3.55,0,0,0-3.66,3.87,3.66,3.66,0,1,0,3.66-3.87Z"/><path class="ae4b168c-c671-4ca1-9cee-35e487141993" d="M306,253.59a5,5,0,0,1,0-10,4.39,4.39,0,0,1,4.65,4.48,7.47,7.47,0,0,1,0,1h-8.16a3.41,3.41,0,0,0,3.55,3.45,3,3,0,0,0,3.17-2.16h1.33A4.31,4.31,0,0,1,306,253.59Zm-3.55-5.51h6.92a3.19,3.19,0,0,0-3.42-3.38A3.37,3.37,0,0,0,302.43,248.08Z"/><path class="ae4b168c-c671-4ca1-9cee-35e487141993" d="M316.23,253.59c-2.23,0-3.8-1.1-4-2.87h1.29c.11,1.06,1.05,1.82,2.65,1.82,1.41,0,2.2-.74,2.2-1.66,0-2.39-5.91-1-5.91-4.62,0-1.44,1.39-2.62,3.46-2.62s3.49,1.1,3.6,3H318.3c-.07-1.08-.88-1.89-2.38-1.89-1.31,0-2.14.69-2.14,1.54,0,2.62,5.82,1.22,5.87,4.64C319.65,252.44,318.26,253.59,316.23,253.59Z"/><path class="ae4b168c-c671-4ca1-9cee-35e487141993" d="M326.14,243.64c2.46,0,4.07,1.29,4.52,3.29H329.3a3,3,0,0,0-3.16-2.23c-1.93,0-3.5,1.29-3.5,3.91s1.57,3.93,3.5,3.93a3,3,0,0,0,3.16-2.25h1.36a4.31,4.31,0,0,1-4.52,3.3,5,5,0,0,1,0-10Z"/><path class="ae4b168c-c671-4ca1-9cee-35e487141993" d="M337.13,253.59a5,5,0,1,1,4.95-5A4.75,4.75,0,0,1,337.13,253.59Zm0-1.08a3.9,3.9,0,0,0,0-7.79,3.91,3.91,0,0,0,0,7.79Z"/><path class="ae4b168c-c671-4ca1-9cee-35e487141993" d="M344.35,240.35h1.26v13.09h-1.26Z"/><path class="ae4b168c-c671-4ca1-9cee-35e487141993" d="M352.58,243.64a4.11,4.11,0,0,1,3.89,2.26v-2.12h1.26v9.66h-1.26V251.3a4.18,4.18,0,0,1-3.91,2.29c-2.68,0-4.68-2-4.68-5A4.6,4.6,0,0,1,352.58,243.64Zm.23,1.08a3.55,3.55,0,0,0-3.65,3.87,3.59,3.59,0,0,0,3.65,3.92,3.9,3.9,0,0,0,0-7.79Z"/><path class="ae4b168c-c671-4ca1-9cee-35e487141993" d="M361.82,253.44h-1.26v-9.66h1.26v1.72a3.38,3.38,0,0,1,3.36-1.9v1.29h-.34c-1.64,0-3,.73-3,3.16Z"/><path class="ae4b168c-c671-4ca1-9cee-35e487141993" d="M366.23,253.53a.91.91,0,0,1-.92-.92.91.91,0,1,1,.92.92Z"/><path class="ae4b168c-c671-4ca1-9cee-35e487141993" d="M383.71,241.07v12.37h-1.26l-7-10.4v10.4h-1.26V241.07h1.26l7,10.39V241.07Z"/><path class="ae4b168c-c671-4ca1-9cee-35e487141993" d="M390.92,253.59a5,5,0,1,1,5-5A4.76,4.76,0,0,1,390.92,253.59Zm0-1.08a3.9,3.9,0,0,0,0-7.79,3.91,3.91,0,0,0,0,7.79Z"/><path class="ae4b168c-c671-4ca1-9cee-35e487141993" d="M407.36,253.59a5,5,0,0,1,0-10,4.38,4.38,0,0,1,4.64,4.48c0,.39,0,.63,0,1h-8.16a3.41,3.41,0,0,0,3.55,3.45,3,3,0,0,0,3.17-2.16h1.33A4.31,4.31,0,0,1,407.36,253.59Zm-3.55-5.51h6.91a3.18,3.18,0,0,0-3.42-3.38A3.36,3.36,0,0,0,403.81,248.08Z"/><path class="ae4b168c-c671-4ca1-9cee-35e487141993" d="M417.61,253.59c-2.24,0-3.8-1.1-4-2.87h1.29c.11,1.06,1.05,1.82,2.65,1.82,1.4,0,2.19-.74,2.19-1.66,0-2.39-5.9-1-5.9-4.62,0-1.44,1.39-2.62,3.46-2.62s3.49,1.1,3.6,3h-1.26c-.07-1.08-.89-1.89-2.38-1.89-1.31,0-2.14.69-2.14,1.54,0,2.62,5.81,1.22,5.87,4.64C421,252.44,419.64,253.59,417.61,253.59Z"/><path class="ae4b168c-c671-4ca1-9cee-35e487141993" d="M428.66,244.82h-1.37v-1h1.37v-.67c0-2.07,1-3.06,3.47-3.06v1.06c-1.67,0-2.21.6-2.21,2v.67h2.28v1h-2.28v8.62h-1.26Z"/><path class="ae4b168c-c671-4ca1-9cee-35e487141993" d="M437.75,243.64a4.11,4.11,0,0,1,3.89,2.26v-2.12h1.26v9.66h-1.26V251.3a4.16,4.16,0,0,1-3.91,2.29c-2.68,0-4.68-2-4.68-5A4.6,4.6,0,0,1,437.75,243.64Zm.24,1.08a3.55,3.55,0,0,0-3.66,3.87,3.66,3.66,0,1,0,3.66-3.87Zm2-4.9v1.11L436.26,243v-1Z"/><path class="ae4b168c-c671-4ca1-9cee-35e487141993" d="M450,243.64c2.47,0,4.07,1.29,4.52,3.29h-1.35A3,3,0,0,0,450,244.7c-1.92,0-3.49,1.29-3.49,3.91s1.57,3.93,3.49,3.93a3,3,0,0,0,3.17-2.25h1.35a4.3,4.3,0,0,1-4.52,3.3,5,5,0,0,1,0-10Z"/><path class="ae4b168c-c671-4ca1-9cee-35e487141993" d="M456.39,241a.92.92,0,0,1,1.84,0,.92.92,0,1,1-1.84,0Zm.29,2.74h1.26v9.66h-1.26Z"/><path class="ae4b168c-c671-4ca1-9cee-35e487141993" d="M460.74,240.35H462v13.09h-1.26Z"/><path class="ae4b168c-c671-4ca1-9cee-35e487141993" d="M108.17,273.15a4.28,4.28,0,0,1,3.87,2.23v-5.52h1.26V283H112V280.8a4.1,4.1,0,0,1-3.89,2.3c-2.7,0-4.69-2-4.69-5A4.6,4.6,0,0,1,108.17,273.15Zm.22,1.08a3.9,3.9,0,0,0,0,7.79,3.9,3.9,0,0,0,0-7.79Z"/><path class="ae4b168c-c671-4ca1-9cee-35e487141993" d="M120.41,283.1a5,5,0,0,1,0-10,4.38,4.38,0,0,1,4.64,4.48c0,.39,0,.64,0,1h-8.16a3.41,3.41,0,0,0,3.55,3.45,3,3,0,0,0,3.17-2.16h1.33A4.31,4.31,0,0,1,120.41,283.1Zm-3.55-5.51h6.92a3.19,3.19,0,0,0-3.42-3.38A3.37,3.37,0,0,0,116.86,277.59Z"/><path class="ae4b168c-c671-4ca1-9cee-35e487141993" d="M127.47,274.34h-1.36v-1h1.36v-2.42h1.28v2.42h2.7v1h-2.7v6c0,1.18.42,1.55,1.55,1.55h1.15V283H130.1c-1.71,0-2.63-.69-2.63-2.62Z"/><path class="ae4b168c-c671-4ca1-9cee-35e487141993" d="M137.25,283.1a5,5,0,0,1,0-10,4.38,4.38,0,0,1,4.64,4.48,7.4,7.4,0,0,1,0,1H133.7a3.41,3.41,0,0,0,3.55,3.45,3,3,0,0,0,3.16-2.16h1.34A4.31,4.31,0,0,1,137.25,283.1Zm-3.55-5.51h6.91a3.18,3.18,0,0,0-3.42-3.38A3.36,3.36,0,0,0,133.7,277.59Z"/><path class="ae4b168c-c671-4ca1-9cee-35e487141993" d="M145.46,283H144.2v-9.67h1.26V275a3.39,3.39,0,0,1,3.37-1.9v1.3h-.35c-1.63,0-3,.72-3,3.15Z"/><path class="ae4b168c-c671-4ca1-9cee-35e487141993" d="M165,277.43c0-2.14-1.14-3.24-2.88-3.24s-3,1.17-3,3.53V283h-1.24v-5.53c0-2.14-1.15-3.24-2.9-3.24s-3,1.17-3,3.53V283h-1.26v-9.67h1.26V275a3.51,3.51,0,0,1,3.26-1.85,3.65,3.65,0,0,1,3.64,2.38,3.58,3.58,0,0,1,3.54-2.38c2.18,0,3.91,1.35,3.91,4.18V283H165Z"/><path class="ae4b168c-c671-4ca1-9cee-35e487141993" d="M168.64,270.55a.92.92,0,0,1,1.84,0,.92.92,0,1,1-1.84,0Zm.29,2.74h1.26V283h-1.26Z"/><path class="ae4b168c-c671-4ca1-9cee-35e487141993" d="M180.36,277.43c0-2.14-1.19-3.24-3-3.24s-3.11,1.14-3.11,3.49V283H173v-9.67h1.26v1.65a3.6,3.6,0,0,1,3.35-1.83c2.23,0,4,1.35,4,4.18V283h-1.24Z"/><path class="ae4b168c-c671-4ca1-9cee-35e487141993" d="M188.46,273.15a4.1,4.1,0,0,1,3.89,2.27v-2.13h1.26V283h-1.26v-2.15a4.16,4.16,0,0,1-3.91,2.29,5,5,0,0,1,0-10Zm.24,1.08a3.9,3.9,0,0,0,0,7.79,3.9,3.9,0,0,0,0-7.79Z"/><path class="ae4b168c-c671-4ca1-9cee-35e487141993" d="M197.7,283h-1.26v-9.67h1.26V275a3.39,3.39,0,0,1,3.37-1.9v1.3h-.35c-1.63,0-3,.72-3,3.15Z"/><path class="ae4b168c-c671-4ca1-9cee-35e487141993" d="M211.27,283.1c-2.23,0-3.8-1.1-4-2.87h1.3c.1,1.06,1,1.82,2.64,1.82,1.41,0,2.2-.74,2.2-1.66,0-2.39-5.91-1-5.91-4.62,0-1.43,1.39-2.62,3.46-2.62s3.49,1.1,3.6,3h-1.26a2.09,2.09,0,0,0-2.37-1.9c-1.32,0-2.15.69-2.15,1.54,0,2.62,5.82,1.22,5.87,4.64C214.69,282,213.31,283.1,211.27,283.1Z"/><path class="ae4b168c-c671-4ca1-9cee-35e487141993" d="M216.72,270.55a.92.92,0,0,1,1.83,0,.92.92,0,1,1-1.83,0Zm.29,2.74h1.26V283H217Z"/><path class="ae4b168c-c671-4ca1-9cee-35e487141993" d="M229.44,283.1c-2.23,0-3.79-1.1-4-2.87h1.3c.11,1.06,1,1.82,2.65,1.82,1.4,0,2.19-.74,2.19-1.66,0-2.39-5.9-1-5.9-4.62,0-1.43,1.38-2.62,3.45-2.62s3.5,1.1,3.61,3h-1.26a2.1,2.1,0,0,0-2.38-1.9c-1.32,0-2.14.69-2.14,1.54,0,2.62,5.81,1.22,5.87,4.64C232.87,282,231.48,283.1,229.44,283.1Z"/><path class="ae4b168c-c671-4ca1-9cee-35e487141993" d="M239.46,283.1a5,5,0,1,1,4.95-5A4.75,4.75,0,0,1,239.46,283.1Zm0-1.08a3.9,3.9,0,0,0,0-7.79,3.91,3.91,0,0,0,0,7.79Z"/><path class="ae4b168c-c671-4ca1-9cee-35e487141993" d="M254.06,277.43c0-2.14-1.19-3.24-3-3.24s-3.12,1.14-3.12,3.49V283h-1.26v-9.67H248v1.65a3.6,3.6,0,0,1,3.35-1.83c2.24,0,4,1.35,4,4.18V283h-1.24Z"/><path class="ae4b168c-c671-4ca1-9cee-35e487141993" d="M263,269.86h1.26V283H263Z"/><path class="ae4b168c-c671-4ca1-9cee-35e487141993" d="M271.24,273.15a4.1,4.1,0,0,1,3.89,2.27v-2.13h1.26V283h-1.26v-2.15a4.15,4.15,0,0,1-3.9,2.29,5,5,0,0,1,0-10Zm.24,1.08a3.9,3.9,0,0,0,0,7.79,3.9,3.9,0,0,0,0-7.79Z"/><path class="ae4b168c-c671-4ca1-9cee-35e487141993" d="M282.6,283.1c-2.23,0-3.8-1.1-4-2.87h1.3c.1,1.06,1,1.82,2.64,1.82,1.41,0,2.2-.74,2.2-1.66,0-2.39-5.91-1-5.91-4.62,0-1.43,1.39-2.62,3.46-2.62s3.49,1.1,3.6,3h-1.26a2.09,2.09,0,0,0-2.37-1.9c-1.32,0-2.15.69-2.15,1.54,0,2.62,5.82,1.22,5.87,4.64C286,282,284.64,283.1,282.6,283.1Z"/><path class="ae4b168c-c671-4ca1-9cee-35e487141993" d="M297.52,273.15c2.47,0,4.07,1.29,4.52,3.29h-1.35a3,3,0,0,0-3.17-2.23c-1.92,0-3.49,1.29-3.49,3.91s1.57,3.93,3.49,3.93a3,3,0,0,0,3.17-2.24H302a4.3,4.3,0,0,1-4.52,3.29,5,5,0,0,1,0-10Z"/><path class="ae4b168c-c671-4ca1-9cee-35e487141993" d="M308.52,283.1a5,5,0,1,1,5-5A4.75,4.75,0,0,1,308.52,283.1Zm0-1.08a3.9,3.9,0,0,0,0-7.79,3.91,3.91,0,0,0,0,7.79Z"/><path class="ae4b168c-c671-4ca1-9cee-35e487141993" d="M323.11,277.43c0-2.14-1.18-3.24-3-3.24s-3.12,1.14-3.12,3.49V283h-1.26v-9.67H317v1.65a3.6,3.6,0,0,1,3.35-1.83c2.23,0,4,1.35,4,4.18V283h-1.25Z"/><path class="ae4b168c-c671-4ca1-9cee-35e487141993" d="M331.24,273.15a4.3,4.3,0,0,1,3.87,2.23v-5.52h1.26V283h-1.26V280.8a4.12,4.12,0,0,1-3.89,2.3,5,5,0,0,1,0-10Zm.21,1.08a3.56,3.56,0,0,0-3.65,3.88,3.59,3.59,0,0,0,3.65,3.91,3.9,3.9,0,0,0,0-7.79Z"/><path class="ae4b168c-c671-4ca1-9cee-35e487141993" d="M347.72,283h-1.26v-1.7a3.56,3.56,0,0,1-3.35,1.86c-2.23,0-4-1.35-4-4.18v-5.65h1.24v5.51c0,2.14,1.19,3.24,3,3.24s3.11-1.14,3.11-3.49v-5.26h1.26Z"/><path class="ae4b168c-c671-4ca1-9cee-35e487141993" d="M354.76,273.15c2.47,0,4.07,1.29,4.52,3.29h-1.35a3,3,0,0,0-3.17-2.23c-1.92,0-3.49,1.29-3.49,3.91s1.57,3.93,3.49,3.93a3,3,0,0,0,3.17-2.24h1.35a4.3,4.3,0,0,1-4.52,3.29,5,5,0,0,1,0-10Z"/><path class="ae4b168c-c671-4ca1-9cee-35e487141993" d="M361.64,274.34h-1.37v-1h1.37v-2.42h1.28v2.42h2.7v1h-2.7v6c0,1.18.42,1.55,1.55,1.55h1.15V283h-1.35c-1.71,0-2.63-.69-2.63-2.62Z"/><path class="ae4b168c-c671-4ca1-9cee-35e487141993" d="M371.29,273.15a4.1,4.1,0,0,1,3.89,2.27v-2.13h1.26V283h-1.26v-2.15a4.18,4.18,0,0,1-3.91,2.29,5,5,0,0,1,0-10Zm.23,1.08a3.56,3.56,0,0,0-3.65,3.88,3.59,3.59,0,0,0,3.65,3.91,3.9,3.9,0,0,0,0-7.79Z"/><path class="ae4b168c-c671-4ca1-9cee-35e487141993" d="M382.65,283.1c-2.24,0-3.8-1.1-4-2.87H380c.11,1.06,1,1.82,2.65,1.82,1.4,0,2.19-.74,2.19-1.66,0-2.39-5.9-1-5.9-4.62,0-1.43,1.39-2.62,3.46-2.62s3.49,1.1,3.6,3h-1.26a2.1,2.1,0,0,0-2.38-1.9c-1.31,0-2.14.69-2.14,1.54,0,2.62,5.81,1.22,5.87,4.64C386.07,282,384.68,283.1,382.65,283.1Z"/><path class="ae4b168c-c671-4ca1-9cee-35e487141993" d="M397.51,273.15a4.28,4.28,0,0,1,3.87,2.23v-5.52h1.27V283h-1.27V280.8a4.1,4.1,0,0,1-3.88,2.3,5,5,0,0,1,0-10Zm.22,1.08a3.9,3.9,0,0,0,0,7.79,3.9,3.9,0,0,0,0-7.79Z"/><path class="ae4b168c-c671-4ca1-9cee-35e487141993" d="M409.75,283.1a5,5,0,0,1,0-10,4.39,4.39,0,0,1,4.65,4.48,7.4,7.4,0,0,1,0,1H406.2a3.41,3.41,0,0,0,3.55,3.45,3,3,0,0,0,3.17-2.16h1.33A4.31,4.31,0,0,1,409.75,283.1Zm-3.55-5.51h6.92a3.19,3.19,0,0,0-3.42-3.38A3.37,3.37,0,0,0,406.2,277.59Z"/><path class="ae4b168c-c671-4ca1-9cee-35e487141993" d="M421.63,269.86h1.26V283h-1.26Z"/><path class="ae4b168c-c671-4ca1-9cee-35e487141993" d="M430,283.1a5,5,0,1,1,5-5A4.75,4.75,0,0,1,430,283.1Zm0-1.08a3.9,3.9,0,0,0,0-7.79,3.91,3.91,0,0,0,0,7.79Z"/><path class="ae4b168c-c671-4ca1-9cee-35e487141993" d="M440.54,283.1c-2.23,0-3.8-1.1-4-2.87h1.29c.11,1.06,1.05,1.82,2.65,1.82,1.41,0,2.2-.74,2.2-1.66,0-2.39-5.91-1-5.91-4.62,0-1.43,1.39-2.62,3.46-2.62s3.49,1.1,3.6,3h-1.26a2.09,2.09,0,0,0-2.38-1.9c-1.31,0-2.14.69-2.14,1.54,0,2.62,5.82,1.22,5.87,4.64C444,282,442.57,283.1,440.54,283.1Z"/><path class="ae4b168c-c671-4ca1-9cee-35e487141993" d="M108.28,312.61a5,5,0,0,1,0-9.95,4.39,4.39,0,0,1,4.65,4.48,7.4,7.4,0,0,1,0,1h-8.16a3.41,3.41,0,0,0,3.55,3.45,3,3,0,0,0,3.17-2.15h1.33A4.31,4.31,0,0,1,108.28,312.61Zm-3.55-5.51h6.92a3.19,3.19,0,0,0-3.42-3.38A3.38,3.38,0,0,0,104.73,307.1Z"/><path class="ae4b168c-c671-4ca1-9cee-35e487141993" d="M118.53,312.61c-2.23,0-3.8-1.1-4-2.87h1.29c.11,1.06,1,1.82,2.65,1.82,1.41,0,2.2-.74,2.2-1.66,0-2.39-5.91-1-5.91-4.62,0-1.43,1.39-2.62,3.46-2.62s3.49,1.1,3.6,3H120.6a2.09,2.09,0,0,0-2.38-1.9c-1.31,0-2.14.69-2.14,1.54,0,2.62,5.82,1.22,5.87,4.64C122,311.46,120.56,312.61,118.53,312.61Z"/><path class="ae4b168c-c671-4ca1-9cee-35e487141993" d="M124.51,303.85h-1.37V302.8h1.37v-2.42h1.28v2.42h2.7v1.05h-2.7v6c0,1.18.41,1.56,1.55,1.56h1.15v1.06h-1.35c-1.71,0-2.63-.69-2.63-2.62Z"/><path class="ae4b168c-c671-4ca1-9cee-35e487141993" d="M138.89,312.47h-1.26v-1.7a3.56,3.56,0,0,1-3.35,1.86c-2.23,0-4-1.35-4-4.18V302.8h1.24v5.51c0,2.14,1.19,3.24,3,3.24s3.11-1.14,3.11-3.49V302.8h1.26Z"/><path class="ae4b168c-c671-4ca1-9cee-35e487141993" d="M145.88,302.66a4.28,4.28,0,0,1,3.87,2.23v-5.52H151v13.1h-1.26v-2.16a4.1,4.1,0,0,1-3.89,2.3,5,5,0,0,1,0-9.95Zm.22,1.08a3.9,3.9,0,0,0,0,7.79,3.9,3.9,0,0,0,0-7.79Z"/><path class="ae4b168c-c671-4ca1-9cee-35e487141993" d="M153.57,300.06a.92.92,0,0,1,1.84,0,.92.92,0,1,1-1.84,0Zm.29,2.74h1.26v9.67h-1.26Z"/><path class="ae4b168c-c671-4ca1-9cee-35e487141993" d="M162,302.66a4.12,4.12,0,0,1,3.89,2.27V302.8h1.26v9.67h-1.26v-2.14a4.16,4.16,0,0,1-3.91,2.28,5,5,0,0,1,0-9.95Zm.24,1.08a3.9,3.9,0,0,0,0,7.79,3.9,3.9,0,0,0,0-7.79Z"/><path class="ae4b168c-c671-4ca1-9cee-35e487141993" d="M177.38,306.94c0-2.14-1.19-3.23-3-3.23s-3.12,1.13-3.12,3.48v5.28H170V302.8h1.26v1.65a3.61,3.61,0,0,1,3.35-1.82c2.23,0,4,1.34,4,4.17v5.67h-1.24Z"/><path class="ae4b168c-c671-4ca1-9cee-35e487141993" d="M181.5,303.85h-1.37V302.8h1.37v-2.42h1.27v2.42h2.7v1.05h-2.7v6c0,1.18.42,1.56,1.55,1.56h1.15v1.06h-1.35c-1.71,0-2.62-.69-2.62-2.62Z"/><path class="ae4b168c-c671-4ca1-9cee-35e487141993" d="M191.27,312.61a5,5,0,0,1,0-9.95,4.38,4.38,0,0,1,4.64,4.48c0,.39,0,.64,0,1h-8.16a3.41,3.41,0,0,0,3.55,3.45,3,3,0,0,0,3.16-2.15h1.34A4.32,4.32,0,0,1,191.27,312.61Zm-3.55-5.51h6.91a3.19,3.19,0,0,0-3.42-3.38A3.37,3.37,0,0,0,187.72,307.1Z"/><path class="ae4b168c-c671-4ca1-9cee-35e487141993" d="M201.51,312.61c-2.23,0-3.79-1.1-4-2.87h1.3c.11,1.06,1,1.82,2.65,1.82,1.4,0,2.19-.74,2.19-1.66,0-2.39-5.9-1-5.9-4.62,0-1.43,1.38-2.62,3.45-2.62s3.5,1.1,3.61,3h-1.26a2.1,2.1,0,0,0-2.38-1.9c-1.32,0-2.14.69-2.14,1.54,0,2.62,5.81,1.22,5.87,4.64C204.94,311.46,203.55,312.61,201.51,312.61Z"/><path class="ae4b168c-c671-4ca1-9cee-35e487141993" d="M212.24,299.37h1.26v13.1h-1.26Z"/><path class="ae4b168c-c671-4ca1-9cee-35e487141993" d="M220.47,302.66a4.12,4.12,0,0,1,3.89,2.27V302.8h1.26v9.67h-1.26v-2.14a4.19,4.19,0,0,1-3.91,2.28,5,5,0,0,1,0-9.95Zm.23,1.08a3.56,3.56,0,0,0-3.65,3.88,3.59,3.59,0,0,0,3.65,3.91,3.9,3.9,0,0,0,0-7.79Z"/><path class="ae4b168c-c671-4ca1-9cee-35e487141993" d="M231.82,312.61c-2.23,0-3.79-1.1-4-2.87h1.3c.11,1.06,1,1.82,2.65,1.82,1.4,0,2.19-.74,2.19-1.66,0-2.39-5.9-1-5.9-4.62,0-1.43,1.38-2.62,3.45-2.62s3.5,1.1,3.61,3h-1.27a2.09,2.09,0,0,0-2.37-1.9c-1.32,0-2.14.69-2.14,1.54,0,2.62,5.81,1.22,5.87,4.64C235.25,311.46,233.86,312.61,231.82,312.61Z"/><path class="ae4b168c-c671-4ca1-9cee-35e487141993" d="M246.69,302.66a4.1,4.1,0,0,1,3.87,2.27V302.8h1.26V317h-1.26v-6.69a4.15,4.15,0,0,1-3.9,2.27,5,5,0,0,1,0-9.95Zm.22,1.08a3.9,3.9,0,0,0,0,7.79,3.9,3.9,0,0,0,0-7.79Z"/><path class="ae4b168c-c671-4ca1-9cee-35e487141993" d="M263.18,312.47h-1.26v-1.7a3.57,3.57,0,0,1-3.35,1.86c-2.23,0-4-1.35-4-4.18V302.8h1.24v5.51c0,2.14,1.19,3.24,3,3.24s3.12-1.14,3.12-3.49V302.8h1.26Z"/><path class="ae4b168c-c671-4ca1-9cee-35e487141993" d="M270.28,312.61a5,5,0,0,1,0-9.95,4.38,4.38,0,0,1,4.64,4.48,7.4,7.4,0,0,1,0,1h-8.15a3.41,3.41,0,0,0,3.55,3.45,3,3,0,0,0,3.16-2.15h1.34A4.32,4.32,0,0,1,270.28,312.61Zm-3.55-5.51h6.91a3.19,3.19,0,0,0-3.42-3.38A3.37,3.37,0,0,0,266.73,307.1Z"/><path class="ae4b168c-c671-4ca1-9cee-35e487141993" d="M286.29,302.66a4.3,4.3,0,0,1,3.88,2.23v-5.52h1.26v13.1h-1.26v-2.16a4.12,4.12,0,0,1-3.89,2.3,5,5,0,0,1,0-9.95Zm.22,1.08a3.56,3.56,0,0,0-3.65,3.88,3.59,3.59,0,0,0,3.65,3.91,3.9,3.9,0,0,0,0-7.79Z"/><path class="ae4b168c-c671-4ca1-9cee-35e487141993" d="M298.53,312.61a5,5,0,0,1,0-9.95,4.39,4.39,0,0,1,4.65,4.48,7.4,7.4,0,0,1,0,1H295a3.41,3.41,0,0,0,3.55,3.45,3,3,0,0,0,3.17-2.15H303A4.31,4.31,0,0,1,298.53,312.61ZM295,307.1h6.92a3.19,3.19,0,0,0-3.42-3.38A3.38,3.38,0,0,0,295,307.1Z"/><path class="ae4b168c-c671-4ca1-9cee-35e487141993" d="M305.6,303.85h-1.37V302.8h1.37v-2.42h1.27v2.42h2.71v1.05h-2.71v6c0,1.18.42,1.56,1.55,1.56h1.16v1.06h-1.36c-1.71,0-2.62-.69-2.62-2.62Z"/><path class="ae4b168c-c671-4ca1-9cee-35e487141993" d="M315.37,312.61a5,5,0,0,1,0-9.95,4.38,4.38,0,0,1,4.64,4.48c0,.39,0,.64,0,1h-8.16a3.41,3.41,0,0,0,3.55,3.45,3,3,0,0,0,3.17-2.15h1.33A4.32,4.32,0,0,1,315.37,312.61Zm-3.55-5.51h6.91a3.19,3.19,0,0,0-3.42-3.38A3.37,3.37,0,0,0,311.82,307.1Z"/><path class="ae4b168c-c671-4ca1-9cee-35e487141993" d="M323.58,312.47h-1.26V302.8h1.26v1.72a3.39,3.39,0,0,1,3.37-1.89v1.29h-.34c-1.64,0-3,.72-3,3.15Z"/><path class="ae4b168c-c671-4ca1-9cee-35e487141993" d="M343.07,306.94c0-2.14-1.14-3.23-2.88-3.23s-3,1.16-3,3.52v5.24H335.9v-5.53c0-2.14-1.15-3.23-2.9-3.23s-3,1.16-3,3.52v5.24H328.7V302.8H330v1.67a3.52,3.52,0,0,1,3.26-1.84,3.64,3.64,0,0,1,3.64,2.37,3.57,3.57,0,0,1,3.54-2.37c2.18,0,3.91,1.34,3.91,4.17v5.67h-1.24Z"/><path class="ae4b168c-c671-4ca1-9cee-35e487141993" d="M346.76,300.06a.92.92,0,0,1,1.84,0,.92.92,0,0,1-1.84,0Zm.29,2.74h1.26v9.67h-1.26Z"/><path class="ae4b168c-c671-4ca1-9cee-35e487141993" d="M358.48,306.94c0-2.14-1.18-3.23-3-3.23s-3.11,1.13-3.11,3.48v5.28h-1.26V302.8h1.26v1.65a3.61,3.61,0,0,1,3.35-1.82c2.23,0,4,1.34,4,4.17v5.67h-1.25Z"/><path class="ae4b168c-c671-4ca1-9cee-35e487141993" d="M366.58,302.66a4.12,4.12,0,0,1,3.89,2.27V302.8h1.26v9.67h-1.26v-2.14a4.16,4.16,0,0,1-3.91,2.28,5,5,0,0,1,0-9.95Zm.24,1.08a3.9,3.9,0,0,0,0,7.79,3.9,3.9,0,0,0,0-7.79Z"/><path class="ae4b168c-c671-4ca1-9cee-35e487141993" d="M381.93,306.94c0-2.14-1.19-3.23-3-3.23s-3.12,1.13-3.12,3.48v5.28h-1.26V302.8h1.26v1.65a3.61,3.61,0,0,1,3.35-1.82c2.23,0,4,1.34,4,4.17v5.67h-1.24Z"/><path class="ae4b168c-c671-4ca1-9cee-35e487141993" d="M395.14,312.61a5,5,0,0,1,0-9.95,4.38,4.38,0,0,1,4.64,4.48c0,.39,0,.64,0,1h-8.16a3.41,3.41,0,0,0,3.55,3.45,3,3,0,0,0,3.16-2.15h1.34A4.32,4.32,0,0,1,395.14,312.61Zm-3.55-5.51h6.91a3.19,3.19,0,0,0-3.42-3.38A3.37,3.37,0,0,0,391.59,307.1Z"/><path class="ae4b168c-c671-4ca1-9cee-35e487141993" d="M402.08,299.37h1.26v13.1h-1.26Z"/><path class="ae4b168c-c671-4ca1-9cee-35e487141993" d="M415.33,302.66c2.47,0,4.07,1.29,4.52,3.29H418.5a3,3,0,0,0-3.17-2.23c-1.93,0-3.49,1.3-3.49,3.92s1.56,3.92,3.49,3.92a3,3,0,0,0,3.17-2.24h1.35a4.29,4.29,0,0,1-4.52,3.29,5,5,0,0,1,0-9.95Z"/><path class="ae4b168c-c671-4ca1-9cee-35e487141993" d="M422.05,299.37h1.26v13.1h-1.26Z"/><path class="ae4b168c-c671-4ca1-9cee-35e487141993" d="M425.82,300.06a.92.92,0,0,1,1.84,0,.92.92,0,0,1-1.84,0Zm.29,2.74h1.26v9.67h-1.26Z"/><path class="ae4b168c-c671-4ca1-9cee-35e487141993" d="M444.55,306.94c0-2.14-1.14-3.23-2.88-3.23s-3.05,1.16-3.05,3.52v5.24h-1.24v-5.53c0-2.14-1.15-3.23-2.9-3.23s-3,1.16-3,3.52v5.24h-1.26V302.8h1.26v1.67a3.52,3.52,0,0,1,3.26-1.84,3.64,3.64,0,0,1,3.64,2.37,3.57,3.57,0,0,1,3.54-2.37c2.18,0,3.91,1.34,3.91,4.17v5.67h-1.24Z"/><path class="ae4b168c-c671-4ca1-9cee-35e487141993" d="M452.68,302.66a4.09,4.09,0,0,1,3.88,2.27V302.8h1.27v9.67h-1.27v-2.14a4.16,4.16,0,0,1-3.9,2.28c-2.69,0-4.68-2-4.68-5A4.6,4.6,0,0,1,452.68,302.66Zm.23,1.08a3.9,3.9,0,0,0,0,7.79,3.9,3.9,0,0,0,0-7.79Z"/><path class="ae4b168c-c671-4ca1-9cee-35e487141993" d="M108.28,342.12a5,5,0,0,1,0-9.95,4.39,4.39,0,0,1,4.65,4.48,7.4,7.4,0,0,1,0,1h-8.16a3.42,3.42,0,0,0,3.55,3.46,3,3,0,0,0,3.17-2.16h1.33A4.31,4.31,0,0,1,108.28,342.12Zm-3.55-5.5h6.92a3.19,3.19,0,0,0-3.42-3.38A3.37,3.37,0,0,0,104.73,336.62Z"/><path class="ae4b168c-c671-4ca1-9cee-35e487141993" d="M118.53,342.12c-2.23,0-3.8-1.1-4-2.87h1.29c.11,1.07,1,1.83,2.65,1.83,1.41,0,2.2-.75,2.2-1.67,0-2.39-5.91-1-5.91-4.62,0-1.43,1.39-2.62,3.46-2.62s3.49,1.1,3.6,3H120.6c-.07-1.08-.88-1.89-2.38-1.89-1.31,0-2.14.69-2.14,1.54,0,2.61,5.82,1.22,5.87,4.63C122,341,120.56,342.12,118.53,342.12Z"/><path class="ae4b168c-c671-4ca1-9cee-35e487141993" d="M128.44,332.17a4.24,4.24,0,0,1,4.52,3.3h-1.35a3,3,0,0,0-3.17-2.23c-1.93,0-3.5,1.29-3.5,3.91s1.57,3.93,3.5,3.93a3,3,0,0,0,3.17-2.25H133a4.3,4.3,0,0,1-4.52,3.29,5,5,0,0,1,0-9.95Z"/><path class="ae4b168c-c671-4ca1-9cee-35e487141993" d="M139.43,342.12a5,5,0,1,1,4.95-5A4.74,4.74,0,0,1,139.43,342.12Zm0-1.08a3.91,3.91,0,1,0-3.6-3.89A3.53,3.53,0,0,0,139.43,341Z"/><path class="ae4b168c-c671-4ca1-9cee-35e487141993" d="M146.66,328.88h1.26V342h-1.26Z"/><path class="ae4b168c-c671-4ca1-9cee-35e487141993" d="M154.88,332.17a4.12,4.12,0,0,1,3.89,2.27v-2.13H160V342h-1.26v-2.14a4.17,4.17,0,0,1-3.91,2.28c-2.68,0-4.68-2-4.68-5A4.6,4.6,0,0,1,154.88,332.17Zm.23,1.08a3.56,3.56,0,0,0-3.65,3.88,3.59,3.59,0,0,0,3.65,3.91,3.9,3.9,0,0,0,0-7.79Z"/><path class="ae4b168c-c671-4ca1-9cee-35e487141993" d="M164.12,342h-1.26v-9.67h1.26V334a3.4,3.4,0,0,1,3.37-1.89v1.29h-.35c-1.63,0-3,.73-3,3.15Z"/><path class="ae4b168c-c671-4ca1-9cee-35e487141993" d="M168.09,339.93h1.4l-1.86,4.63h-.88Z"/><path class="ae4b168c-c671-4ca1-9cee-35e487141993" d="M180.69,342.12a5,5,0,1,1,4.95-5A4.75,4.75,0,0,1,180.69,342.12Zm0-1.08a3.91,3.91,0,1,0-3.61-3.89A3.53,3.53,0,0,0,180.69,341Z"/><path class="ae4b168c-c671-4ca1-9cee-35e487141993" d="M196.26,342.12c-2.24,0-3.8-1.1-4-2.87h1.3c.11,1.07,1,1.83,2.65,1.83,1.4,0,2.19-.75,2.19-1.67,0-2.39-5.9-1-5.9-4.62,0-1.43,1.38-2.62,3.46-2.62s3.49,1.1,3.6,3h-1.26a2.1,2.1,0,0,0-2.38-1.89c-1.32,0-2.14.69-2.14,1.54,0,2.61,5.81,1.22,5.87,4.63C199.68,341,198.29,342.12,196.26,342.12Z"/><path class="ae4b168c-c671-4ca1-9cee-35e487141993" d="M201.7,329.57a.92.92,0,0,1,1.84,0,.92.92,0,1,1-1.84,0Zm.29,2.74h1.26V342H202Z"/><path class="ae4b168c-c671-4ca1-9cee-35e487141993" d="M215.29,342.12a5,5,0,0,1,0-9.95,4.39,4.39,0,0,1,4.65,4.48,7.4,7.4,0,0,1,0,1h-8.15a3.41,3.41,0,0,0,3.54,3.46,3,3,0,0,0,3.17-2.16h1.33A4.31,4.31,0,0,1,215.29,342.12Zm-3.54-5.5h6.91a3.19,3.19,0,0,0-3.42-3.38A3.36,3.36,0,0,0,211.75,336.62Z"/><path class="ae4b168c-c671-4ca1-9cee-35e487141993" d="M225.54,342.12c-2.23,0-3.8-1.1-4-2.87h1.3c.11,1.07,1,1.83,2.64,1.83,1.41,0,2.2-.75,2.2-1.67,0-2.39-5.91-1-5.91-4.62,0-1.43,1.39-2.62,3.46-2.62s3.49,1.1,3.6,3h-1.26c-.07-1.08-.88-1.89-2.37-1.89-1.32,0-2.15.69-2.15,1.54,0,2.61,5.82,1.22,5.87,4.63C229,341,227.58,342.12,225.54,342.12Z"/><path class="ae4b168c-c671-4ca1-9cee-35e487141993" d="M240.52,342.12a5,5,0,0,1,0-9.95,4.38,4.38,0,0,1,4.64,4.48c0,.39,0,.64,0,1H237a3.42,3.42,0,0,0,3.55,3.46,3,3,0,0,0,3.17-2.16H245A4.32,4.32,0,0,1,240.52,342.12Zm-3.55-5.5h6.91a3.18,3.18,0,0,0-3.42-3.38A3.36,3.36,0,0,0,237,336.62Z"/><path class="ae4b168c-c671-4ca1-9cee-35e487141993" d="M247.46,328.88h1.26V342h-1.26Z"/><path class="ae4b168c-c671-4ca1-9cee-35e487141993" d="M260.71,332.17a4.24,4.24,0,0,1,4.52,3.3h-1.35a3,3,0,0,0-3.17-2.23c-1.92,0-3.49,1.29-3.49,3.91s1.57,3.93,3.49,3.93a3,3,0,0,0,3.17-2.25h1.35a4.29,4.29,0,0,1-4.52,3.29,5,5,0,0,1,0-9.95Z"/><path class="ae4b168c-c671-4ca1-9cee-35e487141993" d="M267.44,328.88h1.26V342h-1.26Z"/><path class="ae4b168c-c671-4ca1-9cee-35e487141993" d="M271.21,329.57a.92.92,0,0,1,1.83,0,.92.92,0,1,1-1.83,0Zm.28,2.74h1.26V342h-1.26Z"/><path class="ae4b168c-c671-4ca1-9cee-35e487141993" d="M289.93,336.46c0-2.15-1.13-3.24-2.88-3.24s-3,1.17-3,3.52V342h-1.25v-5.52c0-2.15-1.15-3.24-2.9-3.24s-3,1.17-3,3.52V342h-1.26v-9.67h1.26V334a3.52,3.52,0,0,1,3.26-1.84,3.64,3.64,0,0,1,3.64,2.37,3.57,3.57,0,0,1,3.55-2.37c2.17,0,3.9,1.34,3.9,4.18V342h-1.24Z"/><path class="ae4b168c-c671-4ca1-9cee-35e487141993" d="M298.06,332.17a4.12,4.12,0,0,1,3.89,2.27v-2.13h1.26V342H302v-2.14a4.17,4.17,0,0,1-3.91,2.28c-2.68,0-4.68-2-4.68-5A4.6,4.6,0,0,1,298.06,332.17Zm.23,1.08a3.56,3.56,0,0,0-3.65,3.88,3.59,3.59,0,0,0,3.65,3.91,3.9,3.9,0,0,0,0-7.79Z"/><path class="ae4b168c-c671-4ca1-9cee-35e487141993" d="M315.26,342.12a5,5,0,0,1,0-9.95,4.38,4.38,0,0,1,4.65,4.48,7.4,7.4,0,0,1,0,1h-8.15a3.41,3.41,0,0,0,3.54,3.46,3,3,0,0,0,3.17-2.16h1.34A4.32,4.32,0,0,1,315.26,342.12Zm-3.54-5.5h6.91a3.18,3.18,0,0,0-3.42-3.38A3.36,3.36,0,0,0,311.72,336.62Z"/><path class="ae4b168c-c671-4ca1-9cee-35e487141993" d="M325.51,342.12c-2.23,0-3.79-1.1-4-2.87h1.3c.11,1.07,1,1.83,2.65,1.83,1.4,0,2.19-.75,2.19-1.67,0-2.39-5.9-1-5.9-4.62,0-1.43,1.38-2.62,3.45-2.62s3.5,1.1,3.6,3h-1.26c-.07-1.08-.88-1.89-2.37-1.89-1.32,0-2.14.69-2.14,1.54,0,2.61,5.81,1.22,5.87,4.63C328.94,341,327.55,342.12,325.51,342.12Z"/><path class="ae4b168c-c671-4ca1-9cee-35e487141993" d="M335.42,332.17a4.24,4.24,0,0,1,4.52,3.3h-1.35a3,3,0,0,0-3.17-2.23c-1.93,0-3.49,1.29-3.49,3.91s1.56,3.93,3.49,3.93a3,3,0,0,0,3.17-2.25h1.35a4.29,4.29,0,0,1-4.52,3.29,5,5,0,0,1,0-9.95Z"/><path class="ae4b168c-c671-4ca1-9cee-35e487141993" d="M346.42,342.12a5,5,0,1,1,4.95-5A4.75,4.75,0,0,1,346.42,342.12Zm0-1.08a3.91,3.91,0,1,0-3.6-3.89A3.52,3.52,0,0,0,346.42,341Z"/><path class="ae4b168c-c671-4ca1-9cee-35e487141993" d="M353.64,328.88h1.26V342h-1.26Z"/><path class="ae4b168c-c671-4ca1-9cee-35e487141993" d="M361.86,332.17a4.11,4.11,0,0,1,3.89,2.27v-2.13H367V342h-1.26v-2.14a4.14,4.14,0,0,1-3.9,2.28,5,5,0,0,1,0-9.95Zm.24,1.08a3.9,3.9,0,0,0,0,7.79,3.9,3.9,0,0,0,0-7.79Z"/><path class="ae4b168c-c671-4ca1-9cee-35e487141993" d="M371.1,342h-1.26v-9.67h1.26V334a3.41,3.41,0,0,1,3.37-1.89v1.29h-.34c-1.64,0-3,.73-3,3.15Z"/><path class="ae4b168c-c671-4ca1-9cee-35e487141993" d="M385.54,342.12a5,5,0,0,1,0-9.95,4.38,4.38,0,0,1,4.64,4.48c0,.39,0,.64,0,1H382a3.42,3.42,0,0,0,3.55,3.46,3,3,0,0,0,3.17-2.16H390A4.31,4.31,0,0,1,385.54,342.12Zm-3.55-5.5h6.92a3.19,3.19,0,0,0-3.42-3.38A3.37,3.37,0,0,0,382,336.62Z"/><path class="ae4b168c-c671-4ca1-9cee-35e487141993" d="M392.49,328.88h1.26V342h-1.26Z"/><path class="ae4b168c-c671-4ca1-9cee-35e487141993" d="M405.68,332.17a4.1,4.1,0,0,1,3.87,2.27v-2.13h1.26v14.24h-1.26v-6.69a4.17,4.17,0,0,1-3.91,2.26c-2.68,0-4.68-2-4.68-5A4.61,4.61,0,0,1,405.68,332.17Zm.22,1.08a3.9,3.9,0,0,0,0,7.79,3.9,3.9,0,0,0,0-7.79Z"/><path class="ae4b168c-c671-4ca1-9cee-35e487141993" d="M422.17,342h-1.26v-1.7a3.57,3.57,0,0,1-3.35,1.86c-2.23,0-4-1.35-4-4.18v-5.65h1.24v5.51c0,2.14,1.19,3.24,3,3.24s3.12-1.13,3.12-3.49v-5.26h1.26Z"/><path class="ae4b168c-c671-4ca1-9cee-35e487141993" d="M429.26,342.12a5,5,0,0,1,0-9.95,4.39,4.39,0,0,1,4.65,4.48,7.4,7.4,0,0,1,0,1h-8.15a3.41,3.41,0,0,0,3.54,3.46,3,3,0,0,0,3.17-2.16h1.34A4.32,4.32,0,0,1,429.26,342.12Zm-3.54-5.5h6.91a3.18,3.18,0,0,0-3.42-3.38A3.36,3.36,0,0,0,425.72,336.62Z"/><path class="ae4b168c-c671-4ca1-9cee-35e487141993" d="M108.17,361.68a4.28,4.28,0,0,1,3.87,2.23v-5.52h1.26v13.1H112v-2.16a4.09,4.09,0,0,1-3.89,2.3c-2.7,0-4.69-2-4.69-5A4.6,4.6,0,0,1,108.17,361.68Zm.22,1.08a3.9,3.9,0,0,0,0,7.79,3.9,3.9,0,0,0,0-7.79Z"/><path class="ae4b168c-c671-4ca1-9cee-35e487141993" d="M120.41,371.63a5,5,0,0,1,0-9.95,4.38,4.38,0,0,1,4.64,4.48c0,.39,0,.64,0,1h-8.16a3.41,3.41,0,0,0,3.55,3.45,3,3,0,0,0,3.17-2.16h1.33A4.31,4.31,0,0,1,120.41,371.63Zm-3.55-5.5h6.92a3.19,3.19,0,0,0-3.42-3.38A3.37,3.37,0,0,0,116.86,366.13Z"/><path class="ae4b168c-c671-4ca1-9cee-35e487141993" d="M127.47,362.87h-1.36v-1h1.36V359.4h1.28v2.43h2.7v1h-2.7v6c0,1.19.42,1.56,1.55,1.56h1.15v1.06H130.1c-1.71,0-2.63-.69-2.63-2.62Z"/><path class="ae4b168c-c671-4ca1-9cee-35e487141993" d="M137.25,371.63a5,5,0,0,1,0-9.95,4.38,4.38,0,0,1,4.64,4.48,7.63,7.63,0,0,1,0,1H133.7a3.41,3.41,0,0,0,3.55,3.45,3,3,0,0,0,3.16-2.16h1.34A4.32,4.32,0,0,1,137.25,371.63Zm-3.55-5.5h6.91a3.18,3.18,0,0,0-3.42-3.38A3.36,3.36,0,0,0,133.7,366.13Z"/><path class="ae4b168c-c671-4ca1-9cee-35e487141993" d="M145.46,371.49H144.2v-9.66h1.26v1.71a3.4,3.4,0,0,1,3.37-1.89v1.29h-.35c-1.63,0-3,.73-3,3.15Z"/><path class="ae4b168c-c671-4ca1-9cee-35e487141993" d="M165,366c0-2.14-1.14-3.24-2.88-3.24s-3,1.17-3,3.52v5.24h-1.24V366c0-2.14-1.15-3.24-2.9-3.24s-3,1.17-3,3.52v5.24h-1.26v-9.66h1.26v1.66a3.52,3.52,0,0,1,3.26-1.84,3.64,3.64,0,0,1,3.64,2.37,3.58,3.58,0,0,1,3.54-2.37c2.18,0,3.91,1.34,3.91,4.18v5.66H165Z"/><path class="ae4b168c-c671-4ca1-9cee-35e487141993" d="M168.64,359.08a.92.92,0,0,1,1.84,0,.92.92,0,1,1-1.84,0Zm.29,2.75h1.26v9.66h-1.26Z"/><path class="ae4b168c-c671-4ca1-9cee-35e487141993" d="M180.36,366c0-2.14-1.19-3.24-3-3.24s-3.11,1.13-3.11,3.49v5.27H173v-9.66h1.26v1.64a3.61,3.61,0,0,1,3.35-1.82c2.23,0,4,1.34,4,4.18v5.66h-1.24Z"/><path class="ae4b168c-c671-4ca1-9cee-35e487141993" d="M188.46,361.68a4.12,4.12,0,0,1,3.89,2.27v-2.12h1.26v9.66h-1.26v-2.14a4.16,4.16,0,0,1-3.91,2.28c-2.68,0-4.68-2-4.68-5A4.6,4.6,0,0,1,188.46,361.68Zm.24,1.08a3.9,3.9,0,0,0,0,7.79,3.9,3.9,0,0,0,0-7.79Z"/><path class="ae4b168c-c671-4ca1-9cee-35e487141993" d="M201.42,358.39h1.26v13.1h-1.26Z"/><path class="ae4b168c-c671-4ca1-9cee-35e487141993" d="M209.64,361.68a4.12,4.12,0,0,1,3.89,2.27v-2.12h1.26v9.66h-1.26v-2.14a4.14,4.14,0,0,1-3.9,2.28,5,5,0,0,1,0-9.95Zm.24,1.08a3.9,3.9,0,0,0,0,7.79,3.9,3.9,0,0,0,0-7.79Z"/><path class="ae4b168c-c671-4ca1-9cee-35e487141993" d="M221,371.63c-2.23,0-3.8-1.1-4-2.87h1.3c.1,1.07,1,1.83,2.64,1.83,1.41,0,2.2-.75,2.2-1.67,0-2.39-5.91-1-5.91-4.62,0-1.43,1.39-2.62,3.46-2.62s3.49,1.1,3.6,3h-1.26c-.07-1.08-.88-1.89-2.37-1.89-1.32,0-2.15.69-2.15,1.54,0,2.62,5.82,1.22,5.87,4.63C224.42,370.48,223,371.63,221,371.63Z"/><path class="ae4b168c-c671-4ca1-9cee-35e487141993" d="M235.92,361.68a4.24,4.24,0,0,1,4.52,3.3h-1.35a3,3,0,0,0-3.17-2.23c-1.92,0-3.49,1.29-3.49,3.91s1.57,3.93,3.49,3.93a3,3,0,0,0,3.17-2.25h1.35a4.29,4.29,0,0,1-4.52,3.29,5,5,0,0,1,0-9.95Z"/><path class="ae4b168c-c671-4ca1-9cee-35e487141993" d="M246.92,371.63a5,5,0,1,1,5-5A4.75,4.75,0,0,1,246.92,371.63Zm0-1.08a3.91,3.91,0,1,0-3.6-3.89A3.53,3.53,0,0,0,246.92,370.55Z"/><path class="ae4b168c-c671-4ca1-9cee-35e487141993" d="M261.51,366c0-2.14-1.18-3.24-3-3.24s-3.12,1.13-3.12,3.49v5.27h-1.26v-9.66h1.26v1.64a3.61,3.61,0,0,1,3.35-1.82c2.23,0,4,1.34,4,4.18v5.66h-1.25Z"/><path class="ae4b168c-c671-4ca1-9cee-35e487141993" d="M269.63,361.68a4.3,4.3,0,0,1,3.88,2.23v-5.52h1.26v13.1h-1.26v-2.16a4.11,4.11,0,0,1-3.89,2.3,5,5,0,0,1,0-9.95Zm.22,1.08a3.56,3.56,0,0,0-3.65,3.88,3.66,3.66,0,1,0,7.31,0A3.63,3.63,0,0,0,269.85,362.76Z"/><path class="ae4b168c-c671-4ca1-9cee-35e487141993" d="M286.12,371.49h-1.26v-1.7a3.56,3.56,0,0,1-3.35,1.86c-2.23,0-4-1.35-4-4.18v-5.64h1.24v5.5c0,2.14,1.19,3.24,3,3.24s3.11-1.13,3.11-3.49v-5.25h1.26Z"/><path class="ae4b168c-c671-4ca1-9cee-35e487141993" d="M293.16,361.68a4.24,4.24,0,0,1,4.52,3.3h-1.35a3,3,0,0,0-3.17-2.23c-1.92,0-3.49,1.29-3.49,3.91s1.57,3.93,3.49,3.93a3,3,0,0,0,3.17-2.25h1.35a4.29,4.29,0,0,1-4.52,3.29,5,5,0,0,1,0-9.95Z"/><path class="ae4b168c-c671-4ca1-9cee-35e487141993" d="M300,362.87h-1.37v-1H300V359.4h1.28v2.43H304v1h-2.7v6c0,1.19.42,1.56,1.55,1.56H304v1.06h-1.35c-1.71,0-2.63-.69-2.63-2.62Z"/><path class="ae4b168c-c671-4ca1-9cee-35e487141993" d="M309.69,361.68a4.12,4.12,0,0,1,3.89,2.27v-2.12h1.26v9.66h-1.26v-2.14a4.17,4.17,0,0,1-3.91,2.28c-2.68,0-4.68-2-4.68-5A4.6,4.6,0,0,1,309.69,361.68Zm.23,1.08a3.56,3.56,0,0,0-3.65,3.88,3.66,3.66,0,1,0,7.31,0A3.63,3.63,0,0,0,309.92,362.76Z"/><path class="ae4b168c-c671-4ca1-9cee-35e487141993" d="M321.05,371.63c-2.24,0-3.8-1.1-4-2.87h1.3c.11,1.07,1.05,1.83,2.65,1.83,1.4,0,2.19-.75,2.19-1.67,0-2.39-5.9-1-5.9-4.62,0-1.43,1.39-2.62,3.46-2.62s3.49,1.1,3.6,3h-1.26a2.1,2.1,0,0,0-2.38-1.89c-1.31,0-2.14.69-2.14,1.54,0,2.62,5.81,1.22,5.87,4.63C324.47,370.48,323.08,371.63,321.05,371.63Z"/><path class="ae4b168c-c671-4ca1-9cee-35e487141993" d="M335.91,361.68a4.28,4.28,0,0,1,3.87,2.23v-5.52h1.27v13.1h-1.27v-2.16a4.08,4.08,0,0,1-3.88,2.3c-2.71,0-4.7-2-4.7-5A4.6,4.6,0,0,1,335.91,361.68Zm.22,1.08a3.9,3.9,0,0,0,0,7.79,3.9,3.9,0,0,0,0-7.79Z"/><path class="ae4b168c-c671-4ca1-9cee-35e487141993" d="M348.15,371.63a5,5,0,0,1,0-9.95,4.39,4.39,0,0,1,4.65,4.48,7.63,7.63,0,0,1,0,1H344.6a3.41,3.41,0,0,0,3.55,3.45,3,3,0,0,0,3.17-2.16h1.33A4.31,4.31,0,0,1,348.15,371.63Zm-3.55-5.5h6.92a3.19,3.19,0,0,0-3.42-3.38A3.37,3.37,0,0,0,344.6,366.13Z"/><path class="ae4b168c-c671-4ca1-9cee-35e487141993" d="M360,358.39h1.26v13.1H360Z"/><path class="ae4b168c-c671-4ca1-9cee-35e487141993" d="M368.43,371.63a5,5,0,1,1,4.95-5A4.74,4.74,0,0,1,368.43,371.63Zm0-1.08a3.91,3.91,0,1,0-3.6-3.89A3.53,3.53,0,0,0,368.43,370.55Z"/><path class="ae4b168c-c671-4ca1-9cee-35e487141993" d="M378.94,371.63c-2.23,0-3.8-1.1-4-2.87h1.29c.11,1.07,1.05,1.83,2.65,1.83,1.41,0,2.2-.75,2.2-1.67,0-2.39-5.91-1-5.91-4.62,0-1.43,1.39-2.62,3.46-2.62s3.49,1.1,3.6,3H381c-.07-1.08-.88-1.89-2.38-1.89-1.31,0-2.14.69-2.14,1.54,0,2.62,5.82,1.22,5.87,4.63C382.36,370.48,381,371.63,378.94,371.63Z"/><path class="ae4b168c-c671-4ca1-9cee-35e487141993" d="M108.28,401.14a5,5,0,0,1,0-9.94,4.38,4.38,0,0,1,4.65,4.47,7.63,7.63,0,0,1,0,1h-8.16a3.41,3.41,0,0,0,3.55,3.45,3,3,0,0,0,3.17-2.16h1.33A4.31,4.31,0,0,1,108.28,401.14Zm-3.55-5.5h6.92a3.19,3.19,0,0,0-3.42-3.38A3.37,3.37,0,0,0,104.73,395.64Z"/><path class="ae4b168c-c671-4ca1-9cee-35e487141993" d="M118.53,401.14c-2.23,0-3.8-1.09-4-2.86h1.29c.11,1.06,1,1.82,2.65,1.82,1.41,0,2.2-.74,2.2-1.66,0-2.39-5.91-1-5.91-4.62,0-1.44,1.39-2.62,3.46-2.62s3.49,1.09,3.6,2.95H120.6c-.07-1.08-.88-1.89-2.38-1.89-1.31,0-2.14.69-2.14,1.54,0,2.62,5.82,1.22,5.87,4.64C122,400,120.56,401.14,118.53,401.14Z"/><path class="ae4b168c-c671-4ca1-9cee-35e487141993" d="M124.51,392.38h-1.37v-1h1.37v-2.43h1.28v2.43h2.7v1h-2.7v6c0,1.19.41,1.56,1.55,1.56h1.15V401h-1.35c-1.71,0-2.63-.69-2.63-2.62Z"/><path class="ae4b168c-c671-4ca1-9cee-35e487141993" d="M138.89,401h-1.26v-1.7a3.56,3.56,0,0,1-3.35,1.86c-2.23,0-4-1.34-4-4.18v-5.64h1.24v5.5c0,2.14,1.19,3.24,3,3.24s3.11-1.13,3.11-3.48v-5.26h1.26Z"/><path class="ae4b168c-c671-4ca1-9cee-35e487141993" d="M145.88,391.2a4.27,4.27,0,0,1,3.87,2.23V387.9H151V401h-1.26v-2.16a4.09,4.09,0,0,1-3.89,2.3,5,5,0,0,1,0-9.94Zm.22,1.08a3.55,3.55,0,0,0-3.66,3.87,3.66,3.66,0,1,0,3.66-3.87Z"/><path class="ae4b168c-c671-4ca1-9cee-35e487141993" d="M153.57,388.59a.92.92,0,0,1,1.84,0,.92.92,0,1,1-1.84,0Zm.29,2.75h1.26V401h-1.26Z"/><path class="ae4b168c-c671-4ca1-9cee-35e487141993" d="M162,391.2a4.11,4.11,0,0,1,3.89,2.26v-2.12h1.26V401h-1.26v-2.14a4.15,4.15,0,0,1-3.91,2.28c-2.68,0-4.68-2-4.68-5A4.6,4.6,0,0,1,162,391.2Zm.24,1.08a3.55,3.55,0,0,0-3.66,3.87,3.66,3.66,0,1,0,3.66-3.87Z"/><path class="ae4b168c-c671-4ca1-9cee-35e487141993" d="M177.38,395.48c0-2.14-1.19-3.24-3-3.24s-3.12,1.13-3.12,3.49V401H170v-9.66h1.26V393a3.61,3.61,0,0,1,3.35-1.82c2.23,0,4,1.35,4,4.18V401h-1.24Z"/><path class="ae4b168c-c671-4ca1-9cee-35e487141993" d="M181.5,392.38h-1.37v-1h1.37v-2.43h1.27v2.43h2.7v1h-2.7v6c0,1.19.42,1.56,1.55,1.56h1.15V401h-1.35c-1.71,0-2.62-.69-2.62-2.62Z"/><path class="ae4b168c-c671-4ca1-9cee-35e487141993" d="M191.27,401.14a5,5,0,0,1,0-9.94,4.37,4.37,0,0,1,4.64,4.47c0,.39,0,.64,0,1h-8.16a3.41,3.41,0,0,0,3.55,3.45,3,3,0,0,0,3.16-2.16h1.34A4.32,4.32,0,0,1,191.27,401.14Zm-3.55-5.5h6.91a3.18,3.18,0,0,0-3.42-3.38A3.36,3.36,0,0,0,187.72,395.64Z"/><path class="ae4b168c-c671-4ca1-9cee-35e487141993" d="M201.51,401.14c-2.23,0-3.79-1.09-4-2.86h1.3c.11,1.06,1,1.82,2.65,1.82,1.4,0,2.19-.74,2.19-1.66,0-2.39-5.9-1-5.9-4.62,0-1.44,1.38-2.62,3.45-2.62s3.5,1.09,3.61,2.95h-1.26a2.1,2.1,0,0,0-2.38-1.89c-1.32,0-2.14.69-2.14,1.54,0,2.62,5.81,1.22,5.87,4.64C204.94,400,203.55,401.14,201.51,401.14Z"/><path class="ae4b168c-c671-4ca1-9cee-35e487141993" d="M207.74,401.09a.91.91,0,0,1-.92-.92.89.89,0,0,1,.92-.9.88.88,0,0,1,.9.9A.9.9,0,0,1,207.74,401.09Z"/><ellipse class="eadc1c1a-093c-4557-aa08-21a31140c984" cx="39.11" cy="37.16" rx="32.69" ry="32.16"/><path class="b1129a64-3211-4a1d-8cd7-c9d13d117f7a" d="M34.36,31.72h-2.9V27.14h8.11v21H34.36Z"/><path class="b1129a64-3211-4a1d-8cd7-c9d13d117f7a" d="M46.06,48.38A2.69,2.69,0,1,1,49,45.73,2.74,2.74,0,0,1,46.06,48.38Z"/></svg>