<svg id="e58ba25a-0cbb-4484-a669-d6ef928079cc" data-name="Capa 1" xmlns="http://www.w3.org/2000/svg" viewBox="0 0 361.38 483.43"><defs><style>.a4ff997b-ee12-46ba-8776-dbefe2033af3{fill:#5f9eb5;}.a2039ebe-0890-4766-b673-57fe464efbd0{fill:#f2f2f2;}</style></defs><rect class="a4ff997b-ee12-46ba-8776-dbefe2033af3" width="361.38" height="483.43" rx="38.01"/><path class="a2039ebe-0890-4766-b673-57fe464efbd0" d="M48.9,42.48V55.12H45.82l-5.15-7.79v7.79H37.59V42.48h3.08l5.15,7.83V42.48Z"/><path class="a2039ebe-0890-4766-b673-57fe464efbd0" d="M55.8,55.27a5.17,5.17,0,1,1,0-10.34,5.17,5.17,0,1,1,0,10.34Zm0-2.67a2.2,2.2,0,0,0,2.13-2.5c0-1.71-1-2.5-2.09-2.5s-2.09.79-2.09,2.5S54.69,52.6,55.8,52.6Z"/><path class="a2039ebe-0890-4766-b673-57fe464efbd0" d="M63,47.63H61.79V45.07H63V42.63h3.08v2.44h2v2.56h-2v4c0,.6.26.85.94.85h1.1v2.61H66.56c-2.09,0-3.55-.88-3.55-3.49Z"/><path class="a2039ebe-0890-4766-b673-57fe464efbd0" d="M73.62,44.93a3.48,3.48,0,0,1,3.09,1.57V45.07h3.08v10H76.71V53.7a3.56,3.56,0,0,1-3.11,1.57c-2.45,0-4.41-2-4.41-5.19S71.15,44.93,73.62,44.93Zm.9,2.68a2.24,2.24,0,0,0-2.2,2.47,2.27,2.27,0,0,0,2.2,2.5,2.5,2.5,0,0,0,0-5Z"/><path class="a2039ebe-0890-4766-b673-57fe464efbd0" d="M83.41,47.94a1.68,1.68,0,1,1,1.82-1.66A1.7,1.7,0,0,1,83.41,47.94Zm0,7.33a1.68,1.68,0,1,1,1.82-1.66A1.7,1.7,0,0,1,83.41,55.27Z"/><path class="a2039ebe-0890-4766-b673-57fe464efbd0" d="M99.63,52.13H93.9l-1.1,3H91.47L96.06,42.7h1.43l4.57,12.42h-1.33Zm-2.86-7.85-2.49,6.81h5Z"/><path class="a2039ebe-0890-4766-b673-57fe464efbd0" d="M112.16,55.12h-1.27V53.39a3.53,3.53,0,0,1-3.34,1.89c-2.24,0-4-1.36-4-4.25V45.29h1.24v5.6c0,2.18,1.19,3.3,3,3.3s3.11-1.16,3.11-3.55V45.29h1.27Z"/><path class="a2039ebe-0890-4766-b673-57fe464efbd0" d="M122.34,49.5c0-2.17-1.19-3.29-3-3.29s-3.11,1.15-3.11,3.55v5.36H115V45.29h1.27V47a3.58,3.58,0,0,1,3.34-1.86c2.24,0,4,1.37,4,4.25v5.76h-1.24Z"/><path class="a2039ebe-0890-4766-b673-57fe464efbd0" d="M130.46,45.15a4.1,4.1,0,0,1,3.87,2.3V45.29h1.26V59.77h-1.26V53a4.16,4.16,0,0,1-3.91,2.31c-2.68,0-4.68-2-4.68-5.08S127.74,45.15,130.46,45.15Zm.21,1.1c-2.07,0-3.65,1.44-3.65,3.94s1.58,4,3.65,4a3.67,3.67,0,0,0,3.66-4A3.66,3.66,0,0,0,130.67,46.25Z"/><path class="a2039ebe-0890-4766-b673-57fe464efbd0" d="M147,55.12h-1.27V53.39a3.53,3.53,0,0,1-3.34,1.89c-2.24,0-4-1.36-4-4.25V45.29h1.24v5.6c0,2.18,1.19,3.3,3,3.3s3.11-1.16,3.11-3.55V45.29H147Z"/><path class="a2039ebe-0890-4766-b673-57fe464efbd0" d="M154,55.27a4.69,4.69,0,0,1-4.82-5.06c0-3.14,2-5.06,4.82-5.06a4.42,4.42,0,0,1,4.65,4.55,7.71,7.71,0,0,1,0,1h-8.16A3.44,3.44,0,0,0,154,54.2,3,3,0,0,0,157.21,52h1.33A4.32,4.32,0,0,1,154,55.27Zm-3.55-5.6h6.92A3.21,3.21,0,0,0,154,46.23,3.4,3.4,0,0,0,150.49,49.67Z"/><path class="a2039ebe-0890-4766-b673-57fe464efbd0" d="M169.3,55.27c-2.23,0-3.79-1.12-4-2.92h1.3c.11,1.08,1,1.85,2.65,1.85,1.4,0,2.19-.75,2.19-1.69,0-2.43-5.9-1-5.9-4.7,0-1.46,1.38-2.66,3.46-2.66s3.49,1.11,3.6,3h-1.26A2.11,2.11,0,0,0,169,46.23c-1.32,0-2.14.7-2.14,1.56,0,2.67,5.81,1.25,5.87,4.72C172.73,54.1,171.34,55.27,169.3,55.27Z"/><path class="a2039ebe-0890-4766-b673-57fe464efbd0" d="M179.27,55.27a4.69,4.69,0,0,1-4.83-5.06c0-3.14,2-5.06,4.83-5.06a4.41,4.41,0,0,1,4.64,4.55c0,.4,0,.65,0,1h-8.16a3.43,3.43,0,0,0,3.55,3.51A3,3,0,0,0,182.44,52h1.33A4.33,4.33,0,0,1,179.27,55.27Zm-3.55-5.6h6.91a3.21,3.21,0,0,0-3.42-3.44A3.4,3.4,0,0,0,175.72,49.67Z"/><path class="a2039ebe-0890-4766-b673-57fe464efbd0" d="M196.3,45.15c2.68,0,4.68,2,4.68,5s-2,5.08-4.68,5.08A4.18,4.18,0,0,1,192.39,53v6.81h-1.24V45.29h1.24v2.16A4.16,4.16,0,0,1,196.3,45.15Zm-.26,1.1a3.67,3.67,0,0,0-3.65,4,3.67,3.67,0,1,0,7.31,0A3.59,3.59,0,0,0,196,46.25Z"/><path class="a2039ebe-0890-4766-b673-57fe464efbd0" d="M211.76,55.12H210.5V53.39a3.53,3.53,0,0,1-3.35,1.89c-2.23,0-4-1.36-4-4.25V45.29h1.24v5.6c0,2.18,1.19,3.3,3,3.3s3.11-1.16,3.11-3.55V45.29h1.26Z"/><path class="a2039ebe-0890-4766-b673-57fe464efbd0" d="M218.86,55.27A4.69,4.69,0,0,1,214,50.21c0-3.14,2-5.06,4.83-5.06a4.41,4.41,0,0,1,4.64,4.55c0,.4,0,.65,0,1h-8.16a3.43,3.43,0,0,0,3.55,3.51A3,3,0,0,0,222,52h1.33A4.33,4.33,0,0,1,218.86,55.27Zm-3.55-5.6h6.91a3.21,3.21,0,0,0-3.42-3.44A3.4,3.4,0,0,0,215.31,49.67Z"/><path class="a2039ebe-0890-4766-b673-57fe464efbd0" d="M230,45.15a4.27,4.27,0,0,1,3.87,2.27V41.8h1.26V55.12h-1.26V52.93a4.12,4.12,0,0,1-3.89,2.34c-2.7,0-4.7-2-4.7-5.08S227.24,45.15,230,45.15Zm.21,1.1c-2.07,0-3.65,1.44-3.65,3.94s1.58,4,3.65,4a3.67,3.67,0,0,0,3.66-4A3.66,3.66,0,0,0,230.17,46.25Z"/><path class="a2039ebe-0890-4766-b673-57fe464efbd0" d="M242.19,55.27a4.69,4.69,0,0,1-4.82-5.06c0-3.14,2-5.06,4.82-5.06a4.42,4.42,0,0,1,4.65,4.55,7.71,7.71,0,0,1,0,1h-8.16a3.43,3.43,0,0,0,3.55,3.51A3,3,0,0,0,245.36,52h1.33A4.32,4.32,0,0,1,242.19,55.27Zm-3.55-5.6h6.92a3.21,3.21,0,0,0-3.42-3.44A3.4,3.4,0,0,0,238.64,49.67Z"/><path class="a2039ebe-0890-4766-b673-57fe464efbd0" d="M256.51,49.5c0-2.17-1.19-3.29-3-3.29s-3.11,1.15-3.11,3.55v5.36h-1.26V45.29h1.26V47a3.58,3.58,0,0,1,3.34-1.86c2.24,0,4,1.37,4,4.25v5.76h-1.24Z"/><path class="a2039ebe-0890-4766-b673-57fe464efbd0" d="M274,55.12h-1.26V53.39a3.54,3.54,0,0,1-3.35,1.89c-2.23,0-4-1.36-4-4.25V45.29h1.24v5.6c0,2.18,1.19,3.3,3,3.3s3.12-1.16,3.12-3.55V45.29H274Z"/><path class="a2039ebe-0890-4766-b673-57fe464efbd0" d="M280.19,55.27c-2.24,0-3.8-1.12-4-2.92h1.3c.11,1.08,1.05,1.85,2.65,1.85,1.4,0,2.19-.75,2.19-1.69,0-2.43-5.9-1-5.9-4.7,0-1.46,1.38-2.66,3.46-2.66s3.49,1.11,3.6,3h-1.26a2.11,2.11,0,0,0-2.38-1.92c-1.31,0-2.14.7-2.14,1.56,0,2.67,5.81,1.25,5.87,4.72C283.61,54.1,282.22,55.27,280.19,55.27Z"/><path class="a2039ebe-0890-4766-b673-57fe464efbd0" d="M290,45.15a4.11,4.11,0,0,1,3.89,2.3V45.29h1.26v9.83h-1.26V52.94A4.15,4.15,0,0,1,290,55.27c-2.68,0-4.68-2-4.68-5.08S287.32,45.15,290,45.15Zm.24,1.1a3.59,3.59,0,0,0-3.66,3.94,3.67,3.67,0,1,0,7.31,0A3.66,3.66,0,0,0,290.26,46.25Z"/><path class="a2039ebe-0890-4766-b673-57fe464efbd0" d="M299.26,55.12H298V45.29h1.26V47a3.39,3.39,0,0,1,3.37-1.93v1.32h-.34c-1.64,0-3,.73-3,3.2Z"/><path class="a2039ebe-0890-4766-b673-57fe464efbd0" d="M37.92,71.8h1.26V85.12H37.92Z"/><path class="a2039ebe-0890-4766-b673-57fe464efbd0" d="M46.14,75.15A4.1,4.1,0,0,1,50,77.45V75.29h1.26v9.83H50V82.94a4.14,4.14,0,0,1-3.9,2.33c-2.69,0-4.68-2-4.68-5.08S43.44,75.15,46.14,75.15Zm.24,1.1a3.59,3.59,0,0,0-3.66,3.94,3.67,3.67,0,1,0,3.66-3.94Z"/><path class="a2039ebe-0890-4766-b673-57fe464efbd0" d="M57.5,85.27c-2.23,0-3.8-1.12-4-2.92h1.3c.1,1.08,1,1.85,2.64,1.85,1.41,0,2.2-.75,2.2-1.69,0-2.43-5.91-1-5.91-4.7,0-1.46,1.39-2.66,3.46-2.66s3.49,1.11,3.6,3H59.57a2.09,2.09,0,0,0-2.37-1.92c-1.32,0-2.15.7-2.15,1.56,0,2.67,5.82,1.25,5.87,4.72C60.92,84.1,59.54,85.27,57.5,85.27Z"/><path class="a2039ebe-0890-4766-b673-57fe464efbd0" d="M82.6,79.5c0-2.17-1.14-3.29-2.89-3.29s-3,1.19-3,3.58v5.33H75.43V79.5c0-2.17-1.15-3.29-2.9-3.29s-3,1.19-3,3.58v5.33H68.23V75.29h1.26V77a3.51,3.51,0,0,1,3.26-1.87,3.62,3.62,0,0,1,3.63,2.41,3.58,3.58,0,0,1,3.55-2.41c2.18,0,3.91,1.37,3.91,4.25v5.76H82.6Z"/><path class="a2039ebe-0890-4766-b673-57fe464efbd0" d="M86.29,72.5a.92.92,0,1,1,1.84,0,.92.92,0,1,1-1.84,0Zm.29,2.79h1.26v9.83H86.58Z"/><path class="a2039ebe-0890-4766-b673-57fe464efbd0" d="M94,85.27c-2.23,0-3.8-1.12-4-2.92h1.3c.11,1.08,1,1.85,2.65,1.85,1.4,0,2.19-.75,2.19-1.69,0-2.43-5.9-1-5.9-4.7,0-1.46,1.38-2.66,3.45-2.66s3.5,1.11,3.6,3H96.08a2.09,2.09,0,0,0-2.37-1.92c-1.32,0-2.14.7-2.14,1.56,0,2.67,5.81,1.25,5.86,4.72C97.43,84.1,96.05,85.27,94,85.27Z"/><path class="a2039ebe-0890-4766-b673-57fe464efbd0" d="M114.14,79.5c0-2.17-1.14-3.29-2.88-3.29s-3.05,1.19-3.05,3.58v5.33H107V79.5c0-2.17-1.15-3.29-2.9-3.29s-3,1.19-3,3.58v5.33H99.77V75.29H101V77a3.51,3.51,0,0,1,3.26-1.87,3.64,3.64,0,0,1,3.64,2.41,3.58,3.58,0,0,1,3.54-2.41c2.18,0,3.91,1.37,3.91,4.25v5.76h-1.24Z"/><path class="a2039ebe-0890-4766-b673-57fe464efbd0" d="M122.27,75.15a4.11,4.11,0,0,1,3.89,2.3V75.29h1.25v9.83h-1.25V82.94a4.17,4.17,0,0,1-3.91,2.33c-2.68,0-4.68-2-4.68-5.08S119.57,75.15,122.27,75.15Zm.23,1.1a3.59,3.59,0,0,0-3.66,3.94,3.67,3.67,0,1,0,3.66-3.94Z"/><path class="a2039ebe-0890-4766-b673-57fe464efbd0" d="M133.62,85.27c-2.23,0-3.8-1.12-4-2.92H131c.11,1.08,1,1.85,2.65,1.85,1.4,0,2.19-.75,2.19-1.69,0-2.43-5.9-1-5.9-4.7,0-1.46,1.38-2.66,3.45-2.66s3.5,1.11,3.6,3h-1.26a2.09,2.09,0,0,0-2.37-1.92c-1.32,0-2.15.7-2.15,1.56,0,2.67,5.82,1.25,5.87,4.72C137,84.1,135.66,85.27,133.62,85.27Z"/><path class="a2039ebe-0890-4766-b673-57fe464efbd0" d="M144.35,71.8h1.26V77A3.7,3.7,0,0,1,149,75.11c2.18,0,3.93,1.37,3.93,4.25v5.76h-1.25V79.5c0-2.17-1.18-3.29-3-3.29s-3.11,1.15-3.11,3.55v5.36h-1.26Z"/><path class="a2039ebe-0890-4766-b673-57fe464efbd0" d="M159.94,85.27a4.69,4.69,0,0,1-4.82-5.06c0-3.14,2-5.06,4.82-5.06a4.42,4.42,0,0,1,4.65,4.55,7.71,7.71,0,0,1,0,1h-8.16a3.44,3.44,0,0,0,3.55,3.51A3,3,0,0,0,163.11,82h1.33A4.32,4.32,0,0,1,159.94,85.27Zm-3.55-5.6h6.92a3.21,3.21,0,0,0-3.42-3.44A3.4,3.4,0,0,0,156.39,79.67Z"/><path class="a2039ebe-0890-4766-b673-57fe464efbd0" d="M168.16,85.12H166.9V75.29h1.26V77a3.37,3.37,0,0,1,3.36-1.93v1.32h-.34c-1.64,0-3,.73-3,3.2Z"/><path class="a2039ebe-0890-4766-b673-57fe464efbd0" d="M174.54,85.12h-1.27V75.29h1.27V77a3.37,3.37,0,0,1,3.36-1.93v1.32h-.34c-1.64,0-3,.73-3,3.2Z"/><path class="a2039ebe-0890-4766-b673-57fe464efbd0" d="M183.49,75.15a4.11,4.11,0,0,1,3.89,2.3V75.29h1.26v9.83h-1.26V82.94a4.17,4.17,0,0,1-3.91,2.33c-2.68,0-4.68-2-4.68-5.08S180.79,75.15,183.49,75.15Zm.23,1.1c-2.07,0-3.65,1.44-3.65,3.94s1.58,4,3.65,4a4,4,0,0,0,0-7.92Z"/><path class="a2039ebe-0890-4766-b673-57fe464efbd0" d="M205.83,79.5c0-2.17-1.13-3.29-2.88-3.29s-3,1.19-3,3.58v5.33h-1.24V79.5c0-2.17-1.16-3.29-2.9-3.29s-3,1.19-3,3.58v5.33h-1.27V75.29h1.27V77A3.51,3.51,0,0,1,196,75.11a3.63,3.63,0,0,1,3.64,2.41,3.58,3.58,0,0,1,3.55-2.41c2.18,0,3.91,1.37,3.91,4.25v5.76h-1.25Z"/><path class="a2039ebe-0890-4766-b673-57fe464efbd0" d="M209.52,72.5a.92.92,0,0,1,1.84,0,.92.92,0,1,1-1.84,0Zm.29,2.79h1.26v9.83h-1.26Z"/><path class="a2039ebe-0890-4766-b673-57fe464efbd0" d="M218.11,85.27a4.69,4.69,0,0,1-4.82-5.06c0-3.14,2-5.06,4.82-5.06a4.42,4.42,0,0,1,4.65,4.55,7.71,7.71,0,0,1,0,1h-8.16a3.43,3.43,0,0,0,3.55,3.51A3,3,0,0,0,221.28,82h1.33A4.32,4.32,0,0,1,218.11,85.27Zm-3.55-5.6h6.92a3.22,3.22,0,0,0-3.42-3.44A3.4,3.4,0,0,0,214.56,79.67Z"/><path class="a2039ebe-0890-4766-b673-57fe464efbd0" d="M232.43,79.5c0-2.17-1.19-3.29-3-3.29s-3.11,1.15-3.11,3.55v5.36h-1.26V75.29h1.26V77a3.58,3.58,0,0,1,3.34-1.86c2.24,0,4,1.37,4,4.25v5.76h-1.24Z"/><path class="a2039ebe-0890-4766-b673-57fe464efbd0" d="M236.55,76.35h-1.37V75.29h1.37V72.82h1.28v2.47h2.7v1.06h-2.7v6.11c0,1.2.41,1.58,1.54,1.58h1.16v1.08h-1.35c-1.71,0-2.63-.7-2.63-2.66Z"/><path class="a2039ebe-0890-4766-b673-57fe464efbd0" d="M246.19,75.15a4.1,4.1,0,0,1,3.89,2.3V75.29h1.26v9.83h-1.26V82.94a4.14,4.14,0,0,1-3.9,2.33c-2.69,0-4.68-2-4.68-5.08S243.49,75.15,246.19,75.15Zm.24,1.1a3.59,3.59,0,0,0-3.66,3.94,3.67,3.67,0,1,0,3.66-3.94Z"/><path class="a2039ebe-0890-4766-b673-57fe464efbd0" d="M257.55,85.27c-2.23,0-3.8-1.12-4-2.92h1.3c.11,1.08,1,1.85,2.64,1.85,1.41,0,2.2-.75,2.2-1.69,0-2.43-5.9-1-5.9-4.7,0-1.46,1.38-2.66,3.45-2.66s3.5,1.11,3.6,3h-1.26a2.09,2.09,0,0,0-2.37-1.92c-1.32,0-2.15.7-2.15,1.56,0,2.67,5.82,1.25,5.87,4.72C261,84.1,259.59,85.27,257.55,85.27Z"/><path class="a2039ebe-0890-4766-b673-57fe464efbd0" d="M42.17,115.27a4.69,4.69,0,0,1-4.83-5.06c0-3.14,2-5.06,4.83-5.06a4.41,4.41,0,0,1,4.64,4.55c0,.4,0,.65,0,1H38.62a3.43,3.43,0,0,0,3.55,3.51A3,3,0,0,0,45.34,112h1.33A4.33,4.33,0,0,1,42.17,115.27Zm-3.55-5.6h6.92a3.22,3.22,0,0,0-3.43-3.44A3.4,3.4,0,0,0,38.62,109.67Z"/><path class="a2039ebe-0890-4766-b673-57fe464efbd0" d="M52.42,115.27c-2.24,0-3.8-1.12-4-2.92h1.29c.11,1.08,1,1.85,2.65,1.85,1.4,0,2.2-.75,2.2-1.69,0-2.43-5.91-1-5.91-4.7,0-1.46,1.39-2.66,3.46-2.66s3.49,1.11,3.6,3H54.49a2.1,2.1,0,0,0-2.38-1.92c-1.31,0-2.14.7-2.14,1.56,0,2.67,5.81,1.25,5.87,4.72C55.84,114.1,54.45,115.27,52.42,115.27Z"/><path class="a2039ebe-0890-4766-b673-57fe464efbd0" d="M58.4,106.35H57v-1.06H58.4v-2.47h1.28v2.47h2.7v1.06h-2.7v6.11c0,1.2.41,1.58,1.55,1.58h1.15v1.08H61c-1.71,0-2.63-.7-2.63-2.66Z"/><path class="a2039ebe-0890-4766-b673-57fe464efbd0" d="M68,105.15a4.09,4.09,0,0,1,3.89,2.3v-2.16h1.26v9.83H71.93v-2.18a4.14,4.14,0,0,1-3.9,2.33c-2.69,0-4.68-2-4.68-5.08S65.34,105.15,68,105.15Zm.24,1.1a3.59,3.59,0,0,0-3.66,3.94,3.67,3.67,0,1,0,3.66-3.94Z"/><path class="a2039ebe-0890-4766-b673-57fe464efbd0" d="M80.19,105.15a4.26,4.26,0,0,1,3.87,2.27V101.8h1.26v13.32H84.06v-2.19a4.1,4.1,0,0,1-3.89,2.34c-2.7,0-4.7-2-4.7-5.08S77.47,105.15,80.19,105.15Zm.22,1.1a3.59,3.59,0,0,0-3.66,3.94,3.67,3.67,0,1,0,3.66-3.94Z"/><path class="a2039ebe-0890-4766-b673-57fe464efbd0" d="M90.58,101.26v1.13l-3.69,2.14v-1Zm-2.29,4h1.26v9.83H88.29Z"/><path class="a2039ebe-0890-4766-b673-57fe464efbd0" d="M95.72,115.27c-2.23,0-3.8-1.12-4-2.92h1.3c.1,1.08,1,1.85,2.64,1.85,1.41,0,2.2-.75,2.2-1.69,0-2.43-5.91-1-5.91-4.7,0-1.46,1.39-2.66,3.46-2.66s3.49,1.11,3.6,3H97.79a2.1,2.1,0,0,0-2.38-1.92c-1.31,0-2.14.7-2.14,1.56,0,2.67,5.82,1.25,5.87,4.72C99.14,114.1,97.76,115.27,95.72,115.27Z"/><path class="a2039ebe-0890-4766-b673-57fe464efbd0" d="M101.7,106.35h-1.37v-1.06h1.37v-2.47H103v2.47h2.7v1.06H103v6.11c0,1.2.42,1.58,1.55,1.58h1.15v1.08h-1.35c-1.71,0-2.63-.7-2.63-2.66Z"/><path class="a2039ebe-0890-4766-b673-57fe464efbd0" d="M107.24,102.5a.92.92,0,1,1,1.83,0,.92.92,0,1,1-1.83,0Zm.28,2.79h1.26v9.83h-1.26Z"/><path class="a2039ebe-0890-4766-b673-57fe464efbd0" d="M115.77,105.15a4.24,4.24,0,0,1,4.52,3.35h-1.35a3,3,0,0,0-3.17-2.27c-1.93,0-3.49,1.31-3.49,4s1.56,4,3.49,4a3,3,0,0,0,3.17-2.28h1.35a4.31,4.31,0,0,1-4.52,3.35c-2.77,0-4.77-2-4.77-5.06S113,105.15,115.77,105.15Z"/><path class="a2039ebe-0890-4766-b673-57fe464efbd0" d="M126.58,105.15a4.09,4.09,0,0,1,3.89,2.3v-2.16h1.26v9.83h-1.26v-2.18a4.14,4.14,0,0,1-3.9,2.33c-2.69,0-4.68-2-4.68-5.08S123.88,105.15,126.58,105.15Zm.24,1.1a3.59,3.59,0,0,0-3.66,3.94,3.67,3.67,0,1,0,3.66-3.94Z"/><path class="a2039ebe-0890-4766-b673-57fe464efbd0" d="M137.94,115.27c-2.23,0-3.8-1.12-4-2.92h1.3c.11,1.08,1,1.85,2.64,1.85,1.41,0,2.2-.75,2.2-1.69,0-2.43-5.9-1-5.9-4.7,0-1.46,1.38-2.66,3.45-2.66s3.5,1.11,3.6,3H140a2.09,2.09,0,0,0-2.37-1.92c-1.32,0-2.15.7-2.15,1.56,0,2.67,5.82,1.25,5.87,4.72C141.36,114.1,140,115.27,137.94,115.27Z"/><path class="a2039ebe-0890-4766-b673-57fe464efbd0" d="M153.82,105.15c2.68,0,4.68,2,4.68,5s-2,5.08-4.68,5.08a4.21,4.21,0,0,1-3.91-2.31v6.81h-1.24V105.29h1.24v2.16A4.18,4.18,0,0,1,153.82,105.15Zm-.25,1.1a4,4,0,0,0,0,7.92c2.07,0,3.65-1.5,3.65-4S155.64,106.25,153.57,106.25Z"/><path class="a2039ebe-0890-4766-b673-57fe464efbd0" d="M164.94,105.15a4.11,4.11,0,0,1,3.89,2.3v-2.16h1.26v9.83h-1.26v-2.18a4.16,4.16,0,0,1-3.91,2.33c-2.68,0-4.68-2-4.68-5.08S162.24,105.15,164.94,105.15Zm.24,1.1a3.59,3.59,0,0,0-3.66,3.94,3.67,3.67,0,1,0,3.66-3.94Z"/><path class="a2039ebe-0890-4766-b673-57fe464efbd0" d="M174.18,115.12h-1.26v-9.83h1.26V107a3.38,3.38,0,0,1,3.37-1.93v1.32h-.35c-1.63,0-3,.73-3,3.2Z"/><path class="a2039ebe-0890-4766-b673-57fe464efbd0" d="M183.13,105.15a4.11,4.11,0,0,1,3.89,2.3v-2.16h1.26v9.83H187v-2.18a4.15,4.15,0,0,1-3.91,2.33c-2.68,0-4.68-2-4.68-5.08S180.43,105.15,183.13,105.15Zm.24,1.1a3.59,3.59,0,0,0-3.66,3.94,3.67,3.67,0,1,0,3.66-3.94Z"/><path class="a2039ebe-0890-4766-b673-57fe464efbd0" d="M200.34,115.27a4.69,4.69,0,0,1-4.83-5.06c0-3.14,2-5.06,4.83-5.06A4.41,4.41,0,0,1,205,109.7c0,.4,0,.65,0,1h-8.16a3.43,3.43,0,0,0,3.55,3.51,3,3,0,0,0,3.17-2.19h1.33A4.32,4.32,0,0,1,200.34,115.27Zm-3.55-5.6h6.92a3.22,3.22,0,0,0-3.42-3.44A3.4,3.4,0,0,0,196.79,109.67Z"/><path class="a2039ebe-0890-4766-b673-57fe464efbd0" d="M210.59,115.27c-2.23,0-3.8-1.12-4-2.92h1.29c.11,1.08,1.05,1.85,2.65,1.85,1.4,0,2.2-.75,2.2-1.69,0-2.43-5.91-1-5.91-4.7,0-1.46,1.39-2.66,3.46-2.66s3.49,1.11,3.6,3h-1.26a2.1,2.1,0,0,0-2.38-1.92c-1.31,0-2.14.7-2.14,1.56,0,2.67,5.82,1.25,5.87,4.72C214,114.1,212.62,115.27,210.59,115.27Z"/><path class="a2039ebe-0890-4766-b673-57fe464efbd0" d="M216.57,106.35H215.2v-1.06h1.37v-2.47h1.28v2.47h2.7v1.06h-2.7v6.11c0,1.2.41,1.58,1.55,1.58h1.15v1.08H219.2c-1.71,0-2.63-.7-2.63-2.66Z"/><path class="a2039ebe-0890-4766-b673-57fe464efbd0" d="M222.1,102.5a.92.92,0,1,1,1.84,0,.92.92,0,1,1-1.84,0Zm.29,2.79h1.26v9.83h-1.26Z"/><path class="a2039ebe-0890-4766-b673-57fe464efbd0" d="M240.83,109.5c0-2.17-1.14-3.29-2.88-3.29s-3,1.19-3,3.58v5.33h-1.24V109.5c0-2.17-1.15-3.29-2.9-3.29s-3,1.19-3,3.58v5.33h-1.26v-9.83h1.26V107a3.51,3.51,0,0,1,3.26-1.87,3.64,3.64,0,0,1,3.64,2.41,3.58,3.58,0,0,1,3.54-2.41c2.18,0,3.91,1.37,3.91,4.25v5.76h-1.24Z"/><path class="a2039ebe-0890-4766-b673-57fe464efbd0" d="M249,105.15a4.1,4.1,0,0,1,3.89,2.3v-2.16h1.26v9.83h-1.26v-2.18a4.14,4.14,0,0,1-3.9,2.33c-2.69,0-4.69-2-4.69-5.08S246.25,105.15,249,105.15Zm.24,1.1a3.59,3.59,0,0,0-3.66,3.94,3.67,3.67,0,1,0,3.66-3.94Z"/><path class="a2039ebe-0890-4766-b673-57fe464efbd0" d="M258.19,115.12h-1.26v-9.83h1.26V107a3.39,3.39,0,0,1,3.37-1.93v1.32h-.34c-1.64,0-3,.73-3,3.2Z"/><path class="a2039ebe-0890-4766-b673-57fe464efbd0" d="M272.63,115.27a4.69,4.69,0,0,1-4.83-5.06c0-3.14,2-5.06,4.83-5.06a4.41,4.41,0,0,1,4.64,4.55c0,.4,0,.65,0,1h-8.16a3.43,3.43,0,0,0,3.55,3.51A3,3,0,0,0,275.8,112h1.33A4.32,4.32,0,0,1,272.63,115.27Zm-3.55-5.6H276a3.22,3.22,0,0,0-3.42-3.44A3.4,3.4,0,0,0,269.08,109.67Z"/><path class="a2039ebe-0890-4766-b673-57fe464efbd0" d="M282.88,115.27c-2.23,0-3.8-1.12-4-2.92h1.29c.11,1.08,1.05,1.85,2.65,1.85,1.4,0,2.2-.75,2.2-1.69,0-2.43-5.91-1-5.91-4.7,0-1.46,1.39-2.66,3.46-2.66s3.49,1.11,3.6,3H285a2.1,2.1,0,0,0-2.38-1.92c-1.31,0-2.14.7-2.14,1.56,0,2.67,5.82,1.25,5.87,4.72C286.3,114.1,284.91,115.27,282.88,115.27Z"/><path class="a2039ebe-0890-4766-b673-57fe464efbd0" d="M288.86,106.35h-1.37v-1.06h1.37v-2.47h1.28v2.47h2.7v1.06h-2.7v6.11c0,1.2.41,1.58,1.55,1.58h1.15v1.08h-1.35c-1.71,0-2.63-.7-2.63-2.66Z"/><path class="a2039ebe-0890-4766-b673-57fe464efbd0" d="M298.67,115.27a5.06,5.06,0,1,1,4.95-5.06A4.8,4.8,0,0,1,298.67,115.27Zm0-1.1a3.61,3.61,0,0,0,3.65-4c0-2.7-1.76-4-3.63-4s-3.62,1.26-3.62,4S296.79,114.17,298.67,114.17Z"/><path class="a2039ebe-0890-4766-b673-57fe464efbd0" d="M309.17,115.27c-2.23,0-3.8-1.12-4-2.92h1.3c.11,1.08,1,1.85,2.65,1.85,1.4,0,2.19-.75,2.19-1.69,0-2.43-5.9-1-5.9-4.7,0-1.46,1.38-2.66,3.45-2.66s3.5,1.11,3.6,3h-1.25a2.11,2.11,0,0,0-2.38-1.92c-1.32,0-2.14.7-2.14,1.56,0,2.67,5.81,1.25,5.86,4.72C312.59,114.1,311.21,115.27,309.17,115.27Z"/><path class="a2039ebe-0890-4766-b673-57fe464efbd0" d="M52.29,139.5c0-2.17-1.14-3.29-2.88-3.29s-3,1.19-3,3.58v5.33H45.12V139.5c0-2.17-1.15-3.29-2.9-3.29s-3,1.19-3,3.58v5.33H37.92v-9.83h1.26V137a3.51,3.51,0,0,1,3.26-1.87,3.64,3.64,0,0,1,3.64,2.41,3.58,3.58,0,0,1,3.54-2.41c2.18,0,3.91,1.37,3.91,4.25v5.76H52.29Z"/><path class="a2039ebe-0890-4766-b673-57fe464efbd0" d="M60.59,145.27a5.06,5.06,0,1,1,5-5.06A4.8,4.8,0,0,1,60.59,145.27Zm0-1.1a3.61,3.61,0,0,0,3.66-4c0-2.7-1.76-4-3.64-4s-3.62,1.26-3.62,4S58.72,144.17,60.59,144.17Z"/><path class="a2039ebe-0890-4766-b673-57fe464efbd0" d="M72,135.15a4.27,4.27,0,0,1,3.87,2.27V131.8h1.26v13.32H75.87v-2.19A4.12,4.12,0,0,1,72,145.27c-2.7,0-4.7-2-4.7-5.08S69.28,135.15,72,135.15Zm.21,1.1c-2.07,0-3.65,1.44-3.65,3.94s1.58,4,3.65,4a4,4,0,0,0,0-7.92Z"/><path class="a2039ebe-0890-4766-b673-57fe464efbd0" d="M84.23,145.27a4.69,4.69,0,0,1-4.82-5.06c0-3.14,2-5.06,4.82-5.06a4.42,4.42,0,0,1,4.65,4.55,7.71,7.71,0,0,1,0,1H80.69a3.43,3.43,0,0,0,3.54,3.51A3,3,0,0,0,87.4,142h1.33A4.32,4.32,0,0,1,84.23,145.27Zm-3.54-5.6H87.6a3.21,3.21,0,0,0-3.42-3.44A3.39,3.39,0,0,0,80.69,139.67Z"/><path class="a2039ebe-0890-4766-b673-57fe464efbd0" d="M91.18,131.8h1.26v13.32H91.18Z"/><path class="a2039ebe-0890-4766-b673-57fe464efbd0" d="M99.59,145.27a5.06,5.06,0,1,1,5-5.06A4.8,4.8,0,0,1,99.59,145.27Zm0-1.1a3.61,3.61,0,0,0,3.65-4c0-2.7-1.76-4-3.64-4s-3.62,1.26-3.62,4S97.71,144.17,99.59,144.17Z"/><path class="a2039ebe-0890-4766-b673-57fe464efbd0" d="M110.09,145.27c-2.23,0-3.8-1.12-4-2.92h1.3c.1,1.08,1,1.85,2.64,1.85,1.41,0,2.2-.75,2.2-1.69,0-2.43-5.91-1-5.91-4.7,0-1.46,1.39-2.66,3.46-2.66s3.49,1.11,3.6,3h-1.26a2.09,2.09,0,0,0-2.37-1.92c-1.32,0-2.15.7-2.15,1.56,0,2.67,5.82,1.25,5.87,4.72C113.51,144.1,112.13,145.27,110.09,145.27Z"/><path class="a2039ebe-0890-4766-b673-57fe464efbd0" d="M115.87,143h1.4l-1.85,4.72h-.88Z"/><path class="a2039ebe-0890-4766-b673-57fe464efbd0" d="M124.17,131.8h1.26v13.32h-1.26Z"/><path class="a2039ebe-0890-4766-b673-57fe464efbd0" d="M132.39,135.15a4.11,4.11,0,0,1,3.89,2.3v-2.16h1.26v9.83h-1.26v-2.18a4.15,4.15,0,0,1-3.91,2.33c-2.68,0-4.68-2-4.68-5.08S129.69,135.15,132.39,135.15Zm.24,1.1a3.59,3.59,0,0,0-3.66,3.94,3.67,3.67,0,1,0,3.66-3.94Z"/><path class="a2039ebe-0890-4766-b673-57fe464efbd0" d="M149.47,135.15a4.13,4.13,0,0,1,3.89,2.28v-2.14h1.26v10.08A4.35,4.35,0,0,1,150,150c-2.54,0-4.3-1.3-4.7-3.35h1.24a3.38,3.38,0,0,0,3.46,2.25,3.21,3.21,0,0,0,3.33-3.48v-2.43a4.14,4.14,0,0,1-3.89,2.33c-2.7,0-4.7-2-4.7-5.08S146.77,135.15,149.47,135.15Zm.24,1.1a3.59,3.59,0,0,0-3.66,3.94,3.67,3.67,0,1,0,3.66-3.94Z"/><path class="a2039ebe-0890-4766-b673-57fe464efbd0" d="M158.71,145.12h-1.26v-9.83h1.26V137a3.38,3.38,0,0,1,3.37-1.93v1.32h-.34c-1.64,0-3,.73-3,3.2Z"/><path class="a2039ebe-0890-4766-b673-57fe464efbd0" d="M167.66,135.15a4.11,4.11,0,0,1,3.89,2.3v-2.16h1.26v9.83h-1.26v-2.18a4.15,4.15,0,0,1-3.91,2.33c-2.68,0-4.68-2-4.68-5.08S165,135.15,167.66,135.15Zm.24,1.1a3.59,3.59,0,0,0-3.66,3.94,3.67,3.67,0,1,0,3.66-3.94Z"/><path class="a2039ebe-0890-4766-b673-57fe464efbd0" d="M183,139.5c0-2.17-1.18-3.29-3-3.29s-3.11,1.15-3.11,3.55v5.36h-1.26v-9.83h1.26V137a3.59,3.59,0,0,1,3.35-1.86c2.23,0,4,1.37,4,4.25v5.76H183Z"/><path class="a2039ebe-0890-4766-b673-57fe464efbd0" d="M196.11,135.15a4.27,4.27,0,0,1,3.87,2.27V131.8h1.26v13.32H200v-2.19a4.12,4.12,0,0,1-3.89,2.34c-2.7,0-4.7-2-4.7-5.08S193.39,135.15,196.11,135.15Zm.21,1.1c-2.07,0-3.65,1.44-3.65,3.94s1.58,4,3.65,4a4,4,0,0,0,0-7.92Z"/><path class="a2039ebe-0890-4766-b673-57fe464efbd0" d="M203.79,132.5a.92.92,0,1,1,1.84,0,.92.92,0,1,1-1.84,0Zm.29,2.79h1.26v9.83h-1.26Z"/><path class="a2039ebe-0890-4766-b673-57fe464efbd0" d="M208.42,136.35h-1.37v-1.06h1.37v-.68c0-2.11,1-3.12,3.47-3.12v1.08c-1.67,0-2.21.61-2.21,2v.68H212v1.06h-2.28v8.77h-1.26Z"/><path class="a2039ebe-0890-4766-b673-57fe464efbd0" d="M217.64,145.27a4.69,4.69,0,0,1-4.83-5.06c0-3.14,2-5.06,4.83-5.06a4.41,4.41,0,0,1,4.64,4.55c0,.4,0,.65,0,1h-8.16a3.43,3.43,0,0,0,3.55,3.51,3,3,0,0,0,3.17-2.19h1.33A4.33,4.33,0,0,1,217.64,145.27Zm-3.55-5.6H221a3.21,3.21,0,0,0-3.42-3.44A3.39,3.39,0,0,0,214.09,139.67Z"/><path class="a2039ebe-0890-4766-b673-57fe464efbd0" d="M225.85,145.12h-1.26v-9.83h1.26V137a3.39,3.39,0,0,1,3.37-1.93v1.32h-.34c-1.64,0-3,.73-3,3.2Z"/><path class="a2039ebe-0890-4766-b673-57fe464efbd0" d="M234.93,145.27a4.69,4.69,0,0,1-4.83-5.06c0-3.14,2-5.06,4.83-5.06a4.42,4.42,0,0,1,4.65,4.55,7.71,7.71,0,0,1,0,1h-8.16a3.43,3.43,0,0,0,3.55,3.51A3,3,0,0,0,238.1,142h1.33A4.32,4.32,0,0,1,234.93,145.27Zm-3.55-5.6h6.92a3.22,3.22,0,0,0-3.42-3.44A3.4,3.4,0,0,0,231.38,139.67Z"/><path class="a2039ebe-0890-4766-b673-57fe464efbd0" d="M249.25,139.5c0-2.17-1.19-3.29-3-3.29s-3.12,1.15-3.12,3.55v5.36h-1.26v-9.83h1.26V137a3.6,3.6,0,0,1,3.35-1.86c2.24,0,4,1.37,4,4.25v5.76h-1.24Z"/><path class="a2039ebe-0890-4766-b673-57fe464efbd0" d="M257.42,135.15a4.24,4.24,0,0,1,4.52,3.35h-1.35a3,3,0,0,0-3.17-2.27c-1.92,0-3.49,1.31-3.49,4s1.57,4,3.49,4a3,3,0,0,0,3.17-2.28h1.35a4.31,4.31,0,0,1-4.52,3.35c-2.77,0-4.77-2-4.77-5.06S254.65,135.15,257.42,135.15Z"/><path class="a2039ebe-0890-4766-b673-57fe464efbd0" d="M263.86,132.5a.92.92,0,1,1,1.84,0,.92.92,0,1,1-1.84,0Zm.29,2.79h1.26v9.83h-1.26Z"/><path class="a2039ebe-0890-4766-b673-57fe464efbd0" d="M272.32,135.15a4.11,4.11,0,0,1,3.89,2.3v-2.16h1.26v9.83h-1.26v-2.18a4.16,4.16,0,0,1-3.91,2.33c-2.68,0-4.68-2-4.68-5.08S269.62,135.15,272.32,135.15Zm.24,1.1a3.59,3.59,0,0,0-3.66,3.94,3.67,3.67,0,1,0,3.66-3.94Z"/><path class="a2039ebe-0890-4766-b673-57fe464efbd0" d="M39.18,175.12H37.92v-9.83h1.26V167a3.38,3.38,0,0,1,3.37-1.93v1.32H42.2c-1.63,0-3,.73-3,3.2Z"/><path class="a2039ebe-0890-4766-b673-57fe464efbd0" d="M48.13,165.15a4.11,4.11,0,0,1,3.89,2.3v-2.16h1.26v9.83H52v-2.18a4.16,4.16,0,0,1-3.91,2.33c-2.68,0-4.68-2-4.68-5.08S45.43,165.15,48.13,165.15Zm.24,1.1a3.59,3.59,0,0,0-3.66,3.94c0,2.48,1.58,4,3.66,4a4,4,0,0,0,0-7.92Z"/><path class="a2039ebe-0890-4766-b673-57fe464efbd0" d="M60.28,165.15a4.27,4.27,0,0,1,3.87,2.27V161.8h1.26v13.32H64.15v-2.19a4.12,4.12,0,0,1-3.89,2.34c-2.7,0-4.7-2-4.7-5.08S57.56,165.15,60.28,165.15Zm.21,1.1c-2.07,0-3.65,1.44-3.65,3.94s1.58,4,3.65,4a4,4,0,0,0,0-7.92Z"/><path class="a2039ebe-0890-4766-b673-57fe464efbd0" d="M68,162.5a.92.92,0,1,1,1.84,0,.92.92,0,1,1-1.84,0Zm.29,2.79h1.26v9.83H68.25Z"/><path class="a2039ebe-0890-4766-b673-57fe464efbd0" d="M76.5,165.15A4.24,4.24,0,0,1,81,168.5H79.66a3,3,0,0,0-3.16-2.27c-1.93,0-3.5,1.31-3.5,4s1.57,4,3.5,4a3,3,0,0,0,3.16-2.28H81a4.32,4.32,0,0,1-4.52,3.35c-2.78,0-4.78-2-4.78-5.06S73.72,165.15,76.5,165.15Z"/><path class="a2039ebe-0890-4766-b673-57fe464efbd0" d="M87.31,165.15a4.11,4.11,0,0,1,3.89,2.3v-2.16h1.26v9.83H91.2v-2.18a4.15,4.15,0,0,1-3.91,2.33c-2.68,0-4.68-2-4.68-5.08S84.61,165.15,87.31,165.15Zm.24,1.1a3.59,3.59,0,0,0-3.66,3.94,3.67,3.67,0,1,0,3.66-3.94Z"/><path class="a2039ebe-0890-4766-b673-57fe464efbd0" d="M104.52,175.27a4.69,4.69,0,0,1-4.83-5.06c0-3.14,2-5.06,4.83-5.06a4.41,4.41,0,0,1,4.64,4.55c0,.4,0,.65,0,1H101a3.43,3.43,0,0,0,3.55,3.51,3,3,0,0,0,3.17-2.19H109A4.32,4.32,0,0,1,104.52,175.27Zm-3.55-5.6h6.92a3.22,3.22,0,0,0-3.42-3.44A3.4,3.4,0,0,0,101,169.67Z"/><path class="a2039ebe-0890-4766-b673-57fe464efbd0" d="M118.84,169.5c0-2.17-1.19-3.29-3-3.29s-3.12,1.15-3.12,3.55v5.36h-1.26v-9.83h1.26V167a3.59,3.59,0,0,1,3.35-1.86c2.24,0,4,1.37,4,4.25v5.76h-1.24Z"/><path class="a2039ebe-0890-4766-b673-57fe464efbd0" d="M131.94,165.15a4.1,4.1,0,0,1,3.87,2.3v-2.16h1.26v14.48h-1.26V173a4.15,4.15,0,0,1-3.91,2.31c-2.68,0-4.68-2-4.68-5.08S129.22,165.15,131.94,165.15Zm.22,1.1a3.59,3.59,0,0,0-3.66,3.94,3.67,3.67,0,1,0,3.66-3.94Z"/><path class="a2039ebe-0890-4766-b673-57fe464efbd0" d="M148.43,175.12h-1.26v-1.73a3.54,3.54,0,0,1-3.35,1.89c-2.23,0-4-1.36-4-4.25v-5.74h1.24v5.6c0,2.18,1.19,3.3,3,3.3s3.12-1.16,3.12-3.55v-5.35h1.26Z"/><path class="a2039ebe-0890-4766-b673-57fe464efbd0" d="M155.52,175.27a4.69,4.69,0,0,1-4.82-5.06c0-3.14,2-5.06,4.82-5.06a4.42,4.42,0,0,1,4.65,4.55,7.71,7.71,0,0,1,0,1H152a3.43,3.43,0,0,0,3.54,3.51,3,3,0,0,0,3.17-2.19H160A4.32,4.32,0,0,1,155.52,175.27Zm-3.54-5.6h6.91a3.21,3.21,0,0,0-3.42-3.44A3.39,3.39,0,0,0,152,169.67Z"/><path class="a2039ebe-0890-4766-b673-57fe464efbd0" d="M174.77,169.5c0-2.17-1.19-3.29-3-3.29s-3.12,1.15-3.12,3.55v5.36H167.4v-9.83h1.26V167a3.59,3.59,0,0,1,3.35-1.86c2.23,0,4,1.37,4,4.25v5.76h-1.24Z"/><path class="a2039ebe-0890-4766-b673-57fe464efbd0" d="M183.05,175.27a5.06,5.06,0,1,1,4.95-5.06A4.8,4.8,0,0,1,183.05,175.27Zm0-1.1a3.61,3.61,0,0,0,3.65-4c0-2.7-1.76-4-3.63-4s-3.62,1.26-3.62,4S181.18,174.17,183.05,174.17Z"/><path class="a2039ebe-0890-4766-b673-57fe464efbd0" d="M199.48,175.27a4.69,4.69,0,0,1-4.82-5.06c0-3.14,2-5.06,4.82-5.06a4.42,4.42,0,0,1,4.65,4.55,7.71,7.71,0,0,1,0,1h-8.16a3.44,3.44,0,0,0,3.55,3.51,3,3,0,0,0,3.17-2.19H204A4.32,4.32,0,0,1,199.48,175.27Zm-3.55-5.6h6.92a3.21,3.21,0,0,0-3.42-3.44A3.4,3.4,0,0,0,195.93,169.67Z"/><path class="a2039ebe-0890-4766-b673-57fe464efbd0" d="M209.73,175.27c-2.23,0-3.8-1.12-4-2.92h1.3c.1,1.08,1,1.85,2.64,1.85,1.41,0,2.2-.75,2.2-1.69,0-2.43-5.91-1-5.91-4.7,0-1.46,1.39-2.66,3.46-2.66s3.49,1.11,3.6,3H211.8a2.1,2.1,0,0,0-2.38-1.92c-1.31,0-2.14.7-2.14,1.56,0,2.67,5.82,1.25,5.87,4.72C213.15,174.1,211.77,175.27,209.73,175.27Z"/><path class="a2039ebe-0890-4766-b673-57fe464efbd0" d="M215.71,166.35h-1.37v-1.06h1.37v-2.47H217v2.47h2.7v1.06H217v6.11c0,1.2.42,1.58,1.55,1.58h1.15v1.08h-1.35c-1.71,0-2.63-.7-2.63-2.66Z"/><path class="a2039ebe-0890-4766-b673-57fe464efbd0" d="M225.36,165.15a4.11,4.11,0,0,1,3.89,2.3v-2.16h1.26v9.83h-1.26v-2.18a4.17,4.17,0,0,1-3.91,2.33c-2.68,0-4.68-2-4.68-5.08S222.66,165.15,225.36,165.15Zm.23,1.1c-2.07,0-3.65,1.44-3.65,3.94s1.58,4,3.65,4a4,4,0,0,0,0-7.92Z"/><path class="a2039ebe-0890-4766-b673-57fe464efbd0" d="M247.7,169.5c0-2.17-1.13-3.29-2.88-3.29s-3,1.19-3,3.58v5.33h-1.24V169.5c0-2.17-1.15-3.29-2.9-3.29s-3,1.19-3,3.58v5.33h-1.26v-9.83h1.26V167a3.51,3.51,0,0,1,3.26-1.87,3.62,3.62,0,0,1,3.63,2.41,3.58,3.58,0,0,1,3.55-2.41c2.18,0,3.91,1.37,3.91,4.25v5.76H247.7Z"/><path class="a2039ebe-0890-4766-b673-57fe464efbd0" d="M256,175.27a5.06,5.06,0,1,1,4.95-5.06A4.8,4.8,0,0,1,256,175.27Zm0-1.1a4,4,0,0,0,0-7.92c-1.87,0-3.62,1.26-3.62,4S254.14,174.17,256,174.17Z"/><path class="a2039ebe-0890-4766-b673-57fe464efbd0" d="M266.52,175.27c-2.24,0-3.8-1.12-4-2.92h1.29c.11,1.08,1,1.85,2.65,1.85,1.4,0,2.2-.75,2.2-1.69,0-2.43-5.91-1-5.91-4.7,0-1.46,1.39-2.66,3.46-2.66s3.49,1.11,3.6,3h-1.26a2.1,2.1,0,0,0-2.38-1.92c-1.31,0-2.14.7-2.14,1.56,0,2.67,5.81,1.25,5.87,4.72C269.94,174.1,268.55,175.27,266.52,175.27Z"/><path class="a2039ebe-0890-4766-b673-57fe464efbd0" d="M41.3,205.27c-2.23,0-3.8-1.12-4-2.92h1.3c.11,1.08,1,1.85,2.65,1.85,1.4,0,2.19-.75,2.19-1.69,0-2.43-5.9-1-5.9-4.7,0-1.46,1.38-2.66,3.45-2.66s3.5,1.11,3.6,3H43.37A2.09,2.09,0,0,0,41,196.23c-1.32,0-2.14.7-2.14,1.56,0,2.67,5.81,1.25,5.86,4.72C44.72,204.1,43.34,205.27,41.3,205.27Z"/><path class="a2039ebe-0890-4766-b673-57fe464efbd0" d="M51.27,205.27a4.69,4.69,0,0,1-4.83-5.06c0-3.14,2-5.06,4.83-5.06a4.41,4.41,0,0,1,4.64,4.55c0,.4,0,.65,0,1H47.72a3.43,3.43,0,0,0,3.55,3.51A3,3,0,0,0,54.44,202h1.33A4.33,4.33,0,0,1,51.27,205.27Zm-3.55-5.6h6.91a3.21,3.21,0,0,0-3.42-3.44A3.39,3.39,0,0,0,47.72,199.67Z"/><path class="a2039ebe-0890-4766-b673-57fe464efbd0" d="M62.35,195.15a4.14,4.14,0,0,1,3.89,2.28v-2.14H67.5v10.08A4.36,4.36,0,0,1,62.9,210c-2.53,0-4.3-1.3-4.69-3.35h1.24a3.35,3.35,0,0,0,3.45,2.25,3.21,3.21,0,0,0,3.34-3.48v-2.43a4.16,4.16,0,0,1-3.89,2.33c-2.7,0-4.7-2-4.7-5.08S59.65,195.15,62.35,195.15Zm.23,1.1a3.59,3.59,0,0,0-3.66,3.94,3.67,3.67,0,1,0,3.66-3.94Z"/><path class="a2039ebe-0890-4766-b673-57fe464efbd0" d="M78.85,205.12H77.59v-1.73a3.53,3.53,0,0,1-3.35,1.89c-2.23,0-4-1.36-4-4.25v-5.74h1.24v5.6c0,2.18,1.19,3.3,3,3.3s3.11-1.16,3.11-3.55v-5.35h1.26Z"/><path class="a2039ebe-0890-4766-b673-57fe464efbd0" d="M82.93,205.12H81.67v-9.83h1.26V197a3.39,3.39,0,0,1,3.37-1.93v1.32H86c-1.64,0-3,.73-3,3.2Z"/><path class="a2039ebe-0890-4766-b673-57fe464efbd0" d="M92,205.27a5.06,5.06,0,1,1,5-5.06A4.8,4.8,0,0,1,92,205.27Zm0-1.1a3.61,3.61,0,0,0,3.65-4c0-2.7-1.76-4-3.64-4s-3.61,1.26-3.61,4S90.15,204.17,92,204.17Z"/><path class="a2039ebe-0890-4766-b673-57fe464efbd0" d="M102.53,205.27c-2.23,0-3.8-1.12-4-2.92h1.3c.11,1.08,1,1.85,2.64,1.85,1.41,0,2.2-.75,2.2-1.69,0-2.43-5.9-1-5.9-4.7,0-1.46,1.38-2.66,3.45-2.66s3.5,1.11,3.6,3H104.6a2.09,2.09,0,0,0-2.37-1.92c-1.32,0-2.15.7-2.15,1.56,0,2.67,5.82,1.25,5.87,4.72C106,204.1,104.57,205.27,102.53,205.27Z"/><path class="a2039ebe-0890-4766-b673-57fe464efbd0" d="M117.4,195.15a4.27,4.27,0,0,1,3.87,2.27V191.8h1.26v13.32h-1.26v-2.19a4.1,4.1,0,0,1-3.89,2.34c-2.7,0-4.7-2-4.7-5.08S114.68,195.15,117.4,195.15Zm.22,1.1a3.59,3.59,0,0,0-3.66,3.94,3.67,3.67,0,1,0,3.66-3.94Z"/><path class="a2039ebe-0890-4766-b673-57fe464efbd0" d="M129.64,205.27a4.69,4.69,0,0,1-4.83-5.06c0-3.14,2-5.06,4.83-5.06a4.41,4.41,0,0,1,4.64,4.55c0,.4,0,.65,0,1h-8.16a3.43,3.43,0,0,0,3.55,3.51A3,3,0,0,0,132.8,202h1.34A4.33,4.33,0,0,1,129.64,205.27Zm-3.55-5.6H133a3.21,3.21,0,0,0-3.42-3.44A3.39,3.39,0,0,0,126.09,199.67Z"/><path class="a2039ebe-0890-4766-b673-57fe464efbd0" d="M136.58,191.8h1.26v13.32h-1.26Z"/><path class="a2039ebe-0890-4766-b673-57fe464efbd0" d="M149.89,205.27a4.69,4.69,0,0,1-4.83-5.06c0-3.14,2-5.06,4.83-5.06a4.41,4.41,0,0,1,4.64,4.55c0,.4,0,.65,0,1h-8.16a3.43,3.43,0,0,0,3.55,3.51,3,3,0,0,0,3.16-2.19h1.34A4.33,4.33,0,0,1,149.89,205.27Zm-3.55-5.6h6.91a3.21,3.21,0,0,0-3.42-3.44A3.39,3.39,0,0,0,146.34,199.67Z"/><path class="a2039ebe-0890-4766-b673-57fe464efbd0" d="M157,196.35h-1.37v-1.06H157v-.68c0-2.11,1-3.12,3.48-3.12v1.08c-1.68,0-2.22.61-2.22,2v.68h2.29v1.06h-2.29v8.77H157Z"/><path class="a2039ebe-0890-4766-b673-57fe464efbd0" d="M166.21,205.27a4.69,4.69,0,0,1-4.82-5.06c0-3.14,2-5.06,4.82-5.06a4.42,4.42,0,0,1,4.65,4.55,7.71,7.71,0,0,1,0,1h-8.15a3.43,3.43,0,0,0,3.54,3.51,3,3,0,0,0,3.17-2.19h1.34A4.33,4.33,0,0,1,166.21,205.27Zm-3.54-5.6h6.91a3.21,3.21,0,0,0-3.42-3.44A3.39,3.39,0,0,0,162.67,199.67Z"/><path class="a2039ebe-0890-4766-b673-57fe464efbd0" d="M177.37,195.15a4.23,4.23,0,0,1,4.51,3.35h-1.35a3,3,0,0,0-3.16-2.27c-1.93,0-3.5,1.31-3.5,4s1.57,4,3.5,4a3,3,0,0,0,3.16-2.28h1.35a4.31,4.31,0,0,1-4.51,3.35c-2.78,0-4.78-2-4.78-5.06S174.59,195.15,177.37,195.15Z"/><path class="a2039ebe-0890-4766-b673-57fe464efbd0" d="M184.24,196.35h-1.36v-1.06h1.36v-2.47h1.28v2.47h2.7v1.06h-2.7v6.11c0,1.2.42,1.58,1.55,1.58h1.15v1.08h-1.35c-1.71,0-2.63-.7-2.63-2.66Z"/><path class="a2039ebe-0890-4766-b673-57fe464efbd0" d="M194.05,205.27a5.06,5.06,0,1,1,4.95-5.06A4.8,4.8,0,0,1,194.05,205.27Zm0-1.1a4,4,0,0,0,0-7.92c-1.87,0-3.62,1.26-3.62,4S192.18,204.17,194.05,204.17Z"/><path class="a2039ebe-0890-4766-b673-57fe464efbd0" d="M210.43,195.15A4.24,4.24,0,0,1,215,198.5H213.6a3,3,0,0,0-3.17-2.27c-1.93,0-3.49,1.31-3.49,4s1.56,4,3.49,4a3,3,0,0,0,3.17-2.28H215a4.31,4.31,0,0,1-4.52,3.35c-2.77,0-4.77-2-4.77-5.06S207.66,195.15,210.43,195.15Z"/><path class="a2039ebe-0890-4766-b673-57fe464efbd0" d="M221.25,195.15a4.11,4.11,0,0,1,3.89,2.3v-2.16h1.26v9.83h-1.26v-2.18a4.17,4.17,0,0,1-3.91,2.33c-2.68,0-4.68-2-4.68-5.08S218.55,195.15,221.25,195.15Zm.23,1.1c-2.07,0-3.65,1.44-3.65,3.94s1.58,4,3.65,4a4,4,0,0,0,0-7.92Z"/><path class="a2039ebe-0890-4766-b673-57fe464efbd0" d="M237.75,205.12h-1.26v-1.73a3.53,3.53,0,0,1-3.35,1.89c-2.23,0-4-1.36-4-4.25v-5.74h1.24v5.6c0,2.18,1.19,3.3,3,3.3s3.11-1.16,3.11-3.55v-5.35h1.26Z"/><path class="a2039ebe-0890-4766-b673-57fe464efbd0" d="M244,205.27c-2.23,0-3.8-1.12-4-2.92h1.3c.1,1.08,1,1.85,2.64,1.85,1.41,0,2.2-.75,2.2-1.69,0-2.43-5.91-1-5.91-4.7,0-1.46,1.39-2.66,3.46-2.66s3.49,1.11,3.6,3H246a2.09,2.09,0,0,0-2.37-1.92c-1.32,0-2.15.7-2.15,1.56,0,2.67,5.82,1.25,5.87,4.72C247.37,204.1,246,205.27,244,205.27Z"/><path class="a2039ebe-0890-4766-b673-57fe464efbd0" d="M253.79,195.15a4.11,4.11,0,0,1,3.89,2.3v-2.16h1.26v9.83h-1.26v-2.18a4.17,4.17,0,0,1-3.91,2.33c-2.68,0-4.68-2-4.68-5.08S251.09,195.15,253.79,195.15Zm.23,1.1c-2.07,0-3.65,1.44-3.65,3.94s1.58,4,3.65,4a4,4,0,0,0,0-7.92Z"/><path class="a2039ebe-0890-4766-b673-57fe464efbd0" d="M261.76,191.8H263v13.32h-1.26Z"/><path class="a2039ebe-0890-4766-b673-57fe464efbd0" d="M275.07,205.27a4.69,4.69,0,0,1-4.83-5.06c0-3.14,2-5.06,4.83-5.06a4.41,4.41,0,0,1,4.64,4.55c0,.4,0,.65,0,1h-8.16a3.43,3.43,0,0,0,3.55,3.51,3,3,0,0,0,3.17-2.19h1.33A4.33,4.33,0,0,1,275.07,205.27Zm-3.55-5.6h6.91a3.21,3.21,0,0,0-3.42-3.44A3.39,3.39,0,0,0,271.52,199.67Z"/><path class="a2039ebe-0890-4766-b673-57fe464efbd0" d="M289.39,199.5c0-2.17-1.19-3.29-3-3.29s-3.12,1.15-3.12,3.55v5.36H282v-9.83h1.26V197a3.59,3.59,0,0,1,3.35-1.86c2.23,0,4,1.37,4,4.25v5.76h-1.24Z"/><path class="a2039ebe-0890-4766-b673-57fe464efbd0" d="M37.92,221.8h1.26v13.32H37.92Z"/><path class="a2039ebe-0890-4766-b673-57fe464efbd0" d="M46.33,235.27a5.06,5.06,0,1,1,5-5.06A4.8,4.8,0,0,1,46.33,235.27Zm0-1.1a3.61,3.61,0,0,0,3.65-4c0-2.7-1.76-4-3.64-4s-3.62,1.26-3.62,4S44.45,234.17,46.33,234.17Z"/><path class="a2039ebe-0890-4766-b673-57fe464efbd0" d="M56.83,235.27c-2.23,0-3.8-1.12-4-2.92h1.29c.11,1.08,1.05,1.85,2.65,1.85,1.41,0,2.2-.75,2.2-1.69,0-2.43-5.91-1-5.91-4.7,0-1.46,1.39-2.66,3.46-2.66s3.49,1.11,3.6,3H58.9a2.1,2.1,0,0,0-2.38-1.92c-1.31,0-2.14.7-2.14,1.56,0,2.67,5.82,1.25,5.87,4.72C60.25,234.1,58.87,235.27,56.83,235.27Z"/><path class="a2039ebe-0890-4766-b673-57fe464efbd0" d="M81.92,229.5c0-2.17-1.13-3.29-2.88-3.29s-3,1.19-3,3.58v5.33H74.76V229.5c0-2.17-1.15-3.29-2.9-3.29s-3,1.19-3,3.58v5.33H67.56v-9.83h1.26V227a3.51,3.51,0,0,1,3.26-1.87,3.62,3.62,0,0,1,3.63,2.41,3.58,3.58,0,0,1,3.55-2.41c2.18,0,3.91,1.37,3.91,4.25v5.76H81.92Z"/><path class="a2039ebe-0890-4766-b673-57fe464efbd0" d="M90.23,235.27a5.06,5.06,0,1,1,5-5.06A4.8,4.8,0,0,1,90.23,235.27Zm0-1.1a4,4,0,0,0,0-7.92c-1.87,0-3.62,1.26-3.62,4S88.36,234.17,90.23,234.17Z"/><path class="a2039ebe-0890-4766-b673-57fe464efbd0" d="M101.63,225.15a4.29,4.29,0,0,1,3.88,2.27V221.8h1.26v13.32h-1.26v-2.19a4.12,4.12,0,0,1-3.89,2.34c-2.7,0-4.7-2-4.7-5.08S98.92,225.15,101.63,225.15Zm.22,1.1c-2.07,0-3.65,1.44-3.65,3.94s1.58,4,3.65,4a4,4,0,0,0,0-7.92Z"/><path class="a2039ebe-0890-4766-b673-57fe464efbd0" d="M113.87,235.27a4.69,4.69,0,0,1-4.83-5.06c0-3.14,2-5.06,4.83-5.06a4.42,4.42,0,0,1,4.65,4.55,7.71,7.71,0,0,1,0,1h-8.16a3.43,3.43,0,0,0,3.55,3.51A3,3,0,0,0,117,232h1.33A4.32,4.32,0,0,1,113.87,235.27Zm-3.55-5.6h6.92a3.22,3.22,0,0,0-3.42-3.44A3.4,3.4,0,0,0,110.32,229.67Z"/><path class="a2039ebe-0890-4766-b673-57fe464efbd0" d="M120.82,221.8h1.26v13.32h-1.26Z"/><path class="a2039ebe-0890-4766-b673-57fe464efbd0" d="M129.22,235.27a5.06,5.06,0,1,1,4.95-5.06A4.79,4.79,0,0,1,129.22,235.27Zm0-1.1a4,4,0,0,0,0-7.92c-1.87,0-3.62,1.26-3.62,4S127.35,234.17,129.22,234.17Z"/><path class="a2039ebe-0890-4766-b673-57fe464efbd0" d="M139.73,235.27c-2.23,0-3.8-1.12-4-2.92h1.29c.11,1.08,1.05,1.85,2.65,1.85,1.41,0,2.2-.75,2.2-1.69,0-2.43-5.91-1-5.91-4.7,0-1.46,1.39-2.66,3.46-2.66s3.49,1.11,3.6,3H141.8a2.1,2.1,0,0,0-2.38-1.92c-1.31,0-2.14.7-2.14,1.56,0,2.67,5.82,1.25,5.87,4.72C143.15,234.1,141.76,235.27,139.73,235.27Z"/><path class="a2039ebe-0890-4766-b673-57fe464efbd0" d="M154.65,225.15a4.24,4.24,0,0,1,4.52,3.35h-1.35a3,3,0,0,0-3.17-2.27c-1.93,0-3.49,1.31-3.49,4s1.56,4,3.49,4a3,3,0,0,0,3.17-2.28h1.35a4.31,4.31,0,0,1-4.52,3.35c-2.77,0-4.77-2-4.77-5.06S151.88,225.15,154.65,225.15Z"/><path class="a2039ebe-0890-4766-b673-57fe464efbd0" d="M165.65,235.27a5.06,5.06,0,1,1,4.95-5.06A4.8,4.8,0,0,1,165.65,235.27Zm0-1.1a3.61,3.61,0,0,0,3.65-4c0-2.7-1.76-4-3.64-4s-3.61,1.26-3.61,4S163.77,234.17,165.65,234.17Z"/><path class="a2039ebe-0890-4766-b673-57fe464efbd0" d="M174.14,235.12h-1.26v-9.83h1.26V227a3.37,3.37,0,0,1,3.36-1.93v1.32h-.34c-1.64,0-3,.73-3,3.2Z"/><path class="a2039ebe-0890-4766-b673-57fe464efbd0" d="M180.52,235.12h-1.26v-9.83h1.26V227a3.37,3.37,0,0,1,3.36-1.93v1.32h-.34c-1.64,0-3,.73-3,3.2Z"/><path class="a2039ebe-0890-4766-b673-57fe464efbd0" d="M189.59,235.27a4.69,4.69,0,0,1-4.82-5.06c0-3.14,2-5.06,4.82-5.06a4.42,4.42,0,0,1,4.65,4.55,7.71,7.71,0,0,1,0,1h-8.15a3.43,3.43,0,0,0,3.54,3.51,3,3,0,0,0,3.17-2.19h1.34A4.33,4.33,0,0,1,189.59,235.27Zm-3.54-5.6H193a3.21,3.21,0,0,0-3.42-3.44A3.39,3.39,0,0,0,186.05,229.67Z"/><path class="a2039ebe-0890-4766-b673-57fe464efbd0" d="M196.54,221.8h1.26v13.32h-1.26Z"/><path class="a2039ebe-0890-4766-b673-57fe464efbd0" d="M204.77,225.15a4.11,4.11,0,0,1,3.89,2.3v-2.16h1.26v9.83h-1.26v-2.18a4.17,4.17,0,0,1-3.91,2.33c-2.68,0-4.68-2-4.68-5.08S202.07,225.15,204.77,225.15Zm.23,1.1c-2.07,0-3.65,1.44-3.65,3.94s1.58,4,3.65,4a4,4,0,0,0,0-7.92Z"/><path class="a2039ebe-0890-4766-b673-57fe464efbd0" d="M217,225.15a4.24,4.24,0,0,1,4.52,3.35h-1.35a3,3,0,0,0-3.17-2.27c-1.93,0-3.49,1.31-3.49,4s1.56,4,3.49,4a3,3,0,0,0,3.17-2.28h1.35a4.31,4.31,0,0,1-4.52,3.35c-2.77,0-4.77-2-4.77-5.06S214.2,225.15,217,225.15Z"/><path class="a2039ebe-0890-4766-b673-57fe464efbd0" d="M223.41,222.5a.92.92,0,1,1,1.83,0,.92.92,0,1,1-1.83,0Zm.28,2.79H225v9.83h-1.27Z"/><path class="a2039ebe-0890-4766-b673-57fe464efbd0" d="M232.05,235.27a5.06,5.06,0,1,1,4.95-5.06A4.8,4.8,0,0,1,232.05,235.27Zm0-1.1a3.61,3.61,0,0,0,3.65-4c0-2.7-1.76-4-3.63-4s-3.62,1.26-3.62,4S230.18,234.17,232.05,234.17Z"/><path class="a2039ebe-0890-4766-b673-57fe464efbd0" d="M246.64,229.5c0-2.17-1.18-3.29-3-3.29s-3.11,1.15-3.11,3.55v5.36h-1.26v-9.83h1.26V227a3.59,3.59,0,0,1,3.35-1.86c2.23,0,4,1.37,4,4.25v5.76h-1.25Z"/><path class="a2039ebe-0890-4766-b673-57fe464efbd0" d="M254.75,225.15a4.08,4.08,0,0,1,3.88,2.3v-2.16h1.26v9.83h-1.26v-2.18a4.14,4.14,0,0,1-3.9,2.33c-2.69,0-4.68-2-4.68-5.08S252,225.15,254.75,225.15Zm.23,1.1a3.59,3.59,0,0,0-3.66,3.94,3.67,3.67,0,1,0,3.66-3.94Z"/><path class="a2039ebe-0890-4766-b673-57fe464efbd0" d="M262.72,221.8H264v13.32h-1.26Z"/><path class="a2039ebe-0890-4766-b673-57fe464efbd0" d="M271.07,235.27a4.69,4.69,0,0,1-4.82-5.06c0-3.14,2-5.06,4.82-5.06a4.42,4.42,0,0,1,4.65,4.55,7.71,7.71,0,0,1,0,1h-8.15a3.43,3.43,0,0,0,3.54,3.51,3,3,0,0,0,3.17-2.19h1.33A4.32,4.32,0,0,1,271.07,235.27Zm-3.54-5.6h6.91a3.21,3.21,0,0,0-3.42-3.44A3.39,3.39,0,0,0,267.53,229.67Z"/><path class="a2039ebe-0890-4766-b673-57fe464efbd0" d="M281.32,235.27c-2.23,0-3.8-1.12-4-2.92h1.3c.1,1.08,1,1.85,2.64,1.85,1.41,0,2.2-.75,2.2-1.69,0-2.43-5.91-1-5.91-4.7,0-1.46,1.39-2.66,3.46-2.66s3.49,1.11,3.6,3h-1.26a2.09,2.09,0,0,0-2.37-1.92c-1.32,0-2.15.7-2.15,1.56,0,2.67,5.82,1.25,5.87,4.72C284.74,234.1,283.36,235.27,281.32,235.27Z"/><path class="a2039ebe-0890-4766-b673-57fe464efbd0" d="M287.55,235.21a.91.91,0,0,1-.92-.93.91.91,0,1,1,1.82,0A.91.91,0,0,1,287.55,235.21Z"/><path class="a2039ebe-0890-4766-b673-57fe464efbd0" d="M302.11,223.56H296.8v4.7h4.77v1.05H296.8v4.77h5.31v1h-6.57v-12.6h6.57Z"/><path class="a2039ebe-0890-4766-b673-57fe464efbd0" d="M307.54,235.27c-2.23,0-3.79-1.12-4-2.92h1.3c.11,1.08,1,1.85,2.65,1.85,1.4,0,2.19-.75,2.19-1.69,0-2.43-5.9-1-5.9-4.7,0-1.46,1.38-2.66,3.45-2.66s3.5,1.11,3.6,3h-1.25a2.11,2.11,0,0,0-2.38-1.92c-1.32,0-2.14.7-2.14,1.56,0,2.67,5.81,1.25,5.86,4.72C311,234.1,309.58,235.27,307.54,235.27Z"/><path class="a2039ebe-0890-4766-b673-57fe464efbd0" d="M42.06,255.15a4.26,4.26,0,0,1,3.87,2.27V251.8h1.26v13.32H45.93v-2.19A4.1,4.1,0,0,1,42,265.27c-2.7,0-4.7-2-4.7-5.08S39.34,255.15,42.06,255.15Zm.22,1.1a3.59,3.59,0,0,0-3.66,3.94,3.67,3.67,0,1,0,3.66-3.94Z"/><path class="a2039ebe-0890-4766-b673-57fe464efbd0" d="M54.3,265.27a4.69,4.69,0,0,1-4.83-5.06c0-3.14,2-5.06,4.83-5.06a4.41,4.41,0,0,1,4.64,4.55c0,.4,0,.65,0,1H50.75a3.43,3.43,0,0,0,3.55,3.51A3,3,0,0,0,57.46,262H58.8A4.33,4.33,0,0,1,54.3,265.27Zm-3.55-5.6h6.91a3.21,3.21,0,0,0-3.42-3.44A3.39,3.39,0,0,0,50.75,259.67Z"/><path class="a2039ebe-0890-4766-b673-57fe464efbd0" d="M65.45,255.15A4.24,4.24,0,0,1,70,258.5H68.62a3,3,0,0,0-3.17-2.27c-1.93,0-3.5,1.31-3.5,4s1.57,4,3.5,4a3,3,0,0,0,3.17-2.28H70a4.32,4.32,0,0,1-4.52,3.35c-2.78,0-4.77-1.95-4.77-5.06S62.67,255.15,65.45,255.15Z"/><path class="a2039ebe-0890-4766-b673-57fe464efbd0" d="M71.88,252.5a.92.92,0,0,1,1.84,0,.92.92,0,1,1-1.84,0Zm.29,2.79h1.26v9.83H72.17Z"/><path class="a2039ebe-0890-4766-b673-57fe464efbd0" d="M77.5,265.12H76.24v-9.83H77.5V257a3.39,3.39,0,0,1,3.37-1.93v1.32h-.34c-1.64,0-3,.73-3,3.2Z"/><path class="a2039ebe-0890-4766-b673-57fe464efbd0" d="M81.47,263h1.4L81,267.75h-.88Z"/><path class="a2039ebe-0890-4766-b673-57fe464efbd0" d="M94,265.27a4.69,4.69,0,0,1-4.82-5.06c0-3.14,2-5.06,4.82-5.06a4.42,4.42,0,0,1,4.65,4.55,7.71,7.71,0,0,1,0,1H90.47A3.43,3.43,0,0,0,94,264.2,3,3,0,0,0,97.18,262h1.34A4.33,4.33,0,0,1,94,265.27Zm-3.54-5.6h6.91A3.21,3.21,0,0,0,94,256.23,3.39,3.39,0,0,0,90.47,259.67Z"/><path class="a2039ebe-0890-4766-b673-57fe464efbd0" d="M103.35,261.16l-2.45,4H99.57l3.17-4.91-3.13-4.92H101l2.5,3.91,2.43-3.91h1.32l-3.13,4.86,3.16,5h-1.42Z"/><path class="a2039ebe-0890-4766-b673-57fe464efbd0" d="M108.7,252.5a.92.92,0,0,1,1.84,0,.92.92,0,1,1-1.84,0Zm.29,2.79h1.26v9.83H109Z"/><path class="a2039ebe-0890-4766-b673-57fe464efbd0" d="M116.42,265.27c-2.23,0-3.8-1.12-4-2.92h1.3c.11,1.08,1,1.85,2.64,1.85,1.41,0,2.2-.75,2.2-1.69,0-2.43-5.9-1-5.9-4.7,0-1.46,1.38-2.66,3.45-2.66s3.5,1.11,3.6,3h-1.26a2.09,2.09,0,0,0-2.37-1.92c-1.32,0-2.15.7-2.15,1.56,0,2.67,5.82,1.25,5.87,4.72C119.84,264.1,118.46,265.27,116.42,265.27Z"/><path class="a2039ebe-0890-4766-b673-57fe464efbd0" d="M122.4,256.35H121v-1.06h1.36v-2.47h1.28v2.47h2.7v1.06h-2.7v6.11c0,1.2.42,1.58,1.55,1.58h1.15v1.08H125c-1.71,0-2.63-.7-2.63-2.66Z"/><path class="a2039ebe-0890-4766-b673-57fe464efbd0" d="M132.17,265.27a4.69,4.69,0,0,1-4.82-5.06c0-3.14,2-5.06,4.82-5.06a4.42,4.42,0,0,1,4.65,4.55,7.71,7.71,0,0,1,0,1h-8.15a3.43,3.43,0,0,0,3.54,3.51,3,3,0,0,0,3.17-2.19h1.34A4.33,4.33,0,0,1,132.17,265.27Zm-3.54-5.6h6.91a3.21,3.21,0,0,0-3.42-3.44A3.39,3.39,0,0,0,128.63,259.67Z"/><path class="a2039ebe-0890-4766-b673-57fe464efbd0" d="M146.49,259.5c0-2.17-1.18-3.29-3-3.29s-3.11,1.15-3.11,3.55v5.36h-1.26v-9.83h1.26V257a3.59,3.59,0,0,1,3.35-1.86c2.23,0,4,1.37,4,4.25v5.76h-1.25Z"/><path class="a2039ebe-0890-4766-b673-57fe464efbd0" d="M160.6,255.15c2.69,0,4.69,2,4.69,5s-2,5.08-4.69,5.08a4.18,4.18,0,0,1-3.9-2.31v6.81h-1.24V255.29h1.24v2.16A4.16,4.16,0,0,1,160.6,255.15Zm-.25,1.1a4,4,0,1,0,3.66,3.94A3.59,3.59,0,0,0,160.35,256.25Z"/><path class="a2039ebe-0890-4766-b673-57fe464efbd0" d="M168.83,265.12h-1.26v-9.83h1.26V257a3.39,3.39,0,0,1,3.37-1.93v1.32h-.34c-1.64,0-3,.73-3,3.2Z"/><path class="a2039ebe-0890-4766-b673-57fe464efbd0" d="M177.93,265.27a5.06,5.06,0,1,1,4.95-5.06A4.8,4.8,0,0,1,177.93,265.27Zm0-1.1a3.6,3.6,0,0,0,3.65-4c0-2.7-1.76-4-3.63-4s-3.62,1.26-3.62,4S176.06,264.17,177.93,264.17Z"/><path class="a2039ebe-0890-4766-b673-57fe464efbd0" d="M190.31,255.15c2.7,0,4.68,2,4.68,5s-2,5.08-4.68,5.08A4.15,4.15,0,0,1,186.4,263v2.16h-1.24V251.8h1.24v5.67A4.17,4.17,0,0,1,190.31,255.15Zm-.25,1.1a4,4,0,0,0,0,7.92c2.07,0,3.65-1.5,3.65-4S192.13,256.25,190.06,256.25Z"/><path class="a2039ebe-0890-4766-b673-57fe464efbd0" d="M197.3,251.8h1.26v13.32H197.3Z"/><path class="a2039ebe-0890-4766-b673-57fe464efbd0" d="M205.65,265.27a4.69,4.69,0,0,1-4.82-5.06c0-3.14,2-5.06,4.82-5.06a4.42,4.42,0,0,1,4.65,4.55,7.71,7.71,0,0,1,0,1H202.1a3.43,3.43,0,0,0,3.55,3.51,3,3,0,0,0,3.17-2.19h1.33A4.32,4.32,0,0,1,205.65,265.27Zm-3.55-5.6H209a3.22,3.22,0,0,0-3.42-3.44A3.4,3.4,0,0,0,202.1,259.67Z"/><path class="a2039ebe-0890-4766-b673-57fe464efbd0" d="M227,259.5c0-2.17-1.13-3.29-2.88-3.29s-3,1.19-3,3.58v5.33h-1.24V259.5c0-2.17-1.15-3.29-2.9-3.29s-3,1.19-3,3.58v5.33h-1.26v-9.83h1.26V257a3.51,3.51,0,0,1,3.25-1.87,3.63,3.63,0,0,1,3.64,2.41,3.58,3.58,0,0,1,3.55-2.41c2.18,0,3.91,1.37,3.91,4.25v5.76H227Z"/><path class="a2039ebe-0890-4766-b673-57fe464efbd0" d="M235.1,255.15a4.11,4.11,0,0,1,3.89,2.3v-2.16h1.26v9.83H239v-2.18a4.17,4.17,0,0,1-3.91,2.33c-2.68,0-4.68-2-4.68-5.08S232.4,255.15,235.1,255.15Zm.23,1.1c-2.07,0-3.65,1.44-3.65,3.94s1.58,4,3.65,4a4,4,0,0,0,0-7.92Z"/><path class="a2039ebe-0890-4766-b673-57fe464efbd0" d="M246.46,265.27c-2.24,0-3.8-1.12-4-2.92h1.29c.11,1.08,1.05,1.85,2.65,1.85,1.4,0,2.2-.75,2.2-1.69,0-2.43-5.91-1-5.91-4.7,0-1.46,1.39-2.66,3.46-2.66s3.49,1.11,3.6,3h-1.26a2.1,2.1,0,0,0-2.38-1.92c-1.31,0-2.14.7-2.14,1.56,0,2.67,5.81,1.25,5.87,4.72C249.88,264.1,248.49,265.27,246.46,265.27Z"/><path class="a2039ebe-0890-4766-b673-57fe464efbd0" d="M261.33,255.15a4.27,4.27,0,0,1,3.87,2.27V251.8h1.26v13.32H265.2v-2.19a4.12,4.12,0,0,1-3.89,2.34c-2.7,0-4.7-2-4.7-5.08S258.61,255.15,261.33,255.15Zm.21,1.1c-2.07,0-3.65,1.44-3.65,3.94s1.58,4,3.65,4a4,4,0,0,0,0-7.92Z"/><path class="a2039ebe-0890-4766-b673-57fe464efbd0" d="M273.56,265.27a4.69,4.69,0,0,1-4.82-5.06c0-3.14,2-5.06,4.82-5.06a4.42,4.42,0,0,1,4.65,4.55,7.71,7.71,0,0,1,0,1H270a3.43,3.43,0,0,0,3.55,3.51,3,3,0,0,0,3.17-2.19h1.33A4.32,4.32,0,0,1,273.56,265.27Zm-3.55-5.6h6.92a3.21,3.21,0,0,0-3.42-3.44A3.4,3.4,0,0,0,270,259.67Z"/><path class="a2039ebe-0890-4766-b673-57fe464efbd0" d="M42.17,295.27a4.69,4.69,0,0,1-4.83-5.06c0-3.14,2-5.06,4.83-5.06a4.41,4.41,0,0,1,4.64,4.55c0,.4,0,.65,0,1H38.62a3.43,3.43,0,0,0,3.55,3.51A3,3,0,0,0,45.34,292h1.33A4.33,4.33,0,0,1,42.17,295.27Zm-3.55-5.6h6.92a3.22,3.22,0,0,0-3.43-3.44A3.4,3.4,0,0,0,38.62,289.67Z"/><path class="a2039ebe-0890-4766-b673-57fe464efbd0" d="M56.49,289.5c0-2.17-1.19-3.29-3-3.29s-3.12,1.15-3.12,3.55v5.36H49.12v-9.83h1.26V287a3.59,3.59,0,0,1,3.35-1.86c2.23,0,4,1.37,4,4.25v5.76H56.49Z"/><path class="a2039ebe-0890-4766-b673-57fe464efbd0" d="M64.61,285.15a4.27,4.27,0,0,1,3.87,2.27V281.8h1.26v13.32H68.48v-2.19a4.12,4.12,0,0,1-3.89,2.34c-2.7,0-4.7-2-4.7-5.08S61.89,285.15,64.61,285.15Zm.21,1.1c-2.07,0-3.65,1.44-3.65,3.94s1.58,4,3.65,4a4,4,0,0,0,0-7.92Z"/><path class="a2039ebe-0890-4766-b673-57fe464efbd0" d="M76.9,295.27a5.06,5.06,0,1,1,4.95-5.06A4.8,4.8,0,0,1,76.9,295.27Zm0-1.1a3.61,3.61,0,0,0,3.65-4c0-2.7-1.76-4-3.64-4s-3.61,1.26-3.61,4S75,294.17,76.9,294.17Z"/><path class="a2039ebe-0890-4766-b673-57fe464efbd0" d="M88.28,285.15a4.13,4.13,0,0,1,3.89,2.28v-2.14h1.26v10.08A4.35,4.35,0,0,1,88.84,300c-2.54,0-4.3-1.3-4.7-3.35h1.24a3.38,3.38,0,0,0,3.46,2.25,3.21,3.21,0,0,0,3.33-3.48v-2.43a4.15,4.15,0,0,1-3.89,2.33c-2.7,0-4.7-2-4.7-5.08S85.58,285.15,88.28,285.15Zm.24,1.1a3.59,3.59,0,0,0-3.66,3.94,3.67,3.67,0,1,0,3.66-3.94Z"/><path class="a2039ebe-0890-4766-b673-57fe464efbd0" d="M100.54,295.27a4.69,4.69,0,0,1-4.83-5.06c0-3.14,2-5.06,4.83-5.06a4.41,4.41,0,0,1,4.64,4.55,7.71,7.71,0,0,1,0,1H97a3.43,3.43,0,0,0,3.55,3.51A3,3,0,0,0,103.7,292H105A4.33,4.33,0,0,1,100.54,295.27ZM97,289.67h6.91a3.21,3.21,0,0,0-3.42-3.44A3.39,3.39,0,0,0,97,289.67Z"/><path class="a2039ebe-0890-4766-b673-57fe464efbd0" d="M114.85,289.5c0-2.17-1.19-3.29-3-3.29s-3.11,1.15-3.11,3.55v5.36h-1.26v-9.83h1.26V287a3.59,3.59,0,0,1,3.35-1.86c2.23,0,4,1.37,4,4.25v5.76h-1.25Z"/><path class="a2039ebe-0890-4766-b673-57fe464efbd0" d="M123.08,295.27a4.69,4.69,0,0,1-4.82-5.06c0-3.14,2-5.06,4.82-5.06a4.42,4.42,0,0,1,4.65,4.55,7.71,7.71,0,0,1,0,1h-8.15a3.43,3.43,0,0,0,3.54,3.51,3,3,0,0,0,3.17-2.19h1.33A4.32,4.32,0,0,1,123.08,295.27Zm-3.54-5.6h6.91a3.21,3.21,0,0,0-3.42-3.44A3.39,3.39,0,0,0,119.54,289.67Z"/><path class="a2039ebe-0890-4766-b673-57fe464efbd0" d="M129.69,282.5a.92.92,0,0,1,1.84,0,.92.92,0,1,1-1.84,0Zm.29,2.79h1.26v9.83H130Z"/><path class="a2039ebe-0890-4766-b673-57fe464efbd0" d="M138.17,285.15a4.27,4.27,0,0,1,3.87,2.27V281.8h1.26v13.32H142v-2.19a4.11,4.11,0,0,1-3.89,2.34c-2.7,0-4.7-2-4.7-5.08S135.45,285.15,138.17,285.15Zm.22,1.1a3.59,3.59,0,0,0-3.66,3.94,3.67,3.67,0,1,0,3.66-3.94Z"/><path class="a2039ebe-0890-4766-b673-57fe464efbd0" d="M150.28,285.15a4.11,4.11,0,0,1,3.89,2.3v-2.16h1.26v9.83h-1.26v-2.18a4.17,4.17,0,0,1-3.91,2.33c-2.68,0-4.68-2-4.68-5.08S147.58,285.15,150.28,285.15Zm.23,1.1c-2.07,0-3.65,1.44-3.65,3.94s1.58,4,3.65,4a4,4,0,0,0,0-7.92Z"/><path class="a2039ebe-0890-4766-b673-57fe464efbd0" d="M162.43,285.15a4.27,4.27,0,0,1,3.87,2.27V281.8h1.26v13.32H166.3v-2.19a4.12,4.12,0,0,1-3.89,2.34c-2.7,0-4.7-2-4.7-5.08S159.71,285.15,162.43,285.15Zm.21,1.1c-2.07,0-3.65,1.44-3.65,3.94s1.58,4,3.65,4a4,4,0,0,0,0-7.92Z"/><path class="a2039ebe-0890-4766-b673-57fe464efbd0" d="M170.84,295.21a.91.91,0,0,1-.92-.93.91.91,0,1,1,1.82,0A.91.91,0,0,1,170.84,295.21Z"/></svg>