<svg id="ea1f003b-0813-40d0-af0e-dc8e256928ab" data-name="Capa 1" xmlns="http://www.w3.org/2000/svg" viewBox="0 0 408.7 542.74"><defs><style>.ae4c5871-9353-4a13-a0ca-960614c2261e{opacity:0.5;}.a63c9a66-dcab-4eaa-90f0-fef315c52c0a{fill:#272b31;}</style></defs><path class="a63c9a66-dcab-4eaa-90f0-fef315c52c0a" d="M33.07,10.55H28.41V13.1h4.12v2.38H28.41v2.77h4.66v2.47H25.33V8.08h7.74Z"/><path class="a63c9a66-dcab-4eaa-90f0-fef315c52c0a" d="M48.93,15.26a1.93,1.93,0,1,0-3.85,0v5.46H42V15.26a1.93,1.93,0,1,0-3.86,0v5.46H35.09v-10h3.07v1.26a3.57,3.57,0,0,1,2.94-1.37,3.75,3.75,0,0,1,3.42,1.88,4,4,0,0,1,3.39-1.88c2.48,0,4.08,1.59,4.08,4.29v5.87H48.93Z"/><path class="a63c9a66-dcab-4eaa-90f0-fef315c52c0a" d="M60.33,10.53c2.47,0,4.43,2,4.43,5.15s-2,5.18-4.43,5.18a3.61,3.61,0,0,1-3.1-1.55v6.2H54.15V10.67h3.08v1.42A3.55,3.55,0,0,1,60.33,10.53Zm-.92,2.68a2.25,2.25,0,0,0-2.2,2.48,2.23,2.23,0,1,0,4.42,0A2.24,2.24,0,0,0,59.41,13.21Z"/><path class="a63c9a66-dcab-4eaa-90f0-fef315c52c0a" d="M70.26,10.53a3.5,3.5,0,0,1,3.1,1.56V10.67h3.08v10H73.36V19.3a3.56,3.56,0,0,1-3.12,1.56c-2.44,0-4.41-2-4.41-5.18S67.8,10.53,70.26,10.53Zm.9,2.68A2.23,2.23,0,0,0,69,15.68a2.21,2.21,0,1,0,4.39,0A2.24,2.24,0,0,0,71.16,13.21Z"/><path class="a63c9a66-dcab-4eaa-90f0-fef315c52c0a" d="M81.72,20.72H78.64v-10h3.08v1.68a3.73,3.73,0,0,1,3.15-1.79v3.26H84c-1.46,0-2.31.51-2.31,2.23Z"/><path class="a63c9a66-dcab-4eaa-90f0-fef315c52c0a" d="M90.74,20.86a4.85,4.85,0,0,1-5.08-5.17,4.82,4.82,0,0,1,5.08-5.16,4.73,4.73,0,0,1,5,5,6.92,6.92,0,0,1-.06.9h-7a1.85,1.85,0,0,0,1.9,1.93,1.64,1.64,0,0,0,1.61-1h3.27A4.68,4.68,0,0,1,90.74,20.86Zm-2-6.14H92.6A1.74,1.74,0,0,0,90.71,13,1.92,1.92,0,0,0,88.74,14.72Z"/><path class="a63c9a66-dcab-4eaa-90f0-fef315c52c0a" d="M100.4,10.67V22c0,2.62-1.46,3.5-3.54,3.5H95.65V22.9h.74c.68,0,.93-.25.93-.85V10.67ZM97,8a1.83,1.83,0,1,1,1.83,1.66A1.7,1.7,0,0,1,97,8Z"/><path class="a63c9a66-dcab-4eaa-90f0-fef315c52c0a" d="M106.39,10.53a3.5,3.5,0,0,1,3.1,1.56V10.67h3.08v10h-3.08V19.3a3.56,3.56,0,0,1-3.12,1.56c-2.44,0-4.41-2-4.41-5.18S103.93,10.53,106.39,10.53Zm.9,2.68a2.23,2.23,0,0,0-2.19,2.47,2.21,2.21,0,1,0,4.39,0A2.24,2.24,0,0,0,107.29,13.21Z"/><path class="a63c9a66-dcab-4eaa-90f0-fef315c52c0a" d="M128.62,15.26a1.93,1.93,0,1,0-3.86,0v5.46H121.7V15.26a1.93,1.93,0,1,0-3.85,0v5.46h-3.08v-10h3.08v1.26a3.54,3.54,0,0,1,2.93-1.37,3.76,3.76,0,0,1,3.43,1.88,4,4,0,0,1,3.38-1.88c2.49,0,4.09,1.59,4.09,4.29v5.87h-3.06Z"/><path class="a63c9a66-dcab-4eaa-90f0-fef315c52c0a" d="M133.5,8a1.83,1.83,0,1,1,1.83,1.66A1.69,1.69,0,0,1,133.5,8Zm.28,2.7h3.08v10h-3.08Z"/><path class="a63c9a66-dcab-4eaa-90f0-fef315c52c0a" d="M143.48,20.86a4.85,4.85,0,0,1-5.08-5.17,4.82,4.82,0,0,1,5.08-5.16,4.73,4.73,0,0,1,5,5,6.92,6.92,0,0,1-.06.9h-7a1.86,1.86,0,0,0,1.91,1.93,1.62,1.62,0,0,0,1.6-1h3.28A4.69,4.69,0,0,1,143.48,20.86Zm-2-6.14h3.85A1.73,1.73,0,0,0,143.44,13,1.91,1.91,0,0,0,141.48,14.72Z"/><path class="a63c9a66-dcab-4eaa-90f0-fef315c52c0a" d="M157,15.26a1.93,1.93,0,1,0-3.85,0v5.46h-3.08v-10h3.08V12a3.69,3.69,0,0,1,3-1.44c2.33,0,3.88,1.59,3.88,4.29v5.87H157Z"/><path class="a63c9a66-dcab-4eaa-90f0-fef315c52c0a" d="M162.54,13.23h-1.23V10.67h1.23V8.22h3.08v2.45h2v2.56h-2v4c0,.6.25.85.93.85h1.1v2.61h-1.57c-2.09,0-3.54-.88-3.54-3.49Z"/><path class="a63c9a66-dcab-4eaa-90f0-fef315c52c0a" d="M173.85,20.86a4.93,4.93,0,0,1-5.19-5.17,5.22,5.22,0,0,1,10.44,0A5,5,0,0,1,173.85,20.86Zm0-2.66c1.09,0,2.12-.81,2.12-2.51s-1-2.5-2.09-2.5-2.09.79-2.09,2.5S172.73,18.2,173.85,18.2Z"/><path class="a63c9a66-dcab-4eaa-90f0-fef315c52c0a" d="M181.87,13.53a1.68,1.68,0,1,1,1.82-1.65A1.7,1.7,0,0,1,181.87,13.53Zm0,7.33a1.68,1.68,0,1,1,1.82-1.65A1.7,1.7,0,0,1,181.87,20.86Z"/><path class="a63c9a66-dcab-4eaa-90f0-fef315c52c0a" d="M196.25,9.16h-5.31v4.7h4.77v1h-4.77v4.77h5.31v1h-6.57V8.11h6.57Z"/><path class="a63c9a66-dcab-4eaa-90f0-fef315c52c0a" d="M198.3,7.39h1.26V20.72H198.3Z"/><path class="a63c9a66-dcab-4eaa-90f0-fef315c52c0a" d="M221.72,15.1c0-2.18-1.13-3.29-2.88-3.29s-3,1.18-3,3.58v5.33h-1.24V15.1c0-2.18-1.15-3.29-2.9-3.29s-3,1.18-3,3.58v5.33h-1.26V10.89h1.26v1.69a3.51,3.51,0,0,1,3.25-1.87,3.63,3.63,0,0,1,3.64,2.41,3.58,3.58,0,0,1,3.55-2.41c2.18,0,3.91,1.37,3.91,4.25v5.76h-1.25Z"/><path class="a63c9a66-dcab-4eaa-90f0-fef315c52c0a" d="M230,20.86a4.69,4.69,0,0,1-4.83-5.06c0-3.13,2-5.06,4.83-5.06a4.42,4.42,0,0,1,4.64,4.56c0,.39,0,.65,0,1h-8.16A3.44,3.44,0,0,0,230,19.8a3,3,0,0,0,3.17-2.2h1.33A4.32,4.32,0,0,1,230,20.86Zm-3.55-5.6h6.91a3.21,3.21,0,0,0-3.42-3.44A3.4,3.4,0,0,0,226.43,15.26Zm5.11-8.41V8l-3.69,2.14v-1Z"/><path class="a63c9a66-dcab-4eaa-90f0-fef315c52c0a" d="M237,12h-1.37V10.89H237V8.42h1.28v2.47H241V12h-2.7v6.1c0,1.21.42,1.59,1.55,1.59H241v1.08h-1.35c-1.71,0-2.63-.7-2.63-2.67Z"/><path class="a63c9a66-dcab-4eaa-90f0-fef315c52c0a" d="M246.85,20.86A4.74,4.74,0,0,1,242,15.8a4.92,4.92,0,1,1,9.83,0A4.79,4.79,0,0,1,246.85,20.86Zm0-1.1a3.61,3.61,0,0,0,3.66-4,3.59,3.59,0,0,0-3.64-4c-1.87,0-3.62,1.26-3.62,4S245,19.76,246.85,19.76Z"/><path class="a63c9a66-dcab-4eaa-90f0-fef315c52c0a" d="M258.25,10.74A4.28,4.28,0,0,1,262.12,13V7.39h1.27V20.72h-1.27v-2.2a4.08,4.08,0,0,1-3.88,2.34c-2.71,0-4.7-2-4.7-5.08S255.53,10.74,258.25,10.74Zm.22,1.1a3.59,3.59,0,0,0-3.66,3.94c0,2.49,1.59,4,3.66,4a3.66,3.66,0,0,0,3.65-4A3.66,3.66,0,0,0,258.47,11.84Z"/><path class="a63c9a66-dcab-4eaa-90f0-fef315c52c0a" d="M270.54,20.86a4.74,4.74,0,0,1-4.88-5.06,4.92,4.92,0,1,1,9.83,0A4.79,4.79,0,0,1,270.54,20.86Zm0-1.1a3.61,3.61,0,0,0,3.66-4,3.59,3.59,0,0,0-3.64-4c-1.87,0-3.62,1.26-3.62,4S268.67,19.76,270.54,19.76Z"/><path class="a63c9a66-dcab-4eaa-90f0-fef315c52c0a" d="M286.87,10.74A4.29,4.29,0,0,1,290.74,13V7.39H292V20.72h-1.26v-2.2a4.09,4.09,0,0,1-3.89,2.34c-2.7,0-4.7-2-4.7-5.08S284.15,10.74,286.87,10.74Zm.22,1.1a3.59,3.59,0,0,0-3.66,3.94c0,2.49,1.58,4,3.66,4a3.66,3.66,0,0,0,3.65-4A3.66,3.66,0,0,0,287.09,11.84Z"/><path class="a63c9a66-dcab-4eaa-90f0-fef315c52c0a" d="M299.11,20.86a4.68,4.68,0,0,1-4.83-5.06c0-3.13,2-5.06,4.83-5.06a4.42,4.42,0,0,1,4.64,4.56,7.79,7.79,0,0,1,0,1h-8.15a3.44,3.44,0,0,0,3.55,3.51,3,3,0,0,0,3.16-2.2h1.34A4.32,4.32,0,0,1,299.11,20.86Zm-3.55-5.6h6.91a3.21,3.21,0,0,0-3.42-3.44A3.4,3.4,0,0,0,295.56,15.26Z"/><path class="a63c9a66-dcab-4eaa-90f0-fef315c52c0a" d="M29.91,50.86a4.68,4.68,0,0,1-4.83-5.06c0-3.13,2-5.06,4.83-5.06a4.42,4.42,0,0,1,4.64,4.56,7.79,7.79,0,0,1,0,1H26.36a3.44,3.44,0,0,0,3.55,3.51,3,3,0,0,0,3.16-2.2h1.34A4.32,4.32,0,0,1,29.91,50.86Zm-3.55-5.6h6.91a3.21,3.21,0,0,0-3.42-3.44A3.4,3.4,0,0,0,26.36,45.26Z"/><path class="a63c9a66-dcab-4eaa-90f0-fef315c52c0a" d="M51.23,45.1c0-2.18-1.14-3.29-2.88-3.29S45.3,43,45.3,45.39v5.33H44.06V45.1c0-2.18-1.15-3.29-2.9-3.29s-3,1.18-3,3.58v5.33H36.86V40.89h1.26v1.69a3.51,3.51,0,0,1,3.26-1.87A3.64,3.64,0,0,1,45,43.12a3.58,3.58,0,0,1,3.54-2.41c2.18,0,3.91,1.37,3.91,4.25v5.76H51.23Z"/><path class="a63c9a66-dcab-4eaa-90f0-fef315c52c0a" d="M60.4,40.74c2.68,0,4.68,2,4.68,5s-2,5.08-4.68,5.08a4.19,4.19,0,0,1-3.91-2.3v6.8H55.25V40.89h1.24v2.16A4.17,4.17,0,0,1,60.4,40.74Zm-.26,1.1a3.67,3.67,0,0,0-3.65,4,3.67,3.67,0,0,0,3.65,4c2.07,0,3.66-1.49,3.66-4A3.59,3.59,0,0,0,60.14,41.84Z"/><path class="a63c9a66-dcab-4eaa-90f0-fef315c52c0a" d="M71.52,40.74a4.11,4.11,0,0,1,3.89,2.31V40.89h1.26v9.83H75.41V48.54a4.16,4.16,0,0,1-3.91,2.32c-2.68,0-4.68-2-4.68-5.08S68.82,40.74,71.52,40.74Zm.23,1.1c-2.07,0-3.65,1.44-3.65,3.94s1.58,4,3.65,4a3.66,3.66,0,0,0,3.66-4A3.66,3.66,0,0,0,71.75,41.84Z"/><path class="a63c9a66-dcab-4eaa-90f0-fef315c52c0a" d="M80.76,50.72H79.5V40.89h1.26v1.74a3.38,3.38,0,0,1,3.36-1.92V42h-.34c-1.64,0-3,.74-3,3.21Z"/><path class="a63c9a66-dcab-4eaa-90f0-fef315c52c0a" d="M89.84,50.86A4.69,4.69,0,0,1,85,45.8c0-3.13,2-5.06,4.83-5.06a4.42,4.42,0,0,1,4.64,4.56c0,.39,0,.65,0,1H86.29a3.44,3.44,0,0,0,3.55,3.51A3,3,0,0,0,93,47.6h1.34A4.32,4.32,0,0,1,89.84,50.86Zm-3.55-5.6H93.2a3.21,3.21,0,0,0-3.42-3.44A3.4,3.4,0,0,0,86.29,45.26Z"/><path class="a63c9a66-dcab-4eaa-90f0-fef315c52c0a" d="M98,40.89V53c0,1.59-.8,2.32-2.38,2.32h-.88V54.28h.68c.94,0,1.31-.34,1.31-1.29V40.89ZM96.49,38.1a.91.91,0,0,1,.92-.92.93.93,0,0,1,0,1.85A.91.91,0,0,1,96.49,38.1Z"/><path class="a63c9a66-dcab-4eaa-90f0-fef315c52c0a" d="M105,40.74a4.11,4.11,0,0,1,3.89,2.31V40.89h1.26v9.83h-1.26V48.54a4.16,4.16,0,0,1-3.91,2.32c-2.68,0-4.68-2-4.68-5.08S102.25,40.74,105,40.74Zm.23,1.1c-2.07,0-3.65,1.44-3.65,3.94s1.58,4,3.65,4a3.66,3.66,0,0,0,3.66-4A3.66,3.66,0,0,0,105.18,41.84Z"/><path class="a63c9a66-dcab-4eaa-90f0-fef315c52c0a" d="M127.29,45.1c0-2.18-1.13-3.29-2.88-3.29s-3,1.18-3,3.58v5.33h-1.24V45.1c0-2.18-1.16-3.29-2.9-3.29s-3,1.18-3,3.58v5.33h-1.26V40.89h1.26v1.69a3.53,3.53,0,0,1,3.26-1.87,3.63,3.63,0,0,1,3.64,2.41,3.58,3.58,0,0,1,3.55-2.41c2.18,0,3.91,1.37,3.91,4.25v5.76h-1.25Z"/><path class="a63c9a66-dcab-4eaa-90f0-fef315c52c0a" d="M131,38.1a.92.92,0,1,1,.92.93A.91.91,0,0,1,131,38.1Zm.29,2.79h1.26v9.83h-1.26Z"/><path class="a63c9a66-dcab-4eaa-90f0-fef315c52c0a" d="M139.57,50.86c-2.79,0-4.82-1.94-4.82-5.06s2-5.06,4.82-5.06a4.43,4.43,0,0,1,4.65,4.56,7.79,7.79,0,0,1,0,1H136a3.44,3.44,0,0,0,3.55,3.51,3,3,0,0,0,3.17-2.2h1.33A4.31,4.31,0,0,1,139.57,50.86ZM136,45.26h6.92a3.22,3.22,0,0,0-3.42-3.44A3.4,3.4,0,0,0,136,45.26Z"/><path class="a63c9a66-dcab-4eaa-90f0-fef315c52c0a" d="M153.89,45.1c0-2.18-1.19-3.29-3-3.29s-3.12,1.15-3.12,3.54v5.37h-1.26V40.89h1.26v1.67a3.62,3.62,0,0,1,3.35-1.85c2.24,0,4,1.37,4,4.25v5.76h-1.24Z"/><path class="a63c9a66-dcab-4eaa-90f0-fef315c52c0a" d="M158,42h-1.37V40.89H158V38.42h1.28v2.47H162V42h-2.7v6.1c0,1.21.41,1.59,1.55,1.59H162v1.08h-1.35c-1.71,0-2.63-.7-2.63-2.67Z"/><path class="a63c9a66-dcab-4eaa-90f0-fef315c52c0a" d="M167.82,50.86a4.73,4.73,0,0,1-4.88-5.06,4.92,4.92,0,1,1,9.83,0A4.79,4.79,0,0,1,167.82,50.86Zm0-1.1a3.61,3.61,0,0,0,3.65-4c0-2.7-1.76-4-3.64-4s-3.61,1.26-3.61,4S165.94,49.76,167.82,49.76Z"/><path class="a63c9a66-dcab-4eaa-90f0-fef315c52c0a" d="M184.3,50.86a4.74,4.74,0,0,1-4.88-5.06,4.92,4.92,0,1,1,9.84,0A4.79,4.79,0,0,1,184.3,50.86Zm0-1.1a3.61,3.61,0,0,0,3.66-4,3.59,3.59,0,0,0-3.64-4c-1.87,0-3.62,1.26-3.62,4S182.43,49.76,184.3,49.76Z"/><path class="a63c9a66-dcab-4eaa-90f0-fef315c52c0a" d="M200.29,45.35h-2.54v5.37h-1.26V38.13h3.8c2.91,0,4.25,1.55,4.25,3.62S203.24,45.35,200.29,45.35Zm0-1.08c2.12,0,3-1,3-2.52s-.83-2.56-3-2.56h-2.54v5.08Z"/><path class="a63c9a66-dcab-4eaa-90f0-fef315c52c0a" d="M207.66,50.72H206.4V40.89h1.26v1.74A3.39,3.39,0,0,1,211,40.71V42h-.35c-1.63,0-3,.74-3,3.21Z"/><path class="a63c9a66-dcab-4eaa-90f0-fef315c52c0a" d="M216.76,50.86a4.73,4.73,0,0,1-4.88-5.06,4.92,4.92,0,1,1,9.83,0A4.79,4.79,0,0,1,216.76,50.86Zm0-1.1a3.61,3.61,0,0,0,3.65-4c0-2.7-1.76-4-3.64-4s-3.62,1.26-3.62,4S214.88,49.76,216.76,49.76Z"/><path class="a63c9a66-dcab-4eaa-90f0-fef315c52c0a" d="M229.14,40.74c2.68,0,4.68,2,4.68,5s-2,5.08-4.68,5.08a4.2,4.2,0,0,1-3.91-2.3v6.8H224V40.89h1.24v2.16A4.18,4.18,0,0,1,229.14,40.74Zm-.26,1.1a3.67,3.67,0,0,0-3.65,4,3.67,3.67,0,0,0,3.65,4c2.08,0,3.66-1.49,3.66-4A3.59,3.59,0,0,0,228.88,41.84Z"/><path class="a63c9a66-dcab-4eaa-90f0-fef315c52c0a" d="M240.39,50.86a4.69,4.69,0,0,1-4.83-5.06c0-3.13,2-5.06,4.83-5.06A4.42,4.42,0,0,1,245,45.3c0,.39,0,.65,0,1h-8.16a3.44,3.44,0,0,0,3.55,3.51,3,3,0,0,0,3.17-2.2h1.33A4.32,4.32,0,0,1,240.39,50.86Zm-3.55-5.6h6.91a3.21,3.21,0,0,0-3.42-3.44A3.4,3.4,0,0,0,236.84,45.26Z"/><path class="a63c9a66-dcab-4eaa-90f0-fef315c52c0a" d="M254.7,45.1c0-2.18-1.18-3.29-3-3.29S248.6,43,248.6,45.35v5.37h-1.26V40.89h1.26v1.67A3.6,3.6,0,0,1,252,40.71c2.23,0,4,1.37,4,4.25v5.76H254.7Z"/><path class="a63c9a66-dcab-4eaa-90f0-fef315c52c0a" d="M262,50.86c-2.23,0-3.79-1.11-4-2.91h1.3c.11,1.08,1,1.85,2.65,1.85,1.4,0,2.19-.76,2.19-1.69,0-2.43-5.9-1-5.9-4.7,0-1.46,1.38-2.67,3.45-2.67s3.5,1.12,3.61,3h-1.26a2.11,2.11,0,0,0-2.38-1.93c-1.32,0-2.14.71-2.14,1.57,0,2.66,5.81,1.24,5.87,4.72C265.46,49.69,264.07,50.86,262,50.86Z"/><path class="a63c9a66-dcab-4eaa-90f0-fef315c52c0a" d="M267.48,38.1a.92.92,0,1,1,.92.93A.91.91,0,0,1,267.48,38.1Zm.29,2.79H269v9.83h-1.26Z"/><path class="a63c9a66-dcab-4eaa-90f0-fef315c52c0a" d="M272.12,42h-1.36V40.89h1.36V38.42h1.28v2.47h2.7V42h-2.7v6.1c0,1.21.42,1.59,1.55,1.59h1.15v1.08h-1.35c-1.71,0-2.63-.7-2.63-2.67Z"/><path class="a63c9a66-dcab-4eaa-90f0-fef315c52c0a" d="M285.34,40.89h1.3L280.8,55.35h-1.31l1.91-4.69-4-9.77h1.39l3.35,8.39Z"/><path class="a63c9a66-dcab-4eaa-90f0-fef315c52c0a" d="M297.09,50.84c-2.52,0-4.17-1.44-4.25-3.36h1.34a2.61,2.61,0,0,0,2.91,2.3c1.75,0,2.78-1,2.78-2.32,0-3.71-6.92-1.37-6.92-6.1,0-2,1.6-3.37,4-3.37s3.83,1.33,4.05,3.06h-1.37a2.58,2.58,0,0,0-2.74-2c-1.47,0-2.7.79-2.7,2.25,0,3.64,6.91,1.4,6.91,6.09C301.14,49.12,299.76,50.84,297.09,50.84Z"/><path class="a63c9a66-dcab-4eaa-90f0-fef315c52c0a" d="M307.63,40.74a4.25,4.25,0,0,1,4.52,3.35H310.8a3,3,0,0,0-3.17-2.27c-1.93,0-3.49,1.32-3.49,4s1.56,4,3.49,4a3,3,0,0,0,3.17-2.29h1.35a4.3,4.3,0,0,1-4.52,3.35c-2.77,0-4.77-1.94-4.77-5.06S304.86,40.74,307.63,40.74Z"/><path class="a63c9a66-dcab-4eaa-90f0-fef315c52c0a" d="M318.63,50.86a4.73,4.73,0,0,1-4.88-5.06,4.92,4.92,0,1,1,9.83,0A4.79,4.79,0,0,1,318.63,50.86Zm0-1.1a3.61,3.61,0,0,0,3.65-4c0-2.7-1.76-4-3.64-4S315,43.1,315,45.8,316.75,49.76,318.63,49.76Z"/><path class="a63c9a66-dcab-4eaa-90f0-fef315c52c0a" d="M327.12,50.72h-1.26V40.89h1.26v1.74a3.39,3.39,0,0,1,3.37-1.92V42h-.35c-1.63,0-3,.74-3,3.21Z"/><path class="a63c9a66-dcab-4eaa-90f0-fef315c52c0a" d="M336.2,50.86a4.69,4.69,0,0,1-4.83-5.06c0-3.13,2-5.06,4.83-5.06a4.42,4.42,0,0,1,4.64,4.56c0,.39,0,.65,0,1h-8.16a3.44,3.44,0,0,0,3.55,3.51,3,3,0,0,0,3.17-2.2h1.33A4.32,4.32,0,0,1,336.2,50.86Zm-3.55-5.6h6.91a3.21,3.21,0,0,0-3.42-3.44A3.4,3.4,0,0,0,332.65,45.26Z"/><path class="a63c9a66-dcab-4eaa-90f0-fef315c52c0a" d="M25.66,68.29H27L31.8,79.06l4.8-10.77H38V80.72H36.69V70.8l-4.43,9.92h-.91l-4.43-9.89v9.89H25.66Z"/><path class="a63c9a66-dcab-4eaa-90f0-fef315c52c0a" d="M45,70.74a4.11,4.11,0,0,1,3.89,2.31V70.89h1.26v9.83H48.89V78.54A4.16,4.16,0,0,1,45,80.86c-2.68,0-4.68-2-4.68-5.08S42.3,70.74,45,70.74Zm.23,1.1c-2.07,0-3.65,1.44-3.65,3.94s1.58,4,3.65,4a4,4,0,0,0,0-7.92Z"/><path class="a63c9a66-dcab-4eaa-90f0-fef315c52c0a" d="M53.28,72H51.91V70.89h1.37V68.42h1.28v2.47h2.7V72h-2.7v6.1c0,1.21.41,1.59,1.54,1.59h1.16v1.08H55.91c-1.71,0-2.63-.7-2.63-2.67Z"/><path class="a63c9a66-dcab-4eaa-90f0-fef315c52c0a" d="M63,70.74a4.25,4.25,0,0,1,4.52,3.35H66.17A3,3,0,0,0,63,71.82c-1.92,0-3.49,1.32-3.49,4s1.57,4,3.49,4a3,3,0,0,0,3.17-2.29h1.35A4.3,4.3,0,0,1,63,80.86c-2.77,0-4.77-1.94-4.77-5.06S60.23,70.74,63,70.74Z"/><path class="a63c9a66-dcab-4eaa-90f0-fef315c52c0a" d="M69.74,67.39H71v5.17a3.7,3.7,0,0,1,3.42-1.85c2.18,0,3.92,1.37,3.92,4.25v5.76H77.1V75.1c0-2.18-1.19-3.29-3-3.29S71,73,71,75.35v5.37H69.74Z"/><path class="a63c9a66-dcab-4eaa-90f0-fef315c52c0a" d="M80.77,68.1a.92.92,0,1,1,1.84,0,.92.92,0,1,1-1.84,0Zm.29,2.79h1.26v9.83H81.06Z"/><path class="a63c9a66-dcab-4eaa-90f0-fef315c52c0a" d="M92.49,75.1c0-2.18-1.19-3.29-3-3.29S86.39,73,86.39,75.35v5.37H85.12V70.89h1.27v1.67a3.59,3.59,0,0,1,3.34-1.85c2.24,0,4,1.37,4,4.25v5.76H92.49Z"/><path class="a63c9a66-dcab-4eaa-90f0-fef315c52c0a" d="M100.59,70.74A4.14,4.14,0,0,1,104.48,73V70.89h1.26V81a4.35,4.35,0,0,1-4.59,4.57c-2.54,0-4.31-1.29-4.7-3.35h1.24a3.36,3.36,0,0,0,3.46,2.26A3.21,3.21,0,0,0,104.48,81V78.54a4.15,4.15,0,0,1-3.89,2.32c-2.7,0-4.7-2-4.7-5.08S97.89,70.74,100.59,70.74Zm.23,1.1c-2.07,0-3.65,1.44-3.65,3.94s1.58,4,3.65,4a4,4,0,0,0,0-7.92Z"/><path class="a63c9a66-dcab-4eaa-90f0-fef315c52c0a" d="M117.44,84.07a14.1,14.1,0,0,1-3.64-10,14,14,0,0,1,3.83-10.17H119V64a14.83,14.83,0,0,0-.18,19.91v.13Z"/><path class="a63c9a66-dcab-4eaa-90f0-fef315c52c0a" d="M123.66,75.35h-2.54v5.37h-1.26V68.13h3.8c2.91,0,4.24,1.55,4.24,3.62S126.61,75.35,123.66,75.35Zm0-1.08c2.12,0,3-1,3-2.52s-.83-2.56-3-2.56h-2.54v5.08Z"/><path class="a63c9a66-dcab-4eaa-90f0-fef315c52c0a" d="M133.74,80.84c-2.52,0-4.18-1.44-4.25-3.36h1.33a2.62,2.62,0,0,0,2.92,2.3c1.75,0,2.77-1,2.77-2.32,0-3.71-6.91-1.37-6.91-6.1,0-2,1.6-3.37,4-3.37s3.84,1.33,4.05,3.06h-1.36a2.58,2.58,0,0,0-2.74-2c-1.48,0-2.7.79-2.7,2.25,0,3.64,6.91,1.4,6.91,6.09C137.79,79.12,136.41,80.84,133.74,80.84Z"/><path class="a63c9a66-dcab-4eaa-90f0-fef315c52c0a" d="M140.23,68.29h1.33l4.81,10.77,4.81-10.77h1.35V80.72h-1.27V70.8l-4.42,9.92h-.92l-4.43-9.89v9.89h-1.26Z"/><path class="a63c9a66-dcab-4eaa-90f0-fef315c52c0a" d="M153.63,84.07v-.13A14.85,14.85,0,0,0,153.45,64V63.9h1.31a14,14,0,0,1,3.84,10.17,14.1,14.1,0,0,1-3.64,10Z"/><path class="a63c9a66-dcab-4eaa-90f0-fef315c52c0a" d="M170.86,70.74a4.24,4.24,0,0,1,4.51,3.35H174a3,3,0,0,0-3.16-2.27c-1.93,0-3.5,1.32-3.5,4s1.57,4,3.5,4A3,3,0,0,0,174,77.51h1.35a4.29,4.29,0,0,1-4.51,3.35c-2.78,0-4.78-1.94-4.78-5.06S168.08,70.74,170.86,70.74Z"/><path class="a63c9a66-dcab-4eaa-90f0-fef315c52c0a" d="M181.85,80.86a5.06,5.06,0,1,1,5-5.06A4.79,4.79,0,0,1,181.85,80.86Zm0-1.1a4,4,0,0,0,0-7.92c-1.87,0-3.62,1.26-3.62,4S180,79.76,181.85,79.76Z"/><path class="a63c9a66-dcab-4eaa-90f0-fef315c52c0a" d="M196.45,75.1c0-2.18-1.19-3.29-3-3.29s-3.12,1.15-3.12,3.54v5.37h-1.26V70.89h1.26v1.67a3.6,3.6,0,0,1,3.35-1.85c2.23,0,4,1.37,4,4.25v5.76h-1.24Z"/><path class="a63c9a66-dcab-4eaa-90f0-fef315c52c0a" d="M203.78,80.86c-2.24,0-3.8-1.11-4-2.91h1.29c.11,1.08,1,1.85,2.65,1.85,1.4,0,2.2-.76,2.2-1.69,0-2.43-5.91-1-5.91-4.7,0-1.46,1.39-2.67,3.46-2.67s3.49,1.12,3.6,3h-1.26a2.1,2.1,0,0,0-2.38-1.93c-1.31,0-2.14.71-2.14,1.57,0,2.66,5.81,1.24,5.87,4.72C207.2,79.69,205.81,80.86,203.78,80.86Z"/><path class="a63c9a66-dcab-4eaa-90f0-fef315c52c0a" d="M209.76,72h-1.37V70.89h1.37V68.42H211v2.47h2.7V72H211v6.1c0,1.21.41,1.59,1.55,1.59h1.15v1.08h-1.35c-1.71,0-2.63-.7-2.63-2.67Z"/><path class="a63c9a66-dcab-4eaa-90f0-fef315c52c0a" d="M216.84,80.72h-1.26V70.89h1.26v1.74a3.39,3.39,0,0,1,3.37-1.92V72h-.34c-1.64,0-3,.74-3,3.21Z"/><path class="a63c9a66-dcab-4eaa-90f0-fef315c52c0a" d="M230.52,80.72h-1.26V79a3.55,3.55,0,0,1-3.35,1.89c-2.23,0-4-1.37-4-4.25V70.89h1.24v5.6c0,2.18,1.19,3.29,3,3.29s3.11-1.15,3.11-3.54V70.89h1.26Z"/><path class="a63c9a66-dcab-4eaa-90f0-fef315c52c0a" d="M240.17,70.89h1.3l-5.84,14.46h-1.31l1.91-4.69-4-9.77h1.39l3.35,8.39Z"/><path class="a63c9a66-dcab-4eaa-90f0-fef315c52c0a" d="M247,80.86a4.69,4.69,0,0,1-4.83-5.06c0-3.13,2-5.06,4.83-5.06a4.42,4.42,0,0,1,4.64,4.56c0,.39,0,.65,0,1h-8.16A3.44,3.44,0,0,0,247,79.8a3,3,0,0,0,3.16-2.2h1.34A4.32,4.32,0,0,1,247,80.86Zm-3.55-5.6h6.91A3.21,3.21,0,0,0,247,71.82,3.4,3.4,0,0,0,243.46,75.26Z"/><path class="a63c9a66-dcab-4eaa-90f0-fef315c52c0a" d="M267.4,80.72h-1.26V79a3.55,3.55,0,0,1-3.35,1.89c-2.23,0-4-1.37-4-4.25V70.89H260v5.6c0,2.18,1.18,3.29,3,3.29s3.11-1.15,3.11-3.54V70.89h1.26Z"/><path class="a63c9a66-dcab-4eaa-90f0-fef315c52c0a" d="M277.58,75.1c0-2.18-1.18-3.29-3-3.29s-3.12,1.15-3.12,3.54v5.37h-1.26V70.89h1.26v1.67a3.6,3.6,0,0,1,3.35-1.85c2.23,0,4,1.37,4,4.25v5.76h-1.25Z"/><path class="a63c9a66-dcab-4eaa-90f0-fef315c52c0a" d="M290.67,70.74A4.14,4.14,0,0,1,294.56,73V70.89h1.26V81a4.35,4.35,0,0,1-4.59,4.57c-2.54,0-4.31-1.29-4.7-3.35h1.24a3.36,3.36,0,0,0,3.46,2.26A3.21,3.21,0,0,0,294.56,81V78.54a4.15,4.15,0,0,1-3.89,2.32c-2.7,0-4.7-2-4.7-5.08S288,70.74,290.67,70.74Zm.23,1.1c-2.07,0-3.65,1.44-3.65,3.94s1.58,4,3.65,4a4,4,0,0,0,0-7.92Z"/><path class="a63c9a66-dcab-4eaa-90f0-fef315c52c0a" d="M299.91,80.72h-1.26V70.89h1.26v1.74a3.38,3.38,0,0,1,3.36-1.92V72h-.34c-1.64,0-3,.74-3,3.21Z"/><path class="a63c9a66-dcab-4eaa-90f0-fef315c52c0a" d="M313.59,80.72h-1.26V79A3.55,3.55,0,0,1,309,80.88c-2.23,0-4-1.37-4-4.25V70.89h1.25v5.6c0,2.18,1.18,3.29,3,3.29s3.12-1.15,3.12-3.54V70.89h1.26Z"/><path class="a63c9a66-dcab-4eaa-90f0-fef315c52c0a" d="M321.56,70.74c2.68,0,4.68,2,4.68,5s-2,5.08-4.68,5.08a4.22,4.22,0,0,1-3.91-2.3v6.8h-1.24V70.89h1.24v2.16A4.19,4.19,0,0,1,321.56,70.74Zm-.25,1.1a4,4,0,0,0,0,7.92c2.07,0,3.65-1.49,3.65-4S323.38,71.84,321.31,71.84Z"/><path class="a63c9a66-dcab-4eaa-90f0-fef315c52c0a" d="M332.86,80.86a5.06,5.06,0,1,1,4.95-5.06A4.79,4.79,0,0,1,332.86,80.86Zm0-1.1a4,4,0,0,0,0-7.92c-1.87,0-3.62,1.26-3.62,4S331,79.76,332.86,79.76Z"/><path class="a63c9a66-dcab-4eaa-90f0-fef315c52c0a" d="M29.85,100.74a4.25,4.25,0,0,1,4.52,3.35H33a3,3,0,0,0-3.17-2.27c-1.93,0-3.49,1.32-3.49,4s1.56,4,3.49,4A3,3,0,0,0,33,107.51h1.35a4.3,4.3,0,0,1-4.52,3.35c-2.77,0-4.77-1.94-4.77-5.06S27.08,100.74,29.85,100.74Z"/><path class="a63c9a66-dcab-4eaa-90f0-fef315c52c0a" d="M40.85,110.86a5.06,5.06,0,1,1,4.95-5.06A4.79,4.79,0,0,1,40.85,110.86Zm0-1.1a3.61,3.61,0,0,0,3.65-4c0-2.7-1.76-4-3.63-4s-3.62,1.26-3.62,4S39,109.76,40.85,109.76Z"/><path class="a63c9a66-dcab-4eaa-90f0-fef315c52c0a" d="M55.44,105.1c0-2.18-1.19-3.29-3-3.29s-3.11,1.15-3.11,3.54v5.37H48.08v-9.83h1.26v1.67a3.6,3.6,0,0,1,3.35-1.85c2.23,0,4,1.37,4,4.25v5.76H55.44Z"/><path class="a63c9a66-dcab-4eaa-90f0-fef315c52c0a" d="M59.56,102H58.19v-1.06h1.37V98.42h1.28v2.47h2.7V102h-2.7v6.1c0,1.21.42,1.59,1.55,1.59h1.15v1.08H62.19c-1.71,0-2.63-.7-2.63-2.67Z"/><path class="a63c9a66-dcab-4eaa-90f0-fef315c52c0a" d="M66.64,110.72H65.38v-9.83h1.26v1.74A3.4,3.4,0,0,1,70,100.71V102h-.34c-1.64,0-3,.74-3,3.21Z"/><path class="a63c9a66-dcab-4eaa-90f0-fef315c52c0a" d="M75.74,110.86a5.06,5.06,0,1,1,5-5.06A4.79,4.79,0,0,1,75.74,110.86Zm0-1.1a4,4,0,0,0,0-7.92c-1.87,0-3.62,1.26-3.62,4S73.87,109.76,75.74,109.76Z"/><path class="a63c9a66-dcab-4eaa-90f0-fef315c52c0a" d="M83,97.39h1.26v13.33H83Z"/><path class="a63c9a66-dcab-4eaa-90f0-fef315c52c0a" d="M93.56,98.13l-1,3.89H91.06l1.59-3.89Zm2.65,0-1,3.89H93.71l1.58-3.89Z"/><path class="a63c9a66-dcab-4eaa-90f0-fef315c52c0a" d="M101.86,100.74a4.11,4.11,0,0,1,3.89,2.31v-2.16H107v9.83h-1.26v-2.18a4.15,4.15,0,0,1-3.91,2.32c-2.68,0-4.68-2-4.68-5.08S99.16,100.74,101.86,100.74Zm.24,1.1a3.59,3.59,0,0,0-3.66,3.94c0,2.49,1.58,4,3.66,4a4,4,0,0,0,0-7.92Z"/><path class="a63c9a66-dcab-4eaa-90f0-fef315c52c0a" d="M111.1,110.72h-1.26v-9.83h1.26v1.74a3.39,3.39,0,0,1,3.37-1.92V102h-.35c-1.63,0-3,.74-3,3.21Z"/><path class="a63c9a66-dcab-4eaa-90f0-fef315c52c0a" d="M117.09,102h-1.37v-1.06h1.37V98.42h1.28v2.47h2.7V102h-2.7v6.1c0,1.21.41,1.59,1.54,1.59h1.16v1.08h-1.35c-1.71,0-2.63-.7-2.63-2.67Z"/><path class="a63c9a66-dcab-4eaa-90f0-fef315c52c0a" d="M122.62,98.1a.92.92,0,1,1,1.84,0,.92.92,0,1,1-1.84,0Zm.29,2.79h1.26v9.83h-1.26Z"/><path class="a63c9a66-dcab-4eaa-90f0-fef315c52c0a" d="M127.24,102h-1.36v-1.06h1.36v-.69c0-2.1,1-3.11,3.48-3.11v1.08c-1.68,0-2.22.61-2.22,2v.69h2.29V102H128.5v8.77h-1.26Z"/><path class="a63c9a66-dcab-4eaa-90f0-fef315c52c0a" d="M132.41,98.1a.92.92,0,1,1,1.84,0,.92.92,0,1,1-1.84,0Zm.29,2.79H134v9.83H132.7Z"/><path class="a63c9a66-dcab-4eaa-90f0-fef315c52c0a" d="M140.94,100.74a4.25,4.25,0,0,1,4.52,3.35h-1.35a3,3,0,0,0-3.17-2.27c-1.92,0-3.49,1.32-3.49,4s1.57,4,3.49,4a3,3,0,0,0,3.17-2.29h1.35a4.3,4.3,0,0,1-4.52,3.35c-2.77,0-4.77-1.94-4.77-5.06S138.17,100.74,140.94,100.74Z"/><path class="a63c9a66-dcab-4eaa-90f0-fef315c52c0a" d="M147.38,98.1a.92.92,0,1,1,1.84,0,.92.92,0,1,1-1.84,0Zm.29,2.79h1.26v9.83h-1.26Z"/><path class="a63c9a66-dcab-4eaa-90f0-fef315c52c0a" d="M155.84,100.74a4.11,4.11,0,0,1,3.89,2.31v-2.16H161v9.83h-1.26v-2.18a4.15,4.15,0,0,1-3.91,2.32c-2.68,0-4.68-2-4.68-5.08S153.14,100.74,155.84,100.74Zm.24,1.1a3.59,3.59,0,0,0-3.66,3.94c0,2.49,1.58,4,3.66,4a4,4,0,0,0,0-7.92Z"/><path class="a63c9a66-dcab-4eaa-90f0-fef315c52c0a" d="M163.82,97.39h1.26v13.33h-1.26Z"/><path class="a63c9a66-dcab-4eaa-90f0-fef315c52c0a" d="M167.46,102l1-3.89H170L168.38,102Zm2.65,0,1-3.89h1.46L171,102Z"/><path class="a63c9a66-dcab-4eaa-90f0-fef315c52c0a" d="M173.31,108.63h1.4l-1.85,4.72H172Z"/><path class="a63c9a66-dcab-4eaa-90f0-fef315c52c0a" d="M196,105.1c0-2.18-1.14-3.29-2.88-3.29s-3,1.18-3,3.58v5.33h-1.24V105.1c0-2.18-1.15-3.29-2.9-3.29s-3,1.18-3,3.58v5.33h-1.26v-9.83h1.26v1.69a3.51,3.51,0,0,1,3.26-1.87,3.62,3.62,0,0,1,3.63,2.41,3.58,3.58,0,0,1,3.55-2.41c2.18,0,3.91,1.37,3.91,4.25v5.76H196Z"/><path class="a63c9a66-dcab-4eaa-90f0-fef315c52c0a" d="M208.45,110.72h-1.26V109a3.56,3.56,0,0,1-3.35,1.89c-2.23,0-4-1.37-4-4.25v-5.74h1.24v5.6c0,2.18,1.19,3.29,3,3.29s3.12-1.15,3.12-3.54v-5.35h1.26Z"/><path class="a63c9a66-dcab-4eaa-90f0-fef315c52c0a" d="M218.1,100.89h1.29l-5.83,14.46h-1.32l1.91-4.69-4-9.77h1.39l3.34,8.39Z"/><path class="a63c9a66-dcab-4eaa-90f0-fef315c52c0a" d="M229.42,110.86c-2.24,0-3.8-1.11-4-2.91h1.29c.11,1.08,1.05,1.85,2.65,1.85,1.4,0,2.2-.76,2.2-1.69,0-2.43-5.91-1-5.91-4.7,0-1.46,1.39-2.67,3.46-2.67s3.49,1.12,3.6,3h-1.26a2.11,2.11,0,0,0-2.38-1.93c-1.31,0-2.14.71-2.14,1.57,0,2.66,5.81,1.24,5.87,4.72C232.84,109.69,231.45,110.86,229.42,110.86Z"/><path class="a63c9a66-dcab-4eaa-90f0-fef315c52c0a" d="M234.86,98.1a.92.92,0,1,1,.92.93A.91.91,0,0,1,234.86,98.1Zm.29,2.79h1.26v9.83h-1.26Z"/><path class="a63c9a66-dcab-4eaa-90f0-fef315c52c0a" d="M253.59,105.1c0-2.18-1.14-3.29-2.88-3.29s-3.05,1.18-3.05,3.58v5.33h-1.24V105.1c0-2.18-1.15-3.29-2.9-3.29s-3,1.18-3,3.58v5.33h-1.26v-9.83h1.26v1.69a3.51,3.51,0,0,1,3.26-1.87,3.64,3.64,0,0,1,3.64,2.41,3.58,3.58,0,0,1,3.54-2.41c2.18,0,3.91,1.37,3.91,4.25v5.76h-1.24Z"/><path class="a63c9a66-dcab-4eaa-90f0-fef315c52c0a" d="M257.28,98.1a.92.92,0,1,1,.92.93A.91.91,0,0,1,257.28,98.1Zm.29,2.79h1.26v9.83h-1.26Z"/><path class="a63c9a66-dcab-4eaa-90f0-fef315c52c0a" d="M261.63,97.39h1.26v13.33h-1.26Z"/><path class="a63c9a66-dcab-4eaa-90f0-fef315c52c0a" d="M269.85,100.74a4.11,4.11,0,0,1,3.89,2.31v-2.16H275v9.83h-1.26v-2.18a4.14,4.14,0,0,1-3.9,2.32c-2.69,0-4.69-2-4.69-5.08S267.15,100.74,269.85,100.74Zm.24,1.1a3.59,3.59,0,0,0-3.66,3.94c0,2.49,1.59,4,3.66,4a4,4,0,0,0,0-7.92Z"/><path class="a63c9a66-dcab-4eaa-90f0-fef315c52c0a" d="M279.09,110.72h-1.26v-9.83h1.26v1.74a3.4,3.4,0,0,1,3.37-1.92V102h-.34c-1.64,0-3,.74-3,3.21Z"/><path class="a63c9a66-dcab-4eaa-90f0-fef315c52c0a" d="M293.4,100.74a4.11,4.11,0,0,1,3.89,2.31v-2.16h1.26v9.83h-1.26v-2.18a4.14,4.14,0,0,1-3.91,2.32c-2.68,0-4.68-2-4.68-5.08S290.7,100.74,293.4,100.74Zm.24,1.1a3.59,3.59,0,0,0-3.66,3.94c0,2.49,1.59,4,3.66,4a4,4,0,0,0,0-7.92Z"/><path class="a63c9a66-dcab-4eaa-90f0-fef315c52c0a" d="M301.38,97.39h1.26v13.33h-1.26Z"/><path class="a63c9a66-dcab-4eaa-90f0-fef315c52c0a" d="M314.56,100.74a4.12,4.12,0,0,1,3.88,2.29v-2.14h1.27V111a4.35,4.35,0,0,1-4.6,4.57c-2.54,0-4.3-1.29-4.7-3.35h1.25a3.35,3.35,0,0,0,3.45,2.26,3.21,3.21,0,0,0,3.33-3.48v-2.43a4.13,4.13,0,0,1-3.88,2.32c-2.71,0-4.7-2-4.7-5.08S311.85,100.74,314.56,100.74Zm.23,1.1a3.59,3.59,0,0,0-3.66,3.94c0,2.49,1.59,4,3.66,4a4,4,0,0,0,0-7.92Z"/><path class="a63c9a66-dcab-4eaa-90f0-fef315c52c0a" d="M323.79,110.72h-1.26v-9.83h1.26v1.74a3.4,3.4,0,0,1,3.37-1.92V102h-.34c-1.64,0-3,.74-3,3.21Z"/><path class="a63c9a66-dcab-4eaa-90f0-fef315c52c0a" d="M337.48,110.72h-1.26V109a3.56,3.56,0,0,1-3.35,1.89c-2.24,0-4-1.37-4-4.25v-5.74h1.24v5.6c0,2.18,1.19,3.29,3,3.29s3.12-1.15,3.12-3.54v-5.35h1.26Z"/><path class="a63c9a66-dcab-4eaa-90f0-fef315c52c0a" d="M345.45,100.74c2.68,0,4.68,2,4.68,5s-2,5.08-4.68,5.08a4.19,4.19,0,0,1-3.91-2.3v6.8H340.3V100.89h1.24v2.16A4.17,4.17,0,0,1,345.45,100.74Zm-.26,1.1a4,4,0,0,0,0,7.92c2.07,0,3.66-1.49,3.66-4A3.59,3.59,0,0,0,345.19,101.84Z"/><path class="a63c9a66-dcab-4eaa-90f0-fef315c52c0a" d="M356.75,110.86a5.06,5.06,0,1,1,4.95-5.06A4.79,4.79,0,0,1,356.75,110.86Zm0-1.1a3.61,3.61,0,0,0,3.65-4c0-2.7-1.76-4-3.63-4s-3.62,1.26-3.62,4S354.88,109.76,356.75,109.76Z"/><path class="a63c9a66-dcab-4eaa-90f0-fef315c52c0a" d="M26,132H24.65v-1.06H26v-2.47h1.27v2.47H30V132H27.29v6.1c0,1.21.42,1.59,1.55,1.59H30v1.08H28.64c-1.71,0-2.62-.7-2.62-2.67Z"/><path class="a63c9a66-dcab-4eaa-90f0-fef315c52c0a" d="M33.1,140.72H31.84v-9.83H33.1v1.74a3.38,3.38,0,0,1,3.36-1.92V132h-.34c-1.64,0-3,.74-3,3.21Z"/><path class="a63c9a66-dcab-4eaa-90f0-fef315c52c0a" d="M42.05,130.74a4.11,4.11,0,0,1,3.89,2.31v-2.16H47.2v9.83H45.94v-2.18A4.16,4.16,0,0,1,42,140.86c-2.68,0-4.68-2-4.68-5.08S39.35,130.74,42.05,130.74Zm.23,1.1c-2.07,0-3.65,1.44-3.65,3.94s1.58,4,3.65,4a4,4,0,0,0,0-7.92Z"/><path class="a63c9a66-dcab-4eaa-90f0-fef315c52c0a" d="M50.33,132H49v-1.06h1.37v-2.47h1.28v2.47h2.7V132h-2.7v6.1c0,1.21.41,1.59,1.55,1.59h1.15v1.08H53c-1.71,0-2.63-.7-2.63-2.67Z"/><path class="a63c9a66-dcab-4eaa-90f0-fef315c52c0a" d="M60,130.74a4.11,4.11,0,0,1,3.89,2.31v-2.16h1.26v9.83H63.86v-2.18a4.14,4.14,0,0,1-3.9,2.32c-2.69,0-4.69-2-4.69-5.08S57.27,130.74,60,130.74Zm.24,1.1a3.59,3.59,0,0,0-3.66,3.94c0,2.49,1.59,4,3.66,4a4,4,0,0,0,0-7.92Z"/><path class="a63c9a66-dcab-4eaa-90f0-fef315c52c0a" d="M72.12,130.74A4.29,4.29,0,0,1,76,133v-5.62h1.26v13.33H76v-2.2a4.09,4.09,0,0,1-3.89,2.34c-2.7,0-4.7-2-4.7-5.08S69.4,130.74,72.12,130.74Zm.22,1.1a3.59,3.59,0,0,0-3.66,3.94c0,2.49,1.59,4,3.66,4a4,4,0,0,0,0-7.92Z"/><path class="a63c9a66-dcab-4eaa-90f0-fef315c52c0a" d="M84.41,140.86a5.06,5.06,0,1,1,5-5.06A4.79,4.79,0,0,1,84.41,140.86Zm0-1.1a4,4,0,0,0,0-7.92c-1.87,0-3.62,1.26-3.62,4S82.54,139.76,84.41,139.76Z"/><path class="a63c9a66-dcab-4eaa-90f0-fef315c52c0a" d="M91.28,138.63h1.4l-1.85,4.72H90Z"/><path class="a63c9a66-dcab-4eaa-90f0-fef315c52c0a" d="M108.09,140.72h-1.26V139a3.55,3.55,0,0,1-3.35,1.89c-2.23,0-4-1.37-4-4.25v-5.74h1.24v5.6c0,2.18,1.19,3.29,3,3.29s3.11-1.15,3.11-3.54v-5.35h1.26Z"/><path class="a63c9a66-dcab-4eaa-90f0-fef315c52c0a" d="M114.29,140.86c-2.23,0-3.8-1.11-4-2.91h1.3c.1,1.08,1,1.85,2.64,1.85,1.41,0,2.2-.76,2.2-1.69,0-2.43-5.91-1-5.91-4.7,0-1.46,1.39-2.67,3.46-2.67s3.49,1.12,3.6,3h-1.26a2.1,2.1,0,0,0-2.37-1.93c-1.32,0-2.15.71-2.15,1.57,0,2.66,5.82,1.24,5.87,4.72C117.71,139.69,116.33,140.86,114.29,140.86Z"/><path class="a63c9a66-dcab-4eaa-90f0-fef315c52c0a" d="M124.13,130.74a4.11,4.11,0,0,1,3.89,2.31v-2.16h1.26v9.83H128v-2.18a4.16,4.16,0,0,1-3.91,2.32c-2.68,0-4.68-2-4.68-5.08S121.43,130.74,124.13,130.74Zm.23,1.1c-2.07,0-3.65,1.44-3.65,3.94s1.58,4,3.65,4a4,4,0,0,0,0-7.92Z"/><path class="a63c9a66-dcab-4eaa-90f0-fef315c52c0a" d="M139.47,135.1c0-2.18-1.19-3.29-3-3.29s-3.11,1.15-3.11,3.54v5.37h-1.26v-9.83h1.26v1.67a3.6,3.6,0,0,1,3.35-1.85c2.23,0,4,1.37,4,4.25v5.76h-1.24Z"/><path class="a63c9a66-dcab-4eaa-90f0-fef315c52c0a" d="M147.59,130.74a4.28,4.28,0,0,1,3.87,2.27v-5.62h1.26v13.33h-1.26v-2.2a4.08,4.08,0,0,1-3.89,2.34c-2.7,0-4.69-2-4.69-5.08S144.87,130.74,147.59,130.74Zm.22,1.1a3.59,3.59,0,0,0-3.66,3.94c0,2.49,1.59,4,3.66,4a4,4,0,0,0,0-7.92Z"/><path class="a63c9a66-dcab-4eaa-90f0-fef315c52c0a" d="M159.88,140.86a5.06,5.06,0,1,1,5-5.06A4.79,4.79,0,0,1,159.88,140.86Zm0-1.1a4,4,0,0,0,0-7.92c-1.87,0-3.62,1.26-3.62,4S158,139.76,159.88,139.76Z"/><path class="a63c9a66-dcab-4eaa-90f0-fef315c52c0a" d="M172.07,127.39h1.26v13.33h-1.26Z"/><path class="a63c9a66-dcab-4eaa-90f0-fef315c52c0a" d="M180.29,130.74a4.11,4.11,0,0,1,3.89,2.31v-2.16h1.26v9.83h-1.26v-2.18a4.14,4.14,0,0,1-3.9,2.32c-2.69,0-4.69-2-4.69-5.08S177.59,130.74,180.29,130.74Zm.24,1.1a3.59,3.59,0,0,0-3.66,3.94c0,2.49,1.59,4,3.66,4a4,4,0,0,0,0-7.92Z"/><path class="a63c9a66-dcab-4eaa-90f0-fef315c52c0a" d="M191.65,140.86c-2.23,0-3.8-1.11-4-2.91H189c.1,1.08,1,1.85,2.64,1.85,1.41,0,2.2-.76,2.2-1.69,0-2.43-5.91-1-5.91-4.7,0-1.46,1.39-2.67,3.46-2.67s3.49,1.12,3.6,3h-1.26a2.1,2.1,0,0,0-2.37-1.93c-1.32,0-2.15.71-2.15,1.57,0,2.66,5.82,1.24,5.87,4.72C195.07,139.69,193.69,140.86,191.65,140.86Z"/><path class="a63c9a66-dcab-4eaa-90f0-fef315c52c0a" d="M202.56,130.89l3.31,8.6,3.31-8.6h1.34l-4,9.83h-1.42l-3.94-9.83Z"/><path class="a63c9a66-dcab-4eaa-90f0-fef315c52c0a" d="M215.93,130.74a4.09,4.09,0,0,1,3.88,2.31v-2.16h1.26v9.83h-1.26v-2.18a4.14,4.14,0,0,1-3.9,2.32c-2.69,0-4.68-2-4.68-5.08S213.22,130.74,215.93,130.74Zm.23,1.1a3.59,3.59,0,0,0-3.66,3.94c0,2.49,1.59,4,3.66,4a4,4,0,0,0,0-7.92Z"/><path class="a63c9a66-dcab-4eaa-90f0-fef315c52c0a" d="M225.16,140.72H223.9v-9.83h1.26v1.74a3.4,3.4,0,0,1,3.37-1.92V132h-.34c-1.64,0-3,.74-3,3.21Z"/><path class="a63c9a66-dcab-4eaa-90f0-fef315c52c0a" d="M230,128.1a.92.92,0,1,1,.92.93A.91.91,0,0,1,230,128.1Zm.29,2.79h1.26v9.83h-1.26Z"/><path class="a63c9a66-dcab-4eaa-90f0-fef315c52c0a" d="M238.46,130.74a4.09,4.09,0,0,1,3.88,2.31v-2.16h1.27v9.83h-1.27v-2.18a4.14,4.14,0,0,1-3.9,2.32c-2.69,0-4.68-2-4.68-5.08S235.75,130.74,238.46,130.74Zm.23,1.1a3.59,3.59,0,0,0-3.66,3.94c0,2.49,1.59,4,3.66,4a4,4,0,0,0,0-7.92Z"/><path class="a63c9a66-dcab-4eaa-90f0-fef315c52c0a" d="M251.58,130.74c2.7,0,4.68,2,4.68,5s-2,5.08-4.68,5.08a4.11,4.11,0,0,1-3.9-2.3v2.16h-1.25V127.39h1.25v5.68A4.16,4.16,0,0,1,251.58,130.74Zm-.25,1.1a4,4,0,0,0,0,7.92c2.07,0,3.66-1.49,3.66-4A3.59,3.59,0,0,0,251.33,131.84Z"/><path class="a63c9a66-dcab-4eaa-90f0-fef315c52c0a" d="M258.57,127.39h1.26v13.33h-1.26Z"/><path class="a63c9a66-dcab-4eaa-90f0-fef315c52c0a" d="M266.92,140.86c-2.79,0-4.82-1.94-4.82-5.06s2-5.06,4.82-5.06a4.43,4.43,0,0,1,4.65,4.56,7.79,7.79,0,0,1,0,1h-8.15a3.43,3.43,0,0,0,3.54,3.51,3,3,0,0,0,3.17-2.2h1.34A4.33,4.33,0,0,1,266.92,140.86Zm-3.54-5.6h6.91a3.21,3.21,0,0,0-3.42-3.44A3.4,3.4,0,0,0,263.38,135.26Z"/><path class="a63c9a66-dcab-4eaa-90f0-fef315c52c0a" d="M277.17,140.86c-2.23,0-3.8-1.11-4-2.91h1.3c.11,1.08,1,1.85,2.64,1.85,1.41,0,2.2-.76,2.2-1.69,0-2.43-5.9-1-5.9-4.7,0-1.46,1.38-2.67,3.45-2.67s3.5,1.12,3.6,3h-1.26a2.1,2.1,0,0,0-2.37-1.93c-1.32,0-2.15.71-2.15,1.57,0,2.66,5.82,1.24,5.87,4.72C280.59,139.69,279.21,140.86,277.17,140.86Z"/><path class="a63c9a66-dcab-4eaa-90f0-fef315c52c0a" d="M30,170.86a5.06,5.06,0,0,1,0-10.12,5.06,5.06,0,0,1,0,10.12Zm0-1.1a3.61,3.61,0,0,0,3.65-4c0-2.7-1.76-4-3.63-4s-3.62,1.26-3.62,4S28.09,169.76,30,169.76Z"/><path class="a63c9a66-dcab-4eaa-90f0-fef315c52c0a" d="M42.34,160.74c2.7,0,4.68,2,4.68,5s-2,5.08-4.68,5.08a4.14,4.14,0,0,1-3.91-2.3v2.16H37.19V157.39h1.24v5.68A4.18,4.18,0,0,1,42.34,160.74Zm-.25,1.1a4,4,0,0,0,0,7.92c2.07,0,3.65-1.49,3.65-4S44.16,161.84,42.09,161.84Z"/><path class="a63c9a66-dcab-4eaa-90f0-fef315c52c0a" d="M52.58,170.86c-2.23,0-3.79-1.11-4-2.91h1.3c.11,1.08,1,1.85,2.65,1.85,1.4,0,2.19-.76,2.19-1.69,0-2.43-5.9-1-5.9-4.7,0-1.46,1.38-2.67,3.45-2.67s3.5,1.12,3.61,3H54.66a2.11,2.11,0,0,0-2.38-1.93c-1.32,0-2.14.71-2.14,1.57,0,2.66,5.81,1.24,5.87,4.72C56,169.69,54.62,170.86,52.58,170.86Z"/><path class="a63c9a66-dcab-4eaa-90f0-fef315c52c0a" d="M62.55,170.86a4.69,4.69,0,0,1-4.83-5.06c0-3.13,2-5.06,4.83-5.06a4.42,4.42,0,0,1,4.64,4.56c0,.39,0,.65,0,1H59a3.44,3.44,0,0,0,3.55,3.51,3,3,0,0,0,3.17-2.2h1.33A4.32,4.32,0,0,1,62.55,170.86ZM59,165.26h6.91a3.21,3.21,0,0,0-3.42-3.44A3.4,3.4,0,0,0,59,165.26Z"/><path class="a63c9a66-dcab-4eaa-90f0-fef315c52c0a" d="M70.76,170.72H69.5v-9.83h1.26v1.74a3.4,3.4,0,0,1,3.37-1.92V162h-.34c-1.64,0-3,.74-3,3.21Z"/><path class="a63c9a66-dcab-4eaa-90f0-fef315c52c0a" d="M76.65,160.89l3.32,8.6,3.31-8.6h1.33l-3.94,9.83H79.25l-4-9.83Z"/><path class="a63c9a66-dcab-4eaa-90f0-fef315c52c0a" d="M90,160.74a4.11,4.11,0,0,1,3.89,2.31v-2.16h1.26v9.83H93.91v-2.18A4.15,4.15,0,0,1,90,170.86c-2.68,0-4.68-2-4.68-5.08S87.32,160.74,90,160.74Zm.24,1.1a3.59,3.59,0,0,0-3.66,3.94c0,2.49,1.58,4,3.66,4a4,4,0,0,0,0-7.92Z"/><path class="a63c9a66-dcab-4eaa-90f0-fef315c52c0a" d="M102.17,160.74A4.29,4.29,0,0,1,106,163v-5.62h1.26v13.33H106v-2.2a4.1,4.1,0,0,1-3.89,2.34c-2.7,0-4.7-2-4.7-5.08S99.45,160.74,102.17,160.74Zm.21,1.1c-2.07,0-3.65,1.44-3.65,3.94s1.58,4,3.65,4a4,4,0,0,0,0-7.92Z"/><path class="a63c9a66-dcab-4eaa-90f0-fef315c52c0a" d="M114.28,160.74a4.11,4.11,0,0,1,3.89,2.31v-2.16h1.26v9.83h-1.26v-2.18a4.16,4.16,0,0,1-3.91,2.32c-2.68,0-4.68-2-4.68-5.08S111.58,160.74,114.28,160.74Zm.23,1.1c-2.07,0-3.65,1.44-3.65,3.94s1.58,4,3.65,4a4,4,0,0,0,0-7.92Z"/><path class="a63c9a66-dcab-4eaa-90f0-fef315c52c0a" d="M125.64,170.86c-2.24,0-3.8-1.11-4-2.91H123c.11,1.08,1,1.85,2.65,1.85,1.4,0,2.19-.76,2.19-1.69,0-2.43-5.9-1-5.9-4.7,0-1.46,1.38-2.67,3.46-2.67s3.49,1.12,3.6,3h-1.26a2.11,2.11,0,0,0-2.38-1.93c-1.32,0-2.14.71-2.14,1.57,0,2.66,5.81,1.24,5.87,4.72C129.06,169.69,127.67,170.86,125.64,170.86Z"/><path class="a63c9a66-dcab-4eaa-90f0-fef315c52c0a" d="M131.86,170.81a.92.92,0,0,1-.92-.94.91.91,0,0,1,.92-.92.89.89,0,0,1,.9.92A.91.91,0,0,1,131.86,170.81Z"/><path class="a63c9a66-dcab-4eaa-90f0-fef315c52c0a" d="M141.11,158.13v11.56h4.52v1h-5.78V158.13Z"/><path class="a63c9a66-dcab-4eaa-90f0-fef315c52c0a" d="M151.08,160.74a4.09,4.09,0,0,1,3.88,2.31v-2.16h1.27v9.83H155v-2.18a4.14,4.14,0,0,1-3.9,2.32c-2.69,0-4.68-2-4.68-5.08S148.37,160.74,151.08,160.74Zm.23,1.1a3.59,3.59,0,0,0-3.66,3.94c0,2.49,1.59,4,3.66,4a4,4,0,0,0,0-7.92Z"/><path class="a63c9a66-dcab-4eaa-90f0-fef315c52c0a" d="M163.75,158.1a.92.92,0,1,1,1.83,0,.92.92,0,1,1-1.83,0Zm.28,2.79h1.26v9.83H164Z"/><path class="a63c9a66-dcab-4eaa-90f0-fef315c52c0a" d="M172.22,160.74A4.29,4.29,0,0,1,176.1,163v-5.62h1.26v13.33H176.1v-2.2a4.1,4.1,0,0,1-3.89,2.34c-2.7,0-4.7-2-4.7-5.08S169.51,160.74,172.22,160.74Zm.22,1.1c-2.07,0-3.65,1.44-3.65,3.94s1.58,4,3.65,4a4,4,0,0,0,0-7.92Z"/><path class="a63c9a66-dcab-4eaa-90f0-fef315c52c0a" d="M184.46,170.86c-2.79,0-4.82-1.94-4.82-5.06s2-5.06,4.82-5.06a4.43,4.43,0,0,1,4.65,4.56,7.79,7.79,0,0,1,0,1h-8.16a3.44,3.44,0,0,0,3.55,3.51,3,3,0,0,0,3.17-2.2H189A4.31,4.31,0,0,1,184.46,170.86Zm-3.55-5.6h6.92a3.22,3.22,0,0,0-3.42-3.44A3.4,3.4,0,0,0,180.91,165.26Z"/><path class="a63c9a66-dcab-4eaa-90f0-fef315c52c0a" d="M195.54,160.74a4.11,4.11,0,0,1,3.89,2.31v-2.16h1.26v9.83h-1.26v-2.18a4.16,4.16,0,0,1-3.91,2.32c-2.68,0-4.68-2-4.68-5.08S192.84,160.74,195.54,160.74Zm.23,1.1c-2.07,0-3.65,1.44-3.65,3.94s1.58,4,3.65,4a4,4,0,0,0,0-7.92Z"/><path class="a63c9a66-dcab-4eaa-90f0-fef315c52c0a" d="M213.65,160.74c2.7,0,4.68,2,4.68,5s-2,5.08-4.68,5.08a4.13,4.13,0,0,1-3.91-2.3v2.16H208.5V157.39h1.24v5.68A4.17,4.17,0,0,1,213.65,160.74Zm-.25,1.1a4,4,0,0,0,0,7.92c2.07,0,3.65-1.49,3.65-4S215.47,161.84,213.4,161.84Z"/><path class="a63c9a66-dcab-4eaa-90f0-fef315c52c0a" d="M224.77,160.74a4.11,4.11,0,0,1,3.89,2.31v-2.16h1.26v9.83h-1.26v-2.18a4.15,4.15,0,0,1-3.91,2.32c-2.68,0-4.68-2-4.68-5.08S222.07,160.74,224.77,160.74Zm.24,1.1a3.59,3.59,0,0,0-3.66,3.94c0,2.49,1.58,4,3.66,4a4,4,0,0,0,0-7.92Zm2-5V158l-3.69,2.14v-1Z"/><path class="a63c9a66-dcab-4eaa-90f0-fef315c52c0a" d="M236.13,170.86c-2.23,0-3.8-1.11-4-2.91h1.29c.11,1.08,1,1.85,2.65,1.85,1.41,0,2.2-.76,2.2-1.69,0-2.43-5.91-1-5.91-4.7,0-1.46,1.39-2.67,3.46-2.67s3.49,1.12,3.6,3H238.2a2.1,2.1,0,0,0-2.38-1.93c-1.31,0-2.14.71-2.14,1.57,0,2.66,5.82,1.24,5.87,4.72C239.55,169.69,238.16,170.86,236.13,170.86Z"/><path class="a63c9a66-dcab-4eaa-90f0-fef315c52c0a" d="M241.58,158.1a.92.92,0,1,1,1.83,0,.92.92,0,1,1-1.83,0Zm.28,2.79h1.26v9.83h-1.26Z"/><path class="a63c9a66-dcab-4eaa-90f0-fef315c52c0a" d="M250.11,160.74a4.25,4.25,0,0,1,4.52,3.35h-1.35a3,3,0,0,0-3.17-2.27c-1.93,0-3.49,1.32-3.49,4s1.56,4,3.49,4a3,3,0,0,0,3.17-2.29h1.35a4.3,4.3,0,0,1-4.52,3.35c-2.77,0-4.77-1.94-4.77-5.06S247.34,160.74,250.11,160.74Z"/><path class="a63c9a66-dcab-4eaa-90f0-fef315c52c0a" d="M260.92,160.74a4.09,4.09,0,0,1,3.89,2.31v-2.16h1.26v9.83h-1.26v-2.18a4.14,4.14,0,0,1-3.9,2.32c-2.69,0-4.68-2-4.68-5.08S258.22,160.74,260.92,160.74Zm.24,1.1a3.59,3.59,0,0,0-3.66,3.94c0,2.49,1.59,4,3.66,4a4,4,0,0,0,0-7.92Z"/><path class="a63c9a66-dcab-4eaa-90f0-fef315c52c0a" d="M278,160.74A4.29,4.29,0,0,1,281.9,163v-5.62h1.26v13.33H281.9v-2.2a4.1,4.1,0,0,1-3.89,2.34c-2.7,0-4.7-2-4.7-5.08S275.31,160.74,278,160.74Zm.22,1.1c-2.07,0-3.65,1.44-3.65,3.94s1.58,4,3.65,4a4,4,0,0,0,0-7.92Z"/><path class="a63c9a66-dcab-4eaa-90f0-fef315c52c0a" d="M290.26,170.86c-2.79,0-4.82-1.94-4.82-5.06s2-5.06,4.82-5.06a4.43,4.43,0,0,1,4.65,4.56,7.79,7.79,0,0,1,0,1h-8.16a3.44,3.44,0,0,0,3.55,3.51,3,3,0,0,0,3.17-2.2h1.33A4.31,4.31,0,0,1,290.26,170.86Zm-3.55-5.6h6.92a3.22,3.22,0,0,0-3.42-3.44A3.4,3.4,0,0,0,286.71,165.26Z"/><path class="a63c9a66-dcab-4eaa-90f0-fef315c52c0a" d="M297.21,157.39h1.26v13.33h-1.26Z"/><path class="a63c9a66-dcab-4eaa-90f0-fef315c52c0a" d="M310.06,165.35h-2.54v5.37h-1.26V158.13h3.8c2.92,0,4.25,1.55,4.25,3.62S313,165.35,310.06,165.35Zm0-1.08c2.12,0,2.95-1,2.95-2.52s-.83-2.56-2.95-2.56h-2.54v5.08Z"/><path class="a63c9a66-dcab-4eaa-90f0-fef315c52c0a" d="M320.15,170.84c-2.52,0-4.18-1.44-4.25-3.36h1.33a2.62,2.62,0,0,0,2.92,2.3c1.74,0,2.77-1,2.77-2.32,0-3.71-6.91-1.37-6.91-6.1,0-2,1.6-3.37,4-3.37s3.83,1.33,4,3.06h-1.37a2.57,2.57,0,0,0-2.74-2c-1.47,0-2.7.79-2.7,2.25,0,3.64,6.92,1.4,6.92,6.09C324.2,169.12,322.81,170.84,320.15,170.84Z"/><path class="a63c9a66-dcab-4eaa-90f0-fef315c52c0a" d="M326.63,158.29H328l4.8,10.77,4.81-10.77h1.35v12.43h-1.26V160.8l-4.43,9.92h-.92l-4.43-9.89v9.89h-1.26Z"/><path class="a63c9a66-dcab-4eaa-90f0-fef315c52c0a" d="M351,170.86a4.69,4.69,0,0,1-4.83-5.06c0-3.13,2-5.06,4.83-5.06a4.42,4.42,0,0,1,4.64,4.56c0,.39,0,.65,0,1h-8.16A3.44,3.44,0,0,0,351,169.8a3,3,0,0,0,3.17-2.2h1.33A4.31,4.31,0,0,1,351,170.86Zm-3.55-5.6h6.92a3.22,3.22,0,0,0-3.42-3.44A3.4,3.4,0,0,0,347.42,165.26Z"/><path class="a63c9a66-dcab-4eaa-90f0-fef315c52c0a" d="M361.22,170.86c-2.23,0-3.8-1.11-4-2.91h1.29c.11,1.08,1.05,1.85,2.65,1.85,1.4,0,2.2-.76,2.2-1.69,0-2.43-5.91-1-5.91-4.7,0-1.46,1.39-2.67,3.46-2.67s3.49,1.12,3.6,3h-1.26a2.1,2.1,0,0,0-2.38-1.93c-1.31,0-2.14.71-2.14,1.57,0,2.66,5.82,1.24,5.87,4.72C364.64,169.69,363.25,170.86,361.22,170.86Z"/><path class="a63c9a66-dcab-4eaa-90f0-fef315c52c0a" d="M30.81,190.74c2.7,0,4.68,2,4.68,5s-2,5.08-4.68,5.08a4.12,4.12,0,0,1-3.91-2.3v2.16H25.66V187.39H26.9v5.68A4.17,4.17,0,0,1,30.81,190.74Zm-.26,1.1a4,4,0,0,0,0,7.92c2.07,0,3.66-1.49,3.66-4A3.59,3.59,0,0,0,30.55,191.84Z"/><path class="a63c9a66-dcab-4eaa-90f0-fef315c52c0a" d="M46.27,200.72H45V199a3.55,3.55,0,0,1-3.35,1.89c-2.23,0-4-1.37-4-4.25v-5.74h1.24v5.6c0,2.18,1.19,3.29,3,3.29S45,198.63,45,196.24v-5.35h1.26Z"/><path class="a63c9a66-dcab-4eaa-90f0-fef315c52c0a" d="M52.47,200.86c-2.23,0-3.8-1.11-4-2.91h1.3c.1,1.08,1,1.85,2.64,1.85,1.41,0,2.2-.76,2.2-1.69,0-2.43-5.91-1-5.91-4.7,0-1.46,1.39-2.67,3.46-2.67s3.49,1.12,3.6,3H54.54a2.1,2.1,0,0,0-2.37-1.93c-1.32,0-2.15.71-2.15,1.57,0,2.66,5.82,1.24,5.87,4.72C55.89,199.69,54.51,200.86,52.47,200.86Z"/><path class="a63c9a66-dcab-4eaa-90f0-fef315c52c0a" d="M62.38,190.74a4.25,4.25,0,0,1,4.52,3.35H65.55a3,3,0,0,0-3.17-2.27c-1.93,0-3.49,1.32-3.49,4s1.56,4,3.49,4a3,3,0,0,0,3.17-2.29H66.9a4.3,4.3,0,0,1-4.52,3.35c-2.77,0-4.77-1.94-4.77-5.06S59.61,190.74,62.38,190.74Z"/><path class="a63c9a66-dcab-4eaa-90f0-fef315c52c0a" d="M73.2,190.74a4.11,4.11,0,0,1,3.89,2.31v-2.16h1.26v9.83H77.09v-2.18a4.16,4.16,0,0,1-3.91,2.32c-2.68,0-4.68-2-4.68-5.08S70.5,190.74,73.2,190.74Zm.23,1.1c-2.07,0-3.65,1.44-3.65,3.94s1.58,4,3.65,4a4,4,0,0,0,0-7.92Z"/><path class="a63c9a66-dcab-4eaa-90f0-fef315c52c0a" d="M82.43,200.72H81.17v-9.83h1.26v1.74a3.41,3.41,0,0,1,3.37-1.92V192h-.34c-1.64,0-3,.74-3,3.21Z"/><path class="a63c9a66-dcab-4eaa-90f0-fef315c52c0a" d="M101.14,200.72H99.88V199a3.56,3.56,0,0,1-3.35,1.89c-2.23,0-4-1.37-4-4.25v-5.74h1.24v5.6c0,2.18,1.19,3.29,3,3.29s3.12-1.15,3.12-3.54v-5.35h1.26Z"/><path class="a63c9a66-dcab-4eaa-90f0-fef315c52c0a" d="M111.32,195.1c0-2.18-1.19-3.29-3-3.29s-3.11,1.15-3.11,3.54v5.37H104v-9.83h1.26v1.67a3.6,3.6,0,0,1,3.35-1.85c2.23,0,4,1.37,4,4.25v5.76h-1.25Z"/><path class="a63c9a66-dcab-4eaa-90f0-fef315c52c0a" d="M121.83,188.13l-1,3.89h-1.46l1.58-3.89Zm2.65,0-1,3.89H122l1.58-3.89Z"/><path class="a63c9a66-dcab-4eaa-90f0-fef315c52c0a" d="M130.2,190.74a4.25,4.25,0,0,1,4.52,3.35h-1.35a3,3,0,0,0-3.17-2.27c-1.93,0-3.49,1.32-3.49,4s1.56,4,3.49,4a3,3,0,0,0,3.17-2.29h1.35a4.3,4.3,0,0,1-4.52,3.35c-2.77,0-4.77-1.94-4.77-5.06S127.43,190.74,130.2,190.74Z"/><path class="a63c9a66-dcab-4eaa-90f0-fef315c52c0a" d="M136.92,187.39h1.26v13.33h-1.26Z"/><path class="a63c9a66-dcab-4eaa-90f0-fef315c52c0a" d="M145.33,200.86a5.06,5.06,0,1,1,4.95-5.06A4.79,4.79,0,0,1,145.33,200.86Zm0-1.1a4,4,0,0,0,0-7.92c-1.87,0-3.62,1.26-3.62,4S143.46,199.76,145.33,199.76Z"/><path class="a63c9a66-dcab-4eaa-90f0-fef315c52c0a" d="M159.93,195.1c0-2.18-1.19-3.29-3-3.29s-3.12,1.15-3.12,3.54v5.37h-1.26v-9.83h1.26v1.67a3.6,3.6,0,0,1,3.35-1.85c2.24,0,4,1.37,4,4.25v5.76h-1.24Z"/><path class="a63c9a66-dcab-4eaa-90f0-fef315c52c0a" d="M163.05,192l1-3.89h1.46L164,192Zm2.65,0,1-3.89h1.46L166.61,192Z"/><path class="a63c9a66-dcab-4eaa-90f0-fef315c52c0a" d="M179.2,190.74a4.29,4.29,0,0,1,3.87,2.27v-5.62h1.26v13.33h-1.26v-2.2a4.1,4.1,0,0,1-3.89,2.34c-2.7,0-4.7-2-4.7-5.08S176.48,190.74,179.2,190.74Zm.21,1.1c-2.07,0-3.65,1.44-3.65,3.94s1.58,4,3.65,4a4,4,0,0,0,0-7.92Z"/><path class="a63c9a66-dcab-4eaa-90f0-fef315c52c0a" d="M191.43,200.86c-2.79,0-4.82-1.94-4.82-5.06s2-5.06,4.82-5.06a4.43,4.43,0,0,1,4.65,4.56,7.79,7.79,0,0,1,0,1h-8.15a3.43,3.43,0,0,0,3.54,3.51,3,3,0,0,0,3.17-2.2h1.33A4.31,4.31,0,0,1,191.43,200.86Zm-3.54-5.6h6.91a3.22,3.22,0,0,0-3.42-3.44A3.4,3.4,0,0,0,187.89,195.26Z"/><path class="a63c9a66-dcab-4eaa-90f0-fef315c52c0a" d="M207.51,190.74a4.25,4.25,0,0,1,4.52,3.35h-1.35a3,3,0,0,0-3.17-2.27c-1.93,0-3.5,1.32-3.5,4s1.57,4,3.5,4a3,3,0,0,0,3.17-2.29H212a4.31,4.31,0,0,1-4.52,3.35c-2.78,0-4.77-1.94-4.77-5.06S204.73,190.74,207.51,190.74Z"/><path class="a63c9a66-dcab-4eaa-90f0-fef315c52c0a" d="M218.32,190.74a4.11,4.11,0,0,1,3.89,2.31v-2.16h1.26v9.83h-1.26v-2.18a4.14,4.14,0,0,1-3.91,2.32c-2.68,0-4.68-2-4.68-5.08S215.62,190.74,218.32,190.74Zm.24,1.1a3.59,3.59,0,0,0-3.66,3.94c0,2.49,1.59,4,3.66,4a4,4,0,0,0,0-7.92Z"/><path class="a63c9a66-dcab-4eaa-90f0-fef315c52c0a" d="M230.47,190.74a4.29,4.29,0,0,1,3.87,2.27v-5.62h1.26v13.33h-1.26v-2.2a4.09,4.09,0,0,1-3.89,2.34c-2.7,0-4.7-2-4.7-5.08S227.75,190.74,230.47,190.74Zm.21,1.1c-2.07,0-3.65,1.44-3.65,3.94s1.58,4,3.65,4a4,4,0,0,0,0-7.92Z"/><path class="a63c9a66-dcab-4eaa-90f0-fef315c52c0a" d="M242.58,190.74a4.11,4.11,0,0,1,3.89,2.31v-2.16h1.26v9.83h-1.26v-2.18a4.16,4.16,0,0,1-3.91,2.32c-2.68,0-4.68-2-4.68-5.08S239.88,190.74,242.58,190.74Zm.23,1.1c-2.07,0-3.65,1.44-3.65,3.94s1.58,4,3.65,4a4,4,0,0,0,0-7.92Z"/><path class="a63c9a66-dcab-4eaa-90f0-fef315c52c0a" d="M255.25,188.1a.92.92,0,0,1,1.84,0,.92.92,0,1,1-1.84,0Zm.29,2.79h1.26v9.83h-1.26Z"/><path class="a63c9a66-dcab-4eaa-90f0-fef315c52c0a" d="M267,195.1c0-2.18-1.19-3.29-3-3.29s-3.11,1.15-3.11,3.54v5.37H259.6v-9.83h1.27v1.67a3.59,3.59,0,0,1,3.34-1.85c2.24,0,4,1.37,4,4.25v5.76H267Z"/><path class="a63c9a66-dcab-4eaa-90f0-fef315c52c0a" d="M275.09,190.74A4.29,4.29,0,0,1,279,193v-5.62h1.26v13.33H279v-2.2a4.1,4.1,0,0,1-3.89,2.34c-2.7,0-4.7-2-4.7-5.08S272.37,190.74,275.09,190.74Zm.21,1.1c-2.07,0-3.65,1.44-3.65,3.94s1.58,4,3.65,4a4,4,0,0,0,0-7.92Z"/><path class="a63c9a66-dcab-4eaa-90f0-fef315c52c0a" d="M282.77,188.1a.92.92,0,1,1,.92.93A.91.91,0,0,1,282.77,188.1Zm.29,2.79h1.26v9.83h-1.26Z"/><path class="a63c9a66-dcab-4eaa-90f0-fef315c52c0a" d="M287.32,190.89l3.31,8.6,3.31-8.6h1.34l-3.95,9.83h-1.42L286,190.89Z"/><path class="a63c9a66-dcab-4eaa-90f0-fef315c52c0a" d="M296.66,188.1a.92.92,0,1,1,.92.93A.9.9,0,0,1,296.66,188.1Zm.29,2.79h1.26v9.83H297Z"/><path class="a63c9a66-dcab-4eaa-90f0-fef315c52c0a" d="M305.14,190.74A4.29,4.29,0,0,1,309,193v-5.62h1.26v13.33H309v-2.2a4.1,4.1,0,0,1-3.89,2.34c-2.7,0-4.7-2-4.7-5.08S302.42,190.74,305.14,190.74Zm.21,1.1c-2.07,0-3.65,1.44-3.65,3.94s1.58,4,3.65,4a4,4,0,0,0,0-7.92Z"/><path class="a63c9a66-dcab-4eaa-90f0-fef315c52c0a" d="M321.62,200.72h-1.26V199a3.55,3.55,0,0,1-3.34,1.89c-2.24,0-4-1.37-4-4.25v-5.74h1.24v5.6c0,2.18,1.19,3.29,3,3.29s3.11-1.15,3.11-3.54v-5.35h1.26Z"/><path class="a63c9a66-dcab-4eaa-90f0-fef315c52c0a" d="M328.78,200.86a5.06,5.06,0,1,1,5-5.06A4.79,4.79,0,0,1,328.78,200.86Zm0-1.1a3.61,3.61,0,0,0,3.65-4c0-2.7-1.76-4-3.64-4s-3.62,1.26-3.62,4S326.9,199.76,328.78,199.76Z"/><path class="a63c9a66-dcab-4eaa-90f0-fef315c52c0a" d="M26,222H24.65v-1.06H26v-2.47h1.27v2.47H30V222H27.29v6.1c0,1.21.42,1.59,1.55,1.59H30v1.08H28.64c-1.71,0-2.62-.7-2.62-2.67Z"/><path class="a63c9a66-dcab-4eaa-90f0-fef315c52c0a" d="M33.1,230.72H31.84v-9.83H33.1v1.74a3.38,3.38,0,0,1,3.36-1.92V222h-.34c-1.64,0-3,.74-3,3.21Z"/><path class="a63c9a66-dcab-4eaa-90f0-fef315c52c0a" d="M42.05,220.74a4.11,4.11,0,0,1,3.89,2.31v-2.16H47.2v9.83H45.94v-2.18A4.16,4.16,0,0,1,42,230.86c-2.68,0-4.68-2-4.68-5.08S39.35,220.74,42.05,220.74Zm.23,1.1c-2.07,0-3.65,1.44-3.65,3.94s1.58,4,3.65,4a4,4,0,0,0,0-7.92Z"/><path class="a63c9a66-dcab-4eaa-90f0-fef315c52c0a" d="M50.33,222H49v-1.06h1.37v-2.47h1.28v2.47h2.7V222h-2.7v6.1c0,1.21.41,1.59,1.55,1.59h1.15v1.08H53c-1.71,0-2.63-.7-2.63-2.67Z"/><path class="a63c9a66-dcab-4eaa-90f0-fef315c52c0a" d="M60,220.74a4.11,4.11,0,0,1,3.89,2.31v-2.16h1.26v9.83H63.86v-2.18a4.14,4.14,0,0,1-3.9,2.32c-2.69,0-4.69-2-4.69-5.08S57.27,220.74,60,220.74Zm.24,1.1a3.59,3.59,0,0,0-3.66,3.94c0,2.49,1.59,4,3.66,4a4,4,0,0,0,0-7.92Z"/><path class="a63c9a66-dcab-4eaa-90f0-fef315c52c0a" d="M72.12,220.74A4.29,4.29,0,0,1,76,223v-5.62h1.26v13.33H76v-2.2a4.09,4.09,0,0,1-3.89,2.34c-2.7,0-4.7-2-4.7-5.08S69.4,220.74,72.12,220.74Zm.22,1.1a3.59,3.59,0,0,0-3.66,3.94c0,2.49,1.59,4,3.66,4a4,4,0,0,0,0-7.92Z"/><path class="a63c9a66-dcab-4eaa-90f0-fef315c52c0a" d="M84.41,230.86a5.06,5.06,0,1,1,5-5.06A4.79,4.79,0,0,1,84.41,230.86Zm0-1.1a4,4,0,0,0,0-7.92c-1.87,0-3.62,1.26-3.62,4S82.54,229.76,84.41,229.76Z"/><path class="a63c9a66-dcab-4eaa-90f0-fef315c52c0a" d="M100.84,230.86c-2.79,0-4.82-1.94-4.82-5.06s2-5.06,4.82-5.06a4.42,4.42,0,0,1,4.65,4.56,7.79,7.79,0,0,1,0,1H97.3a3.44,3.44,0,0,0,3.54,3.51,3,3,0,0,0,3.17-2.2h1.34A4.32,4.32,0,0,1,100.84,230.86Zm-3.54-5.6h6.91a3.21,3.21,0,0,0-3.42-3.44A3.4,3.4,0,0,0,97.3,225.26Z"/><path class="a63c9a66-dcab-4eaa-90f0-fef315c52c0a" d="M122.17,225.1c0-2.18-1.14-3.29-2.89-3.29s-3,1.18-3,3.58v5.33H115V225.1c0-2.18-1.15-3.29-2.9-3.29s-3,1.18-3,3.58v5.33H107.8v-9.83h1.26v1.69a3.51,3.51,0,0,1,3.26-1.87,3.62,3.62,0,0,1,3.63,2.41,3.58,3.58,0,0,1,3.55-2.41c2.18,0,3.91,1.37,3.91,4.25v5.76h-1.24Z"/><path class="a63c9a66-dcab-4eaa-90f0-fef315c52c0a" d="M131.33,220.74c2.69,0,4.69,2,4.69,5s-2,5.08-4.69,5.08a4.19,4.19,0,0,1-3.9-2.3v6.8h-1.25V220.89h1.25v2.16A4.16,4.16,0,0,1,131.33,220.74Zm-.25,1.1a4,4,0,0,0,0,7.92c2.07,0,3.66-1.49,3.66-4A3.59,3.59,0,0,0,131.08,221.84Z"/><path class="a63c9a66-dcab-4eaa-90f0-fef315c52c0a" d="M138.33,217.39h1.26v13.33h-1.26Z"/><path class="a63c9a66-dcab-4eaa-90f0-fef315c52c0a" d="M146.68,230.86a4.69,4.69,0,0,1-4.83-5.06c0-3.13,2-5.06,4.83-5.06a4.42,4.42,0,0,1,4.64,4.56c0,.39,0,.65,0,1h-8.16a3.44,3.44,0,0,0,3.55,3.51,3,3,0,0,0,3.17-2.2h1.33A4.32,4.32,0,0,1,146.68,230.86Zm-3.55-5.6H150a3.21,3.21,0,0,0-3.42-3.44A3.4,3.4,0,0,0,143.13,225.26Z"/><path class="a63c9a66-dcab-4eaa-90f0-fef315c52c0a" d="M157.76,220.74a4.09,4.09,0,0,1,3.88,2.31v-2.16h1.27v9.83h-1.27v-2.18a4.14,4.14,0,0,1-3.9,2.32c-2.69,0-4.68-2-4.68-5.08S155.05,220.74,157.76,220.74Zm.23,1.1a3.59,3.59,0,0,0-3.66,3.94c0,2.49,1.59,4,3.66,4a4,4,0,0,0,0-7.92Z"/><path class="a63c9a66-dcab-4eaa-90f0-fef315c52c0a" d="M173.1,225.1c0-2.18-1.19-3.29-3-3.29S167,223,167,225.35v5.37h-1.26v-9.83H167v1.67a3.6,3.6,0,0,1,3.35-1.85c2.24,0,4,1.37,4,4.25v5.76H173.1Z"/><path class="a63c9a66-dcab-4eaa-90f0-fef315c52c0a" d="M181.22,220.74a4.29,4.29,0,0,1,3.87,2.27v-5.62h1.26v13.33h-1.26v-2.2a4.09,4.09,0,0,1-3.89,2.34c-2.7,0-4.7-2-4.7-5.08S178.5,220.74,181.22,220.74Zm.22,1.1a3.59,3.59,0,0,0-3.66,3.94c0,2.49,1.59,4,3.66,4a4,4,0,0,0,0-7.92Z"/><path class="a63c9a66-dcab-4eaa-90f0-fef315c52c0a" d="M193.51,230.86a5.06,5.06,0,1,1,5-5.06A4.79,4.79,0,0,1,193.51,230.86Zm0-1.1a4,4,0,0,0,0-7.92c-1.87,0-3.62,1.26-3.62,4S191.64,229.76,193.51,229.76Z"/><path class="a63c9a66-dcab-4eaa-90f0-fef315c52c0a" d="M205.7,217.39H207v13.33H205.7Z"/><path class="a63c9a66-dcab-4eaa-90f0-fef315c52c0a" d="M213.92,220.74a4.11,4.11,0,0,1,3.89,2.31v-2.16h1.26v9.83h-1.26v-2.18a4.15,4.15,0,0,1-3.91,2.32c-2.68,0-4.68-2-4.68-5.08S211.22,220.74,213.92,220.74Zm.23,1.1c-2.07,0-3.65,1.44-3.65,3.94s1.58,4,3.65,4a4,4,0,0,0,0-7.92Z"/><path class="a63c9a66-dcab-4eaa-90f0-fef315c52c0a" d="M225.28,230.86c-2.23,0-3.8-1.11-4-2.91h1.29c.11,1.08,1,1.85,2.65,1.85,1.4,0,2.2-.76,2.2-1.69,0-2.43-5.91-1-5.91-4.7,0-1.46,1.39-2.67,3.46-2.67s3.49,1.12,3.6,3h-1.26a2.1,2.1,0,0,0-2.38-1.93c-1.31,0-2.14.71-2.14,1.57,0,2.66,5.81,1.24,5.87,4.72C228.7,229.69,227.31,230.86,225.28,230.86Z"/><path class="a63c9a66-dcab-4eaa-90f0-fef315c52c0a" d="M240.2,220.74a4.25,4.25,0,0,1,4.52,3.35h-1.35a3,3,0,0,0-3.17-2.27c-1.93,0-3.49,1.32-3.49,4s1.56,4,3.49,4a3,3,0,0,0,3.17-2.29h1.35a4.3,4.3,0,0,1-4.52,3.35c-2.77,0-4.77-1.94-4.77-5.06S237.43,220.74,240.2,220.74Z"/><path class="a63c9a66-dcab-4eaa-90f0-fef315c52c0a" d="M251,220.74a4.09,4.09,0,0,1,3.89,2.31v-2.16h1.26v9.83H254.9v-2.18a4.14,4.14,0,0,1-3.9,2.32c-2.69,0-4.68-2-4.68-5.08S248.31,220.74,251,220.74Zm.24,1.1a3.59,3.59,0,0,0-3.66,3.94c0,2.49,1.59,4,3.66,4a4,4,0,0,0,0-7.92Z"/><path class="a63c9a66-dcab-4eaa-90f0-fef315c52c0a" d="M260.25,230.72H259v-9.83h1.26v1.74a3.4,3.4,0,0,1,3.37-1.92V222h-.34c-1.64,0-3,.74-3,3.21Z"/><path class="a63c9a66-dcab-4eaa-90f0-fef315c52c0a" d="M269.21,220.74a4.11,4.11,0,0,1,3.89,2.31v-2.16h1.26v9.83H273.1v-2.18a4.16,4.16,0,0,1-3.91,2.32c-2.68,0-4.68-2-4.68-5.08S266.51,220.74,269.21,220.74Zm.23,1.1a3.59,3.59,0,0,0-3.66,3.94c0,2.49,1.59,4,3.66,4a4,4,0,0,0,0-7.92Z"/><path class="a63c9a66-dcab-4eaa-90f0-fef315c52c0a" d="M281.41,220.74a4.25,4.25,0,0,1,4.52,3.35h-1.35a3,3,0,0,0-3.17-2.27c-1.93,0-3.5,1.32-3.5,4s1.57,4,3.5,4a3,3,0,0,0,3.17-2.29h1.35a4.31,4.31,0,0,1-4.52,3.35c-2.78,0-4.77-1.94-4.77-5.06S278.63,220.74,281.41,220.74Z"/><path class="a63c9a66-dcab-4eaa-90f0-fef315c52c0a" d="M288.28,222h-1.36v-1.06h1.36v-2.47h1.28v2.47h2.7V222h-2.7v6.1c0,1.21.42,1.59,1.55,1.59h1.15v1.08h-1.35c-1.71,0-2.63-.7-2.63-2.67Z"/><path class="a63c9a66-dcab-4eaa-90f0-fef315c52c0a" d="M298.06,230.86a4.68,4.68,0,0,1-4.83-5.06c0-3.13,2-5.06,4.83-5.06a4.42,4.42,0,0,1,4.64,4.56,7.79,7.79,0,0,1,0,1h-8.15a3.44,3.44,0,0,0,3.55,3.51,3,3,0,0,0,3.16-2.2h1.34A4.32,4.32,0,0,1,298.06,230.86Zm-3.55-5.6h6.91a3.21,3.21,0,0,0-3.42-3.44A3.4,3.4,0,0,0,294.51,225.26Z"/><path class="a63c9a66-dcab-4eaa-90f0-fef315c52c0a" d="M306.27,230.72H305v-9.83h1.26v1.74a3.39,3.39,0,0,1,3.37-1.92V222h-.35c-1.63,0-3,.74-3,3.21Z"/><path class="a63c9a66-dcab-4eaa-90f0-fef315c52c0a" d="M313.68,216.85V218l-3.7,2.14v-1Zm-2.29,4h1.26v9.83h-1.26Z"/><path class="a63c9a66-dcab-4eaa-90f0-fef315c52c0a" d="M318.82,230.86c-2.23,0-3.8-1.11-4-2.91h1.29c.11,1.08,1.05,1.85,2.65,1.85,1.4,0,2.2-.76,2.2-1.69,0-2.43-5.91-1-5.91-4.7,0-1.46,1.39-2.67,3.46-2.67s3.49,1.12,3.6,3h-1.26a2.1,2.1,0,0,0-2.38-1.93c-1.31,0-2.14.71-2.14,1.57,0,2.66,5.81,1.24,5.87,4.72C322.24,229.69,320.85,230.86,318.82,230.86Z"/><path class="a63c9a66-dcab-4eaa-90f0-fef315c52c0a" d="M324.8,222h-1.37v-1.06h1.37v-2.47h1.28v2.47h2.7V222h-2.7v6.1c0,1.21.41,1.59,1.55,1.59h1.15v1.08h-1.35c-1.71,0-2.63-.7-2.63-2.67Z"/><path class="a63c9a66-dcab-4eaa-90f0-fef315c52c0a" d="M330.33,218.1a.92.92,0,1,1,.92.93A.91.91,0,0,1,330.33,218.1Zm.29,2.79h1.26v9.83h-1.26Z"/><path class="a63c9a66-dcab-4eaa-90f0-fef315c52c0a" d="M338.87,220.74a4.25,4.25,0,0,1,4.52,3.35H342a3,3,0,0,0-3.16-2.27c-1.93,0-3.5,1.32-3.5,4s1.57,4,3.5,4a3,3,0,0,0,3.16-2.29h1.36a4.31,4.31,0,0,1-4.52,3.35c-2.78,0-4.78-1.94-4.78-5.06S336.09,220.74,338.87,220.74Z"/><path class="a63c9a66-dcab-4eaa-90f0-fef315c52c0a" d="M349.68,220.74a4.11,4.11,0,0,1,3.89,2.31v-2.16h1.26v9.83h-1.26v-2.18a4.15,4.15,0,0,1-3.91,2.32c-2.68,0-4.68-2-4.68-5.08S347,220.74,349.68,220.74Zm.24,1.1a3.59,3.59,0,0,0-3.66,3.94c0,2.49,1.59,4,3.66,4a4,4,0,0,0,0-7.92Z"/><path class="a63c9a66-dcab-4eaa-90f0-fef315c52c0a" d="M361,230.86c-2.23,0-3.8-1.11-4-2.91h1.29c.11,1.08,1.05,1.85,2.65,1.85,1.41,0,2.2-.76,2.2-1.69,0-2.43-5.91-1-5.91-4.7,0-1.46,1.39-2.67,3.46-2.67s3.49,1.12,3.6,3h-1.26a2.1,2.1,0,0,0-2.38-1.93c-1.31,0-2.14.71-2.14,1.57,0,2.66,5.82,1.24,5.87,4.72C364.46,229.69,363.07,230.86,361,230.86Z"/><path class="a63c9a66-dcab-4eaa-90f0-fef315c52c0a" d="M30,260.86a5.06,5.06,0,0,1,0-10.12,5.06,5.06,0,0,1,0,10.12Zm0-1.1a3.61,3.61,0,0,0,3.65-4c0-2.7-1.76-4-3.63-4s-3.62,1.26-3.62,4S28.09,259.76,30,259.76Z"/><path class="a63c9a66-dcab-4eaa-90f0-fef315c52c0a" d="M42.34,250.74c2.7,0,4.68,2,4.68,5s-2,5.08-4.68,5.08a4.14,4.14,0,0,1-3.91-2.3v2.16H37.19V247.39h1.24v5.68A4.18,4.18,0,0,1,42.34,250.74Zm-.25,1.1a4,4,0,0,0,0,7.92c2.07,0,3.65-1.49,3.65-4S44.16,251.84,42.09,251.84Z"/><path class="a63c9a66-dcab-4eaa-90f0-fef315c52c0a" d="M52.58,260.86c-2.23,0-3.79-1.11-4-2.91h1.3c.11,1.08,1,1.85,2.65,1.85,1.4,0,2.19-.76,2.19-1.69,0-2.43-5.9-1-5.9-4.7,0-1.46,1.38-2.67,3.45-2.67s3.5,1.12,3.61,3H54.66a2.11,2.11,0,0,0-2.38-1.93c-1.32,0-2.14.71-2.14,1.57,0,2.66,5.81,1.24,5.87,4.72C56,259.69,54.62,260.86,52.58,260.86Z"/><path class="a63c9a66-dcab-4eaa-90f0-fef315c52c0a" d="M62.55,260.86a4.69,4.69,0,0,1-4.83-5.06c0-3.13,2-5.06,4.83-5.06a4.42,4.42,0,0,1,4.64,4.56c0,.39,0,.65,0,1H59a3.44,3.44,0,0,0,3.55,3.51,3,3,0,0,0,3.17-2.2h1.33A4.32,4.32,0,0,1,62.55,260.86ZM59,255.26h6.91a3.21,3.21,0,0,0-3.42-3.44A3.4,3.4,0,0,0,59,255.26Z"/><path class="a63c9a66-dcab-4eaa-90f0-fef315c52c0a" d="M70.76,260.72H69.5v-9.83h1.26v1.74a3.4,3.4,0,0,1,3.37-1.92V252h-.34c-1.64,0-3,.74-3,3.21Z"/><path class="a63c9a66-dcab-4eaa-90f0-fef315c52c0a" d="M76.65,250.89l3.32,8.6,3.31-8.6h1.33l-3.94,9.83H79.25l-4-9.83Z"/><path class="a63c9a66-dcab-4eaa-90f0-fef315c52c0a" d="M90,250.74a4.11,4.11,0,0,1,3.89,2.31v-2.16h1.26v9.83H93.91v-2.18A4.15,4.15,0,0,1,90,260.86c-2.68,0-4.68-2-4.68-5.08S87.32,250.74,90,250.74Zm.24,1.1a3.59,3.59,0,0,0-3.66,3.94c0,2.49,1.58,4,3.66,4a4,4,0,0,0,0-7.92Z"/><path class="a63c9a66-dcab-4eaa-90f0-fef315c52c0a" d="M103.15,250.74c2.7,0,4.68,2,4.68,5s-2,5.08-4.68,5.08a4.14,4.14,0,0,1-3.91-2.3v2.16H98V247.39h1.24v5.68A4.17,4.17,0,0,1,103.15,250.74Zm-.25,1.1a4,4,0,0,0,0,7.92c2.07,0,3.65-1.49,3.65-4S105,251.84,102.9,251.84Z"/><path class="a63c9a66-dcab-4eaa-90f0-fef315c52c0a" d="M110.14,247.39h1.26v13.33h-1.26Z"/><path class="a63c9a66-dcab-4eaa-90f0-fef315c52c0a" d="M118.49,260.86a4.69,4.69,0,0,1-4.83-5.06c0-3.13,2-5.06,4.83-5.06a4.42,4.42,0,0,1,4.64,4.56c0,.39,0,.65,0,1h-8.16a3.44,3.44,0,0,0,3.55,3.51,3,3,0,0,0,3.17-2.2H123A4.31,4.31,0,0,1,118.49,260.86Zm-3.55-5.6h6.92a3.22,3.22,0,0,0-3.42-3.44A3.4,3.4,0,0,0,114.94,255.26Z"/><path class="a63c9a66-dcab-4eaa-90f0-fef315c52c0a" d="M128.74,260.86c-2.23,0-3.8-1.11-4-2.91h1.29c.11,1.08,1.05,1.85,2.65,1.85,1.4,0,2.2-.76,2.2-1.69,0-2.43-5.91-1-5.91-4.7,0-1.46,1.39-2.67,3.46-2.67s3.49,1.12,3.6,3h-1.26a2.1,2.1,0,0,0-2.38-1.93c-1.31,0-2.14.71-2.14,1.57,0,2.66,5.81,1.24,5.87,4.72C132.16,259.69,130.77,260.86,128.74,260.86Z"/><path class="a63c9a66-dcab-4eaa-90f0-fef315c52c0a" d="M135,260.81a.91.91,0,0,1-.91-.94.91.91,0,1,1,1.82,0A.92.92,0,0,1,135,260.81Z"/></svg>