<svg id="af08b4eb-07f7-4db3-af02-ac874cf116b3" data-name="Capa 1" xmlns="http://www.w3.org/2000/svg" viewBox="0 0 74.38 139.11"><defs><style>.bc38af0a-8da3-46b8-8401-aecb7c8f7c5c{fill:#fd893b;}.fffaf585-0d37-4736-a5d9-fcbee97a3446{fill:#fff;}.b83dbfdc-d08b-4ad4-828a-35916e8862ed{fill:none;stroke:#fd893b;stroke-miterlimit:10;stroke-width:2px;}.e1a73ee9-30da-41dc-a55f-565e6a4e60ba{fill:#552d48;}</style></defs><circle class="bc38af0a-8da3-46b8-8401-aecb7c8f7c5c" cx="33.87" cy="104.76" r="32.69"/><path class="fffaf585-0d37-4736-a5d9-fcbee97a3446" d="M23.44,112.13c4.53-3.74,9.36-7.46,9.36-11,0-1.55-.71-2.55-2.23-2.55s-2.37,1.17-2.37,3.19H23.38c.14-5.18,3.51-7.4,7.4-7.4,4.85,0,7,2.84,7,6.44,0,4.68-4.18,8.42-7.58,11h7.9v4.07H23.44Z"/><path class="fffaf585-0d37-4736-a5d9-fcbee97a3446" d="M44,116.38a2.73,2.73,0,1,1,3-2.7A2.77,2.77,0,0,1,44,116.38Z"/><line class="b83dbfdc-d08b-4ad4-828a-35916e8862ed" x1="33.87" x2="33.87" y2="72.17"/><circle class="e1a73ee9-30da-41dc-a55f-565e6a4e60ba" cx="60.06" cy="85.31" r="13.14"/><path class="fffaf585-0d37-4736-a5d9-fcbee97a3446" d="M55.84,89.75c2.79-2.3,5.76-4.59,5.76-6.8,0-1-.43-1.57-1.37-1.57s-1.46.72-1.46,2h-3a4.27,4.27,0,0,1,4.56-4.55c3,0,4.32,1.74,4.32,4,0,2.88-2.58,5.18-4.67,6.79h4.87V92h-9Z"/></svg>