<svg id="b3f77729-511d-4691-9a13-b443592206ae" data-name="Capa 1" xmlns="http://www.w3.org/2000/svg" viewBox="0 0 74.38 139.11"><defs><style>.e47e5d75-07c7-43e2-954c-cb534964eab1{fill:#fd893b;}.b0e57a41-9274-4450-8297-b7bfec94c6f7{fill:#fff;}.b7170a5e-c8a6-4036-bae6-49de0ccbf7ad{fill:none;stroke:#fd893b;stroke-miterlimit:10;stroke-width:2px;}.ac12e1db-373e-4c98-bc67-1ff1542fb665{fill:#ce4b2e;}</style></defs><circle class="e47e5d75-07c7-43e2-954c-cb534964eab1" cx="33.75" cy="104.76" r="32.69"/><path class="b0e57a41-9274-4450-8297-b7bfec94c6f7" d="M23.31,112.13c4.54-3.74,9.36-7.46,9.36-11,0-1.55-.7-2.55-2.22-2.55s-2.37,1.17-2.37,3.19H23.25c.15-5.18,3.52-7.4,7.41-7.4,4.85,0,7,2.84,7,6.44,0,4.67-4.19,8.42-7.58,11H38v4.07H23.31Z"/><path class="b0e57a41-9274-4450-8297-b7bfec94c6f7" d="M43.84,116.38a2.73,2.73,0,1,1,3-2.7A2.76,2.76,0,0,1,43.84,116.38Z"/><line class="b7170a5e-c8a6-4036-bae6-49de0ccbf7ad" x1="33.75" x2="33.75" y2="72.17"/><circle class="ac12e1db-373e-4c98-bc67-1ff1542fb665" cx="59.94" cy="85.31" r="13.14"/><path class="b0e57a41-9274-4450-8297-b7bfec94c6f7" d="M59,81.94H57.25V79.07h5V92.22H59Z"/></svg>