<svg id="ad85b80d-2cbc-4fc5-8e58-d82606cec9f9" data-name="Capa 1" xmlns="http://www.w3.org/2000/svg" viewBox="0 0 516.4 184.4"><defs><style>.bf5cea29-f792-47e6-9d5a-c9e4cdaf546d,.ed4ac3b8-8653-482c-89de-27675959aeff{fill:none;}.ab4676c6-6399-49dd-834c-64d35ea62c9e,.bf5cea29-f792-47e6-9d5a-c9e4cdaf546d,.ed4ac3b8-8653-482c-89de-27675959aeff{stroke:#5f9eb5;stroke-miterlimit:10;}.ed4ac3b8-8653-482c-89de-27675959aeff{stroke-width:2px;}.bf5cea29-f792-47e6-9d5a-c9e4cdaf546d{stroke-width:1.78px;}.ab4676c6-6399-49dd-834c-64d35ea62c9e{fill:#5f9eb5;stroke-width:0.25px;}</style></defs><circle class="ed4ac3b8-8653-482c-89de-27675959aeff" cx="45.39" cy="138.28" r="43.59"/><line class="bf5cea29-f792-47e6-9d5a-c9e4cdaf546d" x1="88.98" y1="138.28" x2="516.4" y2="138.28"/><path class="ab4676c6-6399-49dd-834c-64d35ea62c9e" d="M60.15,113.75a6.9,6.9,0,1,0,5.42,5.41A6.91,6.91,0,0,0,60.15,113.75Zm-.32,10.45a3.83,3.83,0,0,1-4.72-4.72,3.77,3.77,0,0,1,2.65-2.65,3.83,3.83,0,0,1,4.72,4.73A3.78,3.78,0,0,1,59.83,124.2Z"/><path class="ab4676c6-6399-49dd-834c-64d35ea62c9e" d="M58.8,141.71a1.54,1.54,0,0,0,1.54-1.53v-7l.89.9a1.61,1.61,0,0,0,1.85.34,1.55,1.55,0,0,0,.83-1.37,1.54,1.54,0,0,0-.45-1.09l-3.57-3.58a1.56,1.56,0,0,0-2.18,0l-3.57,3.58a1.54,1.54,0,0,0-.45,1.09,1.55,1.55,0,0,0,.83,1.37,1.61,1.61,0,0,0,1.85-.34l.89-.9v5.48H28.41a1.54,1.54,0,0,0-1.53,1.53V146l-.13,0a6.91,6.91,0,1,0,3.39,0L30,146v-4.26Zm-26.7,9.94a3.83,3.83,0,0,1-4.72,4.72,3.76,3.76,0,0,1-2.65-2.64A3.84,3.84,0,0,1,29.46,149,3.78,3.78,0,0,1,32.1,151.65Z"/><path class="ab4676c6-6399-49dd-834c-64d35ea62c9e" d="M49.86,154.22a1.54,1.54,0,1,0,0-3.07h-7l.95-1a1.54,1.54,0,0,0,.45-1.09A1.51,1.51,0,0,0,43.8,148a1.46,1.46,0,0,0-1.09-.45,1.5,1.5,0,0,0-1.08.44l-3.58,3.58a1.53,1.53,0,0,0,0,2.17l3.54,3.55a1.54,1.54,0,1,0,2.21-2.15l-.95-.95Z"/></svg>