<svg id="b80cbbaf-fa73-4671-9f29-0e8a81062f41" data-name="Capa 1" xmlns="http://www.w3.org/2000/svg" viewBox="0 0 322.15 212"><defs><style>.be0a53b0-b4b4-436f-90ae-04c4b95346c5{opacity:0.5;}.bfbf0fc1-d337-498c-b91b-386c46bcee3f{fill:#5f9eb5;}.e536f0b2-5cbc-4a83-8080-28fc1e8f3696{fill:#272b31;}</style></defs><path class="bfbf0fc1-d337-498c-b91b-386c46bcee3f" d="M4.8,4.38h6.06L16.77,19,22.62,4.38h6V25.44H23.52V12.81L18.81,25.44H14.67L9.93,12.78V25.44H4.8Z"/><path class="bfbf0fc1-d337-498c-b91b-386c46bcee3f" d="M40.08,25.68c-4.92,0-8.64-3.3-8.64-8.61s3.81-8.61,8.7-8.61,8.7,3.3,8.7,8.61S45,25.68,40.08,25.68Zm0-4.44c1.83,0,3.54-1.35,3.54-4.17s-1.68-4.17-3.48-4.17-3.48,1.32-3.48,4.17S38.22,21.24,40.08,21.24Z"/><path class="bfbf0fc1-d337-498c-b91b-386c46bcee3f" d="M57.86,8.46A6.14,6.14,0,0,1,63,11V3.24h5.13v22.2H63V23a5.79,5.79,0,0,1-5.16,2.64c-4.11,0-7.38-3.36-7.38-8.64S53.75,8.46,57.86,8.46Zm1.5,4.47c-1.92,0-3.66,1.44-3.66,4.11s1.74,4.17,3.66,4.17S63,19.74,63,17.07,61.31,12.93,59.36,12.93Z"/><path class="bfbf0fc1-d337-498c-b91b-386c46bcee3f" d="M79.26,25.68c-4.92,0-8.46-3.3-8.46-8.61s3.48-8.61,8.46-8.61S87.6,11.7,87.6,16.8a13,13,0,0,1-.09,1.5H75.9c.18,2.19,1.53,3.21,3.18,3.21a2.73,2.73,0,0,0,2.67-1.62h5.46A7.82,7.82,0,0,1,79.26,25.68ZM75.93,15.45h6.42a2.89,2.89,0,0,0-3.15-2.88A3.17,3.17,0,0,0,75.93,15.45Z"/><path class="bfbf0fc1-d337-498c-b91b-386c46bcee3f" d="M90.22,3.24h5.13v22.2H90.22Z"/><path class="bfbf0fc1-d337-498c-b91b-386c46bcee3f" d="M106.57,25.68c-4.92,0-8.64-3.3-8.64-8.61s3.81-8.61,8.7-8.61,8.7,3.3,8.7,8.61S111.49,25.68,106.57,25.68Zm0-4.44c1.83,0,3.54-1.35,3.54-4.17s-1.68-4.17-3.48-4.17-3.48,1.32-3.48,4.17S104.71,21.24,106.57,21.24Z"/><path class="bfbf0fc1-d337-498c-b91b-386c46bcee3f" d="M124.58,25.68c-4.47,0-7.47-2.49-7.71-5.73h5.07a2.35,2.35,0,0,0,2.58,1.95c1.32,0,2-.6,2-1.35,0-2.7-9.12-.75-9.12-6.9,0-2.85,2.43-5.19,6.81-5.19s6.72,2.4,7.05,5.7h-4.74a2.21,2.21,0,0,0-2.46-1.89c-1.2,0-1.86.48-1.86,1.29,0,2.67,9.06.78,9.15,7C131.36,23.49,128.78,25.68,124.58,25.68Z"/><path class="bfbf0fc1-d337-498c-b91b-386c46bcee3f" d="M148.25,8.46c4.2,0,7.17,2.31,8,6.3h-5.46a2.64,2.64,0,0,0-2.67-1.92c-1.83,0-3.09,1.44-3.09,4.23s1.26,4.23,3.09,4.23a2.6,2.6,0,0,0,2.67-1.92h5.46a7.77,7.77,0,0,1-8,6.3c-4.92,0-8.4-3.3-8.4-8.61S143.33,8.46,148.25,8.46Z"/><path class="bfbf0fc1-d337-498c-b91b-386c46bcee3f" d="M165.18,8.46a5.83,5.83,0,0,1,5.16,2.61V8.7h5.13V25.44h-5.13V23.07a5.92,5.92,0,0,1-5.19,2.61c-4.08,0-7.35-3.36-7.35-8.64S161.07,8.46,165.18,8.46Zm1.5,4.47c-1.92,0-3.66,1.44-3.66,4.11s1.74,4.17,3.66,4.17,3.66-1.47,3.66-4.14S168.63,12.93,166.68,12.93Z"/><path class="bfbf0fc1-d337-498c-b91b-386c46bcee3f" d="M195.6,25.44h-5.13V23.16a6.1,6.1,0,0,1-5.07,2.46c-3.87,0-6.48-2.67-6.48-7.14V8.7H184v9.09c0,2.28,1.29,3.54,3.21,3.54s3.24-1.26,3.24-3.54V8.7h5.13Z"/><path class="bfbf0fc1-d337-498c-b91b-386c46bcee3f" d="M205.89,25.68c-4.47,0-7.47-2.49-7.71-5.73h5.07a2.35,2.35,0,0,0,2.58,1.95c1.32,0,2-.6,2-1.35,0-2.7-9.12-.75-9.12-6.9,0-2.85,2.43-5.19,6.81-5.19s6.72,2.4,7.05,5.7h-4.74a2.21,2.21,0,0,0-2.46-1.89c-1.2,0-1.86.48-1.86,1.29,0,2.67,9.06.78,9.15,7C212.67,23.49,210.09,25.68,205.89,25.68Z"/><path class="bfbf0fc1-d337-498c-b91b-386c46bcee3f" d="M222,8.46a5.81,5.81,0,0,1,5.15,2.61V8.7h5.13V25.44h-5.13V23.07a5.89,5.89,0,0,1-5.18,2.61c-4.08,0-7.35-3.36-7.35-8.64S217.85,8.46,222,8.46Zm1.5,4.47c-1.92,0-3.66,1.44-3.66,4.11s1.74,4.17,3.66,4.17,3.65-1.47,3.65-4.14S225.4,12.93,223.46,12.93Z"/><path class="bfbf0fc1-d337-498c-b91b-386c46bcee3f" d="M235.83,3.24H241v22.2h-5.13Z"/><path class="bfbf0fc1-d337-498c-b91b-386c46bcee3f" d="M252,25.68c-4.92,0-8.46-3.3-8.46-8.61S247,8.46,252,8.46s8.34,3.24,8.34,8.34a13,13,0,0,1-.09,1.5H248.64c.18,2.19,1.53,3.21,3.18,3.21a2.73,2.73,0,0,0,2.67-1.62H260A7.82,7.82,0,0,1,252,25.68Zm-3.33-10.23h6.42a2.89,2.89,0,0,0-3.15-2.88A3.17,3.17,0,0,0,248.67,15.45Z"/><path class="bfbf0fc1-d337-498c-b91b-386c46bcee3f" d="M269.57,25.68c-4.47,0-7.46-2.49-7.71-5.73h5.07a2.35,2.35,0,0,0,2.58,1.95c1.32,0,2-.6,2-1.35,0-2.7-9.12-.75-9.12-6.9,0-2.85,2.43-5.19,6.81-5.19s6.72,2.4,7.05,5.7h-4.74a2.21,2.21,0,0,0-2.46-1.89c-1.2,0-1.86.48-1.86,1.29,0,2.67,9.06.78,9.15,7C276.35,23.49,273.77,25.68,269.57,25.68Z"/><path class="e536f0b2-5cbc-4a83-8080-28fc1e8f3696" d="M11,73.88H5.64v4.7h4.77v1H5.64v4.77H11v1H4.38V72.83H11Z"/><path class="e536f0b2-5cbc-4a83-8080-28fc1e8f3696" d="M16.39,85.58c-2.24,0-3.8-1.12-4-2.92h1.3c.11,1.08,1,1.86,2.65,1.86,1.4,0,2.19-.76,2.19-1.69,0-2.43-5.9-1-5.9-4.7,0-1.46,1.38-2.67,3.45-2.67s3.5,1.12,3.61,3H18.46a2.11,2.11,0,0,0-2.38-1.93c-1.31,0-2.14.7-2.14,1.57,0,2.66,5.81,1.24,5.87,4.72C19.81,84.41,18.42,85.58,16.39,85.58Z"/><path class="e536f0b2-5cbc-4a83-8080-28fc1e8f3696" d="M22.37,76.67H21V75.61h1.37V73.14h1.28v2.47h2.7v1.06h-2.7v6.1c0,1.21.41,1.59,1.54,1.59h1.16v1.08H25c-1.71,0-2.63-.7-2.63-2.67Z"/><path class="e536f0b2-5cbc-4a83-8080-28fc1e8f3696" d="M32.17,85.58a5.06,5.06,0,0,1,0-10.12,5.06,5.06,0,0,1,0,10.12Zm0-1.1a3.61,3.61,0,0,0,3.66-4c0-2.7-1.76-4-3.64-4s-3.62,1.26-3.62,4S30.3,84.48,32.17,84.48Z"/><path class="e536f0b2-5cbc-4a83-8080-28fc1e8f3696" d="M42.68,85.58c-2.23,0-3.8-1.12-4-2.92H40c.1,1.08,1,1.86,2.64,1.86,1.41,0,2.2-.76,2.2-1.69,0-2.43-5.91-1-5.91-4.7,0-1.46,1.39-2.67,3.46-2.67s3.49,1.12,3.6,3H44.75a2.1,2.1,0,0,0-2.38-1.93c-1.31,0-2.14.7-2.14,1.57,0,2.66,5.82,1.24,5.87,4.72C46.1,84.41,44.72,85.58,42.68,85.58Z"/><path class="e536f0b2-5cbc-4a83-8080-28fc1e8f3696" d="M67.77,79.82c0-2.18-1.13-3.3-2.88-3.3s-3,1.19-3,3.59v5.33H60.61V79.82c0-2.18-1.15-3.3-2.9-3.3s-3,1.19-3,3.59v5.33H53.41V75.61h1.26V77.3a3.51,3.51,0,0,1,3.26-1.87,3.62,3.62,0,0,1,3.63,2.41,3.58,3.58,0,0,1,3.55-2.41c2.18,0,3.91,1.36,3.91,4.25v5.76H67.77Z"/><path class="e536f0b2-5cbc-4a83-8080-28fc1e8f3696" d="M76.08,85.58a5.06,5.06,0,1,1,5-5.06A4.79,4.79,0,0,1,76.08,85.58Zm0-1.1a4,4,0,0,0,0-7.92c-1.87,0-3.62,1.26-3.62,4S74.21,84.48,76.08,84.48Z"/><path class="e536f0b2-5cbc-4a83-8080-28fc1e8f3696" d="M87.49,75.46a4.27,4.27,0,0,1,3.87,2.27V72.11h1.26V85.44H91.36v-2.2a4.1,4.1,0,0,1-3.89,2.34c-2.7,0-4.7-2-4.7-5.08S84.77,75.46,87.49,75.46Zm.21,1.1c-2.07,0-3.65,1.44-3.65,3.94s1.58,4,3.65,4a4,4,0,0,0,0-7.92Z"/><path class="e536f0b2-5cbc-4a83-8080-28fc1e8f3696" d="M99.72,85.58c-2.79,0-4.82-1.94-4.82-5.06s2-5.06,4.82-5.06A4.42,4.42,0,0,1,104.37,80a7.79,7.79,0,0,1,0,1H96.18a3.43,3.43,0,0,0,3.54,3.51,3,3,0,0,0,3.17-2.2h1.33A4.31,4.31,0,0,1,99.72,85.58ZM96.18,80h6.91a3.21,3.21,0,0,0-3.42-3.44A3.39,3.39,0,0,0,96.18,80Z"/><path class="e536f0b2-5cbc-4a83-8080-28fc1e8f3696" d="M106.67,72.11h1.26V85.44h-1.26Z"/><path class="e536f0b2-5cbc-4a83-8080-28fc1e8f3696" d="M115.07,85.58a5.06,5.06,0,1,1,5-5.06A4.79,4.79,0,0,1,115.07,85.58Zm0-1.1a4,4,0,0,0,0-7.92c-1.87,0-3.62,1.26-3.62,4S113.2,84.48,115.07,84.48Z"/><path class="e536f0b2-5cbc-4a83-8080-28fc1e8f3696" d="M125.58,85.58c-2.23,0-3.8-1.12-4-2.92h1.3c.1,1.08,1,1.86,2.64,1.86,1.41,0,2.2-.76,2.2-1.69,0-2.43-5.91-1-5.91-4.7,0-1.46,1.39-2.67,3.46-2.67s3.49,1.12,3.6,3h-1.26a2.1,2.1,0,0,0-2.38-1.93c-1.31,0-2.14.7-2.14,1.57,0,2.66,5.82,1.24,5.87,4.72C129,84.41,127.61,85.58,125.58,85.58Z"/><path class="e536f0b2-5cbc-4a83-8080-28fc1e8f3696" d="M139.69,85.58c-2.23,0-3.8-1.12-4-2.92H137c.11,1.08,1,1.86,2.64,1.86,1.41,0,2.2-.76,2.2-1.69,0-2.43-5.91-1-5.91-4.7,0-1.46,1.39-2.67,3.46-2.67s3.49,1.12,3.6,3h-1.26a2.1,2.1,0,0,0-2.37-1.93c-1.32,0-2.15.7-2.15,1.57,0,2.66,5.82,1.24,5.87,4.72C143.11,84.41,141.73,85.58,139.69,85.58Z"/><path class="e536f0b2-5cbc-4a83-8080-28fc1e8f3696" d="M149.65,85.58c-2.79,0-4.82-1.94-4.82-5.06s2-5.06,4.82-5.06A4.42,4.42,0,0,1,154.3,80a7.79,7.79,0,0,1,0,1h-8.15a3.44,3.44,0,0,0,3.54,3.51,3,3,0,0,0,3.17-2.2h1.34A4.32,4.32,0,0,1,149.65,85.58ZM146.11,80H153a3.21,3.21,0,0,0-3.42-3.44A3.39,3.39,0,0,0,146.11,80Z"/><path class="e536f0b2-5cbc-4a83-8080-28fc1e8f3696" d="M166.68,75.46c2.69,0,4.68,2,4.68,5s-2,5.08-4.68,5.08a4.22,4.22,0,0,1-3.91-2.3v6.8h-1.24V75.61h1.24v2.16A4.17,4.17,0,0,1,166.68,75.46Zm-.25,1.1a4,4,0,0,0,0,7.92c2.07,0,3.66-1.49,3.66-4A3.59,3.59,0,0,0,166.43,76.56Z"/><path class="e536f0b2-5cbc-4a83-8080-28fc1e8f3696" d="M174.91,85.44h-1.26V75.61h1.26v1.74a3.4,3.4,0,0,1,3.37-1.92v1.31h-.34c-1.64,0-3,.74-3,3.21Z"/><path class="e536f0b2-5cbc-4a83-8080-28fc1e8f3696" d="M184,85.58c-2.79,0-4.82-1.94-4.82-5.06s2-5.06,4.82-5.06A4.42,4.42,0,0,1,188.64,80a7.79,7.79,0,0,1,0,1h-8.16A3.44,3.44,0,0,0,184,84.52a3,3,0,0,0,3.17-2.2h1.33A4.31,4.31,0,0,1,184,85.58ZM180.44,80h6.92a3.21,3.21,0,0,0-3.42-3.44A3.4,3.4,0,0,0,180.44,80Z"/><path class="e536f0b2-5cbc-4a83-8080-28fc1e8f3696" d="M195.07,75.46A4.14,4.14,0,0,1,199,77.75V75.61h1.26V85.69a4.35,4.35,0,0,1-4.59,4.57c-2.54,0-4.31-1.29-4.7-3.35h1.24a3.36,3.36,0,0,0,3.46,2.25A3.2,3.2,0,0,0,199,85.69V83.26a4.15,4.15,0,0,1-3.89,2.32c-2.7,0-4.7-2-4.7-5.08S192.37,75.46,195.07,75.46Zm.23,1.1c-2.07,0-3.65,1.44-3.65,3.94s1.58,4,3.65,4a4,4,0,0,0,0-7.92Z"/><path class="e536f0b2-5cbc-4a83-8080-28fc1e8f3696" d="M211.58,85.44h-1.26V83.71A3.57,3.57,0,0,1,207,85.6c-2.24,0-4-1.37-4-4.25V75.61h1.24v5.6c0,2.17,1.19,3.29,3,3.29s3.12-1.15,3.12-3.55V75.61h1.26Z"/><path class="e536f0b2-5cbc-4a83-8080-28fc1e8f3696" d="M221.76,79.82c0-2.18-1.19-3.3-3-3.3s-3.11,1.16-3.11,3.55v5.37H214.4V75.61h1.26v1.67A3.59,3.59,0,0,1,219,75.43c2.24,0,4,1.36,4,4.25v5.76h-1.24Z"/><path class="e536f0b2-5cbc-4a83-8080-28fc1e8f3696" d="M225.88,76.67h-1.37V75.61h1.37V73.14h1.28v2.47h2.7v1.06h-2.7v6.1c0,1.21.41,1.59,1.55,1.59h1.15v1.08h-1.35c-1.71,0-2.63-.7-2.63-2.67Z"/><path class="e536f0b2-5cbc-4a83-8080-28fc1e8f3696" d="M235.52,75.46a4.08,4.08,0,0,1,3.89,2.31V75.61h1.26v9.83h-1.26V83.26a4.14,4.14,0,0,1-3.9,2.32c-2.69,0-4.69-2-4.69-5.08S232.82,75.46,235.52,75.46Zm.24,1.1a3.59,3.59,0,0,0-3.66,3.94c0,2.49,1.59,4,3.66,4a4,4,0,0,0,0-7.92Z"/><path class="e536f0b2-5cbc-4a83-8080-28fc1e8f3696" d="M250.87,79.82c0-2.18-1.19-3.3-3-3.3s-3.12,1.16-3.12,3.55v5.37H243.5V75.61h1.26v1.67a3.6,3.6,0,0,1,3.35-1.85c2.24,0,4,1.36,4,4.25v5.76h-1.24Z"/><path class="e536f0b2-5cbc-4a83-8080-28fc1e8f3696" d="M265,75.46c2.68,0,4.68,2,4.68,5s-2,5.08-4.68,5.08a4.22,4.22,0,0,1-3.91-2.3v6.8h-1.24V75.61h1.24v2.16A4.17,4.17,0,0,1,265,75.46Zm-.25,1.1a4,4,0,0,0,0,7.92c2.07,0,3.65-1.49,3.65-4S266.8,76.56,264.73,76.56Z"/><path class="e536f0b2-5cbc-4a83-8080-28fc1e8f3696" d="M276.28,85.58a5.06,5.06,0,1,1,5-5.06A4.79,4.79,0,0,1,276.28,85.58Zm0-1.1a4,4,0,0,0,0-7.92c-1.87,0-3.62,1.26-3.62,4S274.41,84.48,276.28,84.48Z"/><path class="e536f0b2-5cbc-4a83-8080-28fc1e8f3696" d="M284.77,85.44h-1.26V75.61h1.26v1.74a3.4,3.4,0,0,1,3.37-1.92v1.31h-.34c-1.64,0-3,.74-3,3.21Z"/><path class="e536f0b2-5cbc-4a83-8080-28fc1e8f3696" d="M295,72.11h1.26V85.44H295Z"/><path class="e536f0b2-5cbc-4a83-8080-28fc1e8f3696" d="M303.19,75.46a4.07,4.07,0,0,1,3.88,2.31V75.61h1.27v9.83h-1.27V83.26a4.14,4.14,0,0,1-3.9,2.32c-2.69,0-4.68-2-4.68-5.08S300.48,75.46,303.19,75.46Zm.23,1.1a3.59,3.59,0,0,0-3.66,3.94c0,2.49,1.59,4,3.66,4a4,4,0,0,0,0-7.92Z"/><path class="e536f0b2-5cbc-4a83-8080-28fc1e8f3696" d="M5.64,115.44H4.38v-9.83H5.64v1.74A3.4,3.4,0,0,1,9,105.43v1.31H8.67c-1.64,0-3,.74-3,3.21Z"/><path class="e536f0b2-5cbc-4a83-8080-28fc1e8f3696" d="M14.72,115.58a4.69,4.69,0,0,1-4.83-5.06c0-3.13,2-5.06,4.83-5.06A4.42,4.42,0,0,1,19.36,110c0,.39,0,.65,0,1H11.17a3.44,3.44,0,0,0,3.55,3.51,3,3,0,0,0,3.17-2.2h1.33A4.31,4.31,0,0,1,14.72,115.58ZM11.17,110h6.92a3.22,3.22,0,0,0-3.43-3.44A3.4,3.4,0,0,0,11.17,110Z"/><path class="e536f0b2-5cbc-4a83-8080-28fc1e8f3696" d="M21.67,102.11h1.26v13.33H21.67Z"/><path class="e536f0b2-5cbc-4a83-8080-28fc1e8f3696" d="M29.89,105.46a4.1,4.1,0,0,1,3.89,2.31v-2.16H35v9.83H33.78v-2.18a4.15,4.15,0,0,1-3.91,2.32c-2.68,0-4.68-2-4.68-5.08S27.19,105.46,29.89,105.46Zm.23,1.1c-2.07,0-3.65,1.44-3.65,3.94s1.58,4,3.65,4a4,4,0,0,0,0-7.92Z"/><path class="e536f0b2-5cbc-4a83-8080-28fc1e8f3696" d="M42.09,105.46a4.25,4.25,0,0,1,4.52,3.35H45.26a3,3,0,0,0-3.17-2.27c-1.92,0-3.49,1.32-3.49,4s1.57,4,3.49,4a3,3,0,0,0,3.17-2.29h1.35a4.31,4.31,0,0,1-4.52,3.35c-2.77,0-4.77-1.94-4.77-5.06S39.32,105.46,42.09,105.46Z"/><path class="e536f0b2-5cbc-4a83-8080-28fc1e8f3696" d="M48.53,102.82a.92.92,0,0,1,1.84,0,.92.92,0,1,1-1.84,0Zm.29,2.79h1.26v9.83H48.82Z"/><path class="e536f0b2-5cbc-4a83-8080-28fc1e8f3696" d="M57.17,115.58a5.06,5.06,0,1,1,4.95-5.06A4.79,4.79,0,0,1,57.17,115.58Zm0-1.1a4,4,0,0,0,0-7.92c-1.87,0-3.62,1.26-3.62,4S55.3,114.48,57.17,114.48Zm1.73-13v1.14l-3.69,2.14v-1Z"/><path class="e536f0b2-5cbc-4a83-8080-28fc1e8f3696" d="M71.77,109.82c0-2.18-1.19-3.3-3-3.3s-3.12,1.16-3.12,3.55v5.37H64.4v-9.83h1.26v1.67A3.6,3.6,0,0,1,69,105.43c2.23,0,4,1.36,4,4.25v5.76H71.77Z"/><path class="e536f0b2-5cbc-4a83-8080-28fc1e8f3696" d="M84.92,105.46a4.25,4.25,0,0,1,4.52,3.35H88.09a3,3,0,0,0-3.17-2.27c-1.92,0-3.49,1.32-3.49,4s1.57,4,3.49,4a3,3,0,0,0,3.17-2.29h1.35a4.31,4.31,0,0,1-4.52,3.35c-2.77,0-4.77-1.94-4.77-5.06S82.15,105.46,84.92,105.46Z"/><path class="e536f0b2-5cbc-4a83-8080-28fc1e8f3696" d="M95.74,105.46a4.1,4.1,0,0,1,3.89,2.31v-2.16h1.26v9.83H99.63v-2.18a4.16,4.16,0,0,1-3.91,2.32c-2.68,0-4.68-2-4.68-5.08S93,105.46,95.74,105.46Zm.23,1.1c-2.07,0-3.65,1.44-3.65,3.94s1.58,4,3.65,4a4,4,0,0,0,0-7.92Z"/><path class="e536f0b2-5cbc-4a83-8080-28fc1e8f3696" d="M112.24,115.44H111v-1.73a3.55,3.55,0,0,1-3.35,1.89c-2.23,0-4-1.37-4-4.25v-5.74h1.24v5.6c0,2.17,1.19,3.29,3,3.29S111,113.35,111,111v-5.34h1.26Z"/><path class="e536f0b2-5cbc-4a83-8080-28fc1e8f3696" d="M118.44,115.58c-2.23,0-3.8-1.12-4-2.92h1.3c.11,1.08,1,1.86,2.65,1.86,1.4,0,2.19-.76,2.19-1.69,0-2.43-5.9-1-5.9-4.7,0-1.46,1.38-2.67,3.45-2.67s3.5,1.12,3.6,3h-1.26a2.1,2.1,0,0,0-2.37-1.93c-1.32,0-2.15.7-2.15,1.57,0,2.66,5.82,1.24,5.87,4.72C121.86,114.41,120.48,115.58,118.44,115.58Z"/><path class="e536f0b2-5cbc-4a83-8080-28fc1e8f3696" d="M128.28,105.46a4.1,4.1,0,0,1,3.89,2.31v-2.16h1.26v9.83h-1.26v-2.18a4.15,4.15,0,0,1-3.91,2.32c-2.68,0-4.68-2-4.68-5.08S125.58,105.46,128.28,105.46Zm.23,1.1c-2.07,0-3.65,1.44-3.65,3.94s1.58,4,3.65,4a4,4,0,0,0,0-7.92Z"/><path class="e536f0b2-5cbc-4a83-8080-28fc1e8f3696" d="M136.26,102.11h1.26v13.33h-1.26Z"/><path class="e536f0b2-5cbc-4a83-8080-28fc1e8f3696" d="M149.56,115.58a4.69,4.69,0,0,1-4.83-5.06c0-3.13,2-5.06,4.83-5.06A4.42,4.42,0,0,1,154.2,110c0,.39,0,.65,0,1H146a3.44,3.44,0,0,0,3.55,3.51,3,3,0,0,0,3.17-2.2h1.33A4.31,4.31,0,0,1,149.56,115.58ZM146,110h6.92a3.22,3.22,0,0,0-3.42-3.44A3.4,3.4,0,0,0,146,110Z"/><path class="e536f0b2-5cbc-4a83-8080-28fc1e8f3696" d="M163.88,109.82c0-2.18-1.19-3.3-3-3.3s-3.12,1.16-3.12,3.55v5.37h-1.26v-9.83h1.26v1.67a3.6,3.6,0,0,1,3.35-1.85c2.24,0,4,1.36,4,4.25v5.76h-1.24Z"/><path class="e536f0b2-5cbc-4a83-8080-28fc1e8f3696" d="M168,106.67h-1.37v-1.06H168v-2.47h1.28v2.47H172v1.06h-2.7v6.1c0,1.21.41,1.59,1.54,1.59H172v1.08h-1.35c-1.71,0-2.63-.7-2.63-2.67Z"/><path class="e536f0b2-5cbc-4a83-8080-28fc1e8f3696" d="M175.08,115.44h-1.26v-9.83h1.26v1.74a3.38,3.38,0,0,1,3.36-1.92v1.31h-.34c-1.64,0-3,.74-3,3.21Z"/><path class="e536f0b2-5cbc-4a83-8080-28fc1e8f3696" d="M184.16,115.58a4.69,4.69,0,0,1-4.83-5.06c0-3.13,2-5.06,4.83-5.06A4.42,4.42,0,0,1,188.8,110c0,.39,0,.65,0,1h-8.16a3.44,3.44,0,0,0,3.55,3.51,3,3,0,0,0,3.17-2.2h1.33A4.32,4.32,0,0,1,184.16,115.58Zm-3.55-5.6h6.91a3.21,3.21,0,0,0-3.42-3.44A3.39,3.39,0,0,0,180.61,110Z"/><path class="e536f0b2-5cbc-4a83-8080-28fc1e8f3696" d="M196.22,105.61l3.31,8.6,3.31-8.6h1.33l-3.94,9.83h-1.42l-3.95-9.83Z"/><path class="e536f0b2-5cbc-4a83-8080-28fc1e8f3696" d="M209.58,105.46a4.1,4.1,0,0,1,3.89,2.31v-2.16h1.26v9.83h-1.26v-2.18a4.14,4.14,0,0,1-3.9,2.32c-2.69,0-4.69-2-4.69-5.08S206.88,105.46,209.58,105.46Zm.24,1.1a3.59,3.59,0,0,0-3.66,3.94c0,2.49,1.59,4,3.66,4a4,4,0,0,0,0-7.92Z"/><path class="e536f0b2-5cbc-4a83-8080-28fc1e8f3696" d="M218.82,115.44h-1.26v-9.83h1.26v1.74a3.4,3.4,0,0,1,3.37-1.92v1.31h-.34c-1.64,0-3,.74-3,3.21Z"/><path class="e536f0b2-5cbc-4a83-8080-28fc1e8f3696" d="M223.65,102.82a.92.92,0,1,1,.92.93A.91.91,0,0,1,223.65,102.82Zm.29,2.79h1.26v9.83h-1.26Z"/><path class="e536f0b2-5cbc-4a83-8080-28fc1e8f3696" d="M232.11,105.46a4.1,4.1,0,0,1,3.89,2.31v-2.16h1.26v9.83H236v-2.18a4.14,4.14,0,0,1-3.9,2.32c-2.69,0-4.69-2-4.69-5.08S229.41,105.46,232.11,105.46Zm.24,1.1a3.59,3.59,0,0,0-3.66,3.94c0,2.49,1.59,4,3.66,4a4,4,0,0,0,0-7.92Z"/><path class="e536f0b2-5cbc-4a83-8080-28fc1e8f3696" d="M245.24,105.46c2.7,0,4.68,2,4.68,5s-2,5.08-4.68,5.08a4.14,4.14,0,0,1-3.91-2.3v2.16h-1.24V102.11h1.24v5.67A4.18,4.18,0,0,1,245.24,105.46Zm-.25,1.1a4,4,0,0,0,0,7.92c2.07,0,3.65-1.49,3.65-4S247.06,106.56,245,106.56Z"/><path class="e536f0b2-5cbc-4a83-8080-28fc1e8f3696" d="M252.23,102.11h1.26v13.33h-1.26Z"/><path class="e536f0b2-5cbc-4a83-8080-28fc1e8f3696" d="M260.58,115.58c-2.79,0-4.82-1.94-4.82-5.06s2-5.06,4.82-5.06a4.42,4.42,0,0,1,4.65,4.56,7.79,7.79,0,0,1,0,1H257a3.44,3.44,0,0,0,3.55,3.51,3,3,0,0,0,3.17-2.2h1.33A4.31,4.31,0,0,1,260.58,115.58ZM257,110H264a3.21,3.21,0,0,0-3.42-3.44A3.4,3.4,0,0,0,257,110Z"/><path class="e536f0b2-5cbc-4a83-8080-28fc1e8f3696" d="M270.83,115.58c-2.23,0-3.8-1.12-4-2.92h1.29c.11,1.08,1,1.86,2.65,1.86,1.41,0,2.2-.76,2.2-1.69,0-2.43-5.91-1-5.91-4.7,0-1.46,1.39-2.67,3.46-2.67s3.49,1.12,3.6,3H272.9a2.1,2.1,0,0,0-2.38-1.93c-1.31,0-2.14.7-2.14,1.57,0,2.66,5.82,1.24,5.87,4.72C274.25,114.41,272.86,115.58,270.83,115.58Z"/><path class="e536f0b2-5cbc-4a83-8080-28fc1e8f3696" d="M277.06,115.53a.92.92,0,0,1-.92-.94.91.91,0,1,1,1.82,0A.92.92,0,0,1,277.06,115.53Z"/><path class="e536f0b2-5cbc-4a83-8080-28fc1e8f3696" d="M288.87,115.56c-2.53,0-4.18-1.44-4.25-3.36H286a2.62,2.62,0,0,0,2.92,2.3c1.74,0,2.77-1,2.77-2.32,0-3.71-6.92-1.37-6.92-6.11,0-1.94,1.61-3.36,4-3.36s3.83,1.33,4.05,3.06h-1.37a2.57,2.57,0,0,0-2.74-2c-1.47,0-2.7.79-2.7,2.25,0,3.64,6.92,1.4,6.92,6.08C292.92,113.83,291.53,115.56,288.87,115.56Z"/><path class="e536f0b2-5cbc-4a83-8080-28fc1e8f3696" d="M299.51,115.58a5.06,5.06,0,1,1,4.95-5.06A4.79,4.79,0,0,1,299.51,115.58Zm0-1.1a4,4,0,0,0,0-7.92c-1.87,0-3.62,1.26-3.62,4S297.64,114.48,299.51,114.48Z"/><path class="e536f0b2-5cbc-4a83-8080-28fc1e8f3696" d="M314.11,109.82c0-2.18-1.19-3.3-3-3.3s-3.12,1.16-3.12,3.55v5.37h-1.26v-9.83H308v1.67a3.6,3.6,0,0,1,3.35-1.85c2.23,0,4,1.36,4,4.25v5.76h-1.24Z"/><path class="e536f0b2-5cbc-4a83-8080-28fc1e8f3696" d="M18.75,139.82c0-2.18-1.14-3.3-2.88-3.3s-3,1.19-3,3.59v5.33H11.58v-5.62c0-2.18-1.15-3.3-2.9-3.3s-3,1.19-3,3.59v5.33H4.38v-9.83H5.64v1.69a3.51,3.51,0,0,1,3.26-1.87,3.64,3.64,0,0,1,3.64,2.41,3.58,3.58,0,0,1,3.54-2.41c2.18,0,3.91,1.36,3.91,4.25v5.76H18.75Z"/><path class="e536f0b2-5cbc-4a83-8080-28fc1e8f3696" d="M31.22,145.44H30v-1.73a3.55,3.55,0,0,1-3.35,1.89c-2.23,0-4-1.37-4-4.25v-5.74h1.25v5.6c0,2.17,1.19,3.29,3,3.29S30,143.35,30,141v-5.34h1.26Z"/><path class="e536f0b2-5cbc-4a83-8080-28fc1e8f3696" d="M40.87,135.61h1.29l-5.83,14.45H35l1.91-4.68-4-9.77h1.39L37.63,144Z"/><path class="e536f0b2-5cbc-4a83-8080-28fc1e8f3696" d="M57.32,145.44H56.06v-1.73a3.55,3.55,0,0,1-3.35,1.89c-2.23,0-4-1.37-4-4.25v-5.74H50v5.6c0,2.17,1.19,3.29,3,3.29s3.12-1.15,3.12-3.55v-5.34h1.26Z"/><path class="e536f0b2-5cbc-4a83-8080-28fc1e8f3696" d="M63.52,145.58c-2.23,0-3.8-1.12-4-2.92h1.3c.1,1.08,1,1.86,2.64,1.86,1.41,0,2.2-.76,2.2-1.69,0-2.43-5.91-1-5.91-4.7,0-1.46,1.39-2.67,3.46-2.67s3.49,1.12,3.6,3H65.59a2.1,2.1,0,0,0-2.38-1.93c-1.31,0-2.14.7-2.14,1.57,0,2.66,5.82,1.24,5.87,4.72C66.94,144.41,65.55,145.58,63.52,145.58Z"/><path class="e536f0b2-5cbc-4a83-8080-28fc1e8f3696" d="M73.36,135.46a4.1,4.1,0,0,1,3.89,2.31v-2.16h1.26v9.83H77.25v-2.18a4.16,4.16,0,0,1-3.91,2.32c-2.68,0-4.68-2-4.68-5.08S70.66,135.46,73.36,135.46Zm.23,1.1c-2.07,0-3.65,1.44-3.65,3.94s1.58,4,3.65,4a4,4,0,0,0,0-7.92Z"/><path class="e536f0b2-5cbc-4a83-8080-28fc1e8f3696" d="M85.5,135.46a4.26,4.26,0,0,1,3.87,2.27v-5.62h1.27v13.33H89.37v-2.2a4.08,4.08,0,0,1-3.89,2.34c-2.7,0-4.69-2-4.69-5.08S82.78,135.46,85.5,135.46Zm.22,1.1a3.59,3.59,0,0,0-3.66,3.94c0,2.49,1.59,4,3.66,4a4,4,0,0,0,0-7.92Z"/><path class="e536f0b2-5cbc-4a83-8080-28fc1e8f3696" d="M97.61,135.46a4.1,4.1,0,0,1,3.89,2.31v-2.16h1.26v9.83H101.5v-2.18a4.14,4.14,0,0,1-3.9,2.32c-2.69,0-4.69-2-4.69-5.08S94.91,135.46,97.61,135.46Zm.24,1.1a3.59,3.59,0,0,0-3.66,3.94c0,2.49,1.59,4,3.66,4a4,4,0,0,0,0-7.92Z"/><path class="e536f0b2-5cbc-4a83-8080-28fc1e8f3696" d="M109,145.58c-2.23,0-3.8-1.12-4-2.92h1.3c.1,1.08,1,1.86,2.64,1.86,1.41,0,2.2-.76,2.2-1.69,0-2.43-5.91-1-5.91-4.7,0-1.46,1.39-2.67,3.46-2.67s3.49,1.12,3.6,3H111a2.1,2.1,0,0,0-2.37-1.93c-1.32,0-2.15.7-2.15,1.57,0,2.66,5.82,1.24,5.87,4.72C112.39,144.41,111,145.58,109,145.58Z"/><path class="e536f0b2-5cbc-4a83-8080-28fc1e8f3696" d="M124,145.58a4.69,4.69,0,0,1-4.83-5.06c0-3.13,2-5.06,4.83-5.06a4.42,4.42,0,0,1,4.64,4.56c0,.39,0,.65,0,1H120.4a3.44,3.44,0,0,0,3.55,3.51,3,3,0,0,0,3.17-2.2h1.33A4.32,4.32,0,0,1,124,145.58ZM120.4,140h6.91a3.21,3.21,0,0,0-3.42-3.44A3.39,3.39,0,0,0,120.4,140Z"/><path class="e536f0b2-5cbc-4a83-8080-28fc1e8f3696" d="M138.27,139.82c0-2.18-1.19-3.3-3-3.3s-3.12,1.16-3.12,3.55v5.37H130.9v-9.83h1.26v1.67a3.6,3.6,0,0,1,3.35-1.85c2.23,0,4,1.36,4,4.25v5.76h-1.24Z"/><path class="e536f0b2-5cbc-4a83-8080-28fc1e8f3696" d="M151.35,135.46a4.1,4.1,0,0,1,3.89,2.31v-2.16h1.26v9.83h-1.26v-2.18a4.16,4.16,0,0,1-3.91,2.32c-2.68,0-4.68-2-4.68-5.08S148.65,135.46,151.35,135.46Zm.23,1.1c-2.07,0-3.65,1.44-3.65,3.94s1.58,4,3.65,4a4,4,0,0,0,0-7.92Z"/><path class="e536f0b2-5cbc-4a83-8080-28fc1e8f3696" d="M166.69,139.82c0-2.18-1.19-3.3-3-3.3s-3.11,1.16-3.11,3.55v5.37h-1.26v-9.83h1.26v1.67a3.6,3.6,0,0,1,3.35-1.85c2.23,0,4,1.36,4,4.25v5.76h-1.24Z"/><path class="e536f0b2-5cbc-4a83-8080-28fc1e8f3696" d="M174.8,135.46a4.1,4.1,0,0,1,3.89,2.31v-2.16H180v9.83h-1.26v-2.18a4.16,4.16,0,0,1-3.91,2.32c-2.68,0-4.68-2-4.68-5.08S172.1,135.46,174.8,135.46Zm.23,1.1c-2.07,0-3.65,1.44-3.65,3.94s1.58,4,3.65,4a4,4,0,0,0,0-7.92Zm2-5v1.14l-3.69,2.14v-1Z"/><path class="e536f0b2-5cbc-4a83-8080-28fc1e8f3696" d="M182.77,132.11H184v13.33h-1.26Z"/><path class="e536f0b2-5cbc-4a83-8080-28fc1e8f3696" d="M186.54,132.82a.92.92,0,1,1,.92.93A.91.91,0,0,1,186.54,132.82Zm.29,2.79h1.26v9.83h-1.26Z"/><path class="e536f0b2-5cbc-4a83-8080-28fc1e8f3696" d="M194.27,145.58c-2.24,0-3.8-1.12-4-2.92h1.29c.11,1.08,1.05,1.86,2.65,1.86,1.4,0,2.2-.76,2.2-1.69,0-2.43-5.91-1-5.91-4.7,0-1.46,1.39-2.67,3.46-2.67s3.49,1.12,3.6,3h-1.26a2.1,2.1,0,0,0-2.38-1.93c-1.31,0-2.14.7-2.14,1.57,0,2.66,5.81,1.24,5.87,4.72C197.69,144.41,196.3,145.58,194.27,145.58Z"/><path class="e536f0b2-5cbc-4a83-8080-28fc1e8f3696" d="M199.71,132.82a.92.92,0,1,1,.92.93A.91.91,0,0,1,199.71,132.82Zm.29,2.79h1.26v9.83H200Z"/><path class="e536f0b2-5cbc-4a83-8080-28fc1e8f3696" d="M207.44,145.58c-2.24,0-3.8-1.12-4-2.92h1.29c.11,1.08,1,1.86,2.65,1.86,1.4,0,2.2-.76,2.2-1.69,0-2.43-5.91-1-5.91-4.7,0-1.46,1.39-2.67,3.46-2.67s3.49,1.12,3.6,3h-1.26a2.1,2.1,0,0,0-2.38-1.93c-1.31,0-2.14.7-2.14,1.57,0,2.66,5.81,1.24,5.87,4.72C210.86,144.41,209.47,145.58,207.44,145.58Z"/><path class="e536f0b2-5cbc-4a83-8080-28fc1e8f3696" d="M222.3,135.46a4.28,4.28,0,0,1,3.88,2.27v-5.62h1.26v13.33h-1.26v-2.2a4.1,4.1,0,0,1-3.89,2.34c-2.7,0-4.7-2-4.7-5.08S219.59,135.46,222.3,135.46Zm.22,1.1c-2.07,0-3.65,1.44-3.65,3.94s1.58,4,3.65,4a4,4,0,0,0,0-7.92Z"/><path class="e536f0b2-5cbc-4a83-8080-28fc1e8f3696" d="M234.54,145.58c-2.79,0-4.82-1.94-4.82-5.06s2-5.06,4.82-5.06a4.42,4.42,0,0,1,4.65,4.56,7.79,7.79,0,0,1,0,1H231a3.44,3.44,0,0,0,3.55,3.51,3,3,0,0,0,3.17-2.2H239A4.31,4.31,0,0,1,234.54,145.58ZM231,140h6.92a3.21,3.21,0,0,0-3.42-3.44A3.4,3.4,0,0,0,231,140Z"/><path class="e536f0b2-5cbc-4a83-8080-28fc1e8f3696" d="M251.57,135.46c2.68,0,4.68,2,4.68,5s-2,5.08-4.68,5.08a4.22,4.22,0,0,1-3.91-2.3v6.8h-1.24V135.61h1.24v2.16A4.17,4.17,0,0,1,251.57,135.46Zm-.25,1.1a4,4,0,0,0,0,7.92c2.07,0,3.65-1.49,3.65-4S253.39,136.56,251.32,136.56Z"/><path class="e536f0b2-5cbc-4a83-8080-28fc1e8f3696" d="M262.87,145.58a5.06,5.06,0,1,1,4.95-5.06A4.79,4.79,0,0,1,262.87,145.58Zm0-1.1a4,4,0,0,0,0-7.92c-1.87,0-3.62,1.26-3.62,4S261,144.48,262.87,144.48Z"/><path class="e536f0b2-5cbc-4a83-8080-28fc1e8f3696" d="M270.09,132.11h1.27v13.33h-1.27Z"/><path class="e536f0b2-5cbc-4a83-8080-28fc1e8f3696" d="M276.58,131.57v1.14l-3.69,2.14v-1Zm-2.29,4h1.26v9.83h-1.26Z"/><path class="e536f0b2-5cbc-4a83-8080-28fc1e8f3696" d="M278.64,136.67h-1.36v-1.06h1.36v-2.47h1.28v2.47h2.7v1.06h-2.7v6.1c0,1.21.42,1.59,1.55,1.59h1.15v1.08h-1.35c-1.71,0-2.63-.7-2.63-2.67Z"/><path class="e536f0b2-5cbc-4a83-8080-28fc1e8f3696" d="M284.18,132.82a.92.92,0,1,1,.92.93A.9.9,0,0,1,284.18,132.82Zm.28,2.79h1.27v9.83h-1.27Z"/><path class="e536f0b2-5cbc-4a83-8080-28fc1e8f3696" d="M292.71,135.46a4.25,4.25,0,0,1,4.52,3.35h-1.35a3,3,0,0,0-3.17-2.27c-1.93,0-3.49,1.32-3.49,4s1.56,4,3.49,4a3,3,0,0,0,3.17-2.29h1.35a4.31,4.31,0,0,1-4.52,3.35c-2.77,0-4.77-1.94-4.77-5.06S289.94,135.46,292.71,135.46Z"/><path class="e536f0b2-5cbc-4a83-8080-28fc1e8f3696" d="M303.52,135.46a4.08,4.08,0,0,1,3.89,2.31v-2.16h1.27v9.83h-1.27v-2.18a4.14,4.14,0,0,1-3.9,2.32c-2.69,0-4.68-2-4.68-5.08S300.82,135.46,303.52,135.46Zm.24,1.1a3.59,3.59,0,0,0-3.66,3.94c0,2.49,1.59,4,3.66,4a4,4,0,0,0,0-7.92Z"/><path class="e536f0b2-5cbc-4a83-8080-28fc1e8f3696" d="M314.88,145.58c-2.23,0-3.8-1.12-4-2.92h1.3c.11,1.08,1,1.86,2.65,1.86,1.4,0,2.19-.76,2.19-1.69,0-2.43-5.9-1-5.9-4.7,0-1.46,1.38-2.67,3.45-2.67s3.5,1.12,3.6,3H317a2.1,2.1,0,0,0-2.37-1.93c-1.32,0-2.14.7-2.14,1.57,0,2.66,5.81,1.24,5.86,4.72C318.3,144.41,316.92,145.58,314.88,145.58Z"/><path class="e536f0b2-5cbc-4a83-8080-28fc1e8f3696" d="M9.53,165.46c2.68,0,4.68,2,4.68,5s-2,5.08-4.68,5.08a4.22,4.22,0,0,1-3.91-2.3v6.8H4.38V165.61H5.62v2.16A4.17,4.17,0,0,1,9.53,165.46Zm-.25,1.1a4,4,0,0,0,0,7.92c2.07,0,3.65-1.49,3.65-4S11.35,166.56,9.28,166.56Z"/><path class="e536f0b2-5cbc-4a83-8080-28fc1e8f3696" d="M25,175.44H23.74v-1.73a3.56,3.56,0,0,1-3.35,1.89c-2.24,0-4-1.37-4-4.25v-5.74h1.24v5.6c0,2.17,1.19,3.29,3,3.29s3.12-1.15,3.12-3.55v-5.34H25Zm-2.6-13.87v1.14l-3.69,2.14v-1Z"/><path class="e536f0b2-5cbc-4a83-8080-28fc1e8f3696" d="M33,165.46c2.7,0,4.68,2,4.68,5s-2,5.08-4.68,5.08a4.12,4.12,0,0,1-3.91-2.3v2.16H27.82V162.11h1.24v5.67A4.18,4.18,0,0,1,33,165.46Zm-.26,1.1a4,4,0,0,0,0,7.92c2.07,0,3.66-1.49,3.66-4A3.59,3.59,0,0,0,32.71,166.56Z"/><path class="e536f0b2-5cbc-4a83-8080-28fc1e8f3696" d="M40,162.11h1.26v13.33H40Z"/><path class="e536f0b2-5cbc-4a83-8080-28fc1e8f3696" d="M43.73,162.82a.92.92,0,1,1,1.83,0,.92.92,0,1,1-1.83,0Zm.28,2.79h1.26v9.83H44Z"/><path class="e536f0b2-5cbc-4a83-8080-28fc1e8f3696" d="M52.26,165.46a4.25,4.25,0,0,1,4.52,3.35H55.43a3,3,0,0,0-3.17-2.27c-1.93,0-3.49,1.32-3.49,4s1.56,4,3.49,4a3,3,0,0,0,3.17-2.29h1.35a4.31,4.31,0,0,1-4.52,3.35c-2.77,0-4.77-1.94-4.77-5.06S49.49,165.46,52.26,165.46Z"/><path class="e536f0b2-5cbc-4a83-8080-28fc1e8f3696" d="M63.07,165.46A4.08,4.08,0,0,1,67,167.77v-2.16h1.26v9.83H67v-2.18a4.14,4.14,0,0,1-3.9,2.32c-2.69,0-4.68-2-4.68-5.08S60.37,165.46,63.07,165.46Zm.24,1.1a3.59,3.59,0,0,0-3.66,3.94c0,2.49,1.59,4,3.66,4a4,4,0,0,0,0-7.92Z"/><path class="e536f0b2-5cbc-4a83-8080-28fc1e8f3696" d="M74.43,175.58c-2.23,0-3.8-1.12-4-2.92h1.3c.11,1.08,1,1.86,2.64,1.86,1.41,0,2.2-.76,2.2-1.69,0-2.43-5.91-1-5.91-4.7,0-1.46,1.39-2.67,3.46-2.67s3.49,1.12,3.6,3H76.5a2.1,2.1,0,0,0-2.37-1.93c-1.32,0-2.15.7-2.15,1.57,0,2.66,5.82,1.24,5.87,4.72C77.85,174.41,76.47,175.58,74.43,175.58Z"/><path class="e536f0b2-5cbc-4a83-8080-28fc1e8f3696" d="M89.46,175.58a5.06,5.06,0,1,1,5-5.06A4.79,4.79,0,0,1,89.46,175.58Zm0-1.1a4,4,0,0,0,0-7.92c-1.87,0-3.62,1.26-3.62,4S87.59,174.48,89.46,174.48Z"/><path class="e536f0b2-5cbc-4a83-8080-28fc1e8f3696" d="M106.8,165.46c2.68,0,4.68,2,4.68,5s-2,5.08-4.68,5.08a4.19,4.19,0,0,1-3.91-2.3v6.8h-1.24V165.61h1.24v2.16A4.15,4.15,0,0,1,106.8,165.46Zm-.26,1.1a4,4,0,0,0,0,7.92c2.07,0,3.66-1.49,3.66-4A3.59,3.59,0,0,0,106.54,166.56Z"/><path class="e536f0b2-5cbc-4a83-8080-28fc1e8f3696" d="M117.92,165.46a4.1,4.1,0,0,1,3.89,2.31v-2.16h1.26v9.83h-1.26v-2.18a4.16,4.16,0,0,1-3.91,2.32c-2.68,0-4.68-2-4.68-5.08S115.22,165.46,117.92,165.46Zm.23,1.1c-2.07,0-3.65,1.44-3.65,3.94s1.58,4,3.65,4a4,4,0,0,0,0-7.92Z"/><path class="e536f0b2-5cbc-4a83-8080-28fc1e8f3696" d="M127.16,175.44H125.9v-9.83h1.26v1.74a3.38,3.38,0,0,1,3.36-1.92v1.31h-.34c-1.64,0-3,.74-3,3.21Z"/><path class="e536f0b2-5cbc-4a83-8080-28fc1e8f3696" d="M136.11,165.46a4.1,4.1,0,0,1,3.89,2.31v-2.16h1.26v9.83H140v-2.18a4.15,4.15,0,0,1-3.91,2.32c-2.68,0-4.68-2-4.68-5.08S133.41,165.46,136.11,165.46Zm.23,1.1c-2.07,0-3.65,1.44-3.65,3.94s1.58,4,3.65,4a4,4,0,0,0,0-7.92Z"/><path class="e536f0b2-5cbc-4a83-8080-28fc1e8f3696" d="M153.32,175.58a4.69,4.69,0,0,1-4.83-5.06c0-3.13,2-5.06,4.83-5.06A4.42,4.42,0,0,1,158,170c0,.39,0,.65,0,1h-8.16a3.44,3.44,0,0,0,3.55,3.51,3,3,0,0,0,3.17-2.2h1.33A4.32,4.32,0,0,1,153.32,175.58Zm-3.55-5.6h6.92a3.22,3.22,0,0,0-3.43-3.44A3.39,3.39,0,0,0,149.77,170Z"/><path class="e536f0b2-5cbc-4a83-8080-28fc1e8f3696" d="M160.07,165.61l3.32,8.6,3.31-8.6H168l-3.94,9.83h-1.43l-3.94-9.83Z"/><path class="e536f0b2-5cbc-4a83-8080-28fc1e8f3696" d="M173.44,165.46a4.1,4.1,0,0,1,3.89,2.31v-2.16h1.26v9.83h-1.26v-2.18a4.16,4.16,0,0,1-3.91,2.32c-2.68,0-4.68-2-4.68-5.08S170.74,165.46,173.44,165.46Zm.23,1.1c-2.07,0-3.65,1.44-3.65,3.94s1.58,4,3.65,4a4,4,0,0,0,0-7.92Z"/><path class="e536f0b2-5cbc-4a83-8080-28fc1e8f3696" d="M181.42,162.11h1.26v13.33h-1.26Z"/><path class="e536f0b2-5cbc-4a83-8080-28fc1e8f3696" d="M194,175.44h-1.26v-1.73a3.56,3.56,0,0,1-3.35,1.89c-2.23,0-4-1.37-4-4.25v-5.74h1.25v5.6c0,2.17,1.18,3.29,3,3.29s3.12-1.15,3.12-3.55v-5.34H194Z"/><path class="e536f0b2-5cbc-4a83-8080-28fc1e8f3696" d="M201,165.46a4.1,4.1,0,0,1,3.89,2.31v-2.16h1.26v9.83h-1.26v-2.18a4.16,4.16,0,0,1-3.91,2.32c-2.68,0-4.68-2-4.68-5.08S198.28,165.46,201,165.46Zm.23,1.1c-2.07,0-3.65,1.44-3.65,3.94s1.58,4,3.65,4a4,4,0,0,0,0-7.92Z"/><path class="e536f0b2-5cbc-4a83-8080-28fc1e8f3696" d="M210.22,175.44H209v-9.83h1.26v1.74a3.39,3.39,0,0,1,3.37-1.92v1.31h-.35c-1.63,0-3,.74-3,3.21Z"/><path class="e536f0b2-5cbc-4a83-8080-28fc1e8f3696" d="M224.65,175.58c-2.79,0-4.82-1.94-4.82-5.06s2-5.06,4.82-5.06A4.42,4.42,0,0,1,229.3,170a7.79,7.79,0,0,1,0,1h-8.15a3.44,3.44,0,0,0,3.54,3.51,3,3,0,0,0,3.17-2.2h1.34A4.32,4.32,0,0,1,224.65,175.58Zm-3.54-5.6H228a3.21,3.21,0,0,0-3.42-3.44A3.39,3.39,0,0,0,221.11,170Z"/><path class="e536f0b2-5cbc-4a83-8080-28fc1e8f3696" d="M231.6,162.11h1.26v13.33H231.6Z"/><path class="e536f0b2-5cbc-4a83-8080-28fc1e8f3696" d="M240.37,162.82a.92.92,0,1,1,1.83,0,.92.92,0,1,1-1.83,0Zm.28,2.79h1.26v9.83h-1.26Z"/><path class="e536f0b2-5cbc-4a83-8080-28fc1e8f3696" d="M259.09,169.82c0-2.18-1.13-3.3-2.88-3.3s-3,1.19-3,3.59v5.33h-1.25v-5.62c0-2.18-1.15-3.3-2.9-3.3s-3,1.19-3,3.59v5.33h-1.26v-9.83H246v1.69a3.52,3.52,0,0,1,3.26-1.87,3.64,3.64,0,0,1,3.64,2.41,3.58,3.58,0,0,1,3.55-2.41c2.17,0,3.9,1.36,3.9,4.25v5.76h-1.24Z"/><path class="e536f0b2-5cbc-4a83-8080-28fc1e8f3696" d="M268.26,165.46c2.68,0,4.68,2,4.68,5s-2,5.08-4.68,5.08a4.22,4.22,0,0,1-3.91-2.3v6.8h-1.24V165.61h1.24v2.16A4.17,4.17,0,0,1,268.26,165.46Zm-.25,1.1a4,4,0,0,0,0,7.92c2.07,0,3.65-1.49,3.65-4S270.08,166.56,268,166.56Z"/><path class="e536f0b2-5cbc-4a83-8080-28fc1e8f3696" d="M279.38,165.46a4.1,4.1,0,0,1,3.89,2.31v-2.16h1.26v9.83h-1.26v-2.18a4.15,4.15,0,0,1-3.91,2.32c-2.68,0-4.68-2-4.68-5.08S276.68,165.46,279.38,165.46Zm.24,1.1A3.59,3.59,0,0,0,276,170.5c0,2.49,1.59,4,3.66,4a4,4,0,0,0,0-7.92Z"/><path class="e536f0b2-5cbc-4a83-8080-28fc1e8f3696" d="M291.58,165.46a4.25,4.25,0,0,1,4.52,3.35h-1.35a3,3,0,0,0-3.17-2.27c-1.92,0-3.49,1.32-3.49,4s1.57,4,3.49,4a3,3,0,0,0,3.17-2.29h1.35a4.31,4.31,0,0,1-4.52,3.35c-2.77,0-4.77-1.94-4.77-5.06S288.81,165.46,291.58,165.46Z"/><path class="e536f0b2-5cbc-4a83-8080-28fc1e8f3696" d="M298.46,166.67h-1.37v-1.06h1.37v-2.47h1.28v2.47h2.7v1.06h-2.7v6.1c0,1.21.41,1.59,1.55,1.59h1.15v1.08h-1.35c-1.71,0-2.63-.7-2.63-2.67Z"/><path class="e536f0b2-5cbc-4a83-8080-28fc1e8f3696" d="M308.27,175.58a5.06,5.06,0,1,1,5-5.06A4.79,4.79,0,0,1,308.27,175.58Zm0-1.1a3.61,3.61,0,0,0,3.65-4c0-2.7-1.76-4-3.63-4s-3.62,1.26-3.62,4S306.4,174.48,308.27,174.48Z"/><path class="e536f0b2-5cbc-4a83-8080-28fc1e8f3696" d="M8.52,195.46a4.26,4.26,0,0,1,3.87,2.27v-5.62h1.26v13.33H12.39v-2.2a4.08,4.08,0,0,1-3.89,2.34c-2.7,0-4.7-2-4.7-5.08S5.8,195.46,8.52,195.46Zm.22,1.1a3.59,3.59,0,0,0-3.66,3.94c0,2.49,1.59,4,3.66,4a4,4,0,0,0,0-7.92Z"/><path class="e536f0b2-5cbc-4a83-8080-28fc1e8f3696" d="M20.76,205.58a4.69,4.69,0,0,1-4.83-5.06c0-3.13,2-5.06,4.83-5.06A4.42,4.42,0,0,1,25.4,200c0,.39,0,.65,0,1H17.21a3.44,3.44,0,0,0,3.55,3.51,3,3,0,0,0,3.17-2.2h1.33A4.32,4.32,0,0,1,20.76,205.58ZM17.21,200h6.91a3.21,3.21,0,0,0-3.42-3.44A3.4,3.4,0,0,0,17.21,200Z"/><path class="e536f0b2-5cbc-4a83-8080-28fc1e8f3696" d="M32.64,192.11H33.9v13.33H32.64Z"/><path class="e536f0b2-5cbc-4a83-8080-28fc1e8f3696" d="M41,205.58a5.06,5.06,0,1,1,5-5.06A4.79,4.79,0,0,1,41,205.58Zm0-1.1a4,4,0,0,0,0-7.92c-1.87,0-3.62,1.26-3.62,4S39.17,204.48,41,204.48Z"/><path class="e536f0b2-5cbc-4a83-8080-28fc1e8f3696" d="M51.55,205.58c-2.23,0-3.8-1.12-4-2.92h1.29c.11,1.08,1,1.86,2.65,1.86,1.4,0,2.2-.76,2.2-1.69,0-2.43-5.91-1-5.91-4.7,0-1.46,1.39-2.67,3.46-2.67s3.49,1.12,3.6,3H53.62a2.1,2.1,0,0,0-2.38-1.93c-1.31,0-2.14.7-2.14,1.57,0,2.66,5.81,1.24,5.87,4.72C55,204.41,53.58,205.58,51.55,205.58Z"/><path class="e536f0b2-5cbc-4a83-8080-28fc1e8f3696" d="M67.42,195.46c2.69,0,4.69,2,4.69,5s-2,5.08-4.69,5.08a4.19,4.19,0,0,1-3.9-2.3v6.8H62.27V195.61h1.25v2.16A4.15,4.15,0,0,1,67.42,195.46Zm-.25,1.1a4,4,0,0,0,0,7.92c2.07,0,3.66-1.49,3.66-4A3.59,3.59,0,0,0,67.17,196.56Z"/><path class="e536f0b2-5cbc-4a83-8080-28fc1e8f3696" d="M75.65,205.44H74.39v-9.83h1.26v1.74A3.4,3.4,0,0,1,79,195.43v1.31h-.34c-1.64,0-3,.74-3,3.21Z"/><path class="e536f0b2-5cbc-4a83-8080-28fc1e8f3696" d="M84.75,205.58a5.06,5.06,0,1,1,5-5.06A4.79,4.79,0,0,1,84.75,205.58Zm0-1.1a3.61,3.61,0,0,0,3.65-4c0-2.7-1.76-4-3.63-4s-3.62,1.26-3.62,4S82.88,204.48,84.75,204.48Z"/><path class="e536f0b2-5cbc-4a83-8080-28fc1e8f3696" d="M96.13,195.46a4.12,4.12,0,0,1,3.89,2.29v-2.14h1.26v10.08a4.35,4.35,0,0,1-4.59,4.57c-2.54,0-4.3-1.29-4.7-3.35h1.25a3.34,3.34,0,0,0,3.45,2.25,3.2,3.2,0,0,0,3.33-3.47v-2.43a4.13,4.13,0,0,1-3.89,2.32c-2.7,0-4.69-2-4.69-5.08S93.43,195.46,96.13,195.46Zm.24,1.1a3.59,3.59,0,0,0-3.66,3.94c0,2.49,1.59,4,3.66,4a4,4,0,0,0,0-7.92Z"/><path class="e536f0b2-5cbc-4a83-8080-28fc1e8f3696" d="M105.37,205.44h-1.26v-9.83h1.26v1.74a3.4,3.4,0,0,1,3.37-1.92v1.31h-.34c-1.64,0-3,.74-3,3.21Z"/><path class="e536f0b2-5cbc-4a83-8080-28fc1e8f3696" d="M114.33,195.46a4.07,4.07,0,0,1,3.88,2.31v-2.16h1.27v9.83h-1.27v-2.18a4.14,4.14,0,0,1-3.9,2.32c-2.69,0-4.68-2-4.68-5.08S111.62,195.46,114.33,195.46Zm.23,1.1a3.59,3.59,0,0,0-3.66,3.94c0,2.49,1.59,4,3.66,4a4,4,0,0,0,0-7.92Z"/><path class="e536f0b2-5cbc-4a83-8080-28fc1e8f3696" d="M136.67,199.82c0-2.18-1.13-3.3-2.88-3.3s-3,1.19-3,3.59v5.33h-1.24v-5.62c0-2.18-1.16-3.3-2.9-3.3s-3,1.19-3,3.59v5.33H122.3v-9.83h1.26v1.69a3.52,3.52,0,0,1,3.26-1.87,3.63,3.63,0,0,1,3.64,2.41,3.58,3.58,0,0,1,3.55-2.41c2.18,0,3.9,1.36,3.9,4.25v5.76h-1.24Z"/><path class="e536f0b2-5cbc-4a83-8080-28fc1e8f3696" d="M144.8,195.46a4.1,4.1,0,0,1,3.89,2.31v-2.16H150v9.83h-1.26v-2.18a4.16,4.16,0,0,1-3.91,2.32c-2.68,0-4.68-2-4.68-5.08S142.1,195.46,144.8,195.46Zm.23,1.1c-2.07,0-3.65,1.44-3.65,3.94s1.58,4,3.65,4a4,4,0,0,0,0-7.92Z"/><path class="e536f0b2-5cbc-4a83-8080-28fc1e8f3696" d="M156.16,205.58c-2.24,0-3.8-1.12-4-2.92h1.29c.11,1.08,1,1.86,2.65,1.86,1.4,0,2.2-.76,2.2-1.69,0-2.43-5.91-1-5.91-4.7,0-1.46,1.39-2.67,3.46-2.67s3.49,1.12,3.6,3h-1.26a2.1,2.1,0,0,0-2.38-1.93c-1.31,0-2.14.7-2.14,1.57,0,2.66,5.81,1.24,5.87,4.72C159.58,204.41,158.19,205.58,156.16,205.58Z"/><path class="e536f0b2-5cbc-4a83-8080-28fc1e8f3696" d="M171.19,205.58a5.06,5.06,0,1,1,4.95-5.06A4.79,4.79,0,0,1,171.19,205.58Zm0-1.1a3.61,3.61,0,0,0,3.65-4c0-2.7-1.76-4-3.64-4s-3.61,1.26-3.61,4S169.31,204.48,171.19,204.48Z"/><path class="e536f0b2-5cbc-4a83-8080-28fc1e8f3696" d="M188.52,195.46c2.68,0,4.68,2,4.68,5s-2,5.08-4.68,5.08a4.22,4.22,0,0,1-3.91-2.3v6.8h-1.24V195.61h1.24v2.16A4.17,4.17,0,0,1,188.52,195.46Zm-.25,1.1a4,4,0,0,0,0,7.92c2.07,0,3.65-1.49,3.65-4S190.34,196.56,188.27,196.56Z"/><path class="e536f0b2-5cbc-4a83-8080-28fc1e8f3696" d="M196.75,205.44h-1.26v-9.83h1.26v1.74a3.4,3.4,0,0,1,3.37-1.92v1.31h-.34c-1.64,0-3,.74-3,3.21Z"/><path class="e536f0b2-5cbc-4a83-8080-28fc1e8f3696" d="M205.85,205.58a5.06,5.06,0,1,1,5-5.06A4.79,4.79,0,0,1,205.85,205.58Zm0-1.1a3.61,3.61,0,0,0,3.65-4c0-2.7-1.76-4-3.63-4s-3.62,1.26-3.62,4S204,204.48,205.85,204.48Z"/><path class="e536f0b2-5cbc-4a83-8080-28fc1e8f3696" d="M219.47,195.61h1.3l-5.84,14.45h-1.31l1.91-4.68-4-9.77h1.39l3.35,8.39Z"/><path class="e536f0b2-5cbc-4a83-8080-28fc1e8f3696" d="M226.31,205.58a4.69,4.69,0,0,1-4.83-5.06c0-3.13,2-5.06,4.83-5.06A4.42,4.42,0,0,1,231,200c0,.39,0,.65,0,1h-8.16a3.44,3.44,0,0,0,3.55,3.51,3,3,0,0,0,3.17-2.2h1.33A4.32,4.32,0,0,1,226.31,205.58Zm-3.55-5.6h6.91a3.21,3.21,0,0,0-3.42-3.44A3.39,3.39,0,0,0,222.76,200Z"/><path class="e536f0b2-5cbc-4a83-8080-28fc1e8f3696" d="M237.46,195.46a4.25,4.25,0,0,1,4.52,3.35h-1.35a3,3,0,0,0-3.17-2.27c-1.93,0-3.5,1.32-3.5,4s1.57,4,3.5,4a3,3,0,0,0,3.17-2.29H242a4.32,4.32,0,0,1-4.52,3.35c-2.78,0-4.77-1.94-4.77-5.06S234.68,195.46,237.46,195.46Z"/><path class="e536f0b2-5cbc-4a83-8080-28fc1e8f3696" d="M244.34,196.67H243v-1.06h1.37v-2.47h1.27v2.47h2.71v1.06h-2.71v6.1c0,1.21.42,1.59,1.55,1.59h1.16v1.08H247c-1.71,0-2.62-.7-2.62-2.67Z"/><path class="e536f0b2-5cbc-4a83-8080-28fc1e8f3696" d="M254.14,205.58a5.06,5.06,0,1,1,4.95-5.06A4.79,4.79,0,0,1,254.14,205.58Zm0-1.1a4,4,0,0,0,0-7.92c-1.87,0-3.62,1.26-3.62,4S252.27,204.48,254.14,204.48Z"/><path class="e536f0b2-5cbc-4a83-8080-28fc1e8f3696" d="M264.65,205.58c-2.23,0-3.8-1.12-4-2.92H262c.11,1.08,1,1.86,2.65,1.86,1.41,0,2.2-.76,2.2-1.69,0-2.43-5.91-1-5.91-4.7,0-1.46,1.39-2.67,3.46-2.67s3.49,1.12,3.6,3h-1.26a2.1,2.1,0,0,0-2.38-1.93c-1.31,0-2.14.7-2.14,1.57,0,2.66,5.82,1.24,5.87,4.72C268.07,204.41,266.68,205.58,264.65,205.58Z"/><path class="e536f0b2-5cbc-4a83-8080-28fc1e8f3696" d="M270.88,205.53a.92.92,0,0,1-.92-.94.91.91,0,1,1,1.82,0A.92.92,0,0,1,270.88,205.53Z"/></svg>