<svg id="ac4e09a8-e6bb-4a55-9c23-6ecfeec77f7c" data-name="Capa 1" xmlns="http://www.w3.org/2000/svg" viewBox="0 0 556.31 495.22"><defs><style>.f6916bce-af7c-4fa1-bba9-c9c04951d504{fill:#5f9eb5;}.b28cc649-1ac5-480f-a4a9-a4c025896af5{fill:#272b31;}.a34e7f4b-1935-466c-8394-200968915ad1{fill:none;stroke:#5f9eb5;stroke-miterlimit:10;stroke-width:2px;}</style></defs><path class="f6916bce-af7c-4fa1-bba9-c9c04951d504" d="M101.3,9.68h6.06l5.91,14.58,5.85-14.58h6V30.74H120V18.11l-4.71,12.63h-4.14l-4.74-12.66V30.74H101.3Z"/><path class="f6916bce-af7c-4fa1-bba9-c9c04951d504" d="M136.45,31c-4.92,0-8.46-3.3-8.46-8.61s3.48-8.61,8.46-8.61,8.34,3.24,8.34,8.34a13,13,0,0,1-.09,1.5H133.09c.18,2.19,1.53,3.21,3.18,3.21a2.73,2.73,0,0,0,2.67-1.62h5.46A7.82,7.82,0,0,1,136.45,31ZM139.9,5.72v4l-7.23,3V9.2Zm-6.78,15h6.42a2.89,2.89,0,0,0-3.15-2.88A3.17,3.17,0,0,0,133.12,20.75Z"/><path class="f6916bce-af7c-4fa1-bba9-c9c04951d504" d="M148,18.26h-2V14h2V9.92h5.13V14h3.36v4.26h-3.36V25c0,1,.42,1.41,1.56,1.41h1.83v4.35H153.9c-3.48,0-5.91-1.47-5.91-5.82Z"/><path class="f6916bce-af7c-4fa1-bba9-c9c04951d504" d="M166.74,31c-4.92,0-8.64-3.3-8.64-8.61s3.81-8.61,8.7-8.61,8.7,3.3,8.7,8.61S171.66,31,166.74,31Zm0-4.44c1.83,0,3.54-1.35,3.54-4.17s-1.68-4.17-3.48-4.17-3.48,1.32-3.48,4.17S164.88,26.54,166.74,26.54Z"/><path class="f6916bce-af7c-4fa1-bba9-c9c04951d504" d="M184.52,13.76a6.14,6.14,0,0,1,5.16,2.55V8.54h5.13v22.2h-5.13v-2.4A5.79,5.79,0,0,1,184.52,31c-4.11,0-7.38-3.36-7.38-8.64S180.41,13.76,184.52,13.76Zm1.5,4.47c-1.92,0-3.66,1.44-3.66,4.11s1.74,4.17,3.66,4.17,3.66-1.47,3.66-4.14S188,18.23,186,18.23Z"/><path class="f6916bce-af7c-4fa1-bba9-c9c04951d504" d="M206,31c-4.92,0-8.64-3.3-8.64-8.61s3.81-8.61,8.7-8.61,8.7,3.3,8.7,8.61S211,31,206,31Zm0-4.44c1.83,0,3.54-1.35,3.54-4.17s-1.68-4.17-3.48-4.17-3.48,1.32-3.48,4.17S204.18,26.54,206,26.54Z"/><path class="f6916bce-af7c-4fa1-bba9-c9c04951d504" d="M224.05,31c-4.47,0-7.47-2.49-7.71-5.73h5.07A2.35,2.35,0,0,0,224,27.2c1.32,0,2-.6,2-1.35,0-2.7-9.12-.75-9.12-6.9,0-2.85,2.43-5.19,6.81-5.19s6.72,2.4,7.05,5.7H226a2.21,2.21,0,0,0-2.46-1.89c-1.2,0-1.86.48-1.86,1.29,0,2.67,9.06.78,9.15,7C230.83,28.79,228.25,31,224.05,31Z"/><path class="f6916bce-af7c-4fa1-bba9-c9c04951d504" d="M247.72,13.76c4.2,0,7.17,2.31,8,6.3H250.3a2.64,2.64,0,0,0-2.67-1.92c-1.83,0-3.09,1.44-3.09,4.23s1.26,4.23,3.09,4.23a2.6,2.6,0,0,0,2.67-1.92h5.46a7.77,7.77,0,0,1-8,6.3c-4.92,0-8.4-3.3-8.4-8.61S242.8,13.76,247.72,13.76Z"/><path class="f6916bce-af7c-4fa1-bba9-c9c04951d504" d="M274.79,30.74h-5.13V28.46a6.1,6.1,0,0,1-5.07,2.46c-3.87,0-6.48-2.67-6.48-7.14V14h5.1v9.09c0,2.28,1.29,3.54,3.21,3.54s3.24-1.26,3.24-3.54V14h5.13Z"/><path class="f6916bce-af7c-4fa1-bba9-c9c04951d504" d="M284.8,13.76A5.83,5.83,0,0,1,290,16.37V14h5.13V30.74H290V28.37A5.92,5.92,0,0,1,284.77,31c-4.08,0-7.35-3.36-7.35-8.64S280.69,13.76,284.8,13.76Zm1.5,4.47c-1.92,0-3.66,1.44-3.66,4.11s1.74,4.17,3.66,4.17S290,25,290,22.37,288.25,18.23,286.3,18.23Z"/><path class="f6916bce-af7c-4fa1-bba9-c9c04951d504" d="M310.22,21.65c0-2.28-1.26-3.54-3.21-3.54s-3.21,1.26-3.21,3.54v9.09h-5.13V14h5.13v2.22a6.14,6.14,0,0,1,5.07-2.4c3.87,0,6.45,2.64,6.45,7.14v9.78h-5.1Z"/><path class="f6916bce-af7c-4fa1-bba9-c9c04951d504" d="M319.31,18.26h-2V14h2V9.92h5.13V14h3.36v4.26h-3.36V25c0,1,.42,1.41,1.56,1.41h1.83v4.35h-2.61c-3.48,0-5.91-1.47-5.91-5.82Z"/><path class="f6916bce-af7c-4fa1-bba9-c9c04951d504" d="M330.17,9.5a3.06,3.06,0,0,1,6.09,0,3.06,3.06,0,0,1-6.09,0Zm.48,4.5h5.13V30.74h-5.13Z"/><path class="f6916bce-af7c-4fa1-bba9-c9c04951d504" d="M340,18.26h-2V14h2V9.92h5.13V14h3.36v4.26h-3.36V25c0,1,.42,1.41,1.56,1.41h1.83v4.35H346c-3.48,0-5.91-1.47-5.91-5.82Z"/><path class="f6916bce-af7c-4fa1-bba9-c9c04951d504" d="M357.61,13.76a5.83,5.83,0,0,1,5.16,2.61V14h5.13V30.74h-5.13V28.37A5.92,5.92,0,0,1,357.58,31c-4.08,0-7.35-3.36-7.35-8.64S353.5,13.76,357.61,13.76Zm1.5,4.47c-1.92,0-3.66,1.44-3.66,4.11s1.74,4.17,3.66,4.17,3.66-1.47,3.66-4.14S361.06,18.23,359.11,18.23Z"/><path class="f6916bce-af7c-4fa1-bba9-c9c04951d504" d="M372.37,18.26h-2V14h2V9.92h5.13V14h3.36v4.26H377.5V25c0,1,.42,1.41,1.56,1.41h1.83v4.35h-2.61c-3.48,0-5.91-1.47-5.91-5.82Z"/><path class="f6916bce-af7c-4fa1-bba9-c9c04951d504" d="M383.23,9.5a3.06,3.06,0,0,1,6.09,0,3.06,3.06,0,0,1-6.09,0Zm.48,4.5h5.13V30.74h-5.13Z"/><path class="f6916bce-af7c-4fa1-bba9-c9c04951d504" d="M396.06,14l3.63,11.94L403.32,14h5.46l-5.94,16.74h-6.33L390.57,14Z"/><path class="f6916bce-af7c-4fa1-bba9-c9c04951d504" d="M417.64,31c-4.92,0-8.64-3.3-8.64-8.61s3.81-8.61,8.7-8.61,8.7,3.3,8.7,8.61S422.56,31,417.64,31Zm0-4.44c1.83,0,3.54-1.35,3.54-4.17s-1.68-4.17-3.48-4.17-3.48,1.32-3.48,4.17S415.78,26.54,417.64,26.54Z"/><path class="f6916bce-af7c-4fa1-bba9-c9c04951d504" d="M435.64,31c-4.46,0-7.46-2.49-7.71-5.73H433a2.35,2.35,0,0,0,2.58,1.95c1.32,0,2-.6,2-1.35,0-2.7-9.12-.75-9.12-6.9,0-2.85,2.43-5.19,6.81-5.19s6.72,2.4,7.05,5.7h-4.74a2.21,2.21,0,0,0-2.46-1.89c-1.2,0-1.86.48-1.86,1.29,0,2.67,9.06.78,9.15,7C442.42,28.79,439.84,31,435.64,31Z"/><path class="b28cc649-1ac5-480f-a4a9-a4c025896af5" d="M107.45,83.56h-5.31v4.7h4.77v1h-4.77v4.77h5.31v1.05h-6.57V82.51h6.57Z"/><path class="b28cc649-1ac5-480f-a4a9-a4c025896af5" d="M109.5,81.79h1.26V95.12H109.5Z"/><path class="b28cc649-1ac5-480f-a4a9-a4c025896af5" d="M122.68,85.14a4.14,4.14,0,0,1,3.89,2.29V85.29h1.26V95.37a4.35,4.35,0,0,1-4.59,4.57c-2.54,0-4.31-1.29-4.7-3.35h1.24a3.35,3.35,0,0,0,3.46,2.25,3.2,3.2,0,0,0,3.33-3.47V92.94a4.15,4.15,0,0,1-3.89,2.32c-2.7,0-4.7-2-4.7-5.08S120,85.14,122.68,85.14Zm.23,1.1c-2.07,0-3.65,1.44-3.65,3.94s1.58,4,3.65,4a4,4,0,0,0,0-7.92Z"/><path class="b28cc649-1ac5-480f-a4a9-a4c025896af5" d="M131.92,95.12h-1.27V85.29h1.27V87a3.38,3.38,0,0,1,3.36-1.92v1.31h-.34c-1.64,0-3,.74-3,3.2Z"/><path class="b28cc649-1ac5-480f-a4a9-a4c025896af5" d="M140.87,85.14a4.1,4.1,0,0,1,3.89,2.31V85.29H146v9.83h-1.26V92.94a4.16,4.16,0,0,1-3.91,2.32c-2.68,0-4.68-2-4.68-5.08S138.17,85.14,140.87,85.14Zm.23,1.1c-2.07,0-3.65,1.44-3.65,3.94s1.58,4,3.65,4a4,4,0,0,0,0-7.92Z"/><path class="b28cc649-1ac5-480f-a4a9-a4c025896af5" d="M156.21,89.5c0-2.18-1.19-3.3-3-3.3s-3.12,1.16-3.12,3.55v5.37h-1.26V85.29h1.26V87a3.61,3.61,0,0,1,3.35-1.85c2.24,0,4,1.36,4,4.24v5.77h-1.24Z"/><path class="b28cc649-1ac5-480f-a4a9-a4c025896af5" d="M168.55,95.26c-2.23,0-3.79-1.12-4-2.92h1.3c.11,1.08,1,1.86,2.65,1.86,1.4,0,2.19-.76,2.19-1.69,0-2.44-5.9-1-5.9-4.7,0-1.46,1.38-2.67,3.45-2.67s3.5,1.12,3.6,3h-1.25a2.11,2.11,0,0,0-2.38-1.93c-1.32,0-2.14.7-2.14,1.57,0,2.66,5.81,1.24,5.86,4.72C172,94.09,170.59,95.26,168.55,95.26Z"/><path class="b28cc649-1ac5-480f-a4a9-a4c025896af5" d="M182.78,95.12h-1.26V93.39a3.56,3.56,0,0,1-3.35,1.89c-2.23,0-4-1.37-4-4.25V85.29h1.24v5.6c0,2.17,1.19,3.29,3,3.29s3.12-1.15,3.12-3.55V85.29h1.26Z"/><path class="b28cc649-1ac5-480f-a4a9-a4c025896af5" d="M189.87,95.26c-2.79,0-4.82-1.94-4.82-5.06s2-5.06,4.82-5.06a4.42,4.42,0,0,1,4.65,4.56,7.87,7.87,0,0,1,0,1h-8.15a3.43,3.43,0,0,0,3.54,3.51A3,3,0,0,0,193,92h1.34A4.32,4.32,0,0,1,189.87,95.26Zm-3.54-5.6h6.91a3.21,3.21,0,0,0-3.42-3.44A3.39,3.39,0,0,0,186.33,89.66Z"/><path class="b28cc649-1ac5-480f-a4a9-a4c025896af5" d="M198.09,95.12h-1.26V85.29h1.26V87a3.6,3.6,0,0,1,3.35-1.85c2.23,0,4,1.36,4,4.24v5.77h-1.24V89.5c0-2.18-1.19-3.3-3-3.3s-3.11,1.16-3.11,3.55Zm2.09-12.59c.93,0,1.24.85,2,.85.4,0,.72-.27.8-.81h.75a1.64,1.64,0,0,1-1.6,1.67c-1,0-1.28-.85-2-.85-.39,0-.68.26-.75.81h-.78C198.74,83.11,199.33,82.53,200.18,82.53Z"/><path class="b28cc649-1ac5-480f-a4a9-a4c025896af5" d="M212.47,95.26a5.06,5.06,0,1,1,5-5.06A4.79,4.79,0,0,1,212.47,95.26Zm0-1.1a4,4,0,0,0,0-7.92c-1.87,0-3.62,1.26-3.62,4S210.6,94.16,212.47,94.16Z"/><path class="b28cc649-1ac5-480f-a4a9-a4c025896af5" d="M228.8,85.14a4.27,4.27,0,0,1,3.87,2.27V81.79h1.26V95.12h-1.26v-2.2a4.1,4.1,0,0,1-3.89,2.34c-2.7,0-4.7-2-4.7-5.08S226.08,85.14,228.8,85.14Zm.21,1.1c-2.07,0-3.65,1.44-3.65,3.94s1.58,4,3.65,4a4,4,0,0,0,0-7.92Z"/><path class="b28cc649-1ac5-480f-a4a9-a4c025896af5" d="M241,95.26c-2.79,0-4.82-1.94-4.82-5.06s2-5.06,4.82-5.06a4.42,4.42,0,0,1,4.65,4.56,7.87,7.87,0,0,1,0,1h-8.15A3.44,3.44,0,0,0,241,94.2,3,3,0,0,0,244.2,92h1.34A4.32,4.32,0,0,1,241,95.26Zm-3.54-5.6h6.91A3.21,3.21,0,0,0,241,86.22,3.39,3.39,0,0,0,237.49,89.66Z"/><path class="b28cc649-1ac5-480f-a4a9-a4c025896af5" d="M252.91,81.79h1.26V95.12h-1.26Z"/><path class="b28cc649-1ac5-480f-a4a9-a4c025896af5" d="M261.32,95.26a5.06,5.06,0,1,1,4.95-5.06A4.79,4.79,0,0,1,261.32,95.26Zm0-1.1a3.61,3.61,0,0,0,3.65-4c0-2.7-1.76-4-3.63-4s-3.62,1.26-3.62,4S259.45,94.16,261.32,94.16Z"/><path class="b28cc649-1ac5-480f-a4a9-a4c025896af5" d="M271.82,95.26c-2.23,0-3.79-1.12-4-2.92h1.3c.11,1.08,1,1.86,2.65,1.86,1.4,0,2.19-.76,2.19-1.69,0-2.44-5.9-1-5.9-4.7,0-1.46,1.38-2.67,3.45-2.67s3.5,1.12,3.61,3H273.9a2.11,2.11,0,0,0-2.38-1.93c-1.32,0-2.14.7-2.14,1.57,0,2.66,5.81,1.24,5.87,4.72C275.25,94.09,273.86,95.26,271.82,95.26Z"/><path class="b28cc649-1ac5-480f-a4a9-a4c025896af5" d="M282.26,82.49a.92.92,0,0,1,1.84,0,.92.92,0,1,1-1.84,0Zm.29,2.8h1.26v9.83h-1.26Z"/><path class="b28cc649-1ac5-480f-a4a9-a4c025896af5" d="M294,89.5c0-2.18-1.18-3.3-3-3.3s-3.11,1.16-3.11,3.55v5.37h-1.26V85.29h1.26V87a3.6,3.6,0,0,1,3.35-1.85c2.23,0,4,1.36,4,4.24v5.77H294Z"/><path class="b28cc649-1ac5-480f-a4a9-a4c025896af5" d="M297.72,85.29l3.31,8.6,3.31-8.6h1.34l-3.95,9.83h-1.42l-3.94-9.83Z"/><path class="b28cc649-1ac5-480f-a4a9-a4c025896af5" d="M311.22,95.26a4.68,4.68,0,0,1-4.83-5.06c0-3.13,2-5.06,4.83-5.06a4.42,4.42,0,0,1,4.64,4.56,7.87,7.87,0,0,1,0,1h-8.15a3.44,3.44,0,0,0,3.55,3.51,3,3,0,0,0,3.16-2.2h1.34A4.32,4.32,0,0,1,311.22,95.26Zm-3.55-5.6h6.91a3.21,3.21,0,0,0-3.42-3.44A3.39,3.39,0,0,0,307.67,89.66Z"/><path class="b28cc649-1ac5-480f-a4a9-a4c025896af5" d="M321.46,95.26c-2.23,0-3.79-1.12-4-2.92h1.3c.11,1.08,1,1.86,2.65,1.86,1.4,0,2.19-.76,2.19-1.69,0-2.44-5.9-1-5.9-4.7,0-1.46,1.38-2.67,3.45-2.67s3.5,1.12,3.61,3h-1.26a2.11,2.11,0,0,0-2.38-1.93c-1.32,0-2.14.7-2.14,1.57,0,2.66,5.81,1.24,5.86,4.72C324.88,94.09,323.5,95.26,321.46,95.26Z"/><path class="b28cc649-1ac5-480f-a4a9-a4c025896af5" d="M327.45,86.35h-1.37V85.29h1.37V82.82h1.27v2.47h2.71v1.06h-2.71v6.1c0,1.21.42,1.59,1.55,1.59h1.16v1.08h-1.35c-1.72,0-2.63-.71-2.63-2.67Z"/><path class="b28cc649-1ac5-480f-a4a9-a4c025896af5" d="M333,82.49a.92.92,0,0,1,1.84,0,.92.92,0,1,1-1.84,0Zm.29,2.8h1.26v9.83h-1.26Z"/><path class="b28cc649-1ac5-480f-a4a9-a4c025896af5" d="M341.44,85.14a4.14,4.14,0,0,1,3.89,2.29V85.29h1.26V95.37A4.35,4.35,0,0,1,342,99.94c-2.54,0-4.3-1.29-4.7-3.35h1.24A3.36,3.36,0,0,0,342,98.84a3.2,3.2,0,0,0,3.33-3.47V92.94a4.15,4.15,0,0,1-3.89,2.32c-2.7,0-4.7-2-4.7-5.08S338.74,85.14,341.44,85.14Zm.24,1.1A3.59,3.59,0,0,0,338,90.18c0,2.49,1.58,4,3.66,4a4,4,0,0,0,0-7.92Z"/><path class="b28cc649-1ac5-480f-a4a9-a4c025896af5" d="M353.57,85.14a4.1,4.1,0,0,1,3.89,2.31V85.29h1.26v9.83h-1.26V92.94a4.16,4.16,0,0,1-3.91,2.32c-2.68,0-4.68-2-4.68-5.08S350.87,85.14,353.57,85.14Zm.23,1.1c-2.07,0-3.65,1.44-3.65,3.94s1.58,4,3.65,4a4,4,0,0,0,0-7.92Z"/><path class="b28cc649-1ac5-480f-a4a9-a4c025896af5" d="M365.72,85.14a4.27,4.27,0,0,1,3.87,2.27V81.79h1.26V95.12h-1.26v-2.2a4.1,4.1,0,0,1-3.89,2.34c-2.7,0-4.7-2-4.7-5.08S363,85.14,365.72,85.14Zm.21,1.1c-2.07,0-3.65,1.44-3.65,3.94s1.58,4,3.65,4a4,4,0,0,0,0-7.92Z"/><path class="b28cc649-1ac5-480f-a4a9-a4c025896af5" d="M378,95.26A5.06,5.06,0,1,1,383,90.2,4.79,4.79,0,0,1,378,95.26Zm0-1.1a4,4,0,0,0,0-7.92c-1.87,0-3.62,1.26-3.62,4S376.13,94.16,378,94.16Z"/><path class="b28cc649-1ac5-480f-a4a9-a4c025896af5" d="M386.5,95.12h-1.26V85.29h1.26V87a3.38,3.38,0,0,1,3.36-1.92v1.31h-.34c-1.64,0-3,.74-3,3.2Z"/><path class="b28cc649-1ac5-480f-a4a9-a4c025896af5" d="M395.57,95.26c-2.79,0-4.82-1.94-4.82-5.06s2-5.06,4.82-5.06a4.42,4.42,0,0,1,4.65,4.56,7.87,7.87,0,0,1,0,1H392a3.43,3.43,0,0,0,3.54,3.51,3,3,0,0,0,3.17-2.2h1.34A4.32,4.32,0,0,1,395.57,95.26ZM392,89.66h6.91a3.21,3.21,0,0,0-3.42-3.44A3.39,3.39,0,0,0,392,89.66Z"/><path class="b28cc649-1ac5-480f-a4a9-a4c025896af5" d="M405.82,95.26c-2.23,0-3.8-1.12-4-2.92h1.3c.11,1.08,1,1.86,2.64,1.86,1.41,0,2.2-.76,2.2-1.69,0-2.44-5.9-1-5.9-4.7,0-1.46,1.38-2.67,3.45-2.67s3.5,1.12,3.6,3h-1.26a2.1,2.1,0,0,0-2.37-1.93c-1.32,0-2.15.7-2.15,1.57,0,2.66,5.82,1.24,5.87,4.72C409.24,94.09,407.86,95.26,405.82,95.26Z"/><path class="b28cc649-1ac5-480f-a4a9-a4c025896af5" d="M411.6,93H413l-1.85,4.72h-.88Z"/><path class="b28cc649-1ac5-480f-a4a9-a4c025896af5" d="M424,85.14a4.09,4.09,0,0,1,3.87,2.31V85.29h1.26V99.76h-1.26V93a4.16,4.16,0,0,1-3.91,2.3c-2.68,0-4.68-2-4.68-5.08S421.32,85.14,424,85.14Zm.22,1.1a3.59,3.59,0,0,0-3.66,3.94c0,2.49,1.58,4,3.66,4a4,4,0,0,0,0-7.92Z"/><path class="b28cc649-1ac5-480f-a4a9-a4c025896af5" d="M440.53,95.12h-1.27V93.39a3.55,3.55,0,0,1-3.34,1.89c-2.24,0-4-1.37-4-4.25V85.29h1.24v5.6c0,2.17,1.19,3.29,3,3.29s3.11-1.15,3.11-3.55V85.29h1.27Z"/><path class="b28cc649-1ac5-480f-a4a9-a4c025896af5" d="M447.62,95.26c-2.79,0-4.82-1.94-4.82-5.06s2-5.06,4.82-5.06a4.42,4.42,0,0,1,4.65,4.56,7.87,7.87,0,0,1,0,1h-8.16a3.45,3.45,0,0,0,3.55,3.51,3,3,0,0,0,3.17-2.2h1.33A4.31,4.31,0,0,1,447.62,95.26Zm-3.55-5.6H451a3.21,3.21,0,0,0-3.42-3.44A3.4,3.4,0,0,0,444.07,89.66Z"/><path class="b28cc649-1ac5-480f-a4a9-a4c025896af5" d="M468,95.12h-1.26V93.39a3.56,3.56,0,0,1-3.35,1.89c-2.23,0-4-1.37-4-4.25V85.29h1.24v5.6c0,2.17,1.19,3.29,3,3.29s3.12-1.15,3.12-3.55V85.29H468Z"/><path class="b28cc649-1ac5-480f-a4a9-a4c025896af5" d="M474.22,95.26c-2.24,0-3.8-1.12-4-2.92h1.3c.11,1.08,1,1.86,2.65,1.86,1.4,0,2.19-.76,2.19-1.69,0-2.44-5.9-1-5.9-4.7,0-1.46,1.38-2.67,3.46-2.67s3.49,1.12,3.6,3h-1.26a2.11,2.11,0,0,0-2.38-1.93c-1.32,0-2.14.7-2.14,1.57,0,2.66,5.81,1.24,5.87,4.72C477.64,94.09,476.25,95.26,474.22,95.26Z"/><path class="b28cc649-1ac5-480f-a4a9-a4c025896af5" d="M484.05,85.14a4.1,4.1,0,0,1,3.89,2.31V85.29h1.26v9.83h-1.26V92.94A4.14,4.14,0,0,1,484,95.26c-2.68,0-4.68-2-4.68-5.08S481.35,85.14,484.05,85.14Zm.24,1.1a3.59,3.59,0,0,0-3.66,3.94c0,2.49,1.59,4,3.66,4a4,4,0,0,0,0-7.92Z"/><path class="b28cc649-1ac5-480f-a4a9-a4c025896af5" d="M499.39,89.5c0-2.18-1.18-3.3-3-3.3s-3.11,1.16-3.11,3.55v5.37H492V85.29h1.26V87a3.6,3.6,0,0,1,3.35-1.85c2.23,0,4,1.36,4,4.24v5.77h-1.25Z"/><path class="b28cc649-1ac5-480f-a4a9-a4c025896af5" d="M115.25,119.5c0-2.18-1.14-3.3-2.88-3.3s-3.05,1.19-3.05,3.59v5.33h-1.24V119.5c0-2.18-1.15-3.3-2.9-3.3s-3,1.19-3,3.59v5.33h-1.26v-9.83h1.26V117a3.51,3.51,0,0,1,3.26-1.87,3.62,3.62,0,0,1,3.63,2.41,3.58,3.58,0,0,1,3.55-2.41c2.18,0,3.91,1.36,3.91,4.24v5.77h-1.24Z"/><path class="b28cc649-1ac5-480f-a4a9-a4c025896af5" d="M123.5,125.26a4.69,4.69,0,0,1-4.83-5.06c0-3.13,2-5.06,4.83-5.06a4.42,4.42,0,0,1,4.64,4.56c0,.39,0,.64,0,1H120a3.44,3.44,0,0,0,3.55,3.51,3,3,0,0,0,3.17-2.2H128A4.31,4.31,0,0,1,123.5,125.26Zm-3.55-5.6h6.92a3.22,3.22,0,0,0-3.42-3.44A3.4,3.4,0,0,0,120,119.66Zm5.12-8.41v1.14l-3.69,2.14v-1Z"/><path class="b28cc649-1ac5-480f-a4a9-a4c025896af5" d="M130.57,116.35H129.2v-1.06h1.37v-2.47h1.27v2.47h2.7v1.06h-2.7v6.1c0,1.21.42,1.59,1.55,1.59h1.15v1.08h-1.35c-1.71,0-2.62-.71-2.62-2.67Z"/><path class="b28cc649-1ac5-480f-a4a9-a4c025896af5" d="M140.37,125.26a5.06,5.06,0,1,1,4.95-5.06A4.79,4.79,0,0,1,140.37,125.26Zm0-1.1a4,4,0,0,0,0-7.92c-1.87,0-3.62,1.26-3.62,4S138.5,124.16,140.37,124.16Z"/><path class="b28cc649-1ac5-480f-a4a9-a4c025896af5" d="M151.78,115.14a4.27,4.27,0,0,1,3.87,2.27v-5.62h1.26v13.33h-1.26v-2.2a4.1,4.1,0,0,1-3.89,2.34c-2.7,0-4.7-2-4.7-5.08S149.06,115.14,151.78,115.14Zm.21,1.1c-2.07,0-3.65,1.44-3.65,3.94s1.58,4,3.65,4a4,4,0,0,0,0-7.92Z"/><path class="b28cc649-1ac5-480f-a4a9-a4c025896af5" d="M164.07,125.26a5.06,5.06,0,1,1,5-5.06A4.79,4.79,0,0,1,164.07,125.26Zm0-1.1a3.61,3.61,0,0,0,3.65-4c0-2.7-1.76-4-3.64-4s-3.61,1.26-3.61,4S162.19,124.16,164.07,124.16Z"/><path class="b28cc649-1ac5-480f-a4a9-a4c025896af5" d="M174.57,125.26c-2.23,0-3.8-1.12-4-2.92h1.3c.1,1.08,1,1.86,2.64,1.86,1.41,0,2.2-.76,2.2-1.69,0-2.44-5.91-1-5.91-4.7,0-1.46,1.39-2.67,3.46-2.67s3.5,1.12,3.6,3h-1.26a2.1,2.1,0,0,0-2.37-1.93c-1.32,0-2.15.7-2.15,1.57,0,2.66,5.82,1.24,5.87,4.72C178,124.09,176.61,125.26,174.57,125.26Z"/><path class="b28cc649-1ac5-480f-a4a9-a4c025896af5" d="M189.49,115.14a4.25,4.25,0,0,1,4.52,3.35h-1.35a3,3,0,0,0-3.17-2.27c-1.92,0-3.49,1.32-3.49,4s1.57,4,3.49,4a3,3,0,0,0,3.17-2.29H194a4.31,4.31,0,0,1-4.52,3.35c-2.77,0-4.77-1.94-4.77-5.06S186.72,115.14,189.49,115.14Z"/><path class="b28cc649-1ac5-480f-a4a9-a4c025896af5" d="M204.68,125.12h-1.26v-1.73a3.56,3.56,0,0,1-3.35,1.89c-2.23,0-4-1.37-4-4.25v-5.74h1.24v5.6c0,2.17,1.19,3.29,3,3.29s3.12-1.15,3.12-3.55v-5.34h1.26Z"/><path class="b28cc649-1ac5-480f-a4a9-a4c025896af5" d="M211.65,115.14a4.1,4.1,0,0,1,3.89,2.31v-2.16h1.26v9.83h-1.26v-2.18a4.16,4.16,0,0,1-3.91,2.32c-2.68,0-4.68-2-4.68-5.08S209,115.14,211.65,115.14Zm.23,1.1c-2.07,0-3.65,1.44-3.65,3.94s1.58,4,3.65,4a4,4,0,0,0,0-7.92Z"/><path class="b28cc649-1ac5-480f-a4a9-a4c025896af5" d="M227,119.5c0-2.18-1.19-3.3-3-3.3s-3.11,1.16-3.11,3.55v5.37h-1.26v-9.83h1.26V117a3.59,3.59,0,0,1,3.34-1.85c2.24,0,4,1.36,4,4.24v5.77H227Z"/><path class="b28cc649-1ac5-480f-a4a9-a4c025896af5" d="M231.11,116.35h-1.37v-1.06h1.37v-2.47h1.28v2.47h2.7v1.06h-2.7v6.1c0,1.21.41,1.59,1.54,1.59h1.16v1.08h-1.35c-1.71,0-2.63-.71-2.63-2.67Z"/><path class="b28cc649-1ac5-480f-a4a9-a4c025896af5" d="M236.64,112.49a.92.92,0,0,1,1.84,0,.92.92,0,1,1-1.84,0Zm.29,2.8h1.26v9.83h-1.26Z"/><path class="b28cc649-1ac5-480f-a4a9-a4c025896af5" d="M241.28,116.35h-1.36v-1.06h1.36v-2.47h1.28v2.47h2.7v1.06h-2.7v6.1c0,1.21.42,1.59,1.55,1.59h1.15v1.08h-1.35c-1.71,0-2.63-.71-2.63-2.67Z"/><path class="b28cc649-1ac5-480f-a4a9-a4c025896af5" d="M250.93,115.14a4.1,4.1,0,0,1,3.89,2.31v-2.16h1.26v9.83h-1.26v-2.18a4.16,4.16,0,0,1-3.91,2.32c-2.68,0-4.68-2-4.68-5.08S248.23,115.14,250.93,115.14Zm.23,1.1c-2.07,0-3.65,1.44-3.65,3.94s1.58,4,3.65,4a4,4,0,0,0,0-7.92Z"/><path class="b28cc649-1ac5-480f-a4a9-a4c025896af5" d="M259.21,116.35h-1.37v-1.06h1.37v-2.47h1.28v2.47h2.7v1.06h-2.7v6.1c0,1.21.41,1.59,1.54,1.59h1.16v1.08h-1.35c-1.71,0-2.63-.71-2.63-2.67Z"/><path class="b28cc649-1ac5-480f-a4a9-a4c025896af5" d="M264.74,112.49a.92.92,0,0,1,1.84,0,.92.92,0,1,1-1.84,0Zm.29,2.8h1.26v9.83H265Z"/><path class="b28cc649-1ac5-480f-a4a9-a4c025896af5" d="M269.29,115.29l3.31,8.6,3.31-8.6h1.34l-3.95,9.83h-1.42l-3.94-9.83Z"/><path class="b28cc649-1ac5-480f-a4a9-a4c025896af5" d="M282.82,125.26a5.06,5.06,0,1,1,4.95-5.06A4.79,4.79,0,0,1,282.82,125.26Zm0-1.1a3.6,3.6,0,0,0,3.65-4c0-2.7-1.76-4-3.63-4s-3.62,1.26-3.62,4S281,124.16,282.82,124.16Z"/><path class="b28cc649-1ac5-480f-a4a9-a4c025896af5" d="M293.33,125.26c-2.24,0-3.8-1.12-4-2.92h1.3c.11,1.08,1,1.86,2.65,1.86,1.4,0,2.19-.76,2.19-1.69,0-2.44-5.9-1-5.9-4.7,0-1.46,1.38-2.67,3.46-2.67s3.49,1.12,3.6,3H295.4a2.11,2.11,0,0,0-2.38-1.93c-1.31,0-2.14.7-2.14,1.57,0,2.66,5.81,1.24,5.87,4.72C296.75,124.09,295.36,125.26,293.33,125.26Z"/><path class="b28cc649-1ac5-480f-a4a9-a4c025896af5" d="M299.1,123h1.41l-1.86,4.72h-.88Z"/><path class="b28cc649-1ac5-480f-a4a9-a4c025896af5" d="M311.65,125.26a4.69,4.69,0,0,1-4.83-5.06c0-3.13,2-5.06,4.83-5.06a4.42,4.42,0,0,1,4.65,4.56,7.87,7.87,0,0,1,0,1H308.1a3.44,3.44,0,0,0,3.55,3.51,3,3,0,0,0,3.17-2.2h1.33A4.31,4.31,0,0,1,311.65,125.26Zm-3.55-5.6H315a3.22,3.22,0,0,0-3.42-3.44A3.4,3.4,0,0,0,308.1,119.66Z"/><path class="b28cc649-1ac5-480f-a4a9-a4c025896af5" d="M321.9,125.26c-2.23,0-3.8-1.12-4-2.92h1.29c.11,1.08,1,1.86,2.65,1.86,1.41,0,2.2-.76,2.2-1.69,0-2.44-5.91-1-5.91-4.7,0-1.46,1.39-2.67,3.46-2.67s3.49,1.12,3.6,3H324a2.1,2.1,0,0,0-2.38-1.93c-1.31,0-2.14.7-2.14,1.57,0,2.66,5.82,1.24,5.87,4.72C325.32,124.09,323.93,125.26,321.9,125.26Z"/><path class="b28cc649-1ac5-480f-a4a9-a4c025896af5" d="M336.93,125.26a5.06,5.06,0,1,1,4.95-5.06A4.79,4.79,0,0,1,336.93,125.26Zm0-1.1a3.61,3.61,0,0,0,3.65-4c0-2.7-1.76-4-3.63-4s-3.62,1.26-3.62,4S335.06,124.16,336.93,124.16Z"/><path class="b28cc649-1ac5-480f-a4a9-a4c025896af5" d="M349.31,115.14c2.7,0,4.68,2,4.68,5s-2,5.08-4.68,5.08a4.15,4.15,0,0,1-3.91-2.3v2.16h-1.24V111.79h1.24v5.67A4.18,4.18,0,0,1,349.31,115.14Zm-.25,1.1a4,4,0,0,0,0,7.92c2.07,0,3.65-1.49,3.65-4S351.13,116.24,349.06,116.24Z"/><path class="b28cc649-1ac5-480f-a4a9-a4c025896af5" d="M356.42,116.35h-1.37v-1.06h1.37v-2.47h1.28v2.47h2.7v1.06h-2.7v6.1c0,1.21.41,1.59,1.55,1.59h1.15v1.08h-1.35c-1.71,0-2.63-.71-2.63-2.67Z"/><path class="b28cc649-1ac5-480f-a4a9-a4c025896af5" d="M366.19,125.26c-2.79,0-4.82-1.94-4.82-5.06s2-5.06,4.82-5.06a4.42,4.42,0,0,1,4.65,4.56,7.87,7.87,0,0,1,0,1h-8.16a3.44,3.44,0,0,0,3.55,3.51,3,3,0,0,0,3.17-2.2h1.33A4.31,4.31,0,0,1,366.19,125.26Zm-3.55-5.6h6.92a3.21,3.21,0,0,0-3.42-3.44A3.4,3.4,0,0,0,362.64,119.66Z"/><path class="b28cc649-1ac5-480f-a4a9-a4c025896af5" d="M380.51,119.5c0-2.18-1.19-3.3-3-3.3s-3.11,1.16-3.11,3.55v5.37h-1.27v-9.83h1.27V117a3.59,3.59,0,0,1,3.34-1.85c2.24,0,4,1.36,4,4.24v5.77h-1.24Z"/><path class="b28cc649-1ac5-480f-a4a9-a4c025896af5" d="M388.74,125.26a4.69,4.69,0,0,1-4.83-5.06c0-3.13,2-5.06,4.83-5.06a4.42,4.42,0,0,1,4.64,4.56c0,.39,0,.64,0,1h-8.16a3.44,3.44,0,0,0,3.55,3.51,3,3,0,0,0,3.17-2.2h1.33A4.32,4.32,0,0,1,388.74,125.26Zm-3.55-5.6h6.91a3.21,3.21,0,0,0-3.42-3.44A3.39,3.39,0,0,0,385.19,119.66Z"/><path class="b28cc649-1ac5-480f-a4a9-a4c025896af5" d="M397,125.12h-1.26v-9.83H397V117a3.4,3.4,0,0,1,3.37-1.92v1.31H400c-1.64,0-3,.74-3,3.2Z"/><path class="b28cc649-1ac5-480f-a4a9-a4c025896af5" d="M411.39,125.26a4.69,4.69,0,0,1-4.83-5.06c0-3.13,2-5.06,4.83-5.06A4.42,4.42,0,0,1,416,119.7c0,.39,0,.64,0,1h-8.16a3.44,3.44,0,0,0,3.55,3.51,3,3,0,0,0,3.17-2.2h1.33A4.32,4.32,0,0,1,411.39,125.26Zm-3.55-5.6h6.92a3.22,3.22,0,0,0-3.43-3.44A3.4,3.4,0,0,0,407.84,119.66Z"/><path class="b28cc649-1ac5-480f-a4a9-a4c025896af5" d="M421.64,125.26c-2.24,0-3.8-1.12-4-2.92H419c.11,1.08,1,1.86,2.65,1.86,1.4,0,2.2-.76,2.2-1.69,0-2.44-5.91-1-5.91-4.7,0-1.46,1.39-2.67,3.46-2.67s3.49,1.12,3.6,3h-1.26a2.1,2.1,0,0,0-2.38-1.93c-1.31,0-2.14.7-2.14,1.57,0,2.66,5.81,1.24,5.87,4.72C425.06,124.09,423.67,125.26,421.64,125.26Z"/><path class="b28cc649-1ac5-480f-a4a9-a4c025896af5" d="M427.62,116.35h-1.37v-1.06h1.37v-2.47h1.28v2.47h2.7v1.06h-2.7v6.1c0,1.21.41,1.59,1.55,1.59h1.15v1.08h-1.35c-1.71,0-2.63-.71-2.63-2.67Z"/><path class="b28cc649-1ac5-480f-a4a9-a4c025896af5" d="M433.15,112.49a.92.92,0,0,1,1.84,0,.92.92,0,1,1-1.84,0Zm.29,2.8h1.26v9.83h-1.26Z"/><path class="b28cc649-1ac5-480f-a4a9-a4c025896af5" d="M451.88,119.5c0-2.18-1.14-3.3-2.88-3.3s-3.05,1.19-3.05,3.59v5.33h-1.24V119.5c0-2.18-1.15-3.3-2.9-3.3s-3,1.19-3,3.59v5.33h-1.26v-9.83h1.26V117a3.51,3.51,0,0,1,3.26-1.87,3.64,3.64,0,0,1,3.64,2.41,3.58,3.58,0,0,1,3.54-2.41c2.18,0,3.91,1.36,3.91,4.24v5.77h-1.24Z"/><path class="b28cc649-1ac5-480f-a4a9-a4c025896af5" d="M460,115.14a4.09,4.09,0,0,1,3.89,2.31v-2.16h1.26v9.83h-1.26v-2.18a4.14,4.14,0,0,1-3.9,2.32c-2.69,0-4.69-2-4.69-5.08S457.3,115.14,460,115.14Zm.24,1.1a3.59,3.59,0,0,0-3.66,3.94c0,2.49,1.59,4,3.66,4a4,4,0,0,0,0-7.92Z"/><path class="b28cc649-1ac5-480f-a4a9-a4c025896af5" d="M472.2,115.14a4.25,4.25,0,0,1,4.52,3.35h-1.35a3,3,0,0,0-3.17-2.27c-1.92,0-3.49,1.32-3.49,4s1.57,4,3.49,4a3,3,0,0,0,3.17-2.29h1.35a4.31,4.31,0,0,1-4.52,3.35c-2.77,0-4.77-1.94-4.77-5.06S469.43,115.14,472.2,115.14Z"/><path class="b28cc649-1ac5-480f-a4a9-a4c025896af5" d="M478.64,112.49a.92.92,0,0,1,1.84,0,.92.92,0,1,1-1.84,0Zm.29,2.8h1.26v9.83h-1.26Z"/><path class="b28cc649-1ac5-480f-a4a9-a4c025896af5" d="M487.28,125.26a5.06,5.06,0,1,1,5-5.06A4.79,4.79,0,0,1,487.28,125.26Zm0-1.1a4,4,0,0,0,0-7.92c-1.87,0-3.62,1.26-3.62,4S485.41,124.16,487.28,124.16Z"/><path class="b28cc649-1ac5-480f-a4a9-a4c025896af5" d="M501.88,119.5c0-2.18-1.19-3.3-3-3.3s-3.12,1.16-3.12,3.55v5.37h-1.26v-9.83h1.26V117a3.6,3.6,0,0,1,3.35-1.85c2.23,0,4,1.36,4,4.24v5.77h-1.24Z"/><path class="b28cc649-1ac5-480f-a4a9-a4c025896af5" d="M510.1,125.26c-2.79,0-4.82-1.94-4.82-5.06s2-5.06,4.82-5.06a4.42,4.42,0,0,1,4.65,4.56,7.87,7.87,0,0,1,0,1h-8.15a3.44,3.44,0,0,0,3.54,3.51,3,3,0,0,0,3.17-2.2h1.34A4.32,4.32,0,0,1,510.1,125.26Zm-3.54-5.6h6.91a3.21,3.21,0,0,0-3.42-3.44A3.39,3.39,0,0,0,506.56,119.66Z"/><path class="b28cc649-1ac5-480f-a4a9-a4c025896af5" d="M520.35,125.26c-2.23,0-3.8-1.12-4-2.92h1.3c.11,1.08,1,1.86,2.65,1.86,1.4,0,2.19-.76,2.19-1.69,0-2.44-5.9-1-5.9-4.7,0-1.46,1.38-2.67,3.45-2.67s3.5,1.12,3.6,3h-1.26a2.1,2.1,0,0,0-2.37-1.93c-1.32,0-2.15.7-2.15,1.57,0,2.66,5.82,1.24,5.87,4.72C523.77,124.09,522.39,125.26,520.35,125.26Z"/><path class="b28cc649-1ac5-480f-a4a9-a4c025896af5" d="M104.26,155.26c-2.23,0-3.8-1.12-4-2.92h1.3c.11,1.08,1,1.86,2.65,1.86,1.4,0,2.19-.76,2.19-1.69,0-2.44-5.9-1-5.9-4.7,0-1.46,1.38-2.67,3.45-2.67s3.5,1.12,3.6,3h-1.26a2.1,2.1,0,0,0-2.37-1.93c-1.32,0-2.15.7-2.15,1.57,0,2.66,5.82,1.24,5.87,4.72C107.68,154.09,106.3,155.26,104.26,155.26Z"/><path class="b28cc649-1ac5-480f-a4a9-a4c025896af5" d="M109.71,142.49a.92.92,0,0,1,1.84,0,.92.92,0,1,1-1.84,0Zm.29,2.8h1.26v9.83H110Z"/><path class="b28cc649-1ac5-480f-a4a9-a4c025896af5" d="M121.43,149.5c0-2.18-1.19-3.3-3-3.3s-3.11,1.16-3.11,3.55v5.37h-1.26v-9.83h1.26V147a3.6,3.6,0,0,1,3.35-1.85c2.23,0,4,1.36,4,4.24v5.77h-1.24Z"/><path class="b28cc649-1ac5-480f-a4a9-a4c025896af5" d="M133.78,155.26c-2.24,0-3.8-1.12-4-2.92h1.29c.11,1.08,1,1.86,2.65,1.86,1.4,0,2.2-.76,2.2-1.69,0-2.44-5.91-1-5.91-4.7,0-1.46,1.39-2.67,3.46-2.67s3.49,1.12,3.6,3h-1.26a2.1,2.1,0,0,0-2.38-1.93c-1.31,0-2.14.7-2.14,1.57,0,2.66,5.81,1.24,5.87,4.72C137.2,154.09,135.81,155.26,133.78,155.26Z"/><path class="b28cc649-1ac5-480f-a4a9-a4c025896af5" d="M143.74,155.26a4.69,4.69,0,0,1-4.83-5.06c0-3.13,2-5.06,4.83-5.06a4.42,4.42,0,0,1,4.64,4.56c0,.39,0,.64,0,1h-8.16a3.44,3.44,0,0,0,3.55,3.51,3,3,0,0,0,3.17-2.2h1.33A4.31,4.31,0,0,1,143.74,155.26Zm-3.55-5.6h6.92a3.22,3.22,0,0,0-3.42-3.44A3.4,3.4,0,0,0,140.19,149.66Z"/><path class="b28cc649-1ac5-480f-a4a9-a4c025896af5" d="M154,155.26c-2.23,0-3.8-1.12-4-2.92h1.3c.1,1.08,1,1.86,2.64,1.86,1.41,0,2.2-.76,2.2-1.69,0-2.44-5.91-1-5.91-4.7,0-1.46,1.39-2.67,3.46-2.67s3.49,1.12,3.6,3h-1.26a2.1,2.1,0,0,0-2.38-1.93c-1.31,0-2.14.7-2.14,1.57,0,2.66,5.82,1.24,5.87,4.72C157.41,154.09,156,155.26,154,155.26Z"/><path class="b28cc649-1ac5-480f-a4a9-a4c025896af5" d="M163.83,145.14a4.14,4.14,0,0,1,3.89,2.29v-2.14H169v10.08a4.35,4.35,0,0,1-4.59,4.57c-2.54,0-4.31-1.29-4.7-3.35h1.24a3.36,3.36,0,0,0,3.46,2.25,3.2,3.2,0,0,0,3.33-3.47v-2.43a4.15,4.15,0,0,1-3.89,2.32c-2.7,0-4.7-2-4.7-5.08S161.13,145.14,163.83,145.14Zm.23,1.1c-2.07,0-3.65,1.44-3.65,3.94s1.58,4,3.65,4a4,4,0,0,0,0-7.92Z"/><path class="b28cc649-1ac5-480f-a4a9-a4c025896af5" d="M176.14,155.26a5.06,5.06,0,1,1,5-5.06A4.79,4.79,0,0,1,176.14,155.26Zm0-1.1a3.61,3.61,0,0,0,3.65-4c0-2.7-1.76-4-3.64-4s-3.62,1.26-3.62,4S174.26,154.16,176.14,154.16Z"/><path class="b28cc649-1ac5-480f-a4a9-a4c025896af5" d="M195.13,145.29h1.29l-5.83,14.45h-1.32l1.91-4.68-4-9.77h1.39l3.34,8.39Z"/><path class="b28cc649-1ac5-480f-a4a9-a4c025896af5" d="M207.26,145.14a4.25,4.25,0,0,1,4.52,3.35h-1.35a3,3,0,0,0-3.17-2.27c-1.93,0-3.5,1.32-3.5,4s1.57,4,3.5,4a3,3,0,0,0,3.17-2.29h1.35a4.32,4.32,0,0,1-4.52,3.35c-2.78,0-4.78-1.94-4.78-5.06S204.48,145.14,207.26,145.14Z"/><path class="b28cc649-1ac5-480f-a4a9-a4c025896af5" d="M218.25,155.26a5.06,5.06,0,1,1,4.95-5.06A4.79,4.79,0,0,1,218.25,155.26Zm0-1.1a4,4,0,0,0,0-7.92c-1.87,0-3.62,1.26-3.62,4S216.38,154.16,218.25,154.16Z"/><path class="b28cc649-1ac5-480f-a4a9-a4c025896af5" d="M232.85,149.5c0-2.18-1.19-3.3-3-3.3s-3.12,1.16-3.12,3.55v5.37h-1.26v-9.83h1.26V147a3.6,3.6,0,0,1,3.35-1.85c2.24,0,4,1.36,4,4.24v5.77h-1.24Z"/><path class="b28cc649-1ac5-480f-a4a9-a4c025896af5" d="M241,145.14a4.25,4.25,0,0,1,4.52,3.35h-1.35a3,3,0,0,0-3.17-2.27c-1.93,0-3.49,1.32-3.49,4s1.56,4,3.49,4a3,3,0,0,0,3.17-2.29h1.35a4.31,4.31,0,0,1-4.52,3.35c-2.77,0-4.77-1.94-4.77-5.06S238.25,145.14,241,145.14Z"/><path class="b28cc649-1ac5-480f-a4a9-a4c025896af5" d="M247.75,141.79H249v13.33h-1.26Z"/><path class="b28cc649-1ac5-480f-a4a9-a4c025896af5" d="M260.34,155.12h-1.26v-1.73a3.56,3.56,0,0,1-3.35,1.89c-2.23,0-4-1.37-4-4.25v-5.74H253v5.6c0,2.17,1.19,3.29,3,3.29s3.12-1.15,3.12-3.55v-5.34h1.26Z"/><path class="b28cc649-1ac5-480f-a4a9-a4c025896af5" d="M262.88,142.49a.92.92,0,0,1,1.84,0,.92.92,0,1,1-1.84,0Zm.29,2.8h1.26v9.83h-1.26Z"/><path class="b28cc649-1ac5-480f-a4a9-a4c025896af5" d="M268.5,155.12h-1.26v-9.83h1.26V147a3.39,3.39,0,0,1,3.37-1.92v1.31h-.35c-1.64,0-3,.74-3,3.2Z"/><path class="b28cc649-1ac5-480f-a4a9-a4c025896af5" d="M282.93,155.26c-2.79,0-4.82-1.94-4.82-5.06s2-5.06,4.82-5.06a4.42,4.42,0,0,1,4.65,4.56,7.87,7.87,0,0,1,0,1h-8.15a3.44,3.44,0,0,0,3.54,3.51,3,3,0,0,0,3.17-2.2h1.34A4.32,4.32,0,0,1,282.93,155.26Zm-3.54-5.6h6.91a3.21,3.21,0,0,0-3.42-3.44A3.39,3.39,0,0,0,279.39,149.66Z"/><path class="b28cc649-1ac5-480f-a4a9-a4c025896af5" d="M290,146.35h-1.36v-1.06H290v-.69c0-2.11,1-3.11,3.48-3.11v1.08c-1.68,0-2.22.61-2.22,2v.69h2.29v1.06H291.3v8.77H290Z"/><path class="b28cc649-1ac5-480f-a4a9-a4c025896af5" d="M299.26,155.26c-2.79,0-4.82-1.94-4.82-5.06s2-5.06,4.82-5.06a4.42,4.42,0,0,1,4.65,4.56,7.87,7.87,0,0,1,0,1h-8.15a3.43,3.43,0,0,0,3.54,3.51,3,3,0,0,0,3.17-2.2h1.33A4.31,4.31,0,0,1,299.26,155.26Zm-3.54-5.6h6.91a3.21,3.21,0,0,0-3.42-3.44A3.39,3.39,0,0,0,295.72,149.66Z"/><path class="b28cc649-1ac5-480f-a4a9-a4c025896af5" d="M310.41,145.14a4.25,4.25,0,0,1,4.52,3.35h-1.35a3,3,0,0,0-3.17-2.27c-1.92,0-3.49,1.32-3.49,4s1.57,4,3.49,4a3,3,0,0,0,3.17-2.29h1.35a4.31,4.31,0,0,1-4.52,3.35c-2.77,0-4.77-1.94-4.77-5.06S307.64,145.14,310.41,145.14Z"/><path class="b28cc649-1ac5-480f-a4a9-a4c025896af5" d="M317.29,146.35h-1.37v-1.06h1.37v-2.47h1.28v2.47h2.7v1.06h-2.7v6.1c0,1.21.42,1.59,1.55,1.59h1.15v1.08h-1.35c-1.71,0-2.63-.71-2.63-2.67Z"/><path class="b28cc649-1ac5-480f-a4a9-a4c025896af5" d="M327.1,155.26a5.06,5.06,0,1,1,4.95-5.06A4.79,4.79,0,0,1,327.1,155.26Zm0-1.1a4,4,0,0,0,0-7.92c-1.87,0-3.62,1.26-3.62,4S325.23,154.16,327.1,154.16Z"/><path class="b28cc649-1ac5-480f-a4a9-a4c025896af5" d="M337.61,155.26c-2.24,0-3.8-1.12-4-2.92h1.29c.11,1.08,1.05,1.86,2.65,1.86,1.4,0,2.2-.76,2.2-1.69,0-2.44-5.91-1-5.91-4.7,0-1.46,1.39-2.67,3.46-2.67s3.49,1.12,3.6,3h-1.26a2.1,2.1,0,0,0-2.38-1.93c-1.31,0-2.14.7-2.14,1.57,0,2.66,5.81,1.24,5.87,4.72C341,154.09,339.64,155.26,337.61,155.26Z"/><path class="b28cc649-1ac5-480f-a4a9-a4c025896af5" d="M352.53,145.14a4.25,4.25,0,0,1,4.52,3.35H355.7a3,3,0,0,0-3.17-2.27c-1.93,0-3.49,1.32-3.49,4s1.56,4,3.49,4a3,3,0,0,0,3.17-2.29h1.35a4.31,4.31,0,0,1-4.52,3.35c-2.77,0-4.77-1.94-4.77-5.06S349.76,145.14,352.53,145.14Z"/><path class="b28cc649-1ac5-480f-a4a9-a4c025896af5" d="M363.34,145.14a4.08,4.08,0,0,1,3.89,2.31v-2.16h1.26v9.83h-1.26v-2.18a4.14,4.14,0,0,1-3.9,2.32c-2.69,0-4.68-2-4.68-5.08S360.64,145.14,363.34,145.14Zm.24,1.1a3.59,3.59,0,0,0-3.66,3.94c0,2.49,1.59,4,3.66,4a4,4,0,0,0,0-7.92Z"/><path class="b28cc649-1ac5-480f-a4a9-a4c025896af5" d="M379.85,155.12h-1.26v-1.73a3.55,3.55,0,0,1-3.35,1.89c-2.23,0-4-1.37-4-4.25v-5.74h1.25v5.6c0,2.17,1.18,3.29,3,3.29s3.12-1.15,3.12-3.55v-5.34h1.26Z"/><path class="b28cc649-1ac5-480f-a4a9-a4c025896af5" d="M386.05,155.26c-2.23,0-3.8-1.12-4-2.92h1.29c.11,1.08,1.05,1.86,2.65,1.86,1.4,0,2.2-.76,2.2-1.69,0-2.44-5.91-1-5.91-4.7,0-1.46,1.39-2.67,3.46-2.67s3.49,1.12,3.6,3h-1.26a2.1,2.1,0,0,0-2.38-1.93c-1.31,0-2.14.7-2.14,1.57,0,2.66,5.82,1.24,5.87,4.72C389.47,154.09,388.08,155.26,386.05,155.26Z"/><path class="b28cc649-1ac5-480f-a4a9-a4c025896af5" d="M395.89,145.14a4.1,4.1,0,0,1,3.89,2.31v-2.16H401v9.83h-1.26v-2.18a4.16,4.16,0,0,1-3.91,2.32c-2.68,0-4.68-2-4.68-5.08S393.19,145.14,395.89,145.14Zm.23,1.1c-2.07,0-3.65,1.44-3.65,3.94s1.58,4,3.65,4a4,4,0,0,0,0-7.92Z"/><path class="b28cc649-1ac5-480f-a4a9-a4c025896af5" d="M403.86,141.79h1.26v13.33h-1.26Z"/><path class="b28cc649-1ac5-480f-a4a9-a4c025896af5" d="M412.21,155.26c-2.79,0-4.82-1.94-4.82-5.06s2-5.06,4.82-5.06a4.42,4.42,0,0,1,4.65,4.56,7.87,7.87,0,0,1,0,1h-8.15a3.43,3.43,0,0,0,3.54,3.51,3,3,0,0,0,3.17-2.2h1.34A4.33,4.33,0,0,1,412.21,155.26Zm-3.54-5.6h6.91a3.21,3.21,0,0,0-3.42-3.44A3.39,3.39,0,0,0,408.67,149.66Z"/><path class="b28cc649-1ac5-480f-a4a9-a4c025896af5" d="M422.46,155.26c-2.23,0-3.8-1.12-4-2.92h1.3c.11,1.08,1,1.86,2.64,1.86,1.41,0,2.2-.76,2.2-1.69,0-2.44-5.9-1-5.9-4.7,0-1.46,1.38-2.67,3.45-2.67s3.5,1.12,3.6,3h-1.26a2.1,2.1,0,0,0-2.37-1.93c-1.32,0-2.15.7-2.15,1.57,0,2.66,5.82,1.24,5.87,4.72C425.88,154.09,424.5,155.26,422.46,155.26Z"/><path class="b28cc649-1ac5-480f-a4a9-a4c025896af5" d="M428.69,155.21a.92.92,0,0,1-.92-.94.91.91,0,1,1,1.82,0A.92.92,0,0,1,428.69,155.21Z"/><path class="b28cc649-1ac5-480f-a4a9-a4c025896af5" d="M440.5,155.24c-2.52,0-4.18-1.44-4.25-3.36h1.33a2.62,2.62,0,0,0,2.92,2.3c1.74,0,2.77-1,2.77-2.32,0-3.71-6.91-1.37-6.91-6.11,0-1.94,1.6-3.36,4-3.36s3.83,1.33,4.05,3.06h-1.37a2.56,2.56,0,0,0-2.73-2c-1.48,0-2.71.79-2.71,2.25,0,3.63,6.92,1.4,6.92,6.08C444.55,153.51,443.16,155.24,440.5,155.24Z"/><path class="b28cc649-1ac5-480f-a4a9-a4c025896af5" d="M446.59,142.49a.92.92,0,0,1,1.83,0,.92.92,0,1,1-1.83,0Zm.29,2.8h1.26v9.83h-1.26Z"/><path class="b28cc649-1ac5-480f-a4a9-a4c025896af5" d="M458.31,149.5c0-2.18-1.19-3.3-3-3.3s-3.12,1.16-3.12,3.55v5.37h-1.26v-9.83h1.26V147a3.6,3.6,0,0,1,3.35-1.85c2.24,0,4,1.36,4,4.24v5.77h-1.24Z"/><path class="b28cc649-1ac5-480f-a4a9-a4c025896af5" d="M105.13,185.26a4.69,4.69,0,0,1-4.83-5.06c0-3.13,2-5.06,4.83-5.06a4.42,4.42,0,0,1,4.64,4.56c0,.39,0,.64,0,1h-8.16a3.44,3.44,0,0,0,3.55,3.51,3,3,0,0,0,3.17-2.2h1.33A4.32,4.32,0,0,1,105.13,185.26Zm-3.55-5.6h6.91a3.21,3.21,0,0,0-3.42-3.44A3.39,3.39,0,0,0,101.58,179.66Z"/><path class="b28cc649-1ac5-480f-a4a9-a4c025896af5" d="M126.45,179.5c0-2.18-1.13-3.3-2.88-3.3s-3,1.19-3,3.59v5.33h-1.25V179.5c0-2.18-1.15-3.3-2.9-3.3s-3,1.19-3,3.59v5.33h-1.26v-9.83h1.26V177a3.51,3.51,0,0,1,3.26-1.87,3.64,3.64,0,0,1,3.64,2.41,3.58,3.58,0,0,1,3.54-2.41c2.18,0,3.91,1.36,3.91,4.24v5.77h-1.24Z"/><path class="b28cc649-1ac5-480f-a4a9-a4c025896af5" d="M135.62,175.14c2.7,0,4.68,2,4.68,5s-2,5.08-4.68,5.08a4.13,4.13,0,0,1-3.91-2.3v2.16h-1.24V171.79h1.24v5.67A4.18,4.18,0,0,1,135.62,175.14Zm-.25,1.1a4,4,0,0,0,0,7.92c2.07,0,3.65-1.49,3.65-4S137.44,176.24,135.37,176.24Z"/><path class="b28cc649-1ac5-480f-a4a9-a4c025896af5" d="M146.74,175.14a4.1,4.1,0,0,1,3.89,2.31v-2.16h1.26v9.83h-1.26v-2.18a4.16,4.16,0,0,1-3.91,2.32c-2.68,0-4.68-2-4.68-5.08S144,175.14,146.74,175.14Zm.23,1.1c-2.07,0-3.65,1.44-3.65,3.94s1.58,4,3.65,4a4,4,0,0,0,0-7.92Z"/><path class="b28cc649-1ac5-480f-a4a9-a4c025896af5" d="M156,185.12h-1.26v-9.83H156V177a3.38,3.38,0,0,1,3.36-1.92v1.31H159c-1.64,0-3,.74-3,3.2Z"/><path class="b28cc649-1ac5-480f-a4a9-a4c025896af5" d="M164.93,175.14a4.13,4.13,0,0,1,3.89,2.29v-2.14h1.26v10.08a4.35,4.35,0,0,1-4.59,4.57c-2.54,0-4.3-1.29-4.7-3.35H162a3.36,3.36,0,0,0,3.46,2.25,3.2,3.2,0,0,0,3.33-3.47v-2.43a4.14,4.14,0,0,1-3.89,2.32c-2.7,0-4.7-2-4.7-5.08S162.23,175.14,164.93,175.14Zm.24,1.1a3.59,3.59,0,0,0-3.66,3.94c0,2.49,1.58,4,3.66,4a4,4,0,0,0,0-7.92Z"/><path class="b28cc649-1ac5-480f-a4a9-a4c025896af5" d="M177.24,185.26a5.06,5.06,0,1,1,4.95-5.06A4.79,4.79,0,0,1,177.24,185.26Zm0-1.1a3.61,3.61,0,0,0,3.65-4c0-2.7-1.76-4-3.63-4s-3.62,1.26-3.62,4S175.37,184.16,177.24,184.16Z"/><path class="b28cc649-1ac5-480f-a4a9-a4c025896af5" d="M184.11,183h1.4l-1.85,4.72h-.89Z"/><path class="b28cc649-1ac5-480f-a4a9-a4c025896af5" d="M196.65,185.26c-2.79,0-4.82-1.94-4.82-5.06s2-5.06,4.82-5.06a4.42,4.42,0,0,1,4.65,4.56,7.87,7.87,0,0,1,0,1h-8.15a3.43,3.43,0,0,0,3.54,3.51,3,3,0,0,0,3.17-2.2h1.33A4.31,4.31,0,0,1,196.65,185.26Zm-3.54-5.6H200a3.21,3.21,0,0,0-3.42-3.44A3.39,3.39,0,0,0,193.11,179.66Z"/><path class="b28cc649-1ac5-480f-a4a9-a4c025896af5" d="M206.9,185.26c-2.23,0-3.8-1.12-4-2.92h1.3c.1,1.08,1,1.86,2.64,1.86,1.41,0,2.2-.76,2.2-1.69,0-2.44-5.9-1-5.9-4.7,0-1.46,1.38-2.67,3.45-2.67s3.5,1.12,3.6,3H209a2.1,2.1,0,0,0-2.37-1.93c-1.32,0-2.15.7-2.15,1.57,0,2.66,5.82,1.24,5.87,4.72C210.32,184.09,208.94,185.26,206.9,185.26Z"/><path class="b28cc649-1ac5-480f-a4a9-a4c025896af5" d="M212.88,176.35h-1.36v-1.06h1.36v-2.47h1.28v2.47h2.7v1.06h-2.7v6.1c0,1.21.42,1.59,1.55,1.59h1.15v1.08h-1.35c-1.71,0-2.63-.71-2.63-2.67Z"/><path class="b28cc649-1ac5-480f-a4a9-a4c025896af5" d="M222.69,185.26a5.06,5.06,0,1,1,4.95-5.06A4.79,4.79,0,0,1,222.69,185.26Zm0-1.1a4,4,0,0,0,0-7.92c-1.87,0-3.62,1.26-3.62,4S220.82,184.16,222.69,184.16Z"/><path class="b28cc649-1ac5-480f-a4a9-a4c025896af5" d="M242.24,179.5c0-2.18-1.19-3.3-3-3.3s-3.11,1.16-3.11,3.55v5.37h-1.26v-9.83h1.26V177a3.6,3.6,0,0,1,3.35-1.85c2.23,0,4,1.36,4,4.24v5.77h-1.24Z"/><path class="b28cc649-1ac5-480f-a4a9-a4c025896af5" d="M250.52,185.26a5.06,5.06,0,1,1,4.95-5.06A4.79,4.79,0,0,1,250.52,185.26Zm0-1.1a4,4,0,0,0,0-7.92c-1.87,0-3.62,1.26-3.62,4S248.65,184.16,250.52,184.16Z"/><path class="b28cc649-1ac5-480f-a4a9-a4c025896af5" d="M267,185.26a4.68,4.68,0,0,1-4.83-5.06c0-3.13,2-5.06,4.83-5.06a4.42,4.42,0,0,1,4.64,4.56,7.87,7.87,0,0,1,0,1h-8.15A3.44,3.44,0,0,0,267,184.2a3,3,0,0,0,3.16-2.2h1.34A4.32,4.32,0,0,1,267,185.26Zm-3.55-5.6h6.91a3.21,3.21,0,0,0-3.42-3.44A3.39,3.39,0,0,0,263.41,179.66Z"/><path class="b28cc649-1ac5-480f-a4a9-a4c025896af5" d="M277.2,185.26c-2.23,0-3.79-1.12-4-2.92h1.3c.11,1.08,1,1.86,2.65,1.86,1.4,0,2.19-.76,2.19-1.69,0-2.44-5.9-1-5.9-4.7,0-1.46,1.38-2.67,3.45-2.67s3.5,1.12,3.61,3h-1.26a2.11,2.11,0,0,0-2.38-1.93c-1.32,0-2.14.7-2.14,1.57,0,2.66,5.81,1.24,5.87,4.72C280.63,184.09,279.24,185.26,277.2,185.26Z"/><path class="b28cc649-1ac5-480f-a4a9-a4c025896af5" d="M288.26,176.35h-1.37v-1.06h1.37v-.69c0-2.11,1-3.11,3.47-3.11v1.08c-1.67,0-2.21.61-2.21,2v.69h2.28v1.06h-2.28v8.77h-1.26Z"/><path class="b28cc649-1ac5-480f-a4a9-a4c025896af5" d="M297.35,175.14a4.1,4.1,0,0,1,3.89,2.31v-2.16h1.26v9.83h-1.26v-2.18a4.16,4.16,0,0,1-3.91,2.32c-2.68,0-4.68-2-4.68-5.08S294.65,175.14,297.35,175.14Zm.23,1.1c-2.07,0-3.65,1.44-3.65,3.94s1.58,4,3.65,4a4,4,0,0,0,0-7.92Zm2-5v1.14l-3.69,2.14v-1Z"/><path class="b28cc649-1ac5-480f-a4a9-a4c025896af5" d="M309.55,175.14a4.25,4.25,0,0,1,4.52,3.35h-1.35a3,3,0,0,0-3.17-2.27c-1.93,0-3.49,1.32-3.49,4s1.56,4,3.49,4a3,3,0,0,0,3.17-2.29h1.35a4.31,4.31,0,0,1-4.52,3.35c-2.77,0-4.77-1.94-4.77-5.06S306.78,175.14,309.55,175.14Z"/><path class="b28cc649-1ac5-480f-a4a9-a4c025896af5" d="M316,172.49a.92.92,0,0,1,1.83,0,.92.92,0,1,1-1.83,0Zm.28,2.8h1.27v9.83h-1.27Z"/><path class="b28cc649-1ac5-480f-a4a9-a4c025896af5" d="M320.33,171.79h1.26v13.33h-1.26Z"/><path class="b28cc649-1ac5-480f-a4a9-a4c025896af5" d="M334.54,175.14c2.68,0,4.68,2,4.68,5s-2,5.08-4.68,5.08a4.2,4.2,0,0,1-3.91-2.3v6.8h-1.24V175.29h1.24v2.16A4.16,4.16,0,0,1,334.54,175.14Zm-.25,1.1a4,4,0,0,0,0,7.92c2.07,0,3.65-1.49,3.65-4S336.36,176.24,334.29,176.24Z"/><path class="b28cc649-1ac5-480f-a4a9-a4c025896af5" d="M350,185.12h-1.26v-1.73a3.55,3.55,0,0,1-3.35,1.89c-2.23,0-4-1.37-4-4.25v-5.74h1.24v5.6c0,2.17,1.19,3.29,3,3.29s3.11-1.15,3.11-3.55v-5.34H350Z"/><path class="b28cc649-1ac5-480f-a4a9-a4c025896af5" d="M357.1,185.26a4.69,4.69,0,0,1-4.83-5.06c0-3.13,2-5.06,4.83-5.06a4.42,4.42,0,0,1,4.64,4.56c0,.39,0,.64,0,1h-8.16a3.44,3.44,0,0,0,3.55,3.51,3,3,0,0,0,3.17-2.2h1.33A4.31,4.31,0,0,1,357.1,185.26Zm-3.55-5.6h6.92a3.22,3.22,0,0,0-3.42-3.44A3.4,3.4,0,0,0,353.55,179.66Z"/><path class="b28cc649-1ac5-480f-a4a9-a4c025896af5" d="M367.35,185.26c-2.23,0-3.8-1.12-4-2.92h1.29c.11,1.08,1.05,1.86,2.65,1.86,1.4,0,2.2-.76,2.2-1.69,0-2.44-5.91-1-5.91-4.7,0-1.46,1.39-2.67,3.46-2.67s3.49,1.12,3.6,3h-1.26a2.1,2.1,0,0,0-2.38-1.93c-1.31,0-2.14.7-2.14,1.57,0,2.66,5.82,1.24,5.87,4.72C370.77,184.09,369.38,185.26,367.35,185.26Z"/><path class="b28cc649-1ac5-480f-a4a9-a4c025896af5" d="M378.07,171.79h1.27v13.33h-1.27Z"/><path class="b28cc649-1ac5-480f-a4a9-a4c025896af5" d="M386.48,185.26a5.06,5.06,0,1,1,4.95-5.06A4.79,4.79,0,0,1,386.48,185.26Zm0-1.1a3.6,3.6,0,0,0,3.65-4c0-2.7-1.76-4-3.63-4s-3.62,1.26-3.62,4S384.61,184.16,386.48,184.16Z"/><path class="b28cc649-1ac5-480f-a4a9-a4c025896af5" d="M397,185.26c-2.24,0-3.8-1.12-4-2.92h1.3c.11,1.08,1.05,1.86,2.65,1.86,1.4,0,2.19-.76,2.19-1.69,0-2.44-5.9-1-5.9-4.7,0-1.46,1.38-2.67,3.46-2.67s3.49,1.12,3.6,3h-1.26a2.11,2.11,0,0,0-2.38-1.93c-1.31,0-2.14.7-2.14,1.57,0,2.66,5.81,1.24,5.87,4.72C400.41,184.09,399,185.26,397,185.26Z"/><path class="b28cc649-1ac5-480f-a4a9-a4c025896af5" d="M412.86,175.14c2.68,0,4.68,2,4.68,5s-2,5.08-4.68,5.08A4.22,4.22,0,0,1,409,183v6.8h-1.24V175.29H409v2.16A4.17,4.17,0,0,1,412.86,175.14Zm-.25,1.1a4,4,0,0,0,0,7.92c2.07,0,3.65-1.49,3.65-4S414.68,176.24,412.61,176.24Z"/><path class="b28cc649-1ac5-480f-a4a9-a4c025896af5" d="M421.09,185.12h-1.26v-9.83h1.26V177a3.4,3.4,0,0,1,3.37-1.92v1.31h-.34c-1.64,0-3,.74-3,3.2Z"/><path class="b28cc649-1ac5-480f-a4a9-a4c025896af5" d="M430.19,185.26a5.06,5.06,0,1,1,4.95-5.06A4.79,4.79,0,0,1,430.19,185.26Zm0-1.1a3.61,3.61,0,0,0,3.65-4c0-2.7-1.76-4-3.63-4s-3.62,1.26-3.62,4S428.31,184.16,430.19,184.16Z"/><path class="b28cc649-1ac5-480f-a4a9-a4c025896af5" d="M442.57,175.14c2.7,0,4.68,2,4.68,5s-2,5.08-4.68,5.08a4.14,4.14,0,0,1-3.91-2.3v2.16h-1.24V171.79h1.24v5.67A4.18,4.18,0,0,1,442.57,175.14Zm-.25,1.1a4,4,0,0,0,0,7.92c2.07,0,3.65-1.49,3.65-4S444.39,176.24,442.32,176.24Z"/><path class="b28cc649-1ac5-480f-a4a9-a4c025896af5" d="M449.56,171.79h1.26v13.33h-1.26Z"/><path class="b28cc649-1ac5-480f-a4a9-a4c025896af5" d="M457.91,185.26a4.69,4.69,0,0,1-4.83-5.06c0-3.13,2-5.06,4.83-5.06a4.42,4.42,0,0,1,4.64,4.56c0,.39,0,.64,0,1h-8.16a3.44,3.44,0,0,0,3.55,3.51,3,3,0,0,0,3.17-2.2h1.33A4.31,4.31,0,0,1,457.91,185.26Zm-3.55-5.6h6.92a3.22,3.22,0,0,0-3.43-3.44A3.4,3.4,0,0,0,454.36,179.66Z"/><path class="b28cc649-1ac5-480f-a4a9-a4c025896af5" d="M479.23,179.5c0-2.18-1.13-3.3-2.88-3.3s-3,1.19-3,3.59v5.33h-1.25V179.5c0-2.18-1.15-3.3-2.89-3.3s-3.05,1.19-3.05,3.59v5.33h-1.26v-9.83h1.26V177a3.52,3.52,0,0,1,3.26-1.87,3.63,3.63,0,0,1,3.64,2.41,3.58,3.58,0,0,1,3.55-2.41c2.17,0,3.9,1.36,3.9,4.24v5.77h-1.24Z"/><path class="b28cc649-1ac5-480f-a4a9-a4c025896af5" d="M487.36,175.14a4.1,4.1,0,0,1,3.89,2.31v-2.16h1.26v9.83h-1.26v-2.18a4.16,4.16,0,0,1-3.91,2.32c-2.68,0-4.68-2-4.68-5.08S484.66,175.14,487.36,175.14Zm.23,1.1c-2.07,0-3.65,1.44-3.65,3.94s1.58,4,3.65,4a4,4,0,0,0,0-7.92Z"/><path class="b28cc649-1ac5-480f-a4a9-a4c025896af5" d="M498.72,185.26c-2.24,0-3.8-1.12-4-2.92h1.3c.11,1.08,1,1.86,2.65,1.86,1.4,0,2.19-.76,2.19-1.69,0-2.44-5.9-1-5.9-4.7,0-1.46,1.38-2.67,3.46-2.67s3.49,1.12,3.6,3h-1.26a2.11,2.11,0,0,0-2.38-1.93c-1.32,0-2.14.7-2.14,1.57,0,2.66,5.81,1.24,5.87,4.72C502.14,184.09,500.75,185.26,498.72,185.26Z"/><path class="b28cc649-1ac5-480f-a4a9-a4c025896af5" d="M105,205.14a4.27,4.27,0,0,1,3.87,2.27v-5.62h1.26v13.33h-1.26v-2.2a4.09,4.09,0,0,1-3.89,2.34c-2.7,0-4.7-2-4.7-5.08S102.3,205.14,105,205.14Zm.22,1.1a3.59,3.59,0,0,0-3.66,3.94c0,2.49,1.59,4,3.66,4a4,4,0,0,0,0-7.92Z"/><path class="b28cc649-1ac5-480f-a4a9-a4c025896af5" d="M117.26,215.26a4.68,4.68,0,0,1-4.83-5.06c0-3.13,2-5.06,4.83-5.06a4.42,4.42,0,0,1,4.64,4.56,7.87,7.87,0,0,1,0,1h-8.15a3.44,3.44,0,0,0,3.55,3.51,3,3,0,0,0,3.16-2.2h1.34A4.32,4.32,0,0,1,117.26,215.26Zm-3.55-5.6h6.91a3.21,3.21,0,0,0-3.42-3.44A3.39,3.39,0,0,0,113.71,209.66Z"/><path class="b28cc649-1ac5-480f-a4a9-a4c025896af5" d="M133.38,215.26c-2.79,0-4.82-1.94-4.82-5.06s2-5.06,4.82-5.06A4.42,4.42,0,0,1,138,209.7a7.87,7.87,0,0,1,0,1h-8.15a3.43,3.43,0,0,0,3.54,3.51,3,3,0,0,0,3.17-2.2h1.33A4.31,4.31,0,0,1,133.38,215.26Zm-3.54-5.6h6.91a3.21,3.21,0,0,0-3.42-3.44A3.39,3.39,0,0,0,129.84,209.66Z"/><path class="b28cc649-1ac5-480f-a4a9-a4c025896af5" d="M147.7,209.5c0-2.18-1.19-3.3-3-3.3s-3.11,1.16-3.11,3.55v5.37h-1.26v-9.83h1.26V207a3.6,3.6,0,0,1,3.35-1.85c2.23,0,4,1.36,4,4.24v5.77H147.7Z"/><path class="b28cc649-1ac5-480f-a4a9-a4c025896af5" d="M155.82,205.14a4.26,4.26,0,0,1,3.87,2.27v-5.62H161v13.33h-1.26v-2.2a4.08,4.08,0,0,1-3.89,2.34c-2.7,0-4.7-2-4.7-5.08S153.1,205.14,155.82,205.14Zm.22,1.1a3.59,3.59,0,0,0-3.66,3.94c0,2.49,1.59,4,3.66,4a4,4,0,0,0,0-7.92Z"/><path class="b28cc649-1ac5-480f-a4a9-a4c025896af5" d="M168.11,215.26a5.06,5.06,0,1,1,4.95-5.06A4.79,4.79,0,0,1,168.11,215.26Zm0-1.1a4,4,0,0,0,0-7.92c-1.87,0-3.62,1.26-3.62,4S166.24,214.16,168.11,214.16Z"/><path class="b28cc649-1ac5-480f-a4a9-a4c025896af5" d="M179.5,205.14a4.14,4.14,0,0,1,3.89,2.29v-2.14h1.26v10.08a4.35,4.35,0,0,1-4.6,4.57c-2.53,0-4.3-1.29-4.69-3.35h1.24a3.34,3.34,0,0,0,3.45,2.25,3.21,3.21,0,0,0,3.34-3.47v-2.43a4.15,4.15,0,0,1-3.89,2.32c-2.7,0-4.7-2-4.7-5.08S176.8,205.14,179.5,205.14Zm.23,1.1c-2.07,0-3.65,1.44-3.65,3.94s1.58,4,3.65,4a4,4,0,0,0,0-7.92Z"/><path class="b28cc649-1ac5-480f-a4a9-a4c025896af5" d="M191.75,215.26c-2.79,0-4.82-1.94-4.82-5.06s2-5.06,4.82-5.06a4.42,4.42,0,0,1,4.65,4.56,7.87,7.87,0,0,1,0,1H188.2a3.44,3.44,0,0,0,3.55,3.51,3,3,0,0,0,3.17-2.2h1.33A4.31,4.31,0,0,1,191.75,215.26Zm-3.55-5.6h6.92a3.22,3.22,0,0,0-3.42-3.44A3.4,3.4,0,0,0,188.2,209.66Z"/><path class="b28cc649-1ac5-480f-a4a9-a4c025896af5" d="M206.07,209.5c0-2.18-1.19-3.3-3-3.3s-3.11,1.16-3.11,3.55v5.37H198.7v-9.83H200V207a3.58,3.58,0,0,1,3.34-1.85c2.24,0,4,1.36,4,4.24v5.77h-1.24Z"/><path class="b28cc649-1ac5-480f-a4a9-a4c025896af5" d="M214.3,215.26a4.69,4.69,0,0,1-4.83-5.06c0-3.13,2-5.06,4.83-5.06a4.42,4.42,0,0,1,4.64,4.56c0,.39,0,.64,0,1h-8.16a3.44,3.44,0,0,0,3.55,3.51,3,3,0,0,0,3.17-2.2h1.33A4.32,4.32,0,0,1,214.3,215.26Zm-3.55-5.6h6.91a3.21,3.21,0,0,0-3.42-3.44A3.39,3.39,0,0,0,210.75,209.66Z"/><path class="b28cc649-1ac5-480f-a4a9-a4c025896af5" d="M220.91,202.49a.92.92,0,0,1,1.83,0,.92.92,0,1,1-1.83,0Zm.28,2.8h1.26v9.83h-1.26Z"/><path class="b28cc649-1ac5-480f-a4a9-a4c025896af5" d="M229.38,205.14a4.28,4.28,0,0,1,3.88,2.27v-5.62h1.26v13.33h-1.26v-2.2a4.1,4.1,0,0,1-3.89,2.34c-2.7,0-4.7-2-4.7-5.08S226.67,205.14,229.38,205.14Zm.22,1.1c-2.07,0-3.65,1.44-3.65,3.94s1.58,4,3.65,4a4,4,0,0,0,0-7.92Z"/><path class="b28cc649-1ac5-480f-a4a9-a4c025896af5" d="M241.49,205.14a4.09,4.09,0,0,1,3.89,2.31v-2.16h1.26v9.83h-1.26v-2.18a4.14,4.14,0,0,1-3.9,2.32c-2.69,0-4.68-2-4.68-5.08S238.79,205.14,241.49,205.14Zm.24,1.1a3.59,3.59,0,0,0-3.66,3.94c0,2.49,1.59,4,3.66,4a4,4,0,0,0,0-7.92Z"/><path class="b28cc649-1ac5-480f-a4a9-a4c025896af5" d="M253.64,205.14a4.27,4.27,0,0,1,3.87,2.27v-5.62h1.26v13.33h-1.26v-2.2a4.08,4.08,0,0,1-3.89,2.34c-2.7,0-4.7-2-4.7-5.08S250.92,205.14,253.64,205.14Zm.22,1.1a3.59,3.59,0,0,0-3.66,3.94c0,2.49,1.59,4,3.66,4a4,4,0,0,0,0-7.92Z"/><path class="b28cc649-1ac5-480f-a4a9-a4c025896af5" d="M270,215.26c-2.24,0-3.8-1.12-4-2.92h1.3c.11,1.08,1,1.86,2.65,1.86,1.4,0,2.19-.76,2.19-1.69,0-2.44-5.9-1-5.9-4.7,0-1.46,1.38-2.67,3.46-2.67s3.49,1.12,3.6,3H272a2.11,2.11,0,0,0-2.38-1.93c-1.32,0-2.14.7-2.14,1.57,0,2.66,5.81,1.24,5.87,4.72C273.39,214.09,272,215.26,270,215.26Z"/><path class="b28cc649-1ac5-480f-a4a9-a4c025896af5" d="M280,215.26a5.06,5.06,0,1,1,4.95-5.06A4.79,4.79,0,0,1,280,215.26Zm0-1.1a4,4,0,0,0,0-7.92c-1.87,0-3.62,1.26-3.62,4S278.11,214.16,280,214.16Z"/><path class="b28cc649-1ac5-480f-a4a9-a4c025896af5" d="M294.58,209.5c0-2.18-1.19-3.3-3-3.3s-3.12,1.16-3.12,3.55v5.37h-1.26v-9.83h1.26V207a3.6,3.6,0,0,1,3.35-1.85c2.23,0,4,1.36,4,4.24v5.77h-1.24Z"/><path class="b28cc649-1ac5-480f-a4a9-a4c025896af5" d="M317.91,209.5c0-2.18-1.14-3.3-2.88-3.3s-3,1.19-3,3.59v5.33h-1.24V209.5c0-2.18-1.15-3.3-2.9-3.3s-3,1.19-3,3.59v5.33h-1.26v-9.83h1.26V207a3.51,3.51,0,0,1,3.26-1.87,3.62,3.62,0,0,1,3.63,2.41,3.59,3.59,0,0,1,3.55-2.41c2.18,0,3.91,1.36,3.91,4.24v5.77h-1.24Z"/><path class="b28cc649-1ac5-480f-a4a9-a4c025896af5" d="M330.38,215.12h-1.26v-1.73a3.56,3.56,0,0,1-3.35,1.89c-2.23,0-4-1.37-4-4.25v-5.74H323v5.6c0,2.17,1.19,3.29,3,3.29s3.12-1.15,3.12-3.55v-5.34h1.26Z"/><path class="b28cc649-1ac5-480f-a4a9-a4c025896af5" d="M340,205.29h1.3l-5.83,14.45h-1.32l1.91-4.68-4-9.77h1.38l3.35,8.39Z"/><path class="b28cc649-1ac5-480f-a4a9-a4c025896af5" d="M352.16,205.14a4.26,4.26,0,0,1,4.52,3.35h-1.36a3,3,0,0,0-3.16-2.27c-1.93,0-3.5,1.32-3.5,4s1.57,4,3.5,4a3,3,0,0,0,3.16-2.29h1.36a4.32,4.32,0,0,1-4.52,3.35c-2.78,0-4.78-1.94-4.78-5.06S349.38,205.14,352.16,205.14Z"/><path class="b28cc649-1ac5-480f-a4a9-a4c025896af5" d="M363.15,215.26a5.06,5.06,0,1,1,5-5.06A4.79,4.79,0,0,1,363.15,215.26Zm0-1.1a4,4,0,0,0,0-7.92c-1.87,0-3.62,1.26-3.62,4S361.28,214.16,363.15,214.16Z"/><path class="b28cc649-1ac5-480f-a4a9-a4c025896af5" d="M384.75,209.5c0-2.18-1.13-3.3-2.88-3.3s-3,1.19-3,3.59v5.33h-1.24V209.5c0-2.18-1.16-3.3-2.9-3.3s-3.05,1.19-3.05,3.59v5.33h-1.26v-9.83h1.26V207a3.52,3.52,0,0,1,3.26-1.87,3.63,3.63,0,0,1,3.64,2.41,3.58,3.58,0,0,1,3.55-2.41c2.17,0,3.9,1.36,3.9,4.24v5.77h-1.24Z"/><path class="b28cc649-1ac5-480f-a4a9-a4c025896af5" d="M397.22,215.12H396v-1.73a3.55,3.55,0,0,1-3.35,1.89c-2.23,0-4-1.37-4-4.25v-5.74h1.24v5.6c0,2.17,1.19,3.29,3,3.29S396,213,396,210.63v-5.34h1.26Z"/><path class="b28cc649-1ac5-480f-a4a9-a4c025896af5" d="M407.41,209.5c0-2.18-1.19-3.3-3-3.3s-3.12,1.16-3.12,3.55v5.37H400v-9.83h1.26V207a3.6,3.6,0,0,1,3.35-1.85c2.23,0,4,1.36,4,4.24v5.77h-1.24Z"/><path class="b28cc649-1ac5-480f-a4a9-a4c025896af5" d="M415.63,215.26c-2.79,0-4.82-1.94-4.82-5.06s2-5.06,4.82-5.06a4.42,4.42,0,0,1,4.65,4.56,7.87,7.87,0,0,1,0,1h-8.15a3.44,3.44,0,0,0,3.54,3.51,3,3,0,0,0,3.17-2.2h1.34A4.32,4.32,0,0,1,415.63,215.26Zm-3.54-5.6H419a3.21,3.21,0,0,0-3.42-3.44A3.39,3.39,0,0,0,412.09,209.66Z"/><path class="b28cc649-1ac5-480f-a4a9-a4c025896af5" d="M425.88,215.26c-2.23,0-3.79-1.12-4-2.92h1.3c.11,1.08,1,1.86,2.65,1.86,1.4,0,2.19-.76,2.19-1.69,0-2.44-5.9-1-5.9-4.7,0-1.46,1.38-2.67,3.45-2.67s3.5,1.12,3.61,3H428a2.11,2.11,0,0,0-2.38-1.93c-1.32,0-2.14.7-2.14,1.57,0,2.66,5.81,1.24,5.86,4.72C429.3,214.09,427.92,215.26,425.88,215.26Z"/><path class="b28cc649-1ac5-480f-a4a9-a4c025896af5" d="M440.86,215.26A4.69,4.69,0,0,1,436,210.2c0-3.13,2-5.06,4.83-5.06a4.42,4.42,0,0,1,4.65,4.56,7.87,7.87,0,0,1,0,1h-8.16a3.44,3.44,0,0,0,3.55,3.51A3,3,0,0,0,444,212h1.33A4.31,4.31,0,0,1,440.86,215.26Zm-3.55-5.6h6.92a3.22,3.22,0,0,0-3.42-3.44A3.4,3.4,0,0,0,437.31,209.66Z"/><path class="b28cc649-1ac5-480f-a4a9-a4c025896af5" d="M455.18,209.5c0-2.18-1.19-3.3-3-3.3s-3.12,1.16-3.12,3.55v5.37h-1.26v-9.83h1.26V207a3.61,3.61,0,0,1,3.35-1.85c2.24,0,4,1.36,4,4.24v5.77h-1.24Z"/><path class="b28cc649-1ac5-480f-a4a9-a4c025896af5" d="M464.14,201.79h1.26v13.33h-1.26Z"/><path class="b28cc649-1ac5-480f-a4a9-a4c025896af5" d="M472.36,205.14a4.09,4.09,0,0,1,3.89,2.31v-2.16h1.26v9.83h-1.26v-2.18a4.14,4.14,0,0,1-3.9,2.32c-2.69,0-4.68-2-4.68-5.08S469.66,205.14,472.36,205.14Zm.24,1.1a3.59,3.59,0,0,0-3.66,3.94c0,2.49,1.59,4,3.66,4a4,4,0,0,0,0-7.92Z"/><path class="b28cc649-1ac5-480f-a4a9-a4c025896af5" d="M483.72,215.26c-2.23,0-3.8-1.12-4-2.92h1.3c.1,1.08,1,1.86,2.64,1.86,1.41,0,2.2-.76,2.2-1.69,0-2.44-5.91-1-5.91-4.7,0-1.46,1.39-2.67,3.46-2.67s3.49,1.12,3.6,3h-1.26a2.1,2.1,0,0,0-2.37-1.93c-1.32,0-2.15.7-2.15,1.57,0,2.66,5.82,1.24,5.87,4.72C487.14,214.09,485.76,215.26,483.72,215.26Z"/><path class="b28cc649-1ac5-480f-a4a9-a4c025896af5" d="M100.59,232.49a.92.92,0,0,1,1.84,0,.92.92,0,1,1-1.84,0Zm.29,2.8h1.26v9.83h-1.26Z"/><path class="b28cc649-1ac5-480f-a4a9-a4c025896af5" d="M112.31,239.5c0-2.18-1.19-3.3-3-3.3s-3.11,1.16-3.11,3.55v5.37H105v-9.83h1.26V237a3.6,3.6,0,0,1,3.35-1.85c2.23,0,4,1.36,4,4.24v5.77h-1.24Z"/><path class="b28cc649-1ac5-480f-a4a9-a4c025896af5" d="M116,235.29l3.32,8.6,3.31-8.6H124l-3.94,9.83h-1.42l-4-9.83Z"/><path class="b28cc649-1ac5-480f-a4a9-a4c025896af5" d="M129.54,245.26c-2.79,0-4.82-1.94-4.82-5.06s2-5.06,4.82-5.06a4.42,4.42,0,0,1,4.65,4.56,7.87,7.87,0,0,1,0,1H126a3.45,3.45,0,0,0,3.55,3.51,3,3,0,0,0,3.17-2.2H134A4.31,4.31,0,0,1,129.54,245.26Zm-3.55-5.6h6.92a3.21,3.21,0,0,0-3.42-3.44A3.4,3.4,0,0,0,126,239.66Z"/><path class="b28cc649-1ac5-480f-a4a9-a4c025896af5" d="M139.79,245.26c-2.23,0-3.8-1.12-4-2.92h1.3c.1,1.08,1,1.86,2.64,1.86,1.41,0,2.2-.76,2.2-1.69,0-2.44-5.91-1-5.91-4.7,0-1.46,1.39-2.67,3.46-2.67s3.49,1.12,3.6,3h-1.26a2.1,2.1,0,0,0-2.37-1.93c-1.32,0-2.15.7-2.15,1.57,0,2.66,5.82,1.24,5.87,4.72C143.21,244.09,141.83,245.26,139.79,245.26Z"/><path class="b28cc649-1ac5-480f-a4a9-a4c025896af5" d="M145.77,236.35H144.4v-1.06h1.37v-2.47h1.28v2.47h2.7v1.06h-2.7v6.1c0,1.21.42,1.59,1.55,1.59h1.15v1.08H148.4c-1.71,0-2.63-.71-2.63-2.67Z"/><path class="b28cc649-1ac5-480f-a4a9-a4c025896af5" d="M151.31,232.49a.92.92,0,0,1,1.83,0,.92.92,0,1,1-1.83,0Zm.28,2.8h1.27v9.83h-1.27Z"/><path class="b28cc649-1ac5-480f-a4a9-a4c025896af5" d="M159.77,235.14a4.14,4.14,0,0,1,3.89,2.29v-2.14h1.26v10.08a4.35,4.35,0,0,1-4.59,4.57c-2.54,0-4.31-1.29-4.7-3.35h1.24a3.36,3.36,0,0,0,3.46,2.25,3.2,3.2,0,0,0,3.33-3.47v-2.43a4.15,4.15,0,0,1-3.89,2.32c-2.7,0-4.7-2-4.7-5.08S157.07,235.14,159.77,235.14Zm.23,1.1c-2.07,0-3.65,1.44-3.65,3.94s1.58,4,3.65,4a4,4,0,0,0,0-7.92Z"/><path class="b28cc649-1ac5-480f-a4a9-a4c025896af5" d="M171.9,235.14a4.1,4.1,0,0,1,3.89,2.31v-2.16h1.26v9.83h-1.26v-2.18a4.16,4.16,0,0,1-3.91,2.32c-2.68,0-4.68-2-4.68-5.08S169.2,235.14,171.9,235.14Zm.23,1.1a3.59,3.59,0,0,0-3.66,3.94c0,2.49,1.59,4,3.66,4a4,4,0,0,0,0-7.92Z"/><path class="b28cc649-1ac5-480f-a4a9-a4c025896af5" d="M184.1,235.14a4.25,4.25,0,0,1,4.52,3.35h-1.36a3,3,0,0,0-3.16-2.27c-1.93,0-3.5,1.32-3.5,4s1.57,4,3.5,4a3,3,0,0,0,3.16-2.29h1.36a4.32,4.32,0,0,1-4.52,3.35c-2.78,0-4.78-1.94-4.78-5.06S181.32,235.14,184.1,235.14Z"/><path class="b28cc649-1ac5-480f-a4a9-a4c025896af5" d="M190.53,232.49a.92.92,0,0,1,1.84,0,.92.92,0,1,1-1.84,0Zm.29,2.8h1.26v9.83h-1.26Z"/><path class="b28cc649-1ac5-480f-a4a9-a4c025896af5" d="M199.18,245.26a5.06,5.06,0,1,1,4.95-5.06A4.79,4.79,0,0,1,199.18,245.26Zm0-1.1a4,4,0,0,0,0-7.92c-1.87,0-3.62,1.26-3.62,4S197.3,244.16,199.18,244.16Z"/><path class="b28cc649-1ac5-480f-a4a9-a4c025896af5" d="M213.77,239.5c0-2.18-1.19-3.3-3-3.3s-3.11,1.16-3.11,3.55v5.37h-1.26v-9.83h1.26V237a3.59,3.59,0,0,1,3.34-1.85c2.24,0,4,1.36,4,4.24v5.77h-1.24Z"/><path class="b28cc649-1ac5-480f-a4a9-a4c025896af5" d="M222,245.26a4.69,4.69,0,0,1-4.83-5.06c0-3.13,2-5.06,4.83-5.06a4.42,4.42,0,0,1,4.64,4.56c0,.39,0,.64,0,1h-8.16A3.44,3.44,0,0,0,222,244.2a3,3,0,0,0,3.17-2.2h1.33A4.32,4.32,0,0,1,222,245.26Zm-3.55-5.6h6.91a3.21,3.21,0,0,0-3.42-3.44A3.39,3.39,0,0,0,218.45,239.66Z"/><path class="b28cc649-1ac5-480f-a4a9-a4c025896af5" d="M232.25,245.26c-2.24,0-3.8-1.12-4-2.92h1.29c.11,1.08,1,1.86,2.65,1.86,1.4,0,2.2-.76,2.2-1.69,0-2.44-5.91-1-5.91-4.7,0-1.46,1.39-2.67,3.46-2.67s3.49,1.12,3.6,3h-1.26a2.11,2.11,0,0,0-2.38-1.93c-1.31,0-2.14.7-2.14,1.57,0,2.66,5.81,1.24,5.87,4.72C235.67,244.09,234.28,245.26,232.25,245.26Z"/><path class="b28cc649-1ac5-480f-a4a9-a4c025896af5" d="M247.22,245.26c-2.79,0-4.82-1.94-4.82-5.06s2-5.06,4.82-5.06a4.42,4.42,0,0,1,4.65,4.56,7.87,7.87,0,0,1,0,1h-8.15a3.43,3.43,0,0,0,3.54,3.51,3,3,0,0,0,3.17-2.2h1.33A4.31,4.31,0,0,1,247.22,245.26Zm-3.54-5.6h6.91a3.21,3.21,0,0,0-3.42-3.44A3.39,3.39,0,0,0,243.68,239.66Z"/><path class="b28cc649-1ac5-480f-a4a9-a4c025896af5" d="M261.54,239.5c0-2.18-1.19-3.3-3-3.3s-3.11,1.16-3.11,3.55v5.37h-1.26v-9.83h1.26V237a3.6,3.6,0,0,1,3.35-1.85c2.23,0,4,1.36,4,4.24v5.77h-1.24Z"/><path class="b28cc649-1ac5-480f-a4a9-a4c025896af5" d="M274.7,235.14a4.25,4.25,0,0,1,4.52,3.35h-1.35a3,3,0,0,0-3.17-2.27c-1.93,0-3.5,1.32-3.5,4s1.57,4,3.5,4a3,3,0,0,0,3.17-2.29h1.35a4.32,4.32,0,0,1-4.52,3.35c-2.77,0-4.77-1.94-4.77-5.06S271.93,235.14,274.7,235.14Z"/><path class="b28cc649-1ac5-480f-a4a9-a4c025896af5" d="M281.13,232.49a.92.92,0,0,1,1.84,0,.92.92,0,1,1-1.84,0Zm.29,2.8h1.26v9.83h-1.26Z"/><path class="b28cc649-1ac5-480f-a4a9-a4c025896af5" d="M289.72,245.26c-2.79,0-4.82-1.94-4.82-5.06s2-5.06,4.82-5.06a4.42,4.42,0,0,1,4.65,4.56,7.87,7.87,0,0,1,0,1h-8.15a3.43,3.43,0,0,0,3.54,3.51,3,3,0,0,0,3.17-2.2h1.33A4.31,4.31,0,0,1,289.72,245.26Zm-3.54-5.6h6.91a3.21,3.21,0,0,0-3.42-3.44A3.39,3.39,0,0,0,286.18,239.66Z"/><path class="b28cc649-1ac5-480f-a4a9-a4c025896af5" d="M304,239.5c0-2.18-1.19-3.3-3-3.3s-3.11,1.16-3.11,3.55v5.37h-1.26v-9.83h1.26V237a3.6,3.6,0,0,1,3.35-1.85c2.23,0,4,1.36,4,4.24v5.77H304Z"/><path class="b28cc649-1ac5-480f-a4a9-a4c025896af5" d="M312.21,235.14a4.25,4.25,0,0,1,4.52,3.35h-1.35a3,3,0,0,0-3.17-2.27c-1.92,0-3.49,1.32-3.49,4s1.57,4,3.49,4a3,3,0,0,0,3.17-2.29h1.35a4.31,4.31,0,0,1-4.52,3.35c-2.77,0-4.77-1.94-4.77-5.06S309.44,235.14,312.21,235.14Z"/><path class="b28cc649-1ac5-480f-a4a9-a4c025896af5" d="M318.65,232.49a.92.92,0,0,1,1.84,0,.92.92,0,1,1-1.84,0Zm.29,2.8h1.26v9.83h-1.26Z"/><path class="b28cc649-1ac5-480f-a4a9-a4c025896af5" d="M327.11,235.14a4.1,4.1,0,0,1,3.89,2.31v-2.16h1.26v9.83H331v-2.18a4.14,4.14,0,0,1-3.9,2.32c-2.69,0-4.69-2-4.69-5.08S324.41,235.14,327.11,235.14Zm.24,1.1a3.59,3.59,0,0,0-3.66,3.94c0,2.49,1.59,4,3.66,4a4,4,0,0,0,0-7.92Z"/><path class="b28cc649-1ac5-480f-a4a9-a4c025896af5" d="M338.47,245.26c-2.23,0-3.8-1.12-4-2.92h1.29c.11,1.08,1.05,1.86,2.65,1.86,1.41,0,2.2-.76,2.2-1.69,0-2.44-5.91-1-5.91-4.7,0-1.46,1.39-2.67,3.46-2.67s3.49,1.12,3.6,3h-1.26a2.1,2.1,0,0,0-2.38-1.93c-1.31,0-2.14.7-2.14,1.57,0,2.66,5.82,1.24,5.87,4.72C341.89,244.09,340.51,245.26,338.47,245.26Z"/><path class="b28cc649-1ac5-480f-a4a9-a4c025896af5" d="M352.58,245.26c-2.23,0-3.8-1.12-4-2.92h1.3c.1,1.08,1,1.86,2.64,1.86,1.41,0,2.2-.76,2.2-1.69,0-2.44-5.91-1-5.91-4.7,0-1.46,1.39-2.67,3.46-2.67s3.49,1.12,3.6,3h-1.26a2.1,2.1,0,0,0-2.37-1.93c-1.32,0-2.15.7-2.15,1.57,0,2.66,5.82,1.24,5.87,4.72C356,244.09,354.62,245.26,352.58,245.26Z"/><path class="b28cc649-1ac5-480f-a4a9-a4c025896af5" d="M362.6,245.26a5.06,5.06,0,1,1,4.95-5.06A4.79,4.79,0,0,1,362.6,245.26Zm0-1.1a3.61,3.61,0,0,0,3.65-4c0-2.7-1.76-4-3.63-4s-3.62,1.26-3.62,4S360.73,244.16,362.6,244.16Z"/><path class="b28cc649-1ac5-480f-a4a9-a4c025896af5" d="M374.06,235.14a4.25,4.25,0,0,1,4.52,3.35h-1.36a3,3,0,0,0-3.16-2.27c-1.93,0-3.5,1.32-3.5,4s1.57,4,3.5,4a3,3,0,0,0,3.16-2.29h1.36a4.32,4.32,0,0,1-4.52,3.35c-2.78,0-4.78-1.94-4.78-5.06S371.28,235.14,374.06,235.14Z"/><path class="b28cc649-1ac5-480f-a4a9-a4c025896af5" d="M380.49,232.49a.92.92,0,0,1,1.84,0,.92.92,0,1,1-1.84,0Zm.29,2.8H382v9.83h-1.26Z"/><path class="b28cc649-1ac5-480f-a4a9-a4c025896af5" d="M389,235.14a4.09,4.09,0,0,1,3.89,2.31v-2.16h1.26v9.83h-1.26v-2.18a4.14,4.14,0,0,1-3.9,2.32c-2.69,0-4.68-2-4.68-5.08S386.25,235.14,389,235.14Zm.24,1.1a3.59,3.59,0,0,0-3.66,3.94c0,2.49,1.59,4,3.66,4a4,4,0,0,0,0-7.92Z"/><path class="b28cc649-1ac5-480f-a4a9-a4c025896af5" d="M396.93,231.79h1.26v13.33h-1.26Z"/><path class="b28cc649-1ac5-480f-a4a9-a4c025896af5" d="M405.28,245.26c-2.79,0-4.82-1.94-4.82-5.06s2-5.06,4.82-5.06a4.42,4.42,0,0,1,4.65,4.56,7.87,7.87,0,0,1,0,1h-8.16a3.45,3.45,0,0,0,3.55,3.51,3,3,0,0,0,3.17-2.2h1.33A4.31,4.31,0,0,1,405.28,245.26Zm-3.55-5.6h6.92a3.21,3.21,0,0,0-3.42-3.44A3.4,3.4,0,0,0,401.73,239.66Z"/><path class="b28cc649-1ac5-480f-a4a9-a4c025896af5" d="M415.53,245.26c-2.23,0-3.8-1.12-4-2.92h1.3c.1,1.08,1,1.86,2.64,1.86,1.41,0,2.2-.76,2.2-1.69,0-2.44-5.91-1-5.91-4.7,0-1.46,1.39-2.67,3.46-2.67s3.49,1.12,3.6,3H417.6a2.1,2.1,0,0,0-2.38-1.93c-1.31,0-2.14.7-2.14,1.57,0,2.66,5.82,1.24,5.87,4.72C419,244.09,417.57,245.26,415.53,245.26Z"/><path class="b28cc649-1ac5-480f-a4a9-a4c025896af5" d="M433.06,235.29h1.3l-5.83,14.45h-1.32l1.91-4.68-4-9.77h1.38l3.35,8.39Z"/><path class="b28cc649-1ac5-480f-a4a9-a4c025896af5" d="M434.88,243h1.4l-1.85,4.72h-.88Z"/><path class="b28cc649-1ac5-480f-a4a9-a4c025896af5" d="M106,265.14c2.68,0,4.68,2,4.68,5s-2,5.08-4.68,5.08a4.2,4.2,0,0,1-3.91-2.3v6.8h-1.24V265.29h1.24v2.16A4.16,4.16,0,0,1,106,265.14Zm-.25,1.1a4,4,0,0,0,0,7.92c2.07,0,3.65-1.49,3.65-4S107.85,266.24,105.78,266.24Z"/><path class="b28cc649-1ac5-480f-a4a9-a4c025896af5" d="M117.15,265.14a4.1,4.1,0,0,1,3.89,2.31v-2.16h1.26v9.83H121v-2.18a4.16,4.16,0,0,1-3.91,2.32c-2.68,0-4.68-2-4.68-5.08S114.45,265.14,117.15,265.14Zm.23,1.1c-2.07,0-3.65,1.44-3.65,3.94s1.58,4,3.65,4a4,4,0,0,0,0-7.92Z"/><path class="b28cc649-1ac5-480f-a4a9-a4c025896af5" d="M126.39,275.12h-1.26v-9.83h1.26V267a3.39,3.39,0,0,1,3.37-1.92v1.31h-.35c-1.64,0-3,.74-3,3.2Z"/><path class="b28cc649-1ac5-480f-a4a9-a4c025896af5" d="M132.38,266.35H131v-1.06h1.37v-2.47h1.28v2.47h2.7v1.06h-2.7v6.1c0,1.21.41,1.59,1.54,1.59h1.16v1.08H135c-1.71,0-2.63-.71-2.63-2.67Z"/><path class="b28cc649-1ac5-480f-a4a9-a4c025896af5" d="M137.91,262.49a.92.92,0,0,1,1.84,0,.92.92,0,1,1-1.84,0Zm.29,2.8h1.26v9.83H138.2Z"/><path class="b28cc649-1ac5-480f-a4a9-a4c025896af5" d="M146.44,265.14a4.25,4.25,0,0,1,4.52,3.35h-1.35a3,3,0,0,0-3.17-2.27c-1.92,0-3.49,1.32-3.49,4s1.57,4,3.49,4a3,3,0,0,0,3.17-2.29H151a4.31,4.31,0,0,1-4.52,3.35c-2.77,0-4.77-1.94-4.77-5.06S143.67,265.14,146.44,265.14Z"/><path class="b28cc649-1ac5-480f-a4a9-a4c025896af5" d="M161.63,275.12h-1.26v-1.73a3.56,3.56,0,0,1-3.35,1.89c-2.23,0-4-1.37-4-4.25v-5.74h1.24v5.6c0,2.17,1.19,3.29,3,3.29s3.12-1.15,3.12-3.55v-5.34h1.26Z"/><path class="b28cc649-1ac5-480f-a4a9-a4c025896af5" d="M164.45,261.79h1.26v13.33h-1.26Z"/><path class="b28cc649-1ac5-480f-a4a9-a4c025896af5" d="M172.67,265.14a4.1,4.1,0,0,1,3.89,2.31v-2.16h1.26v9.83h-1.26v-2.18a4.15,4.15,0,0,1-3.91,2.32c-2.68,0-4.68-2-4.68-5.08S170,265.14,172.67,265.14Zm.24,1.1a3.59,3.59,0,0,0-3.66,3.94c0,2.49,1.59,4,3.66,4a4,4,0,0,0,0-7.92Z"/><path class="b28cc649-1ac5-480f-a4a9-a4c025896af5" d="M181.91,275.12h-1.26v-9.83h1.26V267a3.39,3.39,0,0,1,3.37-1.92v1.31h-.35c-1.63,0-3,.74-3,3.2Z"/><path class="b28cc649-1ac5-480f-a4a9-a4c025896af5" d="M201.4,269.5c0-2.18-1.14-3.3-2.89-3.3s-3,1.19-3,3.59v5.33h-1.24V269.5c0-2.18-1.15-3.3-2.9-3.3s-3,1.19-3,3.59v5.33H187v-9.83h1.26V267a3.51,3.51,0,0,1,3.26-1.87,3.62,3.62,0,0,1,3.63,2.41,3.58,3.58,0,0,1,3.55-2.41c2.18,0,3.91,1.36,3.91,4.24v5.77H201.4Z"/><path class="b28cc649-1ac5-480f-a4a9-a4c025896af5" d="M209.65,275.26a4.69,4.69,0,0,1-4.83-5.06c0-3.13,2-5.06,4.83-5.06a4.42,4.42,0,0,1,4.64,4.56c0,.39,0,.64,0,1H206.1a3.44,3.44,0,0,0,3.55,3.51,3,3,0,0,0,3.17-2.2h1.33A4.31,4.31,0,0,1,209.65,275.26Zm-3.55-5.6H213a3.22,3.22,0,0,0-3.43-3.44A3.4,3.4,0,0,0,206.1,269.66Z"/><path class="b28cc649-1ac5-480f-a4a9-a4c025896af5" d="M224,269.5c0-2.18-1.19-3.3-3-3.3s-3.12,1.16-3.12,3.55v5.37H216.6v-9.83h1.26V267a3.6,3.6,0,0,1,3.35-1.85c2.23,0,4,1.36,4,4.24v5.77H224Z"/><path class="b28cc649-1ac5-480f-a4a9-a4c025896af5" d="M228.09,266.35h-1.37v-1.06h1.37v-2.47h1.28v2.47h2.7v1.06h-2.7v6.1c0,1.21.41,1.59,1.54,1.59h1.16v1.08h-1.35c-1.71,0-2.63-.71-2.63-2.67Z"/><path class="b28cc649-1ac5-480f-a4a9-a4c025896af5" d="M237.86,275.26A4.69,4.69,0,0,1,233,270.2c0-3.13,2-5.06,4.83-5.06a4.42,4.42,0,0,1,4.64,4.56c0,.39,0,.64,0,1h-8.16a3.44,3.44,0,0,0,3.55,3.51A3,3,0,0,0,241,272h1.33A4.32,4.32,0,0,1,237.86,275.26Zm-3.55-5.6h6.91a3.21,3.21,0,0,0-3.42-3.44A3.4,3.4,0,0,0,234.31,269.66Z"/><path class="b28cc649-1ac5-480f-a4a9-a4c025896af5" d="M244.55,273H246l-1.85,4.72h-.89Z"/><path class="b28cc649-1ac5-480f-a4a9-a4c025896af5" d="M257.09,275.26c-2.79,0-4.82-1.94-4.82-5.06s2-5.06,4.82-5.06a4.42,4.42,0,0,1,4.65,4.56,7.87,7.87,0,0,1,0,1h-8.15a3.43,3.43,0,0,0,3.54,3.51,3,3,0,0,0,3.17-2.2h1.33A4.31,4.31,0,0,1,257.09,275.26Zm-3.54-5.6h6.91a3.21,3.21,0,0,0-3.42-3.44A3.39,3.39,0,0,0,253.55,269.66Z"/><path class="b28cc649-1ac5-480f-a4a9-a4c025896af5" d="M271.41,269.5c0-2.18-1.19-3.3-3-3.3s-3.11,1.16-3.11,3.55v5.37h-1.26v-9.83h1.26V267a3.6,3.6,0,0,1,3.35-1.85c2.23,0,4,1.36,4,4.24v5.77h-1.24Z"/><path class="b28cc649-1ac5-480f-a4a9-a4c025896af5" d="M284.62,275.26c-2.79,0-4.82-1.94-4.82-5.06s2-5.06,4.82-5.06a4.42,4.42,0,0,1,4.65,4.56,7.87,7.87,0,0,1,0,1h-8.16a3.45,3.45,0,0,0,3.55,3.51,3,3,0,0,0,3.17-2.2h1.33A4.31,4.31,0,0,1,284.62,275.26Zm-3.55-5.6H288a3.21,3.21,0,0,0-3.42-3.44A3.4,3.4,0,0,0,281.07,269.66Z"/><path class="b28cc649-1ac5-480f-a4a9-a4c025896af5" d="M295.72,265.14a4.27,4.27,0,0,1,3.87,2.27v-5.62h1.26v13.33h-1.26v-2.2a4.09,4.09,0,0,1-3.89,2.34c-2.7,0-4.7-2-4.7-5.08S293,265.14,295.72,265.14Zm.22,1.1a3.59,3.59,0,0,0-3.66,3.94c0,2.49,1.59,4,3.66,4a4,4,0,0,0,0-7.92Z"/><path class="b28cc649-1ac5-480f-a4a9-a4c025896af5" d="M312.21,275.12H311v-1.73a3.57,3.57,0,0,1-3.35,1.89c-2.24,0-4-1.37-4-4.25v-5.74h1.24v5.6c0,2.17,1.19,3.29,3,3.29S311,273,311,270.63v-5.34h1.26Z"/><path class="b28cc649-1ac5-480f-a4a9-a4c025896af5" d="M319.25,265.14a4.25,4.25,0,0,1,4.52,3.35h-1.35a3,3,0,0,0-3.17-2.27c-1.93,0-3.49,1.32-3.49,4s1.56,4,3.49,4a3,3,0,0,0,3.17-2.29h1.35a4.31,4.31,0,0,1-4.52,3.35c-2.77,0-4.77-1.94-4.77-5.06S316.48,265.14,319.25,265.14Z"/><path class="b28cc649-1ac5-480f-a4a9-a4c025896af5" d="M330.06,265.14a4.1,4.1,0,0,1,3.89,2.31v-2.16h1.26v9.83H334v-2.18a4.14,4.14,0,0,1-3.9,2.32c-2.69,0-4.69-2-4.69-5.08S327.36,265.14,330.06,265.14Zm.24,1.1a3.59,3.59,0,0,0-3.66,3.94c0,2.49,1.59,4,3.66,4a4,4,0,0,0,0-7.92Z"/><path class="b28cc649-1ac5-480f-a4a9-a4c025896af5" d="M342.26,265.14a4.25,4.25,0,0,1,4.52,3.35h-1.35a3,3,0,0,0-3.17-2.27c-1.92,0-3.49,1.32-3.49,4s1.57,4,3.49,4a3,3,0,0,0,3.17-2.29h1.35a4.31,4.31,0,0,1-4.52,3.35c-2.77,0-4.77-1.94-4.77-5.06S339.49,265.14,342.26,265.14Z"/><path class="b28cc649-1ac5-480f-a4a9-a4c025896af5" d="M348.7,262.49a.92.92,0,0,1,1.84,0,.92.92,0,1,1-1.84,0Zm.29,2.8h1.26v9.83H349Z"/><path class="b28cc649-1ac5-480f-a4a9-a4c025896af5" d="M357.34,275.26a5.06,5.06,0,1,1,5-5.06A4.79,4.79,0,0,1,357.34,275.26Zm0-1.1a4,4,0,0,0,0-7.92c-1.87,0-3.62,1.26-3.62,4S355.47,274.16,357.34,274.16Zm1.73-13v1.14l-3.69,2.14v-1Z"/><path class="b28cc649-1ac5-480f-a4a9-a4c025896af5" d="M371.94,269.5c0-2.18-1.19-3.3-3-3.3s-3.12,1.16-3.12,3.55v5.37h-1.26v-9.83h1.26V267a3.6,3.6,0,0,1,3.35-1.85c2.24,0,4,1.36,4,4.24v5.77h-1.24Z"/><path class="b28cc649-1ac5-480f-a4a9-a4c025896af5" d="M376.41,275.21a.92.92,0,0,1-.92-.94.91.91,0,1,1,1.82,0A.92.92,0,0,1,376.41,275.21Z"/><path class="b28cc649-1ac5-480f-a4a9-a4c025896af5" d="M111.27,328.85c0,3.91-2.47,6.27-6.66,6.27h-3.73V322.53h3.73C108.8,322.53,111.27,324.91,111.27,328.85Zm-6.66,5.22c3.56,0,5.38-2,5.38-5.22s-1.82-5.28-5.38-5.28h-2.47v10.5Z"/><path class="b28cc649-1ac5-480f-a4a9-a4c025896af5" d="M117.86,335.26A4.69,4.69,0,0,1,113,330.2c0-3.13,2-5.06,4.83-5.06a4.42,4.42,0,0,1,4.64,4.56c0,.39,0,.64,0,1h-8.16a3.44,3.44,0,0,0,3.55,3.51A3,3,0,0,0,121,332h1.33A4.32,4.32,0,0,1,117.86,335.26Zm-3.55-5.6h6.91a3.21,3.21,0,0,0-3.42-3.44A3.39,3.39,0,0,0,114.31,329.66Z"/><path class="b28cc649-1ac5-480f-a4a9-a4c025896af5" d="M132.18,329.5c0-2.18-1.19-3.3-3-3.3s-3.12,1.16-3.12,3.55v5.37h-1.26v-9.83h1.26V327a3.6,3.6,0,0,1,3.35-1.85c2.23,0,4,1.36,4,4.24v5.77h-1.24Z"/><path class="b28cc649-1ac5-480f-a4a9-a4c025896af5" d="M136.3,326.35h-1.37v-1.06h1.37v-2.47h1.27v2.47h2.7v1.06h-2.7v6.1c0,1.21.42,1.59,1.55,1.59h1.15v1.08h-1.35c-1.71,0-2.62-.71-2.62-2.67Z"/><path class="b28cc649-1ac5-480f-a4a9-a4c025896af5" d="M143.38,335.12h-1.26v-9.83h1.26V327a3.38,3.38,0,0,1,3.36-1.92v1.31h-.34c-1.64,0-3,.74-3,3.2Z"/><path class="b28cc649-1ac5-480f-a4a9-a4c025896af5" d="M152.47,335.26a5.06,5.06,0,1,1,4.95-5.06A4.79,4.79,0,0,1,152.47,335.26Zm0-1.1a4,4,0,0,0,0-7.92c-1.87,0-3.62,1.26-3.62,4S150.6,334.16,152.47,334.16Z"/><path class="b28cc649-1ac5-480f-a4a9-a4c025896af5" d="M168.8,325.14a4.27,4.27,0,0,1,3.87,2.27v-5.62h1.26v13.33h-1.26v-2.2a4.1,4.1,0,0,1-3.89,2.34c-2.7,0-4.7-2-4.7-5.08S166.08,325.14,168.8,325.14Zm.21,1.1c-2.07,0-3.65,1.44-3.65,3.94s1.58,4,3.65,4a4,4,0,0,0,0-7.92Z"/><path class="b28cc649-1ac5-480f-a4a9-a4c025896af5" d="M181,335.26c-2.79,0-4.82-1.94-4.82-5.06s2-5.06,4.82-5.06a4.42,4.42,0,0,1,4.65,4.56,7.87,7.87,0,0,1,0,1h-8.15A3.43,3.43,0,0,0,181,334.2a3,3,0,0,0,3.17-2.2h1.34A4.32,4.32,0,0,1,181,335.26Zm-3.54-5.6h6.91a3.21,3.21,0,0,0-3.42-3.44A3.39,3.39,0,0,0,177.49,329.66Z"/><path class="b28cc649-1ac5-480f-a4a9-a4c025896af5" d="M192.91,321.79h1.26v13.33h-1.26Z"/><path class="b28cc649-1ac5-480f-a4a9-a4c025896af5" d="M201.32,335.26a5.06,5.06,0,1,1,5-5.06A4.79,4.79,0,0,1,201.32,335.26Zm0-1.1a3.61,3.61,0,0,0,3.65-4c0-2.7-1.76-4-3.63-4s-3.62,1.26-3.62,4S199.45,334.16,201.32,334.16Z"/><path class="b28cc649-1ac5-480f-a4a9-a4c025896af5" d="M211.82,335.26c-2.23,0-3.8-1.12-4-2.92h1.3c.11,1.08,1,1.86,2.65,1.86,1.4,0,2.19-.76,2.19-1.69,0-2.44-5.9-1-5.9-4.7,0-1.46,1.38-2.67,3.45-2.67s3.5,1.12,3.6,3h-1.26a2.1,2.1,0,0,0-2.37-1.93c-1.32,0-2.14.7-2.14,1.57,0,2.66,5.81,1.24,5.86,4.72C215.24,334.09,213.86,335.26,211.82,335.26Z"/><path class="b28cc649-1ac5-480f-a4a9-a4c025896af5" d="M236.92,329.5c0-2.18-1.14-3.3-2.88-3.3s-3,1.19-3,3.59v5.33h-1.24V329.5c0-2.18-1.15-3.3-2.9-3.3s-3,1.19-3,3.59v5.33h-1.26v-9.83h1.26V327a3.51,3.51,0,0,1,3.26-1.87,3.64,3.64,0,0,1,3.64,2.41,3.58,3.58,0,0,1,3.54-2.41c2.18,0,3.91,1.36,3.91,4.24v5.77h-1.24Z"/><path class="b28cc649-1ac5-480f-a4a9-a4c025896af5" d="M245.23,335.26a5.06,5.06,0,1,1,5-5.06A4.79,4.79,0,0,1,245.23,335.26Zm0-1.1a3.61,3.61,0,0,0,3.65-4c0-2.7-1.76-4-3.64-4s-3.62,1.26-3.62,4S243.35,334.16,245.23,334.16Z"/><path class="b28cc649-1ac5-480f-a4a9-a4c025896af5" d="M256.63,325.14a4.27,4.27,0,0,1,3.87,2.27v-5.62h1.26v13.33H260.5v-2.2a4.1,4.1,0,0,1-3.89,2.34c-2.7,0-4.7-2-4.7-5.08S253.91,325.14,256.63,325.14Zm.21,1.1c-2.07,0-3.65,1.44-3.65,3.94s1.58,4,3.65,4a4,4,0,0,0,0-7.92Z"/><path class="b28cc649-1ac5-480f-a4a9-a4c025896af5" d="M268.86,335.26c-2.79,0-4.82-1.94-4.82-5.06s2-5.06,4.82-5.06a4.42,4.42,0,0,1,4.65,4.56,7.87,7.87,0,0,1,0,1h-8.15a3.44,3.44,0,0,0,3.54,3.51A3,3,0,0,0,272,332h1.34A4.32,4.32,0,0,1,268.86,335.26Zm-3.54-5.6h6.91a3.21,3.21,0,0,0-3.42-3.44A3.39,3.39,0,0,0,265.32,329.66Z"/><path class="b28cc649-1ac5-480f-a4a9-a4c025896af5" d="M275.81,321.79h1.26v13.33h-1.26Z"/><path class="b28cc649-1ac5-480f-a4a9-a4c025896af5" d="M284.22,335.26a5.06,5.06,0,1,1,4.95-5.06A4.79,4.79,0,0,1,284.22,335.26Zm0-1.1a3.61,3.61,0,0,0,3.65-4c0-2.7-1.76-4-3.64-4s-3.61,1.26-3.61,4S282.34,334.16,284.22,334.16Z"/><path class="b28cc649-1ac5-480f-a4a9-a4c025896af5" d="M294.72,335.26c-2.23,0-3.8-1.12-4-2.92h1.3c.11,1.08,1,1.86,2.64,1.86,1.41,0,2.2-.76,2.2-1.69,0-2.44-5.9-1-5.9-4.7,0-1.46,1.38-2.67,3.45-2.67s3.5,1.12,3.6,3h-1.26a2.1,2.1,0,0,0-2.37-1.93c-1.32,0-2.15.7-2.15,1.57,0,2.66,5.82,1.24,5.87,4.72C298.14,334.09,296.76,335.26,294.72,335.26Z"/><path class="b28cc649-1ac5-480f-a4a9-a4c025896af5" d="M309.64,325.14a4.25,4.25,0,0,1,4.52,3.35h-1.35a3,3,0,0,0-3.17-2.27c-1.92,0-3.49,1.32-3.49,4s1.57,4,3.49,4a3,3,0,0,0,3.17-2.29h1.35a4.31,4.31,0,0,1-4.52,3.35c-2.77,0-4.77-1.94-4.77-5.06S306.87,325.14,309.64,325.14Z"/><path class="b28cc649-1ac5-480f-a4a9-a4c025896af5" d="M324.83,335.12h-1.26v-1.73a3.56,3.56,0,0,1-3.35,1.89c-2.23,0-4-1.37-4-4.25v-5.74h1.24v5.6c0,2.17,1.19,3.29,3,3.29s3.12-1.15,3.12-3.55v-5.34h1.26Z"/><path class="b28cc649-1ac5-480f-a4a9-a4c025896af5" d="M331.8,325.14a4.1,4.1,0,0,1,3.89,2.31v-2.16H337v9.83h-1.26v-2.18a4.16,4.16,0,0,1-3.91,2.32c-2.68,0-4.68-2-4.68-5.08S329.1,325.14,331.8,325.14Zm.23,1.1c-2.07,0-3.65,1.44-3.65,3.94s1.58,4,3.65,4a4,4,0,0,0,0-7.92Z"/><path class="b28cc649-1ac5-480f-a4a9-a4c025896af5" d="M347.14,329.5c0-2.18-1.19-3.3-3-3.3s-3.11,1.16-3.11,3.55v5.37h-1.26v-9.83H341V327a3.59,3.59,0,0,1,3.34-1.85c2.24,0,4,1.36,4,4.24v5.77h-1.24Z"/><path class="b28cc649-1ac5-480f-a4a9-a4c025896af5" d="M351.26,326.35h-1.37v-1.06h1.37v-2.47h1.28v2.47h2.7v1.06h-2.7v6.1c0,1.21.41,1.59,1.55,1.59h1.15v1.08h-1.35c-1.71,0-2.63-.71-2.63-2.67Z"/><path class="b28cc649-1ac5-480f-a4a9-a4c025896af5" d="M356.79,322.49a.92.92,0,0,1,1.84,0,.92.92,0,1,1-1.84,0Zm.29,2.8h1.26v9.83h-1.26Z"/><path class="b28cc649-1ac5-480f-a4a9-a4c025896af5" d="M361.44,326.35h-1.37v-1.06h1.37v-2.47h1.27v2.47h2.7v1.06h-2.7v6.1c0,1.21.42,1.59,1.55,1.59h1.15v1.08h-1.35c-1.71,0-2.62-.71-2.62-2.67Z"/><path class="b28cc649-1ac5-480f-a4a9-a4c025896af5" d="M371.08,325.14a4.1,4.1,0,0,1,3.89,2.31v-2.16h1.26v9.83H375v-2.18a4.16,4.16,0,0,1-3.91,2.32c-2.68,0-4.68-2-4.68-5.08S368.38,325.14,371.08,325.14Zm.23,1.1c-2.07,0-3.65,1.44-3.65,3.94s1.58,4,3.65,4a4,4,0,0,0,0-7.92Z"/><path class="b28cc649-1ac5-480f-a4a9-a4c025896af5" d="M379.36,326.35H378v-1.06h1.37v-2.47h1.28v2.47h2.7v1.06h-2.7v6.1c0,1.21.41,1.59,1.55,1.59h1.15v1.08H382c-1.71,0-2.63-.71-2.63-2.67Z"/><path class="b28cc649-1ac5-480f-a4a9-a4c025896af5" d="M384.89,322.49a.92.92,0,0,1,1.84,0,.92.92,0,1,1-1.84,0Zm.29,2.8h1.26v9.83h-1.26Z"/><path class="b28cc649-1ac5-480f-a4a9-a4c025896af5" d="M389.44,325.29l3.31,8.6,3.31-8.6h1.34l-3.95,9.83H392l-3.94-9.83Z"/><path class="b28cc649-1ac5-480f-a4a9-a4c025896af5" d="M403,335.26a5.06,5.06,0,1,1,4.95-5.06A4.79,4.79,0,0,1,403,335.26Zm0-1.1a4,4,0,0,0,0-7.92c-1.87,0-3.62,1.26-3.62,4S401.1,334.16,403,334.16Z"/><path class="b28cc649-1ac5-480f-a4a9-a4c025896af5" d="M413.48,335.26c-2.24,0-3.8-1.12-4-2.92h1.29c.11,1.08,1.05,1.86,2.65,1.86,1.4,0,2.2-.76,2.2-1.69,0-2.44-5.91-1-5.91-4.7,0-1.46,1.39-2.67,3.46-2.67s3.49,1.12,3.6,3h-1.26a2.1,2.1,0,0,0-2.38-1.93c-1.31,0-2.14.7-2.14,1.57,0,2.66,5.81,1.24,5.87,4.72C416.9,334.09,415.51,335.26,413.48,335.26Z"/><path class="b28cc649-1ac5-480f-a4a9-a4c025896af5" d="M424.56,326.35H423.2v-1.06h1.36v-2.47h1.28v2.47h2.7v1.06h-2.7v6.1c0,1.21.42,1.59,1.55,1.59h1.15v1.08h-1.35c-1.71,0-2.63-.71-2.63-2.67Z"/><path class="b28cc649-1ac5-480f-a4a9-a4c025896af5" d="M434.34,335.26a4.68,4.68,0,0,1-4.83-5.06c0-3.13,2-5.06,4.83-5.06A4.42,4.42,0,0,1,439,329.7a7.87,7.87,0,0,1,0,1h-8.15a3.44,3.44,0,0,0,3.55,3.51,3,3,0,0,0,3.16-2.2h1.34A4.32,4.32,0,0,1,434.34,335.26Zm-3.55-5.6h6.91a3.21,3.21,0,0,0-3.42-3.44A3.39,3.39,0,0,0,430.79,329.66Z"/><path class="b28cc649-1ac5-480f-a4a9-a4c025896af5" d="M448.65,329.5c0-2.18-1.18-3.3-3-3.3s-3.11,1.16-3.11,3.55v5.37h-1.26v-9.83h1.26V327a3.6,3.6,0,0,1,3.35-1.85c2.23,0,4,1.36,4,4.24v5.77h-1.25Z"/><path class="b28cc649-1ac5-480f-a4a9-a4c025896af5" d="M456.88,335.26c-2.79,0-4.82-1.94-4.82-5.06s2-5.06,4.82-5.06a4.42,4.42,0,0,1,4.65,4.56,7.87,7.87,0,0,1,0,1h-8.16a3.45,3.45,0,0,0,3.55,3.51,3,3,0,0,0,3.17-2.2h1.33A4.31,4.31,0,0,1,456.88,335.26Zm-3.55-5.6h6.92a3.21,3.21,0,0,0-3.42-3.44A3.4,3.4,0,0,0,453.33,329.66Z"/><path class="b28cc649-1ac5-480f-a4a9-a4c025896af5" d="M478.2,329.5c0-2.18-1.13-3.3-2.88-3.3s-3,1.19-3,3.59v5.33H471V329.5c0-2.18-1.15-3.3-2.9-3.3s-3,1.19-3,3.59v5.33h-1.26v-9.83h1.26V327a3.51,3.51,0,0,1,3.26-1.87,3.62,3.62,0,0,1,3.63,2.41,3.58,3.58,0,0,1,3.55-2.41c2.18,0,3.91,1.36,3.91,4.24v5.77H478.2Z"/><path class="b28cc649-1ac5-480f-a4a9-a4c025896af5" d="M486.51,335.26a5.06,5.06,0,1,1,4.95-5.06A4.79,4.79,0,0,1,486.51,335.26Zm0-1.1a4,4,0,0,0,0-7.92c-1.87,0-3.62,1.26-3.62,4S484.64,334.16,486.51,334.16Z"/><path class="b28cc649-1ac5-480f-a4a9-a4c025896af5" d="M497,335.26c-2.24,0-3.8-1.12-4-2.92h1.29c.11,1.08,1,1.86,2.65,1.86,1.4,0,2.2-.76,2.2-1.69,0-2.44-5.91-1-5.91-4.7,0-1.46,1.39-2.67,3.46-2.67s3.49,1.12,3.6,3h-1.26a2.1,2.1,0,0,0-2.38-1.93c-1.31,0-2.14.7-2.14,1.57,0,2.66,5.81,1.24,5.87,4.72C500.44,334.09,499.05,335.26,497,335.26Z"/><path class="b28cc649-1ac5-480f-a4a9-a4c025896af5" d="M105,355.14a4.27,4.27,0,0,1,3.87,2.27v-5.62h1.26v13.33h-1.26v-2.2a4.09,4.09,0,0,1-3.89,2.34c-2.7,0-4.7-2-4.7-5.08S102.3,355.14,105,355.14Zm.22,1.1a3.59,3.59,0,0,0-3.66,3.94c0,2.49,1.59,4,3.66,4a4,4,0,0,0,0-7.92Z"/><path class="b28cc649-1ac5-480f-a4a9-a4c025896af5" d="M117.31,365.26a5.06,5.06,0,1,1,5-5.06A4.79,4.79,0,0,1,117.31,365.26Zm0-1.1a3.61,3.61,0,0,0,3.65-4c0-2.7-1.76-4-3.63-4s-3.62,1.26-3.62,4S115.44,364.16,117.31,364.16Z"/><path class="b28cc649-1ac5-480f-a4a9-a4c025896af5" d="M127.81,365.26c-2.23,0-3.79-1.12-4-2.92h1.3c.11,1.08,1,1.86,2.65,1.86,1.4,0,2.19-.76,2.19-1.69,0-2.44-5.9-1-5.9-4.7,0-1.46,1.38-2.67,3.46-2.67s3.49,1.12,3.6,3h-1.26a2.11,2.11,0,0,0-2.38-1.93c-1.32,0-2.14.7-2.14,1.57,0,2.66,5.81,1.24,5.87,4.72C131.24,364.09,129.85,365.26,127.81,365.26Z"/><path class="b28cc649-1ac5-480f-a4a9-a4c025896af5" d="M142.66,355.14a4.12,4.12,0,0,1,3.89,2.29v-2.14h1.26v10.08a4.35,4.35,0,0,1-4.59,4.57c-2.54,0-4.3-1.29-4.7-3.35h1.25a3.34,3.34,0,0,0,3.45,2.25,3.2,3.2,0,0,0,3.33-3.47v-2.43a4.13,4.13,0,0,1-3.89,2.32c-2.7,0-4.69-2-4.69-5.08S140,355.14,142.66,355.14Zm.24,1.1a3.59,3.59,0,0,0-3.66,3.94c0,2.49,1.59,4,3.66,4a4,4,0,0,0,0-7.92Z"/><path class="b28cc649-1ac5-480f-a4a9-a4c025896af5" d="M151.9,365.12h-1.26v-9.83h1.26V357a3.4,3.4,0,0,1,3.37-1.92v1.31h-.34c-1.64,0-3,.74-3,3.2Z"/><path class="b28cc649-1ac5-480f-a4a9-a4c025896af5" d="M160.85,355.14a4.08,4.08,0,0,1,3.89,2.31v-2.16H166v9.83h-1.26v-2.18a4.14,4.14,0,0,1-3.9,2.32c-2.69,0-4.68-2-4.68-5.08S158.15,355.14,160.85,355.14Zm.24,1.1a3.59,3.59,0,0,0-3.66,3.94c0,2.49,1.59,4,3.66,4a4,4,0,0,0,0-7.92Z"/><path class="b28cc649-1ac5-480f-a4a9-a4c025896af5" d="M176.2,359.5c0-2.18-1.19-3.3-3-3.3s-3.12,1.16-3.12,3.55v5.37h-1.26v-9.83h1.26V357a3.6,3.6,0,0,1,3.35-1.85c2.23,0,4,1.36,4,4.24v5.77H176.2Z"/><path class="b28cc649-1ac5-480f-a4a9-a4c025896af5" d="M184.32,355.14a4.27,4.27,0,0,1,3.87,2.27v-5.62h1.26v13.33h-1.26v-2.2a4.1,4.1,0,0,1-3.89,2.34c-2.7,0-4.7-2-4.7-5.08S181.6,355.14,184.32,355.14Zm.21,1.1c-2.07,0-3.65,1.44-3.65,3.94s1.58,4,3.65,4a4,4,0,0,0,0-7.92Z"/><path class="b28cc649-1ac5-480f-a4a9-a4c025896af5" d="M196.55,365.26c-2.79,0-4.82-1.94-4.82-5.06s2-5.06,4.82-5.06a4.42,4.42,0,0,1,4.65,4.56,7.87,7.87,0,0,1,0,1H193a3.44,3.44,0,0,0,3.54,3.51,3,3,0,0,0,3.17-2.2h1.34A4.32,4.32,0,0,1,196.55,365.26Zm-3.54-5.6h6.91a3.21,3.21,0,0,0-3.42-3.44A3.39,3.39,0,0,0,193,359.66Z"/><path class="b28cc649-1ac5-480f-a4a9-a4c025896af5" d="M206.8,365.26c-2.23,0-3.8-1.12-4-2.92h1.3c.11,1.08,1,1.86,2.65,1.86,1.4,0,2.19-.76,2.19-1.69,0-2.44-5.9-1-5.9-4.7,0-1.46,1.38-2.67,3.45-2.67s3.5,1.12,3.6,3h-1.26a2.1,2.1,0,0,0-2.37-1.93c-1.32,0-2.15.7-2.15,1.57,0,2.66,5.82,1.24,5.87,4.72C210.22,364.09,208.84,365.26,206.8,365.26Z"/><path class="b28cc649-1ac5-480f-a4a9-a4c025896af5" d="M221.65,355.14a4.13,4.13,0,0,1,3.89,2.29v-2.14h1.26v10.08a4.35,4.35,0,0,1-4.59,4.57c-2.54,0-4.3-1.29-4.7-3.35h1.24a3.36,3.36,0,0,0,3.46,2.25,3.2,3.2,0,0,0,3.33-3.47v-2.43a4.13,4.13,0,0,1-3.89,2.32c-2.7,0-4.7-2-4.7-5.08S219,355.14,221.65,355.14Zm.24,1.1a3.59,3.59,0,0,0-3.66,3.94c0,2.49,1.59,4,3.66,4a4,4,0,0,0,0-7.92Z"/><path class="b28cc649-1ac5-480f-a4a9-a4c025896af5" d="M230.89,365.12h-1.26v-9.83h1.26V357a3.4,3.4,0,0,1,3.37-1.92v1.31h-.34c-1.64,0-3,.74-3,3.2Z"/><path class="b28cc649-1ac5-480f-a4a9-a4c025896af5" d="M244.57,365.12h-1.26v-1.73a3.55,3.55,0,0,1-3.35,1.89c-2.23,0-4-1.37-4-4.25v-5.74h1.24v5.6c0,2.17,1.19,3.29,3,3.29s3.11-1.15,3.11-3.55v-5.34h1.26Z"/><path class="b28cc649-1ac5-480f-a4a9-a4c025896af5" d="M252.54,355.14c2.68,0,4.68,2,4.68,5s-2,5.08-4.68,5.08a4.22,4.22,0,0,1-3.91-2.3v6.8h-1.24V355.29h1.24v2.16A4.17,4.17,0,0,1,252.54,355.14Zm-.25,1.1a4,4,0,0,0,0,7.92c2.07,0,3.65-1.49,3.65-4S254.36,356.24,252.29,356.24Z"/><path class="b28cc649-1ac5-480f-a4a9-a4c025896af5" d="M263.84,365.26a5.06,5.06,0,1,1,5-5.06A4.79,4.79,0,0,1,263.84,365.26Zm0-1.1a4,4,0,0,0,0-7.92c-1.87,0-3.62,1.26-3.62,4S262,364.16,263.84,364.16Z"/><path class="b28cc649-1ac5-480f-a4a9-a4c025896af5" d="M274.35,365.26c-2.23,0-3.8-1.12-4-2.92h1.3c.1,1.08,1,1.86,2.64,1.86,1.41,0,2.2-.76,2.2-1.69,0-2.44-5.91-1-5.91-4.7,0-1.46,1.39-2.67,3.46-2.67s3.49,1.12,3.6,3h-1.26a2.1,2.1,0,0,0-2.37-1.93c-1.32,0-2.15.7-2.15,1.57,0,2.66,5.82,1.24,5.87,4.72C277.77,364.09,276.39,365.26,274.35,365.26Z"/><path class="b28cc649-1ac5-480f-a4a9-a4c025896af5" d="M280.18,357.37a.93.93,0,0,1,0-1.85.93.93,0,0,1,0,1.85Zm0,7.84a.92.92,0,0,1-.92-.94.91.91,0,0,1,.92-.92.89.89,0,0,1,.9.92A.91.91,0,0,1,280.18,365.21Z"/><path class="b28cc649-1ac5-480f-a4a9-a4c025896af5" d="M288.23,351.79h1.26v13.33h-1.26Z"/><path class="b28cc649-1ac5-480f-a4a9-a4c025896af5" d="M296.63,365.26a5.06,5.06,0,1,1,5-5.06A4.79,4.79,0,0,1,296.63,365.26Zm0-1.1a3.61,3.61,0,0,0,3.66-4c0-2.7-1.76-4-3.64-4s-3.62,1.26-3.62,4S294.76,364.16,296.63,364.16Z"/><path class="b28cc649-1ac5-480f-a4a9-a4c025896af5" d="M307.14,365.26c-2.23,0-3.8-1.12-4-2.92h1.3c.1,1.08,1,1.86,2.64,1.86,1.41,0,2.2-.76,2.2-1.69,0-2.44-5.91-1-5.91-4.7,0-1.46,1.39-2.67,3.46-2.67s3.49,1.12,3.6,3h-1.26a2.1,2.1,0,0,0-2.37-1.93c-1.32,0-2.15.7-2.15,1.57,0,2.66,5.82,1.24,5.87,4.72C310.56,364.09,309.18,365.26,307.14,365.26Z"/><path class="b28cc649-1ac5-480f-a4a9-a4c025896af5" d="M332.24,359.5c0-2.18-1.14-3.3-2.89-3.3s-3,1.19-3,3.59v5.33h-1.24V359.5c0-2.18-1.15-3.3-2.9-3.3s-3,1.19-3,3.59v5.33h-1.26v-9.83h1.26V357a3.51,3.51,0,0,1,3.26-1.87,3.62,3.62,0,0,1,3.63,2.41,3.58,3.58,0,0,1,3.55-2.41c2.18,0,3.91,1.36,3.91,4.24v5.77h-1.24Z"/><path class="b28cc649-1ac5-480f-a4a9-a4c025896af5" d="M340.54,365.26a5.06,5.06,0,1,1,4.95-5.06A4.79,4.79,0,0,1,340.54,365.26Zm0-1.1a4,4,0,0,0,0-7.92c-1.87,0-3.62,1.26-3.62,4S338.67,364.16,340.54,364.16Z"/><path class="b28cc649-1ac5-480f-a4a9-a4c025896af5" d="M352,355.14a4.27,4.27,0,0,1,3.87,2.27v-5.62h1.26v13.33h-1.26v-2.2a4.1,4.1,0,0,1-3.89,2.34c-2.7,0-4.7-2-4.7-5.08S349.23,355.14,352,355.14Zm.21,1.1c-2.07,0-3.65,1.44-3.65,3.94s1.58,4,3.65,4a4,4,0,0,0,0-7.92Z"/><path class="b28cc649-1ac5-480f-a4a9-a4c025896af5" d="M364.18,365.26c-2.79,0-4.82-1.94-4.82-5.06s2-5.06,4.82-5.06a4.42,4.42,0,0,1,4.65,4.56,7.87,7.87,0,0,1,0,1h-8.16a3.44,3.44,0,0,0,3.55,3.51,3,3,0,0,0,3.17-2.2h1.33A4.31,4.31,0,0,1,364.18,365.26Zm-3.55-5.6h6.92a3.21,3.21,0,0,0-3.42-3.44A3.4,3.4,0,0,0,360.63,359.66Z"/><path class="b28cc649-1ac5-480f-a4a9-a4c025896af5" d="M371.13,351.79h1.26v13.33h-1.26Z"/><path class="b28cc649-1ac5-480f-a4a9-a4c025896af5" d="M379.53,365.26a5.06,5.06,0,1,1,5-5.06A4.79,4.79,0,0,1,379.53,365.26Zm0-1.1a4,4,0,0,0,0-7.92c-1.87,0-3.62,1.26-3.62,4S377.66,364.16,379.53,364.16Z"/><path class="b28cc649-1ac5-480f-a4a9-a4c025896af5" d="M390,365.26c-2.23,0-3.8-1.12-4-2.92h1.3c.1,1.08,1,1.86,2.64,1.86,1.41,0,2.2-.76,2.2-1.69,0-2.44-5.91-1-5.91-4.7,0-1.46,1.39-2.67,3.46-2.67s3.49,1.12,3.6,3h-1.26a2.1,2.1,0,0,0-2.38-1.93c-1.31,0-2.14.7-2.14,1.57,0,2.66,5.82,1.24,5.87,4.72C393.46,364.09,392.07,365.26,390,365.26Z"/><path class="b28cc649-1ac5-480f-a4a9-a4c025896af5" d="M105.07,385.14a4.25,4.25,0,0,1,4.52,3.35h-1.35a3,3,0,0,0-3.17-2.27c-1.92,0-3.49,1.32-3.49,4s1.57,4,3.49,4a3,3,0,0,0,3.17-2.29h1.35a4.31,4.31,0,0,1-4.52,3.35c-2.77,0-4.77-1.94-4.77-5.06S102.3,385.14,105.07,385.14Z"/><path class="b28cc649-1ac5-480f-a4a9-a4c025896af5" d="M116.07,395.26a5.06,5.06,0,1,1,5-5.06A4.79,4.79,0,0,1,116.07,395.26Zm0-1.1a3.6,3.6,0,0,0,3.65-4c0-2.7-1.76-4-3.63-4s-3.62,1.26-3.62,4S114.2,394.16,116.07,394.16Z"/><path class="b28cc649-1ac5-480f-a4a9-a4c025896af5" d="M124.56,395.12H123.3v-9.83h1.26V387a3.4,3.4,0,0,1,3.37-1.92v1.31h-.34c-1.64,0-3,.74-3,3.2Z"/><path class="b28cc649-1ac5-480f-a4a9-a4c025896af5" d="M130.94,395.12h-1.26v-9.83h1.26V387a3.39,3.39,0,0,1,3.37-1.92v1.31H134c-1.63,0-3,.74-3,3.2Z"/><path class="b28cc649-1ac5-480f-a4a9-a4c025896af5" d="M140,395.26a4.69,4.69,0,0,1-4.83-5.06c0-3.13,2-5.06,4.83-5.06a4.42,4.42,0,0,1,4.64,4.56c0,.39,0,.64,0,1h-8.16A3.44,3.44,0,0,0,140,394.2a3,3,0,0,0,3.17-2.2h1.33A4.32,4.32,0,0,1,140,395.26Zm-3.55-5.6h6.91a3.21,3.21,0,0,0-3.42-3.44A3.4,3.4,0,0,0,136.47,389.66Z"/><path class="b28cc649-1ac5-480f-a4a9-a4c025896af5" d="M147,381.79h1.26v13.33H147Z"/><path class="b28cc649-1ac5-480f-a4a9-a4c025896af5" d="M155.19,385.14a4.1,4.1,0,0,1,3.89,2.31v-2.16h1.26v9.83h-1.26v-2.18a4.16,4.16,0,0,1-3.91,2.32c-2.68,0-4.68-2-4.68-5.08S152.49,385.14,155.19,385.14Zm.23,1.1c-2.07,0-3.65,1.44-3.65,3.94s1.58,4,3.65,4a4,4,0,0,0,0-7.92Z"/><path class="b28cc649-1ac5-480f-a4a9-a4c025896af5" d="M167.39,385.14a4.25,4.25,0,0,1,4.52,3.35h-1.35a3,3,0,0,0-3.17-2.27c-1.92,0-3.49,1.32-3.49,4s1.57,4,3.49,4a3,3,0,0,0,3.17-2.29h1.35a4.31,4.31,0,0,1-4.52,3.35c-2.77,0-4.77-1.94-4.77-5.06S164.62,385.14,167.39,385.14Z"/><path class="b28cc649-1ac5-480f-a4a9-a4c025896af5" d="M173.83,382.49a.92.92,0,0,1,1.84,0,.92.92,0,1,1-1.84,0Zm.29,2.8h1.26v9.83h-1.26Z"/><path class="b28cc649-1ac5-480f-a4a9-a4c025896af5" d="M182.47,395.26a5.06,5.06,0,1,1,4.95-5.06A4.79,4.79,0,0,1,182.47,395.26Zm0-1.1a4,4,0,0,0,0-7.92c-1.87,0-3.62,1.26-3.62,4S180.6,394.16,182.47,394.16Z"/><path class="b28cc649-1ac5-480f-a4a9-a4c025896af5" d="M197.07,389.5c0-2.18-1.19-3.3-3-3.3s-3.12,1.16-3.12,3.55v5.37H189.7v-9.83H191V387a3.6,3.6,0,0,1,3.35-1.85c2.23,0,4,1.36,4,4.24v5.77h-1.24Z"/><path class="b28cc649-1ac5-480f-a4a9-a4c025896af5" d="M205.17,385.14a4.1,4.1,0,0,1,3.89,2.31v-2.16h1.26v9.83h-1.26v-2.18a4.16,4.16,0,0,1-3.91,2.32c-2.68,0-4.68-2-4.68-5.08S202.47,385.14,205.17,385.14Zm.23,1.1c-2.07,0-3.65,1.44-3.65,3.94s1.58,4,3.65,4a4,4,0,0,0,0-7.92Z"/><path class="b28cc649-1ac5-480f-a4a9-a4c025896af5" d="M213.14,381.79h1.26v13.33h-1.26Z"/><path class="b28cc649-1ac5-480f-a4a9-a4c025896af5" d="M221.5,395.26a4.68,4.68,0,0,1-4.83-5.06c0-3.13,2-5.06,4.83-5.06a4.42,4.42,0,0,1,4.64,4.56,7.87,7.87,0,0,1,0,1H218a3.44,3.44,0,0,0,3.55,3.51,3,3,0,0,0,3.16-2.2H226A4.32,4.32,0,0,1,221.5,395.26Zm-3.55-5.6h6.91a3.21,3.21,0,0,0-3.42-3.44A3.39,3.39,0,0,0,218,389.66Z"/><path class="b28cc649-1ac5-480f-a4a9-a4c025896af5" d="M231.74,395.26c-2.23,0-3.79-1.12-4-2.92h1.3c.11,1.08,1,1.86,2.65,1.86,1.4,0,2.19-.76,2.19-1.69,0-2.44-5.9-1-5.9-4.7,0-1.46,1.38-2.67,3.45-2.67s3.5,1.12,3.61,3h-1.26a2.11,2.11,0,0,0-2.38-1.93c-1.32,0-2.14.7-2.14,1.57,0,2.66,5.81,1.24,5.87,4.72C235.17,394.09,233.78,395.26,231.74,395.26Z"/><path class="b28cc649-1ac5-480f-a4a9-a4c025896af5" d="M249.28,385.29h1.29l-5.83,14.45h-1.31l1.9-4.68-4-9.77h1.39l3.35,8.39Z"/><path class="b28cc649-1ac5-480f-a4a9-a4c025896af5" d="M257.21,381.79h1.26v13.33h-1.26Z"/><path class="b28cc649-1ac5-480f-a4a9-a4c025896af5" d="M265.62,395.26a5.06,5.06,0,1,1,4.95-5.06A4.79,4.79,0,0,1,265.62,395.26Zm0-1.1a3.61,3.61,0,0,0,3.65-4c0-2.7-1.76-4-3.63-4s-3.62,1.26-3.62,4S263.75,394.16,265.62,394.16Z"/><path class="b28cc649-1ac5-480f-a4a9-a4c025896af5" d="M276.12,395.26c-2.23,0-3.8-1.12-4-2.92h1.3c.11,1.08,1,1.86,2.65,1.86,1.4,0,2.19-.76,2.19-1.69,0-2.44-5.9-1-5.9-4.7,0-1.46,1.38-2.67,3.45-2.67s3.5,1.12,3.6,3h-1.26a2.1,2.1,0,0,0-2.37-1.93c-1.32,0-2.14.7-2.14,1.57,0,2.66,5.81,1.24,5.86,4.72C279.54,394.09,278.16,395.26,276.12,395.26Z"/><path class="b28cc649-1ac5-480f-a4a9-a4c025896af5" d="M301.22,389.5c0-2.18-1.14-3.3-2.88-3.3s-3,1.19-3,3.59v5.33h-1.24V389.5c0-2.18-1.15-3.3-2.9-3.3s-3,1.19-3,3.59v5.33h-1.26v-9.83h1.26V387a3.51,3.51,0,0,1,3.26-1.87,3.64,3.64,0,0,1,3.64,2.41,3.58,3.58,0,0,1,3.54-2.41c2.18,0,3.91,1.36,3.91,4.24v5.77h-1.24Z"/><path class="b28cc649-1ac5-480f-a4a9-a4c025896af5" d="M309.53,395.26a5.06,5.06,0,1,1,5-5.06A4.79,4.79,0,0,1,309.53,395.26Zm0-1.1a3.61,3.61,0,0,0,3.65-4c0-2.7-1.76-4-3.64-4s-3.62,1.26-3.62,4S307.65,394.16,309.53,394.16Z"/><path class="b28cc649-1ac5-480f-a4a9-a4c025896af5" d="M320.93,385.14a4.27,4.27,0,0,1,3.87,2.27v-5.62h1.26v13.33H324.8v-2.2a4.1,4.1,0,0,1-3.89,2.34c-2.7,0-4.7-2-4.7-5.08S318.21,385.14,320.93,385.14Zm.21,1.1c-2.07,0-3.65,1.44-3.65,3.94s1.58,4,3.65,4a4,4,0,0,0,0-7.92Z"/><path class="b28cc649-1ac5-480f-a4a9-a4c025896af5" d="M333.16,395.26c-2.79,0-4.82-1.94-4.82-5.06s2-5.06,4.82-5.06a4.42,4.42,0,0,1,4.65,4.56,7.87,7.87,0,0,1,0,1h-8.15a3.43,3.43,0,0,0,3.54,3.51,3,3,0,0,0,3.17-2.2h1.34A4.32,4.32,0,0,1,333.16,395.26Zm-3.54-5.6h6.91a3.21,3.21,0,0,0-3.42-3.44A3.39,3.39,0,0,0,329.62,389.66Z"/><path class="b28cc649-1ac5-480f-a4a9-a4c025896af5" d="M340.11,381.79h1.26v13.33h-1.26Z"/><path class="b28cc649-1ac5-480f-a4a9-a4c025896af5" d="M348.52,395.26a5.06,5.06,0,1,1,5-5.06A4.79,4.79,0,0,1,348.52,395.26Zm0-1.1a3.61,3.61,0,0,0,3.65-4c0-2.7-1.76-4-3.64-4s-3.61,1.26-3.61,4S346.64,394.16,348.52,394.16Z"/><path class="b28cc649-1ac5-480f-a4a9-a4c025896af5" d="M359,395.26c-2.23,0-3.8-1.12-4-2.92h1.3c.11,1.08,1,1.86,2.64,1.86,1.41,0,2.2-.76,2.2-1.69,0-2.44-5.9-1-5.9-4.7,0-1.46,1.38-2.67,3.45-2.67s3.5,1.12,3.6,3h-1.26a2.1,2.1,0,0,0-2.37-1.93c-1.32,0-2.15.7-2.15,1.57,0,2.66,5.82,1.24,5.87,4.72C362.44,394.09,361.06,395.26,359,395.26Z"/><path class="b28cc649-1ac5-480f-a4a9-a4c025896af5" d="M373.94,385.14a4.25,4.25,0,0,1,4.52,3.35h-1.35a3,3,0,0,0-3.17-2.27c-1.92,0-3.49,1.32-3.49,4s1.57,4,3.49,4a3,3,0,0,0,3.17-2.29h1.35a4.31,4.31,0,0,1-4.52,3.35c-2.77,0-4.77-1.94-4.77-5.06S371.17,385.14,373.94,385.14Z"/><path class="b28cc649-1ac5-480f-a4a9-a4c025896af5" d="M384.76,385.14a4.1,4.1,0,0,1,3.89,2.31v-2.16h1.26v9.83h-1.26v-2.18a4.16,4.16,0,0,1-3.91,2.32c-2.68,0-4.68-2-4.68-5.08S382.06,385.14,384.76,385.14Zm.23,1.1c-2.07,0-3.65,1.44-3.65,3.94s1.58,4,3.65,4a4,4,0,0,0,0-7.92Z"/><path class="b28cc649-1ac5-480f-a4a9-a4c025896af5" d="M401.26,395.12H400v-1.73a3.55,3.55,0,0,1-3.34,1.89c-2.24,0-4-1.37-4-4.25v-5.74h1.24v5.6c0,2.17,1.19,3.29,3,3.29S400,393,400,390.63v-5.34h1.26Z"/><path class="b28cc649-1ac5-480f-a4a9-a4c025896af5" d="M407.46,395.26c-2.23,0-3.79-1.12-4-2.92h1.3c.11,1.08,1,1.86,2.65,1.86,1.4,0,2.19-.76,2.19-1.69,0-2.44-5.9-1-5.9-4.7,0-1.46,1.38-2.67,3.45-2.67s3.5,1.12,3.61,3h-1.26a2.11,2.11,0,0,0-2.38-1.93c-1.32,0-2.14.7-2.14,1.57,0,2.66,5.81,1.24,5.86,4.72C410.88,394.09,409.5,395.26,407.46,395.26Z"/><path class="b28cc649-1ac5-480f-a4a9-a4c025896af5" d="M417.3,385.14a4.1,4.1,0,0,1,3.89,2.31v-2.16h1.26v9.83h-1.26v-2.18a4.15,4.15,0,0,1-3.91,2.32c-2.68,0-4.68-2-4.68-5.08S414.6,385.14,417.3,385.14Zm.24,1.1a3.59,3.59,0,0,0-3.66,3.94c0,2.49,1.59,4,3.66,4a4,4,0,0,0,0-7.92Z"/><path class="b28cc649-1ac5-480f-a4a9-a4c025896af5" d="M425.28,381.79h1.26v13.33h-1.26Z"/><path class="b28cc649-1ac5-480f-a4a9-a4c025896af5" d="M433.63,395.26a4.69,4.69,0,0,1-4.83-5.06c0-3.13,2-5.06,4.83-5.06a4.42,4.42,0,0,1,4.64,4.56c0,.39,0,.64,0,1h-8.16a3.44,3.44,0,0,0,3.55,3.51,3,3,0,0,0,3.17-2.2h1.33A4.32,4.32,0,0,1,433.63,395.26Zm-3.55-5.6H437a3.22,3.22,0,0,0-3.43-3.44A3.4,3.4,0,0,0,430.08,389.66Z"/><path class="b28cc649-1ac5-480f-a4a9-a4c025896af5" d="M443.88,395.26c-2.24,0-3.8-1.12-4-2.92h1.29c.11,1.08,1.05,1.86,2.65,1.86,1.4,0,2.2-.76,2.2-1.69,0-2.44-5.91-1-5.91-4.7,0-1.46,1.39-2.67,3.46-2.67s3.49,1.12,3.6,3H446a2.1,2.1,0,0,0-2.38-1.93c-1.31,0-2.14.7-2.14,1.57,0,2.66,5.81,1.24,5.87,4.72C447.3,394.09,445.91,395.26,443.88,395.26Z"/><path class="b28cc649-1ac5-480f-a4a9-a4c025896af5" d="M450.1,395.21a.91.91,0,0,1-.91-.94.91.91,0,1,1,1.81,0A.91.91,0,0,1,450.1,395.21Z"/><path class="a34e7f4b-1935-466c-8394-200968915ad1" d="M2.58,0V471.24A21.44,21.44,0,0,0,24,492.68H556.31"/></svg>