<svg id="a95169d9-2f70-4ab4-abcc-e438113550ef" data-name="Capa 1" xmlns="http://www.w3.org/2000/svg" viewBox="0 0 74.38 139.11"><defs><style>.bce78025-c08f-41ef-8519-8e1f3974c454{fill:#fd893b;}.e0811b0d-8d84-4dde-be96-08035f4ba322{fill:#fff;}.a5d9596e-6637-4c70-9c16-9e2a36128d45{fill:none;stroke:#fd893b;stroke-miterlimit:10;stroke-width:2px;}.ea2254c4-4099-41dd-924f-9a72b046eedc{fill:#006376;}</style></defs><circle class="bce78025-c08f-41ef-8519-8e1f3974c454" cx="33.87" cy="104.76" r="32.69"/><path class="e0811b0d-8d84-4dde-be96-08035f4ba322" d="M23.44,112.13c4.53-3.74,9.36-7.46,9.36-11,0-1.55-.71-2.55-2.23-2.55s-2.37,1.17-2.37,3.19H23.38c.14-5.18,3.51-7.4,7.4-7.4,4.85,0,7,2.84,7,6.44,0,4.68-4.18,8.42-7.58,11h7.9v4.07H23.44Z"/><path class="e0811b0d-8d84-4dde-be96-08035f4ba322" d="M44,116.38a2.73,2.73,0,1,1,3-2.7A2.77,2.77,0,0,1,44,116.38Z"/><line class="a5d9596e-6637-4c70-9c16-9e2a36128d45" x1="33.87" x2="33.87" y2="72.17"/><circle class="ea2254c4-4099-41dd-924f-9a72b046eedc" cx="60.06" cy="85.31" r="13.14"/><path class="e0811b0d-8d84-4dde-be96-08035f4ba322" d="M60.23,78.77c2.77,0,4.27,1.58,4.27,3.56a3,3,0,0,1-2,3v.07a3.07,3.07,0,0,1,2.21,3.17c0,2.21-1.58,3.8-4.34,3.8s-4.71-1.3-4.81-4.27h3a1.57,1.57,0,0,0,1.72,1.71,1.37,1.37,0,0,0,1.47-1.48c0-1.17-.7-1.64-2.3-1.64h-.58v-2.5h.58c1,0,2-.25,2-1.44a1.25,1.25,0,0,0-1.35-1.37,1.38,1.38,0,0,0-1.41,1.44h-3C55.86,80.19,57.55,78.77,60.23,78.77Z"/></svg>