<svg xmlns="http://www.w3.org/2000/svg" viewBox="0 0 456.01 584.78"><defs><style>.a1b10232-029f-4159-bc6b-495a68bff00d{isolation:isolate;}.bda865c4-b7ed-4dfb-bac9-24a2eedf6d61{opacity:0.5;}.fea7bece-eccc-4953-8db4-71be684a1806{fill:#272b31;}.fd4ca166-5210-4128-84f2-5d2aef6483b4{fill:none;stroke:#fd893b;stroke-miterlimit:10;stroke-width:2px;}.ab306366-ab0e-44b2-9101-c4053413cf3b{mix-blend-mode:multiply;}</style></defs><g class="a1b10232-029f-4159-bc6b-495a68bff00d"><g id="bad8f4a6-15c8-4948-9159-54af923e8470" data-name="Capa 1"><path class="fea7bece-eccc-4953-8db4-71be684a1806" d="M114.32,72.84c0,5-3.45,8.42-8.83,8.42H99.18V64.41h6.31C110.87,64.41,114.32,67.82,114.32,72.84Zm-9.09,4.87c3.09,0,4.92-1.78,4.92-4.87s-1.83-4.92-4.92-4.92h-2v9.79Z"/><path class="fea7bece-eccc-4953-8db4-71be684a1806" d="M116.26,64.27a2.45,2.45,0,1,1,2.45,2.21A2.27,2.27,0,0,1,116.26,64.27Zm.39,3.6h4.1V81.26h-4.1Z"/><path class="fea7bece-eccc-4953-8db4-71be684a1806" d="M129,81.45c-3.58,0-6-2-6.17-4.58h4.06a1.87,1.87,0,0,0,2.06,1.56c1.06,0,1.61-.48,1.61-1.08,0-2.16-7.3-.6-7.3-5.52,0-2.28,2-4.15,5.45-4.15s5.38,1.92,5.64,4.56h-3.79a1.77,1.77,0,0,0-2-1.51c-1,0-1.49.38-1.49,1,0,2.13,7.25.62,7.32,5.61C134.4,79.7,132.34,81.45,129,81.45Z"/><path class="fea7bece-eccc-4953-8db4-71be684a1806" d="M142.67,81.45c-3.93,0-6.76-2.64-6.76-6.88s2.78-6.89,6.76-6.89a6.31,6.31,0,0,1,6.68,6.67,10.07,10.07,0,0,1-.08,1.2H140a2.48,2.48,0,0,0,2.54,2.57,2.2,2.2,0,0,0,2.14-1.3H149A6.24,6.24,0,0,1,142.67,81.45ZM140,73.27h5.14a2.32,2.32,0,0,0-2.52-2.3A2.53,2.53,0,0,0,140,73.27Z"/><path class="fea7bece-eccc-4953-8db4-71be684a1806" d="M155.56,81.26h-4.11V67.87h4.11v1.78a4.89,4.89,0,0,1,4.05-1.92c3.1,0,5.16,2.11,5.16,5.71v7.82h-4.08V74c0-1.82-1-2.83-2.56-2.83s-2.57,1-2.57,2.83Zm1.58-18.07c1.44,0,2.19,1.08,3.15,1.08.55,0,.93-.34,1-1.08h2.11c-.41,2.52-1.63,3.55-3.31,3.55-1.44,0-2.19-1.08-3.15-1.08-.55,0-.93.34-1.05,1.08h-2.09C154.24,64.22,155.44,63.19,157.14,63.19Z"/><path class="fea7bece-eccc-4953-8db4-71be684a1806" d="M173.64,81.45a6.89,6.89,0,1,1,7-6.88A6.64,6.64,0,0,1,173.64,81.45Zm0-3.55c1.47,0,2.83-1.08,2.83-3.33s-1.34-3.34-2.78-3.34-2.79,1.06-2.79,3.34S172.15,77.9,173.64,77.9Z"/><path class="fea7bece-eccc-4953-8db4-71be684a1806" d="M188.08,81.45c-3.57,0-6-2-6.16-4.58H186A1.88,1.88,0,0,0,188,78.43c1.05,0,1.6-.48,1.6-1.08,0-2.16-7.29-.6-7.29-5.52,0-2.28,1.94-4.15,5.45-4.15s5.37,1.92,5.64,4.56h-3.8a1.76,1.76,0,0,0-2-1.51c-1,0-1.49.38-1.49,1,0,2.13,7.25.62,7.32,5.61C193.51,79.7,191.44,81.45,188.08,81.45Z"/><path class="fea7bece-eccc-4953-8db4-71be684a1806" d="M207.07,81.45a6.45,6.45,0,0,1-6.77-6.88c0-4.25,2.78-6.89,6.77-6.89a6.31,6.31,0,0,1,6.67,6.67,10,10,0,0,1-.07,1.2h-9.29a2.48,2.48,0,0,0,2.54,2.57,2.19,2.19,0,0,0,2.14-1.3h4.37A6.26,6.26,0,0,1,207.07,81.45Zm-2.67-8.18h5.14A2.31,2.31,0,0,0,207,71,2.54,2.54,0,0,0,204.4,73.27Z"/><path class="fea7bece-eccc-4953-8db4-71be684a1806" d="M220.7,77.54l-2.16,3.72H214.1l4.42-6.84L214,67.87h4.61l2.57,3.7,2.16-3.7h4.44l-4.49,6.74,4.61,6.65h-4.61Z"/><path class="fea7bece-eccc-4953-8db4-71be684a1806" d="M237.51,67.68c3.29,0,5.9,2.64,5.9,6.86s-2.61,6.91-5.9,6.91a4.81,4.81,0,0,1-4.13-2.06v8.26h-4.11V67.87h4.11v1.9A4.71,4.71,0,0,1,237.51,67.68Zm-1.23,3.57a3.34,3.34,0,1,0,3,3.29A3,3,0,0,0,236.28,71.25Z"/><path class="fea7bece-eccc-4953-8db4-71be684a1806" d="M251.58,81.45a6.45,6.45,0,0,1-6.77-6.88c0-4.25,2.78-6.89,6.77-6.89a6.31,6.31,0,0,1,6.67,6.67,10,10,0,0,1-.07,1.2h-9.29a2.48,2.48,0,0,0,2.54,2.57,2.19,2.19,0,0,0,2.14-1.3h4.37A6.26,6.26,0,0,1,251.58,81.45Zm-2.67-8.18h5.14a2.31,2.31,0,0,0-2.52-2.3A2.54,2.54,0,0,0,248.91,73.27Z"/><path class="fea7bece-eccc-4953-8db4-71be684a1806" d="M264.46,81.26h-4.1V67.87h4.1V70.1a5,5,0,0,1,4.2-2.37v4.34h-1.13c-1.94,0-3.07.67-3.07,3Z"/><path class="fea7bece-eccc-4953-8db4-71be684a1806" d="M269.83,64.27a2.45,2.45,0,1,1,2.45,2.21A2.27,2.27,0,0,1,269.83,64.27Zm.39,3.6h4.1V81.26h-4.1Z"/><path class="fea7bece-eccc-4953-8db4-71be684a1806" d="M295.66,74a2.57,2.57,0,1,0-5.13,0v7.27h-4.08V74a2.57,2.57,0,1,0-5.14,0v7.27H277.2V67.87h4.11v1.68a4.72,4.72,0,0,1,3.91-1.82,5,5,0,0,1,4.56,2.49,5.4,5.4,0,0,1,4.51-2.49c3.32,0,5.45,2.11,5.45,5.71v7.82h-4.08Z"/><path class="fea7bece-eccc-4953-8db4-71be684a1806" d="M308.51,81.45a6.46,6.46,0,0,1-6.77-6.88c0-4.25,2.79-6.89,6.77-6.89a6.31,6.31,0,0,1,6.68,6.67,10.07,10.07,0,0,1-.08,1.2h-9.29a2.49,2.49,0,0,0,2.55,2.57,2.17,2.17,0,0,0,2.13-1.3h4.37A6.24,6.24,0,0,1,308.51,81.45Zm-2.66-8.18H311a2.31,2.31,0,0,0-2.52-2.3A2.53,2.53,0,0,0,305.85,73.27Z"/><path class="fea7bece-eccc-4953-8db4-71be684a1806" d="M326.53,74c0-1.82-1-2.83-2.57-2.83s-2.56,1-2.56,2.83v7.27h-4.11V67.87h4.11v1.78a4.89,4.89,0,0,1,4.05-1.92c3.1,0,5.16,2.11,5.16,5.71v7.82h-4.08Z"/><path class="fea7bece-eccc-4953-8db4-71be684a1806" d="M333.84,71.28h-1.63V67.87h1.63V64.61h4.1v3.26h2.69v3.41h-2.69v5.37c0,.8.34,1.13,1.25,1.13h1.47v3.48h-2.09c-2.79,0-4.73-1.17-4.73-4.65Z"/><path class="fea7bece-eccc-4953-8db4-71be684a1806" d="M347.93,67.68a4.66,4.66,0,0,1,4.13,2.09v-1.9h4.1V81.26h-4.1V79.37a4.74,4.74,0,0,1-4.15,2.08c-3.27,0-5.88-2.68-5.88-6.91S344.64,67.68,347.93,67.68Zm1.2,3.57a3,3,0,0,0-2.93,3.29,3,3,0,0,0,2.93,3.34,3.34,3.34,0,0,0,0-6.63Z"/><path class="fea7bece-eccc-4953-8db4-71be684a1806" d="M359.07,63.5h4.1V81.26h-4.1Z"/><path class="fea7bece-eccc-4953-8db4-71be684a1806" d="M372,81.45a6.45,6.45,0,0,1-6.77-6.88c0-4.25,2.78-6.89,6.77-6.89a6.31,6.31,0,0,1,6.67,6.67,10,10,0,0,1-.07,1.2h-9.29a2.48,2.48,0,0,0,2.54,2.57,2.19,2.19,0,0,0,2.14-1.3h4.37A6.26,6.26,0,0,1,372,81.45Zm-2.67-8.18h5.14A2.31,2.31,0,0,0,372,71,2.54,2.54,0,0,0,369.37,73.27Z"/><path class="fea7bece-eccc-4953-8db4-71be684a1806" d="M386.13,81.45c-3.57,0-6-2-6.17-4.58H384a1.88,1.88,0,0,0,2.06,1.56c1.06,0,1.61-.48,1.61-1.08,0-2.16-7.29-.6-7.29-5.52,0-2.28,1.94-4.15,5.44-4.15s5.38,1.92,5.64,4.56h-3.79a1.76,1.76,0,0,0-2-1.51c-1,0-1.49.38-1.49,1,0,2.13,7.24.62,7.32,5.61C391.56,79.7,389.49,81.45,386.13,81.45Z"/><path class="fea7bece-eccc-4953-8db4-71be684a1806" d="M100.39,128.68v11.56h4.52v1H99.13V128.68Z"/><path class="fea7bece-eccc-4953-8db4-71be684a1806" d="M110.51,141.41a5.06,5.06,0,1,1,4.95-5.06A4.79,4.79,0,0,1,110.51,141.41Zm0-1.1a4,4,0,0,0,0-7.92c-1.87,0-3.62,1.26-3.62,4S108.64,140.31,110.51,140.31Z"/><path class="fea7bece-eccc-4953-8db4-71be684a1806" d="M121,141.41c-2.23,0-3.8-1.12-4-2.92h1.29c.11,1.08,1.05,1.85,2.65,1.85,1.41,0,2.2-.75,2.2-1.69,0-2.43-5.91-1-5.91-4.7,0-1.46,1.39-2.66,3.46-2.66s3.49,1.11,3.6,3h-1.26a2.1,2.1,0,0,0-2.38-1.92c-1.31,0-2.14.7-2.14,1.56,0,2.67,5.82,1.25,5.87,4.72C124.44,140.24,123.05,141.41,121,141.41Z"/><path class="fea7bece-eccc-4953-8db4-71be684a1806" d="M135.89,131.29a4.27,4.27,0,0,1,3.87,2.27v-5.62H141v13.32h-1.26v-2.19a4.12,4.12,0,0,1-3.89,2.34c-2.7,0-4.7-2-4.7-5.08S133.17,131.29,135.89,131.29Zm.21,1.1c-2.07,0-3.65,1.44-3.65,3.94s1.58,4,3.65,4a4,4,0,0,0,0-7.92Z"/><path class="fea7bece-eccc-4953-8db4-71be684a1806" d="M143.57,128.64a.92.92,0,0,1,1.84,0,.92.92,0,1,1-1.84,0Zm.29,2.79h1.26v9.83h-1.26Z"/><path class="fea7bece-eccc-4953-8db4-71be684a1806" d="M151.3,141.41c-2.24,0-3.8-1.12-4-2.92h1.3c.11,1.08,1.05,1.85,2.65,1.85,1.4,0,2.19-.75,2.19-1.69,0-2.43-5.9-1-5.9-4.7,0-1.46,1.39-2.66,3.46-2.66s3.49,1.11,3.6,3h-1.26a2.11,2.11,0,0,0-2.38-1.92c-1.31,0-2.14.7-2.14,1.56,0,2.67,5.81,1.25,5.87,4.72C154.72,140.24,153.33,141.41,151.3,141.41Z"/><path class="fea7bece-eccc-4953-8db4-71be684a1806" d="M161.26,141.41a4.69,4.69,0,0,1-4.83-5.06c0-3.14,2-5.06,4.83-5.06a4.41,4.41,0,0,1,4.64,4.55c0,.4,0,.65,0,1h-8.16a3.43,3.43,0,0,0,3.55,3.51,3,3,0,0,0,3.17-2.19h1.33A4.32,4.32,0,0,1,161.26,141.41Zm-3.55-5.6h6.92a3.22,3.22,0,0,0-3.43-3.44A3.4,3.4,0,0,0,157.71,135.81Z"/><path class="fea7bece-eccc-4953-8db4-71be684a1806" d="M169.47,141.26h-1.26v-9.83h1.26v1.68a3.59,3.59,0,0,1,3.35-1.86c2.24,0,4,1.37,4,4.25v5.76h-1.24v-5.61c0-2.18-1.19-3.3-3-3.3s-3.12,1.15-3.12,3.55Zm2.09-12.58c.94,0,1.24.84,2,.84a.81.81,0,0,0,.79-.81h.76a1.65,1.65,0,0,1-1.61,1.68c-1,0-1.27-.85-2-.85-.4,0-.69.25-.76.81H170C170.12,129.25,170.72,128.68,171.56,128.68Z"/><path class="fea7bece-eccc-4953-8db4-71be684a1806" d="M183.86,141.41a5.06,5.06,0,1,1,4.95-5.06A4.8,4.8,0,0,1,183.86,141.41Zm0-1.1a4,4,0,0,0,0-7.92c-1.87,0-3.62,1.26-3.62,4S182,140.31,183.86,140.31Z"/><path class="fea7bece-eccc-4953-8db4-71be684a1806" d="M194.37,141.41c-2.24,0-3.8-1.12-4-2.92h1.3c.11,1.08,1.05,1.85,2.65,1.85,1.4,0,2.19-.75,2.19-1.69,0-2.43-5.9-1-5.9-4.7,0-1.46,1.38-2.66,3.46-2.66s3.49,1.11,3.6,3h-1.26a2.11,2.11,0,0,0-2.38-1.92c-1.31,0-2.14.7-2.14,1.56,0,2.67,5.81,1.25,5.87,4.72C197.79,140.24,196.4,141.41,194.37,141.41Z"/><path class="fea7bece-eccc-4953-8db4-71be684a1806" d="M209.34,141.41a4.69,4.69,0,0,1-4.82-5.06c0-3.14,2-5.06,4.82-5.06a4.42,4.42,0,0,1,4.65,4.55,7.71,7.71,0,0,1,0,1h-8.16a3.43,3.43,0,0,0,3.55,3.51,3,3,0,0,0,3.17-2.19h1.33A4.32,4.32,0,0,1,209.34,141.41Zm-3.55-5.6h6.92a3.21,3.21,0,0,0-3.42-3.44A3.4,3.4,0,0,0,205.79,135.81Z"/><path class="fea7bece-eccc-4953-8db4-71be684a1806" d="M218.68,137.3l-2.45,4H214.9l3.17-4.91-3.14-4.92h1.43l2.5,3.91,2.43-3.91h1.32l-3.14,4.86,3.17,5h-1.42Z"/><path class="fea7bece-eccc-4953-8db4-71be684a1806" d="M229.46,131.29c2.69,0,4.68,2,4.68,5s-2,5.08-4.68,5.08a4.21,4.21,0,0,1-3.91-2.31v6.81h-1.24V131.43h1.24v2.16A4.18,4.18,0,0,1,229.46,131.29Zm-.25,1.1a4,4,0,0,0,0,7.92c2.07,0,3.65-1.5,3.65-4S231.28,132.39,229.21,132.39Z"/><path class="fea7bece-eccc-4953-8db4-71be684a1806" d="M240.71,141.41a4.69,4.69,0,0,1-4.82-5.06c0-3.14,2-5.06,4.82-5.06a4.42,4.42,0,0,1,4.65,4.55,7.71,7.71,0,0,1,0,1h-8.16a3.43,3.43,0,0,0,3.55,3.51,3,3,0,0,0,3.17-2.19h1.33A4.32,4.32,0,0,1,240.71,141.41Zm-3.55-5.6h6.92a3.21,3.21,0,0,0-3.42-3.44A3.4,3.4,0,0,0,237.16,135.81Z"/><path class="fea7bece-eccc-4953-8db4-71be684a1806" d="M248.93,141.26h-1.26v-9.83h1.26v1.75a3.37,3.37,0,0,1,3.36-1.93v1.32H252c-1.64,0-3,.73-3,3.2Z"/><path class="fea7bece-eccc-4953-8db4-71be684a1806" d="M253.76,128.64a.92.92,0,1,1,1.83,0,.92.92,0,1,1-1.83,0Zm.28,2.79h1.27v9.83H254Z"/><path class="fea7bece-eccc-4953-8db4-71be684a1806" d="M272.48,135.65c0-2.18-1.13-3.3-2.88-3.3s-3,1.19-3,3.58v5.33h-1.25v-5.61c0-2.18-1.15-3.3-2.89-3.3s-3.05,1.19-3.05,3.58v5.33h-1.26v-9.83h1.26v1.69a3.51,3.51,0,0,1,3.26-1.87,3.65,3.65,0,0,1,3.64,2.41,3.58,3.58,0,0,1,3.55-2.41c2.17,0,3.9,1.37,3.9,4.25v5.76h-1.24Z"/><path class="fea7bece-eccc-4953-8db4-71be684a1806" d="M280.73,141.41a4.69,4.69,0,0,1-4.82-5.06c0-3.14,2-5.06,4.82-5.06a4.42,4.42,0,0,1,4.65,4.55,7.71,7.71,0,0,1,0,1h-8.15a3.43,3.43,0,0,0,3.54,3.51,3,3,0,0,0,3.17-2.19h1.33A4.32,4.32,0,0,1,280.73,141.41Zm-3.54-5.6h6.91a3.21,3.21,0,0,0-3.42-3.44A3.39,3.39,0,0,0,277.19,135.81Z"/><path class="fea7bece-eccc-4953-8db4-71be684a1806" d="M295.05,135.65c0-2.18-1.19-3.3-3-3.3S289,133.5,289,135.9v5.36h-1.26v-9.83H289v1.68a3.59,3.59,0,0,1,3.35-1.86c2.23,0,4,1.37,4,4.25v5.76h-1.24Z"/><path class="fea7bece-eccc-4953-8db4-71be684a1806" d="M299.17,132.49H297.8v-1.06h1.37V129h1.28v2.47h2.7v1.06h-2.7v6.11c0,1.2.41,1.58,1.55,1.58h1.15v1.08H301.8c-1.71,0-2.63-.7-2.63-2.66Z"/><path class="fea7bece-eccc-4953-8db4-71be684a1806" d="M308.82,131.29a4.11,4.11,0,0,1,3.89,2.3v-2.16H314v9.83h-1.26v-2.18a4.17,4.17,0,0,1-3.91,2.33c-2.68,0-4.68-2-4.68-5.08S306.12,131.29,308.82,131.29Zm.23,1.1c-2.07,0-3.65,1.44-3.65,3.94s1.58,4,3.65,4a4,4,0,0,0,0-7.92Z"/><path class="fea7bece-eccc-4953-8db4-71be684a1806" d="M316.79,127.94h1.26v13.32h-1.26Z"/><path class="fea7bece-eccc-4953-8db4-71be684a1806" d="M325.15,141.41a4.69,4.69,0,0,1-4.83-5.06c0-3.14,2-5.06,4.83-5.06a4.41,4.41,0,0,1,4.64,4.55,7.71,7.71,0,0,1,0,1H321.6a3.43,3.43,0,0,0,3.55,3.51,3,3,0,0,0,3.16-2.19h1.34A4.33,4.33,0,0,1,325.15,141.41Zm-3.55-5.6h6.91a3.21,3.21,0,0,0-3.42-3.44A3.39,3.39,0,0,0,321.6,135.81Z"/><path class="fea7bece-eccc-4953-8db4-71be684a1806" d="M335.39,141.41c-2.23,0-3.8-1.12-4-2.92h1.3c.11,1.08,1,1.85,2.65,1.85,1.4,0,2.19-.75,2.19-1.69,0-2.43-5.9-1-5.9-4.7,0-1.46,1.38-2.66,3.45-2.66s3.5,1.11,3.6,3h-1.26a2.09,2.09,0,0,0-2.37-1.92c-1.32,0-2.15.7-2.15,1.56,0,2.67,5.82,1.25,5.87,4.72C338.81,140.24,337.43,141.41,335.39,141.41Z"/><path class="fea7bece-eccc-4953-8db4-71be684a1806" d="M354.64,141.26h-1.26v-1.73a3.55,3.55,0,0,1-3.35,1.89c-2.24,0-4-1.36-4-4.24v-5.75h1.24V137c0,2.18,1.19,3.3,3,3.3s3.12-1.16,3.12-3.55v-5.35h1.26Z"/><path class="fea7bece-eccc-4953-8db4-71be684a1806" d="M360.84,141.41c-2.24,0-3.8-1.12-4-2.92h1.3c.11,1.08,1.05,1.85,2.65,1.85,1.4,0,2.19-.75,2.19-1.69,0-2.43-5.9-1-5.9-4.7,0-1.46,1.38-2.66,3.46-2.66s3.49,1.11,3.6,3h-1.26a2.11,2.11,0,0,0-2.38-1.92c-1.31,0-2.14.7-2.14,1.56,0,2.67,5.81,1.25,5.87,4.72C364.26,140.24,362.87,141.41,360.84,141.41Z"/><path class="fea7bece-eccc-4953-8db4-71be684a1806" d="M370.67,131.29a4.11,4.11,0,0,1,3.89,2.3v-2.16h1.26v9.83h-1.26v-2.18a4.16,4.16,0,0,1-3.91,2.33c-2.68,0-4.68-2-4.68-5.08S368,131.29,370.67,131.29Zm.24,1.1a3.59,3.59,0,0,0-3.66,3.94,3.67,3.67,0,1,0,3.66-3.94Z"/><path class="fea7bece-eccc-4953-8db4-71be684a1806" d="M386,135.65c0-2.18-1.19-3.3-3-3.3s-3.12,1.15-3.12,3.55v5.36h-1.26v-9.83h1.26v1.68a3.59,3.59,0,0,1,3.35-1.86c2.23,0,4,1.37,4,4.25v5.76H386Z"/><path class="fea7bece-eccc-4953-8db4-71be684a1806" d="M403.49,141.26h-1.26v-1.73a3.53,3.53,0,0,1-3.35,1.89c-2.23,0-4-1.36-4-4.24v-5.75h1.24V137c0,2.18,1.19,3.3,3,3.3s3.11-1.16,3.11-3.55v-5.35h1.26Z"/><path class="fea7bece-eccc-4953-8db4-71be684a1806" d="M413.68,135.65c0-2.18-1.19-3.3-3-3.3s-3.12,1.15-3.12,3.55v5.36h-1.26v-9.83h1.26v1.68a3.59,3.59,0,0,1,3.35-1.86c2.23,0,4,1.37,4,4.25v5.76h-1.24Z"/><path class="fea7bece-eccc-4953-8db4-71be684a1806" d="M421.78,131.29a4.11,4.11,0,0,1,3.89,2.3v-2.16h1.26v9.83h-1.26v-2.18a4.17,4.17,0,0,1-3.91,2.33c-2.68,0-4.68-2-4.68-5.08S419.08,131.29,421.78,131.29Zm.23,1.1c-2.07,0-3.65,1.44-3.65,3.94s1.58,4,3.65,4a4,4,0,0,0,0-7.92Z"/><path class="fea7bece-eccc-4953-8db4-71be684a1806" d="M99.13,157.94h1.26v13.32H99.13Z"/><path class="fea7bece-eccc-4953-8db4-71be684a1806" d="M107.53,171.41a5.06,5.06,0,1,1,5-5.06A4.79,4.79,0,0,1,107.53,171.41Zm0-1.1a4,4,0,0,0,0-7.92c-1.87,0-3.62,1.26-3.62,4S105.66,170.31,107.53,170.31Z"/><path class="fea7bece-eccc-4953-8db4-71be684a1806" d="M114.91,162.49h-1.37v-1.06h1.37V159h1.27v2.47h2.7v1.06h-2.7v6.11c0,1.2.42,1.58,1.55,1.58h1.15v1.08h-1.35c-1.71,0-2.62-.7-2.62-2.66Z"/><path class="fea7bece-eccc-4953-8db4-71be684a1806" d="M124.68,171.41a4.69,4.69,0,0,1-4.83-5.06c0-3.14,2-5.06,4.83-5.06a4.41,4.41,0,0,1,4.64,4.55c0,.4,0,.65,0,1h-8.16a3.43,3.43,0,0,0,3.55,3.51,3,3,0,0,0,3.17-2.19h1.33A4.33,4.33,0,0,1,124.68,171.41Zm-3.55-5.6H128a3.21,3.21,0,0,0-3.42-3.44A3.39,3.39,0,0,0,121.13,165.81Z"/><path class="fea7bece-eccc-4953-8db4-71be684a1806" d="M132.89,171.26h-1.26v-9.83h1.26v1.75a3.39,3.39,0,0,1,3.37-1.93v1.32h-.34c-1.64,0-3,.73-3,3.2Z"/><path class="fea7bece-eccc-4953-8db4-71be684a1806" d="M140.3,157.4v1.13l-3.69,2.15v-1Zm-2.29,4h1.26v9.83H138Z"/><path class="fea7bece-eccc-4953-8db4-71be684a1806" d="M146.18,161.29a4.11,4.11,0,0,1,3.89,2.3v-2.16h1.26v9.83h-1.26v-2.18a4.17,4.17,0,0,1-3.91,2.33c-2.68,0-4.68-2-4.68-5.08S143.48,161.29,146.18,161.29Zm.23,1.1c-2.07,0-3.65,1.44-3.65,3.94s1.58,4,3.65,4a4,4,0,0,0,0-7.92Z"/><path class="fea7bece-eccc-4953-8db4-71be684a1806" d="M164.28,161.29c2.69,0,4.69,2,4.69,5s-2,5.08-4.69,5.08a4.18,4.18,0,0,1-3.9-2.31v6.81h-1.24V161.43h1.24v2.16A4.16,4.16,0,0,1,164.28,161.29Zm-.25,1.1a4,4,0,1,0,3.66,3.94A3.59,3.59,0,0,0,164,162.39Z"/><path class="fea7bece-eccc-4953-8db4-71be684a1806" d="M175.41,161.29a4.11,4.11,0,0,1,3.89,2.3v-2.16h1.26v9.83H179.3v-2.18a4.17,4.17,0,0,1-3.91,2.33c-2.68,0-4.68-2-4.68-5.08S172.71,161.29,175.41,161.29Zm.23,1.1c-2.07,0-3.65,1.44-3.65,3.94s1.58,4,3.65,4a4,4,0,0,0,0-7.92Z"/><path class="fea7bece-eccc-4953-8db4-71be684a1806" d="M184.65,171.26h-1.26v-9.83h1.26v1.75a3.37,3.37,0,0,1,3.36-1.93v1.32h-.34c-1.64,0-3,.73-3,3.2Z"/><path class="fea7bece-eccc-4953-8db4-71be684a1806" d="M193.6,161.29a4.11,4.11,0,0,1,3.89,2.3v-2.16h1.26v9.83h-1.26v-2.18a4.17,4.17,0,0,1-3.91,2.33c-2.68,0-4.68-2-4.68-5.08S190.9,161.29,193.6,161.29Zm.23,1.1c-2.07,0-3.65,1.44-3.65,3.94s1.58,4,3.65,4a4,4,0,0,0,0-7.92Z"/><path class="fea7bece-eccc-4953-8db4-71be684a1806" d="M210.68,161.29a4.11,4.11,0,0,1,3.89,2.3v-2.16h1.26v9.83h-1.26v-2.18a4.16,4.16,0,0,1-3.91,2.33c-2.68,0-4.68-2-4.68-5.08S208,161.29,210.68,161.29Zm.24,1.1a3.59,3.59,0,0,0-3.66,3.94c0,2.48,1.58,4,3.66,4a4,4,0,0,0,0-7.92Z"/><path class="fea7bece-eccc-4953-8db4-71be684a1806" d="M222,171.41c-2.23,0-3.8-1.12-4-2.92h1.29c.11,1.08,1,1.85,2.65,1.85,1.41,0,2.2-.75,2.2-1.69,0-2.43-5.91-1-5.91-4.7,0-1.46,1.39-2.66,3.46-2.66s3.49,1.11,3.6,3h-1.26a2.1,2.1,0,0,0-2.38-1.92c-1.31,0-2.14.7-2.14,1.56,0,2.67,5.82,1.25,5.87,4.72C225.46,170.24,224.07,171.41,222,171.41Z"/><path class="fea7bece-eccc-4953-8db4-71be684a1806" d="M227.49,158.64a.92.92,0,1,1,1.83,0,.92.92,0,1,1-1.83,0Zm.28,2.79H229v9.83h-1.26Z"/><path class="fea7bece-eccc-4953-8db4-71be684a1806" d="M236,161.29a4.14,4.14,0,0,1,3.89,2.28v-2.14h1.26v10.08a4.35,4.35,0,0,1-4.59,4.58c-2.54,0-4.31-1.3-4.7-3.35h1.24a3.36,3.36,0,0,0,3.46,2.25,3.21,3.21,0,0,0,3.33-3.48v-2.43a4.16,4.16,0,0,1-3.89,2.33c-2.7,0-4.7-2-4.7-5.08S233.25,161.29,236,161.29Zm.23,1.1c-2.07,0-3.65,1.44-3.65,3.94s1.58,4,3.65,4a4,4,0,0,0,0-7.92Z"/><path class="fea7bece-eccc-4953-8db4-71be684a1806" d="M251.29,165.65c0-2.18-1.19-3.3-3-3.3s-3.11,1.15-3.11,3.55v5.36h-1.26v-9.83h1.26v1.68a3.58,3.58,0,0,1,3.34-1.86c2.24,0,4,1.37,4,4.25v5.76h-1.24Z"/><path class="fea7bece-eccc-4953-8db4-71be684a1806" d="M259.39,161.29a4.11,4.11,0,0,1,3.89,2.3v-2.16h1.26v9.83h-1.26v-2.18a4.14,4.14,0,0,1-3.9,2.33c-2.69,0-4.69-2-4.69-5.08S256.69,161.29,259.39,161.29Zm.24,1.1a3.59,3.59,0,0,0-3.66,3.94,3.67,3.67,0,1,0,3.66-3.94Z"/><path class="fea7bece-eccc-4953-8db4-71be684a1806" d="M268.63,171.26h-1.26v-9.83h1.26v1.75a3.39,3.39,0,0,1,3.37-1.93v1.32h-.34c-1.64,0-3,.73-3,3.2Z"/><path class="fea7bece-eccc-4953-8db4-71be684a1806" d="M282.94,161.29a4.11,4.11,0,0,1,3.89,2.3v-2.16h1.26v9.83h-1.26v-2.18a4.14,4.14,0,0,1-3.9,2.33c-2.69,0-4.69-2-4.69-5.08S280.24,161.29,282.94,161.29Zm.24,1.1a3.59,3.59,0,0,0-3.66,3.94,3.67,3.67,0,1,0,3.66-3.94Z"/><path class="fea7bece-eccc-4953-8db4-71be684a1806" d="M300.1,161.29a4.24,4.24,0,0,1,4.52,3.35h-1.35a3,3,0,0,0-3.17-2.27c-1.93,0-3.5,1.31-3.5,4s1.57,4,3.5,4a3,3,0,0,0,3.17-2.28h1.35a4.32,4.32,0,0,1-4.52,3.35c-2.78,0-4.78-1.95-4.78-5.06S297.32,161.29,300.1,161.29Z"/><path class="fea7bece-eccc-4953-8db4-71be684a1806" d="M310.91,161.29a4.11,4.11,0,0,1,3.89,2.3v-2.16h1.26v9.83H314.8v-2.18a4.15,4.15,0,0,1-3.91,2.33c-2.68,0-4.68-2-4.68-5.08S308.21,161.29,310.91,161.29Zm.24,1.1a3.59,3.59,0,0,0-3.66,3.94,3.67,3.67,0,1,0,3.66-3.94Z"/><path class="fea7bece-eccc-4953-8db4-71be684a1806" d="M323.06,161.29a4.27,4.27,0,0,1,3.87,2.27v-5.62h1.26v13.32h-1.26v-2.19a4.12,4.12,0,0,1-3.89,2.34c-2.7,0-4.7-2-4.7-5.08S320.34,161.29,323.06,161.29Zm.21,1.1c-2.07,0-3.65,1.44-3.65,3.94s1.58,4,3.65,4a4,4,0,0,0,0-7.92Z"/><path class="fea7bece-eccc-4953-8db4-71be684a1806" d="M335.17,161.29a4.11,4.11,0,0,1,3.89,2.3v-2.16h1.26v9.83h-1.26v-2.18a4.17,4.17,0,0,1-3.91,2.33c-2.68,0-4.68-2-4.68-5.08S332.47,161.29,335.17,161.29Zm.23,1.1c-2.07,0-3.65,1.44-3.65,3.94s1.58,4,3.65,4a4,4,0,0,0,0-7.92Z"/><path class="fea7bece-eccc-4953-8db4-71be684a1806" d="M347.84,158.64a.92.92,0,1,1,1.84,0,.92.92,0,1,1-1.84,0Zm.29,2.79h1.26v9.83h-1.26Z"/><path class="fea7bece-eccc-4953-8db4-71be684a1806" d="M359.56,165.65c0-2.18-1.19-3.3-3-3.3s-3.12,1.15-3.12,3.55v5.36h-1.26v-9.83h1.26v1.68a3.61,3.61,0,0,1,3.35-1.86c2.24,0,4,1.37,4,4.25v5.76h-1.24Z"/><path class="fea7bece-eccc-4953-8db4-71be684a1806" d="M367.68,161.29a4.27,4.27,0,0,1,3.87,2.27v-5.62h1.26v13.32h-1.26v-2.19a4.12,4.12,0,0,1-3.89,2.34c-2.7,0-4.7-2-4.7-5.08S365,161.29,367.68,161.29Zm.21,1.1c-2.07,0-3.65,1.44-3.65,3.94s1.58,4,3.65,4a4,4,0,0,0,0-7.92Z"/><path class="fea7bece-eccc-4953-8db4-71be684a1806" d="M375.36,158.64a.92.92,0,0,1,1.84,0,.92.92,0,1,1-1.84,0Zm.29,2.79h1.26v9.83h-1.26Z"/><path class="fea7bece-eccc-4953-8db4-71be684a1806" d="M379.91,161.43l3.31,8.61,3.31-8.61h1.34l-3.95,9.83H382.5l-3.94-9.83Z"/><path class="fea7bece-eccc-4953-8db4-71be684a1806" d="M389.25,158.64a.92.92,0,1,1,1.84,0,.92.92,0,1,1-1.84,0Zm.29,2.79h1.26v9.83h-1.26Z"/><path class="fea7bece-eccc-4953-8db4-71be684a1806" d="M397.73,161.29a4.27,4.27,0,0,1,3.87,2.27v-5.62h1.26v13.32H401.6v-2.19a4.12,4.12,0,0,1-3.89,2.34c-2.7,0-4.7-2-4.7-5.08S395,161.29,397.73,161.29Zm.21,1.1c-2.07,0-3.65,1.44-3.65,3.94s1.58,4,3.65,4a4,4,0,0,0,0-7.92Z"/><path class="fea7bece-eccc-4953-8db4-71be684a1806" d="M414.22,171.26H413v-1.73a3.54,3.54,0,0,1-3.35,1.89c-2.24,0-4-1.36-4-4.24v-5.75h1.24V167c0,2.18,1.19,3.3,3,3.3s3.12-1.16,3.12-3.55v-5.35h1.26Z"/><path class="fea7bece-eccc-4953-8db4-71be684a1806" d="M421.37,171.41a5.06,5.06,0,1,1,4.95-5.06A4.8,4.8,0,0,1,421.37,171.41Zm0-1.1a3.61,3.61,0,0,0,3.65-4c0-2.7-1.76-4-3.64-4s-3.62,1.26-3.62,4S419.49,170.31,421.37,170.31Z"/><path class="fea7bece-eccc-4953-8db4-71be684a1806" d="M103.27,191.29a4.27,4.27,0,0,1,3.87,2.27v-5.62h1.26v13.32h-1.26v-2.19a4.1,4.1,0,0,1-3.89,2.34c-2.7,0-4.7-2-4.7-5.08S100.55,191.29,103.27,191.29Zm.22,1.1a3.59,3.59,0,0,0-3.66,3.94,3.67,3.67,0,1,0,3.66-3.94Z"/><path class="fea7bece-eccc-4953-8db4-71be684a1806" d="M115.51,201.41a4.69,4.69,0,0,1-4.83-5.06c0-3.14,2-5.06,4.83-5.06a4.41,4.41,0,0,1,4.64,4.55c0,.4,0,.65,0,1H112a3.43,3.43,0,0,0,3.55,3.51,3,3,0,0,0,3.17-2.19H120A4.33,4.33,0,0,1,115.51,201.41Zm-3.55-5.6h6.91a3.21,3.21,0,0,0-3.42-3.44A3.39,3.39,0,0,0,112,195.81Z"/><path class="fea7bece-eccc-4953-8db4-71be684a1806" d="M127.38,187.94h1.27v13.32h-1.27Z"/><path class="fea7bece-eccc-4953-8db4-71be684a1806" d="M135.61,191.29a4.11,4.11,0,0,1,3.89,2.3v-2.16h1.26v9.83H139.5v-2.18a4.17,4.17,0,0,1-3.91,2.33c-2.68,0-4.68-2-4.68-5.08S132.91,191.29,135.61,191.29Zm.23,1.1c-2.07,0-3.65,1.44-3.65,3.94s1.58,4,3.65,4a4,4,0,0,0,0-7.92Z"/><path class="fea7bece-eccc-4953-8db4-71be684a1806" d="M162.94,195.65c0-2.18-1.14-3.3-2.88-3.3s-3.05,1.19-3.05,3.58v5.33h-1.24v-5.61c0-2.18-1.15-3.3-2.9-3.3s-3,1.19-3,3.58v5.33h-1.26v-9.83h1.26v1.69a3.51,3.51,0,0,1,3.26-1.87,3.63,3.63,0,0,1,3.63,2.41,3.58,3.58,0,0,1,3.55-2.41c2.18,0,3.91,1.37,3.91,4.25v5.76h-1.24Z"/><path class="fea7bece-eccc-4953-8db4-71be684a1806" d="M175.41,201.26h-1.26v-1.73a3.54,3.54,0,0,1-3.35,1.89c-2.23,0-4-1.36-4-4.24v-5.75H168V197c0,2.18,1.19,3.3,3,3.3s3.12-1.16,3.12-3.55v-5.35h1.26Z"/><path class="fea7bece-eccc-4953-8db4-71be684a1806" d="M182.5,201.41a4.69,4.69,0,0,1-4.82-5.06c0-3.14,2-5.06,4.82-5.06a4.42,4.42,0,0,1,4.65,4.55,7.71,7.71,0,0,1,0,1H179a3.43,3.43,0,0,0,3.54,3.51,3,3,0,0,0,3.17-2.19H187A4.33,4.33,0,0,1,182.5,201.41Zm-3.54-5.6h6.91a3.21,3.21,0,0,0-3.42-3.44A3.39,3.39,0,0,0,179,195.81Z"/><path class="fea7bece-eccc-4953-8db4-71be684a1806" d="M192.75,201.41c-2.23,0-3.8-1.12-4-2.92h1.3c.11,1.08,1,1.85,2.65,1.85,1.4,0,2.19-.75,2.19-1.69,0-2.43-5.9-1-5.9-4.7,0-1.46,1.38-2.66,3.45-2.66s3.5,1.11,3.6,3h-1.26a2.09,2.09,0,0,0-2.37-1.92c-1.32,0-2.14.7-2.14,1.56,0,2.67,5.81,1.25,5.86,4.72C196.17,200.24,194.79,201.41,192.75,201.41Z"/><path class="fea7bece-eccc-4953-8db4-71be684a1806" d="M198.74,192.49h-1.37v-1.06h1.37V189H200v2.47h2.7v1.06H200v6.11c0,1.2.42,1.58,1.55,1.58h1.15v1.08h-1.35c-1.71,0-2.62-.7-2.62-2.66Z"/><path class="fea7bece-eccc-4953-8db4-71be684a1806" d="M205.82,201.26h-1.26v-9.83h1.26v1.75a3.37,3.37,0,0,1,3.36-1.93v1.32h-.34c-1.64,0-3,.73-3,3.2Z"/><path class="fea7bece-eccc-4953-8db4-71be684a1806" d="M214.77,191.29a4.11,4.11,0,0,1,3.89,2.3v-2.16h1.26v9.83h-1.26v-2.18a4.17,4.17,0,0,1-3.91,2.33c-2.68,0-4.68-2-4.68-5.08S212.07,191.29,214.77,191.29Zm.23,1.1c-2.07,0-3.65,1.44-3.65,3.94s1.58,4,3.65,4a4,4,0,0,0,0-7.92Z"/><path class="fea7bece-eccc-4953-8db4-71be684a1806" d="M232,201.41a4.69,4.69,0,0,1-4.83-5.06c0-3.14,2-5.06,4.83-5.06a4.41,4.41,0,0,1,4.64,4.55c0,.4,0,.65,0,1h-8.16a3.43,3.43,0,0,0,3.55,3.51,3.06,3.06,0,0,0,3.17-2.19h1.33A4.33,4.33,0,0,1,232,201.41Zm-3.55-5.6h6.91a3.21,3.21,0,0,0-3.42-3.44A3.39,3.39,0,0,0,228.43,195.81Z"/><path class="fea7bece-eccc-4953-8db4-71be684a1806" d="M246.29,195.65c0-2.18-1.18-3.3-3-3.3s-3.12,1.15-3.12,3.55v5.36h-1.26v-9.83h1.26v1.68a3.59,3.59,0,0,1,3.35-1.86c2.23,0,4,1.37,4,4.25v5.76h-1.25Z"/><path class="fea7bece-eccc-4953-8db4-71be684a1806" d="M263.77,201.26h-1.26v-1.73a3.53,3.53,0,0,1-3.35,1.89c-2.23,0-4-1.36-4-4.24v-5.75h1.24V197c0,2.18,1.19,3.3,3,3.3s3.11-1.16,3.11-3.55v-5.35h1.26Z"/><path class="fea7bece-eccc-4953-8db4-71be684a1806" d="M274,195.65c0-2.18-1.19-3.3-3-3.3s-3.12,1.15-3.12,3.55v5.36h-1.26v-9.83h1.26v1.68a3.59,3.59,0,0,1,3.35-1.86c2.23,0,4,1.37,4,4.25v5.76H274Z"/><path class="fea7bece-eccc-4953-8db4-71be684a1806" d="M282.24,201.41a5.06,5.06,0,1,1,4.95-5.06A4.8,4.8,0,0,1,282.24,201.41Zm0-1.1a3.61,3.61,0,0,0,3.65-4c0-2.7-1.76-4-3.63-4s-3.62,1.26-3.62,4S280.37,200.31,282.24,200.31Z"/><path class="fea7bece-eccc-4953-8db4-71be684a1806" d="M298.57,191.29a4.27,4.27,0,0,1,3.87,2.27v-5.62h1.26v13.32h-1.26v-2.19a4.12,4.12,0,0,1-3.89,2.34c-2.7,0-4.7-2-4.7-5.08S295.85,191.29,298.57,191.29Zm.21,1.1c-2.07,0-3.65,1.44-3.65,3.94s1.58,4,3.65,4a4,4,0,0,0,0-7.92Z"/><path class="fea7bece-eccc-4953-8db4-71be684a1806" d="M310.8,201.41a4.69,4.69,0,0,1-4.82-5.06c0-3.14,2-5.06,4.82-5.06a4.42,4.42,0,0,1,4.65,4.55,7.71,7.71,0,0,1,0,1h-8.16a3.43,3.43,0,0,0,3.55,3.51,3,3,0,0,0,3.17-2.19h1.33A4.32,4.32,0,0,1,310.8,201.41Zm-3.55-5.6h6.92a3.21,3.21,0,0,0-3.42-3.44A3.4,3.4,0,0,0,307.25,195.81Z"/><path class="fea7bece-eccc-4953-8db4-71be684a1806" d="M322.68,187.94h1.26v13.32h-1.26Z"/><path class="fea7bece-eccc-4953-8db4-71be684a1806" d="M331.08,201.41a5.06,5.06,0,1,1,5-5.06A4.8,4.8,0,0,1,331.08,201.41Zm0-1.1a3.61,3.61,0,0,0,3.66-4c0-2.7-1.76-4-3.64-4s-3.62,1.26-3.62,4S329.21,200.31,331.08,200.31Z"/><path class="fea7bece-eccc-4953-8db4-71be684a1806" d="M341.59,201.41c-2.23,0-3.8-1.12-4-2.92h1.3c.1,1.08,1,1.85,2.64,1.85,1.41,0,2.2-.75,2.2-1.69,0-2.43-5.91-1-5.91-4.7,0-1.46,1.39-2.66,3.46-2.66s3.49,1.11,3.6,3h-1.26a2.1,2.1,0,0,0-2.38-1.92c-1.31,0-2.14.7-2.14,1.56,0,2.67,5.82,1.25,5.87,4.72C345,200.24,343.63,201.41,341.59,201.41Z"/><path class="fea7bece-eccc-4953-8db4-71be684a1806" d="M356.46,191.29a4.27,4.27,0,0,1,3.87,2.27v-5.62h1.26v13.32h-1.26v-2.19a4.11,4.11,0,0,1-3.89,2.34c-2.7,0-4.7-2-4.7-5.08S353.74,191.29,356.46,191.29Zm.21,1.1c-2.07,0-3.65,1.44-3.65,3.94s1.58,4,3.65,4a4,4,0,0,0,0-7.92Z"/><path class="fea7bece-eccc-4953-8db4-71be684a1806" d="M368.75,201.41a5.06,5.06,0,1,1,4.95-5.06A4.8,4.8,0,0,1,368.75,201.41Zm0-1.1a3.61,3.61,0,0,0,3.65-4c0-2.7-1.76-4-3.63-4s-3.62,1.26-3.62,4S366.88,200.31,368.75,200.31Z"/><path class="fea7bece-eccc-4953-8db4-71be684a1806" d="M379.26,201.41c-2.24,0-3.8-1.12-4-2.92h1.3c.11,1.08,1.05,1.85,2.65,1.85,1.4,0,2.19-.75,2.19-1.69,0-2.43-5.9-1-5.9-4.7,0-1.46,1.38-2.66,3.45-2.66s3.5,1.11,3.61,3h-1.26a2.11,2.11,0,0,0-2.38-1.92c-1.31,0-2.14.7-2.14,1.56,0,2.67,5.81,1.25,5.87,4.72C382.68,200.24,381.29,201.41,379.26,201.41Z"/><path class="fea7bece-eccc-4953-8db4-71be684a1806" d="M103.25,221.29a4.13,4.13,0,0,1,3.89,2.28v-2.14h1.26v10.08a4.35,4.35,0,0,1-4.59,4.58c-2.54,0-4.3-1.3-4.7-3.35h1.24a3.38,3.38,0,0,0,3.46,2.25,3.21,3.21,0,0,0,3.33-3.48v-2.43a4.14,4.14,0,0,1-3.89,2.33c-2.7,0-4.7-2-4.7-5.08S100.55,221.29,103.25,221.29Zm.24,1.1a3.59,3.59,0,0,0-3.66,3.94,3.67,3.67,0,1,0,3.66-3.94Z"/><path class="fea7bece-eccc-4953-8db4-71be684a1806" d="M112.49,231.26h-1.26v-9.83h1.26v1.75a3.38,3.38,0,0,1,3.37-1.93v1.32h-.34c-1.64,0-3,.73-3,3.2Z"/><path class="fea7bece-eccc-4953-8db4-71be684a1806" d="M126.17,231.26h-1.26v-1.73a3.53,3.53,0,0,1-3.35,1.89c-2.23,0-4-1.36-4-4.24v-5.75h1.24V227c0,2.18,1.19,3.3,3,3.3s3.11-1.16,3.11-3.55v-5.35h1.26Z"/><path class="fea7bece-eccc-4953-8db4-71be684a1806" d="M134.14,221.29c2.68,0,4.68,2,4.68,5s-2,5.08-4.68,5.08a4.21,4.21,0,0,1-3.91-2.31v6.81H129V221.43h1.24v2.16A4.18,4.18,0,0,1,134.14,221.29Zm-.25,1.1a4,4,0,0,0,0,7.92,3.64,3.64,0,0,0,3.66-4A3.59,3.59,0,0,0,133.89,222.39Z"/><path class="fea7bece-eccc-4953-8db4-71be684a1806" d="M145.45,231.41a5.06,5.06,0,1,1,5-5.06A4.8,4.8,0,0,1,145.45,231.41Zm0-1.1a3.61,3.61,0,0,0,3.65-4c0-2.7-1.76-4-3.64-4s-3.62,1.26-3.62,4S143.57,230.31,145.45,230.31Z"/><path class="fea7bece-eccc-4953-8db4-71be684a1806" d="M156,231.41c-2.23,0-3.8-1.12-4-2.92h1.3c.11,1.08,1,1.85,2.64,1.85,1.41,0,2.2-.75,2.2-1.69,0-2.43-5.9-1-5.9-4.7,0-1.46,1.38-2.66,3.45-2.66s3.5,1.11,3.6,3H158a2.09,2.09,0,0,0-2.37-1.92c-1.32,0-2.15.7-2.15,1.56,0,2.67,5.82,1.25,5.87,4.72C159.37,230.24,158,231.41,156,231.41Z"/><path class="fea7bece-eccc-4953-8db4-71be684a1806" d="M161.78,223.52a.91.91,0,0,1-.91-.94.91.91,0,0,1,1.82,0A.91.91,0,0,1,161.78,223.52Zm0,7.83a.91.91,0,0,1-.91-.93.91.91,0,1,1,1.82,0A.91.91,0,0,1,161.78,231.35Z"/><path class="fea7bece-eccc-4953-8db4-71be684a1806" d="M174.08,231.41a4.69,4.69,0,0,1-4.83-5.06c0-3.14,2-5.06,4.83-5.06a4.42,4.42,0,0,1,4.65,4.55,7.71,7.71,0,0,1,0,1h-8.16a3.43,3.43,0,0,0,3.55,3.51,3,3,0,0,0,3.17-2.19h1.33A4.32,4.32,0,0,1,174.08,231.41Zm-3.55-5.6h6.92a3.22,3.22,0,0,0-3.42-3.44A3.4,3.4,0,0,0,170.53,225.81Z"/><path class="fea7bece-eccc-4953-8db4-71be684a1806" d="M181,217.94h1.26v13.32H181Z"/><path class="fea7bece-eccc-4953-8db4-71be684a1806" d="M190.44,222.49h-1.37v-1.06h1.37V219h1.28v2.47h2.7v1.06h-2.7v6.11c0,1.2.41,1.58,1.55,1.58h1.15v1.08h-1.35c-1.71,0-2.63-.7-2.63-2.66Z"/><path class="fea7bece-eccc-4953-8db4-71be684a1806" d="M197.52,231.26h-1.26v-9.83h1.26v1.75a3.39,3.39,0,0,1,3.37-1.93v1.32h-.34c-1.64,0-3,.73-3,3.2Z"/><path class="fea7bece-eccc-4953-8db4-71be684a1806" d="M206.47,221.29a4.11,4.11,0,0,1,3.89,2.3v-2.16h1.26v9.83h-1.26v-2.18a4.14,4.14,0,0,1-3.9,2.33c-2.69,0-4.69-2-4.69-5.08S203.77,221.29,206.47,221.29Zm.24,1.1a3.59,3.59,0,0,0-3.66,3.94,3.67,3.67,0,1,0,3.66-3.94Z"/><path class="fea7bece-eccc-4953-8db4-71be684a1806" d="M214.75,222.49h-1.37v-1.06h1.37V219H216v2.47h2.7v1.06H216v6.11c0,1.2.41,1.58,1.55,1.58h1.15v1.08h-1.35c-1.71,0-2.63-.7-2.63-2.66Z"/><path class="fea7bece-eccc-4953-8db4-71be684a1806" d="M224.4,221.29a4.11,4.11,0,0,1,3.89,2.3v-2.16h1.26v9.83h-1.26v-2.18a4.17,4.17,0,0,1-3.91,2.33c-2.68,0-4.68-2-4.68-5.08S221.7,221.29,224.4,221.29Zm.23,1.1c-2.07,0-3.65,1.44-3.65,3.94s1.58,4,3.65,4a4,4,0,0,0,0-7.92Z"/><path class="fea7bece-eccc-4953-8db4-71be684a1806" d="M236.54,221.29a4.26,4.26,0,0,1,3.87,2.27v-5.62h1.27v13.32h-1.27v-2.19a4.1,4.1,0,0,1-3.89,2.34c-2.7,0-4.69-2-4.69-5.08S233.82,221.29,236.54,221.29Zm.22,1.1a3.59,3.59,0,0,0-3.66,3.94,3.67,3.67,0,1,0,3.66-3.94Z"/><path class="fea7bece-eccc-4953-8db4-71be684a1806" d="M248.83,231.41a5.06,5.06,0,1,1,5-5.06A4.8,4.8,0,0,1,248.83,231.41Zm0-1.1a4,4,0,0,0,0-7.92c-1.87,0-3.62,1.26-3.62,4S247,230.31,248.83,230.31Z"/><path class="fea7bece-eccc-4953-8db4-71be684a1806" d="M265.32,231.41a5.06,5.06,0,1,1,4.95-5.06A4.8,4.8,0,0,1,265.32,231.41Zm0-1.1a4,4,0,0,0,0-7.92c-1.87,0-3.62,1.26-3.62,4S263.45,230.31,265.32,230.31Z"/><path class="fea7bece-eccc-4953-8db4-71be684a1806" d="M281.76,231.41a4.69,4.69,0,0,1-4.83-5.06c0-3.14,2-5.06,4.83-5.06a4.41,4.41,0,0,1,4.64,4.55,7.71,7.71,0,0,1,0,1h-8.15a3.43,3.43,0,0,0,3.55,3.51,3,3,0,0,0,3.16-2.19h1.34A4.33,4.33,0,0,1,281.76,231.41Zm-3.55-5.6h6.91a3.21,3.21,0,0,0-3.42-3.44A3.39,3.39,0,0,0,278.21,225.81Z"/><path class="fea7bece-eccc-4953-8db4-71be684a1806" d="M288.7,217.94H290v13.32H288.7Z"/><path class="fea7bece-eccc-4953-8db4-71be684a1806" d="M301.9,221.29a4.27,4.27,0,0,1,3.87,2.27v-5.62H307v13.32h-1.26v-2.19a4.12,4.12,0,0,1-3.89,2.34c-2.7,0-4.7-2-4.7-5.08S299.18,221.29,301.9,221.29Zm.21,1.1c-2.07,0-3.65,1.44-3.65,3.94s1.58,4,3.65,4a4,4,0,0,0,0-7.92Z"/><path class="fea7bece-eccc-4953-8db4-71be684a1806" d="M314.13,231.41a4.69,4.69,0,0,1-4.82-5.06c0-3.14,2-5.06,4.82-5.06a4.42,4.42,0,0,1,4.65,4.55,7.71,7.71,0,0,1,0,1h-8.15a3.43,3.43,0,0,0,3.54,3.51,3,3,0,0,0,3.17-2.19h1.33A4.32,4.32,0,0,1,314.13,231.41Zm-3.54-5.6h6.91a3.21,3.21,0,0,0-3.42-3.44A3.39,3.39,0,0,0,310.59,225.81Z"/><path class="fea7bece-eccc-4953-8db4-71be684a1806" d="M330.21,221.29a4.24,4.24,0,0,1,4.52,3.35h-1.35a3,3,0,0,0-3.17-2.27c-1.93,0-3.5,1.31-3.5,4s1.57,4,3.5,4a3,3,0,0,0,3.17-2.28h1.35a4.32,4.32,0,0,1-4.52,3.35c-2.78,0-4.77-1.95-4.77-5.06S327.43,221.29,330.21,221.29Z"/><path class="fea7bece-eccc-4953-8db4-71be684a1806" d="M341.2,231.41a5.06,5.06,0,1,1,4.95-5.06A4.79,4.79,0,0,1,341.2,231.41Zm0-1.1a4,4,0,0,0,0-7.92c-1.87,0-3.62,1.26-3.62,4S339.33,230.31,341.2,230.31Z"/><path class="fea7bece-eccc-4953-8db4-71be684a1806" d="M355.8,225.65c0-2.18-1.19-3.3-3-3.3s-3.12,1.15-3.12,3.55v5.36h-1.26v-9.83h1.26v1.68a3.59,3.59,0,0,1,3.35-1.86c2.24,0,4,1.37,4,4.25v5.76H355.8Z"/><path class="fea7bece-eccc-4953-8db4-71be684a1806" d="M359.92,222.49h-1.37v-1.06h1.37V219h1.28v2.47h2.7v1.06h-2.7v6.11c0,1.2.41,1.58,1.54,1.58h1.16v1.08h-1.35c-1.71,0-2.63-.7-2.63-2.66Z"/><path class="fea7bece-eccc-4953-8db4-71be684a1806" d="M367,231.26h-1.26v-9.83H367v1.75a3.38,3.38,0,0,1,3.37-1.93v1.32H370c-1.63,0-3,.73-3,3.2Z"/><path class="fea7bece-eccc-4953-8db4-71be684a1806" d="M376.1,231.41a5.06,5.06,0,1,1,4.95-5.06A4.8,4.8,0,0,1,376.1,231.41Zm0-1.1a3.61,3.61,0,0,0,3.65-4c0-2.7-1.76-4-3.64-4s-3.62,1.26-3.62,4S374.22,230.31,376.1,230.31Z"/><path class="fea7bece-eccc-4953-8db4-71be684a1806" d="M383.32,217.94h1.26v13.32h-1.26Z"/><path class="fea7bece-eccc-4953-8db4-71be684a1806" d="M387.84,231.35a.91.91,0,0,1-.92-.93.91.91,0,1,1,1.82,0A.91.91,0,0,1,387.84,231.35Z"/><path class="fea7bece-eccc-4953-8db4-71be684a1806" d="M402.4,219.7h-5.31v4.7h4.77v1h-4.77v4.77h5.31v1h-6.57v-12.6h6.57Z"/><path class="fea7bece-eccc-4953-8db4-71be684a1806" d="M407.83,231.41c-2.23,0-3.8-1.12-4-2.92h1.3c.11,1.08,1,1.85,2.65,1.85,1.4,0,2.19-.75,2.19-1.69,0-2.43-5.9-1-5.9-4.7,0-1.46,1.38-2.66,3.45-2.66s3.5,1.11,3.6,3H409.9a2.09,2.09,0,0,0-2.37-1.92c-1.32,0-2.15.7-2.15,1.56,0,2.67,5.82,1.25,5.87,4.72C411.25,230.24,409.87,231.41,407.83,231.41Z"/><path class="fea7bece-eccc-4953-8db4-71be684a1806" d="M413.82,222.49h-1.37v-1.06h1.37V219h1.27v2.47h2.7v1.06h-2.7v6.11c0,1.2.42,1.58,1.55,1.58h1.15v1.08h-1.35c-1.71,0-2.62-.7-2.62-2.66Z"/><path class="fea7bece-eccc-4953-8db4-71be684a1806" d="M423.46,221.29a4.11,4.11,0,0,1,3.89,2.3v-2.16h1.26v9.83h-1.26v-2.18a4.17,4.17,0,0,1-3.91,2.33c-2.68,0-4.68-2-4.68-5.08S420.76,221.29,423.46,221.29Zm.23,1.1c-2.07,0-3.65,1.44-3.65,3.94s1.58,4,3.65,4a4,4,0,0,0,0-7.92Z"/><path class="fea7bece-eccc-4953-8db4-71be684a1806" d="M103.25,251.29a4.11,4.11,0,0,1,3.89,2.3v-2.16h1.26v9.83h-1.26v-2.18a4.15,4.15,0,0,1-3.91,2.33c-2.68,0-4.68-2-4.68-5.08S100.55,251.29,103.25,251.29Zm.24,1.1a3.59,3.59,0,0,0-3.66,3.94,3.67,3.67,0,1,0,3.66-3.94Z"/><path class="fea7bece-eccc-4953-8db4-71be684a1806" d="M114.61,261.41c-2.23,0-3.8-1.12-4-2.92h1.29c.11,1.08,1,1.85,2.65,1.85,1.41,0,2.2-.75,2.2-1.69,0-2.43-5.91-1-5.91-4.7,0-1.46,1.39-2.66,3.46-2.66s3.49,1.11,3.6,3h-1.26a2.1,2.1,0,0,0-2.38-1.92c-1.31,0-2.14.7-2.14,1.56,0,2.67,5.82,1.25,5.87,4.72C118,260.24,116.64,261.41,114.61,261.41Z"/><path class="fea7bece-eccc-4953-8db4-71be684a1806" d="M120.06,248.64a.92.92,0,1,1,1.83,0,.92.92,0,1,1-1.83,0Zm.29,2.79h1.26v9.83h-1.26Z"/><path class="fea7bece-eccc-4953-8db4-71be684a1806" d="M128.52,251.29a4.14,4.14,0,0,1,3.89,2.28v-2.14h1.26v10.08a4.35,4.35,0,0,1-4.59,4.58c-2.54,0-4.31-1.3-4.7-3.35h1.24a3.36,3.36,0,0,0,3.46,2.25,3.21,3.21,0,0,0,3.33-3.48v-2.43a4.16,4.16,0,0,1-3.89,2.33c-2.7,0-4.7-2-4.7-5.08S125.82,251.29,128.52,251.29Zm.23,1.1c-2.07,0-3.65,1.44-3.65,3.94s1.58,4,3.65,4a4,4,0,0,0,0-7.92Z"/><path class="fea7bece-eccc-4953-8db4-71be684a1806" d="M143.86,255.65c0-2.18-1.19-3.3-3-3.3s-3.11,1.15-3.11,3.55v5.36H136.5v-9.83h1.26v1.68a3.59,3.59,0,0,1,3.35-1.86c2.23,0,4,1.37,4,4.25v5.76h-1.24Z"/><path class="fea7bece-eccc-4953-8db4-71be684a1806" d="M152,251.29a4.1,4.1,0,0,1,3.89,2.3v-2.16h1.26v9.83h-1.26v-2.18a4.14,4.14,0,0,1-3.9,2.33c-2.69,0-4.68-2-4.68-5.08S149.26,251.29,152,251.29Zm.24,1.1a3.59,3.59,0,0,0-3.66,3.94,3.67,3.67,0,1,0,3.66-3.94Z"/><path class="fea7bece-eccc-4953-8db4-71be684a1806" d="M164.16,251.29a4.24,4.24,0,0,1,4.52,3.35h-1.35a3,3,0,0,0-3.17-2.27c-1.92,0-3.49,1.31-3.49,4s1.57,4,3.49,4a3,3,0,0,0,3.17-2.28h1.35a4.31,4.31,0,0,1-4.52,3.35c-2.77,0-4.77-2-4.77-5.06S161.39,251.29,164.16,251.29Z"/><path class="fea7bece-eccc-4953-8db4-71be684a1806" d="M170.6,248.64a.92.92,0,1,1,1.84,0,.92.92,0,1,1-1.84,0Zm.29,2.79h1.26v9.83h-1.26Z"/><path class="fea7bece-eccc-4953-8db4-71be684a1806" d="M179.24,261.41a5.06,5.06,0,1,1,4.95-5.06A4.79,4.79,0,0,1,179.24,261.41Zm0-1.1a4,4,0,0,0,0-7.92c-1.87,0-3.62,1.26-3.62,4S177.37,260.31,179.24,260.31Zm1.73-13v1.13l-3.69,2.15v-1Z"/><path class="fea7bece-eccc-4953-8db4-71be684a1806" d="M193.84,255.65c0-2.18-1.19-3.3-3-3.3s-3.12,1.15-3.12,3.55v5.36h-1.26v-9.83h1.26v1.68a3.59,3.59,0,0,1,3.35-1.86c2.24,0,4,1.37,4,4.25v5.76h-1.24Z"/><path class="fea7bece-eccc-4953-8db4-71be684a1806" d="M206.19,261.41c-2.24,0-3.8-1.12-4-2.92h1.3c.11,1.08,1,1.85,2.65,1.85,1.4,0,2.19-.75,2.19-1.69,0-2.43-5.9-1-5.9-4.7,0-1.46,1.38-2.66,3.45-2.66s3.5,1.11,3.61,3h-1.26a2.11,2.11,0,0,0-2.38-1.92c-1.32,0-2.14.7-2.14,1.56,0,2.67,5.81,1.25,5.87,4.72C209.61,260.24,208.22,261.41,206.19,261.41Z"/><path class="fea7bece-eccc-4953-8db4-71be684a1806" d="M216.15,261.41a4.69,4.69,0,0,1-4.83-5.06c0-3.14,2-5.06,4.83-5.06a4.41,4.41,0,0,1,4.64,4.55c0,.4,0,.65,0,1H212.6a3.43,3.43,0,0,0,3.55,3.51,3,3,0,0,0,3.17-2.19h1.33A4.33,4.33,0,0,1,216.15,261.41Zm-3.55-5.6h6.91a3.21,3.21,0,0,0-3.42-3.44A3.39,3.39,0,0,0,212.6,255.81Z"/><path class="fea7bece-eccc-4953-8db4-71be684a1806" d="M232.17,251.29a4.27,4.27,0,0,1,3.87,2.27v-5.62h1.26v13.32H236v-2.19a4.12,4.12,0,0,1-3.89,2.34c-2.7,0-4.7-2-4.7-5.08S229.45,251.29,232.17,251.29Zm.21,1.1c-2.07,0-3.65,1.44-3.65,3.94s1.58,4,3.65,4a4,4,0,0,0,0-7.92Z"/><path class="fea7bece-eccc-4953-8db4-71be684a1806" d="M244.4,261.41a4.69,4.69,0,0,1-4.82-5.06c0-3.14,2-5.06,4.82-5.06a4.42,4.42,0,0,1,4.65,4.55,7.71,7.71,0,0,1,0,1h-8.15a3.43,3.43,0,0,0,3.54,3.51,3,3,0,0,0,3.17-2.19h1.33A4.32,4.32,0,0,1,244.4,261.41Zm-3.54-5.6h6.91a3.21,3.21,0,0,0-3.42-3.44A3.39,3.39,0,0,0,240.86,255.81Z"/><path class="fea7bece-eccc-4953-8db4-71be684a1806" d="M256.51,251.29c2.7,0,4.68,2,4.68,5s-2,5.08-4.68,5.08a4.12,4.12,0,0,1-3.91-2.31v2.16h-1.24V247.94h1.24v5.67A4.16,4.16,0,0,1,256.51,251.29Zm-.26,1.1a4,4,0,0,0,0,7.92c2.08,0,3.66-1.5,3.66-4A3.59,3.59,0,0,0,256.25,252.39Z"/><path class="fea7bece-eccc-4953-8db4-71be684a1806" d="M267.76,261.41a4.69,4.69,0,0,1-4.83-5.06c0-3.14,2-5.06,4.83-5.06a4.41,4.41,0,0,1,4.64,4.55c0,.4,0,.65,0,1h-8.16a3.43,3.43,0,0,0,3.55,3.51,3,3,0,0,0,3.17-2.19h1.33A4.33,4.33,0,0,1,267.76,261.41Zm-3.55-5.6h6.91a3.21,3.21,0,0,0-3.42-3.44A3.39,3.39,0,0,0,264.21,255.81Z"/><path class="fea7bece-eccc-4953-8db4-71be684a1806" d="M279.63,247.94h1.27v5.17a3.68,3.68,0,0,1,3.42-1.86c2.17,0,3.92,1.37,3.92,4.25v5.76H287v-5.61c0-2.18-1.19-3.3-3-3.3s-3.11,1.15-3.11,3.55v5.36h-1.27Z"/><path class="fea7bece-eccc-4953-8db4-71be684a1806" d="M295.1,251.29a4.11,4.11,0,0,1,3.89,2.3v-2.16h1.26v9.83H299v-2.18a4.16,4.16,0,0,1-3.91,2.33c-2.68,0-4.68-2-4.68-5.08S292.4,251.29,295.1,251.29Zm.24,1.1a3.59,3.59,0,0,0-3.66,3.94c0,2.48,1.58,4,3.66,4a4,4,0,0,0,0-7.92Z"/><path class="fea7bece-eccc-4953-8db4-71be684a1806" d="M307.3,251.29a4.24,4.24,0,0,1,4.52,3.35h-1.35a3,3,0,0,0-3.17-2.27c-1.93,0-3.49,1.31-3.49,4s1.56,4,3.49,4a3,3,0,0,0,3.17-2.28h1.35a4.31,4.31,0,0,1-4.52,3.35c-2.77,0-4.77-2-4.77-5.06S304.53,251.29,307.3,251.29Z"/><path class="fea7bece-eccc-4953-8db4-71be684a1806" d="M318.24,261.41a4.69,4.69,0,0,1-4.82-5.06c0-3.14,2-5.06,4.82-5.06a4.42,4.42,0,0,1,4.65,4.55,7.71,7.71,0,0,1,0,1H314.7a3.43,3.43,0,0,0,3.54,3.51,3,3,0,0,0,3.17-2.19h1.33A4.32,4.32,0,0,1,318.24,261.41Zm-3.54-5.6h6.91a3.21,3.21,0,0,0-3.42-3.44A3.39,3.39,0,0,0,314.7,255.81Z"/><path class="fea7bece-eccc-4953-8db4-71be684a1806" d="M326.46,261.26H325.2v-9.83h1.26v1.75a3.37,3.37,0,0,1,3.36-1.93v1.32h-.34c-1.64,0-3,.73-3,3.2Z"/><path class="fea7bece-eccc-4953-8db4-71be684a1806" d="M340.77,251.29a4.11,4.11,0,0,1,3.89,2.3v-2.16h1.26v9.83h-1.26v-2.18a4.17,4.17,0,0,1-3.91,2.33c-2.68,0-4.68-2-4.68-5.08S338.07,251.29,340.77,251.29Zm.23,1.1c-2.07,0-3.65,1.44-3.65,3.94s1.58,4,3.65,4a4,4,0,0,0,0-7.92Z"/><path class="fea7bece-eccc-4953-8db4-71be684a1806" d="M356.11,255.65c0-2.18-1.19-3.3-3-3.3S350,253.5,350,255.9v5.36h-1.26v-9.83H350v1.68a3.59,3.59,0,0,1,3.35-1.86c2.23,0,4,1.37,4,4.25v5.76h-1.24Z"/><path class="fea7bece-eccc-4953-8db4-71be684a1806" d="M360.23,252.49h-1.37v-1.06h1.37V249h1.28v2.47h2.7v1.06h-2.7v6.11c0,1.2.41,1.58,1.55,1.58h1.15v1.08h-1.35c-1.71,0-2.63-.7-2.63-2.66Z"/><path class="fea7bece-eccc-4953-8db4-71be684a1806" d="M370,261.41a4.69,4.69,0,0,1-4.82-5.06c0-3.14,2-5.06,4.82-5.06a4.42,4.42,0,0,1,4.65,4.55,7.71,7.71,0,0,1,0,1h-8.16a3.43,3.43,0,0,0,3.55,3.51,3,3,0,0,0,3.17-2.19h1.33A4.32,4.32,0,0,1,370,261.41Zm-3.55-5.6h6.92a3.21,3.21,0,0,0-3.42-3.44A3.4,3.4,0,0,0,366.45,255.81Z"/><path class="fea7bece-eccc-4953-8db4-71be684a1806" d="M380.25,261.41c-2.23,0-3.8-1.12-4-2.92h1.3c.1,1.08,1,1.85,2.64,1.85,1.41,0,2.2-.75,2.2-1.69,0-2.43-5.91-1-5.91-4.7,0-1.46,1.39-2.66,3.46-2.66s3.49,1.11,3.6,3h-1.26a2.1,2.1,0,0,0-2.38-1.92c-1.31,0-2.14.7-2.14,1.56,0,2.67,5.82,1.25,5.87,4.72C383.67,260.24,382.28,261.41,380.25,261.41Z"/><path class="fea7bece-eccc-4953-8db4-71be684a1806" d="M395.12,251.29a4.27,4.27,0,0,1,3.87,2.27v-5.62h1.26v13.32H399v-2.19a4.12,4.12,0,0,1-3.89,2.34c-2.7,0-4.7-2-4.7-5.08S392.4,251.29,395.12,251.29Zm.21,1.1c-2.07,0-3.65,1.44-3.65,3.94s1.58,4,3.65,4a4,4,0,0,0,0-7.92Z"/><path class="fea7bece-eccc-4953-8db4-71be684a1806" d="M407.36,261.41a4.69,4.69,0,0,1-4.83-5.06c0-3.14,2-5.06,4.83-5.06a4.41,4.41,0,0,1,4.64,4.55,7.71,7.71,0,0,1,0,1h-8.15a3.43,3.43,0,0,0,3.55,3.51,3,3,0,0,0,3.16-2.19h1.34A4.33,4.33,0,0,1,407.36,261.41Zm-3.55-5.6h6.91a3.21,3.21,0,0,0-3.42-3.44A3.39,3.39,0,0,0,403.81,255.81Z"/><path class="fea7bece-eccc-4953-8db4-71be684a1806" d="M98.84,278.64a.92.92,0,0,1,1.84,0,.92.92,0,1,1-1.84,0Zm.29,2.79h1.26v9.83H99.13Z"/><path class="fea7bece-eccc-4953-8db4-71be684a1806" d="M110.56,285.65c0-2.18-1.19-3.3-3-3.3s-3.11,1.15-3.11,3.55v5.36H103.2v-9.83h1.26v1.68a3.59,3.59,0,0,1,3.35-1.86c2.23,0,4,1.37,4,4.25v5.76h-1.24Z"/><path class="fea7bece-eccc-4953-8db4-71be684a1806" d="M114.23,278.64a.92.92,0,1,1,1.84,0,.92.92,0,1,1-1.84,0Zm.29,2.79h1.26v9.83h-1.26Z"/><path class="fea7bece-eccc-4953-8db4-71be684a1806" d="M122.76,281.29a4.24,4.24,0,0,1,4.52,3.35h-1.35a3,3,0,0,0-3.17-2.27c-1.92,0-3.49,1.31-3.49,4s1.57,4,3.49,4a3,3,0,0,0,3.17-2.28h1.35a4.31,4.31,0,0,1-4.52,3.35c-2.77,0-4.77-2-4.77-5.06S120,281.29,122.76,281.29Z"/><path class="fea7bece-eccc-4953-8db4-71be684a1806" d="M129.2,278.64a.92.92,0,1,1,1.84,0,.92.92,0,1,1-1.84,0Zm.29,2.79h1.26v9.83h-1.26Z"/><path class="fea7bece-eccc-4953-8db4-71be684a1806" d="M137.66,281.29a4.11,4.11,0,0,1,3.89,2.3v-2.16h1.26v9.83h-1.26v-2.18a4.16,4.16,0,0,1-3.91,2.33c-2.68,0-4.68-2-4.68-5.08S135,281.29,137.66,281.29Zm.24,1.1a3.59,3.59,0,0,0-3.66,3.94c0,2.48,1.58,4,3.66,4a4,4,0,0,0,0-7.92Z"/><path class="fea7bece-eccc-4953-8db4-71be684a1806" d="M146.9,291.26h-1.26v-9.83h1.26v1.75a3.38,3.38,0,0,1,3.37-1.93v1.32h-.35c-1.63,0-3,.73-3,3.2Z"/><path class="fea7bece-eccc-4953-8db4-71be684a1806" d="M157.09,277.94h1.26v13.32h-1.26Z"/><path class="fea7bece-eccc-4953-8db4-71be684a1806" d="M165.31,281.29a4.11,4.11,0,0,1,3.89,2.3v-2.16h1.26v9.83H169.2v-2.18a4.16,4.16,0,0,1-3.91,2.33c-2.68,0-4.68-2-4.68-5.08S162.61,281.29,165.31,281.29Zm.24,1.1a3.59,3.59,0,0,0-3.66,3.94,3.67,3.67,0,1,0,3.66-3.94Z"/><path class="fea7bece-eccc-4953-8db4-71be684a1806" d="M178,278.64a.92.92,0,1,1,1.84,0,.92.92,0,1,1-1.84,0Zm.29,2.79h1.26v9.83h-1.26Z"/><path class="fea7bece-eccc-4953-8db4-71be684a1806" d="M189.7,285.65c0-2.18-1.19-3.3-3-3.3s-3.11,1.15-3.11,3.55v5.36h-1.26v-9.83h1.26v1.68a3.59,3.59,0,0,1,3.35-1.86c2.23,0,4,1.37,4,4.25v5.76H189.7Z"/><path class="fea7bece-eccc-4953-8db4-71be684a1806" d="M193.82,282.49h-1.37v-1.06h1.37V279h1.28v2.47h2.7v1.06h-2.7v6.11c0,1.2.41,1.58,1.55,1.58h1.15v1.08h-1.35c-1.71,0-2.63-.7-2.63-2.66Z"/><path class="fea7bece-eccc-4953-8db4-71be684a1806" d="M203.59,291.41a4.69,4.69,0,0,1-4.82-5.06c0-3.14,2-5.06,4.82-5.06a4.42,4.42,0,0,1,4.65,4.55,7.71,7.71,0,0,1,0,1h-8.15a3.43,3.43,0,0,0,3.54,3.51,3,3,0,0,0,3.17-2.19h1.33A4.32,4.32,0,0,1,203.59,291.41Zm-3.54-5.6H207a3.21,3.21,0,0,0-3.42-3.44A3.39,3.39,0,0,0,200.05,285.81Z"/><path class="fea7bece-eccc-4953-8db4-71be684a1806" d="M211.81,291.26h-1.26v-9.83h1.26v1.75a3.37,3.37,0,0,1,3.36-1.93v1.32h-.34c-1.64,0-3,.73-3,3.2Z"/><path class="fea7bece-eccc-4953-8db4-71be684a1806" d="M217.7,281.43,221,290l3.31-8.61h1.34l-3.95,9.83h-1.42l-3.94-9.83Z"/><path class="fea7bece-eccc-4953-8db4-71be684a1806" d="M231.2,291.41a4.69,4.69,0,0,1-4.83-5.06c0-3.14,2-5.06,4.83-5.06a4.41,4.41,0,0,1,4.64,4.55c0,.4,0,.65,0,1h-8.16a3.43,3.43,0,0,0,3.55,3.51,3,3,0,0,0,3.17-2.19h1.33A4.33,4.33,0,0,1,231.2,291.41Zm-3.55-5.6h6.91a3.21,3.21,0,0,0-3.42-3.44A3.39,3.39,0,0,0,227.65,285.81Z"/><path class="fea7bece-eccc-4953-8db4-71be684a1806" d="M245.51,285.65c0-2.18-1.18-3.3-3-3.3s-3.12,1.15-3.12,3.55v5.36h-1.26v-9.83h1.26v1.68a3.59,3.59,0,0,1,3.35-1.86c2.23,0,4,1.37,4,4.25v5.76h-1.25Z"/><path class="fea7bece-eccc-4953-8db4-71be684a1806" d="M253.69,281.29a4.24,4.24,0,0,1,4.52,3.35h-1.35a3,3,0,0,0-3.17-2.27c-1.93,0-3.49,1.31-3.49,4s1.56,4,3.49,4a3,3,0,0,0,3.17-2.28h1.35a4.31,4.31,0,0,1-4.52,3.35c-2.77,0-4.77-2-4.77-5.06S250.92,281.29,253.69,281.29Z"/><path class="fea7bece-eccc-4953-8db4-71be684a1806" d="M260.13,278.64a.92.92,0,1,1,1.83,0,.92.92,0,1,1-1.83,0Zm.28,2.79h1.26v9.83h-1.26Z"/><path class="fea7bece-eccc-4953-8db4-71be684a1806" d="M268.77,291.41a5.06,5.06,0,1,1,5-5.06A4.8,4.8,0,0,1,268.77,291.41Zm0-1.1a3.61,3.61,0,0,0,3.65-4c0-2.7-1.76-4-3.64-4s-3.61,1.26-3.61,4S266.89,290.31,268.77,290.31Zm1.73-13v1.13l-3.7,2.15v-1Z"/><path class="fea7bece-eccc-4953-8db4-71be684a1806" d="M283.36,285.65c0-2.18-1.19-3.3-3-3.3s-3.11,1.15-3.11,3.55v5.36H276v-9.83h1.26v1.68a3.59,3.59,0,0,1,3.35-1.86c2.23,0,4,1.37,4,4.25v5.76h-1.24Z"/><path class="fea7bece-eccc-4953-8db4-71be684a1806" d="M287.84,291.35a.91.91,0,0,1-.92-.93.91.91,0,1,1,.92.93Z"/><path class="fea7bece-eccc-4953-8db4-71be684a1806" d="M100.39,338.68v11.56h4.52v1H99.13V338.68Z"/><path class="fea7bece-eccc-4953-8db4-71be684a1806" d="M110.51,351.41a5.06,5.06,0,1,1,4.95-5.06A4.79,4.79,0,0,1,110.51,351.41Zm0-1.1a4,4,0,0,0,0-7.92c-1.87,0-3.62,1.26-3.62,4S108.64,350.31,110.51,350.31Z"/><path class="fea7bece-eccc-4953-8db4-71be684a1806" d="M121,351.41c-2.23,0-3.8-1.12-4-2.92h1.29c.11,1.08,1.05,1.85,2.65,1.85,1.41,0,2.2-.75,2.2-1.69,0-2.43-5.91-1-5.91-4.7,0-1.46,1.39-2.66,3.46-2.66s3.49,1.11,3.6,3h-1.26a2.1,2.1,0,0,0-2.38-1.92c-1.31,0-2.14.7-2.14,1.56,0,2.67,5.82,1.25,5.87,4.72C124.44,350.24,123.05,351.41,121,351.41Z"/><path class="fea7bece-eccc-4953-8db4-71be684a1806" d="M135.89,341.29a4.27,4.27,0,0,1,3.87,2.27v-5.62H141v13.32h-1.26v-2.19a4.12,4.12,0,0,1-3.89,2.34c-2.7,0-4.7-2-4.7-5.08S133.17,341.29,135.89,341.29Zm.21,1.1c-2.07,0-3.65,1.44-3.65,3.94s1.58,4,3.65,4a4,4,0,0,0,0-7.92Z"/><path class="fea7bece-eccc-4953-8db4-71be684a1806" d="M143.57,338.64a.92.92,0,1,1,1.84,0,.92.92,0,1,1-1.84,0Zm.29,2.79h1.26v9.83h-1.26Z"/><path class="fea7bece-eccc-4953-8db4-71be684a1806" d="M151.3,351.41c-2.24,0-3.8-1.12-4-2.92h1.3c.11,1.08,1.05,1.85,2.65,1.85,1.4,0,2.19-.75,2.19-1.69,0-2.43-5.9-1-5.9-4.7,0-1.46,1.39-2.66,3.46-2.66s3.49,1.11,3.6,3h-1.26a2.11,2.11,0,0,0-2.38-1.92c-1.31,0-2.14.7-2.14,1.56,0,2.67,5.81,1.25,5.87,4.72C154.72,350.24,153.33,351.41,151.3,351.41Z"/><path class="fea7bece-eccc-4953-8db4-71be684a1806" d="M161.26,351.41a4.69,4.69,0,0,1-4.83-5.06c0-3.14,2-5.06,4.83-5.06a4.41,4.41,0,0,1,4.64,4.55c0,.4,0,.65,0,1h-8.16a3.43,3.43,0,0,0,3.55,3.51,3,3,0,0,0,3.17-2.19h1.33A4.32,4.32,0,0,1,161.26,351.41Zm-3.55-5.6h6.92a3.22,3.22,0,0,0-3.43-3.44A3.4,3.4,0,0,0,157.71,345.81Z"/><path class="fea7bece-eccc-4953-8db4-71be684a1806" d="M169.47,351.26h-1.26v-9.83h1.26v1.68a3.59,3.59,0,0,1,3.35-1.86c2.24,0,4,1.37,4,4.25v5.76h-1.24v-5.61c0-2.18-1.19-3.3-3-3.3s-3.12,1.15-3.12,3.55Zm2.09-12.58c.94,0,1.24.84,2,.84a.81.81,0,0,0,.79-.81h.76a1.65,1.65,0,0,1-1.61,1.68c-1,0-1.27-.85-2-.85-.4,0-.69.25-.76.81H170C170.12,339.25,170.72,338.68,171.56,338.68Z"/><path class="fea7bece-eccc-4953-8db4-71be684a1806" d="M183.86,351.41a5.06,5.06,0,1,1,4.95-5.06A4.8,4.8,0,0,1,183.86,351.41Zm0-1.1a4,4,0,0,0,0-7.92c-1.87,0-3.62,1.26-3.62,4S182,350.31,183.86,350.31Z"/><path class="fea7bece-eccc-4953-8db4-71be684a1806" d="M194.37,351.41c-2.24,0-3.8-1.12-4-2.92h1.3c.11,1.08,1.05,1.85,2.65,1.85,1.4,0,2.19-.75,2.19-1.69,0-2.43-5.9-1-5.9-4.7,0-1.46,1.38-2.66,3.46-2.66s3.49,1.11,3.6,3h-1.26a2.11,2.11,0,0,0-2.38-1.92c-1.31,0-2.14.7-2.14,1.56,0,2.67,5.81,1.25,5.87,4.72C197.79,350.24,196.4,351.41,194.37,351.41Z"/><path class="fea7bece-eccc-4953-8db4-71be684a1806" d="M209.34,351.41a4.69,4.69,0,0,1-4.82-5.06c0-3.14,2-5.06,4.82-5.06a4.42,4.42,0,0,1,4.65,4.55,7.71,7.71,0,0,1,0,1h-8.16a3.43,3.43,0,0,0,3.55,3.51,3,3,0,0,0,3.17-2.19h1.33A4.32,4.32,0,0,1,209.34,351.41Zm-3.55-5.6h6.92a3.21,3.21,0,0,0-3.42-3.44A3.4,3.4,0,0,0,205.79,345.81Z"/><path class="fea7bece-eccc-4953-8db4-71be684a1806" d="M218.68,347.3l-2.45,4H214.9l3.17-4.91-3.14-4.92h1.43l2.5,3.91,2.43-3.91h1.32l-3.14,4.86,3.17,5h-1.42Z"/><path class="fea7bece-eccc-4953-8db4-71be684a1806" d="M229.46,341.29c2.69,0,4.68,2,4.68,5s-2,5.08-4.68,5.08a4.21,4.21,0,0,1-3.91-2.31v6.81h-1.24V341.43h1.24v2.16A4.18,4.18,0,0,1,229.46,341.29Zm-.25,1.1a4,4,0,0,0,0,7.92c2.07,0,3.65-1.5,3.65-4S231.28,342.39,229.21,342.39Z"/><path class="fea7bece-eccc-4953-8db4-71be684a1806" d="M240.71,351.41a4.69,4.69,0,0,1-4.82-5.06c0-3.14,2-5.06,4.82-5.06a4.42,4.42,0,0,1,4.65,4.55,7.71,7.71,0,0,1,0,1h-8.16a3.43,3.43,0,0,0,3.55,3.51,3,3,0,0,0,3.17-2.19h1.33A4.32,4.32,0,0,1,240.71,351.41Zm-3.55-5.6h6.92a3.21,3.21,0,0,0-3.42-3.44A3.4,3.4,0,0,0,237.16,345.81Z"/><path class="fea7bece-eccc-4953-8db4-71be684a1806" d="M248.93,351.26h-1.26v-9.83h1.26v1.75a3.37,3.37,0,0,1,3.36-1.93v1.32H252c-1.64,0-3,.73-3,3.2Z"/><path class="fea7bece-eccc-4953-8db4-71be684a1806" d="M253.76,338.64a.92.92,0,1,1,1.83,0,.92.92,0,1,1-1.83,0Zm.28,2.79h1.27v9.83H254Z"/><path class="fea7bece-eccc-4953-8db4-71be684a1806" d="M272.48,345.65c0-2.18-1.13-3.3-2.88-3.3s-3,1.19-3,3.58v5.33h-1.25v-5.61c0-2.18-1.15-3.3-2.89-3.3s-3.05,1.19-3.05,3.58v5.33h-1.26v-9.83h1.26v1.69a3.51,3.51,0,0,1,3.26-1.87,3.65,3.65,0,0,1,3.64,2.41,3.58,3.58,0,0,1,3.55-2.41c2.17,0,3.9,1.37,3.9,4.25v5.76h-1.24Z"/><path class="fea7bece-eccc-4953-8db4-71be684a1806" d="M280.73,351.41a4.69,4.69,0,0,1-4.82-5.06c0-3.14,2-5.06,4.82-5.06a4.42,4.42,0,0,1,4.65,4.55,7.71,7.71,0,0,1,0,1h-8.15a3.43,3.43,0,0,0,3.54,3.51,3,3,0,0,0,3.17-2.19h1.33A4.32,4.32,0,0,1,280.73,351.41Zm-3.54-5.6h6.91a3.21,3.21,0,0,0-3.42-3.44A3.39,3.39,0,0,0,277.19,345.81Z"/><path class="fea7bece-eccc-4953-8db4-71be684a1806" d="M295.05,345.65c0-2.18-1.19-3.3-3-3.3S289,343.5,289,345.9v5.36h-1.26v-9.83H289v1.68a3.59,3.59,0,0,1,3.35-1.86c2.23,0,4,1.37,4,4.25v5.76h-1.24Z"/><path class="fea7bece-eccc-4953-8db4-71be684a1806" d="M299.17,342.49H297.8v-1.06h1.37V339h1.28v2.47h2.7v1.06h-2.7v6.11c0,1.2.41,1.58,1.55,1.58h1.15v1.08H301.8c-1.71,0-2.63-.7-2.63-2.66Z"/><path class="fea7bece-eccc-4953-8db4-71be684a1806" d="M308.82,341.29a4.11,4.11,0,0,1,3.89,2.3v-2.16H314v9.83h-1.26v-2.18a4.17,4.17,0,0,1-3.91,2.33c-2.68,0-4.68-2-4.68-5.08S306.12,341.29,308.82,341.29Zm.23,1.1c-2.07,0-3.65,1.44-3.65,3.94s1.58,4,3.65,4a4,4,0,0,0,0-7.92Z"/><path class="fea7bece-eccc-4953-8db4-71be684a1806" d="M316.79,337.94h1.26v13.32h-1.26Z"/><path class="fea7bece-eccc-4953-8db4-71be684a1806" d="M325.15,351.41a4.69,4.69,0,0,1-4.83-5.06c0-3.14,2-5.06,4.83-5.06a4.41,4.41,0,0,1,4.64,4.55,7.71,7.71,0,0,1,0,1H321.6a3.43,3.43,0,0,0,3.55,3.51,3,3,0,0,0,3.16-2.19h1.34A4.33,4.33,0,0,1,325.15,351.41Zm-3.55-5.6h6.91a3.21,3.21,0,0,0-3.42-3.44A3.39,3.39,0,0,0,321.6,345.81Z"/><path class="fea7bece-eccc-4953-8db4-71be684a1806" d="M335.39,351.41c-2.23,0-3.8-1.12-4-2.92h1.3c.11,1.08,1,1.85,2.65,1.85,1.4,0,2.19-.75,2.19-1.69,0-2.43-5.9-1-5.9-4.7,0-1.46,1.38-2.66,3.45-2.66s3.5,1.11,3.6,3h-1.26a2.09,2.09,0,0,0-2.37-1.92c-1.32,0-2.15.7-2.15,1.56,0,2.67,5.82,1.25,5.87,4.72C338.81,350.24,337.43,351.41,335.39,351.41Z"/><path class="fea7bece-eccc-4953-8db4-71be684a1806" d="M351.27,341.29c2.68,0,4.68,2,4.68,5s-2,5.08-4.68,5.08a4.21,4.21,0,0,1-3.91-2.31v6.81h-1.24V341.43h1.24v2.16A4.18,4.18,0,0,1,351.27,341.29Zm-.25,1.1a4,4,0,0,0,0,7.92c2.07,0,3.65-1.5,3.65-4S353.09,342.39,351,342.39Z"/><path class="fea7bece-eccc-4953-8db4-71be684a1806" d="M362.52,351.41a4.69,4.69,0,0,1-4.83-5.06c0-3.14,2-5.06,4.83-5.06a4.41,4.41,0,0,1,4.64,4.55c0,.4,0,.65,0,1H359a3.43,3.43,0,0,0,3.55,3.51,3,3,0,0,0,3.17-2.19H367A4.33,4.33,0,0,1,362.52,351.41Zm-3.55-5.6h6.92a3.22,3.22,0,0,0-3.43-3.44A3.4,3.4,0,0,0,359,345.81Z"/><path class="fea7bece-eccc-4953-8db4-71be684a1806" d="M370.73,351.26h-1.26v-9.83h1.26v1.75a3.39,3.39,0,0,1,3.37-1.93v1.32h-.34c-1.64,0-3,.73-3,3.2Z"/><path class="fea7bece-eccc-4953-8db4-71be684a1806" d="M390.22,345.65c0-2.18-1.13-3.3-2.88-3.3s-3,1.19-3,3.58v5.33h-1.25v-5.61c0-2.18-1.15-3.3-2.9-3.3s-3,1.19-3,3.58v5.33h-1.26v-9.83h1.26v1.69a3.51,3.51,0,0,1,3.26-1.87,3.65,3.65,0,0,1,3.64,2.41,3.58,3.58,0,0,1,3.55-2.41c2.17,0,3.9,1.37,3.9,4.25v5.76h-1.24Z"/><path class="fea7bece-eccc-4953-8db4-71be684a1806" d="M393.91,338.64a.92.92,0,1,1,1.84,0,.92.92,0,1,1-1.84,0Zm.29,2.79h1.26v9.83H394.2Z"/><path class="fea7bece-eccc-4953-8db4-71be684a1806" d="M398.56,342.49h-1.37v-1.06h1.37V339h1.28v2.47h2.7v1.06h-2.7v6.11c0,1.2.41,1.58,1.54,1.58h1.16v1.08h-1.35c-1.71,0-2.63-.7-2.63-2.66Z"/><path class="fea7bece-eccc-4953-8db4-71be684a1806" d="M408.33,351.41a4.69,4.69,0,0,1-4.83-5.06c0-3.14,2-5.06,4.83-5.06a4.41,4.41,0,0,1,4.64,4.55c0,.4,0,.65,0,1h-8.16a3.43,3.43,0,0,0,3.55,3.51,3,3,0,0,0,3.17-2.19h1.33A4.33,4.33,0,0,1,408.33,351.41Zm-3.55-5.6h6.91a3.21,3.21,0,0,0-3.42-3.44A3.39,3.39,0,0,0,404.78,345.81Z"/><path class="fea7bece-eccc-4953-8db4-71be684a1806" d="M422.65,345.65c0-2.18-1.19-3.3-3-3.3s-3.12,1.15-3.12,3.55v5.36h-1.26v-9.83h1.26v1.68a3.59,3.59,0,0,1,3.35-1.86c2.23,0,4,1.37,4,4.25v5.76h-1.24Z"/><path class="fea7bece-eccc-4953-8db4-71be684a1806" d="M103.32,371.29a4.24,4.24,0,0,1,4.52,3.35h-1.35a3,3,0,0,0-3.17-2.27c-1.92,0-3.49,1.31-3.49,4s1.57,4,3.49,4a3,3,0,0,0,3.17-2.28h1.35a4.31,4.31,0,0,1-4.52,3.35c-2.77,0-4.77-2-4.77-5.06S100.55,371.29,103.32,371.29Z"/><path class="fea7bece-eccc-4953-8db4-71be684a1806" d="M114.32,381.41a5.06,5.06,0,1,1,5-5.06A4.8,4.8,0,0,1,114.32,381.41Zm0-1.1a4,4,0,0,0,0-7.92c-1.87,0-3.62,1.26-3.62,4S112.45,380.31,114.32,380.31Z"/><path class="fea7bece-eccc-4953-8db4-71be684a1806" d="M128.92,375.65c0-2.18-1.19-3.3-3-3.3s-3.12,1.15-3.12,3.55v5.36h-1.26v-9.83h1.26v1.68a3.59,3.59,0,0,1,3.35-1.86c2.23,0,4,1.37,4,4.25v5.76h-1.24Z"/><path class="fea7bece-eccc-4953-8db4-71be684a1806" d="M136.25,381.41c-2.24,0-3.8-1.12-4-2.92h1.3c.11,1.08,1,1.85,2.65,1.85,1.4,0,2.19-.75,2.19-1.69,0-2.43-5.9-1-5.9-4.7,0-1.46,1.38-2.66,3.46-2.66s3.49,1.11,3.6,3h-1.26a2.11,2.11,0,0,0-2.38-1.92c-1.31,0-2.14.7-2.14,1.56,0,2.67,5.81,1.25,5.87,4.72C139.67,380.24,138.28,381.41,136.25,381.41Z"/><path class="fea7bece-eccc-4953-8db4-71be684a1806" d="M142.23,372.49h-1.37v-1.06h1.37V369h1.28v2.47h2.7v1.06h-2.7v6.11c0,1.2.41,1.58,1.54,1.58h1.16v1.08h-1.35c-1.71,0-2.63-.7-2.63-2.66Z"/><path class="fea7bece-eccc-4953-8db4-71be684a1806" d="M149.31,381.26h-1.26v-9.83h1.26v1.75a3.38,3.38,0,0,1,3.37-1.93v1.32h-.35c-1.63,0-3,.73-3,3.2Z"/><path class="fea7bece-eccc-4953-8db4-71be684a1806" d="M163,381.26h-1.26v-1.73a3.53,3.53,0,0,1-3.35,1.89c-2.23,0-4-1.36-4-4.24v-5.75h1.25V377c0,2.18,1.19,3.3,3,3.3s3.11-1.16,3.11-3.55v-5.35H163Z"/><path class="fea7bece-eccc-4953-8db4-71be684a1806" d="M165.54,368.64a.92.92,0,1,1,1.83,0,.92.92,0,1,1-1.83,0Zm.29,2.79h1.26v9.83h-1.26Z"/><path class="fea7bece-eccc-4953-8db4-71be684a1806" d="M171.15,381.26h-1.26v-9.83h1.26v1.75a3.39,3.39,0,0,1,3.37-1.93v1.32h-.34c-1.64,0-3,.73-3,3.2Z"/><path class="fea7bece-eccc-4953-8db4-71be684a1806" d="M185.59,381.41a4.69,4.69,0,0,1-4.83-5.06c0-3.14,2-5.06,4.83-5.06a4.41,4.41,0,0,1,4.64,4.55c0,.4,0,.65,0,1H182a3.43,3.43,0,0,0,3.55,3.51,3,3,0,0,0,3.17-2.19h1.33A4.32,4.32,0,0,1,185.59,381.41Zm-3.55-5.6H189a3.22,3.22,0,0,0-3.42-3.44A3.4,3.4,0,0,0,182,375.81Z"/><path class="fea7bece-eccc-4953-8db4-71be684a1806" d="M192.54,367.94h1.26v13.32h-1.26Z"/><path class="fea7bece-eccc-4953-8db4-71be684a1806" d="M205.71,371.29a4.13,4.13,0,0,1,3.89,2.28v-2.14h1.26v10.08a4.35,4.35,0,0,1-4.59,4.58c-2.54,0-4.3-1.3-4.7-3.35h1.24a3.38,3.38,0,0,0,3.46,2.25,3.21,3.21,0,0,0,3.33-3.48v-2.43a4.14,4.14,0,0,1-3.89,2.33c-2.7,0-4.7-2-4.7-5.08S203,371.29,205.71,371.29Zm.24,1.1a3.59,3.59,0,0,0-3.66,3.94,3.67,3.67,0,1,0,3.66-3.94Z"/><path class="fea7bece-eccc-4953-8db4-71be684a1806" d="M215,381.26h-1.26v-9.83H215v1.75a3.39,3.39,0,0,1,3.37-1.93v1.32H218c-1.64,0-3,.73-3,3.2Z"/><path class="fea7bece-eccc-4953-8db4-71be684a1806" d="M228.63,381.26h-1.26v-1.73a3.53,3.53,0,0,1-3.35,1.89c-2.23,0-4-1.36-4-4.24v-5.75h1.24V377c0,2.18,1.19,3.3,3,3.3s3.11-1.16,3.11-3.55v-5.35h1.26Z"/><path class="fea7bece-eccc-4953-8db4-71be684a1806" d="M236.6,371.29c2.69,0,4.68,2,4.68,5s-2,5.08-4.68,5.08a4.18,4.18,0,0,1-3.9-2.31v6.81h-1.25V371.43h1.25v2.16A4.16,4.16,0,0,1,236.6,371.29Zm-.25,1.1a4,4,0,1,0,3.66,3.94A3.59,3.59,0,0,0,236.35,372.39Z"/><path class="fea7bece-eccc-4953-8db4-71be684a1806" d="M247.91,381.41a5.06,5.06,0,1,1,5-5.06A4.8,4.8,0,0,1,247.91,381.41Zm0-1.1a3.61,3.61,0,0,0,3.65-4c0-2.7-1.76-4-3.64-4s-3.61,1.26-3.61,4S246,380.31,247.91,380.31Z"/><path class="fea7bece-eccc-4953-8db4-71be684a1806" d="M260.45,372.49h-1.37v-1.06h1.37V369h1.28v2.47h2.7v1.06h-2.7v6.11c0,1.2.41,1.58,1.55,1.58h1.15v1.08h-1.35c-1.71,0-2.63-.7-2.63-2.66Z"/><path class="fea7bece-eccc-4953-8db4-71be684a1806" d="M267.53,381.26h-1.26v-9.83h1.26v1.75a3.39,3.39,0,0,1,3.37-1.93v1.32h-.34c-1.64,0-3,.73-3,3.2Z"/><path class="fea7bece-eccc-4953-8db4-71be684a1806" d="M276.48,371.29a4.09,4.09,0,0,1,3.89,2.3v-2.16h1.26v9.83h-1.26v-2.18a4.14,4.14,0,0,1-3.9,2.33c-2.69,0-4.68-2-4.68-5.08S273.78,371.29,276.48,371.29Zm.24,1.1a3.59,3.59,0,0,0-3.66,3.94,3.67,3.67,0,1,0,3.66-3.94Z"/><path class="fea7bece-eccc-4953-8db4-71be684a1806" d="M284.76,372.49H283.4v-1.06h1.36V369H286v2.47h2.7v1.06H286v6.11c0,1.2.42,1.58,1.55,1.58h1.15v1.08h-1.35c-1.71,0-2.63-.7-2.63-2.66Z"/><path class="fea7bece-eccc-4953-8db4-71be684a1806" d="M294.41,371.29a4.11,4.11,0,0,1,3.89,2.3v-2.16h1.26v9.83H298.3v-2.18a4.17,4.17,0,0,1-3.91,2.33c-2.68,0-4.68-2-4.68-5.08S291.71,371.29,294.41,371.29Zm.23,1.1c-2.07,0-3.65,1.44-3.65,3.94s1.58,4,3.65,4a4,4,0,0,0,0-7.92Z"/><path class="fea7bece-eccc-4953-8db4-71be684a1806" d="M306.56,371.29a4.27,4.27,0,0,1,3.87,2.27v-5.62h1.26v13.32h-1.26v-2.19a4.12,4.12,0,0,1-3.89,2.34c-2.7,0-4.7-2-4.7-5.08S303.84,371.29,306.56,371.29Zm.21,1.1c-2.07,0-3.65,1.44-3.65,3.94s1.58,4,3.65,4a4,4,0,0,0,0-7.92Z"/><path class="fea7bece-eccc-4953-8db4-71be684a1806" d="M318.85,381.41a5.06,5.06,0,1,1,4.95-5.06A4.8,4.8,0,0,1,318.85,381.41Zm0-1.1a3.61,3.61,0,0,0,3.65-4c0-2.7-1.76-4-3.64-4s-3.62,1.26-3.62,4S317,380.31,318.85,380.31Z"/><path class="fea7bece-eccc-4953-8db4-71be684a1806" d="M337.84,371.43h1.29l-5.83,14.46H332l1.91-4.68-4-9.78h1.39l3.35,8.39Z"/><path class="fea7bece-eccc-4953-8db4-71be684a1806" d="M350,381.41a4.69,4.69,0,0,1-4.82-5.06c0-3.14,2-5.06,4.82-5.06a4.42,4.42,0,0,1,4.65,4.55,7.71,7.71,0,0,1,0,1h-8.16a3.43,3.43,0,0,0,3.55,3.51,3,3,0,0,0,3.17-2.19h1.33A4.32,4.32,0,0,1,350,381.41Zm-3.55-5.6h6.92a3.21,3.21,0,0,0-3.42-3.44A3.4,3.4,0,0,0,346.47,375.81Z"/><path class="fea7bece-eccc-4953-8db4-71be684a1806" d="M357,367.94h1.26v13.32H357Z"/><path class="fea7bece-eccc-4953-8db4-71be684a1806" d="M370.14,371.29a4.12,4.12,0,0,1,3.89,2.28v-2.14h1.26v10.08a4.35,4.35,0,0,1-4.59,4.58c-2.54,0-4.3-1.3-4.7-3.35h1.25A3.35,3.35,0,0,0,370.7,385a3.21,3.21,0,0,0,3.33-3.48v-2.43a4.14,4.14,0,0,1-3.89,2.33c-2.7,0-4.7-2-4.7-5.08S367.44,371.29,370.14,371.29Zm.24,1.1a3.59,3.59,0,0,0-3.66,3.94,3.67,3.67,0,1,0,3.66-3.94Z"/><path class="fea7bece-eccc-4953-8db4-71be684a1806" d="M379.38,381.26h-1.26v-9.83h1.26v1.75a3.39,3.39,0,0,1,3.37-1.93v1.32h-.34c-1.64,0-3,.73-3,3.2Z"/><path class="fea7bece-eccc-4953-8db4-71be684a1806" d="M393.07,381.26H391.8v-1.73a3.53,3.53,0,0,1-3.34,1.89c-2.24,0-4-1.36-4-4.24v-5.75h1.24V377c0,2.18,1.19,3.3,3,3.3s3.11-1.16,3.11-3.55v-5.35h1.27Z"/><path class="fea7bece-eccc-4953-8db4-71be684a1806" d="M401,371.29c2.69,0,4.69,2,4.69,5s-2,5.08-4.69,5.08a4.18,4.18,0,0,1-3.9-2.31v6.81h-1.25V371.43h1.25v2.16A4.16,4.16,0,0,1,401,371.29Zm-.25,1.1a4,4,0,1,0,3.66,3.94A3.59,3.59,0,0,0,400.78,372.39Z"/><path class="fea7bece-eccc-4953-8db4-71be684a1806" d="M412.34,381.41a5.06,5.06,0,1,1,5-5.06A4.8,4.8,0,0,1,412.34,381.41Zm0-1.1a3.61,3.61,0,0,0,3.65-4c0-2.7-1.76-4-3.63-4s-3.62,1.26-3.62,4S410.47,380.31,412.34,380.31Z"/><path class="fea7bece-eccc-4953-8db4-71be684a1806" d="M428.66,371.29a4.26,4.26,0,0,1,3.87,2.27v-5.62h1.27v13.32h-1.27v-2.19a4.09,4.09,0,0,1-3.88,2.34c-2.71,0-4.7-2-4.7-5.08S425.94,371.29,428.66,371.29Zm.22,1.1a3.59,3.59,0,0,0-3.66,3.94,3.67,3.67,0,1,0,3.66-3.94Z"/><path class="fea7bece-eccc-4953-8db4-71be684a1806" d="M440.9,381.41a4.69,4.69,0,0,1-4.83-5.06c0-3.14,2-5.06,4.83-5.06a4.42,4.42,0,0,1,4.65,4.55,7.71,7.71,0,0,1,0,1h-8.16a3.43,3.43,0,0,0,3.55,3.51,3,3,0,0,0,3.17-2.19h1.33A4.32,4.32,0,0,1,440.9,381.41Zm-3.55-5.6h6.92a3.22,3.22,0,0,0-3.42-3.44A3.4,3.4,0,0,0,437.35,375.81Z"/><path class="fea7bece-eccc-4953-8db4-71be684a1806" d="M103.32,401.29a4.24,4.24,0,0,1,4.52,3.35h-1.35a3,3,0,0,0-3.17-2.27c-1.92,0-3.49,1.31-3.49,4s1.57,4,3.49,4a3,3,0,0,0,3.17-2.28h1.35a4.31,4.31,0,0,1-4.52,3.35c-2.77,0-4.77-2-4.77-5.06S100.55,401.29,103.32,401.29Z"/><path class="fea7bece-eccc-4953-8db4-71be684a1806" d="M114.32,411.41a5.06,5.06,0,1,1,5-5.06A4.8,4.8,0,0,1,114.32,411.41Zm0-1.1a4,4,0,0,0,0-7.92c-1.87,0-3.62,1.26-3.62,4S112.45,410.31,114.32,410.31Z"/><path class="fea7bece-eccc-4953-8db4-71be684a1806" d="M128.92,405.65c0-2.18-1.19-3.3-3-3.3s-3.12,1.15-3.12,3.55v5.36h-1.26v-9.83h1.26v1.68a3.59,3.59,0,0,1,3.35-1.86c2.23,0,4,1.37,4,4.25v5.76h-1.24Z"/><path class="fea7bece-eccc-4953-8db4-71be684a1806" d="M133,402.49h-1.37v-1.06H133V399h1.27v2.47H137v1.06h-2.7v6.11c0,1.2.42,1.58,1.55,1.58H137v1.08h-1.35c-1.71,0-2.62-.7-2.62-2.66Z"/><path class="fea7bece-eccc-4953-8db4-71be684a1806" d="M140.12,411.26h-1.26v-9.83h1.26v1.75a3.37,3.37,0,0,1,3.36-1.93v1.32h-.34c-1.64,0-3,.73-3,3.2Z"/><path class="fea7bece-eccc-4953-8db4-71be684a1806" d="M149.21,411.41a5.06,5.06,0,1,1,4.95-5.06A4.79,4.79,0,0,1,149.21,411.41Zm0-1.1a4,4,0,0,0,0-7.92c-1.87,0-3.62,1.26-3.62,4S147.34,410.31,149.21,410.31Z"/><path class="fea7bece-eccc-4953-8db4-71be684a1806" d="M156.44,397.94h1.26v13.32h-1.26Z"/><path class="fea7bece-eccc-4953-8db4-71be684a1806" d="M169.63,401.29a4.27,4.27,0,0,1,3.87,2.27v-5.62h1.26v13.32H173.5v-2.19a4.11,4.11,0,0,1-3.89,2.34c-2.7,0-4.7-2-4.7-5.08S166.91,401.29,169.63,401.29Zm.22,1.1a3.59,3.59,0,0,0-3.66,3.94c0,2.48,1.58,4,3.66,4a4,4,0,0,0,0-7.92Z"/><path class="fea7bece-eccc-4953-8db4-71be684a1806" d="M181.87,411.41a4.69,4.69,0,0,1-4.83-5.06c0-3.14,2-5.06,4.83-5.06a4.41,4.41,0,0,1,4.64,4.55c0,.4,0,.65,0,1h-8.16a3.43,3.43,0,0,0,3.55,3.51,3,3,0,0,0,3.16-2.19h1.34A4.33,4.33,0,0,1,181.87,411.41Zm-3.55-5.6h6.91a3.21,3.21,0,0,0-3.42-3.44A3.39,3.39,0,0,0,178.32,405.81Z"/><path class="fea7bece-eccc-4953-8db4-71be684a1806" d="M208.11,405.65c0-2.18-1.13-3.3-2.88-3.3s-3,1.19-3,3.58v5.33H201v-5.61c0-2.18-1.16-3.3-2.9-3.3s-3.05,1.19-3.05,3.58v5.33h-1.26v-9.83H195v1.69a3.52,3.52,0,0,1,3.26-1.87,3.64,3.64,0,0,1,3.64,2.41,3.58,3.58,0,0,1,3.55-2.41c2.18,0,3.91,1.37,3.91,4.25v5.76h-1.25Z"/><path class="fea7bece-eccc-4953-8db4-71be684a1806" d="M216.24,401.29a4.11,4.11,0,0,1,3.89,2.3v-2.16h1.26v9.83h-1.26v-2.18a4.17,4.17,0,0,1-3.91,2.33c-2.68,0-4.68-2-4.68-5.08S213.54,401.29,216.24,401.29Zm.23,1.1c-2.07,0-3.65,1.44-3.65,3.94s1.58,4,3.65,4a4,4,0,0,0,0-7.92Z"/><path class="fea7bece-eccc-4953-8db4-71be684a1806" d="M231.58,405.65c0-2.18-1.19-3.3-3-3.3s-3.11,1.15-3.11,3.55v5.36h-1.26v-9.83h1.26v1.68a3.59,3.59,0,0,1,3.35-1.86c2.23,0,4,1.37,4,4.25v5.76h-1.24Z"/><path class="fea7bece-eccc-4953-8db4-71be684a1806" d="M239.81,411.41a4.69,4.69,0,0,1-4.82-5.06c0-3.14,2-5.06,4.82-5.06a4.42,4.42,0,0,1,4.65,4.55,7.71,7.71,0,0,1,0,1h-8.15a3.43,3.43,0,0,0,3.54,3.51,3,3,0,0,0,3.17-2.19h1.33A4.32,4.32,0,0,1,239.81,411.41Zm-3.54-5.6h6.91a3.21,3.21,0,0,0-3.42-3.44A3.39,3.39,0,0,0,236.27,405.81Z"/><path class="fea7bece-eccc-4953-8db4-71be684a1806" d="M248,411.26h-1.26v-9.83H248v1.75a3.37,3.37,0,0,1,3.36-1.93v1.32h-.34c-1.64,0-3,.73-3,3.2Z"/><path class="fea7bece-eccc-4953-8db4-71be684a1806" d="M257,401.29a4.11,4.11,0,0,1,3.89,2.3v-2.16h1.26v9.83h-1.26v-2.18a4.17,4.17,0,0,1-3.91,2.33c-2.68,0-4.68-2-4.68-5.08S254.28,401.29,257,401.29Zm.23,1.1c-2.07,0-3.65,1.44-3.65,3.94s1.58,4,3.65,4a4,4,0,0,0,0-7.92Z"/><path class="fea7bece-eccc-4953-8db4-71be684a1806" d="M284.31,405.65c0-2.18-1.14-3.3-2.89-3.3s-3,1.19-3,3.58v5.33h-1.24v-5.61c0-2.18-1.15-3.3-2.9-3.3s-3,1.19-3,3.58v5.33h-1.26v-9.83h1.26v1.69a3.51,3.51,0,0,1,3.26-1.87,3.63,3.63,0,0,1,3.63,2.41,3.58,3.58,0,0,1,3.55-2.41c2.18,0,3.91,1.37,3.91,4.25v5.76h-1.24Z"/><path class="fea7bece-eccc-4953-8db4-71be684a1806" d="M296.78,411.26h-1.26v-1.73a3.54,3.54,0,0,1-3.35,1.89c-2.23,0-4-1.36-4-4.24v-5.75h1.24V407c0,2.18,1.19,3.3,3,3.3s3.12-1.16,3.12-3.55v-5.35h1.26Z"/><path class="fea7bece-eccc-4953-8db4-71be684a1806" d="M306.43,401.43h1.29l-5.83,14.46h-1.32l1.91-4.68-4-9.78h1.39l3.34,8.39Z"/><path class="fea7bece-eccc-4953-8db4-71be684a1806" d="M314.36,397.94h1.26v13.32h-1.26Z"/><path class="fea7bece-eccc-4953-8db4-71be684a1806" d="M318.13,398.64a.92.92,0,1,1,1.84,0,.92.92,0,1,1-1.84,0Zm.29,2.79h1.26v9.83h-1.26Z"/><path class="fea7bece-eccc-4953-8db4-71be684a1806" d="M336.86,405.65c0-2.18-1.14-3.3-2.88-3.3s-3.05,1.19-3.05,3.58v5.33h-1.24v-5.61c0-2.18-1.15-3.3-2.9-3.3s-3,1.19-3,3.58v5.33h-1.26v-9.83h1.26v1.69a3.51,3.51,0,0,1,3.26-1.87,3.63,3.63,0,0,1,3.63,2.41,3.58,3.58,0,0,1,3.55-2.41c2.18,0,3.91,1.37,3.91,4.25v5.76h-1.24Z"/><path class="fea7bece-eccc-4953-8db4-71be684a1806" d="M346,401.29c2.69,0,4.69,2,4.69,5s-2,5.08-4.69,5.08a4.18,4.18,0,0,1-3.9-2.31v6.81h-1.25V401.43h1.25v2.16A4.16,4.16,0,0,1,346,401.29Zm-.25,1.1a4,4,0,1,0,3.66,3.94A3.59,3.59,0,0,0,345.77,402.39Z"/><path class="fea7bece-eccc-4953-8db4-71be684a1806" d="M352.67,398.64a.92.92,0,1,1,1.84,0,.92.92,0,1,1-1.84,0Zm.29,2.79h1.26v9.83H353Z"/><path class="fea7bece-eccc-4953-8db4-71be684a1806" d="M361.13,401.29a4.1,4.1,0,0,1,3.89,2.3v-2.16h1.26v9.83H365v-2.18a4.14,4.14,0,0,1-3.9,2.33c-2.69,0-4.68-2-4.68-5.08S358.43,401.29,361.13,401.29Zm.24,1.1a3.59,3.59,0,0,0-3.66,3.94,3.67,3.67,0,1,0,3.66-3.94Z"/><path class="fea7bece-eccc-4953-8db4-71be684a1806" d="M369.14,409.17h1.4l-1.85,4.72h-.88Z"/><path class="fea7bece-eccc-4953-8db4-71be684a1806" d="M103.38,441.41a4.69,4.69,0,0,1-4.83-5.06c0-3.14,2-5.06,4.83-5.06a4.41,4.41,0,0,1,4.64,4.55c0,.4,0,.65,0,1H99.83a3.43,3.43,0,0,0,3.55,3.51,3,3,0,0,0,3.17-2.19h1.33A4.33,4.33,0,0,1,103.38,441.41Zm-3.55-5.6h6.91a3.21,3.21,0,0,0-3.42-3.44A3.4,3.4,0,0,0,99.83,435.81Z"/><path class="fea7bece-eccc-4953-8db4-71be684a1806" d="M110.13,431.43l3.31,8.61,3.32-8.61h1.33l-3.94,9.83h-1.42l-4-9.83Z"/><path class="fea7bece-eccc-4953-8db4-71be684a1806" d="M119.47,428.64a.92.92,0,0,1,1.84,0,.92.92,0,1,1-1.84,0Zm.29,2.79H121v9.83h-1.26Z"/><path class="fea7bece-eccc-4953-8db4-71be684a1806" d="M124.12,432.49h-1.37v-1.06h1.37V429h1.27v2.47h2.7v1.06h-2.7v6.11c0,1.2.42,1.58,1.55,1.58h1.15v1.08h-1.35c-1.71,0-2.62-.7-2.62-2.66Z"/><path class="fea7bece-eccc-4953-8db4-71be684a1806" d="M133.76,431.29a4.11,4.11,0,0,1,3.89,2.3v-2.16h1.26v9.83h-1.26v-2.18a4.16,4.16,0,0,1-3.91,2.33c-2.68,0-4.68-2-4.68-5.08S131.06,431.29,133.76,431.29Zm.23,1.1c-2.07,0-3.65,1.44-3.65,3.94s1.58,4,3.65,4a4,4,0,0,0,0-7.92Z"/><path class="fea7bece-eccc-4953-8db4-71be684a1806" d="M149.1,435.65c0-2.18-1.19-3.3-3-3.3S143,433.5,143,435.9v5.36h-1.26v-9.83H143v1.68a3.59,3.59,0,0,1,3.35-1.86c2.23,0,4,1.37,4,4.25v5.76H149.1Z"/><path class="fea7bece-eccc-4953-8db4-71be684a1806" d="M157.23,431.29a4.27,4.27,0,0,1,3.87,2.27v-5.62h1.26v13.32H161.1v-2.19a4.12,4.12,0,0,1-3.89,2.34c-2.7,0-4.7-2-4.7-5.08S154.51,431.29,157.23,431.29Zm.21,1.1c-2.07,0-3.65,1.44-3.65,3.94s1.58,4,3.65,4a4,4,0,0,0,0-7.92Z"/><path class="fea7bece-eccc-4953-8db4-71be684a1806" d="M169.52,441.41a5.06,5.06,0,1,1,4.95-5.06A4.8,4.8,0,0,1,169.52,441.41Zm0-1.1a3.61,3.61,0,0,0,3.65-4c0-2.7-1.76-4-3.64-4s-3.62,1.26-3.62,4S167.64,440.31,169.52,440.31Z"/><path class="fea7bece-eccc-4953-8db4-71be684a1806" d="M186.85,431.29c2.68,0,4.68,2,4.68,5s-2,5.08-4.68,5.08a4.21,4.21,0,0,1-3.91-2.31v6.81H181.7V431.43h1.24v2.16A4.18,4.18,0,0,1,186.85,431.29Zm-.25,1.1a4,4,0,0,0,0,7.92c2.07,0,3.65-1.5,3.65-4S188.67,432.39,186.6,432.39Z"/><path class="fea7bece-eccc-4953-8db4-71be684a1806" d="M198.15,441.41a5.06,5.06,0,1,1,5-5.06A4.8,4.8,0,0,1,198.15,441.41Zm0-1.1a4,4,0,0,0,0-7.92c-1.87,0-3.62,1.26-3.62,4S196.28,440.31,198.15,440.31Z"/><path class="fea7bece-eccc-4953-8db4-71be684a1806" d="M206.65,441.26h-1.27v-9.83h1.27v1.75a3.37,3.37,0,0,1,3.36-1.93v1.32h-.34c-1.64,0-3,.73-3,3.2Z"/><path class="fea7bece-eccc-4953-8db4-71be684a1806" d="M221,431.29a4.24,4.24,0,0,1,4.52,3.35H224.2a3,3,0,0,0-3.17-2.27c-1.93,0-3.5,1.31-3.5,4s1.57,4,3.5,4a3,3,0,0,0,3.17-2.28h1.35a4.32,4.32,0,0,1-4.52,3.35c-2.78,0-4.77-2-4.77-5.06S218.25,431.29,221,431.29Z"/><path class="fea7bece-eccc-4953-8db4-71be684a1806" d="M232,441.41a5.06,5.06,0,1,1,5-5.06A4.8,4.8,0,0,1,232,441.41Zm0-1.1a4,4,0,0,0,0-7.92c-1.87,0-3.62,1.26-3.62,4S230.15,440.31,232,440.31Z"/><path class="fea7bece-eccc-4953-8db4-71be684a1806" d="M246.62,435.65c0-2.18-1.19-3.3-3-3.3s-3.11,1.15-3.11,3.55v5.36h-1.26v-9.83h1.26v1.68a3.58,3.58,0,0,1,3.34-1.86c2.24,0,4,1.37,4,4.25v5.76h-1.24Z"/><path class="fea7bece-eccc-4953-8db4-71be684a1806" d="M254,441.41c-2.23,0-3.8-1.12-4-2.92h1.29c.11,1.08,1.05,1.85,2.65,1.85,1.41,0,2.2-.75,2.2-1.69,0-2.43-5.91-1-5.91-4.7,0-1.46,1.39-2.66,3.46-2.66s3.49,1.11,3.6,3H256a2.1,2.1,0,0,0-2.38-1.92c-1.31,0-2.14.7-2.14,1.56,0,2.67,5.82,1.25,5.87,4.72C257.37,440.24,256,441.41,254,441.41Z"/><path class="fea7bece-eccc-4953-8db4-71be684a1806" d="M259.93,432.49h-1.37v-1.06h1.37V429h1.28v2.47h2.7v1.06h-2.7v6.11c0,1.2.41,1.58,1.55,1.58h1.15v1.08h-1.35c-1.71,0-2.63-.7-2.63-2.66Z"/><path class="fea7bece-eccc-4953-8db4-71be684a1806" d="M267,441.26h-1.26v-9.83H267v1.75a3.39,3.39,0,0,1,3.37-1.93v1.32H270c-1.64,0-3,.73-3,3.2Z"/><path class="fea7bece-eccc-4953-8db4-71be684a1806" d="M280.69,441.26h-1.25v-1.73a3.55,3.55,0,0,1-3.35,1.89c-2.24,0-4-1.36-4-4.24v-5.75h1.24V437c0,2.18,1.19,3.3,3,3.3s3.12-1.16,3.12-3.55v-5.35h1.25Z"/><path class="fea7bece-eccc-4953-8db4-71be684a1806" d="M287.74,431.29a4.24,4.24,0,0,1,4.52,3.35h-1.35a3,3,0,0,0-3.17-2.27c-1.93,0-3.5,1.31-3.5,4s1.57,4,3.5,4a3,3,0,0,0,3.17-2.28h1.35a4.32,4.32,0,0,1-4.52,3.35c-2.78,0-4.77-2-4.77-5.06S285,431.29,287.74,431.29Z"/><path class="fea7bece-eccc-4953-8db4-71be684a1806" d="M298.62,431.29a4.24,4.24,0,0,1,4.52,3.35h-1.35a3,3,0,0,0-3.17-2.27c-1.92,0-3.49,1.31-3.49,4s1.57,4,3.49,4a3,3,0,0,0,3.17-2.28h1.35a4.31,4.31,0,0,1-4.52,3.35c-2.77,0-4.77-2-4.77-5.06S295.85,431.29,298.62,431.29Z"/><path class="fea7bece-eccc-4953-8db4-71be684a1806" d="M305.06,428.64a.92.92,0,1,1,1.84,0,.92.92,0,1,1-1.84,0Zm.29,2.79h1.26v9.83h-1.26Z"/><path class="fea7bece-eccc-4953-8db4-71be684a1806" d="M313.7,441.41a5.06,5.06,0,1,1,4.95-5.06A4.79,4.79,0,0,1,313.7,441.41Zm0-1.1a4,4,0,0,0,0-7.92c-1.87,0-3.62,1.26-3.62,4S311.83,440.31,313.7,440.31Zm1.73-13v1.13l-3.69,2.15v-1Z"/><path class="fea7bece-eccc-4953-8db4-71be684a1806" d="M328.3,435.65c0-2.18-1.19-3.3-3-3.3s-3.12,1.15-3.12,3.55v5.36h-1.26v-9.83h1.26v1.68a3.59,3.59,0,0,1,3.35-1.86c2.24,0,4,1.37,4,4.25v5.76H328.3Z"/><path class="fea7bece-eccc-4953-8db4-71be684a1806" d="M337.26,427.94h1.26v13.32h-1.26Z"/><path class="fea7bece-eccc-4953-8db4-71be684a1806" d="M345.66,441.41a5.06,5.06,0,1,1,5-5.06A4.8,4.8,0,0,1,345.66,441.41Zm0-1.1a3.61,3.61,0,0,0,3.66-4c0-2.7-1.76-4-3.64-4s-3.62,1.26-3.62,4S343.79,440.31,345.66,440.31Z"/><path class="fea7bece-eccc-4953-8db4-71be684a1806" d="M356.17,441.41c-2.23,0-3.8-1.12-4-2.92h1.3c.1,1.08,1,1.85,2.64,1.85,1.41,0,2.2-.75,2.2-1.69,0-2.43-5.91-1-5.91-4.7,0-1.46,1.39-2.66,3.46-2.66s3.49,1.11,3.6,3h-1.26a2.09,2.09,0,0,0-2.37-1.92c-1.32,0-2.15.7-2.15,1.56,0,2.67,5.82,1.25,5.87,4.72C359.59,440.24,358.21,441.41,356.17,441.41Z"/><path class="fea7bece-eccc-4953-8db4-71be684a1806" d="M104.28,461.29c2.68,0,4.68,2,4.68,5s-2,5.08-4.68,5.08a4.21,4.21,0,0,1-3.91-2.31v6.81H99.13V461.43h1.24v2.16A4.18,4.18,0,0,1,104.28,461.29Zm-.25,1.1a4,4,0,0,0,0,7.92c2.07,0,3.65-1.5,3.65-4S106.1,462.39,104,462.39Z"/><path class="fea7bece-eccc-4953-8db4-71be684a1806" d="M112.51,471.26h-1.26v-9.83h1.26v1.75a3.38,3.38,0,0,1,3.37-1.93v1.32h-.35c-1.63,0-3,.73-3,3.2Z"/><path class="fea7bece-eccc-4953-8db4-71be684a1806" d="M121.61,471.41a5.06,5.06,0,1,1,5-5.06A4.8,4.8,0,0,1,121.61,471.41Zm0-1.1a3.61,3.61,0,0,0,3.65-4c0-2.7-1.76-4-3.64-4s-3.62,1.26-3.62,4S119.73,470.31,121.61,470.31Z"/><path class="fea7bece-eccc-4953-8db4-71be684a1806" d="M134,461.29c2.7,0,4.68,2,4.68,5s-2,5.08-4.68,5.08a4.12,4.12,0,0,1-3.91-2.31v2.16h-1.24V457.94h1.24v5.67A4.16,4.16,0,0,1,134,461.29Zm-.26,1.1a4,4,0,1,0,3.66,3.94A3.59,3.59,0,0,0,133.73,462.39Z"/><path class="fea7bece-eccc-4953-8db4-71be684a1806" d="M141,457.94h1.26v13.32H141Z"/><path class="fea7bece-eccc-4953-8db4-71be684a1806" d="M149.33,471.41a4.69,4.69,0,0,1-4.83-5.06c0-3.14,2-5.06,4.83-5.06a4.41,4.41,0,0,1,4.64,4.55c0,.4,0,.65,0,1h-8.16a3.43,3.43,0,0,0,3.55,3.51,3,3,0,0,0,3.17-2.19h1.33A4.33,4.33,0,0,1,149.33,471.41Zm-3.55-5.6h6.91a3.21,3.21,0,0,0-3.42-3.44A3.39,3.39,0,0,0,145.78,465.81Z"/><path class="fea7bece-eccc-4953-8db4-71be684a1806" d="M170.65,465.65c0-2.18-1.14-3.3-2.88-3.3s-3.05,1.19-3.05,3.58v5.33h-1.24v-5.61c0-2.18-1.15-3.3-2.9-3.3s-3,1.19-3,3.58v5.33h-1.26v-9.83h1.26v1.69a3.51,3.51,0,0,1,3.26-1.87,3.65,3.65,0,0,1,3.64,2.41,3.58,3.58,0,0,1,3.54-2.41c2.18,0,3.91,1.37,3.91,4.25v5.76h-1.24Z"/><path class="fea7bece-eccc-4953-8db4-71be684a1806" d="M178.78,461.29a4.08,4.08,0,0,1,3.88,2.3v-2.16h1.27v9.83h-1.27v-2.18a4.14,4.14,0,0,1-3.9,2.33c-2.69,0-4.68-2-4.68-5.08S176.07,461.29,178.78,461.29Zm.23,1.1c-2.07,0-3.65,1.44-3.65,3.94s1.58,4,3.65,4a4,4,0,0,0,0-7.92Z"/><path class="fea7bece-eccc-4953-8db4-71be684a1806" d="M190.13,471.41c-2.23,0-3.8-1.12-4-2.92h1.3c.11,1.08,1,1.85,2.65,1.85,1.4,0,2.19-.75,2.19-1.69,0-2.43-5.9-1-5.9-4.7,0-1.46,1.38-2.66,3.45-2.66s3.5,1.11,3.6,3H192.2a2.09,2.09,0,0,0-2.37-1.92c-1.32,0-2.14.7-2.14,1.56,0,2.67,5.81,1.25,5.86,4.72C193.55,470.24,192.17,471.41,190.13,471.41Z"/><path class="fea7bece-eccc-4953-8db4-71be684a1806" d="M205,461.29a4.26,4.26,0,0,1,3.87,2.27v-5.62h1.26v13.32h-1.26v-2.19a4.1,4.1,0,0,1-3.89,2.34c-2.7,0-4.7-2-4.7-5.08S202.28,461.29,205,461.29Zm.22,1.1a3.59,3.59,0,0,0-3.66,3.94,3.67,3.67,0,1,0,3.66-3.94Z"/><path class="fea7bece-eccc-4953-8db4-71be684a1806" d="M217.24,471.41a4.69,4.69,0,0,1-4.83-5.06c0-3.14,2-5.06,4.83-5.06a4.41,4.41,0,0,1,4.64,4.55c0,.4,0,.65,0,1h-8.16a3.43,3.43,0,0,0,3.55,3.51,3,3,0,0,0,3.17-2.19h1.33A4.33,4.33,0,0,1,217.24,471.41Zm-3.55-5.6h6.91a3.21,3.21,0,0,0-3.42-3.44A3.39,3.39,0,0,0,213.69,465.81Z"/><path class="fea7bece-eccc-4953-8db4-71be684a1806" d="M233.36,471.41a4.69,4.69,0,0,1-4.82-5.06c0-3.14,2-5.06,4.82-5.06a4.42,4.42,0,0,1,4.65,4.55,7.71,7.71,0,0,1,0,1h-8.15a3.43,3.43,0,0,0,3.54,3.51,3,3,0,0,0,3.17-2.19h1.34A4.33,4.33,0,0,1,233.36,471.41Zm-3.54-5.6h6.91a3.21,3.21,0,0,0-3.42-3.44A3.39,3.39,0,0,0,229.82,465.81Z"/><path class="fea7bece-eccc-4953-8db4-71be684a1806" d="M247.68,465.65c0-2.18-1.19-3.3-3-3.3s-3.11,1.15-3.11,3.55v5.36h-1.26v-9.83h1.26v1.68a3.59,3.59,0,0,1,3.35-1.86c2.23,0,4,1.37,4,4.25v5.76h-1.25Z"/><path class="fea7bece-eccc-4953-8db4-71be684a1806" d="M255.8,461.29a4.26,4.26,0,0,1,3.87,2.27v-5.62h1.27v13.32h-1.27v-2.19a4.09,4.09,0,0,1-3.88,2.34c-2.71,0-4.7-2-4.7-5.08S253.08,461.29,255.8,461.29Zm.22,1.1a3.59,3.59,0,0,0-3.66,3.94,3.67,3.67,0,1,0,3.66-3.94Z"/><path class="fea7bece-eccc-4953-8db4-71be684a1806" d="M268.09,471.41a5.06,5.06,0,1,1,5-5.06A4.8,4.8,0,0,1,268.09,471.41Zm0-1.1a4,4,0,0,0,0-7.92c-1.87,0-3.62,1.26-3.62,4S266.22,470.31,268.09,470.31Z"/><path class="fea7bece-eccc-4953-8db4-71be684a1806" d="M279.48,461.29a4.14,4.14,0,0,1,3.89,2.28v-2.14h1.26v10.08a4.35,4.35,0,0,1-4.59,4.58c-2.54,0-4.31-1.3-4.7-3.35h1.24A3.37,3.37,0,0,0,280,475a3.21,3.21,0,0,0,3.33-3.48v-2.43a4.16,4.16,0,0,1-3.89,2.33c-2.7,0-4.7-2-4.7-5.08S276.78,461.29,279.48,461.29Zm.23,1.1c-2.07,0-3.65,1.44-3.65,3.94s1.58,4,3.65,4a4,4,0,0,0,0-7.92Z"/><path class="fea7bece-eccc-4953-8db4-71be684a1806" d="M291.73,471.41a4.69,4.69,0,0,1-4.82-5.06c0-3.14,2-5.06,4.82-5.06a4.42,4.42,0,0,1,4.65,4.55,7.71,7.71,0,0,1,0,1h-8.15a3.43,3.43,0,0,0,3.54,3.51,3,3,0,0,0,3.17-2.19h1.33A4.32,4.32,0,0,1,291.73,471.41Zm-3.54-5.6h6.91a3.21,3.21,0,0,0-3.42-3.44A3.39,3.39,0,0,0,288.19,465.81Z"/><path class="fea7bece-eccc-4953-8db4-71be684a1806" d="M306.05,465.65c0-2.18-1.19-3.3-3-3.3S300,463.5,300,465.9v5.36h-1.26v-9.83H300v1.68a3.59,3.59,0,0,1,3.35-1.86c2.23,0,4,1.37,4,4.25v5.76h-1.24Z"/><path class="fea7bece-eccc-4953-8db4-71be684a1806" d="M314.28,471.41a4.69,4.69,0,0,1-4.83-5.06c0-3.14,2-5.06,4.83-5.06a4.42,4.42,0,0,1,4.65,4.55,7.71,7.71,0,0,1,0,1h-8.16a3.43,3.43,0,0,0,3.55,3.51,3,3,0,0,0,3.17-2.19h1.33A4.32,4.32,0,0,1,314.28,471.41Zm-3.55-5.6h6.92a3.22,3.22,0,0,0-3.42-3.44A3.4,3.4,0,0,0,310.73,465.81Z"/><path class="fea7bece-eccc-4953-8db4-71be684a1806" d="M320.89,458.64a.92.92,0,1,1,1.83,0,.92.92,0,1,1-1.83,0Zm.29,2.79h1.26v9.83h-1.26Z"/><path class="fea7bece-eccc-4953-8db4-71be684a1806" d="M329.37,461.29a4.27,4.27,0,0,1,3.87,2.27v-5.62h1.26v13.32h-1.26v-2.19a4.12,4.12,0,0,1-3.89,2.34c-2.7,0-4.7-2-4.7-5.08S326.65,461.29,329.37,461.29Zm.21,1.1c-2.07,0-3.65,1.44-3.65,3.94s1.58,4,3.65,4a4,4,0,0,0,0-7.92Z"/><path class="fea7bece-eccc-4953-8db4-71be684a1806" d="M341.48,461.29a4.11,4.11,0,0,1,3.89,2.3v-2.16h1.26v9.83h-1.26v-2.18a4.17,4.17,0,0,1-3.91,2.33c-2.68,0-4.68-2-4.68-5.08S338.78,461.29,341.48,461.29Zm.23,1.1c-2.07,0-3.65,1.44-3.65,3.94s1.58,4,3.65,4a4,4,0,0,0,0-7.92Z"/><path class="fea7bece-eccc-4953-8db4-71be684a1806" d="M353.62,461.29a4.26,4.26,0,0,1,3.87,2.27v-5.62h1.27v13.32h-1.27v-2.19a4.09,4.09,0,0,1-3.88,2.34c-2.71,0-4.7-2-4.7-5.08S350.9,461.29,353.62,461.29Zm.22,1.1a3.59,3.59,0,0,0-3.66,3.94,3.67,3.67,0,1,0,3.66-3.94Z"/><path class="fea7bece-eccc-4953-8db4-71be684a1806" d="M362,471.35a.91.91,0,0,1-.92-.93.91.91,0,1,1,1.82,0A.91.91,0,0,1,362,471.35Z"/><path class="fd4ca166-5210-4128-84f2-5d2aef6483b4" d="M-672.3,0V557.11c0,13.81,19.56,25,43.7,25H456"/></g></g></svg>