<svg id="b550af1e-2632-49d3-81a9-c245a7455d90" data-name="Capa 1" xmlns="http://www.w3.org/2000/svg" viewBox="0 0 674.84 184.36"><defs><style>.ab96a81a-b45f-405e-9bc3-632bbdbe4fc3{fill:none;stroke:#5f9eb5;stroke-miterlimit:10;stroke-width:2px;}.bf4a43f3-d0eb-4342-ae0e-9b79caed8317{fill:#5f9eb5;}</style></defs><circle class="ab96a81a-b45f-405e-9bc3-632bbdbe4fc3" cx="46.07" cy="138.28" r="43.59"/><line class="ab96a81a-b45f-405e-9bc3-632bbdbe4fc3" x1="89.66" y1="138.28" x2="674.84" y2="138.28"/><line class="ab96a81a-b45f-405e-9bc3-632bbdbe4fc3" x1="46.07" x2="46.07" y2="94.69"/><path class="bf4a43f3-d0eb-4342-ae0e-9b79caed8317" d="M70.44,157.55l-3.36-3.36a1,1,0,1,0-1.35,1.36l1.72,1.72H28v-39L29.73,120a1,1,0,0,0,1.35,0,1,1,0,0,0,0-1.36l-3.36-3.36a1,1,0,0,0-1.35,0L23,118.67A1,1,0,0,0,23,120a.94.94,0,0,0,1.35,0l1.72-1.72v40.88H67.45l-1.72,1.72a1,1,0,0,0,0,1.36,1,1,0,0,0,1.35,0l3.36-3.36A1,1,0,0,0,70.44,157.55Z"/><path class="bf4a43f3-d0eb-4342-ae0e-9b79caed8317" d="M31.36,150.07a1,1,0,1,0,0,1.92H32.8v1.44a1,1,0,0,0,1.92,0V152h1.44a1,1,0,0,0,0-1.92H34.72v-1.44a1,1,0,1,0-1.92,0v1.44Z"/><path class="bf4a43f3-d0eb-4342-ae0e-9b79caed8317" d="M41.2,137.59h1.44V139a1,1,0,0,0,1.92,0v-1.44H46a1,1,0,0,0,0-1.92H44.56v-1.44a1,1,0,0,0-1.92,0v1.44H41.2a1,1,0,1,0,0,1.92Z"/><path class="bf4a43f3-d0eb-4342-ae0e-9b79caed8317" d="M52.48,132.31h1.44v1.44a1,1,0,0,0,1.92,0v-1.44h1.44a1,1,0,0,0,0-1.92H55.84V129a1,1,0,0,0-1.92,0v1.44H52.48a1,1,0,0,0,0,1.92Z"/><path class="bf4a43f3-d0eb-4342-ae0e-9b79caed8317" d="M57.76,123.19H59.2v1.44a1,1,0,1,0,1.92,0v-1.44h1.44a1,1,0,0,0,0-1.92H61.12v-1.44a1,1,0,0,0-1.92,0v1.44H57.76a1,1,0,0,0,0,1.92Z"/><path class="bf4a43f3-d0eb-4342-ae0e-9b79caed8317" d="M45.28,145.27v-1.44a1,1,0,1,0-1.92,0v1.44H41.92a1,1,0,1,0,0,1.92h1.44v1.44a1,1,0,0,0,1.92,0v-1.44h1.44a1,1,0,1,0,0-1.92Z"/></svg>