<svg id="f2420f9e-b77c-428a-9a70-95ec52e288ad" data-name="Capa 1" xmlns="http://www.w3.org/2000/svg" viewBox="0 0 380.6 212"><defs><style>.b7c0fb9c-0a17-45ea-8d18-f4f3ce69ec4f{fill:#5f9eb5;}.eecf69c7-2098-47f5-af07-7a3c5f386a7c{fill:#272b31;}</style></defs><path class="b7c0fb9c-0a17-45ea-8d18-f4f3ce69ec4f" d="M4.8,4.38h6.06L16.77,19,22.62,4.38h6V25.44H23.52V12.81L18.81,25.44H14.67L9.93,12.78V25.44H4.8Z"/><path class="b7c0fb9c-0a17-45ea-8d18-f4f3ce69ec4f" d="M40.08,25.68c-4.92,0-8.64-3.3-8.64-8.61s3.81-8.61,8.7-8.61,8.7,3.3,8.7,8.61S45,25.68,40.08,25.68Zm0-4.44c1.83,0,3.54-1.35,3.54-4.17s-1.68-4.17-3.48-4.17-3.48,1.32-3.48,4.17S38.22,21.24,40.08,21.24Z"/><path class="b7c0fb9c-0a17-45ea-8d18-f4f3ce69ec4f" d="M57.86,8.46A6.14,6.14,0,0,1,63,11V3.24h5.13v22.2H63V23a5.79,5.79,0,0,1-5.16,2.64c-4.11,0-7.38-3.36-7.38-8.64S53.75,8.46,57.86,8.46Zm1.5,4.47c-1.92,0-3.66,1.44-3.66,4.11s1.74,4.17,3.66,4.17S63,19.74,63,17.07,61.31,12.93,59.36,12.93Z"/><path class="b7c0fb9c-0a17-45ea-8d18-f4f3ce69ec4f" d="M79.26,25.68c-4.92,0-8.46-3.3-8.46-8.61s3.48-8.61,8.46-8.61S87.6,11.7,87.6,16.8a13,13,0,0,1-.09,1.5H75.9c.18,2.19,1.53,3.21,3.18,3.21a2.73,2.73,0,0,0,2.67-1.62h5.46A7.82,7.82,0,0,1,79.26,25.68ZM75.93,15.45h6.42a2.89,2.89,0,0,0-3.15-2.88A3.17,3.17,0,0,0,75.93,15.45Z"/><path class="b7c0fb9c-0a17-45ea-8d18-f4f3ce69ec4f" d="M90.22,3.24h5.13v22.2H90.22Z"/><path class="b7c0fb9c-0a17-45ea-8d18-f4f3ce69ec4f" d="M106.57,25.68c-4.92,0-8.64-3.3-8.64-8.61s3.81-8.61,8.7-8.61,8.7,3.3,8.7,8.61S111.49,25.68,106.57,25.68Zm0-4.44c1.83,0,3.54-1.35,3.54-4.17s-1.68-4.17-3.48-4.17-3.48,1.32-3.48,4.17S104.71,21.24,106.57,21.24Z"/><path class="b7c0fb9c-0a17-45ea-8d18-f4f3ce69ec4f" d="M124.58,25.68c-4.47,0-7.47-2.49-7.71-5.73h5.07a2.35,2.35,0,0,0,2.58,1.95c1.32,0,2-.6,2-1.35,0-2.7-9.12-.75-9.12-6.9,0-2.85,2.43-5.19,6.81-5.19s6.72,2.4,7.05,5.7h-4.74a2.21,2.21,0,0,0-2.46-1.89c-1.2,0-1.86.48-1.86,1.29,0,2.67,9.06.78,9.15,7C131.36,23.49,128.78,25.68,124.58,25.68Z"/><path class="b7c0fb9c-0a17-45ea-8d18-f4f3ce69ec4f" d="M148.25,8.46c4.2,0,7.17,2.31,8,6.3h-5.46a2.64,2.64,0,0,0-2.67-1.92c-1.83,0-3.09,1.44-3.09,4.23s1.26,4.23,3.09,4.23a2.6,2.6,0,0,0,2.67-1.92h5.46a7.77,7.77,0,0,1-8,6.3c-4.92,0-8.4-3.3-8.4-8.61S143.33,8.46,148.25,8.46Z"/><path class="b7c0fb9c-0a17-45ea-8d18-f4f3ce69ec4f" d="M166.42,25.68c-4.92,0-8.64-3.3-8.64-8.61s3.81-8.61,8.7-8.61,8.7,3.3,8.7,8.61S171.34,25.68,166.42,25.68Zm0-4.44c1.83,0,3.54-1.35,3.54-4.17s-1.68-4.17-3.48-4.17S163,14.22,163,17.07,164.56,21.24,166.42,21.24Z"/><path class="b7c0fb9c-0a17-45ea-8d18-f4f3ce69ec4f" d="M182.91,25.44h-5.13V8.7h5.13v2.79a6.24,6.24,0,0,1,5.25-3V14h-1.41c-2.43,0-3.84.84-3.84,3.72Z"/><path class="b7c0fb9c-0a17-45ea-8d18-f4f3ce69ec4f" d="M195.42,25.44h-5.13V8.7h5.13v2.79a6.24,6.24,0,0,1,5.25-3V14h-1.41c-2.43,0-3.84.84-3.84,3.72Z"/><path class="b7c0fb9c-0a17-45ea-8d18-f4f3ce69ec4f" d="M210.36,25.68c-4.92,0-8.46-3.3-8.46-8.61s3.48-8.61,8.46-8.61,8.34,3.24,8.34,8.34a13,13,0,0,1-.09,1.5H207c.18,2.19,1.53,3.21,3.18,3.21a2.73,2.73,0,0,0,2.67-1.62h5.46A7.82,7.82,0,0,1,210.36,25.68ZM207,15.45h6.42a2.89,2.89,0,0,0-3.15-2.88A3.17,3.17,0,0,0,207,15.45Z"/><path class="b7c0fb9c-0a17-45ea-8d18-f4f3ce69ec4f" d="M221.33,3.24h5.13v22.2h-5.13Z"/><path class="b7c0fb9c-0a17-45ea-8d18-f4f3ce69ec4f" d="M236.47,8.46a5.83,5.83,0,0,1,5.16,2.61V8.7h5.13V25.44h-5.13V23.07a5.92,5.92,0,0,1-5.19,2.61c-4.08,0-7.35-3.36-7.35-8.64S232.36,8.46,236.47,8.46Zm1.5,4.47c-1.92,0-3.66,1.44-3.66,4.11s1.74,4.17,3.66,4.17,3.66-1.47,3.66-4.14S239.92,12.93,238,12.93Z"/><path class="b7c0fb9c-0a17-45ea-8d18-f4f3ce69ec4f" d="M257.8,8.46c4.2,0,7.17,2.31,8,6.3h-5.46a2.64,2.64,0,0,0-2.67-1.92c-1.83,0-3.09,1.44-3.09,4.23s1.26,4.23,3.09,4.23a2.6,2.6,0,0,0,2.67-1.92h5.46a7.77,7.77,0,0,1-8,6.3c-4.92,0-8.4-3.3-8.4-8.61S252.88,8.46,257.8,8.46Z"/><path class="b7c0fb9c-0a17-45ea-8d18-f4f3ce69ec4f" d="M267.82,4.2a3.06,3.06,0,0,1,6.09,0,3.06,3.06,0,0,1-6.09,0Zm.48,4.5h5.13V25.44H268.3Z"/><path class="b7c0fb9c-0a17-45ea-8d18-f4f3ce69ec4f" d="M284.55,25.68c-4.92,0-8.64-3.3-8.64-8.61s3.81-8.61,8.7-8.61,8.7,3.3,8.7,8.61S289.47,25.68,284.55,25.68Zm0-4.44c1.83,0,3.54-1.35,3.54-4.17s-1.68-4.17-3.48-4.17-3.48,1.32-3.48,4.17S282.69,21.24,284.55,21.24Z"/><path class="b7c0fb9c-0a17-45ea-8d18-f4f3ce69ec4f" d="M307.46,16.35c0-2.28-1.26-3.54-3.21-3.54S301,14.07,301,16.35v9.09h-5.13V8.7H301v2.22a6.14,6.14,0,0,1,5.07-2.4c3.87,0,6.45,2.64,6.45,7.14v9.78h-5.1Z"/><path class="b7c0fb9c-0a17-45ea-8d18-f4f3ce69ec4f" d="M322.4,8.46a5.83,5.83,0,0,1,5.16,2.61V8.7h5.13V25.44h-5.13V23.07a5.92,5.92,0,0,1-5.19,2.61c-4.08,0-7.35-3.36-7.35-8.64S318.29,8.46,322.4,8.46Zm1.5,4.47c-1.92,0-3.66,1.44-3.66,4.11s1.74,4.17,3.66,4.17,3.66-1.47,3.66-4.14S325.85,12.93,323.9,12.93Z"/><path class="b7c0fb9c-0a17-45ea-8d18-f4f3ce69ec4f" d="M336.28,3.24h5.13v22.2h-5.13Z"/><path class="b7c0fb9c-0a17-45ea-8d18-f4f3ce69ec4f" d="M352.45,25.68c-4.92,0-8.46-3.3-8.46-8.61s3.48-8.61,8.46-8.61,8.34,3.24,8.34,8.34a13,13,0,0,1-.09,1.5H349.09c.18,2.19,1.53,3.21,3.18,3.21a2.73,2.73,0,0,0,2.67-1.62h5.46A7.82,7.82,0,0,1,352.45,25.68Zm-3.33-10.23h6.42a2.89,2.89,0,0,0-3.15-2.88A3.17,3.17,0,0,0,349.12,15.45Z"/><path class="b7c0fb9c-0a17-45ea-8d18-f4f3ce69ec4f" d="M370,25.68c-4.47,0-7.47-2.49-7.71-5.73h5.07A2.35,2.35,0,0,0,370,21.9c1.32,0,2-.6,2-1.35,0-2.7-9.12-.75-9.12-6.9,0-2.85,2.43-5.19,6.81-5.19s6.72,2.4,7,5.7H372a2.21,2.21,0,0,0-2.46-1.89c-1.2,0-1.86.48-1.86,1.29,0,2.67,9.06.78,9.15,7C376.8,23.49,374.22,25.68,370,25.68Z"/><path class="eecf69c7-2098-47f5-af07-7a3c5f386a7c" d="M11,73.88H5.64v4.7h4.77v1H5.64v4.77H11v1H4.38V72.83H11Z"/><path class="eecf69c7-2098-47f5-af07-7a3c5f386a7c" d="M16.39,85.58c-2.24,0-3.8-1.12-4-2.92h1.3c.11,1.08,1,1.86,2.65,1.86,1.4,0,2.19-.76,2.19-1.69,0-2.43-5.9-1-5.9-4.7,0-1.46,1.38-2.67,3.46-2.67s3.49,1.12,3.6,3H18.46a2.11,2.11,0,0,0-2.38-1.93c-1.32,0-2.14.7-2.14,1.57,0,2.66,5.81,1.24,5.87,4.72C19.81,84.41,18.42,85.58,16.39,85.58Z"/><path class="eecf69c7-2098-47f5-af07-7a3c5f386a7c" d="M22.37,76.67H21V75.61h1.37V73.14h1.28v2.47h2.7v1.06h-2.7v6.1c0,1.21.41,1.59,1.54,1.59h1.16v1.08H25c-1.71,0-2.63-.7-2.63-2.67Z"/><path class="eecf69c7-2098-47f5-af07-7a3c5f386a7c" d="M32.17,85.58a5.06,5.06,0,0,1,0-10.12,5.06,5.06,0,0,1,0,10.12Zm0-1.1a4,4,0,0,0,0-7.92c-1.87,0-3.62,1.26-3.62,4S30.3,84.48,32.17,84.48Z"/><path class="eecf69c7-2098-47f5-af07-7a3c5f386a7c" d="M42.68,85.58c-2.23,0-3.8-1.12-4-2.92H40c.1,1.08,1,1.86,2.64,1.86,1.41,0,2.2-.76,2.2-1.69,0-2.43-5.91-1-5.91-4.7,0-1.46,1.39-2.67,3.46-2.67s3.49,1.12,3.6,3H44.75a2.1,2.1,0,0,0-2.38-1.93c-1.31,0-2.14.7-2.14,1.57,0,2.66,5.82,1.24,5.87,4.72C46.1,84.41,44.72,85.58,42.68,85.58Z"/><path class="eecf69c7-2098-47f5-af07-7a3c5f386a7c" d="M67.78,79.82c0-2.18-1.14-3.3-2.89-3.3s-3,1.19-3,3.59v5.33H60.61V79.82c0-2.18-1.15-3.3-2.9-3.3s-3,1.19-3,3.59v5.33H53.41V75.61h1.26V77.3a3.51,3.51,0,0,1,3.26-1.87,3.62,3.62,0,0,1,3.63,2.41,3.58,3.58,0,0,1,3.55-2.41c2.18,0,3.91,1.36,3.91,4.25v5.76H67.78Z"/><path class="eecf69c7-2098-47f5-af07-7a3c5f386a7c" d="M76.08,85.58a5.06,5.06,0,1,1,5-5.06A4.79,4.79,0,0,1,76.08,85.58Zm0-1.1a4,4,0,0,0,0-7.92c-1.87,0-3.62,1.26-3.62,4S74.21,84.48,76.08,84.48Z"/><path class="eecf69c7-2098-47f5-af07-7a3c5f386a7c" d="M87.49,75.46a4.27,4.27,0,0,1,3.87,2.27V72.11h1.26V85.44H91.36v-2.2a4.1,4.1,0,0,1-3.89,2.34c-2.7,0-4.7-2-4.7-5.08S84.77,75.46,87.49,75.46Zm.21,1.1c-2.07,0-3.65,1.44-3.65,3.94s1.58,4,3.65,4a4,4,0,0,0,0-7.92Z"/><path class="eecf69c7-2098-47f5-af07-7a3c5f386a7c" d="M99.72,85.58c-2.79,0-4.82-1.94-4.82-5.06s2-5.06,4.82-5.06A4.42,4.42,0,0,1,104.37,80a7.79,7.79,0,0,1,0,1H96.18a3.43,3.43,0,0,0,3.54,3.51,3,3,0,0,0,3.17-2.2h1.33A4.31,4.31,0,0,1,99.72,85.58ZM96.18,80h6.91a3.21,3.21,0,0,0-3.42-3.44A3.39,3.39,0,0,0,96.18,80Z"/><path class="eecf69c7-2098-47f5-af07-7a3c5f386a7c" d="M106.67,72.11h1.26V85.44h-1.26Z"/><path class="eecf69c7-2098-47f5-af07-7a3c5f386a7c" d="M115.07,85.58a5.06,5.06,0,1,1,5-5.06A4.79,4.79,0,0,1,115.07,85.58Zm0-1.1a4,4,0,0,0,0-7.92c-1.87,0-3.62,1.26-3.62,4S113.2,84.48,115.07,84.48Z"/><path class="eecf69c7-2098-47f5-af07-7a3c5f386a7c" d="M125.58,85.58c-2.23,0-3.8-1.12-4-2.92h1.3c.1,1.08,1,1.86,2.64,1.86,1.41,0,2.2-.76,2.2-1.69,0-2.43-5.91-1-5.91-4.7,0-1.46,1.39-2.67,3.46-2.67s3.49,1.12,3.6,3h-1.26a2.1,2.1,0,0,0-2.38-1.93c-1.31,0-2.14.7-2.14,1.57,0,2.66,5.82,1.24,5.87,4.72C129,84.41,127.62,85.58,125.58,85.58Z"/><path class="eecf69c7-2098-47f5-af07-7a3c5f386a7c" d="M139.69,85.58c-2.23,0-3.8-1.12-4-2.92H137c.11,1.08,1,1.86,2.64,1.86,1.41,0,2.2-.76,2.2-1.69,0-2.43-5.91-1-5.91-4.7,0-1.46,1.39-2.67,3.46-2.67s3.49,1.12,3.6,3h-1.26a2.1,2.1,0,0,0-2.37-1.93c-1.32,0-2.15.7-2.15,1.57,0,2.66,5.82,1.24,5.87,4.72C143.11,84.41,141.73,85.58,139.69,85.58Z"/><path class="eecf69c7-2098-47f5-af07-7a3c5f386a7c" d="M149.65,85.58c-2.79,0-4.82-1.94-4.82-5.06s2-5.06,4.82-5.06A4.42,4.42,0,0,1,154.3,80a7.79,7.79,0,0,1,0,1h-8.15a3.44,3.44,0,0,0,3.54,3.51,3,3,0,0,0,3.17-2.2h1.34A4.32,4.32,0,0,1,149.65,85.58ZM146.11,80H153a3.21,3.21,0,0,0-3.42-3.44A3.39,3.39,0,0,0,146.11,80Z"/><path class="eecf69c7-2098-47f5-af07-7a3c5f386a7c" d="M166.68,75.46c2.69,0,4.68,2,4.68,5s-2,5.08-4.68,5.08a4.19,4.19,0,0,1-3.9-2.3v6.8h-1.25V75.61h1.25v2.16A4.15,4.15,0,0,1,166.68,75.46Zm-.25,1.1a4,4,0,0,0,0,7.92c2.07,0,3.66-1.49,3.66-4A3.59,3.59,0,0,0,166.43,76.56Z"/><path class="eecf69c7-2098-47f5-af07-7a3c5f386a7c" d="M174.91,85.44h-1.26V75.61h1.26v1.74a3.4,3.4,0,0,1,3.37-1.92v1.31h-.34c-1.64,0-3,.74-3,3.21Z"/><path class="eecf69c7-2098-47f5-af07-7a3c5f386a7c" d="M184,85.58c-2.79,0-4.82-1.94-4.82-5.06s2-5.06,4.82-5.06A4.42,4.42,0,0,1,188.64,80a7.79,7.79,0,0,1,0,1h-8.16A3.44,3.44,0,0,0,184,84.52a3,3,0,0,0,3.17-2.2h1.33A4.31,4.31,0,0,1,184,85.58ZM180.44,80h6.92a3.21,3.21,0,0,0-3.42-3.44A3.4,3.4,0,0,0,180.44,80Z"/><path class="eecf69c7-2098-47f5-af07-7a3c5f386a7c" d="M195.07,75.46A4.14,4.14,0,0,1,199,77.75V75.61h1.26V85.69a4.35,4.35,0,0,1-4.59,4.57c-2.54,0-4.31-1.29-4.7-3.35h1.24a3.36,3.36,0,0,0,3.46,2.25A3.2,3.2,0,0,0,199,85.69V83.26a4.15,4.15,0,0,1-3.89,2.32c-2.7,0-4.7-2-4.7-5.08S192.37,75.46,195.07,75.46Zm.23,1.1c-2.07,0-3.65,1.44-3.65,3.94s1.58,4,3.65,4a4,4,0,0,0,0-7.92Z"/><path class="eecf69c7-2098-47f5-af07-7a3c5f386a7c" d="M211.58,85.44h-1.26V83.71A3.57,3.57,0,0,1,207,85.6c-2.24,0-4-1.37-4-4.25V75.61h1.24v5.6c0,2.17,1.19,3.29,3,3.29s3.12-1.15,3.12-3.55V75.61h1.26Z"/><path class="eecf69c7-2098-47f5-af07-7a3c5f386a7c" d="M221.76,79.82c0-2.18-1.19-3.3-3-3.3s-3.11,1.16-3.11,3.55v5.37H214.4V75.61h1.26v1.67A3.59,3.59,0,0,1,219,75.43c2.24,0,4,1.36,4,4.25v5.76h-1.24Z"/><path class="eecf69c7-2098-47f5-af07-7a3c5f386a7c" d="M225.88,76.67h-1.37V75.61h1.37V73.14h1.28v2.47h2.7v1.06h-2.7v6.1c0,1.21.41,1.59,1.55,1.59h1.15v1.08h-1.35c-1.71,0-2.63-.7-2.63-2.67Z"/><path class="eecf69c7-2098-47f5-af07-7a3c5f386a7c" d="M235.52,75.46a4.08,4.08,0,0,1,3.89,2.31V75.61h1.26v9.83h-1.26V83.26a4.14,4.14,0,0,1-3.9,2.32c-2.69,0-4.68-2-4.68-5.08S232.82,75.46,235.52,75.46Zm.24,1.1a3.59,3.59,0,0,0-3.66,3.94c0,2.49,1.59,4,3.66,4a4,4,0,0,0,0-7.92Z"/><path class="eecf69c7-2098-47f5-af07-7a3c5f386a7c" d="M250.87,79.82c0-2.18-1.19-3.3-3-3.3s-3.12,1.16-3.12,3.55v5.37H243.5V75.61h1.26v1.67a3.6,3.6,0,0,1,3.35-1.85c2.24,0,4,1.36,4,4.25v5.76h-1.24Z"/><path class="eecf69c7-2098-47f5-af07-7a3c5f386a7c" d="M265,75.46c2.68,0,4.68,2,4.68,5s-2,5.08-4.68,5.08a4.22,4.22,0,0,1-3.91-2.3v6.8h-1.24V75.61h1.24v2.16A4.17,4.17,0,0,1,265,75.46Zm-.25,1.1a4,4,0,0,0,0,7.92c2.07,0,3.65-1.49,3.65-4S266.8,76.56,264.73,76.56Z"/><path class="eecf69c7-2098-47f5-af07-7a3c5f386a7c" d="M276.28,85.58a5.06,5.06,0,1,1,5-5.06A4.79,4.79,0,0,1,276.28,85.58Zm0-1.1a4,4,0,0,0,0-7.92c-1.87,0-3.62,1.26-3.62,4S274.41,84.48,276.28,84.48Z"/><path class="eecf69c7-2098-47f5-af07-7a3c5f386a7c" d="M284.77,85.44h-1.26V75.61h1.26v1.74a3.4,3.4,0,0,1,3.37-1.92v1.31h-.34c-1.64,0-3,.74-3,3.21Z"/><path class="eecf69c7-2098-47f5-af07-7a3c5f386a7c" d="M295,72.11h1.26V85.44H295Z"/><path class="eecf69c7-2098-47f5-af07-7a3c5f386a7c" d="M303.19,75.46a4.07,4.07,0,0,1,3.88,2.31V75.61h1.27v9.83h-1.27V83.26a4.14,4.14,0,0,1-3.9,2.32c-2.69,0-4.68-2-4.68-5.08S300.48,75.46,303.19,75.46Zm.23,1.1a3.59,3.59,0,0,0-3.66,3.94c0,2.49,1.59,4,3.66,4a4,4,0,0,0,0-7.92Z"/><path class="eecf69c7-2098-47f5-af07-7a3c5f386a7c" d="M314.54,85.58c-2.23,0-3.8-1.12-4-2.92h1.3c.11,1.08,1,1.86,2.65,1.86,1.4,0,2.19-.76,2.19-1.69,0-2.43-5.9-1-5.9-4.7,0-1.46,1.38-2.67,3.45-2.67s3.5,1.12,3.6,3h-1.26a2.1,2.1,0,0,0-2.37-1.93c-1.32,0-2.15.7-2.15,1.57,0,2.66,5.82,1.24,5.87,4.72C318,84.41,316.58,85.58,314.54,85.58Z"/><path class="eecf69c7-2098-47f5-af07-7a3c5f386a7c" d="M8.5,105.46a4.1,4.1,0,0,1,3.89,2.31v-2.16h1.26v9.83H12.39v-2.18a4.14,4.14,0,0,1-3.9,2.32c-2.69,0-4.69-2-4.69-5.08S5.8,105.46,8.5,105.46Zm.24,1.1a3.59,3.59,0,0,0-3.66,3.94c0,2.49,1.59,4,3.66,4a4,4,0,0,0,0-7.92Z"/><path class="eecf69c7-2098-47f5-af07-7a3c5f386a7c" d="M19.86,115.58c-2.23,0-3.8-1.12-4-2.92h1.3c.1,1.08,1,1.86,2.64,1.86,1.41,0,2.2-.76,2.2-1.69,0-2.43-5.91-1-5.91-4.7,0-1.46,1.39-2.67,3.46-2.67s3.49,1.12,3.6,3H21.93a2.1,2.1,0,0,0-2.37-1.93c-1.32,0-2.15.7-2.15,1.57,0,2.66,5.82,1.24,5.87,4.72C23.28,114.41,21.9,115.58,19.86,115.58Z"/><path class="eecf69c7-2098-47f5-af07-7a3c5f386a7c" d="M29.88,115.58a5.06,5.06,0,0,1,0-10.12,5.06,5.06,0,0,1,0,10.12Zm0-1.1a3.61,3.61,0,0,0,3.65-4c0-2.7-1.76-4-3.63-4s-3.62,1.26-3.62,4S28,114.48,29.88,114.48Z"/><path class="eecf69c7-2098-47f5-af07-7a3c5f386a7c" d="M41.34,105.46a4.24,4.24,0,0,1,4.51,3.35H44.5a3,3,0,0,0-3.16-2.27c-1.93,0-3.5,1.32-3.5,4s1.57,4,3.5,4a3,3,0,0,0,3.16-2.29h1.35a4.31,4.31,0,0,1-4.51,3.35c-2.78,0-4.78-1.94-4.78-5.06S38.56,105.46,41.34,105.46Z"/><path class="eecf69c7-2098-47f5-af07-7a3c5f386a7c" d="M47.77,102.82a.92.92,0,1,1,.92.93A.91.91,0,0,1,47.77,102.82Zm.29,2.79h1.26v9.83H48.06Z"/><path class="eecf69c7-2098-47f5-af07-7a3c5f386a7c" d="M56.23,105.46a4.1,4.1,0,0,1,3.89,2.31v-2.16h1.26v9.83H60.12v-2.18a4.14,4.14,0,0,1-3.9,2.32c-2.69,0-4.69-2-4.69-5.08S53.53,105.46,56.23,105.46Zm.24,1.1a3.59,3.59,0,0,0-3.66,3.94c0,2.49,1.59,4,3.66,4a4,4,0,0,0,0-7.92Z"/><path class="eecf69c7-2098-47f5-af07-7a3c5f386a7c" d="M68.43,105.46A4.25,4.25,0,0,1,73,108.81H71.6a3,3,0,0,0-3.17-2.27c-1.92,0-3.49,1.32-3.49,4s1.57,4,3.49,4a3,3,0,0,0,3.17-2.29H73a4.31,4.31,0,0,1-4.52,3.35c-2.77,0-4.77-1.94-4.77-5.06S65.66,105.46,68.43,105.46Z"/><path class="eecf69c7-2098-47f5-af07-7a3c5f386a7c" d="M74.87,102.82a.92.92,0,1,1,1.84,0,.92.92,0,1,1-1.84,0Zm.29,2.79h1.26v9.83H75.16Z"/><path class="eecf69c7-2098-47f5-af07-7a3c5f386a7c" d="M83.51,115.58a5.06,5.06,0,1,1,4.95-5.06A4.79,4.79,0,0,1,83.51,115.58Zm0-1.1a4,4,0,0,0,0-7.92c-1.87,0-3.62,1.26-3.62,4S81.64,114.48,83.51,114.48Z"/><path class="eecf69c7-2098-47f5-af07-7a3c5f386a7c" d="M98.11,109.82c0-2.18-1.19-3.3-3-3.3S92,107.68,92,110.07v5.37H90.74v-9.83H92v1.67a3.6,3.6,0,0,1,3.35-1.85c2.23,0,4,1.36,4,4.25v5.76H98.11Z"/><path class="eecf69c7-2098-47f5-af07-7a3c5f386a7c" d="M106.34,115.58a4.68,4.68,0,0,1-4.83-5.06c0-3.13,2-5.06,4.83-5.06A4.42,4.42,0,0,1,111,110a7.79,7.79,0,0,1,0,1h-8.15a3.44,3.44,0,0,0,3.55,3.51,3,3,0,0,0,3.16-2.2h1.34A4.32,4.32,0,0,1,106.34,115.58Zm-3.55-5.6h6.91a3.21,3.21,0,0,0-3.42-3.44A3.39,3.39,0,0,0,102.79,110Z"/><path class="eecf69c7-2098-47f5-af07-7a3c5f386a7c" d="M116.58,115.58c-2.23,0-3.8-1.12-4-2.92h1.3c.11,1.08,1,1.86,2.65,1.86,1.4,0,2.19-.76,2.19-1.69,0-2.43-5.9-1-5.9-4.7,0-1.46,1.38-2.67,3.45-2.67s3.5,1.12,3.6,3h-1.26a2.1,2.1,0,0,0-2.37-1.93c-1.32,0-2.14.7-2.14,1.57,0,2.66,5.81,1.24,5.87,4.72C120,114.41,118.62,115.58,116.58,115.58Z"/><path class="eecf69c7-2098-47f5-af07-7a3c5f386a7c" d="M131.56,115.58a4.69,4.69,0,0,1-4.83-5.06c0-3.13,2-5.06,4.83-5.06A4.42,4.42,0,0,1,136.2,110c0,.39,0,.65,0,1H128a3.44,3.44,0,0,0,3.55,3.51,3,3,0,0,0,3.17-2.2h1.33A4.31,4.31,0,0,1,131.56,115.58ZM128,110h6.92a3.22,3.22,0,0,0-3.42-3.44A3.4,3.4,0,0,0,128,110Z"/><path class="eecf69c7-2098-47f5-af07-7a3c5f386a7c" d="M145.88,109.82c0-2.18-1.19-3.3-3-3.3s-3.12,1.16-3.12,3.55v5.37h-1.26v-9.83h1.26v1.67a3.6,3.6,0,0,1,3.35-1.85c2.24,0,4,1.36,4,4.25v5.76h-1.24Z"/><path class="eecf69c7-2098-47f5-af07-7a3c5f386a7c" d="M150,106.67h-1.37v-1.06H150v-2.47h1.28v2.47H154v1.06h-2.7v6.1c0,1.21.41,1.59,1.54,1.59H154v1.08h-1.35c-1.71,0-2.63-.7-2.63-2.67Z"/><path class="eecf69c7-2098-47f5-af07-7a3c5f386a7c" d="M157.08,115.44h-1.26v-9.83h1.26v1.74a3.39,3.39,0,0,1,3.37-1.92v1.31h-.35c-1.63,0-3,.74-3,3.21Z"/><path class="eecf69c7-2098-47f5-af07-7a3c5f386a7c" d="M166.16,115.58a4.69,4.69,0,0,1-4.83-5.06c0-3.13,2-5.06,4.83-5.06A4.42,4.42,0,0,1,170.8,110c0,.39,0,.65,0,1h-8.16a3.44,3.44,0,0,0,3.55,3.51,3,3,0,0,0,3.17-2.2h1.33A4.32,4.32,0,0,1,166.16,115.58Zm-3.55-5.6h6.91a3.21,3.21,0,0,0-3.42-3.44A3.39,3.39,0,0,0,162.61,110Z"/><path class="eecf69c7-2098-47f5-af07-7a3c5f386a7c" d="M178.22,105.61l3.31,8.6,3.31-8.6h1.33l-3.94,9.83h-1.42l-3.94-9.83Z"/><path class="eecf69c7-2098-47f5-af07-7a3c5f386a7c" d="M191.58,105.46a4.1,4.1,0,0,1,3.89,2.31v-2.16h1.26v9.83h-1.26v-2.18a4.14,4.14,0,0,1-3.9,2.32c-2.69,0-4.69-2-4.69-5.08S188.88,105.46,191.58,105.46Zm.24,1.1a3.59,3.59,0,0,0-3.66,3.94c0,2.49,1.59,4,3.66,4a4,4,0,0,0,0-7.92Z"/><path class="eecf69c7-2098-47f5-af07-7a3c5f386a7c" d="M200.82,115.44h-1.26v-9.83h1.26v1.74a3.4,3.4,0,0,1,3.37-1.92v1.31h-.34c-1.64,0-3,.74-3,3.21Z"/><path class="eecf69c7-2098-47f5-af07-7a3c5f386a7c" d="M205.65,102.82a.92.92,0,1,1,.92.93A.91.91,0,0,1,205.65,102.82Zm.29,2.79h1.26v9.83h-1.26Z"/><path class="eecf69c7-2098-47f5-af07-7a3c5f386a7c" d="M214.11,105.46a4.1,4.1,0,0,1,3.89,2.31v-2.16h1.26v9.83H218v-2.18a4.14,4.14,0,0,1-3.9,2.32c-2.69,0-4.69-2-4.69-5.08S211.41,105.46,214.11,105.46Zm.24,1.1a3.59,3.59,0,0,0-3.66,3.94c0,2.49,1.59,4,3.66,4a4,4,0,0,0,0-7.92Z"/><path class="eecf69c7-2098-47f5-af07-7a3c5f386a7c" d="M227.24,105.46c2.7,0,4.68,2,4.68,5s-2,5.08-4.68,5.08a4.15,4.15,0,0,1-3.91-2.3v2.16h-1.24V102.11h1.24v5.67A4.2,4.2,0,0,1,227.24,105.46Zm-.25,1.1a4,4,0,0,0,0,7.92c2.07,0,3.65-1.49,3.65-4S229.06,106.56,227,106.56Z"/><path class="eecf69c7-2098-47f5-af07-7a3c5f386a7c" d="M234.23,102.11h1.26v13.33h-1.26Z"/><path class="eecf69c7-2098-47f5-af07-7a3c5f386a7c" d="M242.58,115.58c-2.79,0-4.82-1.94-4.82-5.06s2-5.06,4.82-5.06a4.42,4.42,0,0,1,4.65,4.56,7.79,7.79,0,0,1,0,1H239a3.45,3.45,0,0,0,3.55,3.51,3,3,0,0,0,3.17-2.2h1.33A4.31,4.31,0,0,1,242.58,115.58ZM239,110H246a3.21,3.21,0,0,0-3.42-3.44A3.4,3.4,0,0,0,239,110Z"/><path class="eecf69c7-2098-47f5-af07-7a3c5f386a7c" d="M252.83,115.58c-2.23,0-3.8-1.12-4-2.92h1.3c.1,1.08,1,1.86,2.64,1.86,1.41,0,2.2-.76,2.2-1.69,0-2.43-5.91-1-5.91-4.7,0-1.46,1.39-2.67,3.46-2.67s3.49,1.12,3.6,3H254.9a2.1,2.1,0,0,0-2.38-1.93c-1.31,0-2.14.7-2.14,1.57,0,2.66,5.82,1.24,5.87,4.72C256.25,114.41,254.87,115.58,252.83,115.58Z"/><path class="eecf69c7-2098-47f5-af07-7a3c5f386a7c" d="M266.94,115.58c-2.23,0-3.8-1.12-4-2.92h1.3c.11,1.08,1,1.86,2.64,1.86,1.41,0,2.2-.76,2.2-1.69,0-2.43-5.91-1-5.91-4.7,0-1.46,1.39-2.67,3.46-2.67s3.49,1.12,3.6,3H269a2.1,2.1,0,0,0-2.37-1.93c-1.32,0-2.15.7-2.15,1.57,0,2.66,5.82,1.24,5.87,4.72C270.36,114.41,269,115.58,266.94,115.58Z"/><path class="eecf69c7-2098-47f5-af07-7a3c5f386a7c" d="M272.39,102.82a.92.92,0,1,1,1.84,0,.92.92,0,1,1-1.84,0Zm.29,2.79h1.26v9.83h-1.26Z"/><path class="eecf69c7-2098-47f5-af07-7a3c5f386a7c" d="M284.11,109.82c0-2.18-1.19-3.3-3-3.3s-3.11,1.16-3.11,3.55v5.37h-1.27v-9.83H278v1.67a3.59,3.59,0,0,1,3.34-1.85c2.24,0,4,1.36,4,4.25v5.76h-1.24Z"/><path class="eecf69c7-2098-47f5-af07-7a3c5f386a7c" d="M297.21,105.46a4.08,4.08,0,0,1,3.87,2.31v-2.16h1.26v14.47h-1.26v-6.8a4.16,4.16,0,0,1-3.9,2.3c-2.69,0-4.69-2-4.69-5.08S294.49,105.46,297.21,105.46Zm.22,1.1a3.59,3.59,0,0,0-3.66,3.94c0,2.49,1.59,4,3.66,4a4,4,0,0,0,0-7.92Z"/><path class="eecf69c7-2098-47f5-af07-7a3c5f386a7c" d="M313.7,115.44h-1.26v-1.73a3.55,3.55,0,0,1-3.35,1.89c-2.23,0-4-1.37-4-4.25v-5.74h1.25v5.6c0,2.17,1.18,3.29,3,3.29s3.12-1.15,3.12-3.55v-5.34h1.26Z"/><path class="eecf69c7-2098-47f5-af07-7a3c5f386a7c" d="M320.8,115.58a4.68,4.68,0,0,1-4.83-5.06c0-3.13,2-5.06,4.83-5.06a4.42,4.42,0,0,1,4.64,4.56,7.79,7.79,0,0,1,0,1h-8.15a3.44,3.44,0,0,0,3.55,3.51,3,3,0,0,0,3.16-2.2h1.34A4.32,4.32,0,0,1,320.8,115.58Zm-3.55-5.6h6.91a3.21,3.21,0,0,0-3.42-3.44A3.39,3.39,0,0,0,317.25,110Z"/><path class="eecf69c7-2098-47f5-af07-7a3c5f386a7c" d="M336.92,115.58c-2.79,0-4.82-1.94-4.82-5.06s2-5.06,4.82-5.06a4.42,4.42,0,0,1,4.65,4.56,7.79,7.79,0,0,1,0,1h-8.15a3.43,3.43,0,0,0,3.54,3.51,3,3,0,0,0,3.17-2.2h1.33A4.31,4.31,0,0,1,336.92,115.58Zm-3.54-5.6h6.91a3.21,3.21,0,0,0-3.42-3.44A3.39,3.39,0,0,0,333.38,110Z"/><path class="eecf69c7-2098-47f5-af07-7a3c5f386a7c" d="M347.17,115.58c-2.23,0-3.8-1.12-4-2.92h1.3c.1,1.08,1,1.86,2.64,1.86,1.41,0,2.2-.76,2.2-1.69,0-2.43-5.91-1-5.91-4.7,0-1.46,1.39-2.67,3.46-2.67s3.49,1.12,3.6,3h-1.26a2.1,2.1,0,0,0-2.37-1.93c-1.32,0-2.15.7-2.15,1.57,0,2.66,5.82,1.24,5.87,4.72C350.59,114.41,349.21,115.58,347.17,115.58Z"/><path class="eecf69c7-2098-47f5-af07-7a3c5f386a7c" d="M353.15,106.67h-1.36v-1.06h1.36v-2.47h1.28v2.47h2.7v1.06h-2.7v6.1c0,1.21.42,1.59,1.55,1.59h1.15v1.08h-1.35c-1.71,0-2.63-.7-2.63-2.67Z"/><path class="eecf69c7-2098-47f5-af07-7a3c5f386a7c" d="M363,115.58a5.06,5.06,0,1,1,5-5.06A4.79,4.79,0,0,1,363,115.58Zm0-1.1a4,4,0,0,0,0-7.92c-1.87,0-3.62,1.26-3.62,4S361.09,114.48,363,114.48Z"/><path class="eecf69c7-2098-47f5-af07-7a3c5f386a7c" d="M4.09,132.82a.92.92,0,1,1,.92.93A.91.91,0,0,1,4.09,132.82Zm.29,2.79H5.64v9.83H4.38Z"/><path class="eecf69c7-2098-47f5-af07-7a3c5f386a7c" d="M22.82,139.82c0-2.18-1.14-3.3-2.89-3.3s-3,1.19-3,3.59v5.33H15.65v-5.62c0-2.18-1.15-3.3-2.9-3.3s-3,1.19-3,3.59v5.33H8.45v-9.83H9.71v1.69A3.51,3.51,0,0,1,13,135.43a3.62,3.62,0,0,1,3.63,2.41,3.58,3.58,0,0,1,3.55-2.41c2.18,0,3.91,1.36,3.91,4.25v5.76H22.82Z"/><path class="eecf69c7-2098-47f5-af07-7a3c5f386a7c" d="M32,135.46c2.69,0,4.69,2,4.69,5s-2,5.08-4.69,5.08a4.19,4.19,0,0,1-3.9-2.3v6.8H26.83V135.61h1.25v2.16A4.15,4.15,0,0,1,32,135.46Zm-.25,1.1a4,4,0,0,0,0,7.92c2.07,0,3.66-1.49,3.66-4A3.59,3.59,0,0,0,31.73,136.56Z"/><path class="eecf69c7-2098-47f5-af07-7a3c5f386a7c" d="M39,132.11h1.26v13.33H39Z"/><path class="eecf69c7-2098-47f5-af07-7a3c5f386a7c" d="M42.75,132.82a.92.92,0,1,1,1.83,0,.92.92,0,1,1-1.83,0Zm.28,2.79h1.26v9.83H43Z"/><path class="eecf69c7-2098-47f5-af07-7a3c5f386a7c" d="M51.22,135.46a4.09,4.09,0,0,1,3.88,2.31v-2.16h1.26v14.47H55.1v-6.8a4.17,4.17,0,0,1-3.91,2.3c-2.68,0-4.68-2-4.68-5.08S48.51,135.46,51.22,135.46Zm.22,1.1c-2.07,0-3.65,1.44-3.65,3.94s1.58,4,3.65,4a4,4,0,0,0,0-7.92Z"/><path class="eecf69c7-2098-47f5-af07-7a3c5f386a7c" d="M67.71,145.44H66.45v-1.73a3.55,3.55,0,0,1-3.35,1.89c-2.23,0-4-1.37-4-4.25v-5.74h1.24v5.6c0,2.17,1.19,3.29,3,3.29s3.11-1.15,3.11-3.55v-5.34h1.26Z"/><path class="eecf69c7-2098-47f5-af07-7a3c5f386a7c" d="M74.81,145.58A4.69,4.69,0,0,1,70,140.52c0-3.13,2-5.06,4.83-5.06A4.42,4.42,0,0,1,79.45,140c0,.39,0,.65,0,1H71.26a3.44,3.44,0,0,0,3.55,3.51,3,3,0,0,0,3.17-2.2h1.33A4.31,4.31,0,0,1,74.81,145.58ZM71.26,140h6.92a3.22,3.22,0,0,0-3.43-3.44A3.4,3.4,0,0,0,71.26,140Z"/><path class="eecf69c7-2098-47f5-af07-7a3c5f386a7c" d="M90.88,135.46a4.25,4.25,0,0,1,4.52,3.35H94.05a3,3,0,0,0-3.17-2.27c-1.92,0-3.49,1.32-3.49,4s1.57,4,3.49,4a3,3,0,0,0,3.17-2.29H95.4a4.31,4.31,0,0,1-4.52,3.35c-2.77,0-4.77-1.94-4.77-5.06S88.11,135.46,90.88,135.46Z"/><path class="eecf69c7-2098-47f5-af07-7a3c5f386a7c" d="M101.7,135.46a4.1,4.1,0,0,1,3.89,2.31v-2.16h1.26v9.83h-1.26v-2.18a4.16,4.16,0,0,1-3.91,2.32c-2.68,0-4.68-2-4.68-5.08S99,135.46,101.7,135.46Zm.23,1.1c-2.07,0-3.65,1.44-3.65,3.94s1.58,4,3.65,4a4,4,0,0,0,0-7.92Z"/><path class="eecf69c7-2098-47f5-af07-7a3c5f386a7c" d="M118.2,145.44h-1.26v-1.73a3.55,3.55,0,0,1-3.35,1.89c-2.23,0-4-1.37-4-4.25v-5.74h1.24v5.6c0,2.17,1.19,3.29,3,3.29s3.11-1.15,3.11-3.55v-5.34h1.26Z"/><path class="eecf69c7-2098-47f5-af07-7a3c5f386a7c" d="M124.4,145.58c-2.23,0-3.8-1.12-4-2.92h1.3c.11,1.08,1,1.86,2.65,1.86,1.4,0,2.19-.76,2.19-1.69,0-2.43-5.9-1-5.9-4.7,0-1.46,1.38-2.67,3.45-2.67s3.5,1.12,3.6,3h-1.26a2.1,2.1,0,0,0-2.37-1.93c-1.32,0-2.15.7-2.15,1.57,0,2.66,5.82,1.24,5.87,4.72C127.82,144.41,126.44,145.58,124.4,145.58Z"/><path class="eecf69c7-2098-47f5-af07-7a3c5f386a7c" d="M134.24,135.46a4.1,4.1,0,0,1,3.89,2.31v-2.16h1.26v9.83h-1.26v-2.18a4.16,4.16,0,0,1-3.91,2.32c-2.68,0-4.68-2-4.68-5.08S131.54,135.46,134.24,135.46Zm.23,1.1c-2.07,0-3.65,1.44-3.65,3.94s1.58,4,3.65,4a4,4,0,0,0,0-7.92Z"/><path class="eecf69c7-2098-47f5-af07-7a3c5f386a7c" d="M142.22,132.11h1.26v13.33h-1.26Z"/><path class="eecf69c7-2098-47f5-af07-7a3c5f386a7c" d="M146,132.82a.92.92,0,1,1,.92.93A.9.9,0,0,1,146,132.82Zm.28,2.79h1.26v9.83h-1.26Z"/><path class="eecf69c7-2098-47f5-af07-7a3c5f386a7c" d="M154.47,135.46a4.27,4.27,0,0,1,3.87,2.27v-5.62h1.26v13.33h-1.26v-2.2a4.1,4.1,0,0,1-3.89,2.34c-2.7,0-4.7-2-4.7-5.08S151.75,135.46,154.47,135.46Zm.21,1.1c-2.07,0-3.65,1.44-3.65,3.94s1.58,4,3.65,4a4,4,0,0,0,0-7.92Z"/><path class="eecf69c7-2098-47f5-af07-7a3c5f386a7c" d="M166.58,135.46a4.07,4.07,0,0,1,3.88,2.31v-2.16h1.27v9.83h-1.27v-2.18a4.14,4.14,0,0,1-3.9,2.32c-2.69,0-4.68-2-4.68-5.08S163.87,135.46,166.58,135.46Zm.23,1.1a3.59,3.59,0,0,0-3.66,3.94c0,2.49,1.59,4,3.66,4a4,4,0,0,0,0-7.92Z"/><path class="eecf69c7-2098-47f5-af07-7a3c5f386a7c" d="M178.72,135.46a4.26,4.26,0,0,1,3.87,2.27v-5.62h1.26v13.33h-1.26v-2.2a4.08,4.08,0,0,1-3.89,2.34c-2.7,0-4.7-2-4.7-5.08S176,135.46,178.72,135.46Zm.22,1.1a3.59,3.59,0,0,0-3.66,3.94c0,2.49,1.59,4,3.66,4a4,4,0,0,0,0-7.92Z"/><path class="eecf69c7-2098-47f5-af07-7a3c5f386a7c" d="M187.14,145.53a.92.92,0,0,1-.92-.94.91.91,0,1,1,1.82,0A.92.92,0,0,1,187.14,145.53Z"/><path class="eecf69c7-2098-47f5-af07-7a3c5f386a7c" d="M199,145.56c-2.52,0-4.18-1.44-4.25-3.36H196a2.62,2.62,0,0,0,2.92,2.3c1.74,0,2.77-1,2.77-2.32,0-3.71-6.91-1.37-6.91-6.11,0-1.94,1.6-3.36,4-3.36s3.83,1.33,4,3.06h-1.37a2.57,2.57,0,0,0-2.74-2c-1.47,0-2.7.79-2.7,2.25,0,3.64,6.92,1.4,6.92,6.08C203,143.83,201.61,145.56,199,145.56Z"/><path class="eecf69c7-2098-47f5-af07-7a3c5f386a7c" d="M209.59,145.58a5.06,5.06,0,1,1,4.95-5.06A4.79,4.79,0,0,1,209.59,145.58Zm0-1.1a4,4,0,0,0,0-7.92c-1.87,0-3.62,1.26-3.62,4S207.72,144.48,209.59,144.48Z"/><path class="eecf69c7-2098-47f5-af07-7a3c5f386a7c" d="M224.19,139.82c0-2.18-1.19-3.3-3-3.3s-3.12,1.16-3.12,3.55v5.37h-1.26v-9.83h1.26v1.67a3.6,3.6,0,0,1,3.35-1.85c2.23,0,4,1.36,4,4.25v5.76h-1.24Z"/><path class="eecf69c7-2098-47f5-af07-7a3c5f386a7c" d="M247.52,139.82c0-2.18-1.14-3.3-2.88-3.3s-3,1.19-3,3.59v5.33h-1.24v-5.62c0-2.18-1.15-3.3-2.9-3.3s-3,1.19-3,3.59v5.33h-1.26v-9.83h1.26v1.69a3.51,3.51,0,0,1,3.26-1.87,3.62,3.62,0,0,1,3.63,2.41,3.6,3.6,0,0,1,3.55-2.41c2.18,0,3.91,1.36,3.91,4.25v5.76h-1.24Z"/><path class="eecf69c7-2098-47f5-af07-7a3c5f386a7c" d="M260,145.44h-1.26v-1.73a3.56,3.56,0,0,1-3.35,1.89c-2.23,0-4-1.37-4-4.25v-5.74h1.24v5.6c0,2.17,1.19,3.29,3,3.29s3.12-1.15,3.12-3.55v-5.34H260Z"/><path class="eecf69c7-2098-47f5-af07-7a3c5f386a7c" d="M269.64,135.61h1.29l-5.83,14.45h-1.32l1.91-4.68-4-9.77h1.39L266.4,144Z"/><path class="eecf69c7-2098-47f5-af07-7a3c5f386a7c" d="M286.09,145.44h-1.26v-1.73a3.56,3.56,0,0,1-3.35,1.89c-2.23,0-4-1.37-4-4.25v-5.74h1.24v5.6c0,2.17,1.19,3.29,3,3.29s3.12-1.15,3.12-3.55v-5.34h1.26Z"/><path class="eecf69c7-2098-47f5-af07-7a3c5f386a7c" d="M292.29,145.58c-2.23,0-3.8-1.12-4-2.92h1.29c.11,1.08,1.05,1.86,2.65,1.86,1.4,0,2.2-.76,2.2-1.69,0-2.43-5.91-1-5.91-4.7,0-1.46,1.39-2.67,3.46-2.67s3.49,1.12,3.6,3h-1.26a2.1,2.1,0,0,0-2.38-1.93c-1.31,0-2.14.7-2.14,1.57,0,2.66,5.82,1.24,5.87,4.72C295.71,144.41,294.32,145.58,292.29,145.58Z"/><path class="eecf69c7-2098-47f5-af07-7a3c5f386a7c" d="M302.12,135.46a4.08,4.08,0,0,1,3.89,2.31v-2.16h1.26v9.83H306v-2.18a4.14,4.14,0,0,1-3.9,2.32c-2.69,0-4.68-2-4.68-5.08S299.42,135.46,302.12,135.46Zm.24,1.1a3.59,3.59,0,0,0-3.66,3.94c0,2.49,1.59,4,3.66,4a4,4,0,0,0,0-7.92Z"/><path class="eecf69c7-2098-47f5-af07-7a3c5f386a7c" d="M314.27,135.46a4.26,4.26,0,0,1,3.87,2.27v-5.62h1.26v13.33h-1.26v-2.2a4.08,4.08,0,0,1-3.89,2.34c-2.7,0-4.7-2-4.7-5.08S311.55,135.46,314.27,135.46Zm.22,1.1a3.59,3.59,0,0,0-3.66,3.94c0,2.49,1.59,4,3.66,4a4,4,0,0,0,0-7.92Z"/><path class="eecf69c7-2098-47f5-af07-7a3c5f386a7c" d="M326.38,135.46a4.1,4.1,0,0,1,3.89,2.31v-2.16h1.26v9.83h-1.26v-2.18a4.15,4.15,0,0,1-3.91,2.32c-2.68,0-4.68-2-4.68-5.08S323.68,135.46,326.38,135.46Zm.24,1.1A3.59,3.59,0,0,0,323,140.5c0,2.49,1.59,4,3.66,4a4,4,0,0,0,0-7.92Z"/><path class="eecf69c7-2098-47f5-af07-7a3c5f386a7c" d="M337.74,145.58c-2.23,0-3.8-1.12-4-2.92h1.29c.11,1.08,1.05,1.86,2.65,1.86,1.41,0,2.2-.76,2.2-1.69,0-2.43-5.91-1-5.91-4.7,0-1.46,1.39-2.67,3.46-2.67s3.49,1.12,3.6,3h-1.26a2.1,2.1,0,0,0-2.38-1.93c-1.31,0-2.14.7-2.14,1.57,0,2.66,5.82,1.24,5.87,4.72C341.16,144.41,339.77,145.58,337.74,145.58Z"/><path class="eecf69c7-2098-47f5-af07-7a3c5f386a7c" d="M352.72,145.58a4.68,4.68,0,0,1-4.83-5.06c0-3.13,2-5.06,4.83-5.06a4.42,4.42,0,0,1,4.64,4.56,7.79,7.79,0,0,1,0,1h-8.15a3.44,3.44,0,0,0,3.55,3.51,3,3,0,0,0,3.16-2.2h1.34A4.32,4.32,0,0,1,352.72,145.58Zm-3.55-5.6h6.91a3.21,3.21,0,0,0-3.42-3.44A3.39,3.39,0,0,0,349.17,140Z"/><path class="eecf69c7-2098-47f5-af07-7a3c5f386a7c" d="M367,139.82c0-2.18-1.19-3.3-3-3.3s-3.11,1.16-3.11,3.55v5.37h-1.26v-9.83h1.26v1.67a3.6,3.6,0,0,1,3.35-1.85c2.23,0,4,1.36,4,4.25v5.76H367Z"/><path class="eecf69c7-2098-47f5-af07-7a3c5f386a7c" d="M8.5,165.46a4.1,4.1,0,0,1,3.89,2.31v-2.16h1.26v9.83H12.39v-2.18a4.14,4.14,0,0,1-3.9,2.32c-2.69,0-4.69-2-4.69-5.08S5.8,165.46,8.5,165.46Zm.24,1.1a3.59,3.59,0,0,0-3.66,3.94c0,2.49,1.59,4,3.66,4a4,4,0,0,0,0-7.92Z"/><path class="eecf69c7-2098-47f5-af07-7a3c5f386a7c" d="M23.85,169.82c0-2.18-1.19-3.3-3-3.3s-3.12,1.16-3.12,3.55v5.37H16.48v-9.83h1.26v1.67a3.6,3.6,0,0,1,3.35-1.85c2.23,0,4,1.36,4,4.25v5.76H23.85Z"/><path class="eecf69c7-2098-47f5-af07-7a3c5f386a7c" d="M32,165.46a4.1,4.1,0,0,1,3.89,2.31v-2.16H37.1v9.83H35.84v-2.18a4.16,4.16,0,0,1-3.91,2.32c-2.68,0-4.68-2-4.68-5.08S29.25,165.46,32,165.46Zm.23,1.1c-2.07,0-3.65,1.44-3.65,3.94s1.58,4,3.65,4a4,4,0,0,0,0-7.92Zm2-5v1.14l-3.69,2.14v-1Z"/><path class="eecf69c7-2098-47f5-af07-7a3c5f386a7c" d="M39.93,162.11h1.26v13.33H39.93Z"/><path class="eecf69c7-2098-47f5-af07-7a3c5f386a7c" d="M43.7,162.82a.92.92,0,1,1,.92.93A.9.9,0,0,1,43.7,162.82Zm.29,2.79h1.26v9.83H44Z"/><path class="eecf69c7-2098-47f5-af07-7a3c5f386a7c" d="M51.42,175.58c-2.23,0-3.8-1.12-4-2.92h1.3c.1,1.08,1,1.86,2.64,1.86,1.41,0,2.2-.76,2.2-1.69,0-2.43-5.91-1-5.91-4.7,0-1.46,1.39-2.67,3.46-2.67s3.49,1.12,3.6,3H53.49a2.1,2.1,0,0,0-2.37-1.93c-1.32,0-2.15.7-2.15,1.57,0,2.66,5.82,1.24,5.87,4.72C54.84,174.41,53.46,175.58,51.42,175.58Z"/><path class="eecf69c7-2098-47f5-af07-7a3c5f386a7c" d="M56.87,162.82a.92.92,0,1,1,.92.93A.9.9,0,0,1,56.87,162.82Zm.29,2.79h1.26v9.83H57.16Z"/><path class="eecf69c7-2098-47f5-af07-7a3c5f386a7c" d="M64.59,175.58c-2.23,0-3.8-1.12-4-2.92h1.3c.1,1.08,1,1.86,2.64,1.86,1.41,0,2.2-.76,2.2-1.69,0-2.43-5.91-1-5.91-4.7,0-1.46,1.39-2.67,3.46-2.67s3.49,1.12,3.6,3H66.66a2.1,2.1,0,0,0-2.37-1.93c-1.32,0-2.15.7-2.15,1.57,0,2.66,5.82,1.24,5.87,4.72C68,174.41,66.63,175.58,64.59,175.58Z"/><path class="eecf69c7-2098-47f5-af07-7a3c5f386a7c" d="M79.57,175.58a4.69,4.69,0,0,1-4.83-5.06c0-3.13,2-5.06,4.83-5.06A4.42,4.42,0,0,1,84.21,170c0,.39,0,.65,0,1H76a3.44,3.44,0,0,0,3.55,3.51,3,3,0,0,0,3.17-2.2h1.33A4.32,4.32,0,0,1,79.57,175.58ZM76,170h6.91a3.21,3.21,0,0,0-3.42-3.44A3.39,3.39,0,0,0,76,170Z"/><path class="eecf69c7-2098-47f5-af07-7a3c5f386a7c" d="M88.9,171.48l-2.44,4H85.12l3.17-4.92-3.13-4.91h1.42l2.5,3.9,2.44-3.9h1.31l-3.13,4.86,3.17,5H91.44Z"/><path class="eecf69c7-2098-47f5-af07-7a3c5f386a7c" d="M99.69,165.46c2.68,0,4.68,2,4.68,5s-2,5.08-4.68,5.08a4.2,4.2,0,0,1-3.91-2.3v6.8H94.54V165.61h1.24v2.16A4.16,4.16,0,0,1,99.69,165.46Zm-.26,1.1a4,4,0,0,0,0,7.92c2.08,0,3.66-1.49,3.66-4A3.59,3.59,0,0,0,99.43,166.56Z"/><path class="eecf69c7-2098-47f5-af07-7a3c5f386a7c" d="M106.68,162.11h1.26v13.33h-1.26Z"/><path class="eecf69c7-2098-47f5-af07-7a3c5f386a7c" d="M115.08,175.58a5.06,5.06,0,1,1,5-5.06A4.79,4.79,0,0,1,115.08,175.58Zm0-1.1a4,4,0,0,0,0-7.92c-1.87,0-3.62,1.26-3.62,4S113.21,174.48,115.08,174.48Z"/><path class="eecf69c7-2098-47f5-af07-7a3c5f386a7c" d="M123.58,175.44h-1.27v-9.83h1.27v1.74a3.38,3.38,0,0,1,3.36-1.92v1.31h-.34c-1.64,0-3,.74-3,3.21Z"/><path class="eecf69c7-2098-47f5-af07-7a3c5f386a7c" d="M132.53,165.46a4.1,4.1,0,0,1,3.89,2.31v-2.16h1.26v9.83h-1.26v-2.18a4.16,4.16,0,0,1-3.91,2.32c-2.68,0-4.68-2-4.68-5.08S129.83,165.46,132.53,165.46Zm.23,1.1c-2.07,0-3.65,1.44-3.65,3.94s1.58,4,3.65,4a4,4,0,0,0,0-7.92Z"/><path class="eecf69c7-2098-47f5-af07-7a3c5f386a7c" d="M140.81,166.67h-1.37v-1.06h1.37v-2.47h1.27v2.47h2.71v1.06h-2.71v6.1c0,1.21.42,1.59,1.55,1.59h1.16v1.08h-1.36c-1.71,0-2.62-.7-2.62-2.67Z"/><path class="eecf69c7-2098-47f5-af07-7a3c5f386a7c" d="M150.61,175.58a5.06,5.06,0,1,1,5-5.06A4.79,4.79,0,0,1,150.61,175.58Zm0-1.1a4,4,0,0,0,0-7.92c-1.87,0-3.62,1.26-3.62,4S148.74,174.48,150.61,174.48Z"/><path class="eecf69c7-2098-47f5-af07-7a3c5f386a7c" d="M159.11,175.44h-1.26v-9.83h1.26v1.74a3.38,3.38,0,0,1,3.36-1.92v1.31h-.34c-1.64,0-3,.74-3,3.21Z"/><path class="eecf69c7-2098-47f5-af07-7a3c5f386a7c" d="M163.94,162.82a.92.92,0,1,1,1.83,0,.92.92,0,1,1-1.83,0Zm.28,2.79h1.26v9.83h-1.26Z"/><path class="eecf69c7-2098-47f5-af07-7a3c5f386a7c" d="M172.58,175.58a5.06,5.06,0,1,1,4.95-5.06A4.79,4.79,0,0,1,172.58,175.58Zm0-1.1a3.61,3.61,0,0,0,3.65-4c0-2.7-1.76-4-3.63-4s-3.62,1.26-3.62,4S170.7,174.48,172.58,174.48Z"/><path class="eecf69c7-2098-47f5-af07-7a3c5f386a7c" d="M183.08,175.58c-2.23,0-3.8-1.12-4-2.92h1.3c.11,1.08,1,1.86,2.65,1.86,1.4,0,2.19-.76,2.19-1.69,0-2.43-5.9-1-5.9-4.7,0-1.46,1.38-2.67,3.45-2.67s3.5,1.12,3.6,3h-1.26a2.1,2.1,0,0,0-2.37-1.93c-1.32,0-2.14.7-2.14,1.57,0,2.66,5.81,1.24,5.86,4.72C186.5,174.41,185.12,175.58,183.08,175.58Z"/><path class="eecf69c7-2098-47f5-af07-7a3c5f386a7c" d="M198,165.46a4.26,4.26,0,0,1,3.87,2.27v-5.62h1.26v13.33h-1.26v-2.2a4.08,4.08,0,0,1-3.89,2.34c-2.7,0-4.7-2-4.7-5.08S195.23,165.46,198,165.46Zm.22,1.1a3.59,3.59,0,0,0-3.66,3.94c0,2.49,1.59,4,3.66,4a4,4,0,0,0,0-7.92Z"/><path class="eecf69c7-2098-47f5-af07-7a3c5f386a7c" d="M210.19,175.58a4.69,4.69,0,0,1-4.83-5.06c0-3.13,2-5.06,4.83-5.06a4.42,4.42,0,0,1,4.64,4.56c0,.39,0,.65,0,1h-8.16a3.44,3.44,0,0,0,3.55,3.51,3,3,0,0,0,3.17-2.2h1.33A4.32,4.32,0,0,1,210.19,175.58Zm-3.55-5.6h6.91a3.21,3.21,0,0,0-3.42-3.44A3.39,3.39,0,0,0,206.64,170Z"/><path class="eecf69c7-2098-47f5-af07-7a3c5f386a7c" d="M222.43,166.67h-1.37v-1.06h1.37v-2.47h1.27v2.47h2.71v1.06H223.7v6.1c0,1.21.42,1.59,1.55,1.59h1.16v1.08h-1.36c-1.71,0-2.62-.7-2.62-2.67Z"/><path class="eecf69c7-2098-47f5-af07-7a3c5f386a7c" d="M232.2,175.58a4.69,4.69,0,0,1-4.83-5.06c0-3.13,2-5.06,4.83-5.06a4.42,4.42,0,0,1,4.64,4.56c0,.39,0,.65,0,1h-8.16a3.44,3.44,0,0,0,3.55,3.51,3,3,0,0,0,3.17-2.2h1.33A4.32,4.32,0,0,1,232.2,175.58Zm-3.55-5.6h6.91a3.21,3.21,0,0,0-3.42-3.44A3.39,3.39,0,0,0,228.65,170Z"/><path class="eecf69c7-2098-47f5-af07-7a3c5f386a7c" d="M253.52,169.82c0-2.18-1.14-3.3-2.88-3.3s-3,1.19-3,3.59v5.33h-1.25v-5.62c0-2.18-1.15-3.3-2.9-3.3s-3,1.19-3,3.59v5.33h-1.26v-9.83h1.26v1.69a3.51,3.51,0,0,1,3.26-1.87,3.64,3.64,0,0,1,3.64,2.41,3.58,3.58,0,0,1,3.54-2.41c2.18,0,3.91,1.36,3.91,4.25v5.76h-1.24Z"/><path class="eecf69c7-2098-47f5-af07-7a3c5f386a7c" d="M261.65,165.46a4.1,4.1,0,0,1,3.89,2.31v-2.16h1.26v9.83h-1.26v-2.18a4.16,4.16,0,0,1-3.91,2.32c-2.68,0-4.68-2-4.68-5.08S259,165.46,261.65,165.46Zm.23,1.1c-2.07,0-3.65,1.44-3.65,3.94s1.58,4,3.65,4a4,4,0,0,0,0-7.92Z"/><path class="eecf69c7-2098-47f5-af07-7a3c5f386a7c" d="M273,175.58c-2.23,0-3.79-1.12-4-2.92h1.3c.11,1.08,1,1.86,2.65,1.86,1.4,0,2.19-.76,2.19-1.69,0-2.43-5.9-1-5.9-4.7,0-1.46,1.38-2.67,3.45-2.67s3.5,1.12,3.61,3h-1.26a2.11,2.11,0,0,0-2.38-1.93c-1.32,0-2.14.7-2.14,1.57,0,2.66,5.81,1.24,5.87,4.72C276.43,174.41,275,175.58,273,175.58Z"/><path class="eecf69c7-2098-47f5-af07-7a3c5f386a7c" d="M287.87,165.46a4.08,4.08,0,0,1,3.87,2.31v-2.16H293v14.47h-1.26v-6.8a4.16,4.16,0,0,1-3.9,2.3c-2.69,0-4.69-2-4.69-5.08S285.15,165.46,287.87,165.46Zm.22,1.1a3.59,3.59,0,0,0-3.66,3.94c0,2.49,1.59,4,3.66,4a4,4,0,0,0,0-7.92Z"/><path class="eecf69c7-2098-47f5-af07-7a3c5f386a7c" d="M304.36,175.44H303.1v-1.73a3.56,3.56,0,0,1-3.35,1.89c-2.23,0-4-1.37-4-4.25v-5.74H297v5.6c0,2.17,1.19,3.29,3,3.29s3.12-1.15,3.12-3.55v-5.34h1.26Z"/><path class="eecf69c7-2098-47f5-af07-7a3c5f386a7c" d="M311.46,175.58a4.68,4.68,0,0,1-4.83-5.06c0-3.13,2-5.06,4.83-5.06A4.42,4.42,0,0,1,316.1,170a7.79,7.79,0,0,1,0,1h-8.15a3.44,3.44,0,0,0,3.55,3.51,3,3,0,0,0,3.16-2.2H316A4.32,4.32,0,0,1,311.46,175.58Zm-3.55-5.6h6.91a3.21,3.21,0,0,0-3.42-3.44A3.39,3.39,0,0,0,307.91,170Z"/><path class="eecf69c7-2098-47f5-af07-7a3c5f386a7c" d="M323.33,162.11h1.26v5.17a3.69,3.69,0,0,1,3.42-1.85c2.18,0,3.93,1.36,3.93,4.25v5.76H330.7v-5.62c0-2.18-1.19-3.3-3-3.3s-3.12,1.16-3.12,3.55v5.37h-1.26Z"/><path class="eecf69c7-2098-47f5-af07-7a3c5f386a7c" d="M338.8,165.46a4.1,4.1,0,0,1,3.89,2.31v-2.16H344v9.83h-1.26v-2.18a4.16,4.16,0,0,1-3.91,2.32c-2.68,0-4.68-2-4.68-5.08S336.1,165.46,338.8,165.46Zm.23,1.1c-2.07,0-3.65,1.44-3.65,3.94s1.58,4,3.65,4a4,4,0,0,0,0-7.92Z"/><path class="eecf69c7-2098-47f5-af07-7a3c5f386a7c" d="M350.16,175.58c-2.23,0-3.8-1.12-4-2.92h1.3c.1,1.08,1,1.86,2.64,1.86,1.41,0,2.2-.76,2.2-1.69,0-2.43-5.91-1-5.91-4.7,0-1.46,1.39-2.67,3.46-2.67s3.49,1.12,3.6,3h-1.26a2.1,2.1,0,0,0-2.37-1.93c-1.32,0-2.15.7-2.15,1.57,0,2.66,5.82,1.24,5.87,4.72C353.58,174.41,352.2,175.58,350.16,175.58Z"/><path class="eecf69c7-2098-47f5-af07-7a3c5f386a7c" d="M356.14,166.67h-1.36v-1.06h1.36v-2.47h1.28v2.47h2.7v1.06h-2.7v6.1c0,1.21.42,1.59,1.55,1.59h1.15v1.08h-1.35c-1.71,0-2.63-.7-2.63-2.67Z"/><path class="eecf69c7-2098-47f5-af07-7a3c5f386a7c" d="M365.79,165.46a4.1,4.1,0,0,1,3.89,2.31v-2.16h1.26v9.83h-1.26v-2.18a4.16,4.16,0,0,1-3.91,2.32c-2.68,0-4.68-2-4.68-5.08S363.09,165.46,365.79,165.46Zm.23,1.1c-2.07,0-3.65,1.44-3.65,3.94s1.58,4,3.65,4a4,4,0,0,0,0-7.92Z"/><path class="eecf69c7-2098-47f5-af07-7a3c5f386a7c" d="M8.5,195.46a4.1,4.1,0,0,1,3.89,2.31v-2.16h1.26v9.83H12.39v-2.18a4.14,4.14,0,0,1-3.9,2.32c-2.69,0-4.69-2-4.69-5.08S5.8,195.46,8.5,195.46Zm.24,1.1a3.59,3.59,0,0,0-3.66,3.94c0,2.49,1.59,4,3.66,4a4,4,0,0,0,0-7.92Z"/><path class="eecf69c7-2098-47f5-af07-7a3c5f386a7c" d="M16.48,192.11h1.26v5.17a3.69,3.69,0,0,1,3.42-1.85c2.18,0,3.93,1.36,3.93,4.25v5.76H23.85v-5.62c0-2.18-1.19-3.3-3-3.3s-3.12,1.16-3.12,3.55v5.37H16.48Z"/><path class="eecf69c7-2098-47f5-af07-7a3c5f386a7c" d="M32.13,205.58a5.06,5.06,0,0,1,0-10.12,5.06,5.06,0,0,1,0,10.12Zm0-1.1a4,4,0,0,0,0-7.92c-1.87,0-3.62,1.26-3.62,4S30.26,204.48,32.13,204.48Z"/><path class="eecf69c7-2098-47f5-af07-7a3c5f386a7c" d="M40.62,205.44H39.36v-9.83h1.26v1.74A3.4,3.4,0,0,1,44,195.43v1.31h-.34c-1.64,0-3,.74-3,3.21Z"/><path class="eecf69c7-2098-47f5-af07-7a3c5f386a7c" d="M49.57,195.46a4.08,4.08,0,0,1,3.89,2.31v-2.16h1.26v9.83H53.46v-2.18a4.14,4.14,0,0,1-3.9,2.32c-2.69,0-4.69-2-4.69-5.08S46.87,195.46,49.57,195.46Zm.24,1.1a3.59,3.59,0,0,0-3.66,3.94c0,2.49,1.59,4,3.66,4a4,4,0,0,0,0-7.92Z"/><path class="eecf69c7-2098-47f5-af07-7a3c5f386a7c" d="M66.78,205.58c-2.79,0-4.82-1.94-4.82-5.06s2-5.06,4.82-5.06A4.42,4.42,0,0,1,71.43,200a7.79,7.79,0,0,1,0,1H63.23a3.45,3.45,0,0,0,3.55,3.51,3,3,0,0,0,3.17-2.2h1.33A4.31,4.31,0,0,1,66.78,205.58ZM63.23,200h6.92a3.21,3.21,0,0,0-3.42-3.44A3.4,3.4,0,0,0,63.23,200Z"/><path class="eecf69c7-2098-47f5-af07-7a3c5f386a7c" d="M88.1,199.82c0-2.18-1.13-3.3-2.88-3.3s-3,1.19-3,3.59v5.33H80.94v-5.62c0-2.18-1.15-3.3-2.9-3.3s-3,1.19-3,3.59v5.33H73.74v-9.83H75v1.69a3.51,3.51,0,0,1,3.26-1.87,3.62,3.62,0,0,1,3.63,2.41,3.58,3.58,0,0,1,3.55-2.41c2.18,0,3.91,1.36,3.91,4.25v5.76H88.1Z"/><path class="eecf69c7-2098-47f5-af07-7a3c5f386a7c" d="M97.27,195.46c2.68,0,4.68,2,4.68,5s-2,5.08-4.68,5.08a4.22,4.22,0,0,1-3.91-2.3v6.8H92.12V195.61h1.24v2.16A4.17,4.17,0,0,1,97.27,195.46Zm-.25,1.1a4,4,0,0,0,0,7.92c2.07,0,3.66-1.49,3.66-4A3.59,3.59,0,0,0,97,196.56Z"/><path class="eecf69c7-2098-47f5-af07-7a3c5f386a7c" d="M103.92,192.82a.92.92,0,1,1,.92.93A.91.91,0,0,1,103.92,192.82Zm.29,2.79h1.26v9.83h-1.26Z"/><path class="eecf69c7-2098-47f5-af07-7a3c5f386a7c" d="M112.51,205.58a4.69,4.69,0,0,1-4.83-5.06c0-3.13,2-5.06,4.83-5.06a4.42,4.42,0,0,1,4.64,4.56c0,.39,0,.65,0,1H109a3.44,3.44,0,0,0,3.55,3.51,3,3,0,0,0,3.17-2.2H117A4.32,4.32,0,0,1,112.51,205.58ZM109,200h6.92a3.22,3.22,0,0,0-3.43-3.44A3.4,3.4,0,0,0,109,200Z"/><path class="eecf69c7-2098-47f5-af07-7a3c5f386a7c" d="M124.75,196.65l-5.06,7.74h5.15v1.05h-6.59v-1.05l5.06-7.74h-5v-1h6.41Z"/><path class="eecf69c7-2098-47f5-af07-7a3c5f386a7c" d="M130.51,195.46a4.08,4.08,0,0,1,3.89,2.31v-2.16h1.26v9.83H134.4v-2.18a4.14,4.14,0,0,1-3.9,2.32c-2.69,0-4.68-2-4.68-5.08S127.81,195.46,130.51,195.46Zm.24,1.1a3.59,3.59,0,0,0-3.66,3.94c0,2.49,1.59,4,3.66,4a4,4,0,0,0,0-7.92Z"/><path class="eecf69c7-2098-47f5-af07-7a3c5f386a7c" d="M145.86,199.82c0-2.18-1.19-3.3-3-3.3s-3.12,1.16-3.12,3.55v5.37h-1.26v-9.83h1.26v1.67a3.6,3.6,0,0,1,3.35-1.85c2.24,0,4,1.36,4,4.25v5.76h-1.24Z"/><path class="eecf69c7-2098-47f5-af07-7a3c5f386a7c" d="M158.94,195.46a4.1,4.1,0,0,1,3.89,2.31v-2.16h1.26v9.83h-1.26v-2.18a4.14,4.14,0,0,1-3.91,2.32c-2.68,0-4.68-2-4.68-5.08S156.24,195.46,158.94,195.46Zm.24,1.1a3.59,3.59,0,0,0-3.66,3.94c0,2.49,1.59,4,3.66,4a4,4,0,0,0,0-7.92Z"/><path class="eecf69c7-2098-47f5-af07-7a3c5f386a7c" d="M175.29,205.58c-2.24,0-3.8-1.12-4-2.92h1.3c.11,1.08,1,1.86,2.65,1.86,1.4,0,2.19-.76,2.19-1.69,0-2.43-5.9-1-5.9-4.7,0-1.46,1.39-2.67,3.46-2.67s3.49,1.12,3.6,3h-1.26a2.11,2.11,0,0,0-2.38-1.93c-1.31,0-2.14.7-2.14,1.57,0,2.66,5.81,1.24,5.87,4.72C178.71,204.41,177.32,205.58,175.29,205.58Z"/><path class="eecf69c7-2098-47f5-af07-7a3c5f386a7c" d="M185.25,205.58a4.69,4.69,0,0,1-4.83-5.06c0-3.13,2-5.06,4.83-5.06a4.42,4.42,0,0,1,4.64,4.56c0,.39,0,.65,0,1H181.7a3.44,3.44,0,0,0,3.55,3.51,3,3,0,0,0,3.17-2.2h1.33A4.31,4.31,0,0,1,185.25,205.58ZM181.7,200h6.92a3.22,3.22,0,0,0-3.43-3.44A3.4,3.4,0,0,0,181.7,200Z"/><path class="eecf69c7-2098-47f5-af07-7a3c5f386a7c" d="M193.46,205.44H192.2v-9.83h1.26v1.74a3.4,3.4,0,0,1,3.37-1.92v1.31h-.34c-1.64,0-3,.74-3,3.21Z"/><path class="eecf69c7-2098-47f5-af07-7a3c5f386a7c" d="M207.9,205.58a4.69,4.69,0,0,1-4.83-5.06c0-3.13,2-5.06,4.83-5.06a4.42,4.42,0,0,1,4.64,4.56c0,.39,0,.65,0,1h-8.16a3.44,3.44,0,0,0,3.55,3.51,3,3,0,0,0,3.17-2.2h1.33A4.31,4.31,0,0,1,207.9,205.58Zm-3.55-5.6h6.92a3.22,3.22,0,0,0-3.42-3.44A3.4,3.4,0,0,0,204.35,200Z"/><path class="eecf69c7-2098-47f5-af07-7a3c5f386a7c" d="M218.15,205.58c-2.23,0-3.8-1.12-4-2.92h1.29c.11,1.08,1.05,1.86,2.65,1.86,1.4,0,2.2-.76,2.2-1.69,0-2.43-5.91-1-5.91-4.7,0-1.46,1.39-2.67,3.46-2.67s3.49,1.12,3.6,3h-1.26a2.1,2.1,0,0,0-2.38-1.93c-1.31,0-2.14.7-2.14,1.57,0,2.66,5.81,1.24,5.87,4.72C221.57,204.41,220.18,205.58,218.15,205.58Z"/><path class="eecf69c7-2098-47f5-af07-7a3c5f386a7c" d="M224.13,196.67h-1.37v-1.06h1.37v-2.47h1.28v2.47h2.7v1.06h-2.7v6.1c0,1.21.41,1.59,1.55,1.59h1.15v1.08h-1.35c-1.71,0-2.63-.7-2.63-2.67Z"/><path class="eecf69c7-2098-47f5-af07-7a3c5f386a7c" d="M238.51,205.44h-1.26v-1.73a3.55,3.55,0,0,1-3.35,1.89c-2.23,0-4-1.37-4-4.25v-5.74h1.24v5.6c0,2.17,1.19,3.29,3,3.29s3.11-1.15,3.11-3.55v-5.34h1.26Z"/><path class="eecf69c7-2098-47f5-af07-7a3c5f386a7c" d="M245.5,195.46a4.27,4.27,0,0,1,3.87,2.27v-5.62h1.26v13.33h-1.26v-2.2a4.08,4.08,0,0,1-3.89,2.34c-2.7,0-4.7-2-4.7-5.08S242.78,195.46,245.5,195.46Zm.22,1.1a3.59,3.59,0,0,0-3.66,3.94c0,2.49,1.59,4,3.66,4a4,4,0,0,0,0-7.92Z"/><path class="eecf69c7-2098-47f5-af07-7a3c5f386a7c" d="M253.19,192.82a.92.92,0,1,1,1.84,0,.92.92,0,1,1-1.84,0Zm.29,2.79h1.26v9.83h-1.26Z"/><path class="eecf69c7-2098-47f5-af07-7a3c5f386a7c" d="M261.65,195.46a4.1,4.1,0,0,1,3.89,2.31v-2.16h1.26v9.83h-1.26v-2.18a4.15,4.15,0,0,1-3.91,2.32c-2.68,0-4.68-2-4.68-5.08S259,195.46,261.65,195.46Zm.24,1.1a3.59,3.59,0,0,0-3.66,3.94c0,2.49,1.58,4,3.66,4a4,4,0,0,0,0-7.92Z"/><path class="eecf69c7-2098-47f5-af07-7a3c5f386a7c" d="M273.8,195.46a4.27,4.27,0,0,1,3.87,2.27v-5.62h1.26v13.33h-1.26v-2.2a4.1,4.1,0,0,1-3.89,2.34c-2.7,0-4.7-2-4.7-5.08S271.08,195.46,273.8,195.46Zm.21,1.1c-2.07,0-3.65,1.44-3.65,3.94s1.58,4,3.65,4a4,4,0,0,0,0-7.92Z"/><path class="eecf69c7-2098-47f5-af07-7a3c5f386a7c" d="M286.09,205.58a5.06,5.06,0,1,1,5-5.06A4.79,4.79,0,0,1,286.09,205.58Zm0-1.1a3.61,3.61,0,0,0,3.65-4c0-2.7-1.76-4-3.63-4s-3.62,1.26-3.62,4S284.22,204.48,286.09,204.48Z"/><path class="eecf69c7-2098-47f5-af07-7a3c5f386a7c" d="M296.59,205.58c-2.23,0-3.79-1.12-4-2.92h1.3c.11,1.08,1,1.86,2.65,1.86,1.4,0,2.19-.76,2.19-1.69,0-2.43-5.9-1-5.9-4.7,0-1.46,1.38-2.67,3.45-2.67s3.5,1.12,3.61,3h-1.27a2.1,2.1,0,0,0-2.37-1.93c-1.32,0-2.14.7-2.14,1.57,0,2.66,5.81,1.24,5.87,4.72C300,204.41,298.63,205.58,296.59,205.58Z"/><path class="eecf69c7-2098-47f5-af07-7a3c5f386a7c" d="M302.82,205.53a.92.92,0,0,1-.92-.94.91.91,0,0,1,.92-.92.89.89,0,0,1,.9.92A.91.91,0,0,1,302.82,205.53Z"/></svg>