<svg id="a75fdd05-0d8a-4162-927e-73845fd1558b" data-name="Capa 1" xmlns="http://www.w3.org/2000/svg" viewBox="0 0 674.8 184.4"><defs><style>.a8b1edff-a188-4d1a-9fde-cc7359f96107{fill:none;stroke-width:2px;}.a8b1edff-a188-4d1a-9fde-cc7359f96107,.b022b3c7-e6c4-4ae0-981b-63499e8c1392{stroke:#5f9eb5;stroke-miterlimit:10;}.b022b3c7-e6c4-4ae0-981b-63499e8c1392{fill:#5f9eb5;}</style></defs><circle class="a8b1edff-a188-4d1a-9fde-cc7359f96107" cx="46.03" cy="138.28" r="43.59"/><line class="a8b1edff-a188-4d1a-9fde-cc7359f96107" x1="89.62" y1="138.28" x2="674.8" y2="138.28"/><line class="a8b1edff-a188-4d1a-9fde-cc7359f96107" x1="46.03" x2="46.03" y2="94.69"/><path class="b022b3c7-e6c4-4ae0-981b-63499e8c1392" d="M70.4,157.55,67,154.19a1,1,0,0,0-1.36,1.36l1.73,1.72H28v-39L29.68,120a1,1,0,0,0,.68.28,1,1,0,0,0,.68-1.64l-3.36-3.36a1,1,0,0,0-1.36,0L23,118.67A1,1,0,0,0,23,120a1,1,0,0,0,1.36,0L26,118.31v40.88H67.41l-1.73,1.72a1,1,0,0,0,0,1.36,1,1,0,0,0,.68.28.94.94,0,0,0,.68-.28l3.36-3.36A1,1,0,0,0,70.4,157.55Z"/><path class="b022b3c7-e6c4-4ae0-981b-63499e8c1392" d="M31.32,150.07a1,1,0,1,0,0,1.92h1.44v1.44a1,1,0,0,0,1.92,0V152h1.44a1,1,0,0,0,0-1.92H34.68v-1.44a1,1,0,1,0-1.92,0v1.44Z"/><path class="b022b3c7-e6c4-4ae0-981b-63499e8c1392" d="M41.16,137.59H42.6V139a1,1,0,0,0,1.92,0v-1.44H46a1,1,0,0,0,0-1.92H44.52v-1.44a1,1,0,0,0-1.92,0v1.44H41.16a1,1,0,0,0,0,1.92Z"/><path class="b022b3c7-e6c4-4ae0-981b-63499e8c1392" d="M52.44,132.31h1.44v1.44a1,1,0,0,0,1.92,0v-1.44h1.44a1,1,0,0,0,0-1.92H55.8V129a1,1,0,0,0-1.92,0v1.44H52.44a1,1,0,1,0,0,1.92Z"/><path class="b022b3c7-e6c4-4ae0-981b-63499e8c1392" d="M57.72,123.19h1.44v1.44a1,1,0,0,0,1.92,0v-1.44h1.44a1,1,0,1,0,0-1.92H61.08v-1.44a1,1,0,0,0-1.92,0v1.44H57.72a1,1,0,0,0,0,1.92Z"/><path class="b022b3c7-e6c4-4ae0-981b-63499e8c1392" d="M45.24,145.27v-1.44a1,1,0,1,0-1.92,0v1.44H41.88a1,1,0,1,0,0,1.92h1.44v1.44a1,1,0,0,0,1.92,0v-1.44h1.44a1,1,0,1,0,0-1.92Z"/></svg>