<svg id="bf182712-5eb1-4688-b02d-376ad3e832be" data-name="Capa 1" xmlns="http://www.w3.org/2000/svg" viewBox="0 0 408.7 542.74"><defs><style>.b290cd44-00af-49ba-9718-e898a60bdfd3{opacity:0.5;}.b3459db1-aca1-4df0-b6ac-576d6c25a7c4{fill:#272b31;}</style></defs><path class="b3459db1-aca1-4df0-b6ac-576d6c25a7c4" d="M33.72,8.08H37L32.5,20.72H28.65L24.16,8.08h3.28l3.13,9.54Z"/><path class="b3459db1-aca1-4df0-b6ac-576d6c25a7c4" d="M41.28,10.53a3.49,3.49,0,0,1,3.09,1.56V10.67h3.08v10H44.37V19.3a3.54,3.54,0,0,1-3.11,1.56c-2.45,0-4.41-2-4.41-5.18S38.81,10.53,41.28,10.53Zm.9,2.68A2.24,2.24,0,0,0,40,15.68a2.27,2.27,0,0,0,2.2,2.5,2.24,2.24,0,0,0,2.19-2.49A2.24,2.24,0,0,0,42.18,13.21Z"/><path class="b3459db1-aca1-4df0-b6ac-576d6c25a7c4" d="M52.74,20.72H49.66v-10h3.08v1.68a3.73,3.73,0,0,1,3.15-1.79v3.26H55c-1.46,0-2.3.51-2.3,2.23Z"/><path class="b3459db1-aca1-4df0-b6ac-576d6c25a7c4" d="M56.8,8a1.83,1.83,0,1,1,1.83,1.66A1.69,1.69,0,0,1,56.8,8Zm.28,2.7h3.08v10H57.08Z"/><path class="b3459db1-aca1-4df0-b6ac-576d6c25a7c4" d="M66.17,10.53a3.5,3.5,0,0,1,3.1,1.56V10.67h3.08v10H69.27V19.3a3.55,3.55,0,0,1-3.11,1.56c-2.45,0-4.42-2-4.42-5.18S63.71,10.53,66.17,10.53Zm.9,2.68a2.23,2.23,0,0,0-2.19,2.47,2.21,2.21,0,1,0,4.39,0A2.24,2.24,0,0,0,67.07,13.21Z"/><path class="b3459db1-aca1-4df0-b6ac-576d6c25a7c4" d="M80.73,10.53c2.48,0,4.43,2,4.43,5.15s-2,5.18-4.43,5.18a3.52,3.52,0,0,1-3.1-1.55v1.41H74.55V7.39h3.08v4.7A3.55,3.55,0,0,1,80.73,10.53Zm-.92,2.68a2.25,2.25,0,0,0-2.2,2.48,2.22,2.22,0,1,0,4.41,0A2.24,2.24,0,0,0,79.81,13.21Z"/><path class="b3459db1-aca1-4df0-b6ac-576d6c25a7c4" d="M86.82,7.39h3.07V20.72H86.82Z"/><path class="b3459db1-aca1-4df0-b6ac-576d6c25a7c4" d="M96.57,20.86a4.84,4.84,0,0,1-5.07-5.17,4.82,4.82,0,0,1,5.07-5.16,4.73,4.73,0,0,1,5,5c0,.29,0,.6,0,.9h-7a1.86,1.86,0,0,0,1.91,1.93,1.63,1.63,0,0,0,1.6-1h3.28A4.7,4.7,0,0,1,96.57,20.86Zm-2-6.14h3.85A1.73,1.73,0,0,0,96.54,13,1.91,1.91,0,0,0,94.58,14.72Z"/><path class="b3459db1-aca1-4df0-b6ac-576d6c25a7c4" d="M107.18,20.86c-2.68,0-4.48-1.49-4.63-3.44h3a1.41,1.41,0,0,0,1.55,1.17c.79,0,1.21-.36,1.21-.81,0-1.62-5.47-.45-5.47-4.14,0-1.71,1.45-3.11,4.08-3.11S111,12,111.19,14h-2.84a1.32,1.32,0,0,0-1.48-1.14c-.72,0-1.11.29-1.11.78,0,1.6,5.43.47,5.49,4.21C111.25,19.55,109.7,20.86,107.18,20.86Z"/><path class="b3459db1-aca1-4df0-b6ac-576d6c25a7c4" d="M116.66,8a1.84,1.84,0,1,1,1.84,1.66A1.7,1.7,0,0,1,116.66,8Zm.29,2.7H120v10H117Z"/><path class="b3459db1-aca1-4df0-b6ac-576d6c25a7c4" d="M129.16,15.26a1.94,1.94,0,1,0-3.86,0v5.46h-3.08v-10h3.08V12a3.7,3.7,0,0,1,3-1.44c2.32,0,3.87,1.59,3.87,4.29v5.87h-3.06Z"/><path class="b3459db1-aca1-4df0-b6ac-576d6c25a7c4" d="M138.33,20.86c-2.68,0-4.48-1.49-4.62-3.44h3a1.4,1.4,0,0,0,1.55,1.17c.79,0,1.21-.36,1.21-.81,0-1.62-5.48-.45-5.48-4.14,0-1.71,1.46-3.11,4.09-3.11s4,1.44,4.23,3.42h-2.84A1.34,1.34,0,0,0,138,12.81c-.72,0-1.12.29-1.12.78,0,1.6,5.44.47,5.49,4.21C142.4,19.55,140.86,20.86,138.33,20.86Z"/><path class="b3459db1-aca1-4df0-b6ac-576d6c25a7c4" d="M144.62,13.23H143.4V10.67h1.22V8.22h3.08v2.45h2v2.56h-2v4c0,.6.25.85.94.85h1.09v2.61h-1.56c-2.09,0-3.55-.88-3.55-3.49Z"/><path class="b3459db1-aca1-4df0-b6ac-576d6c25a7c4" d="M154.63,20.72h-3.08v-10h3.08v1.68a3.73,3.73,0,0,1,3.15-1.79v3.26h-.84c-1.46,0-2.31.51-2.31,2.23Z"/><path class="b3459db1-aca1-4df0-b6ac-576d6c25a7c4" d="M169,20.72h-3.08V19.35a3.67,3.67,0,0,1-3,1.48c-2.32,0-3.89-1.61-3.89-4.29V10.67H162v5.46a1.94,1.94,0,1,0,3.87,0V10.67H169Z"/><path class="b3459db1-aca1-4df0-b6ac-576d6c25a7c4" d="M185,15.26a1.93,1.93,0,1,0-3.85,0v5.46h-3.06V15.26a1.93,1.93,0,1,0-3.85,0v5.46h-3.08v-10h3.08v1.26a3.54,3.54,0,0,1,2.93-1.37,3.75,3.75,0,0,1,3.42,1.88A4,4,0,0,1,184,10.56c2.48,0,4.09,1.59,4.09,4.29v5.87H185Z"/><path class="b3459db1-aca1-4df0-b6ac-576d6c25a7c4" d="M194.7,20.86a4.85,4.85,0,0,1-5.08-5.17,4.82,4.82,0,0,1,5.08-5.16,4.73,4.73,0,0,1,5,5,6.88,6.88,0,0,1,0,.9h-7a1.86,1.86,0,0,0,1.91,1.93,1.62,1.62,0,0,0,1.6-1h3.28A4.69,4.69,0,0,1,194.7,20.86Zm-2-6.14h3.85A1.73,1.73,0,0,0,194.66,13,1.91,1.91,0,0,0,192.7,14.72Z"/><path class="b3459db1-aca1-4df0-b6ac-576d6c25a7c4" d="M208.24,15.26a1.93,1.93,0,1,0-3.85,0v5.46h-3.08v-10h3.08V12a3.69,3.69,0,0,1,3-1.44c2.33,0,3.87,1.59,3.87,4.29v5.87h-3.06Z"/><path class="b3459db1-aca1-4df0-b6ac-576d6c25a7c4" d="M213.75,13.23h-1.22V10.67h1.22V8.22h3.08v2.45h2v2.56h-2v4c0,.6.26.85.94.85h1.1v2.61H217.3c-2.09,0-3.55-.88-3.55-3.49Z"/><path class="b3459db1-aca1-4df0-b6ac-576d6c25a7c4" d="M224.36,10.53a3.49,3.49,0,0,1,3.09,1.56V10.67h3.08v10h-3.08V19.3a3.55,3.55,0,0,1-3.11,1.56c-2.45,0-4.41-2-4.41-5.18S221.89,10.53,224.36,10.53Zm.9,2.68a2.23,2.23,0,0,0-2.2,2.47,2.27,2.27,0,0,0,2.2,2.5,2.24,2.24,0,0,0,2.19-2.49A2.24,2.24,0,0,0,225.26,13.21Z"/><path class="b3459db1-aca1-4df0-b6ac-576d6c25a7c4" d="M232.73,7.39h3.08V20.72h-3.08Z"/><path class="b3459db1-aca1-4df0-b6ac-576d6c25a7c4" d="M242.49,20.86a4.84,4.84,0,0,1-5.07-5.17,4.82,4.82,0,0,1,5.07-5.16,4.73,4.73,0,0,1,5,5c0,.29,0,.6-.05.9h-7a1.86,1.86,0,0,0,1.91,1.93,1.63,1.63,0,0,0,1.6-1h3.28A4.7,4.7,0,0,1,242.49,20.86Zm-2-6.14h3.85A1.74,1.74,0,0,0,242.46,13,1.91,1.91,0,0,0,240.5,14.72Z"/><path class="b3459db1-aca1-4df0-b6ac-576d6c25a7c4" d="M253.1,20.86c-2.69,0-4.49-1.49-4.63-3.44h3a1.41,1.41,0,0,0,1.55,1.17c.79,0,1.21-.36,1.21-.81,0-1.62-5.48-.45-5.48-4.14,0-1.71,1.46-3.11,4.09-3.11s4,1.44,4.23,3.42h-2.84a1.32,1.32,0,0,0-1.48-1.14c-.72,0-1.11.29-1.11.78,0,1.6,5.43.47,5.49,4.21C257.17,19.55,255.62,20.86,253.1,20.86Z"/><path class="b3459db1-aca1-4df0-b6ac-576d6c25a7c4" d="M260.26,13.53a1.68,1.68,0,1,1,1.81-1.65A1.7,1.7,0,0,1,260.26,13.53Zm0,7.33a1.68,1.68,0,1,1,1.81-1.65A1.7,1.7,0,0,1,260.26,20.86Z"/><path class="b3459db1-aca1-4df0-b6ac-576d6c25a7c4" d="M268,8.13h1.26v7.92c0,2.62,1.37,3.68,3.33,3.68s3.3-1.06,3.3-3.68V8.13h1.26V16c0,3.33-2,4.8-4.57,4.8S268,19.37,268,16Z"/><path class="b3459db1-aca1-4df0-b6ac-576d6c25a7c4" d="M287.32,15.1c0-2.18-1.18-3.29-3-3.29s-3.11,1.15-3.11,3.54v5.37H280V10.89h1.26v1.67a3.6,3.6,0,0,1,3.35-1.85c2.23,0,4,1.37,4,4.25v5.76h-1.25Z"/><path class="b3459db1-aca1-4df0-b6ac-576d6c25a7c4" d="M295.43,10.74a4.11,4.11,0,0,1,3.89,2.31V10.89h1.26v9.83h-1.26V18.54a4.16,4.16,0,0,1-3.91,2.32c-2.68,0-4.68-2-4.68-5.08S292.73,10.74,295.43,10.74Zm.23,1.1c-2.07,0-3.65,1.44-3.65,3.94s1.58,4,3.65,4a3.66,3.66,0,0,0,3.66-4A3.66,3.66,0,0,0,295.66,11.84Z"/><path class="b3459db1-aca1-4df0-b6ac-576d6c25a7c4" d="M308.56,10.89l3.32,8.6,3.31-8.6h1.33l-3.94,9.83h-1.42l-4-9.83Z"/><path class="b3459db1-aca1-4df0-b6ac-576d6c25a7c4" d="M321.93,10.74a4.11,4.11,0,0,1,3.89,2.31V10.89h1.26v9.83h-1.26V18.54a4.15,4.15,0,0,1-3.91,2.32c-2.68,0-4.68-2-4.68-5.08S319.23,10.74,321.93,10.74Zm.24,1.1a3.59,3.59,0,0,0-3.66,3.94c0,2.49,1.59,4,3.66,4a3.66,3.66,0,0,0,3.65-4A3.66,3.66,0,0,0,322.17,11.84Z"/><path class="b3459db1-aca1-4df0-b6ac-576d6c25a7c4" d="M331.17,20.72h-1.26V10.89h1.26v1.74a3.4,3.4,0,0,1,3.37-1.92V12h-.34c-1.64,0-3,.74-3,3.21Z"/><path class="b3459db1-aca1-4df0-b6ac-576d6c25a7c4" d="M336,8.1a.92.92,0,1,1,.92.93A.91.91,0,0,1,336,8.1Zm.29,2.79h1.26v9.83h-1.26Z"/><path class="b3459db1-aca1-4df0-b6ac-576d6c25a7c4" d="M344.46,10.74a4.11,4.11,0,0,1,3.89,2.31V10.89h1.26v9.83h-1.26V18.54a4.14,4.14,0,0,1-3.91,2.32c-2.68,0-4.68-2-4.68-5.08S341.76,10.74,344.46,10.74Zm.24,1.1A3.59,3.59,0,0,0,341,15.78c0,2.49,1.59,4,3.66,4a3.66,3.66,0,0,0,3.65-4A3.66,3.66,0,0,0,344.7,11.84Z"/><path class="b3459db1-aca1-4df0-b6ac-576d6c25a7c4" d="M357.59,10.74c2.7,0,4.68,2,4.68,5s-2,5.08-4.68,5.08a4.14,4.14,0,0,1-3.91-2.3v2.16h-1.24V7.39h1.24v5.68A4.17,4.17,0,0,1,357.59,10.74Zm-.25,1.1a3.67,3.67,0,0,0-3.66,4,3.67,3.67,0,0,0,3.66,4c2.07,0,3.65-1.49,3.65-4S359.41,11.84,357.34,11.84Z"/><path class="b3459db1-aca1-4df0-b6ac-576d6c25a7c4" d="M364.58,7.39h1.26V20.72h-1.26Z"/><path class="b3459db1-aca1-4df0-b6ac-576d6c25a7c4" d="M372.93,20.86c-2.79,0-4.82-1.94-4.82-5.06s2-5.06,4.82-5.06a4.43,4.43,0,0,1,4.65,4.56,7.79,7.79,0,0,1,0,1h-8.16a3.44,3.44,0,0,0,3.55,3.51,3,3,0,0,0,3.17-2.2h1.33A4.31,4.31,0,0,1,372.93,20.86Zm-3.55-5.6h6.92a3.22,3.22,0,0,0-3.42-3.44A3.4,3.4,0,0,0,369.38,15.26Z"/><path class="b3459db1-aca1-4df0-b6ac-576d6c25a7c4" d="M25.15,38.1a.92.92,0,1,1,.92.93A.91.91,0,0,1,25.15,38.1Zm.29,2.79H26.7v9.83H25.44Z"/><path class="b3459db1-aca1-4df0-b6ac-576d6c25a7c4" d="M36.87,45.1c0-2.18-1.19-3.29-3-3.29S30.77,43,30.77,45.35v5.37H29.51V40.89h1.26v1.67a3.6,3.6,0,0,1,3.35-1.85c2.23,0,4,1.37,4,4.25v5.76H36.87Z"/><path class="b3459db1-aca1-4df0-b6ac-576d6c25a7c4" d="M44.2,50.86c-2.23,0-3.8-1.11-4-2.91h1.3c.11,1.08,1,1.85,2.64,1.85,1.41,0,2.2-.76,2.2-1.69,0-2.43-5.91-1-5.91-4.7,0-1.46,1.39-2.67,3.46-2.67s3.5,1.12,3.6,3H46.27a2.1,2.1,0,0,0-2.37-1.93c-1.32,0-2.15.71-2.15,1.57,0,2.66,5.82,1.24,5.87,4.72C47.62,49.69,46.24,50.86,44.2,50.86Z"/><path class="b3459db1-aca1-4df0-b6ac-576d6c25a7c4" d="M50.18,42H48.82V40.89h1.36V38.42h1.28v2.47h2.7V42h-2.7v6.1c0,1.21.42,1.59,1.55,1.59h1.15v1.08H52.81c-1.71,0-2.63-.7-2.63-2.67Z"/><path class="b3459db1-aca1-4df0-b6ac-576d6c25a7c4" d="M57.27,50.72H56V40.89h1.26v1.74a3.38,3.38,0,0,1,3.36-1.92V42h-.34c-1.64,0-3,.74-3,3.21Z"/><path class="b3459db1-aca1-4df0-b6ac-576d6c25a7c4" d="M71,50.72H69.69V49a3.56,3.56,0,0,1-3.35,1.89c-2.23,0-4-1.37-4-4.25V40.89h1.24v5.6c0,2.18,1.19,3.29,3,3.29s3.12-1.15,3.12-3.54V40.89H71Z"/><path class="b3459db1-aca1-4df0-b6ac-576d6c25a7c4" d="M88.14,45.1c0-2.18-1.14-3.29-2.89-3.29s-3,1.18-3,3.58v5.33H81V45.1c0-2.18-1.15-3.29-2.9-3.29S75,43,75,45.39v5.33H73.77V40.89H75v1.69a3.51,3.51,0,0,1,3.26-1.87,3.62,3.62,0,0,1,3.63,2.41,3.58,3.58,0,0,1,3.55-2.41c2.18,0,3.91,1.37,3.91,4.25v5.76H88.14Z"/><path class="b3459db1-aca1-4df0-b6ac-576d6c25a7c4" d="M96.39,50.86a4.69,4.69,0,0,1-4.83-5.06c0-3.13,2-5.06,4.83-5.06A4.42,4.42,0,0,1,101,45.3c0,.39,0,.65,0,1H92.84a3.44,3.44,0,0,0,3.55,3.51,3,3,0,0,0,3.17-2.2h1.33A4.31,4.31,0,0,1,96.39,50.86Zm-3.55-5.6h6.92a3.22,3.22,0,0,0-3.42-3.44A3.4,3.4,0,0,0,92.84,45.26Z"/><path class="b3459db1-aca1-4df0-b6ac-576d6c25a7c4" d="M110.71,45.1c0-2.18-1.19-3.29-3-3.29S104.6,43,104.6,45.35v5.37h-1.26V40.89h1.26v1.67A3.6,3.6,0,0,1,108,40.71c2.24,0,4,1.37,4,4.25v5.76h-1.24Z"/><path class="b3459db1-aca1-4df0-b6ac-576d6c25a7c4" d="M114.83,42h-1.37V40.89h1.37V38.42h1.28v2.47h2.7V42h-2.7v6.1c0,1.21.41,1.59,1.54,1.59h1.16v1.08h-1.35c-1.71,0-2.63-.7-2.63-2.67Z"/><path class="b3459db1-aca1-4df0-b6ac-576d6c25a7c4" d="M124.47,40.74a4.11,4.11,0,0,1,3.89,2.31V40.89h1.26v9.83h-1.26V48.54a4.14,4.14,0,0,1-3.91,2.32c-2.68,0-4.68-2-4.68-5.08S121.77,40.74,124.47,40.74Zm.24,1.1a3.59,3.59,0,0,0-3.66,3.94c0,2.49,1.59,4,3.66,4a3.66,3.66,0,0,0,3.65-4A3.66,3.66,0,0,0,124.71,41.84Z"/><path class="b3459db1-aca1-4df0-b6ac-576d6c25a7c4" d="M132.45,37.39h1.26V50.72h-1.26Z"/><path class="b3459db1-aca1-4df0-b6ac-576d6c25a7c4" d="M145.39,54.07a14.15,14.15,0,0,1-3.64-10,14,14,0,0,1,3.84-10.17h1.31V34a14,14,0,0,0-3.92,10,14.11,14.11,0,0,0,3.74,9.87v.13Z"/><path class="b3459db1-aca1-4df0-b6ac-576d6c25a7c4" d="M156.55,38.13h1.33l-4.77,12.59h-1.44L146.9,38.13h1.37l4.12,11.22Z"/><path class="b3459db1-aca1-4df0-b6ac-576d6c25a7c4" d="M159.64,38.13h1.26V50.72h-1.26Z"/><path class="b3459db1-aca1-4df0-b6ac-576d6c25a7c4" d="M162,54.07v-.13a14.08,14.08,0,0,0,3.75-9.87,14,14,0,0,0-3.93-10V33.9h1.32a14,14,0,0,1,3.83,10.17,14.1,14.1,0,0,1-3.64,10Z"/><path class="b3459db1-aca1-4df0-b6ac-576d6c25a7c4" d="M179.24,50.86c-2.79,0-4.82-1.94-4.82-5.06s2-5.06,4.82-5.06a4.43,4.43,0,0,1,4.65,4.56,7.79,7.79,0,0,1,0,1H175.7a3.43,3.43,0,0,0,3.54,3.51,3,3,0,0,0,3.17-2.2h1.33A4.31,4.31,0,0,1,179.24,50.86Zm-3.54-5.6h6.91a3.22,3.22,0,0,0-3.42-3.44A3.4,3.4,0,0,0,175.7,45.26Z"/><path class="b3459db1-aca1-4df0-b6ac-576d6c25a7c4" d="M189.49,50.86c-2.23,0-3.8-1.11-4-2.91h1.3c.1,1.08,1,1.85,2.64,1.85,1.41,0,2.2-.76,2.2-1.69,0-2.43-5.91-1-5.91-4.7,0-1.46,1.39-2.67,3.46-2.67s3.49,1.12,3.6,3h-1.26a2.1,2.1,0,0,0-2.37-1.93c-1.32,0-2.15.71-2.15,1.57,0,2.66,5.82,1.24,5.87,4.72C192.91,49.69,191.53,50.86,189.49,50.86Z"/><path class="b3459db1-aca1-4df0-b6ac-576d6c25a7c4" d="M208.73,50.72h-1.26V49a3.55,3.55,0,0,1-3.34,1.89c-2.24,0-4-1.37-4-4.25V40.89h1.24v5.6c0,2.18,1.19,3.29,3,3.29s3.11-1.15,3.11-3.54V40.89h1.26Z"/><path class="b3459db1-aca1-4df0-b6ac-576d6c25a7c4" d="M218.92,45.1c0-2.18-1.19-3.29-3-3.29s-3.12,1.15-3.12,3.54v5.37h-1.26V40.89h1.26v1.67a3.62,3.62,0,0,1,3.35-1.85c2.24,0,4,1.37,4,4.25v5.76h-1.24Z"/><path class="b3459db1-aca1-4df0-b6ac-576d6c25a7c4" d="M227,40.74a4.11,4.11,0,0,1,3.89,2.31V40.89h1.26v9.83h-1.26V48.54A4.15,4.15,0,0,1,227,50.86c-2.68,0-4.68-2-4.68-5.08S224.32,40.74,227,40.74Zm.24,1.1a3.59,3.59,0,0,0-3.66,3.94c0,2.49,1.58,4,3.66,4a3.66,3.66,0,0,0,3.65-4A3.66,3.66,0,0,0,227.26,41.84Z"/><path class="b3459db1-aca1-4df0-b6ac-576d6c25a7c4" d="M240.16,40.89l3.31,8.6,3.32-8.6h1.33l-3.94,9.83h-1.43l-3.94-9.83Z"/><path class="b3459db1-aca1-4df0-b6ac-576d6c25a7c4" d="M253.53,40.74a4.11,4.11,0,0,1,3.89,2.31V40.89h1.26v9.83h-1.26V48.54a4.16,4.16,0,0,1-3.91,2.32c-2.68,0-4.68-2-4.68-5.08S250.83,40.74,253.53,40.74Zm.23,1.1c-2.07,0-3.65,1.44-3.65,3.94s1.58,4,3.65,4a3.66,3.66,0,0,0,3.66-4A3.66,3.66,0,0,0,253.76,41.84Z"/><path class="b3459db1-aca1-4df0-b6ac-576d6c25a7c4" d="M262.77,50.72h-1.26V40.89h1.26v1.74a3.38,3.38,0,0,1,3.36-1.92V42h-.34c-1.64,0-3,.74-3,3.21Z"/><path class="b3459db1-aca1-4df0-b6ac-576d6c25a7c4" d="M267.6,38.1a.92.92,0,1,1,.92.93A.9.9,0,0,1,267.6,38.1Zm.29,2.79h1.26v9.83h-1.26Z"/><path class="b3459db1-aca1-4df0-b6ac-576d6c25a7c4" d="M276.06,40.74A4.11,4.11,0,0,1,280,43.05V40.89h1.26v9.83H280V48.54A4.16,4.16,0,0,1,276,50.86c-2.68,0-4.68-2-4.68-5.08S273.36,40.74,276.06,40.74Zm.23,1.1c-2.07,0-3.65,1.44-3.65,3.94s1.58,4,3.65,4a3.66,3.66,0,0,0,3.66-4A3.66,3.66,0,0,0,276.29,41.84Z"/><path class="b3459db1-aca1-4df0-b6ac-576d6c25a7c4" d="M289.19,40.74c2.7,0,4.68,2,4.68,5s-2,5.08-4.68,5.08a4.12,4.12,0,0,1-3.91-2.3v2.16H284V37.39h1.24v5.68A4.17,4.17,0,0,1,289.19,40.74Zm-.26,1.1a3.67,3.67,0,0,0-3.65,4,3.67,3.67,0,0,0,3.65,4c2.07,0,3.66-1.49,3.66-4A3.59,3.59,0,0,0,288.93,41.84Z"/><path class="b3459db1-aca1-4df0-b6ac-576d6c25a7c4" d="M296.18,37.39h1.26V50.72h-1.26Z"/><path class="b3459db1-aca1-4df0-b6ac-576d6c25a7c4" d="M304.53,50.86a4.69,4.69,0,0,1-4.83-5.06c0-3.13,2-5.06,4.83-5.06a4.42,4.42,0,0,1,4.64,4.56c0,.39,0,.65,0,1H301a3.44,3.44,0,0,0,3.55,3.51,3,3,0,0,0,3.17-2.2H309A4.32,4.32,0,0,1,304.53,50.86ZM301,45.26h6.91a3.21,3.21,0,0,0-3.42-3.44A3.4,3.4,0,0,0,301,45.26Z"/><path class="b3459db1-aca1-4df0-b6ac-576d6c25a7c4" d="M320.55,40.74a4.1,4.1,0,0,1,3.87,2.31V40.89h1.26V55.36h-1.26v-6.8a4.17,4.17,0,0,1-3.91,2.3c-2.68,0-4.68-2-4.68-5.08S317.83,40.74,320.55,40.74Zm.21,1.1c-2.07,0-3.65,1.44-3.65,3.94s1.58,4,3.65,4a3.66,3.66,0,0,0,3.66-4A3.66,3.66,0,0,0,320.76,41.84Z"/><path class="b3459db1-aca1-4df0-b6ac-576d6c25a7c4" d="M337,50.72h-1.26V49a3.55,3.55,0,0,1-3.35,1.89c-2.23,0-4-1.37-4-4.25V40.89h1.24v5.6c0,2.18,1.19,3.29,3,3.29s3.11-1.15,3.11-3.54V40.89H337Z"/><path class="b3459db1-aca1-4df0-b6ac-576d6c25a7c4" d="M344.13,50.86a4.69,4.69,0,0,1-4.83-5.06c0-3.13,2-5.06,4.83-5.06a4.42,4.42,0,0,1,4.64,4.56c0,.39,0,.65,0,1h-8.16a3.44,3.44,0,0,0,3.55,3.51,3,3,0,0,0,3.17-2.2h1.33A4.31,4.31,0,0,1,344.13,50.86Zm-3.55-5.6h6.92a3.22,3.22,0,0,0-3.42-3.44A3.4,3.4,0,0,0,340.58,45.26Z"/><path class="b3459db1-aca1-4df0-b6ac-576d6c25a7c4" d="M30.59,70.74c2.68,0,4.68,2,4.68,5s-2,5.08-4.68,5.08a4.22,4.22,0,0,1-3.91-2.3v6.8H25.44V70.89h1.24v2.16A4.19,4.19,0,0,1,30.59,70.74Zm-.25,1.1a4,4,0,0,0,0,7.92c2.07,0,3.65-1.49,3.65-4S32.41,71.84,30.34,71.84Z"/><path class="b3459db1-aca1-4df0-b6ac-576d6c25a7c4" d="M41.84,80.86A4.69,4.69,0,0,1,37,75.8c0-3.13,2-5.06,4.83-5.06a4.42,4.42,0,0,1,4.64,4.56c0,.39,0,.65,0,1H38.29a3.44,3.44,0,0,0,3.55,3.51A3,3,0,0,0,45,77.6h1.33A4.31,4.31,0,0,1,41.84,80.86Zm-3.55-5.6h6.92a3.22,3.22,0,0,0-3.42-3.44A3.4,3.4,0,0,0,38.29,75.26Z"/><path class="b3459db1-aca1-4df0-b6ac-576d6c25a7c4" d="M50.05,80.72H48.79V70.89h1.26v1.74a3.4,3.4,0,0,1,3.37-1.92V72h-.34c-1.64,0-3,.74-3,3.21Z"/><path class="b3459db1-aca1-4df0-b6ac-576d6c25a7c4" d="M69.54,75.1c0-2.18-1.13-3.29-2.88-3.29s-3,1.18-3,3.58v5.33H62.37V75.1c0-2.18-1.15-3.29-2.89-3.29s-3,1.18-3,3.58v5.33H55.17V70.89h1.26v1.69a3.52,3.52,0,0,1,3.26-1.87,3.63,3.63,0,0,1,3.64,2.41,3.58,3.58,0,0,1,3.55-2.41c2.17,0,3.9,1.37,3.9,4.25v5.76H69.54Z"/><path class="b3459db1-aca1-4df0-b6ac-576d6c25a7c4" d="M73.24,68.1a.92.92,0,1,1,1.83,0,.92.92,0,1,1-1.83,0Zm.28,2.79h1.26v9.83H73.52Z"/><path class="b3459db1-aca1-4df0-b6ac-576d6c25a7c4" d="M77.88,72H76.51V70.89h1.37V68.42h1.28v2.47h2.7V72h-2.7v6.1c0,1.21.41,1.59,1.54,1.59h1.16v1.08H80.51c-1.71,0-2.63-.7-2.63-2.67Z"/><path class="b3459db1-aca1-4df0-b6ac-576d6c25a7c4" d="M87.65,80.86a4.69,4.69,0,0,1-4.83-5.06c0-3.13,2-5.06,4.83-5.06a4.42,4.42,0,0,1,4.64,4.56c0,.39,0,.65,0,1H84.1a3.44,3.44,0,0,0,3.55,3.51,3,3,0,0,0,3.17-2.2h1.33A4.31,4.31,0,0,1,87.65,80.86Zm-3.55-5.6H91a3.23,3.23,0,0,0-3.43-3.44A3.4,3.4,0,0,0,84.1,75.26Z"/><path class="b3459db1-aca1-4df0-b6ac-576d6c25a7c4" d="M99.24,68.1a.92.92,0,1,1,.92.93A.9.9,0,0,1,99.24,68.1Zm.29,2.79h1.26v9.83H99.53Z"/><path class="b3459db1-aca1-4df0-b6ac-576d6c25a7c4" d="M107.72,70.74A4.29,4.29,0,0,1,111.59,73V67.39h1.26V80.72h-1.26v-2.2a4.1,4.1,0,0,1-3.89,2.34c-2.7,0-4.7-2-4.7-5.08S105,70.74,107.72,70.74Zm.21,1.1c-2.07,0-3.65,1.44-3.65,3.94s1.58,4,3.65,4a4,4,0,0,0,0-7.92Z"/><path class="b3459db1-aca1-4df0-b6ac-576d6c25a7c4" d="M120,80.86c-2.79,0-4.82-1.94-4.82-5.06s2-5.06,4.82-5.06a4.43,4.43,0,0,1,4.65,4.56,7.79,7.79,0,0,1,0,1h-8.15A3.43,3.43,0,0,0,120,79.8a3,3,0,0,0,3.17-2.2h1.34A4.32,4.32,0,0,1,120,80.86Zm-3.54-5.6h6.91a3.21,3.21,0,0,0-3.42-3.44A3.4,3.4,0,0,0,116.41,75.26Z"/><path class="b3459db1-aca1-4df0-b6ac-576d6c25a7c4" d="M134.27,75.1c0-2.18-1.19-3.29-3-3.29s-3.11,1.15-3.11,3.54v5.37h-1.26V70.89h1.26v1.67a3.6,3.6,0,0,1,3.35-1.85c2.23,0,4,1.37,4,4.25v5.76h-1.24Z"/><path class="b3459db1-aca1-4df0-b6ac-576d6c25a7c4" d="M138.39,72H137V70.89h1.37V68.42h1.28v2.47h2.7V72h-2.7v6.1c0,1.21.41,1.59,1.55,1.59h1.15v1.08H141c-1.71,0-2.63-.7-2.63-2.67Z"/><path class="b3459db1-aca1-4df0-b6ac-576d6c25a7c4" d="M143.92,68.1a.92.92,0,1,1,.92.93A.91.91,0,0,1,143.92,68.1Zm.29,2.79h1.26v9.83h-1.26Z"/><path class="b3459db1-aca1-4df0-b6ac-576d6c25a7c4" d="M148.55,72h-1.37V70.89h1.37V70.2c0-2.1,1-3.11,3.47-3.11v1.08c-1.67,0-2.21.61-2.21,2v.69h2.29V72h-2.29v8.77h-1.26Z"/><path class="b3459db1-aca1-4df0-b6ac-576d6c25a7c4" d="M153.71,68.1a.92.92,0,1,1,.92.93A.91.91,0,0,1,153.71,68.1Zm.29,2.79h1.26v9.83H154Z"/><path class="b3459db1-aca1-4df0-b6ac-576d6c25a7c4" d="M162.25,70.74a4.25,4.25,0,0,1,4.52,3.35h-1.35a3,3,0,0,0-3.17-2.27c-1.93,0-3.5,1.32-3.5,4s1.57,4,3.5,4a3,3,0,0,0,3.17-2.29h1.35a4.31,4.31,0,0,1-4.52,3.35c-2.78,0-4.77-1.94-4.77-5.06S159.47,70.74,162.25,70.74Z"/><path class="b3459db1-aca1-4df0-b6ac-576d6c25a7c4" d="M173.06,70.74A4.11,4.11,0,0,1,177,73.05V70.89h1.26v9.83H177V78.54A4.14,4.14,0,0,1,173,80.86c-2.68,0-4.68-2-4.68-5.08S170.36,70.74,173.06,70.74Zm.24,1.1a3.59,3.59,0,0,0-3.66,3.94c0,2.49,1.59,4,3.66,4a4,4,0,0,0,0-7.92Z"/><path class="b3459db1-aca1-4df0-b6ac-576d6c25a7c4" d="M182.3,80.72H181V70.89h1.26v1.74a3.4,3.4,0,0,1,3.37-1.92V72h-.34c-1.64,0-3,.74-3,3.21Z"/><path class="b3459db1-aca1-4df0-b6ac-576d6c25a7c4" d="M196.74,80.86a4.69,4.69,0,0,1-4.83-5.06c0-3.13,2-5.06,4.83-5.06a4.42,4.42,0,0,1,4.64,4.56c0,.39,0,.65,0,1h-8.16a3.44,3.44,0,0,0,3.55,3.51,3,3,0,0,0,3.17-2.2h1.33A4.32,4.32,0,0,1,196.74,80.86Zm-3.55-5.6h6.92a3.23,3.23,0,0,0-3.43-3.44A3.4,3.4,0,0,0,193.19,75.26Z"/><path class="b3459db1-aca1-4df0-b6ac-576d6c25a7c4" d="M203.68,67.39H205V80.72h-1.27Z"/><path class="b3459db1-aca1-4df0-b6ac-576d6c25a7c4" d="M217,80.86a4.69,4.69,0,0,1-4.83-5.06c0-3.13,2-5.06,4.83-5.06a4.42,4.42,0,0,1,4.64,4.56c0,.39,0,.65,0,1h-8.16A3.44,3.44,0,0,0,217,79.8a3,3,0,0,0,3.17-2.2h1.33A4.32,4.32,0,0,1,217,80.86Zm-3.55-5.6h6.91a3.21,3.21,0,0,0-3.42-3.44A3.4,3.4,0,0,0,213.44,75.26Z"/><path class="b3459db1-aca1-4df0-b6ac-576d6c25a7c4" d="M224.09,72h-1.36V70.89h1.36V70.2c0-2.1,1-3.11,3.48-3.11v1.08c-1.68,0-2.22.61-2.22,2v.69h2.29V72h-2.29v8.77h-1.26Z"/><path class="b3459db1-aca1-4df0-b6ac-576d6c25a7c4" d="M233.32,80.86a4.68,4.68,0,0,1-4.83-5.06c0-3.13,2-5.06,4.83-5.06A4.42,4.42,0,0,1,238,75.3a7.79,7.79,0,0,1,0,1h-8.15a3.44,3.44,0,0,0,3.55,3.51,3,3,0,0,0,3.16-2.2h1.34A4.32,4.32,0,0,1,233.32,80.86Zm-3.55-5.6h6.91a3.21,3.21,0,0,0-3.42-3.44A3.4,3.4,0,0,0,229.77,75.26Z"/><path class="b3459db1-aca1-4df0-b6ac-576d6c25a7c4" d="M244.47,70.74A4.25,4.25,0,0,1,249,74.09h-1.35a3,3,0,0,0-3.17-2.27c-1.93,0-3.5,1.32-3.5,4s1.57,4,3.5,4a3,3,0,0,0,3.17-2.29H249a4.31,4.31,0,0,1-4.52,3.35c-2.78,0-4.78-1.94-4.78-5.06S241.69,70.74,244.47,70.74Z"/><path class="b3459db1-aca1-4df0-b6ac-576d6c25a7c4" d="M251.34,72H250V70.89h1.36V68.42h1.28v2.47h2.7V72h-2.7v6.1c0,1.21.42,1.59,1.55,1.59h1.15v1.08H254c-1.71,0-2.63-.7-2.63-2.67Z"/><path class="b3459db1-aca1-4df0-b6ac-576d6c25a7c4" d="M261.15,80.86a5.06,5.06,0,1,1,5-5.06A4.79,4.79,0,0,1,261.15,80.86Zm0-1.1a4,4,0,0,0,0-7.92c-1.87,0-3.62,1.26-3.62,4S259.28,79.76,261.15,79.76Z"/><path class="b3459db1-aca1-4df0-b6ac-576d6c25a7c4" d="M277.48,70.74A4.29,4.29,0,0,1,281.35,73V67.39h1.26V80.72h-1.26v-2.2a4.1,4.1,0,0,1-3.89,2.34c-2.7,0-4.7-2-4.7-5.08S274.76,70.74,277.48,70.74Zm.21,1.1c-2.07,0-3.65,1.44-3.65,3.94s1.58,4,3.65,4a4,4,0,0,0,0-7.92Z"/><path class="b3459db1-aca1-4df0-b6ac-576d6c25a7c4" d="M289.71,80.86c-2.79,0-4.82-1.94-4.82-5.06s2-5.06,4.82-5.06a4.43,4.43,0,0,1,4.65,4.56,7.79,7.79,0,0,1,0,1h-8.15a3.43,3.43,0,0,0,3.54,3.51,3,3,0,0,0,3.17-2.2h1.33A4.31,4.31,0,0,1,289.71,80.86Zm-3.54-5.6h6.91a3.22,3.22,0,0,0-3.42-3.44A3.4,3.4,0,0,0,286.17,75.26Z"/><path class="b3459db1-aca1-4df0-b6ac-576d6c25a7c4" d="M296.66,67.39h1.26V80.72h-1.26Z"/><path class="b3459db1-aca1-4df0-b6ac-576d6c25a7c4" d="M30.59,100.74c2.68,0,4.68,2,4.68,5s-2,5.08-4.68,5.08a4.22,4.22,0,0,1-3.91-2.3v6.8H25.44V100.89h1.24v2.16A4.19,4.19,0,0,1,30.59,100.74Zm-.25,1.1a4,4,0,0,0,0,7.92c2.07,0,3.65-1.49,3.65-4S32.41,101.84,30.34,101.84Z"/><path class="b3459db1-aca1-4df0-b6ac-576d6c25a7c4" d="M38.82,110.72H37.56v-9.83h1.26v1.74a3.39,3.39,0,0,1,3.37-1.92V102h-.35c-1.63,0-3,.74-3,3.21Z"/><path class="b3459db1-aca1-4df0-b6ac-576d6c25a7c4" d="M47.92,110.86a5.06,5.06,0,1,1,4.95-5.06A4.79,4.79,0,0,1,47.92,110.86Zm0-1.1a3.61,3.61,0,0,0,3.65-4c0-2.7-1.76-4-3.64-4s-3.61,1.26-3.61,4S46,109.76,47.92,109.76Z"/><path class="b3459db1-aca1-4df0-b6ac-576d6c25a7c4" d="M59.3,100.74A4.13,4.13,0,0,1,63.19,103v-2.14h1.26V111a4.35,4.35,0,0,1-4.59,4.57c-2.54,0-4.3-1.29-4.7-3.35H56.4a3.37,3.37,0,0,0,3.46,2.26A3.21,3.21,0,0,0,63.19,111v-2.43a4.14,4.14,0,0,1-3.89,2.32c-2.7,0-4.7-2-4.7-5.08S56.6,100.74,59.3,100.74Zm.24,1.1a3.59,3.59,0,0,0-3.66,3.94c0,2.49,1.58,4,3.66,4a4,4,0,0,0,0-7.92Z"/><path class="b3459db1-aca1-4df0-b6ac-576d6c25a7c4" d="M68.54,110.72H67.28v-9.83h1.26v1.74a3.39,3.39,0,0,1,3.37-1.92V102h-.35c-1.63,0-3,.74-3,3.21Z"/><path class="b3459db1-aca1-4df0-b6ac-576d6c25a7c4" d="M77.49,100.74a4.11,4.11,0,0,1,3.89,2.31v-2.16h1.26v9.83H81.38v-2.18a4.15,4.15,0,0,1-3.91,2.32c-2.68,0-4.68-2-4.68-5.08S74.79,100.74,77.49,100.74Zm.24,1.1a3.59,3.59,0,0,0-3.66,3.94c0,2.49,1.59,4,3.66,4a4,4,0,0,0,0-7.92Z"/><path class="b3459db1-aca1-4df0-b6ac-576d6c25a7c4" d="M99.84,105.1c0-2.18-1.14-3.29-2.88-3.29s-3,1.18-3,3.58v5.33H92.67V105.1c0-2.18-1.15-3.29-2.9-3.29s-3,1.18-3,3.58v5.33H85.47v-9.83h1.26v1.69A3.51,3.51,0,0,1,90,100.71a3.64,3.64,0,0,1,3.64,2.41,3.58,3.58,0,0,1,3.54-2.41c2.18,0,3.91,1.37,3.91,4.25v5.76H99.84Z"/><path class="b3459db1-aca1-4df0-b6ac-576d6c25a7c4" d="M108,100.74a4.11,4.11,0,0,1,3.89,2.31v-2.16h1.26v9.83h-1.26v-2.18a4.16,4.16,0,0,1-3.91,2.32c-2.68,0-4.68-2-4.68-5.08S105.27,100.74,108,100.74Zm.23,1.1c-2.07,0-3.65,1.44-3.65,3.94s1.58,4,3.65,4a4,4,0,0,0,0-7.92Z"/><path class="b3459db1-aca1-4df0-b6ac-576d6c25a7c4" d="M125.05,100.74a4.11,4.11,0,0,1,3.89,2.31v-2.16h1.26v9.83h-1.26v-2.18a4.16,4.16,0,0,1-3.91,2.32c-2.68,0-4.68-2-4.68-5.08S122.35,100.74,125.05,100.74Zm.23,1.1c-2.07,0-3.65,1.44-3.65,3.94s1.58,4,3.65,4a4,4,0,0,0,0-7.92Z"/><path class="b3459db1-aca1-4df0-b6ac-576d6c25a7c4" d="M138.18,100.74c2.68,0,4.68,2,4.68,5s-2,5.08-4.68,5.08a4.19,4.19,0,0,1-3.91-2.3v6.8H133V100.89h1.24v2.16A4.17,4.17,0,0,1,138.18,100.74Zm-.26,1.1a4,4,0,0,0,0,7.92c2.07,0,3.66-1.49,3.66-4A3.59,3.59,0,0,0,137.92,101.84Z"/><path class="b3459db1-aca1-4df0-b6ac-576d6c25a7c4" d="M146.41,110.72h-1.27v-9.83h1.27v1.74a3.38,3.38,0,0,1,3.36-1.92V102h-.34c-1.64,0-3,.74-3,3.21Z"/><path class="b3459db1-aca1-4df0-b6ac-576d6c25a7c4" d="M155.5,110.86a5.06,5.06,0,1,1,4.95-5.06A4.79,4.79,0,0,1,155.5,110.86Zm0-1.1a4,4,0,0,0,0-7.92c-1.87,0-3.62,1.26-3.62,4S153.63,109.76,155.5,109.76Z"/><path class="b3459db1-aca1-4df0-b6ac-576d6c25a7c4" d="M162.51,100.89l3.31,8.6,3.31-8.6h1.34l-3.95,9.83H165.1l-3.94-9.83Z"/><path class="b3459db1-aca1-4df0-b6ac-576d6c25a7c4" d="M176,110.86a4.68,4.68,0,0,1-4.83-5.06c0-3.13,2-5.06,4.83-5.06a4.42,4.42,0,0,1,4.64,4.56c0,.39,0,.65,0,1h-8.16A3.44,3.44,0,0,0,176,109.8a3,3,0,0,0,3.16-2.2h1.34A4.32,4.32,0,0,1,176,110.86Zm-3.55-5.6h6.91a3.21,3.21,0,0,0-3.42-3.44A3.4,3.4,0,0,0,172.46,105.26Z"/><path class="b3459db1-aca1-4df0-b6ac-576d6c25a7c4" d="M187.16,100.74a4.25,4.25,0,0,1,4.52,3.35h-1.35a3,3,0,0,0-3.17-2.27c-1.93,0-3.5,1.32-3.5,4s1.57,4,3.5,4a3,3,0,0,0,3.17-2.29h1.35a4.31,4.31,0,0,1-4.52,3.35c-2.78,0-4.77-1.94-4.77-5.06S184.38,100.74,187.16,100.74Z"/><path class="b3459db1-aca1-4df0-b6ac-576d6c25a7c4" d="M193.89,97.39h1.26v5.17a3.71,3.71,0,0,1,3.42-1.85c2.18,0,3.92,1.37,3.92,4.25v5.76h-1.24V105.1c0-2.18-1.19-3.29-3-3.29s-3.11,1.15-3.11,3.54v5.37h-1.26Z"/><path class="b3459db1-aca1-4df0-b6ac-576d6c25a7c4" d="M209.36,100.74a4.09,4.09,0,0,1,3.88,2.31v-2.16h1.27v9.83h-1.27v-2.18a4.14,4.14,0,0,1-3.9,2.32c-2.69,0-4.68-2-4.68-5.08S206.65,100.74,209.36,100.74Zm.23,1.1a3.59,3.59,0,0,0-3.66,3.94c0,2.49,1.59,4,3.66,4a4,4,0,0,0,0-7.92Z"/><path class="b3459db1-aca1-4df0-b6ac-576d6c25a7c4" d="M224.7,105.1c0-2.18-1.19-3.29-3-3.29s-3.12,1.15-3.12,3.54v5.37h-1.26v-9.83h1.26v1.67a3.6,3.6,0,0,1,3.35-1.85c2.23,0,4,1.37,4,4.25v5.76H224.7Z"/><path class="b3459db1-aca1-4df0-b6ac-576d6c25a7c4" d="M232.82,100.74a4.29,4.29,0,0,1,3.87,2.27V97.39H238v13.33h-1.26v-2.2a4.1,4.1,0,0,1-3.89,2.34c-2.7,0-4.7-2-4.7-5.08S230.1,100.74,232.82,100.74Zm.21,1.1c-2.07,0-3.65,1.44-3.65,3.94s1.58,4,3.65,4a4,4,0,0,0,0-7.92Z"/><path class="b3459db1-aca1-4df0-b6ac-576d6c25a7c4" d="M245.11,110.86a5.06,5.06,0,1,1,4.95-5.06A4.79,4.79,0,0,1,245.11,110.86Zm0-1.1a3.61,3.61,0,0,0,3.65-4c0-2.7-1.76-4-3.64-4s-3.61,1.26-3.61,4S243.23,109.76,245.11,109.76Z"/><path class="b3459db1-aca1-4df0-b6ac-576d6c25a7c4" d="M260.68,110.86c-2.24,0-3.8-1.11-4-2.91H258c.11,1.08,1.05,1.85,2.65,1.85,1.4,0,2.19-.76,2.19-1.69,0-2.43-5.9-1-5.9-4.7,0-1.46,1.39-2.67,3.46-2.67s3.49,1.12,3.6,3h-1.26a2.11,2.11,0,0,0-2.38-1.93c-1.31,0-2.14.71-2.14,1.57,0,2.66,5.81,1.24,5.87,4.72C264.1,109.69,262.71,110.86,260.68,110.86Z"/><path class="b3459db1-aca1-4df0-b6ac-576d6c25a7c4" d="M274.9,110.72h-1.26V109a3.55,3.55,0,0,1-3.35,1.89c-2.23,0-4-1.37-4-4.25v-5.74h1.25v5.6c0,2.18,1.18,3.29,3,3.29s3.12-1.15,3.12-3.54v-5.35h1.26Z"/><path class="b3459db1-aca1-4df0-b6ac-576d6c25a7c4" d="M287.86,100.74c2.68,0,4.68,2,4.68,5s-2,5.08-4.68,5.08a4.22,4.22,0,0,1-3.91-2.3v6.8h-1.24V100.89H284v2.16A4.19,4.19,0,0,1,287.86,100.74Zm-.25,1.1a4,4,0,0,0,0,7.92c2.07,0,3.65-1.49,3.65-4S289.68,101.84,287.61,101.84Z"/><path class="b3459db1-aca1-4df0-b6ac-576d6c25a7c4" d="M299,100.74a4.11,4.11,0,0,1,3.89,2.31v-2.16h1.26v9.83h-1.26v-2.18a4.15,4.15,0,0,1-3.91,2.32c-2.68,0-4.68-2-4.68-5.08S296.28,100.74,299,100.74Zm.24,1.1a3.59,3.59,0,0,0-3.66,3.94c0,2.49,1.59,4,3.66,4a4,4,0,0,0,0-7.92Z"/><path class="b3459db1-aca1-4df0-b6ac-576d6c25a7c4" d="M308.22,110.72H307v-9.83h1.26v1.74a3.39,3.39,0,0,1,3.37-1.92V102h-.35c-1.63,0-3,.74-3,3.21Z"/><path class="b3459db1-aca1-4df0-b6ac-576d6c25a7c4" d="M314.21,102h-1.37v-1.06h1.37V98.42h1.28v2.47h2.7V102h-2.7v6.1c0,1.21.41,1.59,1.55,1.59h1.15v1.08h-1.35c-1.71,0-2.63-.7-2.63-2.67Z"/><path class="b3459db1-aca1-4df0-b6ac-576d6c25a7c4" d="M324,110.86a4.69,4.69,0,0,1-4.83-5.06c0-3.13,2-5.06,4.83-5.06a4.43,4.43,0,0,1,4.65,4.56,7.79,7.79,0,0,1,0,1h-8.16A3.44,3.44,0,0,0,324,109.8a3,3,0,0,0,3.17-2.2h1.33A4.31,4.31,0,0,1,324,110.86Zm-3.55-5.6h6.92a3.22,3.22,0,0,0-3.42-3.44A3.4,3.4,0,0,0,320.43,105.26Z"/><path class="b3459db1-aca1-4df0-b6ac-576d6c25a7c4" d="M29.69,140.86a4.69,4.69,0,0,1-4.83-5.06c0-3.13,2-5.06,4.83-5.06a4.42,4.42,0,0,1,4.64,4.56c0,.39,0,.65,0,1H26.14a3.44,3.44,0,0,0,3.55,3.51,3,3,0,0,0,3.17-2.2h1.33A4.31,4.31,0,0,1,29.69,140.86Zm-3.55-5.6h6.92a3.22,3.22,0,0,0-3.42-3.44A3.4,3.4,0,0,0,26.14,135.26Z"/><path class="b3459db1-aca1-4df0-b6ac-576d6c25a7c4" d="M39,136.76l-2.45,4H35.25l3.16-4.92-3.13-4.91H36.7l2.51,3.9,2.43-3.9H43l-3.13,4.86,3.17,5H41.57Z"/><path class="b3459db1-aca1-4df0-b6ac-576d6c25a7c4" d="M48.71,140.86a5.06,5.06,0,1,1,4.95-5.06A4.79,4.79,0,0,1,48.71,140.86Zm0-1.1a3.61,3.61,0,0,0,3.65-4c0-2.7-1.76-4-3.63-4s-3.62,1.26-3.62,4S46.84,139.76,48.71,139.76Zm1.73-13v1.14L46.75,130v-1Z"/><path class="b3459db1-aca1-4df0-b6ac-576d6c25a7c4" d="M60.09,130.74A4.13,4.13,0,0,1,64,133v-2.14h1.26V141a4.35,4.35,0,0,1-4.59,4.57c-2.54,0-4.3-1.29-4.7-3.35h1.24a3.37,3.37,0,0,0,3.46,2.26A3.21,3.21,0,0,0,64,141v-2.43a4.13,4.13,0,0,1-3.89,2.32c-2.7,0-4.7-2-4.7-5.08S57.39,130.74,60.09,130.74Zm.24,1.1a3.59,3.59,0,0,0-3.66,3.94c0,2.49,1.59,4,3.66,4a4,4,0,0,0,0-7.92Z"/><path class="b3459db1-aca1-4df0-b6ac-576d6c25a7c4" d="M72.35,140.86a4.69,4.69,0,0,1-4.83-5.06c0-3.13,2-5.06,4.83-5.06A4.42,4.42,0,0,1,77,135.3c0,.39,0,.65,0,1H68.8a3.44,3.44,0,0,0,3.55,3.51,3,3,0,0,0,3.17-2.2h1.33A4.32,4.32,0,0,1,72.35,140.86Zm-3.55-5.6h6.91a3.21,3.21,0,0,0-3.42-3.44A3.4,3.4,0,0,0,68.8,135.26Z"/><path class="b3459db1-aca1-4df0-b6ac-576d6c25a7c4" d="M86.67,135.1c0-2.18-1.19-3.29-3-3.29s-3.12,1.15-3.12,3.54v5.37H79.3v-9.83h1.26v1.67a3.6,3.6,0,0,1,3.35-1.85c2.23,0,4,1.37,4,4.25v5.76H86.67Z"/><path class="b3459db1-aca1-4df0-b6ac-576d6c25a7c4" d="M94.77,130.74a4.11,4.11,0,0,1,3.89,2.31v-2.16h1.26v9.83H98.66v-2.18a4.16,4.16,0,0,1-3.91,2.32c-2.68,0-4.68-2-4.68-5.08S92.07,130.74,94.77,130.74Zm.23,1.1c-2.07,0-3.65,1.44-3.65,3.94s1.58,4,3.65,4a4,4,0,0,0,0-7.92Z"/><path class="b3459db1-aca1-4df0-b6ac-576d6c25a7c4" d="M103.2,140.81a.92.92,0,0,1-.92-.94.91.91,0,0,1,.92-.92.89.89,0,0,1,.9.92A.91.91,0,0,1,103.2,140.81Z"/><path class="b3459db1-aca1-4df0-b6ac-576d6c25a7c4" d="M115,135.35h-2.54v5.37h-1.26V128.13H115c2.92,0,4.25,1.55,4.25,3.62S118,135.35,115,135.35Zm0-1.08c2.13,0,3-1,3-2.52s-.83-2.56-3-2.56h-2.54v5.08Z"/><path class="b3459db1-aca1-4df0-b6ac-576d6c25a7c4" d="M125.17,130.74a4.11,4.11,0,0,1,3.89,2.31v-2.16h1.26v9.83h-1.26v-2.18a4.14,4.14,0,0,1-3.9,2.32c-2.69,0-4.69-2-4.69-5.08S122.47,130.74,125.17,130.74Zm.24,1.1a3.59,3.59,0,0,0-3.66,3.94c0,2.49,1.59,4,3.66,4a4,4,0,0,0,0-7.92Z"/><path class="b3459db1-aca1-4df0-b6ac-576d6c25a7c4" d="M134.41,140.72h-1.26v-9.83h1.26v1.74a3.4,3.4,0,0,1,3.37-1.92V132h-.34c-1.64,0-3,.74-3,3.21Z"/><path class="b3459db1-aca1-4df0-b6ac-576d6c25a7c4" d="M143.36,130.74a4.11,4.11,0,0,1,3.89,2.31v-2.16h1.26v9.83h-1.26v-2.18a4.14,4.14,0,0,1-3.9,2.32c-2.69,0-4.69-2-4.69-5.08S140.66,130.74,143.36,130.74Zm.24,1.1a3.59,3.59,0,0,0-3.66,3.94c0,2.49,1.59,4,3.66,4a4,4,0,0,0,0-7.92Z"/><path class="b3459db1-aca1-4df0-b6ac-576d6c25a7c4" d="M160.46,130.74a4.09,4.09,0,0,1,3.87,2.31v-2.16h1.27v14.47h-1.27v-6.8a4.16,4.16,0,0,1-3.9,2.3c-2.69,0-4.68-2-4.68-5.08S157.74,130.74,160.46,130.74Zm.22,1.1a3.59,3.59,0,0,0-3.66,3.94c0,2.49,1.59,4,3.66,4a4,4,0,0,0,0-7.92Z"/><path class="b3459db1-aca1-4df0-b6ac-576d6c25a7c4" d="M177,140.72h-1.26V139a3.55,3.55,0,0,1-3.35,1.89c-2.23,0-4-1.37-4-4.25v-5.74h1.25v5.6c0,2.18,1.18,3.29,3,3.29s3.12-1.15,3.12-3.54v-5.35H177Z"/><path class="b3459db1-aca1-4df0-b6ac-576d6c25a7c4" d="M184.05,140.86a4.69,4.69,0,0,1-4.83-5.06c0-3.13,2-5.06,4.83-5.06a4.42,4.42,0,0,1,4.64,4.56c0,.39,0,.65,0,1H180.5a3.44,3.44,0,0,0,3.55,3.51,3,3,0,0,0,3.17-2.2h1.33A4.32,4.32,0,0,1,184.05,140.86Zm-3.55-5.6h6.91a3.21,3.21,0,0,0-3.42-3.44A3.4,3.4,0,0,0,180.5,135.26Z"/><path class="b3459db1-aca1-4df0-b6ac-576d6c25a7c4" d="M204.44,140.72h-1.26V139a3.55,3.55,0,0,1-3.35,1.89c-2.23,0-4-1.37-4-4.25v-5.74h1.24v5.6c0,2.18,1.19,3.29,3,3.29s3.11-1.15,3.11-3.54v-5.35h1.26Z"/><path class="b3459db1-aca1-4df0-b6ac-576d6c25a7c4" d="M214.63,135.1c0-2.18-1.19-3.29-3-3.29s-3.12,1.15-3.12,3.54v5.37h-1.26v-9.83h1.26v1.67a3.6,3.6,0,0,1,3.35-1.85c2.23,0,4,1.37,4,4.25v5.76h-1.24Z"/><path class="b3459db1-aca1-4df0-b6ac-576d6c25a7c4" d="M222.73,130.74a4.11,4.11,0,0,1,3.89,2.31v-2.16h1.26v9.83h-1.26v-2.18a4.16,4.16,0,0,1-3.91,2.32c-2.68,0-4.68-2-4.68-5.08S220,130.74,222.73,130.74Zm.23,1.1c-2.07,0-3.65,1.44-3.65,3.94s1.58,4,3.65,4a4,4,0,0,0,0-7.92Z"/><path class="b3459db1-aca1-4df0-b6ac-576d6c25a7c4" d="M235.87,130.89l3.31,8.6,3.31-8.6h1.33l-3.94,9.83h-1.42l-3.94-9.83Z"/><path class="b3459db1-aca1-4df0-b6ac-576d6c25a7c4" d="M249.23,130.74a4.09,4.09,0,0,1,3.89,2.31v-2.16h1.26v9.83h-1.26v-2.18a4.14,4.14,0,0,1-3.9,2.32c-2.69,0-4.69-2-4.69-5.08S246.53,130.74,249.23,130.74Zm.24,1.1a3.59,3.59,0,0,0-3.66,3.94c0,2.49,1.59,4,3.66,4a4,4,0,0,0,0-7.92Z"/><path class="b3459db1-aca1-4df0-b6ac-576d6c25a7c4" d="M258.47,140.72h-1.26v-9.83h1.26v1.74a3.4,3.4,0,0,1,3.37-1.92V132h-.34c-1.64,0-3,.74-3,3.21Z"/><path class="b3459db1-aca1-4df0-b6ac-576d6c25a7c4" d="M263.3,128.1a.92.92,0,1,1,.92.93A.91.91,0,0,1,263.3,128.1Zm.29,2.79h1.26v9.83h-1.26Z"/><path class="b3459db1-aca1-4df0-b6ac-576d6c25a7c4" d="M271.76,130.74a4.09,4.09,0,0,1,3.89,2.31v-2.16h1.26v9.83h-1.26v-2.18a4.14,4.14,0,0,1-3.9,2.32c-2.69,0-4.68-2-4.68-5.08S269.06,130.74,271.76,130.74Zm.24,1.1a3.59,3.59,0,0,0-3.66,3.94c0,2.49,1.59,4,3.66,4a4,4,0,0,0,0-7.92Z"/><path class="b3459db1-aca1-4df0-b6ac-576d6c25a7c4" d="M284.89,130.74c2.7,0,4.68,2,4.68,5s-2,5.08-4.68,5.08a4.14,4.14,0,0,1-3.91-2.3v2.16h-1.24V127.39H281v5.68A4.19,4.19,0,0,1,284.89,130.74Zm-.25,1.1a4,4,0,0,0,0,7.92c2.07,0,3.66-1.49,3.66-4A3.59,3.59,0,0,0,284.64,131.84Z"/><path class="b3459db1-aca1-4df0-b6ac-576d6c25a7c4" d="M291.88,127.39h1.26v13.33h-1.26Z"/><path class="b3459db1-aca1-4df0-b6ac-576d6c25a7c4" d="M300.23,140.86c-2.79,0-4.82-1.94-4.82-5.06s2-5.06,4.82-5.06a4.43,4.43,0,0,1,4.65,4.56,7.79,7.79,0,0,1,0,1h-8.15a3.43,3.43,0,0,0,3.54,3.51,3,3,0,0,0,3.17-2.2h1.33A4.31,4.31,0,0,1,300.23,140.86Zm-3.54-5.6h6.91a3.22,3.22,0,0,0-3.42-3.44A3.4,3.4,0,0,0,296.69,135.26Z"/><path class="b3459db1-aca1-4df0-b6ac-576d6c25a7c4" d="M315.5,140.86c-2.24,0-3.8-1.11-4-2.91h1.3c.11,1.08,1.05,1.85,2.65,1.85,1.4,0,2.19-.76,2.19-1.69,0-2.43-5.9-1-5.9-4.7,0-1.46,1.39-2.67,3.46-2.67s3.49,1.12,3.6,3h-1.26a2.11,2.11,0,0,0-2.38-1.93c-1.31,0-2.14.71-2.14,1.57,0,2.66,5.81,1.24,5.87,4.72C318.92,139.69,317.53,140.86,315.5,140.86Z"/><path class="b3459db1-aca1-4df0-b6ac-576d6c25a7c4" d="M320.94,128.1a.92.92,0,1,1,.92.93A.91.91,0,0,1,320.94,128.1Zm.29,2.79h1.26v9.83h-1.26Z"/><path class="b3459db1-aca1-4df0-b6ac-576d6c25a7c4" d="M326.56,140.72H325.3v-9.83h1.26v1.74a3.39,3.39,0,0,1,3.37-1.92V132h-.35c-1.63,0-3,.74-3,3.21Z"/><path class="b3459db1-aca1-4df0-b6ac-576d6c25a7c4" d="M332.45,130.89l3.31,8.6,3.32-8.6h1.33l-3.94,9.83H335l-3.94-9.83Z"/><path class="b3459db1-aca1-4df0-b6ac-576d6c25a7c4" d="M345.82,130.74a4.11,4.11,0,0,1,3.89,2.31v-2.16H351v9.83h-1.26v-2.18a4.16,4.16,0,0,1-3.91,2.32c-2.68,0-4.68-2-4.68-5.08S343.12,130.74,345.82,130.74Zm.23,1.1c-2.07,0-3.65,1.44-3.65,3.94s1.58,4,3.65,4a4,4,0,0,0,0-7.92Z"/><path class="b3459db1-aca1-4df0-b6ac-576d6c25a7c4" d="M29.64,160.74a4.26,4.26,0,0,1,4.52,3.35H32.8a3,3,0,0,0-3.16-2.27c-1.93,0-3.5,1.32-3.5,4s1.57,4,3.5,4a3,3,0,0,0,3.16-2.29h1.36a4.31,4.31,0,0,1-4.52,3.35c-2.78,0-4.78-1.94-4.78-5.06S26.86,160.74,29.64,160.74Z"/><path class="b3459db1-aca1-4df0-b6ac-576d6c25a7c4" d="M40.63,170.86a5.06,5.06,0,1,1,4.95-5.06A4.79,4.79,0,0,1,40.63,170.86Zm0-1.1a4,4,0,0,0,0-7.92c-1.87,0-3.62,1.26-3.62,4S38.76,169.76,40.63,169.76Z"/><path class="b3459db1-aca1-4df0-b6ac-576d6c25a7c4" d="M62.23,165.1c0-2.18-1.13-3.29-2.88-3.29s-3,1.18-3,3.58v5.33H55.06V165.1c0-2.18-1.15-3.29-2.89-3.29s-3.05,1.18-3.05,3.58v5.33H47.86v-9.83h1.26v1.69a3.52,3.52,0,0,1,3.26-1.87A3.64,3.64,0,0,1,56,163.12a3.58,3.58,0,0,1,3.55-2.41c2.17,0,3.9,1.37,3.9,4.25v5.76H62.23Z"/><path class="b3459db1-aca1-4df0-b6ac-576d6c25a7c4" d="M70.54,170.86a5.06,5.06,0,1,1,4.95-5.06A4.79,4.79,0,0,1,70.54,170.86Zm0-1.1a4,4,0,0,0,0-7.92c-1.87,0-3.62,1.26-3.62,4S68.67,169.76,70.54,169.76Z"/><path class="b3459db1-aca1-4df0-b6ac-576d6c25a7c4" d="M82.44,158.1a.92.92,0,1,1,.92.93A.9.9,0,0,1,82.44,158.1Zm.28,2.79H84v9.83H82.72Z"/><path class="b3459db1-aca1-4df0-b6ac-576d6c25a7c4" d="M94.16,165.1c0-2.18-1.19-3.29-3-3.29s-3.12,1.15-3.12,3.54v5.37H86.79v-9.83h1.26v1.67a3.6,3.6,0,0,1,3.35-1.85c2.23,0,4,1.37,4,4.25v5.76H94.16Z"/><path class="b3459db1-aca1-4df0-b6ac-576d6c25a7c4" d="M101.49,170.86c-2.24,0-3.8-1.11-4-2.91h1.29c.11,1.08,1.05,1.85,2.65,1.85,1.4,0,2.2-.76,2.2-1.69,0-2.43-5.91-1-5.91-4.7,0-1.46,1.39-2.67,3.46-2.67s3.49,1.12,3.6,3h-1.26a2.1,2.1,0,0,0-2.38-1.93c-1.31,0-2.14.71-2.14,1.57,0,2.66,5.81,1.24,5.87,4.72C104.91,169.69,103.52,170.86,101.49,170.86Z"/><path class="b3459db1-aca1-4df0-b6ac-576d6c25a7c4" d="M107.47,162H106.1v-1.06h1.37v-2.47h1.28v2.47h2.7V162h-2.7v6.1c0,1.21.41,1.59,1.55,1.59h1.15v1.08H110.1c-1.71,0-2.63-.7-2.63-2.67Z"/><path class="b3459db1-aca1-4df0-b6ac-576d6c25a7c4" d="M114.55,170.72h-1.26v-9.83h1.26v1.74a3.39,3.39,0,0,1,3.37-1.92V162h-.35c-1.63,0-3,.74-3,3.21Z"/><path class="b3459db1-aca1-4df0-b6ac-576d6c25a7c4" d="M128.23,170.72H127V169a3.55,3.55,0,0,1-3.35,1.89c-2.23,0-4-1.37-4-4.25v-5.74h1.24v5.6c0,2.18,1.19,3.29,3,3.29s3.11-1.15,3.11-3.54v-5.35h1.26Z"/><path class="b3459db1-aca1-4df0-b6ac-576d6c25a7c4" d="M145.42,165.1c0-2.18-1.13-3.29-2.88-3.29s-3,1.18-3,3.58v5.33h-1.25V165.1c0-2.18-1.15-3.29-2.89-3.29s-3.05,1.18-3.05,3.58v5.33h-1.26v-9.83h1.26v1.69a3.51,3.51,0,0,1,3.26-1.87,3.64,3.64,0,0,1,3.64,2.41,3.58,3.58,0,0,1,3.55-2.41c2.17,0,3.9,1.37,3.9,4.25v5.76h-1.24Z"/><path class="b3459db1-aca1-4df0-b6ac-576d6c25a7c4" d="M153.67,170.86c-2.79,0-4.82-1.94-4.82-5.06s2-5.06,4.82-5.06a4.43,4.43,0,0,1,4.65,4.56,7.79,7.79,0,0,1,0,1h-8.15a3.43,3.43,0,0,0,3.54,3.51,3,3,0,0,0,3.17-2.2h1.34A4.33,4.33,0,0,1,153.67,170.86Zm-3.54-5.6H157a3.21,3.21,0,0,0-3.42-3.44A3.4,3.4,0,0,0,150.13,165.26Z"/><path class="b3459db1-aca1-4df0-b6ac-576d6c25a7c4" d="M168,165.1c0-2.18-1.19-3.29-3-3.29s-3.11,1.15-3.11,3.54v5.37h-1.26v-9.83h1.26v1.67a3.6,3.6,0,0,1,3.35-1.85c2.23,0,4,1.37,4,4.25v5.76H168Z"/><path class="b3459db1-aca1-4df0-b6ac-576d6c25a7c4" d="M172.11,162h-1.37v-1.06h1.37v-2.47h1.28v2.47h2.7V162h-2.7v6.1c0,1.21.41,1.59,1.55,1.59h1.15v1.08h-1.35c-1.71,0-2.63-.7-2.63-2.67Z"/><path class="b3459db1-aca1-4df0-b6ac-576d6c25a7c4" d="M181.92,170.86a5.06,5.06,0,1,1,5-5.06A4.79,4.79,0,0,1,181.92,170.86Zm0-1.1a3.61,3.61,0,0,0,3.65-4c0-2.7-1.76-4-3.63-4s-3.62,1.26-3.62,4S180.05,169.76,181.92,169.76Z"/><path class="b3459db1-aca1-4df0-b6ac-576d6c25a7c4" d="M197.49,170.86c-2.23,0-3.8-1.11-4-2.91h1.29c.11,1.08,1.05,1.85,2.65,1.85,1.41,0,2.2-.76,2.2-1.69,0-2.43-5.91-1-5.91-4.7,0-1.46,1.39-2.67,3.46-2.67s3.49,1.12,3.6,3h-1.26a2.1,2.1,0,0,0-2.38-1.93c-1.31,0-2.14.71-2.14,1.57,0,2.66,5.82,1.24,5.87,4.72C200.91,169.69,199.52,170.86,197.49,170.86Z"/><path class="b3459db1-aca1-4df0-b6ac-576d6c25a7c4" d="M207.45,170.86c-2.79,0-4.82-1.94-4.82-5.06s2-5.06,4.82-5.06a4.43,4.43,0,0,1,4.65,4.56,7.79,7.79,0,0,1,0,1H203.9a3.45,3.45,0,0,0,3.55,3.51,3,3,0,0,0,3.17-2.2H212A4.31,4.31,0,0,1,207.45,170.86Zm-3.55-5.6h6.92a3.22,3.22,0,0,0-3.42-3.44A3.41,3.41,0,0,0,203.9,165.26Z"/><path class="b3459db1-aca1-4df0-b6ac-576d6c25a7c4" d="M220.59,170.72h-1.26v-9.83h1.26v1.74a3.39,3.39,0,0,1,3.37-1.92V162h-.34c-1.64,0-3,.74-3,3.21Z"/><path class="b3459db1-aca1-4df0-b6ac-576d6c25a7c4" d="M229.67,170.86a4.69,4.69,0,0,1-4.83-5.06c0-3.13,2-5.06,4.83-5.06a4.42,4.42,0,0,1,4.64,4.56c0,.39,0,.65,0,1h-8.16a3.44,3.44,0,0,0,3.55,3.51,3,3,0,0,0,3.17-2.2h1.33A4.31,4.31,0,0,1,229.67,170.86Zm-3.55-5.6H233a3.23,3.23,0,0,0-3.43-3.44A3.4,3.4,0,0,0,226.12,165.26Z"/><path class="b3459db1-aca1-4df0-b6ac-576d6c25a7c4" d="M240.77,160.74a4.1,4.1,0,0,1,3.87,2.31v-2.16h1.26v14.47h-1.26v-6.8a4.17,4.17,0,0,1-3.91,2.3c-2.68,0-4.68-2-4.68-5.08S238.05,160.74,240.77,160.74Zm.21,1.1c-2.07,0-3.65,1.44-3.65,3.94s1.58,4,3.65,4a4,4,0,0,0,0-7.92Z"/><path class="b3459db1-aca1-4df0-b6ac-576d6c25a7c4" d="M257.25,170.72H256V169a3.55,3.55,0,0,1-3.35,1.89c-2.23,0-4-1.37-4-4.25v-5.74h1.24v5.6c0,2.18,1.19,3.29,3,3.29s3.11-1.15,3.11-3.54v-5.35h1.26Z"/><path class="b3459db1-aca1-4df0-b6ac-576d6c25a7c4" d="M259.8,158.1a.92.92,0,0,1,1.84,0,.92.92,0,1,1-1.84,0Zm.29,2.79h1.26v9.83h-1.26Z"/><path class="b3459db1-aca1-4df0-b6ac-576d6c25a7c4" d="M268.39,170.86a4.69,4.69,0,0,1-4.83-5.06c0-3.13,2-5.06,4.83-5.06A4.42,4.42,0,0,1,273,165.3c0,.39,0,.65,0,1h-8.16a3.44,3.44,0,0,0,3.55,3.51,3,3,0,0,0,3.17-2.2h1.33A4.32,4.32,0,0,1,268.39,170.86Zm-3.55-5.6h6.91a3.21,3.21,0,0,0-3.42-3.44A3.4,3.4,0,0,0,264.84,165.26Z"/><path class="b3459db1-aca1-4df0-b6ac-576d6c25a7c4" d="M276.6,170.72h-1.26v-9.83h1.26v1.74a3.39,3.39,0,0,1,3.37-1.92V162h-.35c-1.63,0-3,.74-3,3.21Z"/><path class="b3459db1-aca1-4df0-b6ac-576d6c25a7c4" d="M285.68,170.86a4.69,4.69,0,0,1-4.83-5.06c0-3.13,2-5.06,4.83-5.06a4.42,4.42,0,0,1,4.64,4.56c0,.39,0,.65,0,1h-8.16a3.44,3.44,0,0,0,3.55,3.51,3,3,0,0,0,3.17-2.2h1.33A4.31,4.31,0,0,1,285.68,170.86Zm-3.55-5.6h6.92a3.23,3.23,0,0,0-3.43-3.44A3.4,3.4,0,0,0,282.13,165.26Z"/><path class="b3459db1-aca1-4df0-b6ac-576d6c25a7c4" d="M300,165.1c0-2.18-1.19-3.29-3-3.29s-3.12,1.15-3.12,3.54v5.37h-1.26v-9.83h1.26v1.67a3.6,3.6,0,0,1,3.35-1.85c2.23,0,4,1.37,4,4.25v5.76H300Z"/><path class="b3459db1-aca1-4df0-b6ac-576d6c25a7c4" d="M313.1,160.74A4.29,4.29,0,0,1,317,163v-5.62h1.26v13.33H317v-2.2a4.09,4.09,0,0,1-3.89,2.34c-2.7,0-4.7-2-4.7-5.08S310.38,160.74,313.1,160.74Zm.22,1.1a3.59,3.59,0,0,0-3.66,3.94c0,2.49,1.58,4,3.66,4a4,4,0,0,0,0-7.92Z"/><path class="b3459db1-aca1-4df0-b6ac-576d6c25a7c4" d="M325.39,170.86a5.06,5.06,0,1,1,4.95-5.06A4.79,4.79,0,0,1,325.39,170.86Zm0-1.1a3.61,3.61,0,0,0,3.65-4c0-2.7-1.76-4-3.63-4s-3.62,1.26-3.62,4S323.52,169.76,325.39,169.76Z"/><path class="b3459db1-aca1-4df0-b6ac-576d6c25a7c4" d="M335.9,170.86c-2.24,0-3.8-1.11-4-2.91h1.3c.11,1.08,1,1.85,2.65,1.85,1.4,0,2.19-.76,2.19-1.69,0-2.43-5.9-1-5.9-4.7,0-1.46,1.39-2.67,3.46-2.67s3.49,1.12,3.6,3H338a2.11,2.11,0,0,0-2.38-1.93c-1.31,0-2.14.71-2.14,1.57,0,2.66,5.81,1.24,5.87,4.72C339.32,169.69,337.93,170.86,335.9,170.86Z"/><path class="b3459db1-aca1-4df0-b6ac-576d6c25a7c4" d="M29.64,190.74a4.26,4.26,0,0,1,4.52,3.35H32.8a3,3,0,0,0-3.16-2.27c-1.93,0-3.5,1.32-3.5,4s1.57,4,3.5,4a3,3,0,0,0,3.16-2.29h1.36a4.31,4.31,0,0,1-4.52,3.35c-2.78,0-4.78-1.94-4.78-5.06S26.86,190.74,29.64,190.74Z"/><path class="b3459db1-aca1-4df0-b6ac-576d6c25a7c4" d="M40.63,200.86a5.06,5.06,0,1,1,4.95-5.06A4.79,4.79,0,0,1,40.63,200.86Zm0-1.1a4,4,0,0,0,0-7.92c-1.87,0-3.62,1.26-3.62,4S38.76,199.76,40.63,199.76Z"/><path class="b3459db1-aca1-4df0-b6ac-576d6c25a7c4" d="M55.23,195.1c0-2.18-1.19-3.29-3-3.29s-3.12,1.15-3.12,3.54v5.37H47.86v-9.83h1.26v1.67a3.6,3.6,0,0,1,3.35-1.85c2.23,0,4,1.37,4,4.25v5.76H55.23Z"/><path class="b3459db1-aca1-4df0-b6ac-576d6c25a7c4" d="M63.35,190.74A4.29,4.29,0,0,1,67.22,193v-5.62h1.26v13.33H67.22v-2.2a4.1,4.1,0,0,1-3.89,2.34c-2.7,0-4.7-2-4.7-5.08S60.63,190.74,63.35,190.74Zm.21,1.1c-2.07,0-3.65,1.44-3.65,3.94s1.58,4,3.65,4a4,4,0,0,0,0-7.92Z"/><path class="b3459db1-aca1-4df0-b6ac-576d6c25a7c4" d="M71,188.1A.92.92,0,1,1,72,189,.91.91,0,0,1,71,188.1Zm.29,2.79h1.26v9.83H71.32Z"/><path class="b3459db1-aca1-4df0-b6ac-576d6c25a7c4" d="M79.57,190.74a4.25,4.25,0,0,1,4.52,3.35H82.74a3,3,0,0,0-3.17-2.27c-1.93,0-3.5,1.32-3.5,4s1.57,4,3.5,4a3,3,0,0,0,3.17-2.29h1.35a4.31,4.31,0,0,1-4.52,3.35c-2.78,0-4.77-1.94-4.77-5.06S76.79,190.74,79.57,190.74Z"/><path class="b3459db1-aca1-4df0-b6ac-576d6c25a7c4" d="M86,188.1a.92.92,0,1,1,.92.93A.91.91,0,0,1,86,188.1Zm.29,2.79h1.26v9.83H86.29Z"/><path class="b3459db1-aca1-4df0-b6ac-576d6c25a7c4" d="M94.64,200.86a5.06,5.06,0,1,1,5-5.06A4.79,4.79,0,0,1,94.64,200.86Zm0-1.1a3.61,3.61,0,0,0,3.66-4c0-2.7-1.76-4-3.64-4S91,193.1,91,195.8,92.77,199.76,94.64,199.76Z"/><path class="b3459db1-aca1-4df0-b6ac-576d6c25a7c4" d="M109.24,195.1c0-2.18-1.19-3.29-3-3.29s-3.11,1.15-3.11,3.54v5.37h-1.26v-9.83h1.26v1.67a3.6,3.6,0,0,1,3.35-1.85c2.23,0,4,1.37,4,4.25v5.76h-1.24Z"/><path class="b3459db1-aca1-4df0-b6ac-576d6c25a7c4" d="M117.47,200.86a4.69,4.69,0,0,1-4.83-5.06c0-3.13,2-5.06,4.83-5.06a4.42,4.42,0,0,1,4.64,4.56c0,.39,0,.65,0,1h-8.16a3.44,3.44,0,0,0,3.55,3.51,3,3,0,0,0,3.17-2.2H122A4.31,4.31,0,0,1,117.47,200.86Zm-3.55-5.6h6.92a3.23,3.23,0,0,0-3.43-3.44A3.4,3.4,0,0,0,113.92,195.26Z"/><path class="b3459db1-aca1-4df0-b6ac-576d6c25a7c4" d="M127.72,200.86c-2.23,0-3.8-1.11-4-2.91h1.29c.11,1.08,1,1.85,2.65,1.85,1.4,0,2.2-.76,2.2-1.69,0-2.43-5.91-1-5.91-4.7,0-1.46,1.39-2.67,3.46-2.67s3.49,1.12,3.6,3h-1.26a2.1,2.1,0,0,0-2.38-1.93c-1.31,0-2.14.71-2.14,1.57,0,2.66,5.81,1.24,5.87,4.72C131.14,199.69,129.75,200.86,127.72,200.86Z"/><path class="b3459db1-aca1-4df0-b6ac-576d6c25a7c4" d="M133.94,200.81a.91.91,0,0,1-.91-.94.91.91,0,1,1,1.81,0A.91.91,0,0,1,133.94,200.81Z"/><path class="b3459db1-aca1-4df0-b6ac-576d6c25a7c4" d="M143.2,188.13v11.56h4.52v1h-5.78V188.13Z"/><path class="b3459db1-aca1-4df0-b6ac-576d6c25a7c4" d="M153.16,190.74a4.11,4.11,0,0,1,3.89,2.31v-2.16h1.26v9.83h-1.26v-2.18a4.16,4.16,0,0,1-3.91,2.32c-2.68,0-4.68-2-4.68-5.08S150.46,190.74,153.16,190.74Zm.23,1.1c-2.07,0-3.65,1.44-3.65,3.94s1.58,4,3.65,4a4,4,0,0,0,0-7.92Z"/><path class="b3459db1-aca1-4df0-b6ac-576d6c25a7c4" d="M174.76,188.13h1.33l-4.77,12.59h-1.44l-4.77-12.59h1.37l4.12,11.22Z"/><path class="b3459db1-aca1-4df0-b6ac-576d6c25a7c4" d="M177.85,188.13h1.26v12.59h-1.26Z"/><path class="b3459db1-aca1-4df0-b6ac-576d6c25a7c4" d="M191,190.74a4.29,4.29,0,0,1,3.88,2.27v-5.62h1.26v13.33h-1.26v-2.2a4.1,4.1,0,0,1-3.89,2.34c-2.7,0-4.7-2-4.7-5.08S188.33,190.74,191,190.74Zm.22,1.1c-2.07,0-3.65,1.44-3.65,3.94s1.58,4,3.65,4a4,4,0,0,0,0-7.92Z"/><path class="b3459db1-aca1-4df0-b6ac-576d6c25a7c4" d="M203.28,200.86c-2.79,0-4.82-1.94-4.82-5.06s2-5.06,4.82-5.06a4.43,4.43,0,0,1,4.65,4.56,7.79,7.79,0,0,1,0,1h-8.16a3.44,3.44,0,0,0,3.55,3.51,3,3,0,0,0,3.17-2.2h1.33A4.31,4.31,0,0,1,203.28,200.86Zm-3.55-5.6h6.92a3.22,3.22,0,0,0-3.42-3.44A3.4,3.4,0,0,0,199.73,195.26Z"/><path class="b3459db1-aca1-4df0-b6ac-576d6c25a7c4" d="M215.38,190.74c2.7,0,4.69,2,4.69,5s-2,5.08-4.69,5.08a4.11,4.11,0,0,1-3.9-2.3v2.16h-1.25V187.39h1.25v5.68A4.16,4.16,0,0,1,215.38,190.74Zm-.25,1.1a4,4,0,0,0,0,7.92c2.07,0,3.66-1.49,3.66-4A3.59,3.59,0,0,0,215.13,191.84Z"/><path class="b3459db1-aca1-4df0-b6ac-576d6c25a7c4" d="M226.63,200.86c-2.79,0-4.82-1.94-4.82-5.06s2-5.06,4.82-5.06a4.43,4.43,0,0,1,4.65,4.56,7.79,7.79,0,0,1,0,1h-8.15a3.43,3.43,0,0,0,3.54,3.51,3,3,0,0,0,3.17-2.2h1.34A4.33,4.33,0,0,1,226.63,200.86Zm-3.54-5.6H230a3.22,3.22,0,0,0-3.42-3.44A3.4,3.4,0,0,0,223.09,195.26Z"/><path class="b3459db1-aca1-4df0-b6ac-576d6c25a7c4" d="M247.64,190.74a4.25,4.25,0,0,1,4.52,3.35h-1.35a3,3,0,0,0-3.17-2.27c-1.93,0-3.49,1.32-3.49,4s1.56,4,3.49,4a3,3,0,0,0,3.17-2.29h1.35a4.3,4.3,0,0,1-4.52,3.35c-2.77,0-4.77-1.94-4.77-5.06S244.87,190.74,247.64,190.74Z"/><path class="b3459db1-aca1-4df0-b6ac-576d6c25a7c4" d="M258.64,200.86a5.06,5.06,0,1,1,4.95-5.06A4.79,4.79,0,0,1,258.64,200.86Zm0-1.1a3.61,3.61,0,0,0,3.65-4c0-2.7-1.76-4-3.64-4s-3.62,1.26-3.62,4S256.76,199.76,258.64,199.76Z"/><path class="b3459db1-aca1-4df0-b6ac-576d6c25a7c4" d="M267.13,200.72h-1.26v-9.83h1.26v1.74a3.38,3.38,0,0,1,3.36-1.92V192h-.34c-1.64,0-3,.74-3,3.21Z"/><path class="b3459db1-aca1-4df0-b6ac-576d6c25a7c4" d="M273.51,200.72h-1.26v-9.83h1.26v1.74a3.38,3.38,0,0,1,3.36-1.92V192h-.34c-1.64,0-3,.74-3,3.21Z"/><path class="b3459db1-aca1-4df0-b6ac-576d6c25a7c4" d="M282.58,200.86c-2.79,0-4.82-1.94-4.82-5.06s2-5.06,4.82-5.06a4.42,4.42,0,0,1,4.65,4.56,7.79,7.79,0,0,1,0,1H279a3.44,3.44,0,0,0,3.54,3.51,3,3,0,0,0,3.17-2.2h1.34A4.32,4.32,0,0,1,282.58,200.86Zm-3.54-5.6H286a3.21,3.21,0,0,0-3.42-3.44A3.4,3.4,0,0,0,279,195.26Z"/><path class="b3459db1-aca1-4df0-b6ac-576d6c25a7c4" d="M289.53,187.39h1.26v13.33h-1.26Z"/><path class="b3459db1-aca1-4df0-b6ac-576d6c25a7c4" d="M297.76,190.74a4.09,4.09,0,0,1,3.88,2.31v-2.16h1.27v9.83h-1.27v-2.18a4.14,4.14,0,0,1-3.9,2.32c-2.69,0-4.68-2-4.68-5.08S295.05,190.74,297.76,190.74Zm.23,1.1a3.59,3.59,0,0,0-3.66,3.94c0,2.49,1.59,4,3.66,4a4,4,0,0,0,0-7.92Z"/><path class="b3459db1-aca1-4df0-b6ac-576d6c25a7c4" d="M310,190.74a4.25,4.25,0,0,1,4.52,3.35h-1.35a3,3,0,0,0-3.17-2.27c-1.93,0-3.49,1.32-3.49,4s1.56,4,3.49,4a3,3,0,0,0,3.17-2.29h1.35a4.3,4.3,0,0,1-4.52,3.35c-2.77,0-4.77-1.94-4.77-5.06S307.19,190.74,310,190.74Z"/><path class="b3459db1-aca1-4df0-b6ac-576d6c25a7c4" d="M316.39,188.1a.92.92,0,1,1,.92.93A.91.91,0,0,1,316.39,188.1Zm.29,2.79h1.26v9.83h-1.26Z"/><path class="b3459db1-aca1-4df0-b6ac-576d6c25a7c4" d="M325,200.86A5.06,5.06,0,1,1,330,195.8,4.79,4.79,0,0,1,325,200.86Zm0-1.1a3.61,3.61,0,0,0,3.65-4c0-2.7-1.76-4-3.64-4s-3.62,1.26-3.62,4S323.16,199.76,325,199.76Z"/><path class="b3459db1-aca1-4df0-b6ac-576d6c25a7c4" d="M339.63,195.1c0-2.18-1.19-3.29-3-3.29s-3.11,1.15-3.11,3.54v5.37h-1.26v-9.83h1.26v1.67a3.6,3.6,0,0,1,3.35-1.85c2.23,0,4,1.37,4,4.25v5.76h-1.24Z"/><path class="b3459db1-aca1-4df0-b6ac-576d6c25a7c4" d="M347.73,190.74a4.11,4.11,0,0,1,3.89,2.31v-2.16h1.26v9.83h-1.26v-2.18a4.14,4.14,0,0,1-3.9,2.32c-2.69,0-4.69-2-4.69-5.08S345,190.74,347.73,190.74Zm.24,1.1a3.59,3.59,0,0,0-3.66,3.94c0,2.49,1.59,4,3.66,4a4,4,0,0,0,0-7.92Z"/><path class="b3459db1-aca1-4df0-b6ac-576d6c25a7c4" d="M357,200.72h-1.26v-9.83H357v1.74a3.4,3.4,0,0,1,3.37-1.92V192H360c-1.64,0-3,.74-3,3.21Z"/><path class="b3459db1-aca1-4df0-b6ac-576d6c25a7c4" d="M365.5,200.86c-2.23,0-3.8-1.11-4-2.91h1.3c.11,1.08,1,1.85,2.65,1.85,1.4,0,2.19-.76,2.19-1.69,0-2.43-5.9-1-5.9-4.7,0-1.46,1.38-2.67,3.45-2.67s3.5,1.12,3.6,3h-1.26a2.1,2.1,0,0,0-2.37-1.93c-1.32,0-2.15.71-2.15,1.57,0,2.66,5.82,1.24,5.87,4.72C368.92,199.69,367.54,200.86,365.5,200.86Z"/><path class="b3459db1-aca1-4df0-b6ac-576d6c25a7c4" d="M375.47,200.86a4.69,4.69,0,0,1-4.83-5.06c0-3.13,2-5.06,4.83-5.06a4.42,4.42,0,0,1,4.64,4.56c0,.39,0,.65,0,1h-8.16a3.44,3.44,0,0,0,3.55,3.51,3,3,0,0,0,3.17-2.2H380A4.32,4.32,0,0,1,375.47,200.86Zm-3.55-5.6h6.91a3.21,3.21,0,0,0-3.42-3.44A3.4,3.4,0,0,0,371.92,195.26Z"/><path class="b3459db1-aca1-4df0-b6ac-576d6c25a7c4" d="M29.64,220.74a4.26,4.26,0,0,1,4.52,3.35H32.8a3,3,0,0,0-3.16-2.27c-1.93,0-3.5,1.32-3.5,4s1.57,4,3.5,4a3,3,0,0,0,3.16-2.29h1.36a4.31,4.31,0,0,1-4.52,3.35c-2.78,0-4.78-1.94-4.78-5.06S26.86,220.74,29.64,220.74Z"/><path class="b3459db1-aca1-4df0-b6ac-576d6c25a7c4" d="M40.63,230.86a5.06,5.06,0,1,1,4.95-5.06A4.79,4.79,0,0,1,40.63,230.86Zm0-1.1a4,4,0,0,0,0-7.92c-1.87,0-3.62,1.26-3.62,4S38.76,229.76,40.63,229.76Z"/><path class="b3459db1-aca1-4df0-b6ac-576d6c25a7c4" d="M55.23,225.1c0-2.18-1.19-3.29-3-3.29s-3.12,1.15-3.12,3.54v5.37H47.86v-9.83h1.26v1.67a3.6,3.6,0,0,1,3.35-1.85c2.23,0,4,1.37,4,4.25v5.76H55.23Z"/><path class="b3459db1-aca1-4df0-b6ac-576d6c25a7c4" d="M69.34,220.74c2.68,0,4.68,2,4.68,5s-2,5.08-4.68,5.08a4.22,4.22,0,0,1-3.91-2.3v6.8H64.19V220.89h1.24v2.16A4.19,4.19,0,0,1,69.34,220.74Zm-.25,1.1a4,4,0,0,0,0,7.92c2.07,0,3.65-1.49,3.65-4S71.16,221.84,69.09,221.84Z"/><path class="b3459db1-aca1-4df0-b6ac-576d6c25a7c4" d="M80.46,220.74a4.11,4.11,0,0,1,3.89,2.31v-2.16h1.26v9.83H84.35v-2.18a4.15,4.15,0,0,1-3.91,2.32c-2.68,0-4.68-2-4.68-5.08S77.76,220.74,80.46,220.74Zm.24,1.1A3.59,3.59,0,0,0,77,225.78c0,2.49,1.58,4,3.66,4a4,4,0,0,0,0-7.92Z"/><path class="b3459db1-aca1-4df0-b6ac-576d6c25a7c4" d="M89.7,230.72H88.44v-9.83H89.7v1.74a3.39,3.39,0,0,1,3.37-1.92V222h-.35c-1.63,0-3,.74-3,3.21Z"/><path class="b3459db1-aca1-4df0-b6ac-576d6c25a7c4" d="M95.69,222H94.32v-1.06h1.37v-2.47H97v2.47h2.7V222H97v6.1c0,1.21.41,1.59,1.55,1.59h1.15v1.08H98.32c-1.71,0-2.63-.7-2.63-2.67Z"/><path class="b3459db1-aca1-4df0-b6ac-576d6c25a7c4" d="M101.22,218.1a.92.92,0,1,1,.92.93A.91.91,0,0,1,101.22,218.1Zm.29,2.79h1.26v9.83h-1.26Z"/><path class="b3459db1-aca1-4df0-b6ac-576d6c25a7c4" d="M109.75,220.74a4.25,4.25,0,0,1,4.52,3.35h-1.35a3,3,0,0,0-3.17-2.27c-1.92,0-3.49,1.32-3.49,4s1.57,4,3.49,4a3,3,0,0,0,3.17-2.29h1.35a4.3,4.3,0,0,1-4.52,3.35c-2.77,0-4.77-1.94-4.77-5.06S107,220.74,109.75,220.74Z"/><path class="b3459db1-aca1-4df0-b6ac-576d6c25a7c4" d="M116.19,218.1a.92.92,0,1,1,.92.93A.91.91,0,0,1,116.19,218.1Zm.29,2.79h1.26v9.83h-1.26Z"/><path class="b3459db1-aca1-4df0-b6ac-576d6c25a7c4" d="M125.7,220.74c2.68,0,4.68,2,4.68,5s-2,5.08-4.68,5.08a4.2,4.2,0,0,1-3.91-2.3v6.8h-1.24V220.89h1.24v2.16A4.18,4.18,0,0,1,125.7,220.74Zm-.26,1.1a4,4,0,0,0,0,7.92c2.07,0,3.66-1.49,3.66-4A3.59,3.59,0,0,0,125.44,221.84Z"/><path class="b3459db1-aca1-4df0-b6ac-576d6c25a7c4" d="M136.82,220.74a4.11,4.11,0,0,1,3.89,2.31v-2.16H142v9.83h-1.26v-2.18a4.16,4.16,0,0,1-3.91,2.32c-2.68,0-4.68-2-4.68-5.08S134.12,220.74,136.82,220.74Zm.23,1.1c-2.07,0-3.65,1.44-3.65,3.94s1.58,4,3.65,4a4,4,0,0,0,0-7.92Z"/><path class="b3459db1-aca1-4df0-b6ac-576d6c25a7c4" d="M146.06,230.72H144.8v-9.83h1.26v1.74a3.39,3.39,0,0,1,3.37-1.92V222h-.35c-1.64,0-3,.74-3,3.21Z"/><path class="b3459db1-aca1-4df0-b6ac-576d6c25a7c4" d="M160.49,230.86c-2.79,0-4.82-1.94-4.82-5.06s2-5.06,4.82-5.06a4.42,4.42,0,0,1,4.65,4.56,7.79,7.79,0,0,1,0,1H157a3.44,3.44,0,0,0,3.54,3.51,3,3,0,0,0,3.17-2.2H165A4.32,4.32,0,0,1,160.49,230.86Zm-3.54-5.6h6.91a3.21,3.21,0,0,0-3.42-3.44A3.4,3.4,0,0,0,157,225.26Z"/><path class="b3459db1-aca1-4df0-b6ac-576d6c25a7c4" d="M174.81,225.1c0-2.18-1.19-3.29-3-3.29s-3.11,1.15-3.11,3.54v5.37h-1.26v-9.83h1.26v1.67a3.6,3.6,0,0,1,3.35-1.85c2.23,0,4,1.37,4,4.25v5.76h-1.24Z"/><path class="b3459db1-aca1-4df0-b6ac-576d6c25a7c4" d="M188,230.86c-2.79,0-4.82-1.94-4.82-5.06s2-5.06,4.82-5.06a4.43,4.43,0,0,1,4.65,4.56,7.79,7.79,0,0,1,0,1h-8.15A3.43,3.43,0,0,0,188,229.8a3,3,0,0,0,3.17-2.2h1.33A4.31,4.31,0,0,1,188,230.86Zm-3.54-5.6h6.91a3.22,3.22,0,0,0-3.42-3.44A3.4,3.4,0,0,0,184.48,225.26Z"/><path class="b3459db1-aca1-4df0-b6ac-576d6c25a7c4" d="M195,217.39h1.26v13.33H195Z"/><path class="b3459db1-aca1-4df0-b6ac-576d6c25a7c4" d="M209.17,220.74c2.69,0,4.68,2,4.68,5s-2,5.08-4.68,5.08a4.19,4.19,0,0,1-3.9-2.3v6.8H204V220.89h1.25v2.16A4.16,4.16,0,0,1,209.17,220.74Zm-.25,1.1a4,4,0,0,0,0,7.92c2.07,0,3.66-1.49,3.66-4A3.59,3.59,0,0,0,208.92,221.84Z"/><path class="b3459db1-aca1-4df0-b6ac-576d6c25a7c4" d="M217.4,230.72h-1.26v-9.83h1.26v1.74a3.4,3.4,0,0,1,3.37-1.92V222h-.34c-1.64,0-3,.74-3,3.21Z"/><path class="b3459db1-aca1-4df0-b6ac-576d6c25a7c4" d="M226.5,230.86a5.06,5.06,0,1,1,4.95-5.06A4.79,4.79,0,0,1,226.5,230.86Zm0-1.1a3.61,3.61,0,0,0,3.65-4c0-2.7-1.76-4-3.63-4s-3.62,1.26-3.62,4S224.63,229.76,226.5,229.76Z"/><path class="b3459db1-aca1-4df0-b6ac-576d6c25a7c4" d="M237.88,220.74a4.12,4.12,0,0,1,3.89,2.29v-2.14H243V231a4.35,4.35,0,0,1-4.59,4.57c-2.54,0-4.3-1.29-4.7-3.35H235a3.35,3.35,0,0,0,3.45,2.26,3.21,3.21,0,0,0,3.33-3.48v-2.43a4.13,4.13,0,0,1-3.89,2.32c-2.7,0-4.69-2-4.69-5.08S235.18,220.74,237.88,220.74Zm.24,1.1a3.59,3.59,0,0,0-3.66,3.94c0,2.49,1.59,4,3.66,4a4,4,0,0,0,0-7.92Z"/><path class="b3459db1-aca1-4df0-b6ac-576d6c25a7c4" d="M247.12,230.72h-1.26v-9.83h1.26v1.74a3.4,3.4,0,0,1,3.37-1.92V222h-.34c-1.64,0-3,.74-3,3.21Z"/><path class="b3459db1-aca1-4df0-b6ac-576d6c25a7c4" d="M256.07,220.74a4.09,4.09,0,0,1,3.89,2.31v-2.16h1.26v9.83H260v-2.18a4.14,4.14,0,0,1-3.9,2.32c-2.69,0-4.68-2-4.68-5.08S253.37,220.74,256.07,220.74Zm.24,1.1a3.59,3.59,0,0,0-3.66,3.94c0,2.49,1.59,4,3.66,4a4,4,0,0,0,0-7.92Z"/><path class="b3459db1-aca1-4df0-b6ac-576d6c25a7c4" d="M278.42,225.1c0-2.18-1.13-3.29-2.88-3.29s-3,1.18-3,3.58v5.33h-1.24V225.1c0-2.18-1.16-3.29-2.9-3.29s-3.05,1.18-3.05,3.58v5.33h-1.26v-9.83h1.26v1.69a3.52,3.52,0,0,1,3.26-1.87,3.63,3.63,0,0,1,3.64,2.41,3.58,3.58,0,0,1,3.55-2.41c2.18,0,3.9,1.37,3.9,4.25v5.76h-1.24Z"/><path class="b3459db1-aca1-4df0-b6ac-576d6c25a7c4" d="M286.55,220.74a4.11,4.11,0,0,1,3.89,2.31v-2.16h1.26v9.83h-1.26v-2.18a4.16,4.16,0,0,1-3.91,2.32c-2.68,0-4.68-2-4.68-5.08S283.85,220.74,286.55,220.74Zm.23,1.1c-2.07,0-3.65,1.44-3.65,3.94s1.58,4,3.65,4a4,4,0,0,0,0-7.92Z"/><path class="b3459db1-aca1-4df0-b6ac-576d6c25a7c4" d="M303.81,230.86a5.06,5.06,0,1,1,4.95-5.06A4.79,4.79,0,0,1,303.81,230.86Zm0-1.1a4,4,0,0,0,0-7.92c-1.87,0-3.62,1.26-3.62,4S301.94,229.76,303.81,229.76Z"/><path class="b3459db1-aca1-4df0-b6ac-576d6c25a7c4" d="M25.15,248.1a.92.92,0,1,1,.92.93A.91.91,0,0,1,25.15,248.1Zm.29,2.79H26.7v9.83H25.44Z"/><path class="b3459db1-aca1-4df0-b6ac-576d6c25a7c4" d="M36.87,255.1c0-2.18-1.19-3.29-3-3.29s-3.11,1.15-3.11,3.54v5.37H29.51v-9.83h1.26v1.67a3.6,3.6,0,0,1,3.35-1.85c2.23,0,4,1.37,4,4.25v5.76H36.87Z"/><path class="b3459db1-aca1-4df0-b6ac-576d6c25a7c4" d="M41,252H39.62v-1.06H41v-2.47h1.28v2.47H45V252h-2.7v6.1c0,1.21.41,1.59,1.55,1.59H45v1.08H43.62c-1.71,0-2.63-.7-2.63-2.67Z"/><path class="b3459db1-aca1-4df0-b6ac-576d6c25a7c4" d="M50.76,260.86c-2.79,0-4.82-1.94-4.82-5.06s2-5.06,4.82-5.06a4.43,4.43,0,0,1,4.65,4.56,7.79,7.79,0,0,1,0,1H47.22a3.43,3.43,0,0,0,3.54,3.51,3,3,0,0,0,3.17-2.2h1.33A4.31,4.31,0,0,1,50.76,260.86Zm-3.54-5.6h6.91a3.22,3.22,0,0,0-3.42-3.44A3.4,3.4,0,0,0,47.22,255.26Z"/><path class="b3459db1-aca1-4df0-b6ac-576d6c25a7c4" d="M59,260.72H57.72v-9.83H59v1.74a3.38,3.38,0,0,1,3.36-1.92V252H62c-1.64,0-3,.74-3,3.21Z"/><path class="b3459db1-aca1-4df0-b6ac-576d6c25a7c4" d="M64.87,250.89l3.31,8.6,3.31-8.6h1.34l-4,9.83H67.46l-3.94-9.83Z"/><path class="b3459db1-aca1-4df0-b6ac-576d6c25a7c4" d="M78.37,260.86a4.69,4.69,0,0,1-4.83-5.06c0-3.13,2-5.06,4.83-5.06A4.42,4.42,0,0,1,83,255.3c0,.39,0,.65,0,1H74.82a3.44,3.44,0,0,0,3.55,3.51,3,3,0,0,0,3.16-2.2h1.34A4.32,4.32,0,0,1,78.37,260.86Zm-3.55-5.6h6.91a3.21,3.21,0,0,0-3.42-3.44A3.4,3.4,0,0,0,74.82,255.26Z"/><path class="b3459db1-aca1-4df0-b6ac-576d6c25a7c4" d="M92.68,255.1c0-2.18-1.18-3.29-3-3.29s-3.12,1.15-3.12,3.54v5.37H85.32v-9.83h1.26v1.67a3.6,3.6,0,0,1,3.35-1.85c2.23,0,4,1.37,4,4.25v5.76H92.68Z"/><path class="b3459db1-aca1-4df0-b6ac-576d6c25a7c4" d="M100.86,250.74a4.25,4.25,0,0,1,4.52,3.35H104a3,3,0,0,0-3.17-2.27c-1.93,0-3.49,1.32-3.49,4s1.56,4,3.49,4a3,3,0,0,0,3.17-2.29h1.35a4.3,4.3,0,0,1-4.52,3.35c-2.77,0-4.77-1.94-4.77-5.06S98.09,250.74,100.86,250.74Z"/><path class="b3459db1-aca1-4df0-b6ac-576d6c25a7c4" d="M107.3,248.1a.92.92,0,1,1,1.83,0,.92.92,0,1,1-1.83,0Zm.28,2.79h1.26v9.83h-1.26Z"/><path class="b3459db1-aca1-4df0-b6ac-576d6c25a7c4" d="M115.94,260.86a5.06,5.06,0,1,1,5-5.06A4.79,4.79,0,0,1,115.94,260.86Zm0-1.1a3.61,3.61,0,0,0,3.65-4c0-2.7-1.76-4-3.64-4s-3.61,1.26-3.61,4S114.06,259.76,115.94,259.76Zm1.73-13v1.14L114,250v-1Z"/><path class="b3459db1-aca1-4df0-b6ac-576d6c25a7c4" d="M130.53,255.1c0-2.18-1.19-3.29-3-3.29s-3.11,1.15-3.11,3.54v5.37h-1.26v-9.83h1.26v1.67a3.6,3.6,0,0,1,3.35-1.85c2.23,0,4,1.37,4,4.25v5.76h-1.24Z"/><path class="b3459db1-aca1-4df0-b6ac-576d6c25a7c4" d="M143.38,264.07a14.14,14.14,0,0,1-3.63-10,14,14,0,0,1,3.83-10.17h1.32V244a14.83,14.83,0,0,0-.18,19.91v.13Z"/><path class="b3459db1-aca1-4df0-b6ac-576d6c25a7c4" d="M149.74,250.74a4.24,4.24,0,0,1,4.51,3.35H152.9a3,3,0,0,0-3.16-2.27c-1.93,0-3.5,1.32-3.5,4s1.57,4,3.5,4a3,3,0,0,0,3.16-2.29h1.35a4.3,4.3,0,0,1-4.51,3.35c-2.78,0-4.78-1.94-4.78-5.06S147,250.74,149.74,250.74Z"/><path class="b3459db1-aca1-4df0-b6ac-576d6c25a7c4" d="M160.73,260.86a5.06,5.06,0,1,1,5-5.06A4.79,4.79,0,0,1,160.73,260.86Zm0-1.1a4,4,0,0,0,0-7.92c-1.87,0-3.62,1.26-3.62,4S158.86,259.76,160.73,259.76Z"/><path class="b3459db1-aca1-4df0-b6ac-576d6c25a7c4" d="M175.33,255.1c0-2.18-1.19-3.29-3-3.29s-3.12,1.15-3.12,3.54v5.37H168v-9.83h1.26v1.67a3.6,3.6,0,0,1,3.35-1.85c2.23,0,4,1.37,4,4.25v5.76h-1.24Z"/><path class="b3459db1-aca1-4df0-b6ac-576d6c25a7c4" d="M183.45,250.74a4.29,4.29,0,0,1,3.87,2.27v-5.62h1.26v13.33h-1.26v-2.2a4.1,4.1,0,0,1-3.89,2.34c-2.7,0-4.7-2-4.7-5.08S180.73,250.74,183.45,250.74Zm.21,1.1c-2.07,0-3.65,1.44-3.65,3.94s1.58,4,3.65,4a4,4,0,0,0,0-7.92Z"/><path class="b3459db1-aca1-4df0-b6ac-576d6c25a7c4" d="M191.13,248.1a.92.92,0,1,1,.92.93A.91.91,0,0,1,191.13,248.1Zm.29,2.79h1.26v9.83h-1.26Z"/><path class="b3459db1-aca1-4df0-b6ac-576d6c25a7c4" d="M199.67,250.74a4.25,4.25,0,0,1,4.52,3.35h-1.35a3,3,0,0,0-3.17-2.27c-1.93,0-3.5,1.32-3.5,4s1.57,4,3.5,4a3,3,0,0,0,3.17-2.29h1.35a4.31,4.31,0,0,1-4.52,3.35c-2.78,0-4.77-1.94-4.77-5.06S196.89,250.74,199.67,250.74Z"/><path class="b3459db1-aca1-4df0-b6ac-576d6c25a7c4" d="M206.1,248.1a.92.92,0,1,1,.92.93A.91.91,0,0,1,206.1,248.1Zm.29,2.79h1.26v9.83h-1.26Z"/><path class="b3459db1-aca1-4df0-b6ac-576d6c25a7c4" d="M214.74,260.86a5.06,5.06,0,1,1,5-5.06A4.79,4.79,0,0,1,214.74,260.86Zm0-1.1a3.61,3.61,0,0,0,3.66-4c0-2.7-1.76-4-3.64-4s-3.62,1.26-3.62,4S212.87,259.76,214.74,259.76Zm1.73-13v1.14L212.78,250v-1Z"/><path class="b3459db1-aca1-4df0-b6ac-576d6c25a7c4" d="M229.34,255.1c0-2.18-1.19-3.29-3-3.29s-3.11,1.15-3.11,3.54v5.37H222v-9.83h1.26v1.67a3.6,3.6,0,0,1,3.35-1.85c2.23,0,4,1.37,4,4.25v5.76h-1.24Z"/><path class="b3459db1-aca1-4df0-b6ac-576d6c25a7c4" d="M242.44,250.74a4.28,4.28,0,0,1,3.87,2.27v-5.62h1.26v13.33h-1.26v-2.2a4.08,4.08,0,0,1-3.89,2.34c-2.7,0-4.69-2-4.69-5.08S239.72,250.74,242.44,250.74Zm.22,1.1a3.59,3.59,0,0,0-3.66,3.94c0,2.49,1.59,4,3.66,4a4,4,0,0,0,0-7.92Z"/><path class="b3459db1-aca1-4df0-b6ac-576d6c25a7c4" d="M254.68,260.86a4.69,4.69,0,0,1-4.83-5.06c0-3.13,2-5.06,4.83-5.06a4.42,4.42,0,0,1,4.64,4.56c0,.39,0,.65,0,1h-8.16a3.44,3.44,0,0,0,3.55,3.51,3,3,0,0,0,3.17-2.2h1.33A4.31,4.31,0,0,1,254.68,260.86Zm-3.55-5.6h6.92a3.22,3.22,0,0,0-3.42-3.44A3.4,3.4,0,0,0,251.13,255.26Z"/><path class="b3459db1-aca1-4df0-b6ac-576d6c25a7c4" d="M267.82,260.72h-1.26v-9.83h1.26v1.74a3.38,3.38,0,0,1,3.36-1.92V252h-.34c-1.64,0-3,.74-3,3.21Z"/><path class="b3459db1-aca1-4df0-b6ac-576d6c25a7c4" d="M276.9,260.86a4.69,4.69,0,0,1-4.83-5.06c0-3.13,2-5.06,4.83-5.06a4.42,4.42,0,0,1,4.64,4.56c0,.39,0,.65,0,1h-8.16a3.44,3.44,0,0,0,3.55,3.51,3.05,3.05,0,0,0,3.17-2.2h1.33A4.32,4.32,0,0,1,276.9,260.86Zm-3.55-5.6h6.91a3.21,3.21,0,0,0-3.42-3.44A3.4,3.4,0,0,0,273.35,255.26Z"/><path class="b3459db1-aca1-4df0-b6ac-576d6c25a7c4" d="M283.84,247.39h1.26v13.33h-1.26Z"/><path class="b3459db1-aca1-4df0-b6ac-576d6c25a7c4" d="M292.19,260.86c-2.79,0-4.82-1.94-4.82-5.06s2-5.06,4.82-5.06a4.43,4.43,0,0,1,4.65,4.56,7.79,7.79,0,0,1,0,1h-8.15a3.43,3.43,0,0,0,3.54,3.51,3,3,0,0,0,3.17-2.2h1.34A4.33,4.33,0,0,1,292.19,260.86Zm-3.54-5.6h6.91a3.21,3.21,0,0,0-3.42-3.44A3.4,3.4,0,0,0,288.65,255.26Z"/><path class="b3459db1-aca1-4df0-b6ac-576d6c25a7c4" d="M299,250.89l3.31,8.6,3.31-8.6h1.34l-4,9.83h-1.42l-3.94-9.83Z"/><path class="b3459db1-aca1-4df0-b6ac-576d6c25a7c4" d="M312.32,250.74a4.09,4.09,0,0,1,3.88,2.31v-2.16h1.27v9.83H316.2v-2.18a4.14,4.14,0,0,1-3.9,2.32c-2.69,0-4.68-2-4.68-5.08S309.61,250.74,312.32,250.74Zm.23,1.1a3.59,3.59,0,0,0-3.66,3.94c0,2.49,1.59,4,3.66,4a4,4,0,0,0,0-7.92Z"/><path class="b3459db1-aca1-4df0-b6ac-576d6c25a7c4" d="M327.66,255.1c0-2.18-1.19-3.29-3-3.29s-3.12,1.15-3.12,3.54v5.37h-1.26v-9.83h1.26v1.67a3.6,3.6,0,0,1,3.35-1.85c2.24,0,4,1.37,4,4.25v5.76h-1.24Z"/><path class="b3459db1-aca1-4df0-b6ac-576d6c25a7c4" d="M335.83,250.74a4.25,4.25,0,0,1,4.52,3.35H339a3,3,0,0,0-3.17-2.27c-1.92,0-3.49,1.32-3.49,4s1.57,4,3.49,4a3,3,0,0,0,3.17-2.29h1.35a4.3,4.3,0,0,1-4.52,3.35c-2.77,0-4.77-1.94-4.77-5.06S333.06,250.74,335.83,250.74Z"/><path class="b3459db1-aca1-4df0-b6ac-576d6c25a7c4" d="M342.27,248.1a.92.92,0,1,1,.92.93A.91.91,0,0,1,342.27,248.1Zm.29,2.79h1.26v9.83h-1.26Z"/><path class="b3459db1-aca1-4df0-b6ac-576d6c25a7c4" d="M350.73,250.74a4.11,4.11,0,0,1,3.89,2.31v-2.16h1.26v9.83h-1.26v-2.18a4.15,4.15,0,0,1-3.91,2.32c-2.68,0-4.68-2-4.68-5.08S348,250.74,350.73,250.74Zm.24,1.1a3.59,3.59,0,0,0-3.66,3.94c0,2.49,1.59,4,3.66,4a4,4,0,0,0,0-7.92Z"/><path class="b3459db1-aca1-4df0-b6ac-576d6c25a7c4" d="M356.77,264.07v-.13a14.85,14.85,0,0,0-.18-19.91v-.13h1.31a14,14,0,0,1,3.84,10.17,14.15,14.15,0,0,1-3.64,10Z"/><path class="b3459db1-aca1-4df0-b6ac-576d6c25a7c4" d="M376.61,250.89h1.29l-5.83,14.46h-1.32l1.91-4.69-4-9.77H370l3.34,8.39Z"/><path class="b3459db1-aca1-4df0-b6ac-576d6c25a7c4" d="M29.56,280.74a4.11,4.11,0,0,1,3.89,2.31v-2.16h1.26v9.83H33.45v-2.18a4.14,4.14,0,0,1-3.9,2.32c-2.69,0-4.69-2-4.69-5.08S26.86,280.74,29.56,280.74Zm.24,1.1a3.59,3.59,0,0,0-3.66,3.94c0,2.49,1.59,4,3.66,4a4,4,0,0,0,0-7.92Z"/><path class="b3459db1-aca1-4df0-b6ac-576d6c25a7c4" d="M42.52,277.39h1.26v13.33H42.52Z"/><path class="b3459db1-aca1-4df0-b6ac-576d6c25a7c4" d="M50.75,280.74a4.11,4.11,0,0,1,3.89,2.31v-2.16H55.9v9.83H54.64v-2.18a4.16,4.16,0,0,1-3.91,2.32c-2.68,0-4.68-2-4.68-5.08S48.05,280.74,50.75,280.74Zm.23,1.1c-2.07,0-3.65,1.44-3.65,3.94s1.58,4,3.65,4a4,4,0,0,0,0-7.92Z"/><path class="b3459db1-aca1-4df0-b6ac-576d6c25a7c4" d="M63.89,280.89l3.31,8.6,3.31-8.6h1.33l-3.94,9.83H66.48l-4-9.83Z"/><path class="b3459db1-aca1-4df0-b6ac-576d6c25a7c4" d="M77.38,290.86c-2.79,0-4.82-1.94-4.82-5.06s2-5.06,4.82-5.06A4.43,4.43,0,0,1,82,285.3a7.79,7.79,0,0,1,0,1H73.84a3.43,3.43,0,0,0,3.54,3.51,3,3,0,0,0,3.17-2.2h1.33A4.31,4.31,0,0,1,77.38,290.86Zm-3.54-5.6h6.91a3.22,3.22,0,0,0-3.42-3.44A3.4,3.4,0,0,0,73.84,285.26Z"/><path class="b3459db1-aca1-4df0-b6ac-576d6c25a7c4" d="M89.63,281.93l-5.06,7.74h5.15v1.05H83.13v-1.05l5.06-7.74h-5v-1h6.41Z"/><path class="b3459db1-aca1-4df0-b6ac-576d6c25a7c4" d="M100.91,280.74a4.27,4.27,0,0,1,3.87,2.27v-5.62h1.27v13.33h-1.27v-2.2a4.08,4.08,0,0,1-3.88,2.34c-2.7,0-4.7-2-4.7-5.08S98.2,280.74,100.91,280.74Zm.22,1.1a3.59,3.59,0,0,0-3.66,3.94c0,2.49,1.59,4,3.66,4a4,4,0,0,0,0-7.92Z"/><path class="b3459db1-aca1-4df0-b6ac-576d6c25a7c4" d="M113.15,290.86a4.69,4.69,0,0,1-4.83-5.06c0-3.13,2-5.06,4.83-5.06a4.43,4.43,0,0,1,4.65,4.56,7.79,7.79,0,0,1,0,1H109.6a3.44,3.44,0,0,0,3.55,3.51,3,3,0,0,0,3.17-2.2h1.33A4.31,4.31,0,0,1,113.15,290.86Zm-3.55-5.6h6.92a3.22,3.22,0,0,0-3.42-3.44A3.4,3.4,0,0,0,109.6,285.26Z"/><path class="b3459db1-aca1-4df0-b6ac-576d6c25a7c4" d="M125.25,280.74c2.7,0,4.68,2,4.68,5s-2,5.08-4.68,5.08a4.11,4.11,0,0,1-3.9-2.3v2.16H120.1V277.39h1.25v5.68A4.16,4.16,0,0,1,125.25,280.74Zm-.25,1.1a4,4,0,0,0,0,7.92c2.07,0,3.66-1.49,3.66-4A3.59,3.59,0,0,0,125,281.84Z"/><path class="b3459db1-aca1-4df0-b6ac-576d6c25a7c4" d="M136.5,290.86c-2.79,0-4.82-1.94-4.82-5.06s2-5.06,4.82-5.06a4.43,4.43,0,0,1,4.65,4.56,7.79,7.79,0,0,1,0,1H133a3.43,3.43,0,0,0,3.54,3.51,3,3,0,0,0,3.17-2.2H141A4.31,4.31,0,0,1,136.5,290.86Zm-3.54-5.6h6.91a3.22,3.22,0,0,0-3.42-3.44A3.4,3.4,0,0,0,133,285.26Z"/><path class="b3459db1-aca1-4df0-b6ac-576d6c25a7c4" d="M151.77,290.86c-2.24,0-3.8-1.11-4-2.91h1.3c.11,1.08,1.05,1.85,2.65,1.85,1.4,0,2.19-.76,2.19-1.69,0-2.43-5.9-1-5.9-4.7,0-1.46,1.39-2.67,3.46-2.67s3.49,1.12,3.6,3h-1.26a2.11,2.11,0,0,0-2.38-1.93c-1.31,0-2.14.71-2.14,1.57,0,2.66,5.81,1.24,5.87,4.72C155.19,289.69,153.8,290.86,151.77,290.86Z"/><path class="b3459db1-aca1-4df0-b6ac-576d6c25a7c4" d="M161.73,290.86a4.69,4.69,0,0,1-4.83-5.06c0-3.13,2-5.06,4.83-5.06a4.42,4.42,0,0,1,4.64,4.56c0,.39,0,.65,0,1h-8.16a3.44,3.44,0,0,0,3.55,3.51,3,3,0,0,0,3.17-2.2h1.33A4.31,4.31,0,0,1,161.73,290.86Zm-3.55-5.6h6.92a3.22,3.22,0,0,0-3.42-3.44A3.4,3.4,0,0,0,158.18,285.26Z"/><path class="b3459db1-aca1-4df0-b6ac-576d6c25a7c4" d="M169.94,290.72h-1.26v-9.83h1.26v1.74a3.4,3.4,0,0,1,3.37-1.92V282H173c-1.64,0-3,.74-3,3.21Z"/><path class="b3459db1-aca1-4df0-b6ac-576d6c25a7c4" d="M179.84,278.1a.92.92,0,1,1,.92.93A.91.91,0,0,1,179.84,278.1Zm.29,2.79h1.26v9.83h-1.26Z"/><path class="b3459db1-aca1-4df0-b6ac-576d6c25a7c4" d="M191.56,285.1c0-2.18-1.19-3.29-3-3.29s-3.11,1.15-3.11,3.54v5.37H184.2v-9.83h1.26v1.67a3.6,3.6,0,0,1,3.35-1.85c2.23,0,4,1.37,4,4.25v5.76h-1.24Z"/><path class="b3459db1-aca1-4df0-b6ac-576d6c25a7c4" d="M199.68,280.74a4.29,4.29,0,0,1,3.87,2.27v-5.62h1.26v13.33h-1.26v-2.2a4.09,4.09,0,0,1-3.89,2.34c-2.7,0-4.7-2-4.7-5.08S197,280.74,199.68,280.74Zm.22,1.1a3.59,3.59,0,0,0-3.66,3.94c0,2.49,1.58,4,3.66,4a4,4,0,0,0,0-7.92Z"/><path class="b3459db1-aca1-4df0-b6ac-576d6c25a7c4" d="M211.92,290.86a4.68,4.68,0,0,1-4.83-5.06c0-3.13,2-5.06,4.83-5.06a4.42,4.42,0,0,1,4.64,4.56c0,.39,0,.65,0,1h-8.16a3.44,3.44,0,0,0,3.55,3.51,3,3,0,0,0,3.16-2.2h1.34A4.32,4.32,0,0,1,211.92,290.86Zm-3.55-5.6h6.91a3.21,3.21,0,0,0-3.42-3.44A3.4,3.4,0,0,0,208.37,285.26Z"/><path class="b3459db1-aca1-4df0-b6ac-576d6c25a7c4" d="M224,280.74c2.68,0,4.68,2,4.68,5s-2,5.08-4.68,5.08a4.22,4.22,0,0,1-3.91-2.3v6.8h-1.24V280.89h1.24v2.16A4.19,4.19,0,0,1,224,280.74Zm-.25,1.1a4,4,0,0,0,0,7.92c2.07,0,3.65-1.49,3.65-4S225.84,281.84,223.77,281.84Z"/><path class="b3459db1-aca1-4df0-b6ac-576d6c25a7c4" d="M235.27,290.86a4.69,4.69,0,0,1-4.83-5.06c0-3.13,2-5.06,4.83-5.06a4.42,4.42,0,0,1,4.64,4.56c0,.39,0,.65,0,1h-8.16a3.44,3.44,0,0,0,3.55,3.51,3,3,0,0,0,3.17-2.2h1.33A4.31,4.31,0,0,1,235.27,290.86Zm-3.55-5.6h6.92a3.23,3.23,0,0,0-3.43-3.44A3.4,3.4,0,0,0,231.72,285.26Z"/><path class="b3459db1-aca1-4df0-b6ac-576d6c25a7c4" d="M249.59,285.1c0-2.18-1.19-3.29-3-3.29s-3.12,1.15-3.12,3.54v5.37h-1.26v-9.83h1.26v1.67a3.6,3.6,0,0,1,3.35-1.85c2.23,0,4,1.37,4,4.25v5.76h-1.24Z"/><path class="b3459db1-aca1-4df0-b6ac-576d6c25a7c4" d="M257.71,280.74a4.29,4.29,0,0,1,3.87,2.27v-5.62h1.26v13.33h-1.26v-2.2a4.1,4.1,0,0,1-3.89,2.34c-2.7,0-4.7-2-4.7-5.08S255,280.74,257.71,280.74Zm.21,1.1c-2.07,0-3.65,1.44-3.65,3.94s1.58,4,3.65,4a4,4,0,0,0,0-7.92Z"/><path class="b3459db1-aca1-4df0-b6ac-576d6c25a7c4" d="M265.39,278.1a.92.92,0,1,1,.92.93A.91.91,0,0,1,265.39,278.1Zm.29,2.79h1.26v9.83h-1.26Z"/><path class="b3459db1-aca1-4df0-b6ac-576d6c25a7c4" d="M274,290.86c-2.79,0-4.82-1.94-4.82-5.06s2-5.06,4.82-5.06a4.43,4.43,0,0,1,4.65,4.56,7.79,7.79,0,0,1,0,1h-8.16A3.44,3.44,0,0,0,274,289.8a3,3,0,0,0,3.17-2.2h1.33A4.31,4.31,0,0,1,274,290.86Zm-3.55-5.6h6.92a3.22,3.22,0,0,0-3.42-3.44A3.4,3.4,0,0,0,270.43,285.26Z"/><path class="b3459db1-aca1-4df0-b6ac-576d6c25a7c4" d="M288.3,285.1c0-2.18-1.19-3.29-3-3.29s-3.12,1.15-3.12,3.54v5.37h-1.26v-9.83h1.26v1.67a3.61,3.61,0,0,1,3.35-1.85c2.24,0,4,1.37,4,4.25v5.76H288.3Z"/><path class="b3459db1-aca1-4df0-b6ac-576d6c25a7c4" d="M292.42,282h-1.37v-1.06h1.37v-2.47h1.28v2.47h2.7V282h-2.7v6.1c0,1.21.41,1.59,1.55,1.59h1.15v1.08h-1.35c-1.71,0-2.63-.7-2.63-2.67Z"/><path class="b3459db1-aca1-4df0-b6ac-576d6c25a7c4" d="M302.19,290.86a4.69,4.69,0,0,1-4.83-5.06c0-3.13,2-5.06,4.83-5.06a4.43,4.43,0,0,1,4.65,4.56,7.79,7.79,0,0,1,0,1h-8.16a3.44,3.44,0,0,0,3.55,3.51,3,3,0,0,0,3.17-2.2h1.33A4.31,4.31,0,0,1,302.19,290.86Zm-3.55-5.6h6.92a3.22,3.22,0,0,0-3.42-3.44A3.4,3.4,0,0,0,298.64,285.26Z"/><path class="b3459db1-aca1-4df0-b6ac-576d6c25a7c4" d="M318.19,280.74a4.11,4.11,0,0,1,3.89,2.31v-2.16h1.26v9.83h-1.26v-2.18a4.15,4.15,0,0,1-3.91,2.32c-2.68,0-4.68-2-4.68-5.08S315.49,280.74,318.19,280.74Zm.24,1.1a3.59,3.59,0,0,0-3.66,3.94c0,2.49,1.58,4,3.66,4a4,4,0,0,0,0-7.92Z"/><path class="b3459db1-aca1-4df0-b6ac-576d6c25a7c4" d="M331.15,277.39h1.26v13.33h-1.26Z"/><path class="b3459db1-aca1-4df0-b6ac-576d6c25a7c4" d="M339.55,290.86a5.06,5.06,0,1,1,5-5.06A4.79,4.79,0,0,1,339.55,290.86Zm0-1.1a3.61,3.61,0,0,0,3.66-4c0-2.7-1.76-4-3.64-4s-3.62,1.26-3.62,4S337.68,289.76,339.55,289.76Z"/><path class="b3459db1-aca1-4df0-b6ac-576d6c25a7c4" d="M350.06,290.86c-2.23,0-3.8-1.11-4-2.91h1.3c.1,1.08,1,1.85,2.64,1.85,1.41,0,2.2-.76,2.2-1.69,0-2.43-5.91-1-5.91-4.7,0-1.46,1.39-2.67,3.46-2.67s3.49,1.12,3.6,3h-1.26a2.1,2.1,0,0,0-2.37-1.93c-1.32,0-2.15.71-2.15,1.57,0,2.66,5.82,1.24,5.87,4.72C353.48,289.69,352.1,290.86,350.06,290.86Z"/><path class="b3459db1-aca1-4df0-b6ac-576d6c25a7c4" d="M368.15,285.1c0-2.18-1.19-3.29-3-3.29s-3.11,1.15-3.11,3.54v5.37h-1.26v-9.83h1.26v1.67a3.6,3.6,0,0,1,3.35-1.85c2.23,0,4,1.37,4,4.25v5.76h-1.24Z"/><path class="b3459db1-aca1-4df0-b6ac-576d6c25a7c4" d="M376.43,290.86a5.06,5.06,0,1,1,5-5.06A4.79,4.79,0,0,1,376.43,290.86Zm0-1.1a4,4,0,0,0,0-7.92c-1.87,0-3.62,1.26-3.62,4S374.56,289.76,376.43,289.76Z"/><path class="b3459db1-aca1-4df0-b6ac-576d6c25a7c4" d="M29.74,320.86a5.06,5.06,0,0,1,0-10.12,5.06,5.06,0,0,1,0,10.12Zm0-1.1a4,4,0,0,0,0-7.92c-1.87,0-3.62,1.26-3.62,4S27.87,319.76,29.74,319.76Z"/><path class="b3459db1-aca1-4df0-b6ac-576d6c25a7c4" d="M42.12,310.74c2.7,0,4.69,2,4.69,5s-2,5.08-4.69,5.08a4.11,4.11,0,0,1-3.9-2.3v2.16H37V307.39h1.25v5.68A4.16,4.16,0,0,1,42.12,310.74Zm-.25,1.1a4,4,0,0,0,0,7.92c2.07,0,3.66-1.49,3.66-4A3.59,3.59,0,0,0,41.87,311.84Z"/><path class="b3459db1-aca1-4df0-b6ac-576d6c25a7c4" d="M52.37,320.86c-2.23,0-3.8-1.11-4-2.91H49.7c.11,1.08,1,1.85,2.65,1.85,1.41,0,2.2-.76,2.2-1.69,0-2.43-5.91-1-5.91-4.7,0-1.46,1.39-2.67,3.46-2.67s3.49,1.12,3.6,3H54.44a2.1,2.1,0,0,0-2.38-1.93c-1.31,0-2.14.71-2.14,1.57,0,2.66,5.82,1.24,5.87,4.72C55.79,319.69,54.4,320.86,52.37,320.86Z"/><path class="b3459db1-aca1-4df0-b6ac-576d6c25a7c4" d="M62.33,320.86c-2.79,0-4.82-1.94-4.82-5.06s2-5.06,4.82-5.06A4.43,4.43,0,0,1,67,315.3a7.79,7.79,0,0,1,0,1H58.78a3.45,3.45,0,0,0,3.55,3.51,3,3,0,0,0,3.17-2.2h1.33A4.31,4.31,0,0,1,62.33,320.86Zm-3.55-5.6H65.7a3.22,3.22,0,0,0-3.42-3.44A3.41,3.41,0,0,0,58.78,315.26Z"/><path class="b3459db1-aca1-4df0-b6ac-576d6c25a7c4" d="M70.55,320.72H69.29v-9.83h1.26v1.74a3.38,3.38,0,0,1,3.36-1.92V312h-.34c-1.64,0-3,.74-3,3.21Z"/><path class="b3459db1-aca1-4df0-b6ac-576d6c25a7c4" d="M76.44,310.89l3.31,8.6,3.31-8.6H84.4l-4,9.83H79l-3.94-9.83Z"/><path class="b3459db1-aca1-4df0-b6ac-576d6c25a7c4" d="M89.8,310.74a4.09,4.09,0,0,1,3.89,2.31v-2.16H95v9.83H93.69v-2.18a4.14,4.14,0,0,1-3.9,2.32c-2.69,0-4.68-2-4.68-5.08S87.1,310.74,89.8,310.74Zm.24,1.1a3.59,3.59,0,0,0-3.66,3.94c0,2.49,1.59,4,3.66,4a4,4,0,0,0,0-7.92Z"/><path class="b3459db1-aca1-4df0-b6ac-576d6c25a7c4" d="M102.93,310.74c2.7,0,4.68,2,4.68,5s-2,5.08-4.68,5.08a4.11,4.11,0,0,1-3.9-2.3v2.16H97.78V307.39H99v5.68A4.16,4.16,0,0,1,102.93,310.74Zm-.25,1.1a4,4,0,0,0,0,7.92c2.07,0,3.66-1.49,3.66-4A3.59,3.59,0,0,0,102.68,311.84Z"/><path class="b3459db1-aca1-4df0-b6ac-576d6c25a7c4" d="M109.92,307.39h1.26v13.33h-1.26Z"/><path class="b3459db1-aca1-4df0-b6ac-576d6c25a7c4" d="M118.27,320.86c-2.79,0-4.82-1.94-4.82-5.06s2-5.06,4.82-5.06a4.43,4.43,0,0,1,4.65,4.56,7.79,7.79,0,0,1,0,1h-8.15a3.43,3.43,0,0,0,3.54,3.51,3,3,0,0,0,3.17-2.2h1.33A4.31,4.31,0,0,1,118.27,320.86Zm-3.54-5.6h6.91a3.22,3.22,0,0,0-3.42-3.44A3.4,3.4,0,0,0,114.73,315.26Z"/><path class="b3459db1-aca1-4df0-b6ac-576d6c25a7c4" d="M128.52,320.86c-2.23,0-3.8-1.11-4-2.91h1.3c.11,1.08,1,1.85,2.64,1.85,1.41,0,2.2-.76,2.2-1.69,0-2.43-5.91-1-5.91-4.7,0-1.46,1.39-2.67,3.46-2.67s3.49,1.12,3.6,3h-1.26a2.1,2.1,0,0,0-2.37-1.93c-1.32,0-2.15.71-2.15,1.57,0,2.66,5.82,1.24,5.87,4.72C131.94,319.69,130.56,320.86,128.52,320.86Z"/><path class="b3459db1-aca1-4df0-b6ac-576d6c25a7c4" d="M143.14,324.07a14.1,14.1,0,0,1-3.64-10,14,14,0,0,1,3.84-10.17h1.31V304a14.83,14.83,0,0,0-.18,19.91v.13Z"/><path class="b3459db1-aca1-4df0-b6ac-576d6c25a7c4" d="M149.49,310.74a4.25,4.25,0,0,1,4.52,3.35h-1.35a3,3,0,0,0-3.17-2.27c-1.93,0-3.49,1.32-3.49,4s1.56,4,3.49,4a3,3,0,0,0,3.17-2.29H154a4.3,4.3,0,0,1-4.52,3.35c-2.77,0-4.77-1.94-4.77-5.06S146.72,310.74,149.49,310.74Z"/><path class="b3459db1-aca1-4df0-b6ac-576d6c25a7c4" d="M160.49,320.86a5.06,5.06,0,1,1,4.95-5.06A4.79,4.79,0,0,1,160.49,320.86Zm0-1.1a3.61,3.61,0,0,0,3.65-4c0-2.7-1.76-4-3.64-4s-3.62,1.26-3.62,4S158.61,319.76,160.49,319.76Z"/><path class="b3459db1-aca1-4df0-b6ac-576d6c25a7c4" d="M175.08,315.1c0-2.18-1.19-3.29-3-3.29S169,313,169,315.35v5.37h-1.26v-9.83H169v1.67a3.6,3.6,0,0,1,3.35-1.85c2.23,0,4,1.37,4,4.25v5.76h-1.24Z"/><path class="b3459db1-aca1-4df0-b6ac-576d6c25a7c4" d="M183.2,310.74a4.28,4.28,0,0,1,3.87,2.27v-5.62h1.26v13.33h-1.26v-2.2a4.08,4.08,0,0,1-3.89,2.34c-2.7,0-4.7-2-4.7-5.08S180.48,310.74,183.2,310.74Zm.22,1.1a3.59,3.59,0,0,0-3.66,3.94c0,2.49,1.59,4,3.66,4a4,4,0,0,0,0-7.92Z"/><path class="b3459db1-aca1-4df0-b6ac-576d6c25a7c4" d="M190.89,308.1a.92.92,0,1,1,.92.93A.9.9,0,0,1,190.89,308.1Zm.29,2.79h1.26v9.83h-1.26Z"/><path class="b3459db1-aca1-4df0-b6ac-576d6c25a7c4" d="M199.42,310.74a4.25,4.25,0,0,1,4.52,3.35h-1.35a3,3,0,0,0-3.17-2.27c-1.93,0-3.49,1.32-3.49,4s1.56,4,3.49,4a3,3,0,0,0,3.17-2.29h1.35a4.3,4.3,0,0,1-4.52,3.35c-2.77,0-4.77-1.94-4.77-5.06S196.65,310.74,199.42,310.74Z"/><path class="b3459db1-aca1-4df0-b6ac-576d6c25a7c4" d="M205.86,308.1a.92.92,0,1,1,.92.93A.9.9,0,0,1,205.86,308.1Zm.29,2.79h1.26v9.83h-1.26Z"/><path class="b3459db1-aca1-4df0-b6ac-576d6c25a7c4" d="M214.5,320.86a5.06,5.06,0,1,1,4.95-5.06A4.79,4.79,0,0,1,214.5,320.86Zm0-1.1a3.61,3.61,0,0,0,3.65-4c0-2.7-1.76-4-3.63-4s-3.62,1.26-3.62,4S212.63,319.76,214.5,319.76Zm1.73-13v1.14L212.54,310v-1Z"/><path class="b3459db1-aca1-4df0-b6ac-576d6c25a7c4" d="M229.1,315.1c0-2.18-1.19-3.29-3-3.29S223,313,223,315.35v5.37h-1.26v-9.83H223v1.67a3.6,3.6,0,0,1,3.35-1.85c2.23,0,4,1.37,4,4.25v5.76H229.1Z"/><path class="b3459db1-aca1-4df0-b6ac-576d6c25a7c4" d="M242.2,310.74a4.29,4.29,0,0,1,3.87,2.27v-5.62h1.26v13.33h-1.26v-2.2a4.1,4.1,0,0,1-3.89,2.34c-2.7,0-4.7-2-4.7-5.08S239.48,310.74,242.2,310.74Zm.21,1.1c-2.07,0-3.65,1.44-3.65,3.94s1.58,4,3.65,4a4,4,0,0,0,0-7.92Z"/><path class="b3459db1-aca1-4df0-b6ac-576d6c25a7c4" d="M254.43,320.86c-2.79,0-4.82-1.94-4.82-5.06s2-5.06,4.82-5.06a4.43,4.43,0,0,1,4.65,4.56,7.79,7.79,0,0,1,0,1h-8.15a3.43,3.43,0,0,0,3.54,3.51,3,3,0,0,0,3.17-2.2h1.33A4.31,4.31,0,0,1,254.43,320.86Zm-3.54-5.6h6.91a3.22,3.22,0,0,0-3.42-3.44A3.4,3.4,0,0,0,250.89,315.26Z"/><path class="b3459db1-aca1-4df0-b6ac-576d6c25a7c4" d="M266.49,310.89l3.31,8.6,3.32-8.6h1.33l-3.94,9.83h-1.43l-3.94-9.83Z"/><path class="b3459db1-aca1-4df0-b6ac-576d6c25a7c4" d="M279.86,310.74a4.11,4.11,0,0,1,3.89,2.31v-2.16H285v9.83h-1.26v-2.18a4.16,4.16,0,0,1-3.91,2.32c-2.68,0-4.68-2-4.68-5.08S277.16,310.74,279.86,310.74Zm.23,1.1c-2.07,0-3.65,1.44-3.65,3.94s1.58,4,3.65,4a4,4,0,0,0,0-7.92Z"/><path class="b3459db1-aca1-4df0-b6ac-576d6c25a7c4" d="M287.84,307.39h1.26v13.33h-1.26Z"/><path class="b3459db1-aca1-4df0-b6ac-576d6c25a7c4" d="M291.61,308.1a.92.92,0,1,1,.92.93A.9.9,0,0,1,291.61,308.1Zm.28,2.79h1.27v9.83h-1.27Z"/><path class="b3459db1-aca1-4df0-b6ac-576d6c25a7c4" d="M300.09,310.74A4.29,4.29,0,0,1,304,313v-5.62h1.26v13.33H304v-2.2a4.1,4.1,0,0,1-3.89,2.34c-2.7,0-4.7-2-4.7-5.08S297.37,310.74,300.09,310.74Zm.21,1.1c-2.07,0-3.65,1.44-3.65,3.94s1.58,4,3.65,4a4,4,0,0,0,0-7.92Z"/><path class="b3459db1-aca1-4df0-b6ac-576d6c25a7c4" d="M312.32,320.86c-2.79,0-4.82-1.94-4.82-5.06s2-5.06,4.82-5.06A4.43,4.43,0,0,1,317,315.3a7.79,7.79,0,0,1,0,1h-8.16a3.45,3.45,0,0,0,3.55,3.51,3,3,0,0,0,3.17-2.2h1.33A4.31,4.31,0,0,1,312.32,320.86Zm-3.55-5.6h6.92a3.22,3.22,0,0,0-3.42-3.44A3.41,3.41,0,0,0,308.77,315.26Z"/><path class="b3459db1-aca1-4df0-b6ac-576d6c25a7c4" d="M324.57,311.93l-5.06,7.74h5.15v1.05h-6.59v-1.05l5.06-7.74h-5v-1h6.41Z"/><path class="b3459db1-aca1-4df0-b6ac-576d6c25a7c4" d="M325.15,324.07v-.13A14.83,14.83,0,0,0,325,304v-.13h1.32a14,14,0,0,1,3.83,10.17,14.14,14.14,0,0,1-3.63,10Z"/><path class="b3459db1-aca1-4df0-b6ac-576d6c25a7c4" d="M332.69,320.81a.92.92,0,0,1-.92-.94.91.91,0,1,1,1.82,0A.92.92,0,0,1,332.69,320.81Z"/></svg>